<svg width="24" height="24" viewBox="0 0 20 20" fill="none" xmlns="http://www.w3.org/2000/svg">
<path fill-rule="evenodd" clip-rule="evenodd" d="M9.82005 0.381971C9.89113 0.508014 9.92423 0.651929 9.91535 0.796361C9.90648 0.940793 9.85602 1.07957 9.77005 1.19597C8.85142 2.44024 8.4097 3.9728 8.52515 5.51513C8.64061 7.05745 9.30558 8.50716 10.3992 9.6008C11.4929 10.6944 12.9426 11.3594 14.4849 11.4749C16.0272 11.5903 17.5598 11.1486 18.804 10.23C18.9204 10.1438 19.0592 10.0932 19.2037 10.0843C19.3482 10.0753 19.4922 10.1083 19.6183 10.1793C19.7445 10.2504 19.8473 10.3564 19.9145 10.4847C19.9817 10.6129 20.0104 10.7578 19.997 10.902C19.822 12.7971 19.1109 14.6032 17.9468 16.1089C16.7828 17.6146 15.214 18.7577 13.424 19.4043C11.634 20.051 9.6969 20.1745 7.8393 19.7604C5.9817 19.3462 4.28046 18.4117 2.93463 17.066C1.5888 15.7203 0.654061 14.0191 0.239781 12.1615C-0.174499 10.304 -0.0511819 8.36683 0.595302 6.5768C1.24179 4.78676 2.3847 3.21786 3.8903 2.05368C5.39591 0.889499 7.20193 0.178185 9.09705 0.0029712C9.24129 -0.0104273 9.38632 0.0182335 9.51463 0.0854905C9.64293 0.152747 9.74901 0.255722 9.82005 0.381971ZM7.70005 1.78197C6.27058 2.18628 4.97168 2.95732 3.93219 4.0186C2.8927 5.07987 2.14877 6.39449 1.77419 7.83203C1.39961 9.26957 1.40741 10.7801 1.7968 12.2137C2.1862 13.6473 2.94367 14.9541 3.99405 16.0046C5.04444 17.0551 6.35124 17.8127 7.7848 18.2022C9.21836 18.5918 10.7289 18.5997 12.1664 18.2253C13.604 17.8508 14.9187 17.107 15.9801 16.0676C17.0414 15.0282 17.8126 13.7294 18.217 12.3C16.7453 12.9586 15.1082 13.1547 13.5225 12.8623C11.9369 12.57 10.4773 11.8029 9.33721 10.6628C8.19707 9.52267 7.43006 8.06316 7.13771 6.47749C6.84536 4.89181 7.04146 3.25374 7.70005 1.78197Z" fill="white"/>
</svg>
