<svg width="24" height="24" viewBox="0 0 24 24" fill="none" xmlns="http://www.w3.org/2000/svg">
<path fill-rule="evenodd" clip-rule="evenodd" d="M12.0064 9.00171C10.3492 9.00171 9.00574 10.3452 9.00574 12.0024C9.00574 13.6596 10.3492 15.0031 12.0064 15.0031C13.6636 15.0031 15.0071 13.6596 15.0071 12.0024C15.0071 10.3452 13.6636 9.00171 12.0064 9.00171ZM7.50574 12.0024C7.50574 9.51673 9.52076 7.50171 12.0064 7.50171C14.4921 7.50171 16.5071 9.51673 16.5071 12.0024C16.5071 14.488 14.4921 16.5031 12.0064 16.5031C9.52076 16.5031 7.50574 14.488 7.50574 12.0024Z" fill="currentColor"/>
<path fill-rule="evenodd" clip-rule="evenodd" d="M12.0062 2.02612C12.4204 2.02612 12.7562 2.36191 12.7562 2.77612V4.27639C12.7562 4.69061 12.4204 5.02639 12.0062 5.02639C11.592 5.02639 11.2562 4.69061 11.2562 4.27639V2.77612C11.2562 2.36191 11.592 2.02612 12.0062 2.02612Z" fill="currentColor"/>
<path fill-rule="evenodd" clip-rule="evenodd" d="M12.0062 18.9888C12.4204 18.9888 12.7562 19.3246 12.7562 19.7388V21.239C12.7562 21.6533 12.4204 21.989 12.0062 21.989C11.592 21.989 11.2562 21.6533 11.2562 21.239V19.7388C11.2562 19.3246 11.592 18.9888 12.0062 18.9888Z" fill="currentColor"/>
<path fill-rule="evenodd" clip-rule="evenodd" d="M4.85949 4.81973C5.16737 4.54264 5.64159 4.5676 5.91868 4.87548L7.26893 6.37575C7.54602 6.68363 7.52106 7.15785 7.21318 7.43494C6.9053 7.71204 6.43108 7.68708 6.15398 7.3792L4.80374 5.87893C4.52665 5.57104 4.55161 5.09683 4.85949 4.81973Z" fill="currentColor"/>
<path fill-rule="evenodd" clip-rule="evenodd" d="M16.7369 16.6303C17.0448 16.3532 17.519 16.3781 17.7961 16.686L19.1464 18.1863C19.4235 18.4942 19.3985 18.9684 19.0906 19.2455C18.7827 19.5226 18.3085 19.4976 18.0314 19.1897L16.6812 17.6895C16.4041 17.3816 16.429 16.9074 16.7369 16.6303Z" fill="currentColor"/>
<path fill-rule="evenodd" clip-rule="evenodd" d="M2.01416 12.0032C2.01416 11.589 2.34995 11.2532 2.76416 11.2532H4.56507C4.97928 11.2532 5.31507 11.589 5.31507 12.0032C5.31507 12.4174 4.97928 12.7532 4.56507 12.7532H2.76416C2.34995 12.7532 2.01416 12.4174 2.01416 12.0032Z" fill="currentColor"/>
<path fill-rule="evenodd" clip-rule="evenodd" d="M18.6516 12.0032C18.6516 11.589 18.9874 11.2532 19.4016 11.2532H21.2025C21.6167 11.2532 21.9525 11.589 21.9525 12.0032C21.9525 12.4174 21.6167 12.7532 21.2025 12.7532H19.4016C18.9874 12.7532 18.6516 12.4174 18.6516 12.0032Z" fill="currentColor"/>
<path fill-rule="evenodd" clip-rule="evenodd" d="M7.22929 16.5658C7.53717 16.8429 7.56213 17.3171 7.28504 17.625L5.9348 19.1253C5.6577 19.4332 5.18348 19.4581 4.8756 19.181C4.56772 18.9039 4.54276 18.4297 4.81986 18.1218L6.1701 16.6216C6.44719 16.3137 6.92141 16.2887 7.22929 16.5658Z" fill="currentColor"/>
<path fill-rule="evenodd" clip-rule="evenodd" d="M19.1353 4.81973C19.4432 5.09683 19.4681 5.57104 19.191 5.87893L17.8408 7.3792C17.5637 7.68708 17.0895 7.71204 16.7816 7.43494C16.4737 7.15785 16.4488 6.68363 16.7259 6.37575L18.0761 4.87548C18.3532 4.5676 18.8274 4.54264 19.1353 4.81973Z" fill="currentColor"/>
</svg>