<svg width="570" height="578" viewBox="0 0 570 578" fill="none" xmlns="http://www.w3.org/2000/svg">
<path d="M21.127 11.0059C21.8288 11.0059 22.4303 11.1335 22.9316 11.3887C23.4329 11.6439 23.8112 12.0039 24.0664 12.4688C24.3262 12.929 24.4561 13.4714 24.4561 14.0957C24.4561 14.7155 24.3262 15.2578 24.0664 15.7227C23.8112 16.1829 23.4329 16.5407 22.9316 16.7959C22.4303 17.0511 21.8288 17.1787 21.127 17.1787H18.9805V21H17.4082V11.0059H21.127ZM20.9766 15.8936C22.2207 15.8936 22.8428 15.2943 22.8428 14.0957C22.8428 12.888 22.2207 12.2842 20.9766 12.2842H18.9805V15.8936H20.9766ZM27.792 21.1436C27.0537 21.1436 26.4749 20.9476 26.0557 20.5557C25.6364 20.1592 25.4268 19.5986 25.4268 18.874C25.4268 18.4274 25.5202 18.0514 25.707 17.7461C25.8939 17.4408 26.1855 17.1924 26.582 17.001C26.9785 16.805 27.4935 16.6546 28.127 16.5498C28.6237 16.4678 29.002 16.3766 29.2617 16.2764C29.5215 16.1761 29.6969 16.0645 29.7881 15.9414C29.8792 15.8138 29.9248 15.6543 29.9248 15.4629C29.9248 15.1712 29.8223 14.9479 29.6172 14.793C29.4167 14.638 29.0885 14.5605 28.6328 14.5605C27.7715 14.5605 27.04 14.9183 26.4385 15.6338H26.3018L25.6318 14.6494C25.9827 14.2347 26.418 13.9089 26.9375 13.6719C27.4616 13.4349 28.0426 13.3164 28.6807 13.3164C29.624 13.3164 30.3122 13.5192 30.7451 13.9248C31.1826 14.3304 31.4014 14.9001 31.4014 15.6338V19.2705C31.4014 19.6488 31.5632 19.8379 31.8867 19.8379C32.0052 19.8379 32.1191 19.8174 32.2285 19.7764L32.3242 19.8037L32.4541 20.8496C32.363 20.9134 32.2354 20.9635 32.0713 21C31.9118 21.0365 31.7409 21.0547 31.5586 21.0547C31.1257 21.0547 30.793 20.9658 30.5605 20.7881C30.3327 20.6104 30.1755 20.3392 30.0889 19.9746L29.9453 19.9609C29.7448 20.3574 29.4668 20.6536 29.1113 20.8496C28.7604 21.0456 28.3206 21.1436 27.792 21.1436ZM28.2158 19.9883C28.5667 19.9883 28.8743 19.9085 29.1387 19.749C29.403 19.585 29.6058 19.3525 29.7471 19.0518C29.8883 18.751 29.959 18.3978 29.959 17.9922V17.1309L29.8291 17.1035C29.6878 17.2083 29.5101 17.2972 29.2959 17.3701C29.0863 17.4385 28.7855 17.5046 28.3936 17.5684C27.8649 17.6458 27.4889 17.7848 27.2656 17.9854C27.0469 18.1813 26.9375 18.4593 26.9375 18.8193C26.9375 19.2021 27.0492 19.4938 27.2725 19.6943C27.4958 19.8903 27.8102 19.9883 28.2158 19.9883ZM36.5352 24.1992C35.3184 24.1992 34.4251 24.0078 33.8555 23.625C33.2858 23.2467 33.001 22.7318 33.001 22.0801C33.001 21.6699 33.1286 21.3372 33.3838 21.082C33.639 20.8268 34.0059 20.6514 34.4844 20.5557V20.4121C34.2428 20.2708 34.0651 20.109 33.9512 19.9268C33.8372 19.7399 33.7803 19.5234 33.7803 19.2773C33.7803 18.6895 34.1608 18.2975 34.9219 18.1016V17.958C34.1016 17.5068 33.6914 16.8027 33.6914 15.8457C33.6914 15.349 33.8053 14.9092 34.0332 14.5264C34.2611 14.1436 34.5892 13.8473 35.0176 13.6377C35.446 13.4235 35.9541 13.3164 36.542 13.3164C37.1709 13.3164 37.6859 13.4395 38.0869 13.6855C38.3512 13.3574 38.5039 12.9541 38.5449 12.4756L38.6885 12.3867L39.8232 12.6602C39.7822 13.0293 39.6729 13.3438 39.4951 13.6035C39.3174 13.8587 39.0553 14.0752 38.709 14.2529V14.4033C39.1602 14.7725 39.3857 15.2943 39.3857 15.9688C39.3857 16.4382 39.2695 16.862 39.0371 17.2402C38.8092 17.6139 38.4788 17.9079 38.0459 18.1221C37.6175 18.3363 37.1162 18.4434 36.542 18.4434C36.4919 18.4434 36.3848 18.4388 36.2207 18.4297C36.0384 18.4206 35.9085 18.416 35.8311 18.416C35.626 18.416 35.4642 18.4707 35.3457 18.5801C35.2272 18.6895 35.168 18.8285 35.168 18.9971C35.168 19.193 35.2363 19.3411 35.373 19.4414C35.5143 19.5417 35.7354 19.5986 36.0361 19.6123L37.7725 19.6738C39.363 19.724 40.1582 20.4076 40.1582 21.7246C40.1582 22.194 40.0352 22.6133 39.7891 22.9824C39.543 23.3561 39.1488 23.6523 38.6064 23.8711C38.0687 24.0898 37.3783 24.1992 36.5352 24.1992ZM36.542 17.3018C36.9886 17.3018 37.335 17.1787 37.5811 16.9326C37.8317 16.6865 37.957 16.3379 37.957 15.8867C37.957 15.431 37.834 15.0801 37.5879 14.834C37.3418 14.5833 36.9932 14.458 36.542 14.458C36.0863 14.458 35.7376 14.5811 35.4961 14.8271C35.2546 15.0732 35.1338 15.4264 35.1338 15.8867C35.1338 16.3379 35.2546 16.6865 35.4961 16.9326C35.7376 17.1787 36.0863 17.3018 36.542 17.3018ZM36.5352 23.0371C37.2689 23.0371 37.8021 22.9255 38.1348 22.7021C38.472 22.4834 38.6406 22.2054 38.6406 21.8682C38.6406 21.5811 38.554 21.3737 38.3809 21.2461C38.2122 21.1185 37.9251 21.0456 37.5195 21.0273L35.9336 20.9453L35.6807 20.9385C35.2751 20.943 34.9743 21.0273 34.7783 21.1914C34.5824 21.36 34.4844 21.5902 34.4844 21.8818C34.4844 22.2601 34.6553 22.5472 34.9971 22.7432C35.3389 22.9391 35.8516 23.0371 36.5352 23.0371ZM47.6299 17.5684H42.6123C42.6989 19.0814 43.4007 19.8379 44.7178 19.8379C45.2054 19.8379 45.5973 19.7513 45.8936 19.5781C46.1943 19.4004 46.4313 19.127 46.6045 18.7578H46.748L47.7393 19.373C47.5068 19.9108 47.1445 20.3415 46.6523 20.665C46.1647 20.984 45.5199 21.1436 44.7178 21.1436C43.9658 21.1436 43.3164 20.9977 42.7695 20.7061C42.2227 20.4144 41.8011 19.9769 41.5049 19.3936C41.2087 18.8102 41.0605 18.0902 41.0605 17.2334C41.0605 16.3766 41.2155 15.6543 41.5254 15.0664C41.8353 14.4785 42.2591 14.041 42.7969 13.7539C43.3346 13.4622 43.9408 13.3164 44.6152 13.3164C45.6315 13.3164 46.4154 13.5944 46.9668 14.1504C47.5228 14.7064 47.8031 15.5244 47.8076 16.6045C47.8076 17.0101 47.7962 17.304 47.7734 17.4863L47.6299 17.5684ZM46.3516 16.4951C46.3333 15.807 46.1761 15.3057 45.8799 14.9912C45.5882 14.6768 45.1667 14.5195 44.6152 14.5195C44.0592 14.5195 43.6126 14.6768 43.2754 14.9912C42.9427 15.3057 42.7331 15.807 42.6465 16.4951H46.3516ZM52.4287 21V19.6943H54.999V12.7627L54.8418 12.7217C54.4544 12.9131 54.0944 13.0612 53.7617 13.166C53.4336 13.2708 53.0303 13.3665 52.5518 13.4531V12.0654C53.6729 11.8285 54.6025 11.4753 55.3408 11.0059H56.5508V19.6943H58.8477V21H52.4287ZM67.3037 16.8096H63.2637V15.4766H67.3037V16.8096Z" fill="#0E1318"/>
<path d="M81.2969 21H79.6289L78.7881 18.4775H74.7412L73.9072 21H72.2734L75.7461 11.0059H77.8242L81.2969 21ZM76.6758 12.6533L75.1855 17.1514H78.3438L76.8467 12.6533H76.6758ZM85.3916 21.1436C84.79 21.1436 84.2568 21 83.792 20.7129C83.3317 20.4212 82.9717 19.9837 82.7119 19.4004C82.4521 18.8171 82.3223 18.0947 82.3223 17.2334C82.3223 16.3721 82.4567 15.6497 82.7256 15.0664C82.999 14.4785 83.3727 14.041 83.8467 13.7539C84.3252 13.4622 84.8766 13.3164 85.501 13.3164C85.9886 13.3164 86.4193 13.4053 86.793 13.583C87.1667 13.7562 87.4834 14.0365 87.7432 14.4238L87.8867 14.3896V10.4316H89.3906V21H87.8867V19.9609L87.7432 19.9336C87.5107 20.2982 87.1986 20.5921 86.8066 20.8154C86.4147 21.0342 85.943 21.1436 85.3916 21.1436ZM85.8701 19.8379C86.4899 19.8379 86.9821 19.6237 87.3467 19.1953C87.7113 18.7624 87.8936 18.1084 87.8936 17.2334C87.8936 16.3493 87.7113 15.693 87.3467 15.2646C86.9821 14.8317 86.4899 14.6152 85.8701 14.6152C84.5439 14.6152 83.8809 15.488 83.8809 17.2334C83.8809 18.9697 84.5439 19.8379 85.8701 19.8379ZM94.415 21.1436C93.8135 21.1436 93.2803 21 92.8154 20.7129C92.3551 20.4212 91.9951 19.9837 91.7354 19.4004C91.4756 18.8171 91.3457 18.0947 91.3457 17.2334C91.3457 16.3721 91.4801 15.6497 91.749 15.0664C92.0225 14.4785 92.3962 14.041 92.8701 13.7539C93.3486 13.4622 93.9001 13.3164 94.5244 13.3164C95.012 13.3164 95.4427 13.4053 95.8164 13.583C96.1901 13.7562 96.5068 14.0365 96.7666 14.4238L96.9102 14.3896V10.4316H98.4141V21H96.9102V19.9609L96.7666 19.9336C96.5342 20.2982 96.222 20.5921 95.8301 20.8154C95.4382 21.0342 94.9665 21.1436 94.415 21.1436ZM94.8936 19.8379C95.5133 19.8379 96.0055 19.6237 96.3701 19.1953C96.7347 18.7624 96.917 18.1084 96.917 17.2334C96.917 16.3493 96.7347 15.693 96.3701 15.2646C96.0055 14.8317 95.5133 14.6152 94.8936 14.6152C93.5674 14.6152 92.9043 15.488 92.9043 17.2334C92.9043 18.9697 93.5674 19.8379 94.8936 19.8379ZM104.197 24.0557V13.46H105.701V14.5127L105.845 14.54C106.1 14.1253 106.426 13.8177 106.822 13.6172C107.219 13.4167 107.672 13.3164 108.183 13.3164C108.802 13.3164 109.342 13.46 109.803 13.7471C110.263 14.0342 110.621 14.4717 110.876 15.0596C111.131 15.6429 111.259 16.3675 111.259 17.2334C111.259 18.0947 111.122 18.8171 110.849 19.4004C110.58 19.9837 110.206 20.4212 109.728 20.7129C109.254 21 108.704 21.1436 108.08 21.1436C107.592 21.1436 107.164 21.0592 106.795 20.8906C106.426 20.722 106.109 20.4531 105.845 20.084L105.701 20.1113V24.0557H104.197ZM107.69 19.8379C108.342 19.8379 108.839 19.6305 109.181 19.2158C109.527 18.7965 109.7 18.1357 109.7 17.2334C109.7 16.3265 109.527 15.6634 109.181 15.2441C108.839 14.8249 108.342 14.6152 107.69 14.6152C107.084 14.6152 106.599 14.8317 106.234 15.2646C105.87 15.6976 105.688 16.3538 105.688 17.2334C105.688 18.1084 105.87 18.7624 106.234 19.1953C106.599 19.6237 107.084 19.8379 107.69 19.8379ZM115.046 21.1436C114.308 21.1436 113.729 20.9476 113.31 20.5557C112.89 20.1592 112.681 19.5986 112.681 18.874C112.681 18.4274 112.774 18.0514 112.961 17.7461C113.148 17.4408 113.439 17.1924 113.836 17.001C114.232 16.805 114.747 16.6546 115.381 16.5498C115.878 16.4678 116.256 16.3766 116.516 16.2764C116.775 16.1761 116.951 16.0645 117.042 15.9414C117.133 15.8138 117.179 15.6543 117.179 15.4629C117.179 15.1712 117.076 14.9479 116.871 14.793C116.671 14.638 116.342 14.5605 115.887 14.5605C115.025 14.5605 114.294 14.9183 113.692 15.6338H113.556L112.886 14.6494C113.237 14.2347 113.672 13.9089 114.191 13.6719C114.715 13.4349 115.297 13.3164 115.935 13.3164C116.878 13.3164 117.566 13.5192 117.999 13.9248C118.437 14.3304 118.655 14.9001 118.655 15.6338V19.2705C118.655 19.6488 118.817 19.8379 119.141 19.8379C119.259 19.8379 119.373 19.8174 119.482 19.7764L119.578 19.8037L119.708 20.8496C119.617 20.9134 119.489 20.9635 119.325 21C119.166 21.0365 118.995 21.0547 118.812 21.0547C118.38 21.0547 118.047 20.9658 117.814 20.7881C117.587 20.6104 117.429 20.3392 117.343 19.9746L117.199 19.9609C116.999 20.3574 116.721 20.6536 116.365 20.8496C116.014 21.0456 115.575 21.1436 115.046 21.1436ZM115.47 19.9883C115.821 19.9883 116.128 19.9085 116.393 19.749C116.657 19.585 116.86 19.3525 117.001 19.0518C117.142 18.751 117.213 18.3978 117.213 17.9922V17.1309L117.083 17.1035C116.942 17.2083 116.764 17.2972 116.55 17.3701C116.34 17.4385 116.039 17.5046 115.647 17.5684C115.119 17.6458 114.743 17.7848 114.52 17.9854C114.301 18.1813 114.191 18.4593 114.191 18.8193C114.191 19.2021 114.303 19.4938 114.526 19.6943C114.75 19.8903 115.064 19.9883 115.47 19.9883ZM123.789 24.1992C122.572 24.1992 121.679 24.0078 121.109 23.625C120.54 23.2467 120.255 22.7318 120.255 22.0801C120.255 21.6699 120.382 21.3372 120.638 21.082C120.893 20.8268 121.26 20.6514 121.738 20.5557V20.4121C121.497 20.2708 121.319 20.109 121.205 19.9268C121.091 19.7399 121.034 19.5234 121.034 19.2773C121.034 18.6895 121.415 18.2975 122.176 18.1016V17.958C121.355 17.5068 120.945 16.8027 120.945 15.8457C120.945 15.349 121.059 14.9092 121.287 14.5264C121.515 14.1436 121.843 13.8473 122.271 13.6377C122.7 13.4235 123.208 13.3164 123.796 13.3164C124.425 13.3164 124.94 13.4395 125.341 13.6855C125.605 13.3574 125.758 12.9541 125.799 12.4756L125.942 12.3867L127.077 12.6602C127.036 13.0293 126.927 13.3438 126.749 13.6035C126.571 13.8587 126.309 14.0752 125.963 14.2529V14.4033C126.414 14.7725 126.64 15.2943 126.64 15.9688C126.64 16.4382 126.523 16.862 126.291 17.2402C126.063 17.6139 125.733 17.9079 125.3 18.1221C124.871 18.3363 124.37 18.4434 123.796 18.4434C123.746 18.4434 123.639 18.4388 123.475 18.4297C123.292 18.4206 123.162 18.416 123.085 18.416C122.88 18.416 122.718 18.4707 122.6 18.5801C122.481 18.6895 122.422 18.8285 122.422 18.9971C122.422 19.193 122.49 19.3411 122.627 19.4414C122.768 19.5417 122.989 19.5986 123.29 19.6123L125.026 19.6738C126.617 19.724 127.412 20.4076 127.412 21.7246C127.412 22.194 127.289 22.6133 127.043 22.9824C126.797 23.3561 126.403 23.6523 125.86 23.8711C125.323 24.0898 124.632 24.1992 123.789 24.1992ZM123.796 17.3018C124.243 17.3018 124.589 17.1787 124.835 16.9326C125.086 16.6865 125.211 16.3379 125.211 15.8867C125.211 15.431 125.088 15.0801 124.842 14.834C124.596 14.5833 124.247 14.458 123.796 14.458C123.34 14.458 122.992 14.5811 122.75 14.8271C122.508 15.0732 122.388 15.4264 122.388 15.8867C122.388 16.3379 122.508 16.6865 122.75 16.9326C122.992 17.1787 123.34 17.3018 123.796 17.3018ZM123.789 23.0371C124.523 23.0371 125.056 22.9255 125.389 22.7021C125.726 22.4834 125.895 22.2054 125.895 21.8682C125.895 21.5811 125.808 21.3737 125.635 21.2461C125.466 21.1185 125.179 21.0456 124.773 21.0273L123.188 20.9453L122.935 20.9385C122.529 20.943 122.228 21.0273 122.032 21.1914C121.836 21.36 121.738 21.5902 121.738 21.8818C121.738 22.2601 121.909 22.5472 122.251 22.7432C122.593 22.9391 123.105 23.0371 123.789 23.0371ZM134.884 17.5684H129.866C129.953 19.0814 130.655 19.8379 131.972 19.8379C132.459 19.8379 132.851 19.7513 133.147 19.5781C133.448 19.4004 133.685 19.127 133.858 18.7578H134.002L134.993 19.373C134.761 19.9108 134.398 20.3415 133.906 20.665C133.419 20.984 132.774 21.1436 131.972 21.1436C131.22 21.1436 130.57 20.9977 130.023 20.7061C129.477 20.4144 129.055 19.9769 128.759 19.3936C128.463 18.8102 128.314 18.0902 128.314 17.2334C128.314 16.3766 128.469 15.6543 128.779 15.0664C129.089 14.4785 129.513 14.041 130.051 13.7539C130.589 13.4622 131.195 13.3164 131.869 13.3164C132.885 13.3164 133.669 13.5944 134.221 14.1504C134.777 14.7064 135.057 15.5244 135.062 16.6045C135.062 17.0101 135.05 17.304 135.027 17.4863L134.884 17.5684ZM133.605 16.4951C133.587 15.807 133.43 15.3057 133.134 14.9912C132.842 14.6768 132.421 14.5195 131.869 14.5195C131.313 14.5195 130.867 14.6768 130.529 14.9912C130.197 15.3057 129.987 15.807 129.9 16.4951H133.605ZM144.215 19.5029L144.639 20.6035C144.447 20.7767 144.201 20.9089 143.9 21C143.6 21.0957 143.267 21.1436 142.902 21.1436C142.146 21.1436 141.569 20.943 141.173 20.542C140.776 20.141 140.578 19.5417 140.578 18.7441V14.6631H139.348V13.4531H140.578V11.9219L142.082 11.6758V13.4531H144.365V14.6631H142.082V18.6211C142.082 19.0404 142.169 19.3434 142.342 19.5303C142.52 19.7171 142.772 19.8105 143.101 19.8105C143.47 19.8105 143.793 19.708 144.071 19.5029H144.215ZM146.826 12.2773C146.539 12.2773 146.304 12.1885 146.122 12.0107C145.94 11.833 145.849 11.6051 145.849 11.3271C145.849 11.0537 145.94 10.8281 146.122 10.6504C146.304 10.4727 146.539 10.3838 146.826 10.3838C147.113 10.3838 147.348 10.4727 147.53 10.6504C147.717 10.8281 147.811 11.0537 147.811 11.3271C147.811 11.6051 147.719 11.833 147.537 12.0107C147.355 12.1885 147.118 12.2773 146.826 12.2773ZM146.074 21V13.46H147.578V21H146.074ZM153.936 19.5029L154.359 20.6035C154.168 20.7767 153.922 20.9089 153.621 21C153.32 21.0957 152.988 21.1436 152.623 21.1436C151.867 21.1436 151.29 20.943 150.894 20.542C150.497 20.141 150.299 19.5417 150.299 18.7441V14.6631H149.068V13.4531H150.299V11.9219L151.803 11.6758V13.4531H154.086V14.6631H151.803V18.6211C151.803 19.0404 151.889 19.3434 152.062 19.5303C152.24 19.7171 152.493 19.8105 152.821 19.8105C153.19 19.8105 153.514 19.708 153.792 19.5029H153.936ZM157.661 21.1436C157.055 21.1436 156.586 20.9772 156.253 20.6445C155.92 20.3073 155.754 19.8014 155.754 19.127V10.4316H157.258V19.0518C157.258 19.3298 157.312 19.5303 157.422 19.6533C157.531 19.7764 157.698 19.8379 157.921 19.8379C158.049 19.8379 158.185 19.8174 158.331 19.7764L158.427 19.8037L158.577 20.9658C158.481 21.0251 158.352 21.0684 158.188 21.0957C158.028 21.1276 157.853 21.1436 157.661 21.1436ZM166.138 17.5684H161.12C161.207 19.0814 161.909 19.8379 163.226 19.8379C163.713 19.8379 164.105 19.7513 164.401 19.5781C164.702 19.4004 164.939 19.127 165.112 18.7578H165.256L166.247 19.373C166.015 19.9108 165.652 20.3415 165.16 20.665C164.673 20.984 164.028 21.1436 163.226 21.1436C162.474 21.1436 161.824 20.9977 161.277 20.7061C160.73 20.4144 160.309 19.9769 160.013 19.3936C159.716 18.8102 159.568 18.0902 159.568 17.2334C159.568 16.3766 159.723 15.6543 160.033 15.0664C160.343 14.4785 160.767 14.041 161.305 13.7539C161.842 13.4622 162.449 13.3164 163.123 13.3164C164.139 13.3164 164.923 13.5944 165.475 14.1504C166.031 14.7064 166.311 15.5244 166.315 16.6045C166.315 17.0101 166.304 17.304 166.281 17.4863L166.138 17.5684ZM164.859 16.4951C164.841 15.807 164.684 15.3057 164.388 14.9912C164.096 14.6768 163.674 14.5195 163.123 14.5195C162.567 14.5195 162.12 14.6768 161.783 14.9912C161.451 15.3057 161.241 15.807 161.154 16.4951H164.859Z" fill="#11171D" fill-opacity="0.6"/>
<path d="M363.653 13.6875L360.147 17.1931C360.066 17.2745 359.934 17.2747 359.853 17.1937L356.352 13.6858C356.109 13.4426 355.714 13.4434 355.47 13.6875C355.226 13.9315 355.225 14.3265 355.468 14.5697L358.969 18.0776C359.537 18.6449 360.458 18.6432 361.028 18.0737L364.534 14.568C364.778 14.3239 364.779 13.9289 364.535 13.6858C364.292 13.4426 363.897 13.4434 363.653 13.6875Z" fill="#11171D" fill-opacity="0.6"/>
<path d="M392.351 18.3191L395.853 14.8174C395.934 14.736 396.066 14.736 396.147 14.8174L399.649 18.3191C399.893 18.5632 400.288 18.5632 400.532 18.3191C400.777 18.075 400.777 17.6793 400.532 17.4352L397.031 13.9335C396.462 13.364 395.538 13.364 394.969 13.9335L391.467 17.4352C391.223 17.6793 391.223 18.075 391.467 18.3191C391.711 18.5632 392.107 18.5632 392.351 18.3191Z" fill="#11171D" fill-opacity="0.6"/>
<path fill-rule="evenodd" clip-rule="evenodd" d="M428.438 9.82452C428.94 8.30045 430.369 7.25 432 7.25C434.071 7.25 435.75 8.92893 435.75 11V12.6667H427C426.08 12.6667 425.333 13.4129 425.333 14.3333V21.8333C425.333 22.7538 426.08 23.5 427 23.5H437C437.921 23.5 438.667 22.7538 438.667 21.8333V14.3333C438.667 13.4129 437.921 12.6667 437 12.6667L437 11C437 8.23858 434.762 6 432 6C429.826 6 427.921 7.40029 427.251 9.43304C427.143 9.76086 427.321 10.1142 427.649 10.2223C427.976 10.3304 428.33 10.1523 428.438 9.82452ZM426.583 14.3333C426.583 14.1032 426.77 13.9167 427 13.9167H437C437.23 13.9167 437.417 14.1032 437.417 14.3333V21.8333C437.417 22.0635 437.23 22.25 437 22.25H427C426.77 22.25 426.583 22.0635 426.583 21.8333V14.3333ZM431.376 17.9397L431.374 20.4661C431.373 20.8113 431.653 21.0914 431.998 21.0917C432.343 21.092 432.623 20.8124 432.624 20.4672L432.626 17.9389C433.131 17.6925 433.482 17.1568 433.482 16.5357C433.482 15.681 432.818 14.9881 432 14.9881C431.182 14.9881 430.519 15.681 430.519 16.5357C430.519 17.1575 430.87 17.6936 431.376 17.9397Z" fill="#11171D" fill-opacity="0.6"/>
<path fill-rule="evenodd" clip-rule="evenodd" d="M468.833 8.5H462.167C461.246 8.5 460.5 9.24619 460.5 10.1667V18.5C460.5 19.4205 461.246 20.1667 462.167 20.1667H464.25V18.9167H462.167C461.937 18.9167 461.75 18.7301 461.75 18.5V10.1667C461.75 9.93655 461.937 9.75 462.167 9.75H468.833C469.063 9.75 469.25 9.93655 469.25 10.1667V10.5833H470.5V10.1667C470.5 9.24619 469.754 8.5 468.833 8.5ZM466.75 13.5C466.75 13.2699 466.937 13.0833 467.167 13.0833H473.833C474.063 13.0833 474.25 13.2699 474.25 13.5V21.8333C474.25 22.0635 474.063 22.25 473.833 22.25H467.167C466.937 22.25 466.75 22.0635 466.75 21.8333V13.5ZM467.167 11.8333H473.833C474.754 11.8333 475.5 12.5795 475.5 13.5V21.8333C475.5 22.7538 474.754 23.5 473.833 23.5H467.167C466.246 23.5 465.5 22.7538 465.5 21.8333V13.5C465.5 12.5795 466.246 11.8333 467.167 11.8333ZM469.875 15.7917C469.875 15.4465 470.155 15.1667 470.5 15.1667C470.845 15.1667 471.125 15.4465 471.125 15.7917V17.0417H472.375C472.72 17.0417 473 17.3215 473 17.6667C473 18.0118 472.72 18.2917 472.375 18.2917H471.125V19.5417C471.125 19.8868 470.845 20.1667 470.5 20.1667C470.155 20.1667 469.875 19.8868 469.875 19.5417V18.2917H468.625C468.28 18.2917 468 18.0118 468 17.6667C468 17.3215 468.28 17.0417 468.625 17.0417H469.875V15.7917Z" fill="#11171D" fill-opacity="0.6"/>
<path fill-rule="evenodd" clip-rule="evenodd" d="M503.167 7.66675H504.833C506.214 7.66675 507.333 8.78604 507.333 10.1667H509.833H510.875C511.22 10.1667 511.5 10.4466 511.5 10.7917C511.5 11.1369 511.22 11.4167 510.875 11.4167H509.833V21.0001C509.833 22.3808 508.714 23.5001 507.333 23.5001H500.667C499.286 23.5001 498.167 22.3808 498.167 21.0001V11.4167H497.125C496.78 11.4167 496.5 11.1369 496.5 10.7917C496.5 10.4466 496.78 10.1667 497.125 10.1667H498.167H500.667C500.667 8.78604 501.786 7.66675 503.167 7.66675ZM499.417 11.4167H500.667H507.333H508.583V21.0001C508.583 21.6904 508.024 22.2501 507.333 22.2501H500.667C499.976 22.2501 499.417 21.6904 499.417 21.0001V11.4167ZM506.083 10.1667H501.917C501.917 9.47639 502.476 8.91675 503.167 8.91675H504.833C505.524 8.91675 506.083 9.47639 506.083 10.1667ZM501.708 13.5001H502.958V20.1667H501.708V13.5001ZM506.292 13.5001H505.042V20.1667H506.292V13.5001Z" fill="#11171D" fill-opacity="0.6"/>
<path d="M541.875 16.2083C541.875 16.374 541.941 16.533 542.058 16.6502C542.175 16.7674 542.334 16.8333 542.5 16.8333C542.666 16.8333 542.825 16.7674 542.942 16.6502C543.059 16.533 543.125 16.374 543.125 16.2083V12.4583H546.875C547.041 12.4583 547.2 12.3924 547.317 12.2752C547.434 12.158 547.5 11.999 547.5 11.8333C547.5 11.6675 547.434 11.5085 547.317 11.3913C547.2 11.2741 547.041 11.2083 546.875 11.2083H543.125V7.45825C543.125 7.29249 543.059 7.13352 542.942 7.01631C542.825 6.8991 542.666 6.83325 542.5 6.83325C542.334 6.83325 542.175 6.8991 542.058 7.01631C541.941 7.13352 541.875 7.29249 541.875 7.45825V11.2083H538.125C537.959 11.2083 537.8 11.2741 537.683 11.3913C537.566 11.5085 537.5 11.6675 537.5 11.8333C537.5 11.999 537.566 12.158 537.683 12.2752C537.8 12.3924 537.959 12.4583 538.125 12.4583H541.875V16.2083Z" fill="#11171D" fill-opacity="0.6"/>
<path d="M536.016 9.33325H535C534.558 9.33325 534.134 9.50885 533.822 9.82141C533.509 10.134 533.333 10.5579 533.333 10.9999V20.9999C533.333 21.4419 533.509 21.8659 533.822 22.1784C534.134 22.491 534.558 22.6666 535 22.6666H543.333C543.776 22.6666 544.199 22.491 544.512 22.1784C544.825 21.8659 545 21.4419 545 20.9999V18.8491H543.75V20.9999C543.75 21.1104 543.706 21.2164 543.628 21.2945C543.55 21.3727 543.444 21.4166 543.333 21.4166H535C534.89 21.4166 534.784 21.3727 534.706 21.2945C534.627 21.2164 534.583 21.1104 534.583 20.9999V10.9999C534.583 10.8894 534.627 10.7834 534.706 10.7053C534.784 10.6272 534.89 10.5833 535 10.5833H536.016V9.33325Z" fill="#11171D" fill-opacity="0.6"/>
<g clip-path="url(#clip0_6839_95400)" filter="url(#filter0_dd_6839_95400)">
<rect width="538" height="482" transform="translate(16 40)" fill="white"/>
<rect x="16" y="40" width="538" height="482" fill="white"/>
</g>
<path d="M16.5 546C16.5 541.858 19.8579 538.5 24 538.5H546C550.142 538.5 553.5 541.858 553.5 546V570C553.5 574.142 550.142 577.5 546 577.5H24C19.8579 577.5 16.5 574.142 16.5 570V546Z" stroke="#35475A" stroke-opacity="0.2"/>
<path fill-rule="evenodd" clip-rule="evenodd" d="M244.25 563.25C244.25 563.664 244.586 564 245 564C245.414 564 245.75 563.664 245.75 563.25V558.75H250.25C250.664 558.75 251 558.414 251 558C251 557.586 250.664 557.25 250.25 557.25H245.75V552.75C245.75 552.336 245.414 552 245 552C244.586 552 244.25 552.336 244.25 552.75V557.25H239.75C239.336 557.25 239 557.586 239 558C239 558.414 239.336 558.75 239.75 558.75H244.25V563.25Z" fill="#0E1318"/>
<path d="M270.455 563H268.787L267.946 560.478H263.899L263.065 563H261.432L264.904 553.006H266.982L270.455 563ZM265.834 554.653L264.344 559.151H267.502L266.005 554.653H265.834ZM274.55 563.144C273.948 563.144 273.415 563 272.95 562.713C272.49 562.421 272.13 561.984 271.87 561.4C271.61 560.817 271.48 560.095 271.48 559.233C271.48 558.372 271.615 557.65 271.884 557.066C272.157 556.479 272.531 556.041 273.005 555.754C273.483 555.462 274.035 555.316 274.659 555.316C275.147 555.316 275.577 555.405 275.951 555.583C276.325 555.756 276.642 556.036 276.901 556.424L277.045 556.39V552.432H278.549V563H277.045V561.961L276.901 561.934C276.669 562.298 276.357 562.592 275.965 562.815C275.573 563.034 275.101 563.144 274.55 563.144ZM275.028 561.838C275.648 561.838 276.14 561.624 276.505 561.195C276.869 560.762 277.052 560.108 277.052 559.233C277.052 558.349 276.869 557.693 276.505 557.265C276.14 556.832 275.648 556.615 275.028 556.615C273.702 556.615 273.039 557.488 273.039 559.233C273.039 560.97 273.702 561.838 275.028 561.838ZM283.573 563.144C282.972 563.144 282.438 563 281.974 562.713C281.513 562.421 281.153 561.984 280.894 561.4C280.634 560.817 280.504 560.095 280.504 559.233C280.504 558.372 280.638 557.65 280.907 557.066C281.181 556.479 281.554 556.041 282.028 555.754C282.507 555.462 283.058 555.316 283.683 555.316C284.17 555.316 284.601 555.405 284.975 555.583C285.348 555.756 285.665 556.036 285.925 556.424L286.068 556.39V552.432H287.572V563H286.068V561.961L285.925 561.934C285.692 562.298 285.38 562.592 284.988 562.815C284.596 563.034 284.125 563.144 283.573 563.144ZM284.052 561.838C284.672 561.838 285.164 561.624 285.528 561.195C285.893 560.762 286.075 560.108 286.075 559.233C286.075 558.349 285.893 557.693 285.528 557.265C285.164 556.832 284.672 556.615 284.052 556.615C282.726 556.615 282.062 557.488 282.062 559.233C282.062 560.97 282.726 561.838 284.052 561.838ZM293.355 566.056V555.46H294.859V556.513L295.003 556.54C295.258 556.125 295.584 555.818 295.98 555.617C296.377 555.417 296.83 555.316 297.341 555.316C297.961 555.316 298.501 555.46 298.961 555.747C299.421 556.034 299.779 556.472 300.034 557.06C300.289 557.643 300.417 558.368 300.417 559.233C300.417 560.095 300.28 560.817 300.007 561.4C299.738 561.984 299.364 562.421 298.886 562.713C298.412 563 297.863 563.144 297.238 563.144C296.751 563.144 296.322 563.059 295.953 562.891C295.584 562.722 295.267 562.453 295.003 562.084L294.859 562.111V566.056H293.355ZM296.849 561.838C297.5 561.838 297.997 561.631 298.339 561.216C298.685 560.797 298.858 560.136 298.858 559.233C298.858 558.326 298.685 557.663 298.339 557.244C297.997 556.825 297.5 556.615 296.849 556.615C296.243 556.615 295.757 556.832 295.393 557.265C295.028 557.698 294.846 558.354 294.846 559.233C294.846 560.108 295.028 560.762 295.393 561.195C295.757 561.624 296.243 561.838 296.849 561.838ZM304.204 563.144C303.466 563.144 302.887 562.948 302.468 562.556C302.049 562.159 301.839 561.599 301.839 560.874C301.839 560.427 301.932 560.051 302.119 559.746C302.306 559.441 302.598 559.192 302.994 559.001C303.391 558.805 303.906 558.655 304.539 558.55C305.036 558.468 305.414 558.377 305.674 558.276C305.934 558.176 306.109 558.064 306.2 557.941C306.291 557.814 306.337 557.654 306.337 557.463C306.337 557.171 306.234 556.948 306.029 556.793C305.829 556.638 305.501 556.561 305.045 556.561C304.184 556.561 303.452 556.918 302.851 557.634H302.714L302.044 556.649C302.395 556.235 302.83 555.909 303.35 555.672C303.874 555.435 304.455 555.316 305.093 555.316C306.036 555.316 306.724 555.519 307.157 555.925C307.595 556.33 307.813 556.9 307.813 557.634V561.271C307.813 561.649 307.975 561.838 308.299 561.838C308.417 561.838 308.531 561.817 308.641 561.776L308.736 561.804L308.866 562.85C308.775 562.913 308.647 562.964 308.483 563C308.324 563.036 308.153 563.055 307.971 563.055C307.538 563.055 307.205 562.966 306.973 562.788C306.745 562.61 306.588 562.339 306.501 561.975L306.357 561.961C306.157 562.357 305.879 562.654 305.523 562.85C305.173 563.046 304.733 563.144 304.204 563.144ZM304.628 561.988C304.979 561.988 305.286 561.909 305.551 561.749C305.815 561.585 306.018 561.353 306.159 561.052C306.3 560.751 306.371 560.398 306.371 559.992V559.131L306.241 559.104C306.1 559.208 305.922 559.297 305.708 559.37C305.498 559.438 305.198 559.505 304.806 559.568C304.277 559.646 303.901 559.785 303.678 559.985C303.459 560.181 303.35 560.459 303.35 560.819C303.35 561.202 303.461 561.494 303.685 561.694C303.908 561.89 304.222 561.988 304.628 561.988ZM312.947 566.199C311.73 566.199 310.837 566.008 310.268 565.625C309.698 565.247 309.413 564.732 309.413 564.08C309.413 563.67 309.541 563.337 309.796 563.082C310.051 562.827 310.418 562.651 310.896 562.556V562.412C310.655 562.271 310.477 562.109 310.363 561.927C310.249 561.74 310.192 561.523 310.192 561.277C310.192 560.689 310.573 560.298 311.334 560.102V559.958C310.514 559.507 310.104 558.803 310.104 557.846C310.104 557.349 310.217 556.909 310.445 556.526C310.673 556.144 311.001 555.847 311.43 555.638C311.858 555.424 312.366 555.316 312.954 555.316C313.583 555.316 314.098 555.439 314.499 555.686C314.763 555.357 314.916 554.954 314.957 554.476L315.101 554.387L316.235 554.66C316.194 555.029 316.085 555.344 315.907 555.604C315.729 555.859 315.467 556.075 315.121 556.253V556.403C315.572 556.772 315.798 557.294 315.798 557.969C315.798 558.438 315.682 558.862 315.449 559.24C315.221 559.614 314.891 559.908 314.458 560.122C314.03 560.336 313.528 560.443 312.954 560.443C312.904 560.443 312.797 560.439 312.633 560.43C312.451 560.421 312.321 560.416 312.243 560.416C312.038 560.416 311.876 560.471 311.758 560.58C311.639 560.689 311.58 560.828 311.58 560.997C311.58 561.193 311.648 561.341 311.785 561.441C311.926 561.542 312.147 561.599 312.448 561.612L314.185 561.674C315.775 561.724 316.57 562.408 316.57 563.725C316.57 564.194 316.447 564.613 316.201 564.982C315.955 565.356 315.561 565.652 315.019 565.871C314.481 566.09 313.79 566.199 312.947 566.199ZM312.954 559.302C313.401 559.302 313.747 559.179 313.993 558.933C314.244 558.687 314.369 558.338 314.369 557.887C314.369 557.431 314.246 557.08 314 556.834C313.754 556.583 313.405 556.458 312.954 556.458C312.498 556.458 312.15 556.581 311.908 556.827C311.667 557.073 311.546 557.426 311.546 557.887C311.546 558.338 311.667 558.687 311.908 558.933C312.15 559.179 312.498 559.302 312.954 559.302ZM312.947 565.037C313.681 565.037 314.214 564.925 314.547 564.702C314.884 564.483 315.053 564.205 315.053 563.868C315.053 563.581 314.966 563.374 314.793 563.246C314.624 563.118 314.337 563.046 313.932 563.027L312.346 562.945L312.093 562.938C311.687 562.943 311.386 563.027 311.19 563.191C310.994 563.36 310.896 563.59 310.896 563.882C310.896 564.26 311.067 564.547 311.409 564.743C311.751 564.939 312.264 565.037 312.947 565.037ZM324.042 559.568H319.024C319.111 561.081 319.813 561.838 321.13 561.838C321.618 561.838 322.009 561.751 322.306 561.578C322.606 561.4 322.843 561.127 323.017 560.758H323.16L324.151 561.373C323.919 561.911 323.557 562.341 323.064 562.665C322.577 562.984 321.932 563.144 321.13 563.144C320.378 563.144 319.729 562.998 319.182 562.706C318.635 562.414 318.213 561.977 317.917 561.394C317.621 560.81 317.473 560.09 317.473 559.233C317.473 558.377 317.628 557.654 317.938 557.066C318.247 556.479 318.671 556.041 319.209 555.754C319.747 555.462 320.353 555.316 321.027 555.316C322.044 555.316 322.827 555.594 323.379 556.15C323.935 556.706 324.215 557.524 324.22 558.604C324.22 559.01 324.208 559.304 324.186 559.486L324.042 559.568ZM322.764 558.495C322.745 557.807 322.588 557.306 322.292 556.991C322 556.677 321.579 556.52 321.027 556.52C320.471 556.52 320.025 556.677 319.688 556.991C319.355 557.306 319.145 557.807 319.059 558.495H322.764Z" fill="#0E1318"/>
<defs>
<filter id="filter0_dd_6839_95400" x="0" y="30" width="570" height="514" filterUnits="userSpaceOnUse" color-interpolation-filters="sRGB">
<feFlood flood-opacity="0" result="BackgroundImageFix"/>
<feColorMatrix in="SourceAlpha" type="matrix" values="0 0 0 0 0 0 0 0 0 0 0 0 0 0 0 0 0 0 127 0" result="hardAlpha"/>
<feMorphology radius="4" operator="erode" in="SourceAlpha" result="effect1_dropShadow_6839_95400"/>
<feOffset dy="6"/>
<feGaussianBlur stdDeviation="10"/>
<feColorMatrix type="matrix" values="0 0 0 0 0.25098 0 0 0 0 0.341176 0 0 0 0 0.427451 0 0 0 0.3 0"/>
<feBlend mode="normal" in2="BackgroundImageFix" result="effect1_dropShadow_6839_95400"/>
<feColorMatrix in="SourceAlpha" type="matrix" values="0 0 0 0 0 0 0 0 0 0 0 0 0 0 0 0 0 0 127 0" result="hardAlpha"/>
<feMorphology radius="1" operator="dilate" in="SourceAlpha" result="effect2_dropShadow_6839_95400"/>
<feOffset/>
<feColorMatrix type="matrix" values="0 0 0 0 0.25098 0 0 0 0 0.341176 0 0 0 0 0.427451 0 0 0 0.04 0"/>
<feBlend mode="normal" in2="effect1_dropShadow_6839_95400" result="effect2_dropShadow_6839_95400"/>
<feBlend mode="normal" in="SourceGraphic" in2="effect2_dropShadow_6839_95400" result="shape"/>
</filter>
<clipPath id="clip0_6839_95400">
<rect width="538" height="482" fill="white" transform="translate(16 40)"/>
</clipPath>
</defs>
</svg>
