<svg width="1382" height="776" viewBox="0 0 1382 776" fill="none" xmlns="http://www.w3.org/2000/svg">
<g filter="url(#filter0_dd_6839_91094)">
<g clip-path="url(#clip0_6839_91094)">
<path d="M8 18C8 11.3726 13.3726 6 20 6H1362C1368.63 6 1374 11.3726 1374 18V766H8V18Z" fill="#EBECF0"/>
<rect width="1355" height="705" transform="translate(8 62)" fill="#EBECF0"/>
<g clip-path="url(#clip1_6839_91094)" filter="url(#filter1_dd_6839_91094)">
<rect width="574" height="482" transform="translate(623 173.5)" fill="white"/>
<rect x="623" y="173.5" width="574" height="482" fill="white"/>
</g>
<g clip-path="url(#clip2_6839_91094)">
<g clip-path="url(#clip3_6839_91094)">
<mask id="mask0_6839_91094" style="mask-type:alpha" maskUnits="userSpaceOnUse" x="8" y="78" width="64" height="621">
<rect x="8" y="78" width="64" height="581" fill="#D9D9D9"/>
<rect x="8" y="659" width="64" height="40" fill="url(#paint0_linear_6839_91094)"/>
</mask>
<g mask="url(#mask0_6839_91094)">
<g filter="url(#filter2_d_6839_91094)">
<g clip-path="url(#clip4_6839_91094)">
<rect x="20" y="90" width="40" height="40" rx="12" fill="white"/>
<rect x="20" y="90" width="40" height="40" fill="white" fill-opacity="0.07"/>
<rect opacity="0.1" x="28" y="98" width="24" height="24" rx="8" fill="#4A2E7E"/>
</g>
</g>
<rect x="17.5" y="138" width="45" height="8" rx="4" fill="#394C60" fill-opacity="0.15"/>
<g filter="url(#filter3_d_6839_91094)">
<g clip-path="url(#clip5_6839_91094)">
<rect x="20" y="170" width="40" height="40" rx="12" fill="white"/>
<rect x="20" y="170" width="40" height="40" fill="white" fill-opacity="0.07"/>
<rect opacity="0.1" x="28" y="178" width="24" height="24" rx="8" fill="#4A2E7E"/>
</g>
</g>
<rect x="17.5" y="218" width="45" height="8" rx="4" fill="#394C60" fill-opacity="0.15"/>
<g filter="url(#filter4_d_6839_91094)">
<g clip-path="url(#clip6_6839_91094)">
<rect x="20" y="250" width="40" height="40" rx="12" fill="white"/>
<rect x="20" y="250" width="40" height="40" fill="white" fill-opacity="0.07"/>
<rect opacity="0.1" x="28" y="258" width="24" height="24" rx="8" fill="#4A2E7E"/>
</g>
</g>
<rect x="17.5" y="298" width="45" height="8" rx="4" fill="#394C60" fill-opacity="0.15"/>
<g filter="url(#filter5_d_6839_91094)">
<g clip-path="url(#clip7_6839_91094)">
<rect x="20" y="330" width="40" height="40" rx="12" fill="white"/>
<rect x="20" y="330" width="40" height="40" fill="white" fill-opacity="0.07"/>
<rect opacity="0.1" x="28" y="338" width="24" height="24" rx="8" fill="#4A2E7E"/>
</g>
</g>
<rect x="17.5" y="378" width="45" height="8" rx="4" fill="#394C60" fill-opacity="0.15"/>
<g filter="url(#filter6_d_6839_91094)">
<g clip-path="url(#clip8_6839_91094)">
<rect x="20" y="410" width="40" height="40" rx="12" fill="white"/>
<rect x="20" y="410" width="40" height="40" fill="white" fill-opacity="0.07"/>
<rect opacity="0.1" x="28" y="418" width="24" height="24" rx="8" fill="#4A2E7E"/>
</g>
</g>
<rect x="17.5" y="458" width="45" height="8" rx="4" fill="#394C60" fill-opacity="0.15"/>
<g filter="url(#filter7_d_6839_91094)">
<g clip-path="url(#clip9_6839_91094)">
<rect x="20" y="490" width="40" height="40" rx="12" fill="white"/>
<rect x="20" y="490" width="40" height="40" fill="white" fill-opacity="0.07"/>
<rect opacity="0.1" x="28" y="498" width="24" height="24" rx="8" fill="#4A2E7E"/>
</g>
</g>
<rect x="17.5" y="538" width="45" height="8" rx="4" fill="#394C60" fill-opacity="0.15"/>
<g filter="url(#filter8_d_6839_91094)">
<g clip-path="url(#clip10_6839_91094)">
<rect x="20" y="570" width="40" height="40" rx="12" fill="white"/>
<rect x="20" y="570" width="40" height="40" fill="white" fill-opacity="0.07"/>
<rect opacity="0.1" x="28" y="578" width="24" height="24" rx="8" fill="#4A2E7E"/>
</g>
</g>
<rect x="17.5" y="618" width="45" height="8" rx="4" fill="#394C60" fill-opacity="0.15"/>
<g filter="url(#filter9_d_6839_91094)">
<g clip-path="url(#clip11_6839_91094)">
<rect x="20" y="650" width="40" height="40" rx="12" fill="white"/>
<rect x="20" y="650" width="40" height="40" fill="white" fill-opacity="0.07"/>
<rect opacity="0.1" x="28" y="658" width="24" height="24" rx="8" fill="#4A2E7E"/>
</g>
</g>
<rect x="17.5" y="698" width="45" height="8" rx="4" fill="#394C60" fill-opacity="0.15"/>
</g>
</g>
<g filter="url(#filter10_dd_6839_91094)">
<g clip-path="url(#clip12_6839_91094)">
<rect x="20" y="711" width="40" height="40" rx="20" fill="white"/>
<rect x="20" y="711" width="40" height="40" fill="white" fill-opacity="0.07"/>
<path d="M37.6 724.613C35.9092 724.466 34.9791 723.874 34.4836 722.7C34.3051 722.277 34.1795 721.783 34.1 721.2C34.1 721.1 34.0001 721 33.9 721C33.8 721 33.7 721.1 33.7 721.2C33.6205 721.783 33.4949 722.277 33.3164 722.7C32.821 723.874 31.8908 724.466 30.2 724.613C30.1 724.613 30 724.713 30 724.813C30 724.913 30.1 725.013 30.2 725.013C32.3 725.413 33.4 726.2 33.7001 728.4C33.7001 728.5 33.8 728.6 33.9 728.6C34 728.6 34.1 728.5 34.1 728.4C34.4 726.2 35.5001 725.413 37.6 725.013C37.7 725.013 37.8 724.913 37.8 724.813C37.8 724.713 37.7 724.613 37.6 724.613Z" fill="url(#paint1_linear_6839_91094)"/>
<path d="M47.4687 730.865C43.4687 730.065 41.7427 728.136 40.9427 724.236C40.8848 724.024 40.6992 723.865 40.4687 723.865C40.2365 723.865 40.05 724.026 39.9937 724.241C39.9852 724.247 40.0012 724.226 39.9937 724.241C39.1937 728.241 37.3687 730.065 33.4687 730.865C33.1926 730.865 32.9687 731.089 32.9687 731.365C32.9687 731.641 33.1926 731.865 33.4687 731.865C37.4687 732.665 39.1864 734.552 39.9864 738.452C40.0292 738.685 40.2236 738.865 40.4687 738.865C40.7047 738.865 40.8934 738.698 40.9459 738.478C40.9411 738.487 40.9519 738.47 40.9459 738.478C41.7459 734.478 43.5687 732.665 47.4687 731.865C47.7448 731.865 47.9687 731.641 47.9687 731.365C47.9687 731.089 47.7448 730.865 47.4687 730.865Z" fill="url(#paint2_linear_6839_91094)"/>
<path d="M49.4655 724.8C49.4655 724.716 49.4035 724.66 49.3206 724.644C49.3029 724.64 49.2826 724.635 49.2653 724.631C48.0967 724.326 47.3888 723.607 47.1917 722.523C47.1917 722.439 47.1233 722.37 47.0391 722.37V722.374C46.9547 722.374 46.8989 722.436 46.8831 722.518C46.8787 722.536 46.8741 722.556 46.8696 722.574C46.5653 723.742 45.8458 724.45 44.762 724.647C44.6776 724.647 44.6093 724.716 44.6093 724.8H44.6126C44.6126 724.884 44.6746 724.94 44.7576 724.956C44.7752 724.96 44.7955 724.965 44.8129 724.969C45.9814 725.274 46.6893 725.993 46.8864 727.077C46.8864 727.161 46.9548 727.23 47.0391 727.23V727.226C47.1234 727.226 47.1792 727.164 47.1951 727.081C47.1995 727.064 47.204 727.044 47.2085 727.026C47.5128 725.858 48.2324 725.15 49.3162 724.953C49.4005 724.953 49.4655 724.884 49.4655 724.8Z" fill="url(#paint3_linear_6839_91094)"/>
<path d="M35.9187 737.715C34.9187 737.415 34.3367 736.933 34.1367 735.933C34.1367 735.813 34.0391 735.715 33.9187 735.715C33.7984 735.715 33.7008 735.813 33.7008 735.933C33.4008 736.933 32.9187 737.515 31.9187 737.715C31.7984 737.715 31.7008 737.813 31.7008 737.933C31.7008 738.054 31.7984 738.151 31.9187 738.151C32.9187 738.451 33.5007 738.933 33.7008 739.933C33.7008 740.054 33.7984 740.151 33.9187 740.151C34.0391 740.151 34.1367 740.054 34.1367 739.933C34.4367 738.933 34.9187 738.351 35.9187 738.151C36.0391 738.151 36.1367 738.054 36.1367 737.933C36.1367 737.813 36.0391 737.715 35.9187 737.715Z" fill="url(#paint4_linear_6839_91094)"/>
</g>
</g>
</g>
<g filter="url(#filter11_dd_6839_91094)">
<g clip-path="url(#clip13_6839_91094)">
<path d="M88 82C88 75.3726 93.3726 70 100 70H437C443.627 70 449 75.3726 449 82V724C449 730.627 443.627 736 437 736H100C93.3726 736 88 730.627 88 724V82Z" fill="white"/>
</g>
</g>
<rect width="1366" height="56" transform="translate(8 6)" fill="url(#paint5_linear_6839_91094)"/>
<rect x="24" y="22" width="24" height="24" rx="8" fill="white" fill-opacity="0.9"/>
<rect x="80" y="26" width="84" height="16" rx="8" fill="white" fill-opacity="0.9"/>
<rect x="188" y="26" width="84" height="16" rx="8" fill="white" fill-opacity="0.9"/>
<rect x="1158" y="14" width="96" height="40" rx="8" fill="#2F4050" fill-opacity="0.25"/>
<path d="M1270 22C1270 17.5817 1273.58 14 1278 14H1358C1362.42 14 1366 17.5817 1366 22V46C1366 50.4183 1362.42 54 1358 54H1278C1273.58 54 1270 50.4183 1270 46V22Z" fill="white" fill-opacity="0.9"/>
</g>
</g>
<defs>
<filter id="filter0_dd_6839_91094" x="0" y="0" width="1382" height="776" filterUnits="userSpaceOnUse" color-interpolation-filters="sRGB">
<feFlood flood-opacity="0" result="BackgroundImageFix"/>
<feColorMatrix in="SourceAlpha" type="matrix" values="0 0 0 0 0 0 0 0 0 0 0 0 0 0 0 0 0 0 127 0" result="hardAlpha"/>
<feOffset dy="2"/>
<feGaussianBlur stdDeviation="4"/>
<feColorMatrix type="matrix" values="0 0 0 0 0.223529 0 0 0 0 0.298039 0 0 0 0 0.376471 0 0 0 0.15 0"/>
<feBlend mode="normal" in2="BackgroundImageFix" result="effect1_dropShadow_6839_91094"/>
<feColorMatrix in="SourceAlpha" type="matrix" values="0 0 0 0 0 0 0 0 0 0 0 0 0 0 0 0 0 0 127 0" result="hardAlpha"/>
<feMorphology radius="1" operator="dilate" in="SourceAlpha" result="effect2_dropShadow_6839_91094"/>
<feOffset/>
<feColorMatrix type="matrix" values="0 0 0 0 0.25098 0 0 0 0 0.341176 0 0 0 0 0.427451 0 0 0 0.07 0"/>
<feBlend mode="normal" in2="effect1_dropShadow_6839_91094" result="effect2_dropShadow_6839_91094"/>
<feBlend mode="normal" in="SourceGraphic" in2="effect2_dropShadow_6839_91094" result="shape"/>
</filter>
<filter id="filter1_dd_6839_91094" x="607" y="163.5" width="606" height="514" filterUnits="userSpaceOnUse" color-interpolation-filters="sRGB">
<feFlood flood-opacity="0" result="BackgroundImageFix"/>
<feColorMatrix in="SourceAlpha" type="matrix" values="0 0 0 0 0 0 0 0 0 0 0 0 0 0 0 0 0 0 127 0" result="hardAlpha"/>
<feMorphology radius="4" operator="erode" in="SourceAlpha" result="effect1_dropShadow_6839_91094"/>
<feOffset dy="6"/>
<feGaussianBlur stdDeviation="10"/>
<feColorMatrix type="matrix" values="0 0 0 0 0.25098 0 0 0 0 0.341176 0 0 0 0 0.427451 0 0 0 0.3 0"/>
<feBlend mode="normal" in2="BackgroundImageFix" result="effect1_dropShadow_6839_91094"/>
<feColorMatrix in="SourceAlpha" type="matrix" values="0 0 0 0 0 0 0 0 0 0 0 0 0 0 0 0 0 0 127 0" result="hardAlpha"/>
<feMorphology radius="1" operator="dilate" in="SourceAlpha" result="effect2_dropShadow_6839_91094"/>
<feOffset/>
<feColorMatrix type="matrix" values="0 0 0 0 0.25098 0 0 0 0 0.341176 0 0 0 0 0.427451 0 0 0 0.04 0"/>
<feBlend mode="normal" in2="effect1_dropShadow_6839_91094" result="effect2_dropShadow_6839_91094"/>
<feBlend mode="normal" in="SourceGraphic" in2="effect2_dropShadow_6839_91094" result="shape"/>
</filter>
<filter id="filter2_d_6839_91094" x="17" y="89" width="46" height="46" filterUnits="userSpaceOnUse" color-interpolation-filters="sRGB">
<feFlood flood-opacity="0" result="BackgroundImageFix"/>
<feColorMatrix in="SourceAlpha" type="matrix" values="0 0 0 0 0 0 0 0 0 0 0 0 0 0 0 0 0 0 127 0" result="hardAlpha"/>
<feOffset dy="2"/>
<feGaussianBlur stdDeviation="1.5"/>
<feComposite in2="hardAlpha" operator="out"/>
<feColorMatrix type="matrix" values="0 0 0 0 0 0 0 0 0 0 0 0 0 0 0 0 0 0 0.07 0"/>
<feBlend mode="normal" in2="BackgroundImageFix" result="effect1_dropShadow_6839_91094"/>
<feBlend mode="normal" in="SourceGraphic" in2="effect1_dropShadow_6839_91094" result="shape"/>
</filter>
<filter id="filter3_d_6839_91094" x="17" y="169" width="46" height="46" filterUnits="userSpaceOnUse" color-interpolation-filters="sRGB">
<feFlood flood-opacity="0" result="BackgroundImageFix"/>
<feColorMatrix in="SourceAlpha" type="matrix" values="0 0 0 0 0 0 0 0 0 0 0 0 0 0 0 0 0 0 127 0" result="hardAlpha"/>
<feOffset dy="2"/>
<feGaussianBlur stdDeviation="1.5"/>
<feComposite in2="hardAlpha" operator="out"/>
<feColorMatrix type="matrix" values="0 0 0 0 0 0 0 0 0 0 0 0 0 0 0 0 0 0 0.07 0"/>
<feBlend mode="normal" in2="BackgroundImageFix" result="effect1_dropShadow_6839_91094"/>
<feBlend mode="normal" in="SourceGraphic" in2="effect1_dropShadow_6839_91094" result="shape"/>
</filter>
<filter id="filter4_d_6839_91094" x="17" y="249" width="46" height="46" filterUnits="userSpaceOnUse" color-interpolation-filters="sRGB">
<feFlood flood-opacity="0" result="BackgroundImageFix"/>
<feColorMatrix in="SourceAlpha" type="matrix" values="0 0 0 0 0 0 0 0 0 0 0 0 0 0 0 0 0 0 127 0" result="hardAlpha"/>
<feOffset dy="2"/>
<feGaussianBlur stdDeviation="1.5"/>
<feComposite in2="hardAlpha" operator="out"/>
<feColorMatrix type="matrix" values="0 0 0 0 0 0 0 0 0 0 0 0 0 0 0 0 0 0 0.07 0"/>
<feBlend mode="normal" in2="BackgroundImageFix" result="effect1_dropShadow_6839_91094"/>
<feBlend mode="normal" in="SourceGraphic" in2="effect1_dropShadow_6839_91094" result="shape"/>
</filter>
<filter id="filter5_d_6839_91094" x="17" y="329" width="46" height="46" filterUnits="userSpaceOnUse" color-interpolation-filters="sRGB">
<feFlood flood-opacity="0" result="BackgroundImageFix"/>
<feColorMatrix in="SourceAlpha" type="matrix" values="0 0 0 0 0 0 0 0 0 0 0 0 0 0 0 0 0 0 127 0" result="hardAlpha"/>
<feOffset dy="2"/>
<feGaussianBlur stdDeviation="1.5"/>
<feComposite in2="hardAlpha" operator="out"/>
<feColorMatrix type="matrix" values="0 0 0 0 0 0 0 0 0 0 0 0 0 0 0 0 0 0 0.07 0"/>
<feBlend mode="normal" in2="BackgroundImageFix" result="effect1_dropShadow_6839_91094"/>
<feBlend mode="normal" in="SourceGraphic" in2="effect1_dropShadow_6839_91094" result="shape"/>
</filter>
<filter id="filter6_d_6839_91094" x="17" y="409" width="46" height="46" filterUnits="userSpaceOnUse" color-interpolation-filters="sRGB">
<feFlood flood-opacity="0" result="BackgroundImageFix"/>
<feColorMatrix in="SourceAlpha" type="matrix" values="0 0 0 0 0 0 0 0 0 0 0 0 0 0 0 0 0 0 127 0" result="hardAlpha"/>
<feOffset dy="2"/>
<feGaussianBlur stdDeviation="1.5"/>
<feComposite in2="hardAlpha" operator="out"/>
<feColorMatrix type="matrix" values="0 0 0 0 0 0 0 0 0 0 0 0 0 0 0 0 0 0 0.07 0"/>
<feBlend mode="normal" in2="BackgroundImageFix" result="effect1_dropShadow_6839_91094"/>
<feBlend mode="normal" in="SourceGraphic" in2="effect1_dropShadow_6839_91094" result="shape"/>
</filter>
<filter id="filter7_d_6839_91094" x="17" y="489" width="46" height="46" filterUnits="userSpaceOnUse" color-interpolation-filters="sRGB">
<feFlood flood-opacity="0" result="BackgroundImageFix"/>
<feColorMatrix in="SourceAlpha" type="matrix" values="0 0 0 0 0 0 0 0 0 0 0 0 0 0 0 0 0 0 127 0" result="hardAlpha"/>
<feOffset dy="2"/>
<feGaussianBlur stdDeviation="1.5"/>
<feComposite in2="hardAlpha" operator="out"/>
<feColorMatrix type="matrix" values="0 0 0 0 0 0 0 0 0 0 0 0 0 0 0 0 0 0 0.07 0"/>
<feBlend mode="normal" in2="BackgroundImageFix" result="effect1_dropShadow_6839_91094"/>
<feBlend mode="normal" in="SourceGraphic" in2="effect1_dropShadow_6839_91094" result="shape"/>
</filter>
<filter id="filter8_d_6839_91094" x="17" y="569" width="46" height="46" filterUnits="userSpaceOnUse" color-interpolation-filters="sRGB">
<feFlood flood-opacity="0" result="BackgroundImageFix"/>
<feColorMatrix in="SourceAlpha" type="matrix" values="0 0 0 0 0 0 0 0 0 0 0 0 0 0 0 0 0 0 127 0" result="hardAlpha"/>
<feOffset dy="2"/>
<feGaussianBlur stdDeviation="1.5"/>
<feComposite in2="hardAlpha" operator="out"/>
<feColorMatrix type="matrix" values="0 0 0 0 0 0 0 0 0 0 0 0 0 0 0 0 0 0 0.07 0"/>
<feBlend mode="normal" in2="BackgroundImageFix" result="effect1_dropShadow_6839_91094"/>
<feBlend mode="normal" in="SourceGraphic" in2="effect1_dropShadow_6839_91094" result="shape"/>
</filter>
<filter id="filter9_d_6839_91094" x="17" y="649" width="46" height="46" filterUnits="userSpaceOnUse" color-interpolation-filters="sRGB">
<feFlood flood-opacity="0" result="BackgroundImageFix"/>
<feColorMatrix in="SourceAlpha" type="matrix" values="0 0 0 0 0 0 0 0 0 0 0 0 0 0 0 0 0 0 127 0" result="hardAlpha"/>
<feOffset dy="2"/>
<feGaussianBlur stdDeviation="1.5"/>
<feComposite in2="hardAlpha" operator="out"/>
<feColorMatrix type="matrix" values="0 0 0 0 0 0 0 0 0 0 0 0 0 0 0 0 0 0 0.07 0"/>
<feBlend mode="normal" in2="BackgroundImageFix" result="effect1_dropShadow_6839_91094"/>
<feBlend mode="normal" in="SourceGraphic" in2="effect1_dropShadow_6839_91094" result="shape"/>
</filter>
<filter id="filter10_dd_6839_91094" x="2" y="696" width="76" height="70" filterUnits="userSpaceOnUse" color-interpolation-filters="sRGB">
<feFlood flood-opacity="0" result="BackgroundImageFix"/>
<feColorMatrix in="SourceAlpha" type="matrix" values="0 0 0 0 0 0 0 0 0 0 0 0 0 0 0 0 0 0 127 0" result="hardAlpha"/>
<feOffset dx="6" dy="3"/>
<feGaussianBlur stdDeviation="6"/>
<feComposite in2="hardAlpha" operator="out"/>
<feColorMatrix type="matrix" values="0 0 0 0 0.545098 0 0 0 0 0.239216 0 0 0 0 1 0 0 0 0.35 0"/>
<feBlend mode="normal" in2="BackgroundImageFix" result="effect1_dropShadow_6839_91094"/>
<feColorMatrix in="SourceAlpha" type="matrix" values="0 0 0 0 0 0 0 0 0 0 0 0 0 0 0 0 0 0 127 0" result="hardAlpha"/>
<feOffset dx="-6" dy="-3"/>
<feGaussianBlur stdDeviation="6"/>
<feComposite in2="hardAlpha" operator="out"/>
<feColorMatrix type="matrix" values="0 0 0 0 0 0 0 0 0 0.768627 0 0 0 0 0.8 0 0 0 0.35 0"/>
<feBlend mode="normal" in2="effect1_dropShadow_6839_91094" result="effect2_dropShadow_6839_91094"/>
<feBlend mode="normal" in="SourceGraphic" in2="effect2_dropShadow_6839_91094" result="shape"/>
</filter>
<filter id="filter11_dd_6839_91094" x="72" y="60" width="393" height="698" filterUnits="userSpaceOnUse" color-interpolation-filters="sRGB">
<feFlood flood-opacity="0" result="BackgroundImageFix"/>
<feColorMatrix in="SourceAlpha" type="matrix" values="0 0 0 0 0 0 0 0 0 0 0 0 0 0 0 0 0 0 127 0" result="hardAlpha"/>
<feMorphology radius="4" operator="erode" in="SourceAlpha" result="effect1_dropShadow_6839_91094"/>
<feOffset dy="6"/>
<feGaussianBlur stdDeviation="10"/>
<feColorMatrix type="matrix" values="0 0 0 0 0.25098 0 0 0 0 0.341176 0 0 0 0 0.427451 0 0 0 0.3 0"/>
<feBlend mode="normal" in2="BackgroundImageFix" result="effect1_dropShadow_6839_91094"/>
<feColorMatrix in="SourceAlpha" type="matrix" values="0 0 0 0 0 0 0 0 0 0 0 0 0 0 0 0 0 0 127 0" result="hardAlpha"/>
<feMorphology radius="1" operator="dilate" in="SourceAlpha" result="effect2_dropShadow_6839_91094"/>
<feOffset/>
<feColorMatrix type="matrix" values="0 0 0 0 0.25098 0 0 0 0 0.341176 0 0 0 0 0.427451 0 0 0 0.04 0"/>
<feBlend mode="normal" in2="effect1_dropShadow_6839_91094" result="effect2_dropShadow_6839_91094"/>
<feBlend mode="normal" in="SourceGraphic" in2="effect2_dropShadow_6839_91094" result="shape"/>
</filter>
<linearGradient id="paint0_linear_6839_91094" x1="40" y1="659" x2="40" y2="699" gradientUnits="userSpaceOnUse">
<stop stop-color="#D9D9D9"/>
<stop offset="1" stop-color="#D9D9D9" stop-opacity="0"/>
</linearGradient>
<linearGradient id="paint1_linear_6839_91094" x1="20.2672" y1="730.576" x2="39.416" y2="750.039" gradientUnits="userSpaceOnUse">
<stop stop-color="#03A5AB"/>
<stop offset="1" stop-color="#8B3DFF"/>
</linearGradient>
<linearGradient id="paint2_linear_6839_91094" x1="20.2672" y1="730.576" x2="39.416" y2="750.039" gradientUnits="userSpaceOnUse">
<stop stop-color="#03A5AB"/>
<stop offset="1" stop-color="#8B3DFF"/>
</linearGradient>
<linearGradient id="paint3_linear_6839_91094" x1="20.2672" y1="730.576" x2="39.416" y2="750.039" gradientUnits="userSpaceOnUse">
<stop stop-color="#03A5AB"/>
<stop offset="1" stop-color="#8B3DFF"/>
</linearGradient>
<linearGradient id="paint4_linear_6839_91094" x1="20.2672" y1="730.576" x2="39.416" y2="750.039" gradientUnits="userSpaceOnUse">
<stop stop-color="#03A5AB"/>
<stop offset="1" stop-color="#8B3DFF"/>
</linearGradient>
<linearGradient id="paint5_linear_6839_91094" x1="0" y1="56" x2="1366" y2="56" gradientUnits="userSpaceOnUse">
<stop stop-color="#00C4CC"/>
<stop offset="1" stop-color="#7D2AE8"/>
</linearGradient>
<clipPath id="clip0_6839_91094">
<path d="M8 18C8 11.3726 13.3726 6 20 6H1362C1368.63 6 1374 11.3726 1374 18V766H8V18Z" fill="white"/>
</clipPath>
<clipPath id="clip1_6839_91094">
<rect width="574" height="482" fill="white" transform="translate(623 173.5)"/>
</clipPath>
<clipPath id="clip2_6839_91094">
<rect x="8" y="78" width="64" height="681" rx="12" fill="white"/>
</clipPath>
<clipPath id="clip3_6839_91094">
<rect width="64" height="621" fill="white" transform="translate(8 78)"/>
</clipPath>
<clipPath id="clip4_6839_91094">
<rect x="20" y="90" width="40" height="40" rx="12" fill="white"/>
</clipPath>
<clipPath id="clip5_6839_91094">
<rect x="20" y="170" width="40" height="40" rx="12" fill="white"/>
</clipPath>
<clipPath id="clip6_6839_91094">
<rect x="20" y="250" width="40" height="40" rx="12" fill="white"/>
</clipPath>
<clipPath id="clip7_6839_91094">
<rect x="20" y="330" width="40" height="40" rx="12" fill="white"/>
</clipPath>
<clipPath id="clip8_6839_91094">
<rect x="20" y="410" width="40" height="40" rx="12" fill="white"/>
</clipPath>
<clipPath id="clip9_6839_91094">
<rect x="20" y="490" width="40" height="40" rx="12" fill="white"/>
</clipPath>
<clipPath id="clip10_6839_91094">
<rect x="20" y="570" width="40" height="40" rx="12" fill="white"/>
</clipPath>
<clipPath id="clip11_6839_91094">
<rect x="20" y="650" width="40" height="40" rx="12" fill="white"/>
</clipPath>
<clipPath id="clip12_6839_91094">
<rect x="20" y="711" width="40" height="40" rx="20" fill="white"/>
</clipPath>
<clipPath id="clip13_6839_91094">
<path d="M88 82C88 75.3726 93.3726 70 100 70H437C443.627 70 449 75.3726 449 82V724C449 730.627 443.627 736 437 736H100C93.3726 736 88 730.627 88 724V82Z" fill="white"/>
</clipPath>
</defs>
</svg>
