<svg width="354" height="708" viewBox="0 0 354 708" fill="none" xmlns="http://www.w3.org/2000/svg">
<g filter="url(#filter0_d_6839_96343)">
<rect x="21" y="11" width="312" height="666" rx="8" fill="white"/>
<rect x="22.5" y="12.5" width="309" height="663" rx="6.5" stroke="#394C60" stroke-opacity="0.15" stroke-width="3"/>
<rect x="37" y="42" width="64" height="8" rx="4" fill="#394C60" fill-opacity="0.15"/>
<rect x="285" y="34" width="24" height="24" rx="8" fill="#394C60" fill-opacity="0.15"/>
<rect x="37" y="90" width="64" height="8" rx="4" fill="#394C60" fill-opacity="0.15"/>
<rect x="37.5" y="106.5" width="183" height="39" rx="7.5" stroke="#394C60" stroke-opacity="0.15"/>
<rect x="45" y="114" width="24" height="24" rx="8" fill="#394C60" fill-opacity="0.15"/>
<rect x="77" y="120.5" width="136" height="11" rx="5.5" fill="#394C60" fill-opacity="0.15"/>
<rect x="229.5" y="106.5" width="39" height="39" rx="7.5" stroke="#394C60" stroke-opacity="0.15"/>
<rect x="237" y="114" width="24" height="24" rx="8" fill="#394C60" fill-opacity="0.15"/>
<rect x="277.5" y="106.5" width="39" height="39" rx="7.5" stroke="#394C60" stroke-opacity="0.15"/>
<rect x="285" y="114" width="24" height="24" rx="8" fill="#394C60" fill-opacity="0.15"/>
<rect x="37.5" y="154.5" width="48.6" height="39" rx="7.5" stroke="#394C60" stroke-opacity="0.15"/>
<rect x="49.8" y="162" width="24" height="24" rx="8" fill="#394C60" fill-opacity="0.15"/>
<rect x="95.1" y="154.5" width="48.6" height="39" rx="7.5" stroke="#394C60" stroke-opacity="0.15"/>
<rect x="107.4" y="162" width="24" height="24" rx="8" fill="#394C60" fill-opacity="0.15"/>
<rect x="152.7" y="154.5" width="48.6" height="39" rx="7.5" stroke="#394C60" stroke-opacity="0.15"/>
<rect x="165" y="162" width="24" height="24" rx="8" fill="#394C60" fill-opacity="0.15"/>
<rect x="210.3" y="154.5" width="48.6" height="39" rx="7.5" stroke="#394C60" stroke-opacity="0.15"/>
<rect x="222.6" y="162" width="24" height="24" rx="8" fill="#394C60" fill-opacity="0.15"/>
<rect x="267.9" y="154.5" width="48.6" height="39" rx="7.5" stroke="#394C60" stroke-opacity="0.15"/>
<rect x="280.2" y="162" width="24" height="24" rx="8" fill="#394C60" fill-opacity="0.15"/>
<rect x="37" y="218" width="64" height="8" rx="4" fill="#394C60" fill-opacity="0.15"/>
<rect x="37.5" y="234.5" width="39" height="39" rx="7.5" stroke="#394C60" stroke-opacity="0.15"/>
<rect x="45" y="242" width="24" height="24" rx="8" fill="#394C60" fill-opacity="0.15"/>
<rect x="85.5" y="234.5" width="231" height="39" rx="7.5" stroke="#394C60" stroke-opacity="0.15"/>
<rect x="93" y="242" width="24" height="24" rx="8" fill="#394C60" fill-opacity="0.15"/>
<rect x="125" y="248.5" width="96" height="11" rx="5.5" fill="#394C60" fill-opacity="0.15"/>
<rect x="37.5" y="282.5" width="183" height="39" rx="7.5" stroke="#394C60" stroke-opacity="0.15"/>
<rect x="45" y="296.5" width="96" height="11" rx="5.5" fill="#394C60" fill-opacity="0.15"/>
<rect x="229.5" y="282.5" width="39" height="39" rx="7.5" stroke="#394C60" stroke-opacity="0.15"/>
<rect x="237" y="290" width="24" height="24" rx="8" fill="#394C60" fill-opacity="0.15"/>
<rect x="277.5" y="282.5" width="39" height="39" rx="7.5" stroke="#394C60" stroke-opacity="0.15"/>
<rect x="285" y="290" width="24" height="24" rx="8" fill="#394C60" fill-opacity="0.15"/>
<rect x="37" y="346" width="64" height="8" rx="4" fill="#394C60" fill-opacity="0.15"/>
<rect x="37.5" y="362.5" width="39" height="39" rx="7.5" stroke="#394C60" stroke-opacity="0.15"/>
<rect x="45" y="370" width="24" height="24" rx="8" fill="#394C60" fill-opacity="0.15"/>
<rect x="85.5" y="362.5" width="39" height="39" rx="7.5" stroke="#394C60" stroke-opacity="0.15"/>
<rect x="93" y="370" width="24" height="24" rx="8" fill="#394C60" fill-opacity="0.15"/>
<rect x="37" y="426" width="64" height="8" rx="4" fill="#394C60" fill-opacity="0.15"/>
<rect x="37.5" y="442.5" width="183" height="39" rx="7.5" stroke="#394C60" stroke-opacity="0.15"/>
<rect x="45" y="450" width="24" height="24" rx="8" fill="#394C60" fill-opacity="0.15"/>
<rect x="77" y="456.5" width="136" height="11" rx="5.5" fill="#394C60" fill-opacity="0.15"/>
<rect x="229.5" y="442.5" width="39" height="39" rx="7.5" stroke="#394C60" stroke-opacity="0.15"/>
<rect x="237" y="450" width="24" height="24" rx="8" fill="#394C60" fill-opacity="0.15"/>
<rect x="277.5" y="442.5" width="39" height="39" rx="7.5" stroke="#394C60" stroke-opacity="0.15"/>
<rect x="285" y="450" width="24" height="24" rx="8" fill="#394C60" fill-opacity="0.15"/>
<rect x="37.5" y="490.5" width="48.6" height="39" rx="7.5" stroke="#394C60" stroke-opacity="0.15"/>
<rect x="49.8" y="498" width="24" height="24" rx="8" fill="#394C60" fill-opacity="0.15"/>
<rect x="95.1" y="490.5" width="48.6" height="39" rx="7.5" stroke="#394C60" stroke-opacity="0.15"/>
<rect x="107.4" y="498" width="24" height="24" rx="8" fill="#394C60" fill-opacity="0.15"/>
<rect x="152.7" y="490.5" width="48.6" height="39" rx="7.5" stroke="#394C60" stroke-opacity="0.15"/>
<rect x="165" y="498" width="24" height="24" rx="8" fill="#394C60" fill-opacity="0.15"/>
<rect x="210.3" y="490.5" width="48.6" height="39" rx="7.5" stroke="#394C60" stroke-opacity="0.15"/>
<rect x="222.6" y="498" width="24" height="24" rx="8" fill="#394C60" fill-opacity="0.15"/>
<rect x="267.9" y="490.5" width="48.6" height="39" rx="7.5" stroke="#394C60" stroke-opacity="0.15"/>
<rect x="280.2" y="498" width="24" height="24" rx="8" fill="#394C60" fill-opacity="0.15"/>
<rect x="37" y="554" width="64" height="8" rx="4" fill="#394C60" fill-opacity="0.15"/>
<rect x="37.5" y="570.5" width="39" height="39" rx="7.5" stroke="#394C60" stroke-opacity="0.15"/>
<rect x="45" y="578" width="24" height="24" rx="8" fill="#394C60" fill-opacity="0.15"/>
<rect x="85.5" y="570.5" width="231" height="39" rx="7.5" stroke="#394C60" stroke-opacity="0.15"/>
<rect x="93" y="578" width="24" height="24" rx="8" fill="#394C60" fill-opacity="0.15"/>
<rect x="125" y="584.5" width="96" height="11" rx="5.5" fill="#394C60" fill-opacity="0.15"/>
<rect x="37.5" y="618.5" width="183" height="39" rx="7.5" stroke="#394C60" stroke-opacity="0.15"/>
<rect x="45" y="632.5" width="96" height="11" rx="5.5" fill="#394C60" fill-opacity="0.15"/>
<rect x="229.5" y="618.5" width="39" height="39" rx="7.5" stroke="#394C60" stroke-opacity="0.15"/>
<rect x="237" y="626" width="24" height="24" rx="8" fill="#394C60" fill-opacity="0.15"/>
<rect x="277.5" y="618.5" width="39" height="39" rx="7.5" stroke="#394C60" stroke-opacity="0.15"/>
<rect x="285" y="626" width="24" height="24" rx="8" fill="#394C60" fill-opacity="0.15"/>
</g>
<defs>
<filter id="filter0_d_6839_96343" x="0.39394" y="0.69697" width="353.212" height="707.212" filterUnits="userSpaceOnUse" color-interpolation-filters="sRGB">
<feFlood flood-opacity="0" result="BackgroundImageFix"/>
<feColorMatrix in="SourceAlpha" type="matrix" values="0 0 0 0 0 0 0 0 0 0 0 0 0 0 0 0 0 0 127 0" result="hardAlpha"/>
<feOffset dy="10.303"/>
<feGaussianBlur stdDeviation="10.303"/>
<feColorMatrix type="matrix" values="0 0 0 0 0 0 0 0 0 0 0 0 0 0 0 0 0 0 0.07 0"/>
<feBlend mode="normal" in2="BackgroundImageFix" result="effect1_dropShadow_6839_96343"/>
<feBlend mode="normal" in="SourceGraphic" in2="effect1_dropShadow_6839_96343" result="shape"/>
</filter>
</defs>
</svg>
