<svg width="1382" height="794" viewBox="0 0 1382 794" fill="none" xmlns="http://www.w3.org/2000/svg">
<g filter="url(#filter0_dd_6839_90726)">
<g clip-path="url(#clip0_6839_90726)">
<rect x="8" y="6" width="1366" height="778" rx="12" fill="#EBECF0"/>
<rect width="1366" height="56" transform="translate(8 6)" fill="url(#paint0_linear_6839_90726)"/>
<rect x="24" y="22" width="24" height="24" rx="8" fill="white" fill-opacity="0.9"/>
<rect x="80" y="26" width="84" height="16" rx="8" fill="white" fill-opacity="0.9"/>
<rect x="188" y="26" width="84" height="16" rx="8" fill="white" fill-opacity="0.9"/>
<rect x="1158" y="14" width="96" height="40" rx="8" fill="#2F4050" fill-opacity="0.25"/>
<path d="M1270 22C1270 17.5817 1273.58 14 1278 14H1358C1362.42 14 1366 17.5817 1366 22V46C1366 50.4183 1362.42 54 1358 54H1278C1273.58 54 1270 50.4183 1270 46V22Z" fill="white" fill-opacity="0.9"/>
<rect width="1366" height="722" transform="translate(8 62)" fill="#EBECF0"/>
<g clip-path="url(#clip1_6839_90726)" filter="url(#filter1_dd_6839_90726)">
<rect width="574" height="482" transform="translate(444 182)" fill="white"/>
<rect x="444" y="182" width="574" height="482" fill="white"/>
</g>
<g clip-path="url(#clip2_6839_90726)">
<g clip-path="url(#clip3_6839_90726)">
<mask id="mask0_6839_90726" style="mask-type:alpha" maskUnits="userSpaceOnUse" x="8" y="78" width="64" height="638">
<rect x="8" y="78" width="64" height="598" fill="#D9D9D9"/>
<rect x="8" y="676" width="64" height="40" fill="url(#paint1_linear_6839_90726)"/>
</mask>
<g mask="url(#mask0_6839_90726)">
<g filter="url(#filter2_d_6839_90726)">
<g clip-path="url(#clip4_6839_90726)">
<rect x="20" y="90" width="40" height="40" rx="12" fill="white"/>
<rect x="20" y="90" width="40" height="40" fill="white" fill-opacity="0.07"/>
<rect opacity="0.1" x="28" y="98" width="24" height="24" rx="8" fill="#4A2E7E"/>
</g>
</g>
<rect x="17.5" y="138" width="45" height="8" rx="4" fill="#394C60" fill-opacity="0.15"/>
<g filter="url(#filter3_d_6839_90726)">
<g clip-path="url(#clip5_6839_90726)">
<rect x="20" y="170" width="40" height="40" rx="12" fill="white"/>
<rect x="20" y="170" width="40" height="40" fill="white" fill-opacity="0.07"/>
<rect opacity="0.1" x="28" y="178" width="24" height="24" rx="8" fill="#4A2E7E"/>
</g>
</g>
<rect x="17.5" y="218" width="45" height="8" rx="4" fill="#394C60" fill-opacity="0.15"/>
<g filter="url(#filter4_d_6839_90726)">
<g clip-path="url(#clip6_6839_90726)">
<rect x="20" y="250" width="40" height="40" rx="12" fill="white"/>
<rect x="20" y="250" width="40" height="40" fill="white" fill-opacity="0.07"/>
<rect opacity="0.1" x="28" y="258" width="24" height="24" rx="8" fill="#4A2E7E"/>
</g>
</g>
<rect x="17.5" y="298" width="45" height="8" rx="4" fill="#394C60" fill-opacity="0.15"/>
<g filter="url(#filter5_d_6839_90726)">
<g clip-path="url(#clip7_6839_90726)">
<rect x="20" y="330" width="40" height="40" rx="12" fill="white"/>
<rect x="20" y="330" width="40" height="40" fill="white" fill-opacity="0.07"/>
<rect opacity="0.1" x="28" y="338" width="24" height="24" rx="8" fill="#4A2E7E"/>
</g>
</g>
<rect x="17.5" y="378" width="45" height="8" rx="4" fill="#394C60" fill-opacity="0.15"/>
<g filter="url(#filter6_d_6839_90726)">
<g clip-path="url(#clip8_6839_90726)">
<rect x="20" y="410" width="40" height="40" rx="12" fill="white"/>
<rect x="20" y="410" width="40" height="40" fill="white" fill-opacity="0.07"/>
<rect opacity="0.1" x="28" y="418" width="24" height="24" rx="8" fill="#4A2E7E"/>
</g>
</g>
<rect x="17.5" y="458" width="45" height="8" rx="4" fill="#394C60" fill-opacity="0.15"/>
<g filter="url(#filter7_d_6839_90726)">
<g clip-path="url(#clip9_6839_90726)">
<rect x="20" y="490" width="40" height="40" rx="12" fill="white"/>
<rect x="20" y="490" width="40" height="40" fill="white" fill-opacity="0.07"/>
<rect opacity="0.1" x="28" y="498" width="24" height="24" rx="8" fill="#4A2E7E"/>
</g>
</g>
<rect x="17.5" y="538" width="45" height="8" rx="4" fill="#394C60" fill-opacity="0.15"/>
<g filter="url(#filter8_d_6839_90726)">
<g clip-path="url(#clip10_6839_90726)">
<rect x="20" y="570" width="40" height="40" rx="12" fill="white"/>
<rect x="20" y="570" width="40" height="40" fill="white" fill-opacity="0.07"/>
<rect opacity="0.1" x="28" y="578" width="24" height="24" rx="8" fill="#4A2E7E"/>
</g>
</g>
<rect x="17.5" y="618" width="45" height="8" rx="4" fill="#394C60" fill-opacity="0.15"/>
<g filter="url(#filter9_d_6839_90726)">
<g clip-path="url(#clip11_6839_90726)">
<rect x="20" y="650" width="40" height="40" rx="12" fill="white"/>
<rect x="20" y="650" width="40" height="40" fill="white" fill-opacity="0.07"/>
<rect opacity="0.1" x="28" y="658" width="24" height="24" rx="8" fill="#4A2E7E"/>
</g>
</g>
<rect x="17.5" y="698" width="45" height="8" rx="4" fill="#394C60" fill-opacity="0.15"/>
</g>
</g>
<g filter="url(#filter10_dd_6839_90726)">
<g clip-path="url(#clip12_6839_90726)">
<rect x="20" y="728" width="40" height="40" rx="20" fill="white"/>
<rect x="20" y="728" width="40" height="40" fill="white" fill-opacity="0.07"/>
<path d="M37.6 741.613C35.9092 741.466 34.9791 740.874 34.4836 739.7C34.3051 739.277 34.1795 738.783 34.1 738.2C34.1 738.1 34.0001 738 33.9 738C33.8 738 33.7 738.1 33.7 738.2C33.6205 738.783 33.4949 739.277 33.3164 739.7C32.821 740.874 31.8908 741.466 30.2 741.613C30.1 741.613 30 741.713 30 741.813C30 741.913 30.1 742.013 30.2 742.013C32.3 742.413 33.4 743.2 33.7001 745.4C33.7001 745.5 33.8 745.6 33.9 745.6C34 745.6 34.1 745.5 34.1 745.4C34.4 743.2 35.5001 742.413 37.6 742.013C37.7 742.013 37.8 741.913 37.8 741.813C37.8 741.713 37.7 741.613 37.6 741.613Z" fill="url(#paint2_linear_6839_90726)"/>
<path d="M47.4687 747.865C43.4687 747.065 41.7427 745.136 40.9427 741.236C40.8848 741.024 40.6992 740.865 40.4687 740.865C40.2365 740.865 40.05 741.026 39.9937 741.241C39.9852 741.247 40.0012 741.226 39.9937 741.241C39.1937 745.241 37.3687 747.065 33.4687 747.865C33.1926 747.865 32.9687 748.089 32.9687 748.365C32.9687 748.641 33.1926 748.865 33.4687 748.865C37.4687 749.665 39.1864 751.552 39.9864 755.452C40.0292 755.685 40.2236 755.865 40.4687 755.865C40.7047 755.865 40.8934 755.698 40.9459 755.478C40.9411 755.487 40.9519 755.47 40.9459 755.478C41.7459 751.478 43.5687 749.665 47.4687 748.865C47.7448 748.865 47.9687 748.641 47.9687 748.365C47.9687 748.089 47.7448 747.865 47.4687 747.865Z" fill="url(#paint3_linear_6839_90726)"/>
<path d="M49.4655 741.8C49.4655 741.716 49.4035 741.66 49.3206 741.644C49.3029 741.64 49.2826 741.635 49.2653 741.631C48.0967 741.326 47.3888 740.607 47.1917 739.523C47.1917 739.439 47.1233 739.37 47.0391 739.37V739.374C46.9547 739.374 46.8989 739.436 46.8831 739.518C46.8787 739.536 46.8741 739.556 46.8696 739.574C46.5653 740.742 45.8458 741.45 44.762 741.647C44.6776 741.647 44.6093 741.716 44.6093 741.8H44.6126C44.6126 741.884 44.6746 741.94 44.7576 741.956C44.7752 741.96 44.7955 741.965 44.8129 741.969C45.9814 742.274 46.6893 742.993 46.8864 744.077C46.8864 744.161 46.9548 744.23 47.0391 744.23V744.226C47.1234 744.226 47.1792 744.164 47.1951 744.081C47.1995 744.064 47.204 744.044 47.2085 744.026C47.5128 742.858 48.2324 742.15 49.3162 741.953C49.4005 741.953 49.4655 741.884 49.4655 741.8Z" fill="url(#paint4_linear_6839_90726)"/>
<path d="M35.9187 754.715C34.9187 754.415 34.3367 753.933 34.1367 752.933C34.1367 752.813 34.0391 752.715 33.9187 752.715C33.7984 752.715 33.7008 752.813 33.7008 752.933C33.4008 753.933 32.9187 754.515 31.9187 754.715C31.7984 754.715 31.7008 754.813 31.7008 754.933C31.7008 755.054 31.7984 755.151 31.9187 755.151C32.9187 755.451 33.5007 755.933 33.7008 756.933C33.7008 757.054 33.7984 757.151 33.9187 757.151C34.0391 757.151 34.1367 757.054 34.1367 756.933C34.4367 755.933 34.9187 755.351 35.9187 755.151C36.0391 755.151 36.1367 755.054 36.1367 754.933C36.1367 754.813 36.0391 754.715 35.9187 754.715Z" fill="url(#paint5_linear_6839_90726)"/>
</g>
</g>
</g>
</g>
</g>
<defs>
<filter id="filter0_dd_6839_90726" x="0" y="0" width="1382" height="794" filterUnits="userSpaceOnUse" color-interpolation-filters="sRGB">
<feFlood flood-opacity="0" result="BackgroundImageFix"/>
<feColorMatrix in="SourceAlpha" type="matrix" values="0 0 0 0 0 0 0 0 0 0 0 0 0 0 0 0 0 0 127 0" result="hardAlpha"/>
<feOffset dy="2"/>
<feGaussianBlur stdDeviation="4"/>
<feColorMatrix type="matrix" values="0 0 0 0 0.223529 0 0 0 0 0.298039 0 0 0 0 0.376471 0 0 0 0.15 0"/>
<feBlend mode="normal" in2="BackgroundImageFix" result="effect1_dropShadow_6839_90726"/>
<feColorMatrix in="SourceAlpha" type="matrix" values="0 0 0 0 0 0 0 0 0 0 0 0 0 0 0 0 0 0 127 0" result="hardAlpha"/>
<feMorphology radius="1" operator="dilate" in="SourceAlpha" result="effect2_dropShadow_6839_90726"/>
<feOffset/>
<feColorMatrix type="matrix" values="0 0 0 0 0.25098 0 0 0 0 0.341176 0 0 0 0 0.427451 0 0 0 0.07 0"/>
<feBlend mode="normal" in2="effect1_dropShadow_6839_90726" result="effect2_dropShadow_6839_90726"/>
<feBlend mode="normal" in="SourceGraphic" in2="effect2_dropShadow_6839_90726" result="shape"/>
</filter>
<filter id="filter1_dd_6839_90726" x="428" y="172" width="606" height="514" filterUnits="userSpaceOnUse" color-interpolation-filters="sRGB">
<feFlood flood-opacity="0" result="BackgroundImageFix"/>
<feColorMatrix in="SourceAlpha" type="matrix" values="0 0 0 0 0 0 0 0 0 0 0 0 0 0 0 0 0 0 127 0" result="hardAlpha"/>
<feMorphology radius="4" operator="erode" in="SourceAlpha" result="effect1_dropShadow_6839_90726"/>
<feOffset dy="6"/>
<feGaussianBlur stdDeviation="10"/>
<feColorMatrix type="matrix" values="0 0 0 0 0.25098 0 0 0 0 0.341176 0 0 0 0 0.427451 0 0 0 0.3 0"/>
<feBlend mode="normal" in2="BackgroundImageFix" result="effect1_dropShadow_6839_90726"/>
<feColorMatrix in="SourceAlpha" type="matrix" values="0 0 0 0 0 0 0 0 0 0 0 0 0 0 0 0 0 0 127 0" result="hardAlpha"/>
<feMorphology radius="1" operator="dilate" in="SourceAlpha" result="effect2_dropShadow_6839_90726"/>
<feOffset/>
<feColorMatrix type="matrix" values="0 0 0 0 0.25098 0 0 0 0 0.341176 0 0 0 0 0.427451 0 0 0 0.04 0"/>
<feBlend mode="normal" in2="effect1_dropShadow_6839_90726" result="effect2_dropShadow_6839_90726"/>
<feBlend mode="normal" in="SourceGraphic" in2="effect2_dropShadow_6839_90726" result="shape"/>
</filter>
<filter id="filter2_d_6839_90726" x="17" y="89" width="46" height="46" filterUnits="userSpaceOnUse" color-interpolation-filters="sRGB">
<feFlood flood-opacity="0" result="BackgroundImageFix"/>
<feColorMatrix in="SourceAlpha" type="matrix" values="0 0 0 0 0 0 0 0 0 0 0 0 0 0 0 0 0 0 127 0" result="hardAlpha"/>
<feOffset dy="2"/>
<feGaussianBlur stdDeviation="1.5"/>
<feComposite in2="hardAlpha" operator="out"/>
<feColorMatrix type="matrix" values="0 0 0 0 0 0 0 0 0 0 0 0 0 0 0 0 0 0 0.07 0"/>
<feBlend mode="normal" in2="BackgroundImageFix" result="effect1_dropShadow_6839_90726"/>
<feBlend mode="normal" in="SourceGraphic" in2="effect1_dropShadow_6839_90726" result="shape"/>
</filter>
<filter id="filter3_d_6839_90726" x="17" y="169" width="46" height="46" filterUnits="userSpaceOnUse" color-interpolation-filters="sRGB">
<feFlood flood-opacity="0" result="BackgroundImageFix"/>
<feColorMatrix in="SourceAlpha" type="matrix" values="0 0 0 0 0 0 0 0 0 0 0 0 0 0 0 0 0 0 127 0" result="hardAlpha"/>
<feOffset dy="2"/>
<feGaussianBlur stdDeviation="1.5"/>
<feComposite in2="hardAlpha" operator="out"/>
<feColorMatrix type="matrix" values="0 0 0 0 0 0 0 0 0 0 0 0 0 0 0 0 0 0 0.07 0"/>
<feBlend mode="normal" in2="BackgroundImageFix" result="effect1_dropShadow_6839_90726"/>
<feBlend mode="normal" in="SourceGraphic" in2="effect1_dropShadow_6839_90726" result="shape"/>
</filter>
<filter id="filter4_d_6839_90726" x="17" y="249" width="46" height="46" filterUnits="userSpaceOnUse" color-interpolation-filters="sRGB">
<feFlood flood-opacity="0" result="BackgroundImageFix"/>
<feColorMatrix in="SourceAlpha" type="matrix" values="0 0 0 0 0 0 0 0 0 0 0 0 0 0 0 0 0 0 127 0" result="hardAlpha"/>
<feOffset dy="2"/>
<feGaussianBlur stdDeviation="1.5"/>
<feComposite in2="hardAlpha" operator="out"/>
<feColorMatrix type="matrix" values="0 0 0 0 0 0 0 0 0 0 0 0 0 0 0 0 0 0 0.07 0"/>
<feBlend mode="normal" in2="BackgroundImageFix" result="effect1_dropShadow_6839_90726"/>
<feBlend mode="normal" in="SourceGraphic" in2="effect1_dropShadow_6839_90726" result="shape"/>
</filter>
<filter id="filter5_d_6839_90726" x="17" y="329" width="46" height="46" filterUnits="userSpaceOnUse" color-interpolation-filters="sRGB">
<feFlood flood-opacity="0" result="BackgroundImageFix"/>
<feColorMatrix in="SourceAlpha" type="matrix" values="0 0 0 0 0 0 0 0 0 0 0 0 0 0 0 0 0 0 127 0" result="hardAlpha"/>
<feOffset dy="2"/>
<feGaussianBlur stdDeviation="1.5"/>
<feComposite in2="hardAlpha" operator="out"/>
<feColorMatrix type="matrix" values="0 0 0 0 0 0 0 0 0 0 0 0 0 0 0 0 0 0 0.07 0"/>
<feBlend mode="normal" in2="BackgroundImageFix" result="effect1_dropShadow_6839_90726"/>
<feBlend mode="normal" in="SourceGraphic" in2="effect1_dropShadow_6839_90726" result="shape"/>
</filter>
<filter id="filter6_d_6839_90726" x="17" y="409" width="46" height="46" filterUnits="userSpaceOnUse" color-interpolation-filters="sRGB">
<feFlood flood-opacity="0" result="BackgroundImageFix"/>
<feColorMatrix in="SourceAlpha" type="matrix" values="0 0 0 0 0 0 0 0 0 0 0 0 0 0 0 0 0 0 127 0" result="hardAlpha"/>
<feOffset dy="2"/>
<feGaussianBlur stdDeviation="1.5"/>
<feComposite in2="hardAlpha" operator="out"/>
<feColorMatrix type="matrix" values="0 0 0 0 0 0 0 0 0 0 0 0 0 0 0 0 0 0 0.07 0"/>
<feBlend mode="normal" in2="BackgroundImageFix" result="effect1_dropShadow_6839_90726"/>
<feBlend mode="normal" in="SourceGraphic" in2="effect1_dropShadow_6839_90726" result="shape"/>
</filter>
<filter id="filter7_d_6839_90726" x="17" y="489" width="46" height="46" filterUnits="userSpaceOnUse" color-interpolation-filters="sRGB">
<feFlood flood-opacity="0" result="BackgroundImageFix"/>
<feColorMatrix in="SourceAlpha" type="matrix" values="0 0 0 0 0 0 0 0 0 0 0 0 0 0 0 0 0 0 127 0" result="hardAlpha"/>
<feOffset dy="2"/>
<feGaussianBlur stdDeviation="1.5"/>
<feComposite in2="hardAlpha" operator="out"/>
<feColorMatrix type="matrix" values="0 0 0 0 0 0 0 0 0 0 0 0 0 0 0 0 0 0 0.07 0"/>
<feBlend mode="normal" in2="BackgroundImageFix" result="effect1_dropShadow_6839_90726"/>
<feBlend mode="normal" in="SourceGraphic" in2="effect1_dropShadow_6839_90726" result="shape"/>
</filter>
<filter id="filter8_d_6839_90726" x="17" y="569" width="46" height="46" filterUnits="userSpaceOnUse" color-interpolation-filters="sRGB">
<feFlood flood-opacity="0" result="BackgroundImageFix"/>
<feColorMatrix in="SourceAlpha" type="matrix" values="0 0 0 0 0 0 0 0 0 0 0 0 0 0 0 0 0 0 127 0" result="hardAlpha"/>
<feOffset dy="2"/>
<feGaussianBlur stdDeviation="1.5"/>
<feComposite in2="hardAlpha" operator="out"/>
<feColorMatrix type="matrix" values="0 0 0 0 0 0 0 0 0 0 0 0 0 0 0 0 0 0 0.07 0"/>
<feBlend mode="normal" in2="BackgroundImageFix" result="effect1_dropShadow_6839_90726"/>
<feBlend mode="normal" in="SourceGraphic" in2="effect1_dropShadow_6839_90726" result="shape"/>
</filter>
<filter id="filter9_d_6839_90726" x="17" y="649" width="46" height="46" filterUnits="userSpaceOnUse" color-interpolation-filters="sRGB">
<feFlood flood-opacity="0" result="BackgroundImageFix"/>
<feColorMatrix in="SourceAlpha" type="matrix" values="0 0 0 0 0 0 0 0 0 0 0 0 0 0 0 0 0 0 127 0" result="hardAlpha"/>
<feOffset dy="2"/>
<feGaussianBlur stdDeviation="1.5"/>
<feComposite in2="hardAlpha" operator="out"/>
<feColorMatrix type="matrix" values="0 0 0 0 0 0 0 0 0 0 0 0 0 0 0 0 0 0 0.07 0"/>
<feBlend mode="normal" in2="BackgroundImageFix" result="effect1_dropShadow_6839_90726"/>
<feBlend mode="normal" in="SourceGraphic" in2="effect1_dropShadow_6839_90726" result="shape"/>
</filter>
<filter id="filter10_dd_6839_90726" x="2" y="713" width="76" height="70" filterUnits="userSpaceOnUse" color-interpolation-filters="sRGB">
<feFlood flood-opacity="0" result="BackgroundImageFix"/>
<feColorMatrix in="SourceAlpha" type="matrix" values="0 0 0 0 0 0 0 0 0 0 0 0 0 0 0 0 0 0 127 0" result="hardAlpha"/>
<feOffset dx="6" dy="3"/>
<feGaussianBlur stdDeviation="6"/>
<feComposite in2="hardAlpha" operator="out"/>
<feColorMatrix type="matrix" values="0 0 0 0 0.545098 0 0 0 0 0.239216 0 0 0 0 1 0 0 0 0.35 0"/>
<feBlend mode="normal" in2="BackgroundImageFix" result="effect1_dropShadow_6839_90726"/>
<feColorMatrix in="SourceAlpha" type="matrix" values="0 0 0 0 0 0 0 0 0 0 0 0 0 0 0 0 0 0 127 0" result="hardAlpha"/>
<feOffset dx="-6" dy="-3"/>
<feGaussianBlur stdDeviation="6"/>
<feComposite in2="hardAlpha" operator="out"/>
<feColorMatrix type="matrix" values="0 0 0 0 0 0 0 0 0 0.768627 0 0 0 0 0.8 0 0 0 0.35 0"/>
<feBlend mode="normal" in2="effect1_dropShadow_6839_90726" result="effect2_dropShadow_6839_90726"/>
<feBlend mode="normal" in="SourceGraphic" in2="effect2_dropShadow_6839_90726" result="shape"/>
</filter>
<linearGradient id="paint0_linear_6839_90726" x1="0" y1="56" x2="1366" y2="56" gradientUnits="userSpaceOnUse">
<stop stop-color="#00C4CC"/>
<stop offset="1" stop-color="#7D2AE8"/>
</linearGradient>
<linearGradient id="paint1_linear_6839_90726" x1="40" y1="676" x2="40" y2="716" gradientUnits="userSpaceOnUse">
<stop stop-color="#D9D9D9"/>
<stop offset="1" stop-color="#D9D9D9" stop-opacity="0"/>
</linearGradient>
<linearGradient id="paint2_linear_6839_90726" x1="20.2672" y1="747.576" x2="39.416" y2="767.039" gradientUnits="userSpaceOnUse">
<stop stop-color="#03A5AB"/>
<stop offset="1" stop-color="#8B3DFF"/>
</linearGradient>
<linearGradient id="paint3_linear_6839_90726" x1="20.2672" y1="747.576" x2="39.416" y2="767.039" gradientUnits="userSpaceOnUse">
<stop stop-color="#03A5AB"/>
<stop offset="1" stop-color="#8B3DFF"/>
</linearGradient>
<linearGradient id="paint4_linear_6839_90726" x1="20.2672" y1="747.576" x2="39.416" y2="767.039" gradientUnits="userSpaceOnUse">
<stop stop-color="#03A5AB"/>
<stop offset="1" stop-color="#8B3DFF"/>
</linearGradient>
<linearGradient id="paint5_linear_6839_90726" x1="20.2672" y1="747.576" x2="39.416" y2="767.039" gradientUnits="userSpaceOnUse">
<stop stop-color="#03A5AB"/>
<stop offset="1" stop-color="#8B3DFF"/>
</linearGradient>
<clipPath id="clip0_6839_90726">
<rect x="8" y="6" width="1366" height="778" rx="12" fill="white"/>
</clipPath>
<clipPath id="clip1_6839_90726">
<rect width="574" height="482" fill="white" transform="translate(444 182)"/>
</clipPath>
<clipPath id="clip2_6839_90726">
<rect x="8" y="78" width="64" height="698" rx="12" fill="white"/>
</clipPath>
<clipPath id="clip3_6839_90726">
<rect width="64" height="638" fill="white" transform="translate(8 78)"/>
</clipPath>
<clipPath id="clip4_6839_90726">
<rect x="20" y="90" width="40" height="40" rx="12" fill="white"/>
</clipPath>
<clipPath id="clip5_6839_90726">
<rect x="20" y="170" width="40" height="40" rx="12" fill="white"/>
</clipPath>
<clipPath id="clip6_6839_90726">
<rect x="20" y="250" width="40" height="40" rx="12" fill="white"/>
</clipPath>
<clipPath id="clip7_6839_90726">
<rect x="20" y="330" width="40" height="40" rx="12" fill="white"/>
</clipPath>
<clipPath id="clip8_6839_90726">
<rect x="20" y="410" width="40" height="40" rx="12" fill="white"/>
</clipPath>
<clipPath id="clip9_6839_90726">
<rect x="20" y="490" width="40" height="40" rx="12" fill="white"/>
</clipPath>
<clipPath id="clip10_6839_90726">
<rect x="20" y="570" width="40" height="40" rx="12" fill="white"/>
</clipPath>
<clipPath id="clip11_6839_90726">
<rect x="20" y="650" width="40" height="40" rx="12" fill="white"/>
</clipPath>
<clipPath id="clip12_6839_90726">
<rect x="20" y="728" width="40" height="40" rx="20" fill="white"/>
</clipPath>
</defs>
</svg>
