<svg width="1366" height="768" viewBox="0 0 1366 768" fill="none" xmlns="http://www.w3.org/2000/svg">
<g clip-path="url(#clip0_6839_94071)">
<rect width="1366" height="768" rx="4" fill="url(#paint0_linear_6839_94071)"/>
<rect width="1366" height="768" rx="4" fill="white" fill-opacity="0.5"/>
<g clip-path="url(#clip1_6839_94071)">
<path d="M92.459 132.113C91.9398 132.113 91.4761 132.047 91.0679 131.914C90.6597 131.778 90.3195 131.601 90.0474 131.382C89.7752 131.164 89.5693 130.924 89.4297 130.663L90.1064 129.835H90.2407C90.4806 130.211 90.785 130.503 91.1538 130.711C91.5226 130.919 91.9577 131.022 92.459 131.022C92.9603 131.022 93.3363 130.917 93.5869 130.706C93.8376 130.494 93.9629 130.202 93.9629 129.83C93.9629 129.608 93.9217 129.422 93.8394 129.271C93.757 129.118 93.6209 128.987 93.4312 128.879C93.245 128.768 92.9907 128.674 92.6685 128.595L91.707 128.369C91.0124 128.204 90.4967 127.939 90.1602 127.574C89.8271 127.205 89.6606 126.735 89.6606 126.162C89.6606 125.743 89.7663 125.374 89.9775 125.055C90.1888 124.733 90.4967 124.482 90.9014 124.303C91.3096 124.124 91.7948 124.035 92.3569 124.035C92.9549 124.035 93.4634 124.115 93.8823 124.276C94.3013 124.438 94.645 124.685 94.9136 125.018L94.3066 125.85H94.1724C93.9468 125.596 93.6854 125.408 93.3882 125.286C93.091 125.161 92.7472 125.098 92.3569 125.098C91.87 125.098 91.5011 125.189 91.2505 125.372C91.0034 125.551 90.8799 125.8 90.8799 126.119C90.8799 126.419 90.9694 126.659 91.1484 126.838C91.3275 127.014 91.6336 127.152 92.0669 127.252L93.0552 127.472C93.8179 127.644 94.3693 127.92 94.7095 128.299C95.0532 128.675 95.2251 129.162 95.2251 129.76C95.2251 130.226 95.1213 130.636 94.9136 130.99C94.7095 131.345 94.3997 131.62 93.9844 131.817C93.5726 132.014 93.0641 132.113 92.459 132.113ZM99.7959 130.824L100.129 131.688C99.9785 131.825 99.7852 131.928 99.5488 132C99.3125 132.075 99.0511 132.113 98.7646 132.113C98.1702 132.113 97.7173 131.955 97.4058 131.64C97.0942 131.325 96.9385 130.854 96.9385 130.228V127.021H95.9717V126.07H96.9385V124.867L98.1201 124.674V126.07H99.9141V127.021H98.1201V130.131C98.1201 130.46 98.1882 130.698 98.3242 130.845C98.4639 130.992 98.6626 131.065 98.9204 131.065C99.2104 131.065 99.4647 130.985 99.6831 130.824H99.7959ZM102.691 132.113C102.111 132.113 101.656 131.959 101.327 131.651C100.997 131.339 100.833 130.899 100.833 130.33C100.833 129.979 100.906 129.683 101.053 129.443C101.2 129.203 101.429 129.008 101.74 128.858C102.052 128.704 102.456 128.586 102.954 128.503C103.344 128.439 103.642 128.367 103.846 128.289C104.05 128.21 104.188 128.122 104.259 128.025C104.331 127.925 104.367 127.8 104.367 127.649C104.367 127.42 104.286 127.245 104.125 127.123C103.967 127.001 103.71 126.94 103.352 126.94C102.675 126.94 102.1 127.222 101.627 127.784H101.52L100.994 127.01C101.269 126.684 101.611 126.428 102.02 126.242C102.431 126.056 102.888 125.963 103.389 125.963C104.13 125.963 104.671 126.122 105.011 126.441C105.355 126.76 105.527 127.207 105.527 127.784V130.641C105.527 130.938 105.654 131.087 105.908 131.087C106.001 131.087 106.091 131.071 106.177 131.039L106.252 131.06L106.354 131.882C106.282 131.932 106.182 131.971 106.053 132C105.928 132.029 105.794 132.043 105.65 132.043C105.31 132.043 105.049 131.973 104.866 131.833C104.687 131.694 104.564 131.481 104.496 131.194L104.383 131.184C104.225 131.495 104.007 131.728 103.728 131.882C103.452 132.036 103.106 132.113 102.691 132.113ZM103.024 131.205C103.3 131.205 103.541 131.142 103.749 131.017C103.957 130.888 104.116 130.706 104.227 130.469C104.338 130.233 104.394 129.955 104.394 129.637V128.96L104.292 128.938C104.181 129.021 104.041 129.091 103.873 129.148C103.708 129.202 103.472 129.254 103.164 129.304C102.748 129.365 102.453 129.474 102.277 129.631C102.105 129.785 102.02 130.004 102.02 130.287C102.02 130.587 102.107 130.817 102.283 130.974C102.458 131.128 102.705 131.205 103.024 131.205ZM107.444 132V126.076H108.583V126.978L108.696 127.005C108.839 126.665 109.034 126.416 109.281 126.258C109.528 126.101 109.827 126.022 110.178 126.022C110.554 126.022 110.833 126.086 111.016 126.215L110.78 127.23L110.667 127.252C110.567 127.205 110.465 127.171 110.361 127.15C110.257 127.125 110.137 127.112 110.001 127.112C109.557 127.112 109.217 127.273 108.98 127.596C108.744 127.918 108.626 128.439 108.626 129.159V132H107.444ZM112.063 132V126.076H113.202V126.978L113.315 127.005C113.458 126.665 113.653 126.416 113.9 126.258C114.147 126.101 114.446 126.022 114.797 126.022C115.173 126.022 115.453 126.086 115.635 126.215L115.399 127.23L115.286 127.252C115.186 127.205 115.084 127.171 114.98 127.15C114.876 127.125 114.756 127.112 114.62 127.112C114.176 127.112 113.836 127.273 113.6 127.596C113.363 127.918 113.245 128.439 113.245 129.159V132H112.063ZM121.329 129.304H117.386C117.454 130.493 118.006 131.087 119.041 131.087C119.424 131.087 119.732 131.019 119.964 130.883C120.201 130.743 120.387 130.528 120.523 130.238H120.636L121.415 130.722C121.232 131.144 120.947 131.483 120.561 131.737C120.177 131.987 119.671 132.113 119.041 132.113C118.45 132.113 117.939 131.998 117.51 131.769C117.08 131.54 116.749 131.196 116.516 130.738C116.283 130.279 116.167 129.714 116.167 129.041C116.167 128.367 116.289 127.8 116.532 127.338C116.776 126.876 117.109 126.532 117.531 126.307C117.954 126.077 118.43 125.963 118.96 125.963C119.758 125.963 120.374 126.181 120.808 126.618C121.244 127.055 121.465 127.698 121.468 128.546C121.468 128.865 121.459 129.096 121.441 129.239L121.329 129.304ZM120.324 128.46C120.31 127.92 120.186 127.526 119.954 127.279C119.724 127.032 119.393 126.908 118.96 126.908C118.523 126.908 118.172 127.032 117.907 127.279C117.646 127.526 117.481 127.92 117.413 128.46H120.324ZM124.959 132.113C124.487 132.113 124.068 132 123.703 131.774C123.341 131.545 123.058 131.201 122.854 130.743C122.65 130.285 122.548 129.717 122.548 129.041C122.548 128.364 122.653 127.796 122.865 127.338C123.08 126.876 123.373 126.532 123.746 126.307C124.122 126.077 124.555 125.963 125.045 125.963C125.429 125.963 125.767 126.033 126.061 126.172C126.354 126.308 126.603 126.529 126.807 126.833L126.92 126.806V123.696H128.102V132H126.92V131.184L126.807 131.162C126.625 131.449 126.379 131.68 126.071 131.855C125.763 132.027 125.393 132.113 124.959 132.113ZM125.335 131.087C125.822 131.087 126.209 130.919 126.496 130.582C126.782 130.242 126.925 129.728 126.925 129.041C126.925 128.346 126.782 127.83 126.496 127.494C126.209 127.153 125.822 126.983 125.335 126.983C124.293 126.983 123.772 127.669 123.772 129.041C123.772 130.405 124.293 131.087 125.335 131.087Z" fill="#0D1216" fill-opacity="0.86"/>
<path d="M145.713 126.47L142.177 130.005C142.08 130.103 141.921 130.103 141.824 130.005L138.288 126.47C137.995 126.177 137.52 126.177 137.227 126.47C136.935 126.763 136.935 127.237 137.227 127.53L140.763 131.066C141.446 131.749 142.554 131.749 143.238 131.066L146.773 127.53C147.066 127.237 147.066 126.763 146.773 126.47C146.48 126.177 146.006 126.177 145.713 126.47Z" fill="#0E1318" fill-opacity="0.7"/>
<path fill-rule="evenodd" clip-rule="evenodd" d="M296.25 133.25C296.25 133.664 296.586 134 297 134C297.414 134 297.75 133.664 297.75 133.25V128.75H302.25C302.664 128.75 303 128.414 303 128C303 127.586 302.664 127.25 302.25 127.25H297.75V122.75C297.75 122.336 297.414 122 297 122C296.586 122 296.25 122.336 296.25 122.75V127.25H291.75C291.336 127.25 291 127.586 291 128C291 128.414 291.336 128.75 291.75 128.75H296.25V133.25Z" fill="#0E1318" fill-opacity="0.7"/>
<rect x="93" y="160" width="20" height="20" rx="4" fill="#394C60" fill-opacity="0.15"/>
<rect x="131" y="166" width="100" height="8" rx="4" fill="#394C60" fill-opacity="0.15"/>
<rect x="93" y="204" width="20" height="20" rx="4" fill="#394C60" fill-opacity="0.15"/>
<rect x="131" y="210" width="157" height="8" rx="4" fill="#394C60" fill-opacity="0.15"/>
<rect x="93" y="248" width="20" height="20" rx="4" fill="#394C60" fill-opacity="0.15"/>
<rect x="131" y="254" width="160" height="8" rx="4" fill="#394C60" fill-opacity="0.15"/>
<path d="M92.459 316.113C91.9398 316.113 91.4761 316.047 91.0679 315.914C90.6597 315.778 90.3195 315.601 90.0474 315.382C89.7752 315.164 89.5693 314.924 89.4297 314.663L90.1064 313.835H90.2407C90.4806 314.211 90.785 314.503 91.1538 314.711C91.5226 314.919 91.9577 315.022 92.459 315.022C92.9603 315.022 93.3363 314.917 93.5869 314.706C93.8376 314.494 93.9629 314.202 93.9629 313.83C93.9629 313.608 93.9217 313.422 93.8394 313.271C93.757 313.118 93.6209 312.987 93.4312 312.879C93.245 312.768 92.9907 312.674 92.6685 312.595L91.707 312.369C91.0124 312.204 90.4967 311.939 90.1602 311.574C89.8271 311.205 89.6606 310.735 89.6606 310.162C89.6606 309.743 89.7663 309.374 89.9775 309.055C90.1888 308.733 90.4967 308.482 90.9014 308.303C91.3096 308.124 91.7948 308.035 92.3569 308.035C92.9549 308.035 93.4634 308.115 93.8823 308.276C94.3013 308.438 94.645 308.685 94.9136 309.018L94.3066 309.85H94.1724C93.9468 309.596 93.6854 309.408 93.3882 309.286C93.091 309.161 92.7472 309.098 92.3569 309.098C91.87 309.098 91.5011 309.189 91.2505 309.372C91.0034 309.551 90.8799 309.8 90.8799 310.119C90.8799 310.419 90.9694 310.659 91.1484 310.838C91.3275 311.014 91.6336 311.152 92.0669 311.252L93.0552 311.472C93.8179 311.644 94.3693 311.92 94.7095 312.299C95.0532 312.675 95.2251 313.162 95.2251 313.76C95.2251 314.226 95.1213 314.636 94.9136 314.99C94.7095 315.345 94.3997 315.62 93.9844 315.817C93.5726 316.014 93.0641 316.113 92.459 316.113ZM99.7959 314.824L100.129 315.688C99.9785 315.825 99.7852 315.928 99.5488 316C99.3125 316.075 99.0511 316.113 98.7646 316.113C98.1702 316.113 97.7173 315.955 97.4058 315.64C97.0942 315.325 96.9385 314.854 96.9385 314.228V311.021H95.9717V310.07H96.9385V308.867L98.1201 308.674V310.07H99.9141V311.021H98.1201V314.131C98.1201 314.46 98.1882 314.698 98.3242 314.845C98.4639 314.992 98.6626 315.065 98.9204 315.065C99.2104 315.065 99.4647 314.985 99.6831 314.824H99.7959ZM102.691 316.113C102.111 316.113 101.656 315.959 101.327 315.651C100.997 315.339 100.833 314.899 100.833 314.33C100.833 313.979 100.906 313.683 101.053 313.443C101.2 313.203 101.429 313.008 101.74 312.858C102.052 312.704 102.456 312.586 102.954 312.503C103.344 312.439 103.642 312.367 103.846 312.289C104.05 312.21 104.188 312.122 104.259 312.025C104.331 311.925 104.367 311.8 104.367 311.649C104.367 311.42 104.286 311.245 104.125 311.123C103.967 311.001 103.71 310.94 103.352 310.94C102.675 310.94 102.1 311.222 101.627 311.784H101.52L100.994 311.01C101.269 310.684 101.611 310.428 102.02 310.242C102.431 310.056 102.888 309.963 103.389 309.963C104.13 309.963 104.671 310.122 105.011 310.441C105.355 310.76 105.527 311.207 105.527 311.784V314.641C105.527 314.938 105.654 315.087 105.908 315.087C106.001 315.087 106.091 315.071 106.177 315.039L106.252 315.06L106.354 315.882C106.282 315.932 106.182 315.971 106.053 316C105.928 316.029 105.794 316.043 105.65 316.043C105.31 316.043 105.049 315.973 104.866 315.833C104.687 315.694 104.564 315.481 104.496 315.194L104.383 315.184C104.225 315.495 104.007 315.728 103.728 315.882C103.452 316.036 103.106 316.113 102.691 316.113ZM103.024 315.205C103.3 315.205 103.541 315.142 103.749 315.017C103.957 314.888 104.116 314.706 104.227 314.469C104.338 314.233 104.394 313.955 104.394 313.637V312.96L104.292 312.938C104.181 313.021 104.041 313.091 103.873 313.148C103.708 313.202 103.472 313.254 103.164 313.304C102.748 313.365 102.453 313.474 102.277 313.631C102.105 313.785 102.02 314.004 102.02 314.287C102.02 314.587 102.107 314.817 102.283 314.974C102.458 315.128 102.705 315.205 103.024 315.205ZM107.444 316V310.076H108.583V310.978L108.696 311.005C108.839 310.665 109.034 310.416 109.281 310.258C109.528 310.101 109.827 310.022 110.178 310.022C110.554 310.022 110.833 310.086 111.016 310.215L110.78 311.23L110.667 311.252C110.567 311.205 110.465 311.171 110.361 311.15C110.257 311.125 110.137 311.112 110.001 311.112C109.557 311.112 109.217 311.273 108.98 311.596C108.744 311.918 108.626 312.439 108.626 313.159V316H107.444ZM112.063 316V310.076H113.202V310.978L113.315 311.005C113.458 310.665 113.653 310.416 113.9 310.258C114.147 310.101 114.446 310.022 114.797 310.022C115.173 310.022 115.453 310.086 115.635 310.215L115.399 311.23L115.286 311.252C115.186 311.205 115.084 311.171 114.98 311.15C114.876 311.125 114.756 311.112 114.62 311.112C114.176 311.112 113.836 311.273 113.6 311.596C113.363 311.918 113.245 312.439 113.245 313.159V316H112.063ZM121.329 313.304H117.386C117.454 314.493 118.006 315.087 119.041 315.087C119.424 315.087 119.732 315.019 119.964 314.883C120.201 314.743 120.387 314.528 120.523 314.238H120.636L121.415 314.722C121.232 315.144 120.947 315.483 120.561 315.737C120.177 315.987 119.671 316.113 119.041 316.113C118.45 316.113 117.939 315.998 117.51 315.769C117.08 315.54 116.749 315.196 116.516 314.738C116.283 314.279 116.167 313.714 116.167 313.041C116.167 312.367 116.289 311.8 116.532 311.338C116.776 310.876 117.109 310.532 117.531 310.307C117.954 310.077 118.43 309.963 118.96 309.963C119.758 309.963 120.374 310.181 120.808 310.618C121.244 311.055 121.465 311.698 121.468 312.546C121.468 312.865 121.459 313.096 121.441 313.239L121.329 313.304ZM120.324 312.46C120.31 311.92 120.186 311.526 119.954 311.279C119.724 311.032 119.393 310.908 118.96 310.908C118.523 310.908 118.172 311.032 117.907 311.279C117.646 311.526 117.481 311.92 117.413 312.46H120.324ZM124.959 316.113C124.487 316.113 124.068 316 123.703 315.774C123.341 315.545 123.058 315.201 122.854 314.743C122.65 314.285 122.548 313.717 122.548 313.041C122.548 312.364 122.653 311.796 122.865 311.338C123.08 310.876 123.373 310.532 123.746 310.307C124.122 310.077 124.555 309.963 125.045 309.963C125.429 309.963 125.767 310.033 126.061 310.172C126.354 310.308 126.603 310.529 126.807 310.833L126.92 310.806V307.696H128.102V316H126.92V315.184L126.807 315.162C126.625 315.449 126.379 315.68 126.071 315.855C125.763 316.027 125.393 316.113 124.959 316.113ZM125.335 315.087C125.822 315.087 126.209 314.919 126.496 314.582C126.782 314.242 126.925 313.728 126.925 313.041C126.925 312.346 126.782 311.83 126.496 311.494C126.209 311.153 125.822 310.983 125.335 310.983C124.293 310.983 123.772 311.669 123.772 313.041C123.772 314.405 124.293 315.087 125.335 315.087ZM132.882 316V311.021H131.947V310.07H132.882C132.817 309.805 132.785 309.565 132.785 309.351C132.785 308.971 132.869 308.649 133.038 308.384C133.206 308.119 133.442 307.92 133.747 307.788C134.055 307.652 134.414 307.583 134.826 307.583C135.449 307.583 135.92 307.703 136.239 307.943L135.895 308.797L135.782 308.819C135.553 308.647 135.259 308.561 134.901 308.561C134.593 308.561 134.361 308.64 134.203 308.797C134.049 308.951 133.972 309.166 133.972 309.442C133.972 309.646 134.003 309.855 134.063 310.07H135.852V311.021H134.063V316H132.882ZM139.311 316.113C138.742 316.113 138.244 315.995 137.818 315.758C137.392 315.522 137.062 315.173 136.83 314.711C136.597 314.249 136.48 313.692 136.48 313.041C136.48 312.385 136.597 311.828 136.83 311.37C137.062 310.908 137.392 310.559 137.818 310.323C138.244 310.083 138.742 309.963 139.311 309.963C139.88 309.963 140.378 310.083 140.804 310.323C141.23 310.559 141.56 310.908 141.792 311.37C142.029 311.828 142.147 312.385 142.147 313.041C142.147 313.692 142.029 314.249 141.792 314.711C141.56 315.173 141.23 315.522 140.804 315.758C140.378 315.995 139.88 316.113 139.311 316.113ZM139.311 315.087C140.382 315.087 140.917 314.405 140.917 313.041C140.917 311.669 140.382 310.983 139.311 310.983C138.792 310.983 138.394 311.152 138.119 311.488C137.843 311.821 137.705 312.339 137.705 313.041C137.705 314.405 138.24 315.087 139.311 315.087ZM143.678 316V310.076H144.816V310.978L144.929 311.005C145.072 310.665 145.268 310.416 145.515 310.258C145.762 310.101 146.061 310.022 146.412 310.022C146.788 310.022 147.067 310.086 147.25 310.215L147.013 311.23L146.9 311.252C146.8 311.205 146.698 311.171 146.594 311.15C146.49 311.125 146.37 311.112 146.234 311.112C145.79 311.112 145.45 311.273 145.214 311.596C144.978 311.918 144.859 312.439 144.859 313.159V316H143.678ZM154.055 314.824L154.388 315.688C154.237 315.825 154.044 315.928 153.808 316C153.571 316.075 153.31 316.113 153.023 316.113C152.429 316.113 151.976 315.955 151.665 315.64C151.353 315.325 151.197 314.854 151.197 314.228V311.021H150.23V310.07H151.197V308.867L152.379 308.674V310.07H154.173V311.021H152.379V314.131C152.379 314.46 152.447 314.698 152.583 314.845C152.723 314.992 152.921 315.065 153.179 315.065C153.469 315.065 153.723 314.985 153.942 314.824H154.055ZM160.248 313.304H156.305C156.373 314.493 156.925 315.087 157.959 315.087C158.343 315.087 158.651 315.019 158.883 314.883C159.12 314.743 159.306 314.528 159.442 314.238H159.555L160.333 314.722C160.151 315.144 159.866 315.483 159.479 315.737C159.096 315.987 158.59 316.113 157.959 316.113C157.369 316.113 156.858 315.998 156.429 315.769C155.999 315.54 155.668 315.196 155.435 314.738C155.202 314.279 155.086 313.714 155.086 313.041C155.086 312.367 155.208 311.8 155.451 311.338C155.695 310.876 156.028 310.532 156.45 310.307C156.873 310.077 157.349 309.963 157.879 309.963C158.677 309.963 159.293 310.181 159.727 310.618C160.163 311.055 160.384 311.698 160.387 312.546C160.387 312.865 160.378 313.096 160.36 313.239L160.248 313.304ZM159.243 312.46C159.229 311.92 159.105 311.526 158.873 311.279C158.643 311.032 158.312 310.908 157.879 310.908C157.442 310.908 157.091 311.032 156.826 311.279C156.565 311.526 156.4 311.92 156.332 312.46H159.243ZM163.255 316.113C162.675 316.113 162.221 315.959 161.891 315.651C161.562 315.339 161.397 314.899 161.397 314.33C161.397 313.979 161.47 313.683 161.617 313.443C161.764 313.203 161.993 313.008 162.305 312.858C162.616 312.704 163.021 312.586 163.519 312.503C163.909 312.439 164.206 312.367 164.41 312.289C164.614 312.21 164.752 312.122 164.824 312.025C164.895 311.925 164.931 311.8 164.931 311.649C164.931 311.42 164.851 311.245 164.689 311.123C164.532 311.001 164.274 310.94 163.916 310.94C163.239 310.94 162.665 311.222 162.192 311.784H162.084L161.558 311.01C161.834 310.684 162.176 310.428 162.584 310.242C162.996 310.056 163.452 309.963 163.954 309.963C164.695 309.963 165.236 310.122 165.576 310.441C165.919 310.76 166.091 311.207 166.091 311.784V314.641C166.091 314.938 166.218 315.087 166.473 315.087C166.566 315.087 166.655 315.071 166.741 315.039L166.816 315.06L166.918 315.882C166.847 315.932 166.747 315.971 166.618 316C166.492 316.029 166.358 316.043 166.215 316.043C165.875 316.043 165.613 315.973 165.431 315.833C165.252 315.694 165.128 315.481 165.06 315.194L164.947 315.184C164.79 315.495 164.571 315.728 164.292 315.882C164.016 316.036 163.671 316.113 163.255 316.113ZM163.588 315.205C163.864 315.205 164.106 315.142 164.313 315.017C164.521 314.888 164.681 314.706 164.792 314.469C164.903 314.233 164.958 313.955 164.958 313.637V312.96L164.856 312.938C164.745 313.021 164.605 313.091 164.437 313.148C164.272 313.202 164.036 313.254 163.728 313.304C163.313 313.365 163.017 313.474 162.842 313.631C162.67 313.785 162.584 314.004 162.584 314.287C162.584 314.587 162.672 314.817 162.847 314.974C163.023 315.128 163.27 315.205 163.588 315.205ZM168.009 316V310.076H169.137V310.908L169.25 310.93C169.45 310.604 169.686 310.362 169.958 310.205C170.231 310.043 170.565 309.963 170.963 309.963C171.418 309.963 171.776 310.051 172.037 310.226C172.299 310.402 172.495 310.67 172.628 311.032H172.741C172.934 310.674 173.178 310.407 173.471 310.231C173.765 310.052 174.128 309.963 174.562 309.963C175.177 309.963 175.636 310.133 175.937 310.473C176.237 310.81 176.388 311.315 176.388 311.988V316H175.206V312.09C175.206 311.703 175.125 311.42 174.964 311.241C174.807 311.062 174.553 310.973 174.202 310.973C173.772 310.973 173.428 311.123 173.17 311.424C172.916 311.725 172.789 312.215 172.789 312.896V316H171.607V312.09C171.607 311.703 171.527 311.42 171.366 311.241C171.208 311.062 170.954 310.973 170.603 310.973C170.173 310.973 169.83 311.119 169.572 311.413C169.318 311.707 169.19 312.181 169.19 312.836V316H168.009Z" fill="#0E1318" fill-opacity="0.7"/>
<path d="M193.713 310.47L190.177 314.005C190.08 314.103 189.921 314.103 189.824 314.005L186.288 310.47C185.995 310.177 185.52 310.177 185.227 310.47C184.935 310.763 184.935 311.237 185.227 311.53L188.763 315.066C189.446 315.749 190.554 315.749 191.238 315.066L194.773 311.53C195.066 311.237 195.066 310.763 194.773 310.47C194.48 310.177 194.006 310.177 193.713 310.47Z" fill="#0E1318" fill-opacity="0.7"/>
<path fill-rule="evenodd" clip-rule="evenodd" d="M296.25 317.25C296.25 317.664 296.586 318 297 318C297.414 318 297.75 317.664 297.75 317.25V312.75H302.25C302.664 312.75 303 312.414 303 312C303 311.586 302.664 311.25 302.25 311.25H297.75V306.75C297.75 306.336 297.414 306 297 306C296.586 306 296.25 306.336 296.25 306.75V311.25H291.75C291.336 311.25 291 311.586 291 312C291 312.414 291.336 312.75 291.75 312.75H296.25V317.25Z" fill="#0E1318" fill-opacity="0.7"/>
<rect x="93" y="344" width="20" height="20" rx="4" fill="#394C60" fill-opacity="0.15"/>
<rect x="131" y="350" width="160" height="8" rx="4" fill="#394C60" fill-opacity="0.15"/>
<path d="M90.1064 412V404.147H93.1089C93.6424 404.147 94.09 404.233 94.4517 404.405C94.8169 404.577 95.089 404.822 95.2681 405.141C95.4471 405.456 95.5366 405.83 95.5366 406.264C95.5366 406.747 95.4149 407.145 95.1714 407.456C94.9315 407.764 94.5627 407.997 94.0649 408.154V408.267C94.3156 408.371 94.5179 408.53 94.6719 408.745C94.8294 408.956 94.9762 409.273 95.1123 409.696L95.8696 412H94.5967L94.2422 410.915C94.056 410.342 93.9146 409.912 93.8179 409.626C93.7319 409.365 93.6335 409.16 93.5225 409.014C93.415 408.867 93.2754 408.761 93.1035 408.697C92.9352 408.632 92.7186 408.6 92.4536 408.6H91.3418V412H90.1064ZM93.0015 407.596C93.8644 407.596 94.2959 407.189 94.2959 406.376C94.2959 405.56 93.8644 405.152 93.0015 405.152H91.3418V407.596H93.0015ZM101.907 409.304H97.9644C98.0324 410.493 98.5838 411.087 99.6187 411.087C100.002 411.087 100.31 411.019 100.542 410.883C100.779 410.743 100.965 410.528 101.101 410.238H101.214L101.993 410.722C101.81 411.144 101.525 411.483 101.139 411.737C100.756 411.987 100.249 412.113 99.6187 412.113C99.0278 412.113 98.5176 411.998 98.0879 411.769C97.6582 411.54 97.327 411.196 97.0942 410.738C96.8615 410.279 96.7451 409.714 96.7451 409.041C96.7451 408.367 96.8669 407.8 97.1104 407.338C97.3538 406.876 97.6868 406.532 98.1094 406.307C98.5319 406.077 99.0081 405.963 99.5381 405.963C100.337 405.963 100.952 406.181 101.386 406.618C101.823 407.055 102.043 407.698 102.046 408.546C102.046 408.865 102.037 409.096 102.02 409.239L101.907 409.304ZM100.902 408.46C100.888 407.92 100.764 407.526 100.532 407.279C100.303 407.032 99.9714 406.908 99.5381 406.908C99.1012 406.908 98.7503 407.032 98.4854 407.279C98.224 407.526 98.0592 407.92 97.9912 408.46H100.902ZM105.962 412.113C105.414 412.113 104.925 411.995 104.496 411.758C104.069 411.518 103.735 411.167 103.491 410.706C103.248 410.244 103.126 409.689 103.126 409.041C103.126 408.392 103.248 407.837 103.491 407.375C103.735 406.91 104.069 406.559 104.496 406.323C104.922 406.083 105.407 405.963 105.951 405.963C106.592 405.963 107.102 406.081 107.482 406.317C107.861 406.554 108.134 406.878 108.298 407.29L107.493 407.87H107.38C107.24 407.569 107.058 407.347 106.832 407.204C106.61 407.057 106.316 406.983 105.951 406.983C105.457 406.983 105.067 407.157 104.78 407.504C104.494 407.848 104.351 408.36 104.351 409.041C104.351 409.714 104.494 410.224 104.78 410.571C105.07 410.915 105.464 411.087 105.962 411.087C106.7 411.087 107.194 410.725 107.444 410.002L107.557 409.997L108.374 410.458C108.22 410.956 107.942 411.357 107.541 411.662C107.14 411.962 106.614 412.113 105.962 412.113ZM114.4 409.304H110.458C110.526 410.493 111.077 411.087 112.112 411.087C112.495 411.087 112.803 411.019 113.036 410.883C113.272 410.743 113.458 410.528 113.594 410.238H113.707L114.486 410.722C114.303 411.144 114.019 411.483 113.632 411.737C113.249 411.987 112.742 412.113 112.112 412.113C111.521 412.113 111.011 411.998 110.581 411.769C110.151 411.54 109.82 411.196 109.587 410.738C109.355 410.279 109.238 409.714 109.238 409.041C109.238 408.367 109.36 407.8 109.604 407.338C109.847 406.876 110.18 406.532 110.603 406.307C111.025 406.077 111.501 405.963 112.031 405.963C112.83 405.963 113.446 406.181 113.879 406.618C114.316 407.055 114.536 407.698 114.54 408.546C114.54 408.865 114.531 409.096 114.513 409.239L114.4 409.304ZM113.396 408.46C113.381 407.92 113.258 407.526 113.025 407.279C112.796 407.032 112.465 406.908 112.031 406.908C111.594 406.908 111.243 407.032 110.979 407.279C110.717 407.526 110.552 407.92 110.484 408.46H113.396ZM115.974 412V406.076H117.102V406.973L117.214 407C117.404 406.659 117.649 406.402 117.95 406.226C118.251 406.051 118.618 405.963 119.051 405.963C119.75 405.963 120.258 406.147 120.577 406.516C120.899 406.881 121.06 407.431 121.06 408.165V412H119.878V408.267C119.878 407.805 119.787 407.474 119.604 407.273C119.422 407.073 119.128 406.973 118.724 406.973C118.24 406.973 117.857 407.13 117.574 407.445C117.295 407.76 117.155 408.26 117.155 408.944V412H115.974ZM125.921 410.824L126.254 411.688C126.104 411.825 125.91 411.928 125.674 412C125.438 412.075 125.176 412.113 124.89 412.113C124.295 412.113 123.842 411.955 123.531 411.64C123.219 411.325 123.063 410.854 123.063 410.228V407.021H122.097V406.07H123.063V404.867L124.245 404.674V406.07H126.039V407.021H124.245V410.131C124.245 410.46 124.313 410.698 124.449 410.845C124.589 410.992 124.788 411.065 125.045 411.065C125.335 411.065 125.59 410.985 125.808 410.824H125.921ZM132.092 412.113C131.62 412.113 131.201 412 130.835 411.774C130.474 411.545 130.191 411.201 129.987 410.743C129.783 410.285 129.681 409.717 129.681 409.041C129.681 408.364 129.786 407.796 129.998 407.338C130.212 406.876 130.506 406.532 130.878 406.307C131.254 406.077 131.688 405.963 132.178 405.963C132.561 405.963 132.9 406.033 133.193 406.172C133.487 406.308 133.736 406.529 133.94 406.833L134.053 406.806V403.696H135.234V412H134.053V411.184L133.94 411.162C133.757 411.449 133.512 411.68 133.204 411.855C132.896 412.027 132.526 412.113 132.092 412.113ZM132.468 411.087C132.955 411.087 133.342 410.919 133.628 410.582C133.915 410.242 134.058 409.728 134.058 409.041C134.058 408.346 133.915 407.83 133.628 407.494C133.342 407.153 132.955 406.983 132.468 406.983C131.426 406.983 130.905 407.669 130.905 409.041C130.905 410.405 131.426 411.087 132.468 411.087ZM141.932 409.304H137.99C138.058 410.493 138.609 411.087 139.644 411.087C140.027 411.087 140.335 411.019 140.568 410.883C140.804 410.743 140.99 410.528 141.126 410.238H141.239L142.018 410.722C141.835 411.144 141.551 411.483 141.164 411.737C140.781 411.987 140.274 412.113 139.644 412.113C139.053 412.113 138.543 411.998 138.113 411.769C137.684 411.54 137.352 411.196 137.12 410.738C136.887 410.279 136.771 409.714 136.771 409.041C136.771 408.367 136.892 407.8 137.136 407.338C137.379 406.876 137.712 406.532 138.135 406.307C138.557 406.077 139.034 405.963 139.563 405.963C140.362 405.963 140.978 406.181 141.411 406.618C141.848 407.055 142.068 407.698 142.072 408.546C142.072 408.865 142.063 409.096 142.045 409.239L141.932 409.304ZM140.928 408.46C140.913 407.92 140.79 407.526 140.557 407.279C140.328 407.032 139.997 406.908 139.563 406.908C139.127 406.908 138.776 407.032 138.511 407.279C138.249 407.526 138.085 407.92 138.017 408.46H140.928ZM145.3 412.113C144.913 412.113 144.555 412.064 144.226 411.968C143.9 411.871 143.622 411.739 143.393 411.57C143.167 411.398 143.003 411.205 142.899 410.99L143.57 410.276H143.683C144.073 410.838 144.614 411.119 145.305 411.119C145.667 411.119 145.941 411.051 146.127 410.915C146.317 410.775 146.412 410.582 146.412 410.335C146.412 410.142 146.349 409.982 146.224 409.857C146.102 409.728 145.907 409.631 145.638 409.567L144.747 409.347C144.188 409.214 143.778 409.007 143.517 408.724C143.259 408.437 143.13 408.081 143.13 407.655C143.13 407.307 143.218 407.007 143.393 406.752C143.572 406.498 143.825 406.303 144.15 406.167C144.476 406.031 144.859 405.963 145.3 405.963C145.84 405.963 146.276 406.04 146.605 406.194C146.938 406.344 147.198 406.552 147.384 406.817L146.739 407.488H146.632C146.456 407.284 146.259 407.137 146.041 407.048C145.826 406.958 145.579 406.914 145.3 406.914C144.952 406.914 144.691 406.973 144.516 407.091C144.34 407.205 144.252 407.374 144.252 407.596C144.252 407.793 144.317 407.952 144.446 408.074C144.575 408.195 144.799 408.294 145.117 408.369L145.977 408.568C146.535 408.693 146.94 408.897 147.19 409.18C147.445 409.463 147.572 409.832 147.572 410.287C147.572 410.648 147.484 410.967 147.309 411.243C147.133 411.515 146.875 411.728 146.535 411.882C146.195 412.036 145.783 412.113 145.3 412.113ZM149.575 405.146C149.35 405.146 149.165 405.077 149.022 404.937C148.879 404.797 148.807 404.618 148.807 404.4C148.807 404.185 148.879 404.008 149.022 403.868C149.165 403.729 149.35 403.659 149.575 403.659C149.801 403.659 149.985 403.729 150.128 403.868C150.275 404.008 150.349 404.185 150.349 404.4C150.349 404.618 150.277 404.797 150.134 404.937C149.991 405.077 149.804 405.146 149.575 405.146ZM148.984 412V406.076H150.166V412H148.984ZM154.173 414.514C153.217 414.514 152.515 414.363 152.067 414.062C151.62 413.765 151.396 413.361 151.396 412.849C151.396 412.526 151.496 412.265 151.697 412.064C151.897 411.864 152.186 411.726 152.562 411.651V411.538C152.372 411.427 152.232 411.3 152.143 411.157C152.053 411.01 152.008 410.84 152.008 410.646C152.008 410.185 152.307 409.877 152.905 409.723V409.61C152.261 409.255 151.938 408.702 151.938 407.95C151.938 407.56 152.028 407.214 152.207 406.914C152.386 406.613 152.644 406.38 152.98 406.215C153.317 406.047 153.716 405.963 154.178 405.963C154.672 405.963 155.077 406.06 155.392 406.253C155.6 405.995 155.72 405.678 155.752 405.302L155.865 405.232L156.756 405.447C156.724 405.737 156.638 405.984 156.499 406.188C156.359 406.389 156.153 406.559 155.881 406.699V406.817C156.235 407.107 156.413 407.517 156.413 408.047C156.413 408.416 156.321 408.749 156.139 409.046C155.96 409.34 155.7 409.57 155.36 409.739C155.023 409.907 154.629 409.991 154.178 409.991C154.139 409.991 154.055 409.988 153.926 409.98C153.783 409.973 153.681 409.97 153.62 409.97C153.458 409.97 153.331 410.013 153.238 410.099C153.145 410.185 153.099 410.294 153.099 410.426C153.099 410.58 153.152 410.697 153.26 410.775C153.371 410.854 153.544 410.899 153.781 410.91L155.145 410.958C156.395 410.997 157.02 411.535 157.02 412.569C157.02 412.938 156.923 413.268 156.729 413.558C156.536 413.851 156.226 414.084 155.8 414.256C155.378 414.428 154.835 414.514 154.173 414.514ZM154.178 409.094C154.529 409.094 154.801 408.998 154.995 408.804C155.192 408.611 155.29 408.337 155.29 407.982C155.29 407.624 155.193 407.349 155 407.155C154.807 406.958 154.533 406.86 154.178 406.86C153.82 406.86 153.546 406.957 153.356 407.15C153.167 407.343 153.072 407.621 153.072 407.982C153.072 408.337 153.167 408.611 153.356 408.804C153.546 408.998 153.82 409.094 154.178 409.094ZM154.173 413.601C154.749 413.601 155.168 413.513 155.43 413.337C155.695 413.166 155.827 412.947 155.827 412.682C155.827 412.457 155.759 412.294 155.623 412.193C155.491 412.093 155.265 412.036 154.946 412.021L153.7 411.957L153.501 411.952C153.183 411.955 152.946 412.021 152.792 412.15C152.639 412.283 152.562 412.464 152.562 412.693C152.562 412.99 152.696 413.216 152.964 413.37C153.233 413.524 153.636 413.601 154.173 413.601ZM158.18 412V406.076H159.308V406.973L159.42 407C159.61 406.659 159.855 406.402 160.156 406.226C160.457 406.051 160.824 405.963 161.257 405.963C161.956 405.963 162.464 406.147 162.783 406.516C163.105 406.881 163.266 407.431 163.266 408.165V412H162.084V408.267C162.084 407.805 161.993 407.474 161.811 407.273C161.628 407.073 161.334 406.973 160.93 406.973C160.446 406.973 160.063 407.13 159.78 407.445C159.501 407.76 159.361 408.26 159.361 408.944V412H158.18ZM166.859 412.113C166.473 412.113 166.115 412.064 165.785 411.968C165.459 411.871 165.182 411.739 164.953 411.57C164.727 411.398 164.562 411.205 164.458 410.99L165.13 410.276H165.243C165.633 410.838 166.174 411.119 166.865 411.119C167.226 411.119 167.5 411.051 167.687 410.915C167.876 410.775 167.971 410.582 167.971 410.335C167.971 410.142 167.909 409.982 167.783 409.857C167.661 409.728 167.466 409.631 167.198 409.567L166.306 409.347C165.748 409.214 165.338 409.007 165.076 408.724C164.818 408.437 164.689 408.081 164.689 407.655C164.689 407.307 164.777 407.007 164.953 406.752C165.132 406.498 165.384 406.303 165.71 406.167C166.036 406.031 166.419 405.963 166.859 405.963C167.4 405.963 167.835 406.04 168.165 406.194C168.498 406.344 168.757 406.552 168.943 406.817L168.299 407.488H168.191C168.016 407.284 167.819 407.137 167.601 407.048C167.386 406.958 167.139 406.914 166.859 406.914C166.512 406.914 166.251 406.973 166.075 407.091C165.9 407.205 165.812 407.374 165.812 407.596C165.812 407.793 165.876 407.952 166.005 408.074C166.134 408.195 166.358 408.294 166.677 408.369L167.536 408.568C168.095 408.693 168.499 408.897 168.75 409.18C169.004 409.463 169.131 409.832 169.131 410.287C169.131 410.648 169.044 410.967 168.868 411.243C168.693 411.515 168.435 411.728 168.095 411.882C167.755 412.036 167.343 412.113 166.859 412.113Z" fill="#0D1216" fill-opacity="0.86"/>
<path d="M185.713 406.47L182.177 410.005C182.08 410.103 181.921 410.103 181.824 410.005L178.288 406.47C177.995 406.177 177.52 406.177 177.227 406.47C176.935 406.763 176.935 407.237 177.227 407.53L180.763 411.066C181.446 411.749 182.554 411.749 183.238 411.066L186.773 407.53C187.066 407.237 187.066 406.763 186.773 406.47C186.48 406.177 186.006 406.177 185.713 406.47Z" fill="#0E1318" fill-opacity="0.7"/>
<path fill-rule="evenodd" clip-rule="evenodd" d="M296.25 413.25C296.25 413.664 296.586 414 297 414C297.414 414 297.75 413.664 297.75 413.25V408.75H302.25C302.664 408.75 303 408.414 303 408C303 407.586 302.664 407.25 302.25 407.25H297.75V402.75C297.75 402.336 297.414 402 297 402C296.586 402 296.25 402.336 296.25 402.75V407.25H291.75C291.336 407.25 291 407.586 291 408C291 408.414 291.336 408.75 291.75 408.75H296.25V413.25Z" fill="#0E1318" fill-opacity="0.7"/>
<rect x="93" y="440" width="20" height="20" rx="4" fill="#394C60" fill-opacity="0.15"/>
<rect x="131" y="446" width="100" height="8" rx="4" fill="#394C60" fill-opacity="0.15"/>
<rect x="93" y="484" width="20" height="20" rx="4" fill="#394C60" fill-opacity="0.15"/>
<rect x="131" y="490" width="157" height="8" rx="4" fill="#394C60" fill-opacity="0.15"/>
<rect x="93" y="528" width="20" height="20" rx="4" fill="#394C60" fill-opacity="0.15"/>
<rect x="131" y="534" width="100" height="8" rx="4" fill="#394C60" fill-opacity="0.15"/>
<rect x="93" y="572" width="20" height="20" rx="4" fill="#394C60" fill-opacity="0.15"/>
<rect x="131" y="578" width="100" height="8" rx="4" fill="#394C60" fill-opacity="0.15"/>
<rect x="93" y="616" width="20" height="20" rx="4" fill="#394C60" fill-opacity="0.15"/>
<rect x="131" y="622" width="160" height="8" rx="4" fill="#394C60" fill-opacity="0.15"/>
<path d="M81 72C81 67.5817 84.5817 64 89 64H305C309.418 64 313 67.5817 313 72V96C313 100.418 309.418 104 305 104H89C84.5817 104 81 100.418 81 96V72Z" fill="#8B3DFF"/>
<path fill-rule="evenodd" clip-rule="evenodd" d="M135.75 89.25C135.75 89.6642 136.086 90 136.5 90C136.914 90 137.25 89.6642 137.25 89.25V84.75H141.75C142.164 84.75 142.5 84.4142 142.5 84C142.5 83.5858 142.164 83.25 141.75 83.25H137.25V78.75C137.25 78.3358 136.914 78 136.5 78C136.086 78 135.75 78.3358 135.75 78.75V83.25H131.25C130.836 83.25 130.5 83.5858 130.5 84C130.5 84.4142 130.836 84.75 131.25 84.75H135.75V89.25Z" fill="white"/>
<path d="M158.283 89.1436C157.385 89.1436 156.59 88.9476 155.897 88.5557C155.205 88.1637 154.662 87.5827 154.271 86.8125C153.879 86.0423 153.683 85.1058 153.683 84.0029C153.683 82.9001 153.879 81.9635 154.271 81.1934C154.662 80.4232 155.205 79.8421 155.897 79.4502C156.59 79.0583 157.385 78.8623 158.283 78.8623C159.231 78.8623 160.026 79.0446 160.669 79.4092C161.316 79.7738 161.781 80.3252 162.063 81.0635L160.963 81.7539H160.792C160.55 81.207 160.227 80.8174 159.821 80.585C159.42 80.3525 158.908 80.2363 158.283 80.2363C157.381 80.2363 156.663 80.5394 156.13 81.1455C155.597 81.7516 155.33 82.7041 155.33 84.0029C155.33 85.2972 155.597 86.2474 156.13 86.8535C156.663 87.4551 157.381 87.7559 158.283 87.7559C158.967 87.7559 159.523 87.5986 159.951 87.2842C160.384 86.9652 160.692 86.4616 160.874 85.7734H161.045L162.166 86.3477C161.911 87.2637 161.457 87.9587 160.806 88.4326C160.159 88.9066 159.318 89.1436 158.283 89.1436ZM163.793 89V81.46H165.242V82.6084L165.386 82.6426C165.568 82.2096 165.816 81.8929 166.131 81.6924C166.445 81.4919 166.826 81.3916 167.272 81.3916C167.751 81.3916 168.106 81.4736 168.339 81.6377L168.038 82.9297L167.895 82.957C167.767 82.8978 167.637 82.8545 167.505 82.8271C167.373 82.7952 167.22 82.7793 167.047 82.7793C166.482 82.7793 166.049 82.9844 165.748 83.3945C165.447 83.8047 165.297 84.4678 165.297 85.3838V89H163.793ZM175.585 85.5684H170.567C170.654 87.0814 171.356 87.8379 172.673 87.8379C173.16 87.8379 173.552 87.7513 173.849 87.5781C174.149 87.4004 174.386 87.127 174.56 86.7578H174.703L175.694 87.373C175.462 87.9108 175.1 88.3415 174.607 88.665C174.12 88.984 173.475 89.1436 172.673 89.1436C171.921 89.1436 171.271 88.9977 170.725 88.7061C170.178 88.4144 169.756 87.9769 169.46 87.3936C169.164 86.8102 169.016 86.0902 169.016 85.2334C169.016 84.3766 169.171 83.6543 169.48 83.0664C169.79 82.4785 170.214 82.041 170.752 81.7539C171.29 81.4622 171.896 81.3164 172.57 81.3164C173.587 81.3164 174.37 81.5944 174.922 82.1504C175.478 82.7064 175.758 83.5244 175.763 84.6045C175.763 85.0101 175.751 85.304 175.729 85.4863L175.585 85.5684ZM174.307 84.4951C174.288 83.807 174.131 83.3057 173.835 82.9912C173.543 82.6768 173.122 82.5195 172.57 82.5195C172.014 82.5195 171.568 82.6768 171.23 82.9912C170.898 83.3057 170.688 83.807 170.602 84.4951H174.307ZM179.413 89.1436C178.675 89.1436 178.096 88.9476 177.677 88.5557C177.257 88.1592 177.048 87.5986 177.048 86.874C177.048 86.4274 177.141 86.0514 177.328 85.7461C177.515 85.4408 177.807 85.1924 178.203 85.001C178.6 84.805 179.115 84.6546 179.748 84.5498C180.245 84.4678 180.623 84.3766 180.883 84.2764C181.143 84.1761 181.318 84.0645 181.409 83.9414C181.5 83.8138 181.546 83.6543 181.546 83.4629C181.546 83.1712 181.443 82.9479 181.238 82.793C181.038 82.638 180.71 82.5605 180.254 82.5605C179.393 82.5605 178.661 82.9183 178.06 83.6338H177.923L177.253 82.6494C177.604 82.2347 178.039 81.9089 178.559 81.6719C179.083 81.4349 179.664 81.3164 180.302 81.3164C181.245 81.3164 181.933 81.5192 182.366 81.9248C182.804 82.3304 183.022 82.9001 183.022 83.6338V87.2705C183.022 87.6488 183.184 87.8379 183.508 87.8379C183.626 87.8379 183.74 87.8174 183.85 87.7764L183.945 87.8037L184.075 88.8496C183.984 88.9134 183.856 88.9635 183.692 89C183.533 89.0365 183.362 89.0547 183.18 89.0547C182.747 89.0547 182.414 88.9658 182.182 88.7881C181.954 88.6104 181.797 88.3392 181.71 87.9746L181.566 87.9609C181.366 88.3574 181.088 88.6536 180.732 88.8496C180.382 89.0456 179.942 89.1436 179.413 89.1436ZM179.837 87.9883C180.188 87.9883 180.495 87.9085 180.76 87.749C181.024 87.585 181.227 87.3525 181.368 87.0518C181.509 86.751 181.58 86.3978 181.58 85.9922V85.1309L181.45 85.1035C181.309 85.2083 181.131 85.2972 180.917 85.3701C180.707 85.4385 180.407 85.5046 180.015 85.5684C179.486 85.6458 179.11 85.7848 178.887 85.9854C178.668 86.1813 178.559 86.4593 178.559 86.8193C178.559 87.2021 178.67 87.4938 178.894 87.6943C179.117 87.8903 179.431 87.9883 179.837 87.9883ZM189.318 87.5029L189.742 88.6035C189.551 88.7767 189.305 88.9089 189.004 89C188.703 89.0957 188.37 89.1436 188.006 89.1436C187.249 89.1436 186.673 88.943 186.276 88.542C185.88 88.141 185.682 87.5417 185.682 86.7441V82.6631H184.451V81.4531H185.682V79.9219L187.186 79.6758V81.4531H189.469V82.6631H187.186V86.6211C187.186 87.0404 187.272 87.3434 187.445 87.5303C187.623 87.7171 187.876 87.8105 188.204 87.8105C188.573 87.8105 188.897 87.708 189.175 87.5029H189.318ZM197.2 85.5684H192.183C192.269 87.0814 192.971 87.8379 194.288 87.8379C194.776 87.8379 195.168 87.7513 195.464 87.5781C195.765 87.4004 196.002 87.127 196.175 86.7578H196.318L197.31 87.373C197.077 87.9108 196.715 88.3415 196.223 88.665C195.735 88.984 195.09 89.1436 194.288 89.1436C193.536 89.1436 192.887 88.9977 192.34 88.7061C191.793 88.4144 191.371 87.9769 191.075 87.3936C190.779 86.8102 190.631 86.0902 190.631 85.2334C190.631 84.3766 190.786 83.6543 191.096 83.0664C191.406 82.4785 191.829 82.041 192.367 81.7539C192.905 81.4622 193.511 81.3164 194.186 81.3164C195.202 81.3164 195.986 81.5944 196.537 82.1504C197.093 82.7064 197.373 83.5244 197.378 84.6045C197.378 85.0101 197.367 85.304 197.344 85.4863L197.2 85.5684ZM195.922 84.4951C195.904 83.807 195.746 83.3057 195.45 82.9912C195.159 82.6768 194.737 82.5195 194.186 82.5195C193.63 82.5195 193.183 82.6768 192.846 82.9912C192.513 83.3057 192.303 83.807 192.217 84.4951H195.922ZM204.405 89.1436C203.667 89.1436 203.088 88.9476 202.669 88.5557C202.25 88.1592 202.04 87.5986 202.04 86.874C202.04 86.4274 202.133 86.0514 202.32 85.7461C202.507 85.4408 202.799 85.1924 203.195 85.001C203.592 84.805 204.107 84.6546 204.74 84.5498C205.237 84.4678 205.615 84.3766 205.875 84.2764C206.135 84.1761 206.31 84.0645 206.401 83.9414C206.493 83.8138 206.538 83.6543 206.538 83.4629C206.538 83.1712 206.436 82.9479 206.23 82.793C206.03 82.638 205.702 82.5605 205.246 82.5605C204.385 82.5605 203.653 82.9183 203.052 83.6338H202.915L202.245 82.6494C202.596 82.2347 203.031 81.9089 203.551 81.6719C204.075 81.4349 204.656 81.3164 205.294 81.3164C206.237 81.3164 206.925 81.5192 207.358 81.9248C207.796 82.3304 208.015 82.9001 208.015 83.6338V87.2705C208.015 87.6488 208.176 87.8379 208.5 87.8379C208.618 87.8379 208.732 87.8174 208.842 87.7764L208.938 87.8037L209.067 88.8496C208.976 88.9134 208.849 88.9635 208.685 89C208.525 89.0365 208.354 89.0547 208.172 89.0547C207.739 89.0547 207.406 88.9658 207.174 88.7881C206.946 88.6104 206.789 88.3392 206.702 87.9746L206.559 87.9609C206.358 88.3574 206.08 88.6536 205.725 88.8496C205.374 89.0456 204.934 89.1436 204.405 89.1436ZM204.829 87.9883C205.18 87.9883 205.488 87.9085 205.752 87.749C206.016 87.585 206.219 87.3525 206.36 87.0518C206.502 86.751 206.572 86.3978 206.572 85.9922V85.1309L206.442 85.1035C206.301 85.2083 206.123 85.2972 205.909 85.3701C205.7 85.4385 205.399 85.5046 205.007 85.5684C204.478 85.6458 204.102 85.7848 203.879 85.9854C203.66 86.1813 203.551 86.4593 203.551 86.8193C203.551 87.2021 203.662 87.4938 203.886 87.6943C204.109 87.8903 204.424 87.9883 204.829 87.9883ZM216.45 89.1436C215.849 89.1436 215.315 89 214.851 88.7129C214.39 88.4212 214.03 87.9837 213.771 87.4004C213.511 86.8171 213.381 86.0947 213.381 85.2334C213.381 84.3721 213.515 83.6497 213.784 83.0664C214.058 82.4785 214.431 82.041 214.905 81.7539C215.384 81.4622 215.935 81.3164 216.56 81.3164C217.047 81.3164 217.478 81.4053 217.852 81.583C218.225 81.7562 218.542 82.0365 218.802 82.4238L218.945 82.3896V78.4316H220.449V89H218.945V87.9609L218.802 87.9336C218.569 88.2982 218.257 88.5921 217.865 88.8154C217.473 89.0342 217.002 89.1436 216.45 89.1436ZM216.929 87.8379C217.549 87.8379 218.041 87.6237 218.405 87.1953C218.77 86.7624 218.952 86.1084 218.952 85.2334C218.952 84.3493 218.77 83.693 218.405 83.2646C218.041 82.8317 217.549 82.6152 216.929 82.6152C215.603 82.6152 214.939 83.488 214.939 85.2334C214.939 86.9697 215.603 87.8379 216.929 87.8379ZM228.974 85.5684H223.956C224.043 87.0814 224.744 87.8379 226.062 87.8379C226.549 87.8379 226.941 87.7513 227.237 87.5781C227.538 87.4004 227.775 87.127 227.948 86.7578H228.092L229.083 87.373C228.851 87.9108 228.488 88.3415 227.996 88.665C227.508 88.984 226.864 89.1436 226.062 89.1436C225.31 89.1436 224.66 88.9977 224.113 88.7061C223.566 88.4144 223.145 87.9769 222.849 87.3936C222.552 86.8102 222.404 86.0902 222.404 85.2334C222.404 84.3766 222.559 83.6543 222.869 83.0664C223.179 82.4785 223.603 82.041 224.141 81.7539C224.678 81.4622 225.285 81.3164 225.959 81.3164C226.975 81.3164 227.759 81.5944 228.311 82.1504C228.867 82.7064 229.147 83.5244 229.151 84.6045C229.151 85.0101 229.14 85.304 229.117 85.4863L228.974 85.5684ZM227.695 84.4951C227.677 83.807 227.52 83.3057 227.224 82.9912C226.932 82.6768 226.51 82.5195 225.959 82.5195C225.403 82.5195 224.956 82.6768 224.619 82.9912C224.286 83.3057 224.077 83.807 223.99 84.4951H227.695ZM233.26 89.1436C232.768 89.1436 232.312 89.082 231.893 88.959C231.478 88.8359 231.125 88.6673 230.833 88.4531C230.546 88.2344 230.336 87.9883 230.204 87.7148L231.059 86.8057H231.202C231.699 87.5212 232.387 87.8789 233.267 87.8789C233.727 87.8789 234.076 87.7923 234.312 87.6191C234.554 87.4414 234.675 87.1953 234.675 86.8809C234.675 86.6348 234.595 86.432 234.436 86.2725C234.281 86.1084 234.032 85.9854 233.69 85.9033L232.556 85.623C231.845 85.4544 231.323 85.1901 230.99 84.8301C230.662 84.4655 230.498 84.012 230.498 83.4697C230.498 83.0277 230.61 82.6449 230.833 82.3213C231.061 81.9977 231.382 81.7493 231.797 81.5762C232.212 81.403 232.699 81.3164 233.26 81.3164C233.948 81.3164 234.502 81.4144 234.921 81.6104C235.345 81.8018 235.675 82.0661 235.912 82.4033L235.092 83.2578H234.955C234.732 82.998 234.481 82.8112 234.203 82.6973C233.93 82.5833 233.615 82.5264 233.26 82.5264C232.818 82.5264 232.485 82.6016 232.262 82.752C232.038 82.8978 231.927 83.112 231.927 83.3945C231.927 83.6452 232.009 83.848 232.173 84.0029C232.337 84.1579 232.622 84.2832 233.027 84.3789L234.121 84.6318C234.832 84.7913 235.347 85.0511 235.666 85.4111C235.99 85.7712 236.151 86.2406 236.151 86.8193C236.151 87.2796 236.04 87.6852 235.816 88.0361C235.593 88.3825 235.265 88.6536 234.832 88.8496C234.399 89.0456 233.875 89.1436 233.26 89.1436ZM238.701 80.2773C238.414 80.2773 238.179 80.1885 237.997 80.0107C237.815 79.833 237.724 79.6051 237.724 79.3271C237.724 79.0537 237.815 78.8281 237.997 78.6504C238.179 78.4727 238.414 78.3838 238.701 78.3838C238.988 78.3838 239.223 78.4727 239.405 78.6504C239.592 78.8281 239.686 79.0537 239.686 79.3271C239.686 79.6051 239.594 79.833 239.412 80.0107C239.23 80.1885 238.993 80.2773 238.701 80.2773ZM237.949 89V81.46H239.453V89H237.949ZM244.553 92.1992C243.336 92.1992 242.443 92.0078 241.873 91.625C241.303 91.2467 241.019 90.7318 241.019 90.0801C241.019 89.6699 241.146 89.3372 241.401 89.082C241.657 88.8268 242.023 88.6514 242.502 88.5557V88.4121C242.26 88.2708 242.083 88.109 241.969 87.9268C241.855 87.7399 241.798 87.5234 241.798 87.2773C241.798 86.6895 242.178 86.2975 242.939 86.1016V85.958C242.119 85.5068 241.709 84.8027 241.709 83.8457C241.709 83.349 241.823 82.9092 242.051 82.5264C242.279 82.1436 242.607 81.8473 243.035 81.6377C243.464 81.4235 243.972 81.3164 244.56 81.3164C245.188 81.3164 245.703 81.4395 246.104 81.6855C246.369 81.3574 246.521 80.9541 246.562 80.4756L246.706 80.3867L247.841 80.6602C247.8 81.0293 247.69 81.3438 247.513 81.6035C247.335 81.8587 247.073 82.0752 246.727 82.2529V82.4033C247.178 82.7725 247.403 83.2943 247.403 83.9688C247.403 84.4382 247.287 84.862 247.055 85.2402C246.827 85.6139 246.496 85.9079 246.063 86.1221C245.635 86.3363 245.134 86.4434 244.56 86.4434C244.509 86.4434 244.402 86.4388 244.238 86.4297C244.056 86.4206 243.926 86.416 243.849 86.416C243.644 86.416 243.482 86.4707 243.363 86.5801C243.245 86.6895 243.186 86.8285 243.186 86.9971C243.186 87.193 243.254 87.3411 243.391 87.4414C243.532 87.5417 243.753 87.5986 244.054 87.6123L245.79 87.6738C247.381 87.724 248.176 88.4076 248.176 89.7246C248.176 90.194 248.053 90.6133 247.807 90.9824C247.561 91.3561 247.166 91.6523 246.624 91.8711C246.086 92.0898 245.396 92.1992 244.553 92.1992ZM244.56 85.3018C245.006 85.3018 245.353 85.1787 245.599 84.9326C245.849 84.6865 245.975 84.3379 245.975 83.8867C245.975 83.431 245.852 83.0801 245.605 82.834C245.359 82.5833 245.011 82.458 244.56 82.458C244.104 82.458 243.755 82.5811 243.514 82.8271C243.272 83.0732 243.151 83.4264 243.151 83.8867C243.151 84.3379 243.272 84.6865 243.514 84.9326C243.755 85.1787 244.104 85.3018 244.56 85.3018ZM244.553 91.0371C245.286 91.0371 245.82 90.9255 246.152 90.7021C246.49 90.4834 246.658 90.2054 246.658 89.8682C246.658 89.5811 246.572 89.3737 246.398 89.2461C246.23 89.1185 245.943 89.0456 245.537 89.0273L243.951 88.9453L243.698 88.9385C243.293 88.943 242.992 89.0273 242.796 89.1914C242.6 89.36 242.502 89.5902 242.502 89.8818C242.502 90.2601 242.673 90.5472 243.015 90.7432C243.356 90.9391 243.869 91.0371 244.553 91.0371ZM249.652 89V81.46H251.088V82.6016L251.231 82.6357C251.473 82.2028 251.785 81.8747 252.168 81.6514C252.551 81.4281 253.018 81.3164 253.569 81.3164C254.458 81.3164 255.105 81.5511 255.511 82.0205C255.921 82.4854 256.126 83.1849 256.126 84.1191V89H254.622V84.249C254.622 83.6611 254.506 83.2396 254.273 82.9844C254.041 82.7292 253.667 82.6016 253.152 82.6016C252.537 82.6016 252.049 82.8021 251.689 83.2031C251.334 83.6042 251.156 84.2399 251.156 85.1104V89H249.652Z" fill="white"/>
<path d="M160.444 36.536C160.308 36.536 160.184 36.624 160.12 36.808C159.3 39.148 158.192 40.54 157.28 40.54C156.756 40.54 156.544 39.956 156.544 39.04C156.544 36.748 157.916 31.888 158.608 29.672C158.688 29.404 158.74 29.164 158.74 28.96C158.74 28.316 158.388 28 157.516 28C156.576 28 155.564 28.368 154.58 30.092C154.24 28.572 153.212 27.908 151.776 27.908C150.116 27.908 148.512 28.976 147.192 30.708C145.872 32.44 144.32 33.008 143.152 32.728C143.992 30.672 144.304 29.136 144.304 27.996C144.304 26.208 143.42 25.128 141.992 25.128C139.82 25.128 138.568 27.2 138.568 29.38C138.568 31.064 139.332 32.796 141.012 33.636C139.604 36.82 137.548 39.7 136.768 39.7C135.76 39.7 135.464 34.768 135.52 31.24C135.556 29.216 135.724 29.112 135.724 28.5C135.724 28.148 135.496 27.908 134.58 27.908C132.444 27.908 131.784 29.716 131.684 31.792C131.652 32.58 131.528 33.364 131.316 34.124C130.424 37.308 128.584 39.724 127.384 39.724C126.828 39.724 126.676 39.168 126.676 38.44C126.676 36.148 127.96 33.284 127.96 30.84C127.96 29.044 127.172 27.908 125.688 27.908C123.94 27.908 121.628 29.988 119.44 33.884C120.16 30.9 120.456 28.012 118.324 28.012C117.86 28.02 117.408 28.136 117 28.356C116.72 28.488 116.548 28.776 116.568 29.084C116.772 32.26 114.008 40.396 111.388 40.396C110.912 40.396 110.68 39.88 110.68 39.048C110.68 36.752 112.048 31.904 112.736 29.684C112.824 29.396 112.872 29.148 112.872 28.932C112.872 28.324 112.496 28.012 111.644 28.012C110.708 28.012 109.692 28.368 108.712 30.092C108.368 28.572 107.34 27.908 105.904 27.908C103.548 27.908 100.916 30.4 99.76 33.648C98.212 37.984 95.092 42.172 90.892 42.172C87.08 42.172 85.068 39 85.068 33.988C85.068 26.752 90.38 20.84 94.32 20.84C96.204 20.84 97.104 22.04 97.104 23.88C97.104 26.108 95.86 27.144 95.86 27.992C95.86 28.252 96.076 28.508 96.504 28.508C98.216 28.508 100.232 26.496 100.232 23.752C100.232 21.008 98.004 19 94.064 19C87.552 19 81 25.552 81 33.948C81 40.628 84.296 44.656 89.996 44.656C93.884 44.656 97.28 41.632 99.112 38.104C99.32 41.028 100.648 42.556 102.672 42.556C104.472 42.556 105.928 41.484 107.04 39.6C107.468 41.572 108.604 42.536 110.08 42.536C111.772 42.536 113.188 41.464 114.536 39.472C114.516 41.036 114.872 42.508 116.228 42.508C116.868 42.508 117.632 42.36 117.768 41.8C119.196 35.896 122.724 31.076 123.804 31.076C124.124 31.076 124.212 31.384 124.212 31.748C124.212 33.352 123.08 36.64 123.08 38.74C123.08 41.008 124.044 42.508 126.036 42.508C128.244 42.508 130.488 39.804 131.984 35.852C132.452 39.544 133.464 42.524 135.048 42.524C136.992 42.524 140.444 38.432 142.536 34.1C143.356 34.204 144.588 34.176 145.772 33.34C145.268 34.616 144.972 36.012 144.972 37.408C144.972 41.428 146.892 42.556 148.544 42.556C150.34 42.556 151.796 41.484 152.912 39.6C153.28 41.3 154.22 42.532 155.948 42.532C158.652 42.532 161 39.768 161 37.5C161 36.9 160.744 36.536 160.444 36.536ZM104.32 40.328C103.228 40.328 102.8 39.228 102.8 37.588C102.8 34.74 104.748 29.984 106.808 29.984C107.708 29.984 108.048 31.044 108.048 32.34C108.048 35.232 106.196 40.328 104.32 40.328ZM141.724 31.828C141.072 31.052 140.836 29.996 140.836 29.056C140.836 27.896 141.26 26.916 141.768 26.916C142.276 26.916 142.432 27.416 142.432 28.112C142.432 29.276 142.016 30.976 141.724 31.828ZM150.192 40.328C149.1 40.328 148.672 39.064 148.672 37.588C148.672 34.84 150.62 29.984 152.696 29.984C153.596 29.984 153.916 31.036 153.916 32.34C153.916 35.232 152.096 40.328 150.192 40.328Z" fill="#7D2AE7"/>
<path d="M160.444 36.536C160.308 36.536 160.184 36.624 160.12 36.808C159.3 39.148 158.192 40.54 157.28 40.54C156.756 40.54 156.544 39.956 156.544 39.04C156.544 36.748 157.916 31.888 158.608 29.672C158.688 29.404 158.74 29.164 158.74 28.96C158.74 28.316 158.388 28 157.516 28C156.576 28 155.564 28.368 154.58 30.092C154.24 28.572 153.212 27.908 151.776 27.908C150.116 27.908 148.512 28.976 147.192 30.708C145.872 32.44 144.32 33.008 143.152 32.728C143.992 30.672 144.304 29.136 144.304 27.996C144.304 26.208 143.42 25.128 141.992 25.128C139.82 25.128 138.568 27.2 138.568 29.38C138.568 31.064 139.332 32.796 141.012 33.636C139.604 36.82 137.548 39.7 136.768 39.7C135.76 39.7 135.464 34.768 135.52 31.24C135.556 29.216 135.724 29.112 135.724 28.5C135.724 28.148 135.496 27.908 134.58 27.908C132.444 27.908 131.784 29.716 131.684 31.792C131.652 32.58 131.528 33.364 131.316 34.124C130.424 37.308 128.584 39.724 127.384 39.724C126.828 39.724 126.676 39.168 126.676 38.44C126.676 36.148 127.96 33.284 127.96 30.84C127.96 29.044 127.172 27.908 125.688 27.908C123.94 27.908 121.628 29.988 119.44 33.884C120.16 30.9 120.456 28.012 118.324 28.012C117.86 28.02 117.408 28.136 117 28.356C116.72 28.488 116.548 28.776 116.568 29.084C116.772 32.26 114.008 40.396 111.388 40.396C110.912 40.396 110.68 39.88 110.68 39.048C110.68 36.752 112.048 31.904 112.736 29.684C112.824 29.396 112.872 29.148 112.872 28.932C112.872 28.324 112.496 28.012 111.644 28.012C110.708 28.012 109.692 28.368 108.712 30.092C108.368 28.572 107.34 27.908 105.904 27.908C103.548 27.908 100.916 30.4 99.76 33.648C98.212 37.984 95.092 42.172 90.892 42.172C87.08 42.172 85.068 39 85.068 33.988C85.068 26.752 90.38 20.84 94.32 20.84C96.204 20.84 97.104 22.04 97.104 23.88C97.104 26.108 95.86 27.144 95.86 27.992C95.86 28.252 96.076 28.508 96.504 28.508C98.216 28.508 100.232 26.496 100.232 23.752C100.232 21.008 98.004 19 94.064 19C87.552 19 81 25.552 81 33.948C81 40.628 84.296 44.656 89.996 44.656C93.884 44.656 97.28 41.632 99.112 38.104C99.32 41.028 100.648 42.556 102.672 42.556C104.472 42.556 105.928 41.484 107.04 39.6C107.468 41.572 108.604 42.536 110.08 42.536C111.772 42.536 113.188 41.464 114.536 39.472C114.516 41.036 114.872 42.508 116.228 42.508C116.868 42.508 117.632 42.36 117.768 41.8C119.196 35.896 122.724 31.076 123.804 31.076C124.124 31.076 124.212 31.384 124.212 31.748C124.212 33.352 123.08 36.64 123.08 38.74C123.08 41.008 124.044 42.508 126.036 42.508C128.244 42.508 130.488 39.804 131.984 35.852C132.452 39.544 133.464 42.524 135.048 42.524C136.992 42.524 140.444 38.432 142.536 34.1C143.356 34.204 144.588 34.176 145.772 33.34C145.268 34.616 144.972 36.012 144.972 37.408C144.972 41.428 146.892 42.556 148.544 42.556C150.34 42.556 151.796 41.484 152.912 39.6C153.28 41.3 154.22 42.532 155.948 42.532C158.652 42.532 161 39.768 161 37.5C161 36.9 160.744 36.536 160.444 36.536ZM104.32 40.328C103.228 40.328 102.8 39.228 102.8 37.588C102.8 34.74 104.748 29.984 106.808 29.984C107.708 29.984 108.048 31.044 108.048 32.34C108.048 35.232 106.196 40.328 104.32 40.328ZM141.724 31.828C141.072 31.052 140.836 29.996 140.836 29.056C140.836 27.896 141.26 26.916 141.768 26.916C142.276 26.916 142.432 27.416 142.432 28.112C142.432 29.276 142.016 30.976 141.724 31.828ZM150.192 40.328C149.1 40.328 148.672 39.064 148.672 37.588C148.672 34.84 150.62 29.984 152.696 29.984C153.596 29.984 153.916 31.036 153.916 32.34C153.916 35.232 152.096 40.328 150.192 40.328Z" fill="url(#paint1_radial_6839_94071)"/>
<path d="M160.444 36.536C160.308 36.536 160.184 36.624 160.12 36.808C159.3 39.148 158.192 40.54 157.28 40.54C156.756 40.54 156.544 39.956 156.544 39.04C156.544 36.748 157.916 31.888 158.608 29.672C158.688 29.404 158.74 29.164 158.74 28.96C158.74 28.316 158.388 28 157.516 28C156.576 28 155.564 28.368 154.58 30.092C154.24 28.572 153.212 27.908 151.776 27.908C150.116 27.908 148.512 28.976 147.192 30.708C145.872 32.44 144.32 33.008 143.152 32.728C143.992 30.672 144.304 29.136 144.304 27.996C144.304 26.208 143.42 25.128 141.992 25.128C139.82 25.128 138.568 27.2 138.568 29.38C138.568 31.064 139.332 32.796 141.012 33.636C139.604 36.82 137.548 39.7 136.768 39.7C135.76 39.7 135.464 34.768 135.52 31.24C135.556 29.216 135.724 29.112 135.724 28.5C135.724 28.148 135.496 27.908 134.58 27.908C132.444 27.908 131.784 29.716 131.684 31.792C131.652 32.58 131.528 33.364 131.316 34.124C130.424 37.308 128.584 39.724 127.384 39.724C126.828 39.724 126.676 39.168 126.676 38.44C126.676 36.148 127.96 33.284 127.96 30.84C127.96 29.044 127.172 27.908 125.688 27.908C123.94 27.908 121.628 29.988 119.44 33.884C120.16 30.9 120.456 28.012 118.324 28.012C117.86 28.02 117.408 28.136 117 28.356C116.72 28.488 116.548 28.776 116.568 29.084C116.772 32.26 114.008 40.396 111.388 40.396C110.912 40.396 110.68 39.88 110.68 39.048C110.68 36.752 112.048 31.904 112.736 29.684C112.824 29.396 112.872 29.148 112.872 28.932C112.872 28.324 112.496 28.012 111.644 28.012C110.708 28.012 109.692 28.368 108.712 30.092C108.368 28.572 107.34 27.908 105.904 27.908C103.548 27.908 100.916 30.4 99.76 33.648C98.212 37.984 95.092 42.172 90.892 42.172C87.08 42.172 85.068 39 85.068 33.988C85.068 26.752 90.38 20.84 94.32 20.84C96.204 20.84 97.104 22.04 97.104 23.88C97.104 26.108 95.86 27.144 95.86 27.992C95.86 28.252 96.076 28.508 96.504 28.508C98.216 28.508 100.232 26.496 100.232 23.752C100.232 21.008 98.004 19 94.064 19C87.552 19 81 25.552 81 33.948C81 40.628 84.296 44.656 89.996 44.656C93.884 44.656 97.28 41.632 99.112 38.104C99.32 41.028 100.648 42.556 102.672 42.556C104.472 42.556 105.928 41.484 107.04 39.6C107.468 41.572 108.604 42.536 110.08 42.536C111.772 42.536 113.188 41.464 114.536 39.472C114.516 41.036 114.872 42.508 116.228 42.508C116.868 42.508 117.632 42.36 117.768 41.8C119.196 35.896 122.724 31.076 123.804 31.076C124.124 31.076 124.212 31.384 124.212 31.748C124.212 33.352 123.08 36.64 123.08 38.74C123.08 41.008 124.044 42.508 126.036 42.508C128.244 42.508 130.488 39.804 131.984 35.852C132.452 39.544 133.464 42.524 135.048 42.524C136.992 42.524 140.444 38.432 142.536 34.1C143.356 34.204 144.588 34.176 145.772 33.34C145.268 34.616 144.972 36.012 144.972 37.408C144.972 41.428 146.892 42.556 148.544 42.556C150.34 42.556 151.796 41.484 152.912 39.6C153.28 41.3 154.22 42.532 155.948 42.532C158.652 42.532 161 39.768 161 37.5C161 36.9 160.744 36.536 160.444 36.536ZM104.32 40.328C103.228 40.328 102.8 39.228 102.8 37.588C102.8 34.74 104.748 29.984 106.808 29.984C107.708 29.984 108.048 31.044 108.048 32.34C108.048 35.232 106.196 40.328 104.32 40.328ZM141.724 31.828C141.072 31.052 140.836 29.996 140.836 29.056C140.836 27.896 141.26 26.916 141.768 26.916C142.276 26.916 142.432 27.416 142.432 28.112C142.432 29.276 142.016 30.976 141.724 31.828ZM150.192 40.328C149.1 40.328 148.672 39.064 148.672 37.588C148.672 34.84 150.62 29.984 152.696 29.984C153.596 29.984 153.916 31.036 153.916 32.34C153.916 35.232 152.096 40.328 150.192 40.328Z" fill="url(#paint2_radial_6839_94071)"/>
<path d="M160.444 36.536C160.308 36.536 160.184 36.624 160.12 36.808C159.3 39.148 158.192 40.54 157.28 40.54C156.756 40.54 156.544 39.956 156.544 39.04C156.544 36.748 157.916 31.888 158.608 29.672C158.688 29.404 158.74 29.164 158.74 28.96C158.74 28.316 158.388 28 157.516 28C156.576 28 155.564 28.368 154.58 30.092C154.24 28.572 153.212 27.908 151.776 27.908C150.116 27.908 148.512 28.976 147.192 30.708C145.872 32.44 144.32 33.008 143.152 32.728C143.992 30.672 144.304 29.136 144.304 27.996C144.304 26.208 143.42 25.128 141.992 25.128C139.82 25.128 138.568 27.2 138.568 29.38C138.568 31.064 139.332 32.796 141.012 33.636C139.604 36.82 137.548 39.7 136.768 39.7C135.76 39.7 135.464 34.768 135.52 31.24C135.556 29.216 135.724 29.112 135.724 28.5C135.724 28.148 135.496 27.908 134.58 27.908C132.444 27.908 131.784 29.716 131.684 31.792C131.652 32.58 131.528 33.364 131.316 34.124C130.424 37.308 128.584 39.724 127.384 39.724C126.828 39.724 126.676 39.168 126.676 38.44C126.676 36.148 127.96 33.284 127.96 30.84C127.96 29.044 127.172 27.908 125.688 27.908C123.94 27.908 121.628 29.988 119.44 33.884C120.16 30.9 120.456 28.012 118.324 28.012C117.86 28.02 117.408 28.136 117 28.356C116.72 28.488 116.548 28.776 116.568 29.084C116.772 32.26 114.008 40.396 111.388 40.396C110.912 40.396 110.68 39.88 110.68 39.048C110.68 36.752 112.048 31.904 112.736 29.684C112.824 29.396 112.872 29.148 112.872 28.932C112.872 28.324 112.496 28.012 111.644 28.012C110.708 28.012 109.692 28.368 108.712 30.092C108.368 28.572 107.34 27.908 105.904 27.908C103.548 27.908 100.916 30.4 99.76 33.648C98.212 37.984 95.092 42.172 90.892 42.172C87.08 42.172 85.068 39 85.068 33.988C85.068 26.752 90.38 20.84 94.32 20.84C96.204 20.84 97.104 22.04 97.104 23.88C97.104 26.108 95.86 27.144 95.86 27.992C95.86 28.252 96.076 28.508 96.504 28.508C98.216 28.508 100.232 26.496 100.232 23.752C100.232 21.008 98.004 19 94.064 19C87.552 19 81 25.552 81 33.948C81 40.628 84.296 44.656 89.996 44.656C93.884 44.656 97.28 41.632 99.112 38.104C99.32 41.028 100.648 42.556 102.672 42.556C104.472 42.556 105.928 41.484 107.04 39.6C107.468 41.572 108.604 42.536 110.08 42.536C111.772 42.536 113.188 41.464 114.536 39.472C114.516 41.036 114.872 42.508 116.228 42.508C116.868 42.508 117.632 42.36 117.768 41.8C119.196 35.896 122.724 31.076 123.804 31.076C124.124 31.076 124.212 31.384 124.212 31.748C124.212 33.352 123.08 36.64 123.08 38.74C123.08 41.008 124.044 42.508 126.036 42.508C128.244 42.508 130.488 39.804 131.984 35.852C132.452 39.544 133.464 42.524 135.048 42.524C136.992 42.524 140.444 38.432 142.536 34.1C143.356 34.204 144.588 34.176 145.772 33.34C145.268 34.616 144.972 36.012 144.972 37.408C144.972 41.428 146.892 42.556 148.544 42.556C150.34 42.556 151.796 41.484 152.912 39.6C153.28 41.3 154.22 42.532 155.948 42.532C158.652 42.532 161 39.768 161 37.5C161 36.9 160.744 36.536 160.444 36.536ZM104.32 40.328C103.228 40.328 102.8 39.228 102.8 37.588C102.8 34.74 104.748 29.984 106.808 29.984C107.708 29.984 108.048 31.044 108.048 32.34C108.048 35.232 106.196 40.328 104.32 40.328ZM141.724 31.828C141.072 31.052 140.836 29.996 140.836 29.056C140.836 27.896 141.26 26.916 141.768 26.916C142.276 26.916 142.432 27.416 142.432 28.112C142.432 29.276 142.016 30.976 141.724 31.828ZM150.192 40.328C149.1 40.328 148.672 39.064 148.672 37.588C148.672 34.84 150.62 29.984 152.696 29.984C153.596 29.984 153.916 31.036 153.916 32.34C153.916 35.232 152.096 40.328 150.192 40.328Z" fill="url(#paint3_radial_6839_94071)"/>
<path d="M160.444 36.536C160.308 36.536 160.184 36.624 160.12 36.808C159.3 39.148 158.192 40.54 157.28 40.54C156.756 40.54 156.544 39.956 156.544 39.04C156.544 36.748 157.916 31.888 158.608 29.672C158.688 29.404 158.74 29.164 158.74 28.96C158.74 28.316 158.388 28 157.516 28C156.576 28 155.564 28.368 154.58 30.092C154.24 28.572 153.212 27.908 151.776 27.908C150.116 27.908 148.512 28.976 147.192 30.708C145.872 32.44 144.32 33.008 143.152 32.728C143.992 30.672 144.304 29.136 144.304 27.996C144.304 26.208 143.42 25.128 141.992 25.128C139.82 25.128 138.568 27.2 138.568 29.38C138.568 31.064 139.332 32.796 141.012 33.636C139.604 36.82 137.548 39.7 136.768 39.7C135.76 39.7 135.464 34.768 135.52 31.24C135.556 29.216 135.724 29.112 135.724 28.5C135.724 28.148 135.496 27.908 134.58 27.908C132.444 27.908 131.784 29.716 131.684 31.792C131.652 32.58 131.528 33.364 131.316 34.124C130.424 37.308 128.584 39.724 127.384 39.724C126.828 39.724 126.676 39.168 126.676 38.44C126.676 36.148 127.96 33.284 127.96 30.84C127.96 29.044 127.172 27.908 125.688 27.908C123.94 27.908 121.628 29.988 119.44 33.884C120.16 30.9 120.456 28.012 118.324 28.012C117.86 28.02 117.408 28.136 117 28.356C116.72 28.488 116.548 28.776 116.568 29.084C116.772 32.26 114.008 40.396 111.388 40.396C110.912 40.396 110.68 39.88 110.68 39.048C110.68 36.752 112.048 31.904 112.736 29.684C112.824 29.396 112.872 29.148 112.872 28.932C112.872 28.324 112.496 28.012 111.644 28.012C110.708 28.012 109.692 28.368 108.712 30.092C108.368 28.572 107.34 27.908 105.904 27.908C103.548 27.908 100.916 30.4 99.76 33.648C98.212 37.984 95.092 42.172 90.892 42.172C87.08 42.172 85.068 39 85.068 33.988C85.068 26.752 90.38 20.84 94.32 20.84C96.204 20.84 97.104 22.04 97.104 23.88C97.104 26.108 95.86 27.144 95.86 27.992C95.86 28.252 96.076 28.508 96.504 28.508C98.216 28.508 100.232 26.496 100.232 23.752C100.232 21.008 98.004 19 94.064 19C87.552 19 81 25.552 81 33.948C81 40.628 84.296 44.656 89.996 44.656C93.884 44.656 97.28 41.632 99.112 38.104C99.32 41.028 100.648 42.556 102.672 42.556C104.472 42.556 105.928 41.484 107.04 39.6C107.468 41.572 108.604 42.536 110.08 42.536C111.772 42.536 113.188 41.464 114.536 39.472C114.516 41.036 114.872 42.508 116.228 42.508C116.868 42.508 117.632 42.36 117.768 41.8C119.196 35.896 122.724 31.076 123.804 31.076C124.124 31.076 124.212 31.384 124.212 31.748C124.212 33.352 123.08 36.64 123.08 38.74C123.08 41.008 124.044 42.508 126.036 42.508C128.244 42.508 130.488 39.804 131.984 35.852C132.452 39.544 133.464 42.524 135.048 42.524C136.992 42.524 140.444 38.432 142.536 34.1C143.356 34.204 144.588 34.176 145.772 33.34C145.268 34.616 144.972 36.012 144.972 37.408C144.972 41.428 146.892 42.556 148.544 42.556C150.34 42.556 151.796 41.484 152.912 39.6C153.28 41.3 154.22 42.532 155.948 42.532C158.652 42.532 161 39.768 161 37.5C161 36.9 160.744 36.536 160.444 36.536ZM104.32 40.328C103.228 40.328 102.8 39.228 102.8 37.588C102.8 34.74 104.748 29.984 106.808 29.984C107.708 29.984 108.048 31.044 108.048 32.34C108.048 35.232 106.196 40.328 104.32 40.328ZM141.724 31.828C141.072 31.052 140.836 29.996 140.836 29.056C140.836 27.896 141.26 26.916 141.768 26.916C142.276 26.916 142.432 27.416 142.432 28.112C142.432 29.276 142.016 30.976 141.724 31.828ZM150.192 40.328C149.1 40.328 148.672 39.064 148.672 37.588C148.672 34.84 150.62 29.984 152.696 29.984C153.596 29.984 153.916 31.036 153.916 32.34C153.916 35.232 152.096 40.328 150.192 40.328Z" fill="url(#paint4_radial_6839_94071)"/>
<path d="M160.444 36.536C160.308 36.536 160.184 36.624 160.12 36.808C159.3 39.148 158.192 40.54 157.28 40.54C156.756 40.54 156.544 39.956 156.544 39.04C156.544 36.748 157.916 31.888 158.608 29.672C158.688 29.404 158.74 29.164 158.74 28.96C158.74 28.316 158.388 28 157.516 28C156.576 28 155.564 28.368 154.58 30.092C154.24 28.572 153.212 27.908 151.776 27.908C150.116 27.908 148.512 28.976 147.192 30.708C145.872 32.44 144.32 33.008 143.152 32.728C143.992 30.672 144.304 29.136 144.304 27.996C144.304 26.208 143.42 25.128 141.992 25.128C139.82 25.128 138.568 27.2 138.568 29.38C138.568 31.064 139.332 32.796 141.012 33.636C139.604 36.82 137.548 39.7 136.768 39.7C135.76 39.7 135.464 34.768 135.52 31.24C135.556 29.216 135.724 29.112 135.724 28.5C135.724 28.148 135.496 27.908 134.58 27.908C132.444 27.908 131.784 29.716 131.684 31.792C131.652 32.58 131.528 33.364 131.316 34.124C130.424 37.308 128.584 39.724 127.384 39.724C126.828 39.724 126.676 39.168 126.676 38.44C126.676 36.148 127.96 33.284 127.96 30.84C127.96 29.044 127.172 27.908 125.688 27.908C123.94 27.908 121.628 29.988 119.44 33.884C120.16 30.9 120.456 28.012 118.324 28.012C117.86 28.02 117.408 28.136 117 28.356C116.72 28.488 116.548 28.776 116.568 29.084C116.772 32.26 114.008 40.396 111.388 40.396C110.912 40.396 110.68 39.88 110.68 39.048C110.68 36.752 112.048 31.904 112.736 29.684C112.824 29.396 112.872 29.148 112.872 28.932C112.872 28.324 112.496 28.012 111.644 28.012C110.708 28.012 109.692 28.368 108.712 30.092C108.368 28.572 107.34 27.908 105.904 27.908C103.548 27.908 100.916 30.4 99.76 33.648C98.212 37.984 95.092 42.172 90.892 42.172C87.08 42.172 85.068 39 85.068 33.988C85.068 26.752 90.38 20.84 94.32 20.84C96.204 20.84 97.104 22.04 97.104 23.88C97.104 26.108 95.86 27.144 95.86 27.992C95.86 28.252 96.076 28.508 96.504 28.508C98.216 28.508 100.232 26.496 100.232 23.752C100.232 21.008 98.004 19 94.064 19C87.552 19 81 25.552 81 33.948C81 40.628 84.296 44.656 89.996 44.656C93.884 44.656 97.28 41.632 99.112 38.104C99.32 41.028 100.648 42.556 102.672 42.556C104.472 42.556 105.928 41.484 107.04 39.6C107.468 41.572 108.604 42.536 110.08 42.536C111.772 42.536 113.188 41.464 114.536 39.472C114.516 41.036 114.872 42.508 116.228 42.508C116.868 42.508 117.632 42.36 117.768 41.8C119.196 35.896 122.724 31.076 123.804 31.076C124.124 31.076 124.212 31.384 124.212 31.748C124.212 33.352 123.08 36.64 123.08 38.74C123.08 41.008 124.044 42.508 126.036 42.508C128.244 42.508 130.488 39.804 131.984 35.852C132.452 39.544 133.464 42.524 135.048 42.524C136.992 42.524 140.444 38.432 142.536 34.1C143.356 34.204 144.588 34.176 145.772 33.34C145.268 34.616 144.972 36.012 144.972 37.408C144.972 41.428 146.892 42.556 148.544 42.556C150.34 42.556 151.796 41.484 152.912 39.6C153.28 41.3 154.22 42.532 155.948 42.532C158.652 42.532 161 39.768 161 37.5C161 36.9 160.744 36.536 160.444 36.536ZM104.32 40.328C103.228 40.328 102.8 39.228 102.8 37.588C102.8 34.74 104.748 29.984 106.808 29.984C107.708 29.984 108.048 31.044 108.048 32.34C108.048 35.232 106.196 40.328 104.32 40.328ZM141.724 31.828C141.072 31.052 140.836 29.996 140.836 29.056C140.836 27.896 141.26 26.916 141.768 26.916C142.276 26.916 142.432 27.416 142.432 28.112C142.432 29.276 142.016 30.976 141.724 31.828ZM150.192 40.328C149.1 40.328 148.672 39.064 148.672 37.588C148.672 34.84 150.62 29.984 152.696 29.984C153.596 29.984 153.916 31.036 153.916 32.34C153.916 35.232 152.096 40.328 150.192 40.328Z" fill="url(#paint5_radial_6839_94071)"/>
<rect width="264" height="84" transform="translate(65 684)" fill="url(#paint6_linear_6839_94071)"/>
<rect x="93" y="728" width="20" height="20" rx="4" fill="#394C60" fill-opacity="0.15"/>
<rect x="131" y="734" width="100" height="8" rx="4" fill="#394C60" fill-opacity="0.15"/>
</g>
<mask id="path-58-outside-1_6839_94071" maskUnits="userSpaceOnUse" x="0" y="0" width="66" height="768" fill="black">
<rect fill="white" width="66" height="768"/>
<path d="M0 0H65V768H0V0Z"/>
</mask>
<path d="M64 0V768H66V0H64Z" fill="#4A2E7E" fill-opacity="0.15" mask="url(#path-58-outside-1_6839_94071)"/>
<rect opacity="0.1" x="20" y="20" width="24" height="24" rx="8" fill="#4A2E7E"/>
<rect x="10" y="52" width="45" height="8" rx="4" fill="#394C60" fill-opacity="0.15"/>
<rect opacity="0.1" x="20" y="92" width="24" height="24" rx="8" fill="#4A2E7E"/>
<rect x="10" y="124" width="45" height="8" rx="4" fill="#394C60" fill-opacity="0.15"/>
<rect opacity="0.1" x="20" y="164" width="24" height="24" rx="8" fill="#4A2E7E"/>
<rect x="10" y="196" width="45" height="8" rx="4" fill="#394C60" fill-opacity="0.15"/>
<rect opacity="0.1" x="20" y="236" width="24" height="24" rx="8" fill="#4A2E7E"/>
<rect x="10" y="268" width="45" height="8" rx="4" fill="#394C60" fill-opacity="0.15"/>
<rect opacity="0.1" x="20" y="308" width="24" height="24" rx="8" fill="#4A2E7E"/>
<rect x="10" y="340" width="45" height="8" rx="4" fill="#394C60" fill-opacity="0.15"/>
<rect opacity="0.1" x="20" y="380" width="24" height="24" rx="8" fill="#4A2E7E"/>
<rect x="10" y="412" width="45" height="8" rx="4" fill="#394C60" fill-opacity="0.15"/>
<g filter="url(#filter0_dd_6839_94071)">
<path d="M329 20C329 13.3726 334.373 8 341 8H1346C1352.63 8 1358 13.3726 1358 20V748C1358 754.627 1352.63 760 1346 760H341C334.373 760 329 754.627 329 748V20Z" fill="white"/>
</g>
</g>
<rect x="0.5" y="0.5" width="1365" height="767" rx="3.5" stroke="#394C60" stroke-opacity="0.15"/>
<defs>
<filter id="filter0_dd_6839_94071" x="313" y="-2" width="1061" height="784" filterUnits="userSpaceOnUse" color-interpolation-filters="sRGB">
<feFlood flood-opacity="0" result="BackgroundImageFix"/>
<feColorMatrix in="SourceAlpha" type="matrix" values="0 0 0 0 0 0 0 0 0 0 0 0 0 0 0 0 0 0 127 0" result="hardAlpha"/>
<feMorphology radius="4" operator="erode" in="SourceAlpha" result="effect1_dropShadow_6839_94071"/>
<feOffset dy="6"/>
<feGaussianBlur stdDeviation="10"/>
<feColorMatrix type="matrix" values="0 0 0 0 0.25098 0 0 0 0 0.341176 0 0 0 0 0.427451 0 0 0 0.3 0"/>
<feBlend mode="normal" in2="BackgroundImageFix" result="effect1_dropShadow_6839_94071"/>
<feColorMatrix in="SourceAlpha" type="matrix" values="0 0 0 0 0 0 0 0 0 0 0 0 0 0 0 0 0 0 127 0" result="hardAlpha"/>
<feMorphology radius="1" operator="dilate" in="SourceAlpha" result="effect2_dropShadow_6839_94071"/>
<feOffset/>
<feColorMatrix type="matrix" values="0 0 0 0 0.25098 0 0 0 0 0.341176 0 0 0 0 0.427451 0 0 0 0.04 0"/>
<feBlend mode="normal" in2="effect1_dropShadow_6839_94071" result="effect2_dropShadow_6839_94071"/>
<feBlend mode="normal" in="SourceGraphic" in2="effect2_dropShadow_6839_94071" result="shape"/>
</filter>
<linearGradient id="paint0_linear_6839_94071" x1="0" y1="0" x2="3.61684" y2="774.363" gradientUnits="userSpaceOnUse">
<stop stop-color="#EBE0FC"/>
<stop offset="0.63" stop-color="#DDEAF9"/>
</linearGradient>
<radialGradient id="paint1_radial_6839_94071" cx="0" cy="0" r="1" gradientUnits="userSpaceOnUse" gradientTransform="translate(121.96 47.44) rotate(-45.8069) scale(24.1006 16.0169)">
<stop stop-color="#6420FF"/>
<stop offset="1" stop-color="#6420FF" stop-opacity="0"/>
</radialGradient>
<radialGradient id="paint2_radial_6839_94071" cx="0" cy="0" r="1" gradientUnits="userSpaceOnUse" gradientTransform="translate(82.92 36.08) rotate(5.08826) scale(46.9048 37.3842)">
<stop offset="0.25" stop-color="#00C4CC"/>
<stop offset="1" stop-color="#00C4CC" stop-opacity="0"/>
</radialGradient>
<radialGradient id="paint3_radial_6839_94071" cx="0" cy="0" r="1" gradientUnits="userSpaceOnUse" gradientTransform="translate(115.14 44.64) rotate(-38.8493) scale(30.226 20.6676)">
<stop stop-color="#6420FF"/>
<stop offset="1" stop-color="#6420FF" stop-opacity="0"/>
</radialGradient>
<radialGradient id="paint4_radial_6839_94071" cx="0" cy="0" r="1" gradientUnits="userSpaceOnUse" gradientTransform="translate(83.28 44.64) rotate(-26.1243) scale(34.8837 23.8524)">
<stop stop-color="#6420FF"/>
<stop offset="1" stop-color="#6420FF" stop-opacity="0"/>
</radialGradient>
<radialGradient id="paint5_radial_6839_94071" cx="0" cy="0" r="1" gradientUnits="userSpaceOnUse" gradientTransform="translate(88.68 21.36) rotate(12.4717) scale(69.6432 85.4148)">
<stop stop-color="#00C4CC"/>
<stop offset="1" stop-color="#00C4CC" stop-opacity="0"/>
</radialGradient>
<linearGradient id="paint6_linear_6839_94071" x1="168" y1="0" x2="168" y2="22.575" gradientUnits="userSpaceOnUse">
<stop stop-color="#EFF5FD" stop-opacity="0"/>
<stop offset="1" stop-color="#EFF5FD"/>
</linearGradient>
<clipPath id="clip0_6839_94071">
<rect width="1366" height="768" rx="4" fill="white"/>
</clipPath>
<clipPath id="clip1_6839_94071">
<rect width="264" height="768" fill="white" transform="translate(65)"/>
</clipPath>
</defs>
</svg>
