<svg width="375" height="768" viewBox="0 0 375 768" fill="none" xmlns="http://www.w3.org/2000/svg">
<g clip-path="url(#clip0_6839_95685)">
<rect width="375" height="768" fill="#2B3B4A" fill-opacity="0.3"/>
<g filter="url(#filter0_dd_6839_95685)">
<g clip-path="url(#clip1_6839_95685)">
<path d="M0 56C0 49.3726 5.37258 44 12 44H363C369.627 44 375 49.3726 375 56V768H0V56Z" fill="white"/>
<rect width="375" height="16" transform="translate(0 44)" fill="white"/>
<g clip-path="url(#clip2_6839_95685)">
<mask id="mask0_6839_95685" style="mask-type:alpha" maskUnits="userSpaceOnUse" x="0" y="662" width="375" height="72">
<rect y="662" width="30" height="72" fill="url(#paint0_linear_6839_95685)"/>
<rect x="30" y="662" width="315" height="72" fill="#D9D9D9"/>
<rect x="345" y="662" width="30" height="72" fill="url(#paint1_linear_6839_95685)"/>
</mask>
<g mask="url(#mask0_6839_95685)">
<g filter="url(#filter1_dd_6839_95685)">
<path d="M20 680C20 675.582 23.5817 672 28 672H44C48.4183 672 52 675.582 52 680V696C52 700.418 48.4183 704 44 704H28C23.5817 704 20 700.418 20 696V680Z" fill="white"/>
<path fill-rule="evenodd" clip-rule="evenodd" d="M27 687.325C27 683.735 27 681.94 27.9661 680.714C28.1851 680.436 28.4362 680.185 28.7141 679.966C29.9395 679 31.7347 679 35.325 679H36.675C40.2653 679 42.0605 679 43.2859 679.966C43.5638 680.185 43.8149 680.436 44.0339 680.714C45 681.94 45 683.735 45 687.325V688.675C45 692.265 45 694.06 44.0339 695.286C43.8149 695.564 43.5638 695.815 43.2859 696.034C42.0605 697 40.2653 697 36.675 697H35.325C31.7347 697 29.9395 697 28.7141 696.034C28.4362 695.815 28.1851 695.564 27.9661 695.286C27 694.06 27 692.265 27 688.675V687.325ZM35.325 680.5H36.675C36.9642 680.5 37.2389 680.5 37.5 680.501L37.5 695.499C37.2389 695.5 36.9642 695.5 36.675 695.5H35.325C33.4942 695.5 32.2492 695.498 31.304 695.389C30.3901 695.284 29.9479 695.097 29.6427 694.856C29.4575 694.71 29.2901 694.543 29.144 694.357C28.9035 694.052 28.716 693.61 28.611 692.696C28.5023 691.751 28.5 690.506 28.5 688.675V687.325C28.5 685.494 28.5023 684.249 28.611 683.304C28.716 682.39 28.9035 681.948 29.144 681.643C29.2901 681.457 29.4575 681.29 29.6427 681.144C29.9479 680.903 30.3901 680.716 31.304 680.611C32.2492 680.502 33.4942 680.5 35.325 680.5ZM39 695.486C39.6661 695.472 40.2192 695.444 40.696 695.389C41.6099 695.284 42.0521 695.097 42.3573 694.856C42.5425 694.71 42.7099 694.543 42.856 694.357C43.0965 694.052 43.284 693.61 43.389 692.696C43.4977 691.751 43.5 690.506 43.5 688.675V687.325C43.5 687.221 43.5 687.119 43.5 687.018H39L39 695.486ZM43.4938 685.518C43.4837 684.614 43.4575 683.899 43.389 683.304C43.284 682.39 43.0965 681.948 42.856 681.643C42.7099 681.457 42.5425 681.29 42.3573 681.144C42.0521 680.903 41.6099 680.716 40.696 680.611C40.2192 680.556 39.6661 680.528 39 680.514V685.518H43.4938Z" fill="#0E1318" fill-opacity="0.7"/>
</g>
<path d="M21.627 712.147C22.8695 712.147 23.8273 712.475 24.5005 713.13C25.1737 713.786 25.5103 714.767 25.5103 716.074C25.5103 717.377 25.1737 718.358 24.5005 719.017C23.8273 719.672 22.8695 720 21.627 720H18.9468V712.147H21.627ZM21.5356 718.953C22.1336 718.953 22.6278 718.858 23.0181 718.668C23.4119 718.478 23.7091 718.172 23.9097 717.75C24.1138 717.323 24.2158 716.765 24.2158 716.074C24.2158 715.379 24.1138 714.82 23.9097 714.398C23.7091 713.975 23.4119 713.669 23.0181 713.479C22.6278 713.286 22.1336 713.189 21.5356 713.189H20.1821V718.953H21.5356ZM31.9717 717.304H28.0293C28.0973 718.493 28.6488 719.087 29.6836 719.087C30.0667 719.087 30.3747 719.019 30.6074 718.883C30.8438 718.743 31.0299 718.528 31.166 718.238H31.2788L32.0576 718.722C31.875 719.144 31.5903 719.483 31.2036 719.737C30.8205 719.987 30.3138 720.113 29.6836 720.113C29.0928 720.113 28.5825 719.998 28.1528 719.769C27.7231 719.54 27.3919 719.196 27.1592 718.738C26.9264 718.279 26.8101 717.714 26.8101 717.041C26.8101 716.367 26.9318 715.8 27.1753 715.338C27.4188 714.876 27.7518 714.532 28.1743 714.307C28.5968 714.077 29.0731 713.963 29.603 713.963C30.4015 713.963 31.0174 714.181 31.4507 714.618C31.8875 715.055 32.1077 715.698 32.1113 716.546C32.1113 716.865 32.1024 717.096 32.0845 717.239L31.9717 717.304ZM30.9673 716.46C30.953 715.92 30.8294 715.526 30.5967 715.279C30.3675 715.032 30.0363 714.908 29.603 714.908C29.1662 714.908 28.8153 715.032 28.5503 715.279C28.2889 715.526 28.1242 715.92 28.0562 716.46H30.9673ZM35.3394 720.113C34.9526 720.113 34.5946 720.064 34.2651 719.968C33.9393 719.871 33.6618 719.739 33.4326 719.57C33.207 719.398 33.0423 719.205 32.9385 718.99L33.6099 718.276H33.7227C34.113 718.838 34.6536 719.119 35.3447 719.119C35.7064 719.119 35.9803 719.051 36.1665 718.915C36.3563 718.775 36.4512 718.582 36.4512 718.335C36.4512 718.142 36.3885 717.982 36.2632 717.857C36.1414 717.728 35.9463 717.631 35.6777 717.567L34.7861 717.347C34.2275 717.214 33.8175 717.007 33.5562 716.724C33.2983 716.437 33.1694 716.081 33.1694 715.655C33.1694 715.307 33.2572 715.007 33.4326 714.752C33.6117 714.498 33.8641 714.303 34.1899 714.167C34.5158 714.031 34.8989 713.963 35.3394 713.963C35.88 713.963 36.3151 714.04 36.6445 714.194C36.9775 714.344 37.2371 714.552 37.4233 714.817L36.7788 715.488H36.6714C36.4959 715.284 36.299 715.137 36.0806 715.048C35.8657 714.958 35.6187 714.914 35.3394 714.914C34.992 714.914 34.7306 714.973 34.5552 715.091C34.3797 715.205 34.292 715.374 34.292 715.596C34.292 715.793 34.3564 715.952 34.4854 716.074C34.6143 716.195 34.8381 716.294 35.1567 716.369L36.0161 716.568C36.5747 716.693 36.9793 716.897 37.23 717.18C37.4842 717.463 37.6113 717.832 37.6113 718.287C37.6113 718.648 37.5236 718.967 37.3481 719.243C37.1727 719.515 36.9149 719.728 36.5747 719.882C36.2345 720.036 35.8228 720.113 35.3394 720.113ZM39.6147 713.146C39.3892 713.146 39.2048 713.077 39.0615 712.937C38.9183 712.797 38.8467 712.618 38.8467 712.4C38.8467 712.185 38.9183 712.008 39.0615 711.868C39.2048 711.729 39.3892 711.659 39.6147 711.659C39.8403 711.659 40.0247 711.729 40.168 711.868C40.3148 712.008 40.3882 712.185 40.3882 712.4C40.3882 712.618 40.3166 712.797 40.1733 712.937C40.0301 713.077 39.8439 713.146 39.6147 713.146ZM39.0239 720V714.076H40.2056V720H39.0239ZM44.2124 722.514C43.2563 722.514 42.5545 722.363 42.1069 722.062C41.6593 721.765 41.4355 721.361 41.4355 720.849C41.4355 720.526 41.5358 720.265 41.7363 720.064C41.9368 719.864 42.2251 719.726 42.6011 719.651V719.538C42.4113 719.427 42.2716 719.3 42.1821 719.157C42.0926 719.01 42.0479 718.84 42.0479 718.646C42.0479 718.185 42.3468 717.877 42.9448 717.723V717.61C42.3003 717.255 41.978 716.702 41.978 715.95C41.978 715.56 42.0675 715.214 42.2466 714.914C42.4256 714.613 42.6834 714.38 43.02 714.215C43.3566 714.047 43.7559 713.963 44.2178 713.963C44.7119 713.963 45.1165 714.06 45.4316 714.253C45.6393 713.995 45.7593 713.678 45.7915 713.302L45.9043 713.232L46.7959 713.447C46.7637 713.737 46.6777 713.984 46.5381 714.188C46.3984 714.389 46.1925 714.559 45.9204 714.699V714.817C46.2749 715.107 46.4521 715.517 46.4521 716.047C46.4521 716.416 46.3608 716.749 46.1782 717.046C45.9992 717.34 45.7396 717.57 45.3994 717.739C45.0628 717.907 44.6689 717.991 44.2178 717.991C44.1784 717.991 44.0942 717.988 43.9653 717.98C43.8221 717.973 43.7201 717.97 43.6592 717.97C43.498 717.97 43.3709 718.013 43.2778 718.099C43.1847 718.185 43.1382 718.294 43.1382 718.426C43.1382 718.58 43.1919 718.697 43.2993 718.775C43.4103 718.854 43.584 718.899 43.8203 718.91L45.1846 718.958C46.4342 718.997 47.0591 719.535 47.0591 720.569C47.0591 720.938 46.9624 721.268 46.769 721.558C46.5757 721.851 46.266 722.084 45.8398 722.256C45.4173 722.428 44.8748 722.514 44.2124 722.514ZM44.2178 717.094C44.5687 717.094 44.8408 716.998 45.0342 716.804C45.2311 716.611 45.3296 716.337 45.3296 715.982C45.3296 715.624 45.2329 715.349 45.0396 715.155C44.8462 714.958 44.5723 714.86 44.2178 714.86C43.8597 714.86 43.5858 714.957 43.396 715.15C43.2062 715.343 43.1113 715.621 43.1113 715.982C43.1113 716.337 43.2062 716.611 43.396 716.804C43.5858 716.998 43.8597 717.094 44.2178 717.094ZM44.2124 721.601C44.7889 721.601 45.2078 721.513 45.4692 721.337C45.7342 721.166 45.8667 720.947 45.8667 720.682C45.8667 720.457 45.7987 720.294 45.6626 720.193C45.5301 720.093 45.3045 720.036 44.9858 720.021L43.7397 719.957L43.541 719.952C43.2223 719.955 42.986 720.021 42.832 720.15C42.6781 720.283 42.6011 720.464 42.6011 720.693C42.6011 720.99 42.7354 721.216 43.0039 721.37C43.2725 721.524 43.6753 721.601 44.2124 721.601ZM48.2192 720V714.076H49.3472V714.973L49.46 715C49.6497 714.659 49.895 714.402 50.1958 714.226C50.4966 714.051 50.8636 713.963 51.2969 713.963C51.9951 713.963 52.5036 714.147 52.8223 714.516C53.1445 714.881 53.3057 715.431 53.3057 716.165V720H52.124V716.267C52.124 715.805 52.0327 715.474 51.8501 715.273C51.6675 715.073 51.3739 714.973 50.9692 714.973C50.4858 714.973 50.1027 715.13 49.8198 715.445C49.5405 715.76 49.4009 716.26 49.4009 716.944V720H48.2192Z" fill="#0E1318" fill-opacity="0.7"/>
<line y1="662.5" x2="375" y2="662.5" stroke="#394C60" stroke-opacity="0.15"/>
<g filter="url(#filter2_dd_6839_95685)">
<path d="M92 680C92 675.582 95.5817 672 100 672H116C120.418 672 124 675.582 124 680V696C124 700.418 120.418 704 116 704H100C95.5817 704 92 700.418 92 696V680Z" fill="white"/>
<path fill-rule="evenodd" clip-rule="evenodd" d="M102.549 687.242C102.771 687.361 103.015 687.42 103.259 687.42C103.503 687.42 103.747 687.361 103.969 687.241L103.972 687.24L103.976 687.238L103.985 687.233L104.012 687.218C104.033 687.206 104.061 687.19 104.096 687.17C104.164 687.13 104.258 687.074 104.371 687.002C104.595 686.859 104.9 686.651 105.236 686.383C105.874 685.872 106.714 685.071 107.262 684.008C107.53 683.559 107.685 683.032 107.685 682.474C107.685 680.822 106.345 679.483 104.694 679.483C104.173 679.483 103.684 679.616 103.259 679.849C102.833 679.616 102.344 679.483 101.824 679.483C100.172 679.483 98.8325 680.822 98.8325 682.474C98.8325 682.993 98.9657 683.484 99.2007 683.912C99.7418 685.014 100.603 685.841 101.256 686.365C101.598 686.64 101.91 686.852 102.14 686.998C102.255 687.072 102.351 687.129 102.421 687.17C102.456 687.19 102.485 687.207 102.507 687.219L102.534 687.234L102.543 687.239L102.547 687.241L102.549 687.242ZM100.531 683.217C100.882 683.948 101.448 684.557 101.974 685.011C102.395 685.375 102.791 685.638 103.029 685.785C103.172 685.874 103.259 685.92 103.259 685.92C103.259 685.92 103.345 685.874 103.488 685.785C103.726 685.638 104.121 685.373 104.542 685.009C105.052 684.567 105.6 683.979 105.952 683.275C106.099 683.043 106.185 682.769 106.185 682.474C106.185 681.651 105.517 680.983 104.694 680.983C104.604 680.983 104.516 680.991 104.43 681.006C103.866 681.107 103.412 681.524 103.259 682.067C103.105 681.524 102.651 681.107 102.087 681.006C102.002 680.991 101.914 680.983 101.824 680.983C101 680.983 100.333 681.65 100.333 682.474C100.333 682.745 100.405 682.998 100.531 683.217Z" fill="#0E1318" fill-opacity="0.7"/>
<path fill-rule="evenodd" clip-rule="evenodd" d="M113.536 680.011C113.141 679.33 112.157 679.33 111.761 680.011L108.454 685.705C108.057 686.39 108.551 687.247 109.342 687.247H115.956C116.747 687.247 117.241 686.39 116.843 685.705L113.536 680.011ZM112.649 681.47L110.164 685.747H115.133L112.649 681.47Z" fill="#0E1318" fill-opacity="0.7"/>
<path fill-rule="evenodd" clip-rule="evenodd" d="M116.861 693.168C116.861 695.495 114.975 697.381 112.649 697.381C110.322 697.381 108.436 695.495 108.436 693.168C108.436 690.842 110.322 688.956 112.649 688.956C114.975 688.956 116.861 690.842 116.861 693.168ZM115.361 693.168C115.361 694.666 114.147 695.881 112.649 695.881C111.15 695.881 109.936 694.666 109.936 693.168C109.936 691.67 111.15 690.456 112.649 690.456C114.147 690.456 115.361 691.67 115.361 693.168Z" fill="#0E1318" fill-opacity="0.7"/>
<path fill-rule="evenodd" clip-rule="evenodd" d="M99.4063 690.086C99.4063 689.661 99.7509 689.316 100.176 689.316H106.317C106.742 689.316 107.086 689.661 107.086 690.086V696.38C107.086 696.72 106.811 696.996 106.471 696.996H100.176C99.7509 696.996 99.4063 696.651 99.4063 696.226V690.086ZM100.906 695.496V690.816H105.586V695.496H100.906Z" fill="#0E1318" fill-opacity="0.7"/>
</g>
<path d="M91.8706 712.147C93.1131 712.147 94.071 712.475 94.7441 713.13C95.4173 713.786 95.7539 714.767 95.7539 716.074C95.7539 717.377 95.4173 718.358 94.7441 719.017C94.071 719.672 93.1131 720 91.8706 720H89.1904V712.147H91.8706ZM91.7793 718.953C92.3773 718.953 92.8714 718.858 93.2617 718.668C93.6556 718.478 93.9528 718.172 94.1533 717.75C94.3574 717.323 94.4595 716.765 94.4595 716.074C94.4595 715.379 94.3574 714.82 94.1533 714.398C93.9528 713.975 93.6556 713.669 93.2617 713.479C92.8714 713.286 92.3773 713.189 91.7793 713.189H90.4258V718.953H91.7793ZM102.215 717.304H98.2729C98.341 718.493 98.8924 719.087 99.9272 719.087C100.31 719.087 100.618 719.019 100.851 718.883C101.087 718.743 101.274 718.528 101.41 718.238H101.522L102.301 718.722C102.119 719.144 101.834 719.483 101.447 719.737C101.064 719.987 100.557 720.113 99.9272 720.113C99.3364 720.113 98.8262 719.998 98.3965 719.769C97.9668 719.54 97.6356 719.196 97.4028 718.738C97.1701 718.279 97.0537 717.714 97.0537 717.041C97.0537 716.367 97.1755 715.8 97.4189 715.338C97.6624 714.876 97.9954 714.532 98.418 714.307C98.8405 714.077 99.3167 713.963 99.8467 713.963C100.645 713.963 101.261 714.181 101.694 714.618C102.131 715.055 102.351 715.698 102.355 716.546C102.355 716.865 102.346 717.096 102.328 717.239L102.215 717.304ZM101.211 716.46C101.197 715.92 101.073 715.526 100.84 715.279C100.611 715.032 100.28 714.908 99.8467 714.908C99.4098 714.908 99.0589 715.032 98.7939 715.279C98.5326 715.526 98.3678 715.92 98.2998 716.46H101.211ZM104.025 720V715.021H103.091V714.07H104.025C103.961 713.805 103.929 713.565 103.929 713.351C103.929 712.971 104.013 712.649 104.181 712.384C104.349 712.119 104.586 711.92 104.89 711.788C105.198 711.652 105.558 711.583 105.97 711.583C106.593 711.583 107.064 711.703 107.382 711.943L107.039 712.797L106.926 712.819C106.697 712.647 106.403 712.561 106.045 712.561C105.737 712.561 105.504 712.64 105.347 712.797C105.193 712.951 105.116 713.166 105.116 713.442C105.116 713.646 105.146 713.855 105.207 714.07H106.996V715.021H105.207V720H104.025ZM109.423 720.113C108.843 720.113 108.389 719.959 108.059 719.651C107.73 719.339 107.565 718.899 107.565 718.33C107.565 717.979 107.638 717.683 107.785 717.443C107.932 717.203 108.161 717.008 108.473 716.858C108.784 716.704 109.189 716.586 109.687 716.503C110.077 716.439 110.374 716.367 110.578 716.289C110.782 716.21 110.92 716.122 110.992 716.025C111.063 715.925 111.099 715.8 111.099 715.649C111.099 715.42 111.019 715.245 110.857 715.123C110.7 715.001 110.442 714.94 110.084 714.94C109.407 714.94 108.833 715.222 108.36 715.784H108.252L107.726 715.01C108.002 714.684 108.344 714.428 108.752 714.242C109.164 714.056 109.62 713.963 110.122 713.963C110.863 713.963 111.403 714.122 111.744 714.441C112.087 714.76 112.259 715.207 112.259 715.784V718.641C112.259 718.938 112.386 719.087 112.641 719.087C112.734 719.087 112.823 719.071 112.909 719.039L112.984 719.06L113.086 719.882C113.015 719.932 112.915 719.971 112.786 720C112.66 720.029 112.526 720.043 112.383 720.043C112.043 720.043 111.781 719.973 111.599 719.833C111.42 719.694 111.296 719.481 111.228 719.194L111.115 719.184C110.958 719.495 110.739 719.728 110.46 719.882C110.184 720.036 109.839 720.113 109.423 720.113ZM109.756 719.205C110.032 719.205 110.274 719.142 110.481 719.017C110.689 718.888 110.848 718.706 110.959 718.469C111.07 718.233 111.126 717.955 111.126 717.637V716.96L111.024 716.938C110.913 717.021 110.773 717.091 110.605 717.148C110.44 717.202 110.204 717.254 109.896 717.304C109.481 717.365 109.185 717.474 109.01 717.631C108.838 717.785 108.752 718.004 108.752 718.287C108.752 718.587 108.84 718.817 109.015 718.974C109.191 719.128 109.438 719.205 109.756 719.205ZM116.051 720.113C115.385 720.113 114.891 719.934 114.569 719.576C114.247 719.214 114.085 718.693 114.085 718.013V714.076H115.267V717.905C115.267 718.313 115.358 718.616 115.541 718.813C115.727 719.006 116.007 719.103 116.379 719.103C116.852 719.103 117.222 718.947 117.491 718.636C117.763 718.324 117.899 717.826 117.899 717.143V714.076H119.081V720H117.953V719.098L117.84 719.071C117.643 719.422 117.405 719.683 117.125 719.855C116.846 720.027 116.488 720.113 116.051 720.113ZM122.443 720.113C121.967 720.113 121.598 719.982 121.336 719.721C121.075 719.456 120.944 719.058 120.944 718.528V711.696H122.126V718.469C122.126 718.688 122.169 718.845 122.255 718.942C122.341 719.039 122.472 719.087 122.647 719.087C122.747 719.087 122.855 719.071 122.969 719.039L123.044 719.06L123.163 719.973C123.087 720.02 122.985 720.054 122.856 720.075C122.731 720.1 122.593 720.113 122.443 720.113ZM127.4 718.824L127.733 719.688C127.583 719.825 127.39 719.928 127.153 720C126.917 720.075 126.656 720.113 126.369 720.113C125.775 720.113 125.322 719.955 125.01 719.64C124.699 719.325 124.543 718.854 124.543 718.228V715.021H123.576V714.07H124.543V712.867L125.725 712.674V714.07H127.519V715.021H125.725V718.131C125.725 718.46 125.793 718.698 125.929 718.845C126.068 718.992 126.267 719.065 126.525 719.065C126.815 719.065 127.069 718.985 127.288 718.824H127.4Z" fill="#0E1318" fill-opacity="0.7"/>
<g filter="url(#filter3_dd_6839_95685)">
<path d="M164 680C164 675.582 167.582 672 172 672H188C192.418 672 196 675.582 196 680V696C196 700.418 192.418 704 188 704H172C167.582 704 164 700.418 164 696V680Z" fill="white"/>
<path d="M172.266 681.792C172.266 680.964 172.937 680.292 173.766 680.292H186.234C187.063 680.292 187.734 680.964 187.734 681.792V683.642C187.734 684.056 187.399 684.392 186.984 684.392C186.57 684.392 186.234 684.056 186.234 683.642V682.292C186.234 682.016 186.011 681.792 185.734 681.792L180.75 681.792V693.73C180.75 694.007 180.974 694.23 181.25 694.23H183.125C183.539 694.23 183.875 694.566 183.875 694.98C183.875 695.395 183.539 695.73 183.125 695.73H176.875C176.461 695.73 176.125 695.395 176.125 694.98C176.125 694.566 176.461 694.23 176.875 694.23H178.75C179.026 694.23 179.25 694.007 179.25 693.73V681.792L174.266 681.792C173.989 681.792 173.766 682.016 173.766 682.292V683.67C173.766 684.084 173.43 684.42 173.016 684.42C172.601 684.42 172.266 684.084 172.266 683.67V681.792Z" fill="#0E1318" fill-opacity="0.7"/>
</g>
<path d="M175.128 712.147V713.189H172.765V720H171.53V713.189H169.167V712.147H175.128ZM180.371 717.304H176.428C176.496 718.493 177.048 719.087 178.083 719.087C178.466 719.087 178.774 719.019 179.006 718.883C179.243 718.743 179.429 718.528 179.565 718.238H179.678L180.457 718.722C180.274 719.144 179.989 719.483 179.603 719.737C179.219 719.987 178.713 720.113 178.083 720.113C177.492 720.113 176.981 719.998 176.552 719.769C176.122 719.54 175.791 719.196 175.558 718.738C175.325 718.279 175.209 717.714 175.209 717.041C175.209 716.367 175.331 715.8 175.574 715.338C175.818 714.876 176.151 714.532 176.573 714.307C176.996 714.077 177.472 713.963 178.002 713.963C178.8 713.963 179.416 714.181 179.85 714.618C180.286 715.055 180.507 715.698 180.51 716.546C180.51 716.865 180.501 717.096 180.483 717.239L180.371 717.304ZM179.366 716.46C179.352 715.92 179.228 715.526 178.996 715.279C178.766 715.032 178.435 714.908 178.002 714.908C177.565 714.908 177.214 715.032 176.949 715.279C176.688 715.526 176.523 715.92 176.455 716.46H179.366ZM182.358 720H181.09L182.852 716.928L181.182 714.076H182.471L183.668 716.187H183.792L184.995 714.076H186.236L184.614 716.928L186.327 720H185.043L183.754 717.664H183.631L182.358 720ZM190.57 718.824L190.903 719.688C190.753 719.825 190.56 719.928 190.323 720C190.087 720.075 189.826 720.113 189.539 720.113C188.945 720.113 188.492 719.955 188.18 719.64C187.869 719.325 187.713 718.854 187.713 718.228V715.021H186.746V714.07H187.713V712.867L188.895 712.674V714.07H190.688V715.021H188.895V718.131C188.895 718.46 188.963 718.698 189.099 718.845C189.238 718.992 189.437 719.065 189.695 719.065C189.985 719.065 190.239 718.985 190.458 718.824H190.57Z" fill="#0E1318" fill-opacity="0.7"/>
<g filter="url(#filter4_dd_6839_95685)">
<path d="M236 680C236 675.582 239.582 672 244 672H260C264.418 672 268 675.582 268 680V696C268 700.418 264.418 704 260 704H244C239.582 704 236 700.418 236 696V680Z" fill="white"/>
<path d="M249.096 681.927L250.642 680.63C251.451 679.951 252.564 679.872 253.439 680.346L253.581 680.295C254.15 680.088 254.73 679.98 255.304 679.964C253.883 678.281 251.366 678.064 249.677 679.481L244.975 683.427L249.096 681.927Z" fill="#0E1318" fill-opacity="0.7"/>
<path fill-rule="evenodd" clip-rule="evenodd" d="M251.835 691.455C251.835 689.965 253.043 688.757 254.533 688.757C256.022 688.757 257.23 689.965 257.23 691.455C257.23 692.944 256.022 694.152 254.533 694.152C253.043 694.152 251.835 692.944 251.835 691.455ZM254.533 690.007C253.733 690.007 253.085 690.655 253.085 691.455C253.085 692.254 253.733 692.902 254.533 692.902C255.332 692.902 255.98 692.254 255.98 691.455C255.98 690.655 255.332 690.007 254.533 690.007Z" fill="#0E1318" fill-opacity="0.7"/>
<path d="M248.02 691.455C248.02 690.655 248.668 690.007 249.467 690.007C249.792 690.007 250.09 690.114 250.331 690.293C250.608 690.499 250.999 690.442 251.206 690.166C251.412 689.889 251.355 689.497 251.078 689.291C250.628 688.956 250.07 688.757 249.467 688.757C247.978 688.757 246.77 689.965 246.77 691.455C246.77 692.944 247.978 694.152 249.467 694.152C250.063 694.152 250.615 693.958 251.061 693.631C251.34 693.427 251.4 693.036 251.196 692.757C250.992 692.479 250.6 692.419 250.322 692.623C250.083 692.799 249.788 692.902 249.467 692.902C248.668 692.902 248.02 692.254 248.02 691.455Z" fill="#0E1318" fill-opacity="0.7"/>
<path fill-rule="evenodd" clip-rule="evenodd" d="M247 685.455C244.791 685.455 243 687.245 243 689.455V693.455C243 695.664 244.791 697.455 247 697.455H257C259.209 697.455 261 695.664 261 693.455V689.455C261 687.245 259.209 685.455 257 685.455H247ZM257 686.955H247C245.619 686.955 244.5 688.074 244.5 689.455V693.455C244.5 694.835 245.619 695.955 247 695.955H257C258.381 695.955 259.5 694.835 259.5 693.455V689.455C259.5 688.074 258.381 686.955 257 686.955Z" fill="#0E1318" fill-opacity="0.7"/>
<path d="M254.607 683.114L252.297 683.955H247.911L254.094 681.704C256.17 680.949 258.466 682.019 259.221 684.095L259.364 684.487C258.782 684.21 258.144 684.032 257.472 683.975C256.83 683.107 255.673 682.726 254.607 683.114Z" fill="#0E1318" fill-opacity="0.7"/>
</g>
<path d="M236.961 720V712.147H240.125C240.608 712.147 241.018 712.224 241.354 712.378C241.691 712.529 241.944 712.745 242.112 713.028C242.284 713.311 242.37 713.648 242.37 714.038C242.37 714.382 242.28 714.69 242.101 714.962C241.926 715.23 241.673 715.444 241.344 715.601V715.714C241.852 715.843 242.241 716.077 242.509 716.417C242.781 716.758 242.917 717.18 242.917 717.685C242.917 718.426 242.697 718.997 242.257 719.398C241.816 719.799 241.163 720 240.296 720H236.961ZM239.942 715.359C240.339 715.359 240.642 715.263 240.85 715.069C241.061 714.872 241.167 714.593 241.167 714.231C241.167 713.483 240.758 713.109 239.942 713.109H238.196V715.359H239.942ZM240.184 719.001C241.168 719.001 241.661 718.555 241.661 717.664C241.661 716.768 241.168 716.321 240.184 716.321H238.196V719.001H240.184ZM244.427 720V714.076H245.565V714.978L245.678 715.005C245.821 714.665 246.017 714.416 246.264 714.258C246.511 714.101 246.81 714.022 247.161 714.022C247.537 714.022 247.816 714.086 247.999 714.215L247.762 715.23L247.649 715.252C247.549 715.205 247.447 715.171 247.343 715.15C247.239 715.125 247.119 715.112 246.983 715.112C246.539 715.112 246.199 715.273 245.963 715.596C245.727 715.918 245.608 716.439 245.608 717.159V720H244.427ZM250.362 720.113C249.782 720.113 249.327 719.959 248.998 719.651C248.668 719.339 248.503 718.899 248.503 718.33C248.503 717.979 248.577 717.683 248.724 717.443C248.87 717.203 249.1 717.008 249.411 716.858C249.723 716.704 250.127 716.586 250.625 716.503C251.015 716.439 251.312 716.367 251.517 716.289C251.721 716.21 251.859 716.122 251.93 716.025C252.002 715.925 252.038 715.8 252.038 715.649C252.038 715.42 251.957 715.245 251.796 715.123C251.638 715.001 251.381 714.94 251.022 714.94C250.346 714.94 249.771 715.222 249.298 715.784H249.191L248.665 715.01C248.94 714.684 249.282 714.428 249.69 714.242C250.102 714.056 250.559 713.963 251.06 713.963C251.801 713.963 252.342 714.122 252.682 714.441C253.026 714.76 253.198 715.207 253.198 715.784V718.641C253.198 718.938 253.325 719.087 253.579 719.087C253.672 719.087 253.762 719.071 253.848 719.039L253.923 719.06L254.025 719.882C253.953 719.932 253.853 719.971 253.724 720C253.599 720.029 253.465 720.043 253.321 720.043C252.981 720.043 252.72 719.973 252.537 719.833C252.358 719.694 252.235 719.481 252.167 719.194L252.054 719.184C251.896 719.495 251.678 719.728 251.398 719.882C251.123 720.036 250.777 720.113 250.362 720.113ZM250.695 719.205C250.971 719.205 251.212 719.142 251.42 719.017C251.628 718.888 251.787 718.706 251.898 718.469C252.009 718.233 252.064 717.955 252.064 717.637V716.96L251.962 716.938C251.851 717.021 251.712 717.091 251.543 717.148C251.379 717.202 251.142 717.254 250.834 717.304C250.419 717.365 250.124 717.474 249.948 717.631C249.776 717.785 249.69 718.004 249.69 718.287C249.69 718.587 249.778 718.817 249.954 718.974C250.129 719.128 250.376 719.205 250.695 719.205ZM255.115 720V714.076H256.243V714.973L256.356 715C256.546 714.659 256.791 714.402 257.092 714.226C257.393 714.051 257.76 713.963 258.193 713.963C258.891 713.963 259.4 714.147 259.718 714.516C260.041 714.881 260.202 715.431 260.202 716.165V720H259.02V716.267C259.02 715.805 258.929 715.474 258.746 715.273C258.563 715.073 258.27 714.973 257.865 714.973C257.382 714.973 256.999 715.13 256.716 715.445C256.437 715.76 256.297 716.26 256.297 716.944V720H255.115ZM264.058 720.113C263.585 720.113 263.167 720 262.801 719.774C262.44 719.545 262.157 719.201 261.953 718.743C261.749 718.285 261.646 717.717 261.646 717.041C261.646 716.364 261.752 715.796 261.963 715.338C262.178 714.876 262.472 714.532 262.844 714.307C263.22 714.077 263.653 713.963 264.144 713.963C264.527 713.963 264.866 714.033 265.159 714.172C265.453 714.308 265.702 714.529 265.906 714.833L266.019 714.806V711.696H267.2V720H266.019V719.184L265.906 719.162C265.723 719.449 265.478 719.68 265.17 719.855C264.862 720.027 264.491 720.113 264.058 720.113ZM264.434 719.087C264.921 719.087 265.308 718.919 265.594 718.582C265.881 718.242 266.024 717.728 266.024 717.041C266.024 716.346 265.881 715.83 265.594 715.494C265.308 715.153 264.921 714.983 264.434 714.983C263.392 714.983 262.871 715.669 262.871 717.041C262.871 718.405 263.392 719.087 264.434 719.087Z" fill="#0E1318" fill-opacity="0.7"/>
<g filter="url(#filter5_dd_6839_95685)">
<path d="M308 680C308 675.582 311.582 672 316 672H332C336.418 672 340 675.582 340 680V696C340 700.418 336.418 704 332 704H316C311.582 704 308 700.418 308 696V680Z" fill="white"/>
<path d="M323.241 678.984C320.505 678.984 318.199 681.06 317.924 683.773C317.917 683.847 317.864 683.912 317.801 683.935C315.623 684.744 314.069 686.842 314.069 689.305C314.069 692.467 316.633 695.031 319.795 695.031C322.958 695.031 325.522 692.467 325.522 689.305V688.818L327.304 690.601C327.597 690.894 328.072 690.894 328.365 690.601C328.658 690.308 328.658 689.833 328.365 689.54L325.302 686.477C325.009 686.185 324.535 686.185 324.242 686.477L321.179 689.54C320.886 689.833 320.886 690.308 321.179 690.601C321.472 690.894 321.947 690.894 322.24 690.601L324.022 688.818V689.305C324.022 691.639 322.13 693.531 319.795 693.531C317.461 693.531 315.569 691.639 315.569 689.305C315.569 687.489 316.714 685.939 318.324 685.341C318.93 685.116 319.352 684.56 319.416 683.924C319.614 681.982 321.271 680.484 323.241 680.484C325.134 680.484 326.709 681.857 327.026 683.659C327.161 684.422 327.806 685.025 328.589 685.09C330.735 685.267 332.444 687.104 332.444 689.305C332.444 691.639 330.552 693.531 328.217 693.531H326.303C325.889 693.531 325.553 693.867 325.553 694.281C325.553 694.695 325.889 695.031 326.303 695.031H328.217C331.38 695.031 333.944 692.467 333.944 689.305C333.944 686.326 331.639 683.836 328.713 683.595C328.62 683.587 328.522 683.501 328.504 683.399C328.063 680.894 325.876 678.984 323.241 678.984Z" fill="#0E1318" fill-opacity="0.7"/>
</g>
<path d="M305.996 720.113C304.972 720.113 304.206 719.862 303.697 719.361C303.189 718.86 302.935 718.117 302.935 717.132V712.147H304.154V717.121C304.154 717.751 304.306 718.224 304.61 718.539C304.915 718.854 305.377 719.012 305.996 719.012C307.221 719.012 307.833 718.382 307.833 717.121V712.147H309.052V717.132C309.052 718.117 308.798 718.86 308.29 719.361C307.781 719.862 307.017 720.113 305.996 720.113ZM311.05 722.401V714.076H312.232V714.903L312.345 714.924C312.545 714.598 312.801 714.357 313.113 714.199C313.424 714.042 313.781 713.963 314.182 713.963C314.669 713.963 315.093 714.076 315.455 714.301C315.816 714.527 316.097 714.871 316.298 715.333C316.498 715.791 316.599 716.36 316.599 717.041C316.599 717.717 316.491 718.285 316.276 718.743C316.065 719.201 315.771 719.545 315.396 719.774C315.023 720 314.592 720.113 314.101 720.113C313.718 720.113 313.381 720.047 313.091 719.914C312.801 719.782 312.552 719.57 312.345 719.28L312.232 719.302V722.401H311.05ZM313.795 719.087C314.307 719.087 314.697 718.924 314.966 718.598C315.238 718.269 315.374 717.75 315.374 717.041C315.374 716.328 315.238 715.807 314.966 715.478C314.697 715.148 314.307 714.983 313.795 714.983C313.319 714.983 312.937 715.153 312.651 715.494C312.364 715.834 312.221 716.349 312.221 717.041C312.221 717.728 312.364 718.242 312.651 718.582C312.937 718.919 313.319 719.087 313.795 719.087ZM319.606 720.113C319.13 720.113 318.761 719.982 318.5 719.721C318.239 719.456 318.108 719.058 318.108 718.528V711.696H319.29V718.469C319.29 718.688 319.333 718.845 319.418 718.942C319.504 719.039 319.635 719.087 319.811 719.087C319.911 719.087 320.018 719.071 320.133 719.039L320.208 719.06L320.326 719.973C320.251 720.02 320.149 720.054 320.02 720.075C319.895 720.1 319.757 720.113 319.606 720.113ZM323.936 720.113C323.366 720.113 322.868 719.995 322.442 719.758C322.016 719.522 321.687 719.173 321.454 718.711C321.221 718.249 321.105 717.692 321.105 717.041C321.105 716.385 321.221 715.828 321.454 715.37C321.687 714.908 322.016 714.559 322.442 714.323C322.868 714.083 323.366 713.963 323.936 713.963C324.505 713.963 325.003 714.083 325.429 714.323C325.855 714.559 326.184 714.908 326.417 715.37C326.653 715.828 326.771 716.385 326.771 717.041C326.771 717.692 326.653 718.249 326.417 718.711C326.184 719.173 325.855 719.522 325.429 719.758C325.003 719.995 324.505 720.113 323.936 720.113ZM323.936 719.087C325.006 719.087 325.542 718.405 325.542 717.041C325.542 715.669 325.006 714.983 323.936 714.983C323.416 714.983 323.019 715.152 322.743 715.488C322.467 715.821 322.33 716.339 322.33 717.041C322.33 718.405 322.865 719.087 323.936 719.087ZM329.736 720.113C329.156 720.113 328.701 719.959 328.372 719.651C328.043 719.339 327.878 718.899 327.878 718.33C327.878 717.979 327.951 717.683 328.098 717.443C328.245 717.203 328.474 717.008 328.786 716.858C329.097 716.704 329.502 716.586 330 716.503C330.39 716.439 330.687 716.367 330.891 716.289C331.095 716.21 331.233 716.122 331.305 716.025C331.376 715.925 331.412 715.8 331.412 715.649C331.412 715.42 331.332 715.245 331.17 715.123C331.013 715.001 330.755 714.94 330.397 714.94C329.72 714.94 329.146 715.222 328.673 715.784H328.565L328.039 715.01C328.315 714.684 328.657 714.428 329.065 714.242C329.477 714.056 329.933 713.963 330.435 713.963C331.176 713.963 331.716 714.122 332.057 714.441C332.4 714.76 332.572 715.207 332.572 715.784V718.641C332.572 718.938 332.699 719.087 332.954 719.087C333.047 719.087 333.136 719.071 333.222 719.039L333.297 719.06L333.399 719.882C333.328 719.932 333.228 719.971 333.099 720C332.973 720.029 332.839 720.043 332.696 720.043C332.356 720.043 332.094 719.973 331.912 719.833C331.733 719.694 331.609 719.481 331.541 719.194L331.428 719.184C331.271 719.495 331.052 719.728 330.773 719.882C330.497 720.036 330.152 720.113 329.736 720.113ZM330.069 719.205C330.345 719.205 330.587 719.142 330.794 719.017C331.002 718.888 331.161 718.706 331.272 718.469C331.383 718.233 331.439 717.955 331.439 717.637V716.96L331.337 716.938C331.226 717.021 331.086 717.091 330.918 717.148C330.753 717.202 330.517 717.254 330.209 717.304C329.794 717.365 329.498 717.474 329.323 717.631C329.151 717.785 329.065 718.004 329.065 718.287C329.065 718.587 329.153 718.817 329.328 718.974C329.504 719.128 329.751 719.205 330.069 719.205ZM336.547 720.113C336.074 720.113 335.655 720 335.29 719.774C334.928 719.545 334.646 719.201 334.441 718.743C334.237 718.285 334.135 717.717 334.135 717.041C334.135 716.364 334.241 715.796 334.452 715.338C334.667 714.876 334.961 714.532 335.333 714.307C335.709 714.077 336.142 713.963 336.633 713.963C337.016 713.963 337.354 714.033 337.648 714.172C337.942 714.308 338.19 714.529 338.395 714.833L338.507 714.806V711.696H339.689V720H338.507V719.184L338.395 719.162C338.212 719.449 337.967 719.68 337.659 719.855C337.351 720.027 336.98 720.113 336.547 720.113ZM336.923 719.087C337.41 719.087 337.797 718.919 338.083 718.582C338.369 718.242 338.513 717.728 338.513 717.041C338.513 716.346 338.369 715.83 338.083 715.494C337.797 715.153 337.41 714.983 336.923 714.983C335.881 714.983 335.36 715.669 335.36 717.041C335.36 718.405 335.881 719.087 336.923 719.087ZM343.374 720.113C342.987 720.113 342.629 720.064 342.299 719.968C341.973 719.871 341.696 719.739 341.467 719.57C341.241 719.398 341.076 719.205 340.973 718.99L341.644 718.276H341.757C342.147 718.838 342.688 719.119 343.379 719.119C343.741 719.119 344.014 719.051 344.201 718.915C344.39 718.775 344.485 718.582 344.485 718.335C344.485 718.142 344.423 717.982 344.297 717.857C344.176 717.728 343.98 717.631 343.712 717.567L342.82 717.347C342.262 717.214 341.852 717.007 341.59 716.724C341.333 716.437 341.204 716.081 341.204 715.655C341.204 715.307 341.291 715.007 341.467 714.752C341.646 714.498 341.898 714.303 342.224 714.167C342.55 714.031 342.933 713.963 343.374 713.963C343.914 713.963 344.349 714.04 344.679 714.194C345.012 714.344 345.271 714.552 345.458 714.817L344.813 715.488H344.706C344.53 715.284 344.333 715.137 344.115 715.048C343.9 714.958 343.653 714.914 343.374 714.914C343.026 714.914 342.765 714.973 342.589 715.091C342.414 715.205 342.326 715.374 342.326 715.596C342.326 715.793 342.391 715.952 342.52 716.074C342.648 716.195 342.872 716.294 343.191 716.369L344.05 716.568C344.609 716.693 345.014 716.897 345.264 717.18C345.518 717.463 345.646 717.832 345.646 718.287C345.646 718.648 345.558 718.967 345.382 719.243C345.207 719.515 344.949 719.728 344.609 719.882C344.269 720.036 343.857 720.113 343.374 720.113Z" fill="#0E1318" fill-opacity="0.7"/>
</g>
</g>
<rect x="120" y="755" width="135" height="5" rx="2.5" fill="black"/>
</g>
</g>
</g>
<defs>
<filter id="filter0_dd_6839_95685" x="-16" y="43" width="407" height="757" filterUnits="userSpaceOnUse" color-interpolation-filters="sRGB">
<feFlood flood-opacity="0" result="BackgroundImageFix"/>
<feColorMatrix in="SourceAlpha" type="matrix" values="0 0 0 0 0 0 0 0 0 0 0 0 0 0 0 0 0 0 127 0" result="hardAlpha"/>
<feMorphology radius="8" operator="erode" in="SourceAlpha" result="effect1_dropShadow_6839_95685"/>
<feOffset dy="16"/>
<feGaussianBlur stdDeviation="12"/>
<feColorMatrix type="matrix" values="0 0 0 0 0.0794444 0 0 0 0 0.108333 0 0 0 0 0.137222 0 0 0 0.14 0"/>
<feBlend mode="normal" in2="BackgroundImageFix" result="effect1_dropShadow_6839_95685"/>
<feColorMatrix in="SourceAlpha" type="matrix" values="0 0 0 0 0 0 0 0 0 0 0 0 0 0 0 0 0 0 127 0" result="hardAlpha"/>
<feMorphology radius="1" operator="dilate" in="SourceAlpha" result="effect2_dropShadow_6839_95685"/>
<feOffset/>
<feComposite in2="hardAlpha" operator="out"/>
<feColorMatrix type="matrix" values="0 0 0 0 0 0 0 0 0 0 0 0 0 0 0 0 0 0 0.05 0"/>
<feBlend mode="normal" in2="effect1_dropShadow_6839_95685" result="effect2_dropShadow_6839_95685"/>
<feBlend mode="normal" in="SourceGraphic" in2="effect2_dropShadow_6839_95685" result="shape"/>
</filter>
<filter id="filter1_dd_6839_95685" x="17" y="671" width="38" height="38" filterUnits="userSpaceOnUse" color-interpolation-filters="sRGB">
<feFlood flood-opacity="0" result="BackgroundImageFix"/>
<feColorMatrix in="SourceAlpha" type="matrix" values="0 0 0 0 0 0 0 0 0 0 0 0 0 0 0 0 0 0 127 0" result="hardAlpha"/>
<feMorphology radius="1" operator="erode" in="SourceAlpha" result="effect1_dropShadow_6839_95685"/>
<feOffset dy="2"/>
<feGaussianBlur stdDeviation="2"/>
<feColorMatrix type="matrix" values="0 0 0 0 0.25098 0 0 0 0 0.341176 0 0 0 0 0.427451 0 0 0 0.3 0"/>
<feBlend mode="normal" in2="BackgroundImageFix" result="effect1_dropShadow_6839_95685"/>
<feColorMatrix in="SourceAlpha" type="matrix" values="0 0 0 0 0 0 0 0 0 0 0 0 0 0 0 0 0 0 127 0" result="hardAlpha"/>
<feMorphology radius="1" operator="dilate" in="SourceAlpha" result="effect2_dropShadow_6839_95685"/>
<feOffset/>
<feColorMatrix type="matrix" values="0 0 0 0 0.25098 0 0 0 0 0.341176 0 0 0 0 0.427451 0 0 0 0.04 0"/>
<feBlend mode="normal" in2="effect1_dropShadow_6839_95685" result="effect2_dropShadow_6839_95685"/>
<feBlend mode="normal" in="SourceGraphic" in2="effect2_dropShadow_6839_95685" result="shape"/>
</filter>
<filter id="filter2_dd_6839_95685" x="89" y="671" width="38" height="38" filterUnits="userSpaceOnUse" color-interpolation-filters="sRGB">
<feFlood flood-opacity="0" result="BackgroundImageFix"/>
<feColorMatrix in="SourceAlpha" type="matrix" values="0 0 0 0 0 0 0 0 0 0 0 0 0 0 0 0 0 0 127 0" result="hardAlpha"/>
<feMorphology radius="1" operator="erode" in="SourceAlpha" result="effect1_dropShadow_6839_95685"/>
<feOffset dy="2"/>
<feGaussianBlur stdDeviation="2"/>
<feColorMatrix type="matrix" values="0 0 0 0 0.25098 0 0 0 0 0.341176 0 0 0 0 0.427451 0 0 0 0.3 0"/>
<feBlend mode="normal" in2="BackgroundImageFix" result="effect1_dropShadow_6839_95685"/>
<feColorMatrix in="SourceAlpha" type="matrix" values="0 0 0 0 0 0 0 0 0 0 0 0 0 0 0 0 0 0 127 0" result="hardAlpha"/>
<feMorphology radius="1" operator="dilate" in="SourceAlpha" result="effect2_dropShadow_6839_95685"/>
<feOffset/>
<feColorMatrix type="matrix" values="0 0 0 0 0.25098 0 0 0 0 0.341176 0 0 0 0 0.427451 0 0 0 0.04 0"/>
<feBlend mode="normal" in2="effect1_dropShadow_6839_95685" result="effect2_dropShadow_6839_95685"/>
<feBlend mode="normal" in="SourceGraphic" in2="effect2_dropShadow_6839_95685" result="shape"/>
</filter>
<filter id="filter3_dd_6839_95685" x="161" y="671" width="38" height="38" filterUnits="userSpaceOnUse" color-interpolation-filters="sRGB">
<feFlood flood-opacity="0" result="BackgroundImageFix"/>
<feColorMatrix in="SourceAlpha" type="matrix" values="0 0 0 0 0 0 0 0 0 0 0 0 0 0 0 0 0 0 127 0" result="hardAlpha"/>
<feMorphology radius="1" operator="erode" in="SourceAlpha" result="effect1_dropShadow_6839_95685"/>
<feOffset dy="2"/>
<feGaussianBlur stdDeviation="2"/>
<feColorMatrix type="matrix" values="0 0 0 0 0.25098 0 0 0 0 0.341176 0 0 0 0 0.427451 0 0 0 0.3 0"/>
<feBlend mode="normal" in2="BackgroundImageFix" result="effect1_dropShadow_6839_95685"/>
<feColorMatrix in="SourceAlpha" type="matrix" values="0 0 0 0 0 0 0 0 0 0 0 0 0 0 0 0 0 0 127 0" result="hardAlpha"/>
<feMorphology radius="1" operator="dilate" in="SourceAlpha" result="effect2_dropShadow_6839_95685"/>
<feOffset/>
<feColorMatrix type="matrix" values="0 0 0 0 0.25098 0 0 0 0 0.341176 0 0 0 0 0.427451 0 0 0 0.04 0"/>
<feBlend mode="normal" in2="effect1_dropShadow_6839_95685" result="effect2_dropShadow_6839_95685"/>
<feBlend mode="normal" in="SourceGraphic" in2="effect2_dropShadow_6839_95685" result="shape"/>
</filter>
<filter id="filter4_dd_6839_95685" x="233" y="671" width="38" height="38" filterUnits="userSpaceOnUse" color-interpolation-filters="sRGB">
<feFlood flood-opacity="0" result="BackgroundImageFix"/>
<feColorMatrix in="SourceAlpha" type="matrix" values="0 0 0 0 0 0 0 0 0 0 0 0 0 0 0 0 0 0 127 0" result="hardAlpha"/>
<feMorphology radius="1" operator="erode" in="SourceAlpha" result="effect1_dropShadow_6839_95685"/>
<feOffset dy="2"/>
<feGaussianBlur stdDeviation="2"/>
<feColorMatrix type="matrix" values="0 0 0 0 0.25098 0 0 0 0 0.341176 0 0 0 0 0.427451 0 0 0 0.3 0"/>
<feBlend mode="normal" in2="BackgroundImageFix" result="effect1_dropShadow_6839_95685"/>
<feColorMatrix in="SourceAlpha" type="matrix" values="0 0 0 0 0 0 0 0 0 0 0 0 0 0 0 0 0 0 127 0" result="hardAlpha"/>
<feMorphology radius="1" operator="dilate" in="SourceAlpha" result="effect2_dropShadow_6839_95685"/>
<feOffset/>
<feColorMatrix type="matrix" values="0 0 0 0 0.25098 0 0 0 0 0.341176 0 0 0 0 0.427451 0 0 0 0.04 0"/>
<feBlend mode="normal" in2="effect1_dropShadow_6839_95685" result="effect2_dropShadow_6839_95685"/>
<feBlend mode="normal" in="SourceGraphic" in2="effect2_dropShadow_6839_95685" result="shape"/>
</filter>
<filter id="filter5_dd_6839_95685" x="305" y="671" width="38" height="38" filterUnits="userSpaceOnUse" color-interpolation-filters="sRGB">
<feFlood flood-opacity="0" result="BackgroundImageFix"/>
<feColorMatrix in="SourceAlpha" type="matrix" values="0 0 0 0 0 0 0 0 0 0 0 0 0 0 0 0 0 0 127 0" result="hardAlpha"/>
<feMorphology radius="1" operator="erode" in="SourceAlpha" result="effect1_dropShadow_6839_95685"/>
<feOffset dy="2"/>
<feGaussianBlur stdDeviation="2"/>
<feColorMatrix type="matrix" values="0 0 0 0 0.25098 0 0 0 0 0.341176 0 0 0 0 0.427451 0 0 0 0.3 0"/>
<feBlend mode="normal" in2="BackgroundImageFix" result="effect1_dropShadow_6839_95685"/>
<feColorMatrix in="SourceAlpha" type="matrix" values="0 0 0 0 0 0 0 0 0 0 0 0 0 0 0 0 0 0 127 0" result="hardAlpha"/>
<feMorphology radius="1" operator="dilate" in="SourceAlpha" result="effect2_dropShadow_6839_95685"/>
<feOffset/>
<feColorMatrix type="matrix" values="0 0 0 0 0.25098 0 0 0 0 0.341176 0 0 0 0 0.427451 0 0 0 0.04 0"/>
<feBlend mode="normal" in2="effect1_dropShadow_6839_95685" result="effect2_dropShadow_6839_95685"/>
<feBlend mode="normal" in="SourceGraphic" in2="effect2_dropShadow_6839_95685" result="shape"/>
</filter>
<linearGradient id="paint0_linear_6839_95685" x1="30" y1="698" x2="0" y2="698" gradientUnits="userSpaceOnUse">
<stop stop-color="#D9D9D9"/>
<stop offset="1" stop-color="#D9D9D9" stop-opacity="0"/>
</linearGradient>
<linearGradient id="paint1_linear_6839_95685" x1="345" y1="698" x2="375" y2="698" gradientUnits="userSpaceOnUse">
<stop stop-color="#D9D9D9"/>
<stop offset="1" stop-color="#D9D9D9" stop-opacity="0"/>
</linearGradient>
<clipPath id="clip0_6839_95685">
<rect width="375" height="768" rx="16" fill="white"/>
</clipPath>
<clipPath id="clip1_6839_95685">
<path d="M0 56C0 49.3726 5.37258 44 12 44H363C369.627 44 375 49.3726 375 56V768H0V56Z" fill="white"/>
</clipPath>
<clipPath id="clip2_6839_95685">
<rect width="375" height="72" fill="white" transform="translate(0 662)"/>
</clipPath>
</defs>
</svg>
