<svg width="457" height="707" viewBox="0 0 457 707" fill="none" xmlns="http://www.w3.org/2000/svg">
<g clip-path="url(#clip0_6839_95571)">
<g clip-path="url(#clip1_6839_95571)">
<mask id="mask0_6839_95571" style="mask-type:alpha" maskUnits="userSpaceOnUse" x="0" y="18" width="64" height="681">
<rect y="18" width="64" height="641" fill="#D9D9D9"/>
<rect y="659" width="64" height="40" fill="url(#paint0_linear_6839_95571)"/>
</mask>
<g mask="url(#mask0_6839_95571)">
<g filter="url(#filter0_d_6839_95571)">
<g clip-path="url(#clip2_6839_95571)">
<rect x="12" y="30" width="40" height="40" rx="12" fill="white"/>
<rect x="12" y="30" width="40" height="40" fill="white" fill-opacity="0.07"/>
<rect opacity="0.1" x="20" y="38" width="24" height="24" rx="8" fill="#4A2E7E"/>
</g>
</g>
<rect x="9.5" y="78" width="45" height="8" rx="4" fill="#394C60" fill-opacity="0.15"/>
<g filter="url(#filter1_d_6839_95571)">
<g clip-path="url(#clip3_6839_95571)">
<rect x="12" y="110" width="40" height="40" rx="12" fill="white"/>
<rect x="12" y="110" width="40" height="40" fill="white" fill-opacity="0.07"/>
<rect opacity="0.1" x="20" y="118" width="24" height="24" rx="8" fill="#4A2E7E"/>
</g>
</g>
<rect x="9.5" y="158" width="45" height="8" rx="4" fill="#394C60" fill-opacity="0.15"/>
<g filter="url(#filter2_d_6839_95571)">
<g clip-path="url(#clip4_6839_95571)">
<rect x="12" y="190" width="40" height="40" rx="12" fill="white"/>
<rect x="12" y="190" width="40" height="40" fill="white" fill-opacity="0.07"/>
<rect opacity="0.1" x="20" y="198" width="24" height="24" rx="8" fill="#4A2E7E"/>
</g>
</g>
<rect x="9.5" y="238" width="45" height="8" rx="4" fill="#394C60" fill-opacity="0.15"/>
<g filter="url(#filter3_d_6839_95571)">
<g clip-path="url(#clip5_6839_95571)">
<rect x="12" y="270" width="40" height="40" rx="12" fill="white"/>
<rect x="12" y="270" width="40" height="40" fill="white" fill-opacity="0.07"/>
<rect opacity="0.1" x="20" y="278" width="24" height="24" rx="8" fill="#4A2E7E"/>
</g>
</g>
<rect x="9.5" y="318" width="45" height="8" rx="4" fill="#394C60" fill-opacity="0.15"/>
<g filter="url(#filter4_d_6839_95571)">
<g clip-path="url(#clip6_6839_95571)">
<rect x="12" y="350" width="40" height="40" rx="12" fill="white"/>
<rect x="12" y="350" width="40" height="40" fill="white" fill-opacity="0.07"/>
<rect opacity="0.1" x="20" y="358" width="24" height="24" rx="8" fill="#4A2E7E"/>
</g>
</g>
<rect x="9.5" y="398" width="45" height="8" rx="4" fill="#394C60" fill-opacity="0.15"/>
<g filter="url(#filter5_d_6839_95571)">
<g clip-path="url(#clip7_6839_95571)">
<rect x="12" y="430" width="40" height="40" rx="12" fill="white"/>
<rect x="12" y="430" width="40" height="40" fill="white" fill-opacity="0.07"/>
<rect opacity="0.1" x="20" y="438" width="24" height="24" rx="8" fill="#4A2E7E"/>
</g>
</g>
<rect x="9.5" y="478" width="45" height="8" rx="4" fill="#394C60" fill-opacity="0.15"/>
<g filter="url(#filter6_d_6839_95571)">
<g clip-path="url(#clip8_6839_95571)">
<rect x="12" y="510" width="40" height="40" rx="12" fill="white"/>
<rect x="12" y="510" width="40" height="40" fill="white" fill-opacity="0.07"/>
<rect opacity="0.1" x="20" y="518" width="24" height="24" rx="8" fill="#4A2E7E"/>
</g>
</g>
<rect x="9.5" y="558" width="45" height="8" rx="4" fill="#394C60" fill-opacity="0.15"/>
<g filter="url(#filter7_d_6839_95571)">
<g clip-path="url(#clip9_6839_95571)">
<rect x="12" y="590" width="40" height="40" rx="12" fill="white"/>
<rect x="12" y="590" width="40" height="40" fill="white" fill-opacity="0.07"/>
<rect opacity="0.1" x="20" y="598" width="24" height="24" rx="8" fill="#4A2E7E"/>
</g>
</g>
<rect x="9.5" y="638" width="45" height="8" rx="4" fill="#394C60" fill-opacity="0.15"/>
<g filter="url(#filter8_d_6839_95571)">
<g clip-path="url(#clip10_6839_95571)">
<rect x="12" y="670" width="40" height="40" rx="12" fill="white"/>
<rect x="12" y="670" width="40" height="40" fill="white" fill-opacity="0.07"/>
<rect opacity="0.1" x="20" y="678" width="24" height="24" rx="8" fill="#4A2E7E"/>
</g>
</g>
</g>
</g>
</g>
<g filter="url(#filter9_dd_6839_95571)">
<g clip-path="url(#clip11_6839_95571)">
<path d="M80 22C80 15.3726 85.3726 10 92 10H429C435.627 10 441 15.3726 441 22V664C441 670.627 435.627 676 429 676H92C85.3726 676 80 670.627 80 664V22Z" fill="white"/>
</g>
</g>
<defs>
<filter id="filter0_d_6839_95571" x="9" y="29" width="46" height="46" filterUnits="userSpaceOnUse" color-interpolation-filters="sRGB">
<feFlood flood-opacity="0" result="BackgroundImageFix"/>
<feColorMatrix in="SourceAlpha" type="matrix" values="0 0 0 0 0 0 0 0 0 0 0 0 0 0 0 0 0 0 127 0" result="hardAlpha"/>
<feOffset dy="2"/>
<feGaussianBlur stdDeviation="1.5"/>
<feComposite in2="hardAlpha" operator="out"/>
<feColorMatrix type="matrix" values="0 0 0 0 0 0 0 0 0 0 0 0 0 0 0 0 0 0 0.07 0"/>
<feBlend mode="normal" in2="BackgroundImageFix" result="effect1_dropShadow_6839_95571"/>
<feBlend mode="normal" in="SourceGraphic" in2="effect1_dropShadow_6839_95571" result="shape"/>
</filter>
<filter id="filter1_d_6839_95571" x="9" y="109" width="46" height="46" filterUnits="userSpaceOnUse" color-interpolation-filters="sRGB">
<feFlood flood-opacity="0" result="BackgroundImageFix"/>
<feColorMatrix in="SourceAlpha" type="matrix" values="0 0 0 0 0 0 0 0 0 0 0 0 0 0 0 0 0 0 127 0" result="hardAlpha"/>
<feOffset dy="2"/>
<feGaussianBlur stdDeviation="1.5"/>
<feComposite in2="hardAlpha" operator="out"/>
<feColorMatrix type="matrix" values="0 0 0 0 0 0 0 0 0 0 0 0 0 0 0 0 0 0 0.07 0"/>
<feBlend mode="normal" in2="BackgroundImageFix" result="effect1_dropShadow_6839_95571"/>
<feBlend mode="normal" in="SourceGraphic" in2="effect1_dropShadow_6839_95571" result="shape"/>
</filter>
<filter id="filter2_d_6839_95571" x="9" y="189" width="46" height="46" filterUnits="userSpaceOnUse" color-interpolation-filters="sRGB">
<feFlood flood-opacity="0" result="BackgroundImageFix"/>
<feColorMatrix in="SourceAlpha" type="matrix" values="0 0 0 0 0 0 0 0 0 0 0 0 0 0 0 0 0 0 127 0" result="hardAlpha"/>
<feOffset dy="2"/>
<feGaussianBlur stdDeviation="1.5"/>
<feComposite in2="hardAlpha" operator="out"/>
<feColorMatrix type="matrix" values="0 0 0 0 0 0 0 0 0 0 0 0 0 0 0 0 0 0 0.07 0"/>
<feBlend mode="normal" in2="BackgroundImageFix" result="effect1_dropShadow_6839_95571"/>
<feBlend mode="normal" in="SourceGraphic" in2="effect1_dropShadow_6839_95571" result="shape"/>
</filter>
<filter id="filter3_d_6839_95571" x="9" y="269" width="46" height="46" filterUnits="userSpaceOnUse" color-interpolation-filters="sRGB">
<feFlood flood-opacity="0" result="BackgroundImageFix"/>
<feColorMatrix in="SourceAlpha" type="matrix" values="0 0 0 0 0 0 0 0 0 0 0 0 0 0 0 0 0 0 127 0" result="hardAlpha"/>
<feOffset dy="2"/>
<feGaussianBlur stdDeviation="1.5"/>
<feComposite in2="hardAlpha" operator="out"/>
<feColorMatrix type="matrix" values="0 0 0 0 0 0 0 0 0 0 0 0 0 0 0 0 0 0 0.07 0"/>
<feBlend mode="normal" in2="BackgroundImageFix" result="effect1_dropShadow_6839_95571"/>
<feBlend mode="normal" in="SourceGraphic" in2="effect1_dropShadow_6839_95571" result="shape"/>
</filter>
<filter id="filter4_d_6839_95571" x="9" y="349" width="46" height="46" filterUnits="userSpaceOnUse" color-interpolation-filters="sRGB">
<feFlood flood-opacity="0" result="BackgroundImageFix"/>
<feColorMatrix in="SourceAlpha" type="matrix" values="0 0 0 0 0 0 0 0 0 0 0 0 0 0 0 0 0 0 127 0" result="hardAlpha"/>
<feOffset dy="2"/>
<feGaussianBlur stdDeviation="1.5"/>
<feComposite in2="hardAlpha" operator="out"/>
<feColorMatrix type="matrix" values="0 0 0 0 0 0 0 0 0 0 0 0 0 0 0 0 0 0 0.07 0"/>
<feBlend mode="normal" in2="BackgroundImageFix" result="effect1_dropShadow_6839_95571"/>
<feBlend mode="normal" in="SourceGraphic" in2="effect1_dropShadow_6839_95571" result="shape"/>
</filter>
<filter id="filter5_d_6839_95571" x="9" y="429" width="46" height="46" filterUnits="userSpaceOnUse" color-interpolation-filters="sRGB">
<feFlood flood-opacity="0" result="BackgroundImageFix"/>
<feColorMatrix in="SourceAlpha" type="matrix" values="0 0 0 0 0 0 0 0 0 0 0 0 0 0 0 0 0 0 127 0" result="hardAlpha"/>
<feOffset dy="2"/>
<feGaussianBlur stdDeviation="1.5"/>
<feComposite in2="hardAlpha" operator="out"/>
<feColorMatrix type="matrix" values="0 0 0 0 0 0 0 0 0 0 0 0 0 0 0 0 0 0 0.07 0"/>
<feBlend mode="normal" in2="BackgroundImageFix" result="effect1_dropShadow_6839_95571"/>
<feBlend mode="normal" in="SourceGraphic" in2="effect1_dropShadow_6839_95571" result="shape"/>
</filter>
<filter id="filter6_d_6839_95571" x="9" y="509" width="46" height="46" filterUnits="userSpaceOnUse" color-interpolation-filters="sRGB">
<feFlood flood-opacity="0" result="BackgroundImageFix"/>
<feColorMatrix in="SourceAlpha" type="matrix" values="0 0 0 0 0 0 0 0 0 0 0 0 0 0 0 0 0 0 127 0" result="hardAlpha"/>
<feOffset dy="2"/>
<feGaussianBlur stdDeviation="1.5"/>
<feComposite in2="hardAlpha" operator="out"/>
<feColorMatrix type="matrix" values="0 0 0 0 0 0 0 0 0 0 0 0 0 0 0 0 0 0 0.07 0"/>
<feBlend mode="normal" in2="BackgroundImageFix" result="effect1_dropShadow_6839_95571"/>
<feBlend mode="normal" in="SourceGraphic" in2="effect1_dropShadow_6839_95571" result="shape"/>
</filter>
<filter id="filter7_d_6839_95571" x="9" y="589" width="46" height="46" filterUnits="userSpaceOnUse" color-interpolation-filters="sRGB">
<feFlood flood-opacity="0" result="BackgroundImageFix"/>
<feColorMatrix in="SourceAlpha" type="matrix" values="0 0 0 0 0 0 0 0 0 0 0 0 0 0 0 0 0 0 127 0" result="hardAlpha"/>
<feOffset dy="2"/>
<feGaussianBlur stdDeviation="1.5"/>
<feComposite in2="hardAlpha" operator="out"/>
<feColorMatrix type="matrix" values="0 0 0 0 0 0 0 0 0 0 0 0 0 0 0 0 0 0 0.07 0"/>
<feBlend mode="normal" in2="BackgroundImageFix" result="effect1_dropShadow_6839_95571"/>
<feBlend mode="normal" in="SourceGraphic" in2="effect1_dropShadow_6839_95571" result="shape"/>
</filter>
<filter id="filter8_d_6839_95571" x="9" y="669" width="46" height="46" filterUnits="userSpaceOnUse" color-interpolation-filters="sRGB">
<feFlood flood-opacity="0" result="BackgroundImageFix"/>
<feColorMatrix in="SourceAlpha" type="matrix" values="0 0 0 0 0 0 0 0 0 0 0 0 0 0 0 0 0 0 127 0" result="hardAlpha"/>
<feOffset dy="2"/>
<feGaussianBlur stdDeviation="1.5"/>
<feComposite in2="hardAlpha" operator="out"/>
<feColorMatrix type="matrix" values="0 0 0 0 0 0 0 0 0 0 0 0 0 0 0 0 0 0 0.07 0"/>
<feBlend mode="normal" in2="BackgroundImageFix" result="effect1_dropShadow_6839_95571"/>
<feBlend mode="normal" in="SourceGraphic" in2="effect1_dropShadow_6839_95571" result="shape"/>
</filter>
<filter id="filter9_dd_6839_95571" x="64" y="0" width="393" height="698" filterUnits="userSpaceOnUse" color-interpolation-filters="sRGB">
<feFlood flood-opacity="0" result="BackgroundImageFix"/>
<feColorMatrix in="SourceAlpha" type="matrix" values="0 0 0 0 0 0 0 0 0 0 0 0 0 0 0 0 0 0 127 0" result="hardAlpha"/>
<feMorphology radius="4" operator="erode" in="SourceAlpha" result="effect1_dropShadow_6839_95571"/>
<feOffset dy="6"/>
<feGaussianBlur stdDeviation="10"/>
<feColorMatrix type="matrix" values="0 0 0 0 0.25098 0 0 0 0 0.341176 0 0 0 0 0.427451 0 0 0 0.3 0"/>
<feBlend mode="normal" in2="BackgroundImageFix" result="effect1_dropShadow_6839_95571"/>
<feColorMatrix in="SourceAlpha" type="matrix" values="0 0 0 0 0 0 0 0 0 0 0 0 0 0 0 0 0 0 127 0" result="hardAlpha"/>
<feMorphology radius="1" operator="dilate" in="SourceAlpha" result="effect2_dropShadow_6839_95571"/>
<feOffset/>
<feColorMatrix type="matrix" values="0 0 0 0 0.25098 0 0 0 0 0.341176 0 0 0 0 0.427451 0 0 0 0.04 0"/>
<feBlend mode="normal" in2="effect1_dropShadow_6839_95571" result="effect2_dropShadow_6839_95571"/>
<feBlend mode="normal" in="SourceGraphic" in2="effect2_dropShadow_6839_95571" result="shape"/>
</filter>
<linearGradient id="paint0_linear_6839_95571" x1="32" y1="659" x2="32" y2="699" gradientUnits="userSpaceOnUse">
<stop stop-color="#D9D9D9"/>
<stop offset="1" stop-color="#D9D9D9" stop-opacity="0"/>
</linearGradient>
<clipPath id="clip0_6839_95571">
<rect y="18" width="64" height="681" rx="12" fill="white"/>
</clipPath>
<clipPath id="clip1_6839_95571">
<rect width="64" height="681" fill="white" transform="translate(0 18)"/>
</clipPath>
<clipPath id="clip2_6839_95571">
<rect x="12" y="30" width="40" height="40" rx="12" fill="white"/>
</clipPath>
<clipPath id="clip3_6839_95571">
<rect x="12" y="110" width="40" height="40" rx="12" fill="white"/>
</clipPath>
<clipPath id="clip4_6839_95571">
<rect x="12" y="190" width="40" height="40" rx="12" fill="white"/>
</clipPath>
<clipPath id="clip5_6839_95571">
<rect x="12" y="270" width="40" height="40" rx="12" fill="white"/>
</clipPath>
<clipPath id="clip6_6839_95571">
<rect x="12" y="350" width="40" height="40" rx="12" fill="white"/>
</clipPath>
<clipPath id="clip7_6839_95571">
<rect x="12" y="430" width="40" height="40" rx="12" fill="white"/>
</clipPath>
<clipPath id="clip8_6839_95571">
<rect x="12" y="510" width="40" height="40" rx="12" fill="white"/>
</clipPath>
<clipPath id="clip9_6839_95571">
<rect x="12" y="590" width="40" height="40" rx="12" fill="white"/>
</clipPath>
<clipPath id="clip10_6839_95571">
<rect x="12" y="670" width="40" height="40" rx="12" fill="white"/>
</clipPath>
<clipPath id="clip11_6839_95571">
<path d="M80 22C80 15.3726 85.3726 10 92 10H429C435.627 10 441 15.3726 441 22V664C441 670.627 435.627 676 429 676H92C85.3726 676 80 670.627 80 664V22Z" fill="white"/>
</clipPath>
</defs>
</svg>
