<svg width="72" height="560" viewBox="0 0 72 560" fill="none" xmlns="http://www.w3.org/2000/svg">
<g clip-path="url(#clip0_6839_95002)">
<mask id="mask0_6839_95002" style="mask-type:alpha" maskUnits="userSpaceOnUse" x="0" y="0" width="72" height="560">
<rect x="4" width="64" height="560" fill="#D9D9D9"/>
</mask>
<g mask="url(#mask0_6839_95002)">
<g filter="url(#filter0_dd_6839_95002)">
<path d="M20 24C20 19.5817 23.5817 16 28 16H44C48.4183 16 52 19.5817 52 24V40C52 44.4183 48.4183 48 44 48H28C23.5817 48 20 44.4183 20 40V24Z" fill="white"/>
<path fill-rule="evenodd" clip-rule="evenodd" d="M27 31.325C27 27.7347 27 25.9395 27.9661 24.7141C28.1851 24.4362 28.4362 24.1851 28.7141 23.9661C29.9395 23 31.7347 23 35.325 23H36.675C40.2653 23 42.0605 23 43.2859 23.9661C43.5638 24.1851 43.8149 24.4362 44.0339 24.7141C45 25.9395 45 27.7347 45 31.325V32.675C45 36.2653 45 38.0605 44.0339 39.2859C43.8149 39.5638 43.5638 39.8149 43.2859 40.0339C42.0605 41 40.2653 41 36.675 41H35.325C31.7347 41 29.9395 41 28.7141 40.0339C28.4362 39.8149 28.1851 39.5638 27.9661 39.2859C27 38.0605 27 36.2653 27 32.675V31.325ZM35.325 24.5H36.675C36.9642 24.5 37.2389 24.5001 37.5 24.5006L37.5 39.4994C37.2389 39.4999 36.9642 39.5 36.675 39.5H35.325C33.4942 39.5 32.2492 39.4977 31.304 39.389C30.3901 39.284 29.9479 39.0965 29.6427 38.856C29.4575 38.7099 29.2901 38.5425 29.144 38.3573C28.9035 38.0521 28.716 37.6099 28.611 36.696C28.5023 35.7508 28.5 34.5058 28.5 32.675V31.325C28.5 29.4942 28.5023 28.2492 28.611 27.304C28.716 26.3901 28.9035 25.9479 29.144 25.6427C29.2901 25.4575 29.4575 25.2901 29.6427 25.144C29.9479 24.9035 30.3901 24.716 31.304 24.611C32.2492 24.5023 33.4942 24.5 35.325 24.5ZM39 39.4856C39.6661 39.4716 40.2192 39.4438 40.696 39.389C41.6099 39.284 42.0521 39.0965 42.3573 38.856C42.5425 38.7099 42.7099 38.5425 42.856 38.3573C43.0965 38.0521 43.284 37.6099 43.389 36.696C43.4977 35.7508 43.5 34.5058 43.5 32.675V31.325C43.5 31.2209 43.5 31.1187 43.5 31.0184H39L39 39.4856ZM43.4938 29.5184C43.4837 28.6137 43.4575 27.8994 43.389 27.304C43.284 26.3901 43.0965 25.9479 42.856 25.6427C42.7099 25.4575 42.5425 25.2901 42.3573 25.144C42.0521 24.9035 41.6099 24.716 40.696 24.611C40.2192 24.5562 39.6661 24.5284 39 24.5144V29.5184H43.4938Z" fill="#0E1318" fill-opacity="0.7"/>
</g>
<path d="M21.627 56.1475C22.8695 56.1475 23.8273 56.4751 24.5005 57.1304C25.1737 57.7856 25.5103 58.7668 25.5103 60.0737C25.5103 61.3771 25.1737 62.3582 24.5005 63.0171C23.8273 63.6724 22.8695 64 21.627 64H18.9468V56.1475H21.627ZM21.5356 62.9526C22.1336 62.9526 22.6278 62.8577 23.0181 62.668C23.4119 62.4782 23.7091 62.172 23.9097 61.7495C24.1138 61.3234 24.2158 60.7648 24.2158 60.0737C24.2158 59.3791 24.1138 58.8205 23.9097 58.3979C23.7091 57.9754 23.4119 57.6693 23.0181 57.4795C22.6278 57.2861 22.1336 57.1895 21.5356 57.1895H20.1821V62.9526H21.5356ZM31.9717 61.3037H28.0293C28.0973 62.4925 28.6488 63.0869 29.6836 63.0869C30.0667 63.0869 30.3747 63.0189 30.6074 62.8828C30.8438 62.7432 31.0299 62.5283 31.166 62.2383H31.2788L32.0576 62.7217C31.875 63.1442 31.5903 63.4826 31.2036 63.7368C30.8205 63.9875 30.3138 64.1128 29.6836 64.1128C29.0928 64.1128 28.5825 63.9982 28.1528 63.769C27.7231 63.5399 27.3919 63.1961 27.1592 62.7378C26.9264 62.2795 26.8101 61.7137 26.8101 61.0405C26.8101 60.3674 26.9318 59.7998 27.1753 59.3379C27.4188 58.876 27.7518 58.5322 28.1743 58.3066C28.5968 58.0775 29.0731 57.9629 29.603 57.9629C30.4015 57.9629 31.0174 58.1813 31.4507 58.6182C31.8875 59.055 32.1077 59.6978 32.1113 60.5464C32.1113 60.8651 32.1024 61.096 32.0845 61.2393L31.9717 61.3037ZM30.9673 60.4604C30.953 59.9198 30.8294 59.5259 30.5967 59.2788C30.3675 59.0317 30.0363 58.9082 29.603 58.9082C29.1662 58.9082 28.8153 59.0317 28.5503 59.2788C28.2889 59.5259 28.1242 59.9198 28.0562 60.4604H30.9673ZM35.3394 64.1128C34.9526 64.1128 34.5946 64.0645 34.2651 63.9678C33.9393 63.8711 33.6618 63.7386 33.4326 63.5703C33.207 63.3984 33.0423 63.2051 32.9385 62.9902L33.6099 62.2759H33.7227C34.113 62.8381 34.6536 63.1191 35.3447 63.1191C35.7064 63.1191 35.9803 63.0511 36.1665 62.915C36.3563 62.7754 36.4512 62.582 36.4512 62.335C36.4512 62.1416 36.3885 61.9823 36.2632 61.8569C36.1414 61.728 35.9463 61.6313 35.6777 61.5669L34.7861 61.3467C34.2275 61.2142 33.8175 61.0065 33.5562 60.7236C33.2983 60.4372 33.1694 60.0809 33.1694 59.6548C33.1694 59.3075 33.2572 59.0067 33.4326 58.7524C33.6117 58.4982 33.8641 58.3031 34.1899 58.167C34.5158 58.0309 34.8989 57.9629 35.3394 57.9629C35.88 57.9629 36.3151 58.0399 36.6445 58.1938C36.9775 58.3442 37.2371 58.5519 37.4233 58.8169L36.7788 59.4883H36.6714C36.4959 59.2842 36.299 59.1374 36.0806 59.0479C35.8657 58.9583 35.6187 58.9136 35.3394 58.9136C34.992 58.9136 34.7306 58.9727 34.5552 59.0908C34.3797 59.2054 34.292 59.3737 34.292 59.5957C34.292 59.7926 34.3564 59.952 34.4854 60.0737C34.6143 60.1955 34.8381 60.2939 35.1567 60.3691L36.0161 60.5679C36.5747 60.6932 36.9793 60.8973 37.23 61.1802C37.4842 61.4631 37.6113 61.8319 37.6113 62.2866C37.6113 62.6483 37.5236 62.967 37.3481 63.2427C37.1727 63.5148 36.9149 63.7279 36.5747 63.8818C36.2345 64.0358 35.8228 64.1128 35.3394 64.1128ZM39.6147 57.1465C39.3892 57.1465 39.2048 57.0767 39.0615 56.937C38.9183 56.7974 38.8467 56.6183 38.8467 56.3999C38.8467 56.1851 38.9183 56.0078 39.0615 55.8682C39.2048 55.7285 39.3892 55.6587 39.6147 55.6587C39.8403 55.6587 40.0247 55.7285 40.168 55.8682C40.3148 56.0078 40.3882 56.1851 40.3882 56.3999C40.3882 56.6183 40.3166 56.7974 40.1733 56.937C40.0301 57.0767 39.8439 57.1465 39.6147 57.1465ZM39.0239 64V58.0757H40.2056V64H39.0239ZM44.2124 66.5137C43.2563 66.5137 42.5545 66.3633 42.1069 66.0625C41.6593 65.7653 41.4355 65.3607 41.4355 64.8486C41.4355 64.5264 41.5358 64.265 41.7363 64.0645C41.9368 63.8639 42.2251 63.7261 42.6011 63.6509V63.5381C42.4113 63.4271 42.2716 63.3 42.1821 63.1567C42.0926 63.0099 42.0479 62.8398 42.0479 62.6465C42.0479 62.1846 42.3468 61.8766 42.9448 61.7227V61.6099C42.3003 61.2554 41.978 60.7021 41.978 59.9502C41.978 59.5599 42.0675 59.2144 42.2466 58.9136C42.4256 58.6128 42.6834 58.38 43.02 58.2153C43.3566 58.047 43.7559 57.9629 44.2178 57.9629C44.7119 57.9629 45.1165 58.0596 45.4316 58.2529C45.6393 57.9951 45.7593 57.6782 45.7915 57.3022L45.9043 57.2324L46.7959 57.4473C46.7637 57.7373 46.6777 57.9844 46.5381 58.1885C46.3984 58.389 46.1925 58.5591 45.9204 58.6987V58.8169C46.2749 59.1069 46.4521 59.5169 46.4521 60.0469C46.4521 60.4157 46.3608 60.7487 46.1782 61.0459C45.9992 61.3395 45.7396 61.5705 45.3994 61.7388C45.0628 61.9071 44.6689 61.9912 44.2178 61.9912C44.1784 61.9912 44.0942 61.9876 43.9653 61.9805C43.8221 61.9733 43.7201 61.9697 43.6592 61.9697C43.498 61.9697 43.3709 62.0127 43.2778 62.0986C43.1847 62.1846 43.1382 62.2938 43.1382 62.4263C43.1382 62.5802 43.1919 62.6966 43.2993 62.7754C43.4103 62.8542 43.584 62.8989 43.8203 62.9097L45.1846 62.958C46.4342 62.9974 47.0591 63.5345 47.0591 64.5693C47.0591 64.9382 46.9624 65.2676 46.769 65.5576C46.5757 65.8512 46.266 66.084 45.8398 66.2559C45.4173 66.4277 44.8748 66.5137 44.2124 66.5137ZM44.2178 61.0942C44.5687 61.0942 44.8408 60.9976 45.0342 60.8042C45.2311 60.6108 45.3296 60.3369 45.3296 59.9824C45.3296 59.6243 45.2329 59.3486 45.0396 59.1553C44.8462 58.9583 44.5723 58.8599 44.2178 58.8599C43.8597 58.8599 43.5858 58.9565 43.396 59.1499C43.2062 59.3433 43.1113 59.6208 43.1113 59.9824C43.1113 60.3369 43.2062 60.6108 43.396 60.8042C43.5858 60.9976 43.8597 61.0942 44.2178 61.0942ZM44.2124 65.6006C44.7889 65.6006 45.2078 65.5129 45.4692 65.3374C45.7342 65.1655 45.8667 64.9471 45.8667 64.6821C45.8667 64.4565 45.7987 64.2936 45.6626 64.1934C45.5301 64.0931 45.3045 64.0358 44.9858 64.0215L43.7397 63.957L43.541 63.9517C43.2223 63.9552 42.986 64.0215 42.832 64.1504C42.6781 64.2829 42.6011 64.4637 42.6011 64.6929C42.6011 64.9901 42.7354 65.2157 43.0039 65.3696C43.2725 65.5236 43.6753 65.6006 44.2124 65.6006ZM48.2192 64V58.0757H49.3472V58.9727L49.46 58.9995C49.6497 58.6593 49.895 58.4015 50.1958 58.2261C50.4966 58.0506 50.8636 57.9629 51.2969 57.9629C51.9951 57.9629 52.5036 58.1473 52.8223 58.5161C53.1445 58.8813 53.3057 59.431 53.3057 60.165V64H52.124V60.2671C52.124 59.8052 52.0327 59.474 51.8501 59.2734C51.6675 59.0729 51.3739 58.9727 50.9692 58.9727C50.4858 58.9727 50.1027 59.1302 49.8198 59.4453C49.5405 59.7604 49.4009 60.2599 49.4009 60.9438V64H48.2192Z" fill="#0E1318" fill-opacity="0.7"/>
<g filter="url(#filter1_dd_6839_95002)">
<path d="M20 92C20 87.5817 23.5817 84 28 84H44C48.4183 84 52 87.5817 52 92V108C52 112.418 48.4183 116 44 116H28C23.5817 116 20 112.418 20 108V92Z" fill="white"/>
<path fill-rule="evenodd" clip-rule="evenodd" d="M30.5492 99.242C30.7709 99.3609 31.0152 99.4205 31.2586 99.4205C31.5027 99.4205 31.7472 99.361 31.9694 99.2415L31.9723 99.2399L31.9759 99.2379L31.9852 99.2329L32.0118 99.2181C32.0331 99.2062 32.0613 99.1902 32.0956 99.1702C32.1642 99.1303 32.2579 99.0741 32.3706 99.0023C32.5949 98.8594 32.9002 98.6511 33.2357 98.3827C33.8737 97.8724 34.7137 97.0715 35.2616 96.0082C35.5304 95.5587 35.6847 95.0324 35.6847 94.4741C35.6847 92.8221 34.3455 91.483 32.6936 91.483C32.1732 91.483 31.6844 91.6157 31.2587 91.8489C30.833 91.6156 30.3441 91.4829 29.8237 91.4829C28.1718 91.4829 26.8325 92.822 26.8325 94.474C26.8325 94.9925 26.9657 95.4842 27.2007 95.9122C27.7418 97.0136 28.6033 97.841 29.2563 98.3651C29.5982 98.6396 29.9102 98.8524 30.1396 98.9984C30.2548 99.0718 30.3507 99.1292 30.4209 99.1699C30.456 99.1903 30.4848 99.2066 30.5065 99.2187L30.5337 99.2338L30.5432 99.2389L30.5469 99.2409L30.5492 99.242ZM28.5307 95.2173C28.8815 95.9484 29.4478 96.5573 29.9736 97.011C30.3951 97.3746 30.7906 97.6384 31.0286 97.7855C31.1718 97.8739 31.2585 97.9205 31.2585 97.9205C31.2585 97.9205 31.3447 97.8742 31.4879 97.7855C31.7256 97.638 32.1213 97.3732 32.5421 97.0089C33.0521 96.5674 33.5999 95.9793 33.9517 95.2748C34.0992 95.0435 34.1847 94.7688 34.1847 94.4741C34.1847 93.6506 33.5171 92.983 32.6936 92.983C32.6036 92.983 32.5156 92.991 32.43 93.0062C31.8664 93.1067 31.4124 93.5239 31.2586 94.0672C31.1049 93.5239 30.6509 93.1067 30.0873 93.0061C30.0017 92.9909 29.9136 92.9829 29.8237 92.9829C29.0001 92.9829 28.3325 93.6505 28.3325 94.474C28.3325 94.7447 28.4046 94.9985 28.5307 95.2173Z" fill="#0E1318" fill-opacity="0.7"/>
<path fill-rule="evenodd" clip-rule="evenodd" d="M41.5363 92.0113C41.1407 91.33 40.1568 91.33 39.7611 92.0113L36.4542 97.7054C36.0568 98.3897 36.5505 99.2473 37.3419 99.2473H43.9556C44.7469 99.2473 45.2406 98.3897 44.8432 97.7054L41.5363 92.0113ZM40.6487 93.4697L38.1645 97.7473H43.1329L40.6487 93.4697Z" fill="#0E1318" fill-opacity="0.7"/>
<path fill-rule="evenodd" clip-rule="evenodd" d="M44.8614 105.168C44.8614 107.495 42.9753 109.381 40.6487 109.381C38.3221 109.381 36.436 107.495 36.436 105.168C36.436 102.842 38.3221 100.956 40.6487 100.956C42.9753 100.956 44.8614 102.842 44.8614 105.168ZM43.3614 105.168C43.3614 106.666 42.1469 107.881 40.6487 107.881C39.1505 107.881 37.936 106.666 37.936 105.168C37.936 103.67 39.1505 102.456 40.6487 102.456C42.1469 102.456 43.3614 103.67 43.3614 105.168Z" fill="#0E1318" fill-opacity="0.7"/>
<path fill-rule="evenodd" clip-rule="evenodd" d="M27.4063 102.086C27.4063 101.661 27.7509 101.316 28.1761 101.316H34.3166C34.7418 101.316 35.0864 101.661 35.0864 102.086V108.38C35.0864 108.72 34.8107 108.996 34.4706 108.996H28.1761C27.7509 108.996 27.4063 108.651 27.4063 108.226V102.086ZM28.9063 107.496V102.816H33.5864V107.496H28.9063Z" fill="#0E1318" fill-opacity="0.7"/>
</g>
<path d="M13.4253 128.423V130.969H17.3032V132H12.1899V124.147H17.2173V125.179H13.4253V127.408H16.7554V128.423H13.4253ZM20.1875 132.113C19.7113 132.113 19.3424 131.982 19.0811 131.721C18.8197 131.456 18.689 131.058 18.689 130.528V123.696H19.8706V130.469C19.8706 130.688 19.9136 130.845 19.9995 130.942C20.0854 131.039 20.2161 131.087 20.3916 131.087C20.4919 131.087 20.5993 131.071 20.7139 131.039L20.7891 131.06L20.9072 131.973C20.832 132.02 20.73 132.054 20.6011 132.075C20.4757 132.1 20.3379 132.113 20.1875 132.113ZM26.8477 129.304H22.9053C22.9733 130.493 23.5247 131.087 24.5596 131.087C24.9427 131.087 25.2507 131.019 25.4834 130.883C25.7197 130.743 25.9059 130.528 26.042 130.238H26.1548L26.9336 130.722C26.751 131.144 26.4663 131.483 26.0796 131.737C25.6965 131.987 25.1898 132.113 24.5596 132.113C23.9688 132.113 23.4585 131.998 23.0288 131.769C22.5991 131.54 22.2679 131.196 22.0352 130.738C21.8024 130.279 21.686 129.714 21.686 129.041C21.686 128.367 21.8078 127.8 22.0513 127.338C22.2948 126.876 22.6278 126.532 23.0503 126.307C23.4728 126.077 23.9491 125.963 24.479 125.963C25.2775 125.963 25.8934 126.181 26.3267 126.618C26.7635 127.055 26.9837 127.698 26.9873 128.546C26.9873 128.865 26.9784 129.096 26.9604 129.239L26.8477 129.304ZM25.8433 128.46C25.8289 127.92 25.7054 127.526 25.4727 127.279C25.2435 127.032 24.9123 126.908 24.479 126.908C24.0422 126.908 23.6912 127.032 23.4263 127.279C23.1649 127.526 23.0002 127.92 22.9321 128.46H25.8433ZM28.4214 132V126.076H29.5493V126.908L29.6621 126.93C29.8626 126.604 30.099 126.362 30.3711 126.205C30.6432 126.043 30.978 125.963 31.3755 125.963C31.8302 125.963 32.1883 126.051 32.4497 126.226C32.7111 126.402 32.908 126.67 33.0405 127.032H33.1533C33.3467 126.674 33.5902 126.407 33.8838 126.231C34.1774 126.052 34.5409 125.963 34.9741 125.963C35.59 125.963 36.0483 126.133 36.3491 126.473C36.6499 126.81 36.8003 127.315 36.8003 127.988V132H35.6187V128.09C35.6187 127.703 35.5381 127.42 35.377 127.241C35.2194 127.062 34.9652 126.973 34.6143 126.973C34.1846 126.973 33.8408 127.123 33.583 127.424C33.3288 127.725 33.2017 128.215 33.2017 128.896V132H32.02V128.09C32.02 127.703 31.9395 127.42 31.7783 127.241C31.6208 127.062 31.3665 126.973 31.0156 126.973C30.5859 126.973 30.2422 127.119 29.9844 127.413C29.7301 127.707 29.603 128.181 29.603 128.836V132H28.4214ZM43.4014 129.304H39.459C39.527 130.493 40.0785 131.087 41.1133 131.087C41.4964 131.087 41.8044 131.019 42.0371 130.883C42.2734 130.743 42.4596 130.528 42.5957 130.238H42.7085L43.4873 130.722C43.3047 131.144 43.02 131.483 42.6333 131.737C42.2502 131.987 41.7435 132.113 41.1133 132.113C40.5225 132.113 40.0122 131.998 39.5825 131.769C39.1528 131.54 38.8216 131.196 38.5889 130.738C38.3561 130.279 38.2397 129.714 38.2397 129.041C38.2397 128.367 38.3615 127.8 38.605 127.338C38.8485 126.876 39.1815 126.532 39.604 126.307C40.0265 126.077 40.5028 125.963 41.0327 125.963C41.8312 125.963 42.4471 126.181 42.8804 126.618C43.3172 127.055 43.5374 127.698 43.541 128.546C43.541 128.865 43.5321 129.096 43.5142 129.239L43.4014 129.304ZM42.397 128.46C42.3826 127.92 42.2591 127.526 42.0264 127.279C41.7972 127.032 41.466 126.908 41.0327 126.908C40.5959 126.908 40.245 127.032 39.98 127.279C39.7186 127.526 39.5539 127.92 39.4858 128.46H42.397ZM44.9751 132V126.076H46.103V126.973L46.2158 127C46.4056 126.659 46.6509 126.402 46.9517 126.226C47.2524 126.051 47.6195 125.963 48.0527 125.963C48.751 125.963 49.2594 126.147 49.5781 126.516C49.9004 126.881 50.0615 127.431 50.0615 128.165V132H48.8799V128.267C48.8799 127.805 48.7886 127.474 48.606 127.273C48.4233 127.073 48.1297 126.973 47.7251 126.973C47.2417 126.973 46.8586 127.13 46.5757 127.445C46.2964 127.76 46.1567 128.26 46.1567 128.944V132H44.9751ZM54.9224 130.824L55.2554 131.688C55.105 131.825 54.9116 131.928 54.6753 132C54.439 132.075 54.1776 132.113 53.8911 132.113C53.2967 132.113 52.8438 131.955 52.5322 131.64C52.2207 131.325 52.0649 130.854 52.0649 130.228V127.021H51.0981V126.07H52.0649V124.867L53.2466 124.674V126.07H55.0405V127.021H53.2466V130.131C53.2466 130.46 53.3146 130.698 53.4507 130.845C53.5903 130.992 53.7891 131.065 54.0469 131.065C54.3369 131.065 54.5911 130.985 54.8096 130.824H54.9224ZM58.1772 132.113C57.7905 132.113 57.4325 132.064 57.103 131.968C56.7772 131.871 56.4997 131.739 56.2705 131.57C56.0449 131.398 55.8802 131.205 55.7764 130.99L56.4478 130.276H56.5605C56.9508 130.838 57.4915 131.119 58.1826 131.119C58.5443 131.119 58.8182 131.051 59.0044 130.915C59.1942 130.775 59.2891 130.582 59.2891 130.335C59.2891 130.142 59.2264 129.982 59.1011 129.857C58.9793 129.728 58.7842 129.631 58.5156 129.567L57.624 129.347C57.0654 129.214 56.6554 129.007 56.394 128.724C56.1362 128.437 56.0073 128.081 56.0073 127.655C56.0073 127.307 56.0951 127.007 56.2705 126.752C56.4495 126.498 56.702 126.303 57.0278 126.167C57.3537 126.031 57.7368 125.963 58.1772 125.963C58.7179 125.963 59.153 126.04 59.4824 126.194C59.8154 126.344 60.075 126.552 60.2612 126.817L59.6167 127.488H59.5093C59.3338 127.284 59.1369 127.137 58.9185 127.048C58.7036 126.958 58.4565 126.914 58.1772 126.914C57.8299 126.914 57.5685 126.973 57.3931 127.091C57.2176 127.205 57.1299 127.374 57.1299 127.596C57.1299 127.793 57.1943 127.952 57.3232 128.074C57.4521 128.195 57.6759 128.294 57.9946 128.369L58.854 128.568C59.4126 128.693 59.8172 128.897 60.0679 129.18C60.3221 129.463 60.4492 129.832 60.4492 130.287C60.4492 130.648 60.3615 130.967 60.186 131.243C60.0106 131.515 59.7528 131.728 59.4126 131.882C59.0724 132.036 58.6606 132.113 58.1772 132.113Z" fill="#0E1318" fill-opacity="0.7"/>
<g filter="url(#filter2_dd_6839_95002)">
<path d="M20 160C20 155.582 23.5817 152 28 152H44C48.4183 152 52 155.582 52 160V176C52 180.418 48.4183 184 44 184H28C23.5817 184 20 180.418 20 176V160Z" fill="white"/>
<path d="M28.2656 161.792C28.2656 160.964 28.9372 160.292 29.7656 160.292H42.2344C43.0628 160.292 43.7344 160.964 43.7344 161.792V163.642C43.7344 164.056 43.3986 164.392 42.9844 164.392C42.5702 164.392 42.2344 164.056 42.2344 163.642V162.292C42.2344 162.016 42.0105 161.792 41.7344 161.792L36.75 161.792V173.73C36.75 174.007 36.9739 174.23 37.25 174.23H39.1252C39.5394 174.23 39.8752 174.566 39.8752 174.98C39.8752 175.395 39.5394 175.73 39.1252 175.73H32.8748C32.4606 175.73 32.1248 175.395 32.1248 174.98C32.1248 174.566 32.4606 174.23 32.8748 174.23H34.75C35.0261 174.23 35.25 174.007 35.25 173.73V161.792L30.2656 161.792C29.9895 161.792 29.7656 162.016 29.7656 162.292V163.67C29.7656 164.084 29.4298 164.42 29.0156 164.42C28.6014 164.42 28.2656 164.084 28.2656 163.67V161.792Z" fill="#0E1318" fill-opacity="0.7"/>
</g>
<path d="M31.1284 192.147V193.189H28.7651V200H27.5298V193.189H25.1665V192.147H31.1284ZM36.3706 197.304H32.4282C32.4963 198.493 33.0477 199.087 34.0825 199.087C34.4657 199.087 34.7736 199.019 35.0063 198.883C35.2427 198.743 35.4289 198.528 35.5649 198.238H35.6777L36.4565 198.722C36.2739 199.144 35.9893 199.483 35.6025 199.737C35.2194 199.987 34.7127 200.113 34.0825 200.113C33.4917 200.113 32.9814 199.998 32.5518 199.769C32.1221 199.54 31.7909 199.196 31.5581 198.738C31.3254 198.279 31.209 197.714 31.209 197.041C31.209 196.367 31.3307 195.8 31.5742 195.338C31.8177 194.876 32.1507 194.532 32.5732 194.307C32.9958 194.077 33.472 193.963 34.002 193.963C34.8005 193.963 35.4163 194.181 35.8496 194.618C36.2865 195.055 36.5067 195.698 36.5103 196.546C36.5103 196.865 36.5013 197.096 36.4834 197.239L36.3706 197.304ZM35.3662 196.46C35.3519 195.92 35.2284 195.526 34.9956 195.279C34.7664 195.032 34.4352 194.908 34.002 194.908C33.5651 194.908 33.2142 195.032 32.9492 195.279C32.6878 195.526 32.5231 195.92 32.4551 196.46H35.3662ZM38.3579 200H37.0903L38.8521 196.928L37.1816 194.076H38.4707L39.6685 196.187H39.792L40.9951 194.076H42.2358L40.6138 196.928L42.3271 200H41.0435L39.7544 197.664H39.6309L38.3579 200ZM46.5703 198.824L46.9033 199.688C46.7529 199.825 46.5596 199.928 46.3232 200C46.0869 200.075 45.8255 200.113 45.5391 200.113C44.9447 200.113 44.4917 199.955 44.1802 199.64C43.8687 199.325 43.7129 198.854 43.7129 198.228V195.021H42.7461V194.07H43.7129V192.867L44.8945 192.674V194.07H46.6885V195.021H44.8945V198.131C44.8945 198.46 44.9626 198.698 45.0986 198.845C45.2383 198.992 45.437 199.065 45.6948 199.065C45.9849 199.065 46.2391 198.985 46.4575 198.824H46.5703Z" fill="#0E1318" fill-opacity="0.7"/>
<g filter="url(#filter3_dd_6839_95002)">
<path d="M20 228C20 223.582 23.5817 220 28 220H44C48.4183 220 52 223.582 52 228V244C52 248.418 48.4183 252 44 252H28C23.5817 252 20 248.418 20 244V228Z" fill="white"/>
<path d="M33.0959 229.927L34.6416 228.63C35.4507 227.951 36.5636 227.872 37.4394 228.346L37.5807 228.295C38.1496 228.088 38.7305 227.98 39.3042 227.964C37.8826 226.281 35.3664 226.064 33.6775 227.481L28.9747 231.427L33.0959 229.927Z" fill="#0E1318" fill-opacity="0.7"/>
<path fill-rule="evenodd" clip-rule="evenodd" d="M35.8354 239.455C35.8354 237.965 37.0431 236.757 38.5328 236.757C40.0225 236.757 41.2301 237.965 41.2301 239.455C41.2301 240.944 40.0225 242.152 38.5328 242.152C37.0431 242.152 35.8354 240.944 35.8354 239.455ZM38.5328 238.007C37.7334 238.007 37.0854 238.655 37.0854 239.455C37.0854 240.254 37.7334 240.902 38.5328 240.902C39.3321 240.902 39.9801 240.254 39.9801 239.455C39.9801 238.655 39.3321 238.007 38.5328 238.007Z" fill="#0E1318" fill-opacity="0.7"/>
<path d="M32.02 239.455C32.02 238.655 32.668 238.007 33.4674 238.007C33.7919 238.007 34.0899 238.114 34.331 238.293C34.6078 238.499 34.9993 238.442 35.2056 238.166C35.4119 237.889 35.3547 237.497 35.0779 237.291C34.6284 236.956 34.0702 236.757 33.4674 236.757C31.9777 236.757 30.77 237.965 30.77 239.455C30.77 240.944 31.9777 242.152 33.4674 242.152C34.0628 242.152 34.6148 241.958 35.0615 241.631C35.3398 241.427 35.3999 241.036 35.1958 240.757C34.9916 240.479 34.6005 240.419 34.3221 240.623C34.0827 240.799 33.788 240.902 33.4674 240.902C32.668 240.902 32.02 240.254 32.02 239.455Z" fill="#0E1318" fill-opacity="0.7"/>
<path fill-rule="evenodd" clip-rule="evenodd" d="M31 233.455C28.7909 233.455 27 235.245 27 237.455V241.455C27 243.664 28.7909 245.455 31 245.455H41C43.2091 245.455 45 243.664 45 241.455V237.455C45 235.245 43.2091 233.455 41 233.455H31ZM41 234.955H31C29.6193 234.955 28.5 236.074 28.5 237.455V241.455C28.5 242.835 29.6193 243.955 31 243.955H41C42.3807 243.955 43.5 242.835 43.5 241.455V237.455C43.5 236.074 42.3807 234.955 41 234.955Z" fill="#0E1318" fill-opacity="0.7"/>
<path d="M38.6073 231.114L36.2968 231.955H31.9111L38.0942 229.704C40.1702 228.949 42.4655 230.019 43.2211 232.095L43.3638 232.487C42.7822 232.21 42.1443 232.032 41.4718 231.975C40.8302 231.107 39.6725 230.726 38.6073 231.114Z" fill="#0E1318" fill-opacity="0.7"/>
</g>
<path d="M20.9609 268V260.147H24.1245C24.6079 260.147 25.0179 260.224 25.3545 260.378C25.6911 260.529 25.9435 260.745 26.1118 261.028C26.2837 261.311 26.3696 261.648 26.3696 262.038C26.3696 262.382 26.2801 262.69 26.1011 262.962C25.9256 263.23 25.6732 263.444 25.3438 263.601V263.714C25.8522 263.843 26.2407 264.077 26.5093 264.417C26.7814 264.758 26.9175 265.18 26.9175 265.685C26.9175 266.426 26.6973 266.997 26.2568 267.398C25.8164 267.799 25.1629 268 24.2964 268H20.9609ZM23.9419 263.359C24.3394 263.359 24.6419 263.263 24.8496 263.069C25.0609 262.872 25.1665 262.593 25.1665 262.231C25.1665 261.483 24.7583 261.109 23.9419 261.109H22.1963V263.359H23.9419ZM24.1836 267.001C25.1683 267.001 25.6606 266.555 25.6606 265.664C25.6606 264.768 25.1683 264.321 24.1836 264.321H22.1963V267.001H24.1836ZM28.4268 268V262.076H29.5654V262.978L29.6782 263.005C29.8215 262.665 30.0166 262.416 30.2637 262.258C30.5107 262.101 30.8097 262.022 31.1606 262.022C31.5366 262.022 31.8159 262.086 31.9985 262.215L31.7622 263.23L31.6494 263.252C31.5492 263.205 31.4471 263.171 31.3433 263.15C31.2394 263.125 31.1195 263.112 30.9834 263.112C30.5394 263.112 30.1992 263.273 29.9629 263.596C29.7266 263.918 29.6084 264.439 29.6084 265.159V268H28.4268ZM34.3618 268.113C33.7817 268.113 33.327 267.959 32.9976 267.651C32.6681 267.339 32.5034 266.899 32.5034 266.33C32.5034 265.979 32.5768 265.683 32.7236 265.443C32.8704 265.203 33.0996 265.008 33.4111 264.858C33.7227 264.704 34.1273 264.586 34.625 264.503C35.0153 264.439 35.3125 264.367 35.5166 264.289C35.7207 264.21 35.8586 264.122 35.9302 264.025C36.0018 263.925 36.0376 263.8 36.0376 263.649C36.0376 263.42 35.957 263.245 35.7959 263.123C35.6383 263.001 35.3805 262.94 35.0225 262.94C34.3457 262.94 33.771 263.222 33.2983 263.784H33.1909L32.6646 263.01C32.9403 262.684 33.2822 262.428 33.6904 262.242C34.1022 262.056 34.5588 261.963 35.0601 261.963C35.8013 261.963 36.342 262.122 36.6821 262.441C37.0259 262.76 37.1978 263.207 37.1978 263.784V266.641C37.1978 266.938 37.3249 267.087 37.5791 267.087C37.6722 267.087 37.7617 267.071 37.8477 267.039L37.9229 267.06L38.0249 267.882C37.9533 267.932 37.853 267.971 37.7241 268C37.5988 268.029 37.4645 268.043 37.3213 268.043C36.9811 268.043 36.7197 267.973 36.5371 267.833C36.3581 267.694 36.2345 267.481 36.1665 267.194L36.0537 267.184C35.8962 267.495 35.6777 267.728 35.3984 267.882C35.1227 268.036 34.7772 268.113 34.3618 268.113ZM34.6948 267.205C34.9705 267.205 35.2122 267.142 35.4199 267.017C35.6276 266.888 35.7869 266.706 35.8979 266.469C36.009 266.233 36.0645 265.955 36.0645 265.637V264.96L35.9624 264.938C35.8514 265.021 35.7118 265.091 35.5435 265.148C35.3787 265.202 35.1424 265.254 34.8345 265.304C34.4191 265.365 34.1237 265.474 33.9482 265.631C33.7764 265.785 33.6904 266.004 33.6904 266.287C33.6904 266.587 33.7782 266.817 33.9536 266.974C34.1291 267.128 34.3761 267.205 34.6948 267.205ZM39.1152 268V262.076H40.2432V262.973L40.356 263C40.5457 262.659 40.791 262.402 41.0918 262.226C41.3926 262.051 41.7596 261.963 42.1929 261.963C42.8911 261.963 43.3996 262.147 43.7183 262.516C44.0405 262.881 44.2017 263.431 44.2017 264.165V268H43.02V264.267C43.02 263.805 42.9287 263.474 42.7461 263.273C42.5635 263.073 42.2699 262.973 41.8652 262.973C41.3818 262.973 40.9987 263.13 40.7158 263.445C40.4365 263.76 40.2969 264.26 40.2969 264.944V268H39.1152ZM48.0581 268.113C47.5854 268.113 47.1665 268 46.8013 267.774C46.4396 267.545 46.1567 267.201 45.9526 266.743C45.7485 266.285 45.6465 265.717 45.6465 265.041C45.6465 264.364 45.7521 263.796 45.9634 263.338C46.1782 262.876 46.4718 262.532 46.8442 262.307C47.2202 262.077 47.6535 261.963 48.144 261.963C48.5272 261.963 48.8656 262.033 49.1592 262.172C49.4528 262.308 49.7017 262.529 49.9058 262.833L50.0186 262.806V259.696H51.2002V268H50.0186V267.184L49.9058 267.162C49.7231 267.449 49.4779 267.68 49.1699 267.855C48.862 268.027 48.4914 268.113 48.0581 268.113ZM48.4341 267.087C48.9211 267.087 49.3078 266.919 49.5942 266.582C49.8807 266.242 50.0239 265.728 50.0239 265.041C50.0239 264.346 49.8807 263.83 49.5942 263.494C49.3078 263.153 48.9211 262.983 48.4341 262.983C47.3921 262.983 46.8711 263.669 46.8711 265.041C46.8711 266.405 47.3921 267.087 48.4341 267.087Z" fill="#0E1318" fill-opacity="0.7"/>
<g filter="url(#filter4_dd_6839_95002)">
<path d="M20 296C20 291.582 23.5817 288 28 288H44C48.4183 288 52 291.582 52 296V312C52 316.418 48.4183 320 44 320H28C23.5817 320 20 316.418 20 312V296Z" fill="white"/>
<path d="M35.2407 294.984C32.5052 294.984 30.1995 297.06 29.9241 299.773C29.9165 299.847 29.8641 299.912 29.8015 299.935C27.623 300.744 26.0688 302.842 26.0688 305.305C26.0688 308.467 28.6327 311.031 31.7954 311.031C34.9581 311.031 37.522 308.467 37.522 305.305V304.818L39.3041 306.601C39.597 306.894 40.0719 306.894 40.3648 306.601C40.6577 306.308 40.6577 305.833 40.3648 305.54L37.3023 302.477C37.0094 302.185 36.5345 302.185 36.2416 302.477L33.1791 305.54C32.8862 305.833 32.8862 306.308 33.1791 306.601C33.472 306.894 33.9469 306.894 34.2398 306.601L36.022 304.818V305.305C36.022 307.639 34.1297 309.531 31.7954 309.531C29.4611 309.531 27.5688 307.639 27.5688 305.305C27.5688 303.489 28.7139 301.939 30.3238 301.341C30.9297 301.116 31.3519 300.56 31.4164 299.924C31.6136 297.982 33.2705 296.484 35.2407 296.484C37.1339 296.484 38.7094 297.857 39.0263 299.659C39.1606 300.422 39.8063 301.025 40.5893 301.09C42.7348 301.267 44.4438 303.104 44.4438 305.305C44.4438 307.639 42.5516 309.531 40.2173 309.531H38.3032C37.889 309.531 37.5532 309.867 37.5532 310.281C37.5532 310.695 37.889 311.031 38.3032 311.031H40.2173C43.38 311.031 45.9438 308.467 45.9438 305.305C45.9438 302.326 43.6386 299.836 40.7129 299.595C40.6196 299.587 40.5216 299.501 40.5036 299.399C40.063 296.894 37.8758 294.984 35.2407 294.984Z" fill="#0E1318" fill-opacity="0.7"/>
</g>
<path d="M17.9961 336.113C16.972 336.113 16.2057 335.862 15.6973 335.361C15.1888 334.86 14.9346 334.117 14.9346 333.132V328.147H16.1538V333.121C16.1538 333.751 16.306 334.224 16.6104 334.539C16.9147 334.854 17.3766 335.012 17.9961 335.012C19.2207 335.012 19.833 334.382 19.833 333.121V328.147H21.0522V333.132C21.0522 334.117 20.798 334.86 20.2896 335.361C19.7811 335.862 19.0166 336.113 17.9961 336.113ZM23.0503 338.401V330.076H24.2319V330.903L24.3447 330.924C24.5452 330.598 24.8013 330.357 25.1128 330.199C25.4243 330.042 25.7806 329.963 26.1816 329.963C26.6686 329.963 27.0929 330.076 27.4546 330.301C27.8162 330.527 28.0973 330.871 28.2979 331.333C28.4984 331.791 28.5986 332.36 28.5986 333.041C28.5986 333.717 28.4912 334.285 28.2764 334.743C28.0651 335.201 27.7715 335.545 27.3955 335.774C27.0231 336 26.5916 336.113 26.1011 336.113C25.7179 336.113 25.3813 336.047 25.0913 335.914C24.8013 335.782 24.5524 335.57 24.3447 335.28L24.2319 335.302V338.401H23.0503ZM25.7949 335.087C26.307 335.087 26.6973 334.924 26.9658 334.598C27.238 334.269 27.374 333.75 27.374 333.041C27.374 332.328 27.238 331.807 26.9658 331.478C26.6973 331.148 26.307 330.983 25.7949 330.983C25.3187 330.983 24.9373 331.153 24.6509 331.494C24.3644 331.834 24.2212 332.349 24.2212 333.041C24.2212 333.728 24.3644 334.242 24.6509 334.582C24.9373 334.919 25.3187 335.087 25.7949 335.087ZM31.6064 336.113C31.1302 336.113 30.7614 335.982 30.5 335.721C30.2386 335.456 30.1079 335.058 30.1079 334.528V327.696H31.2896V334.469C31.2896 334.688 31.3325 334.845 31.4185 334.942C31.5044 335.039 31.6351 335.087 31.8105 335.087C31.9108 335.087 32.0182 335.071 32.1328 335.039L32.208 335.06L32.3262 335.973C32.251 336.02 32.1489 336.054 32.02 336.075C31.8947 336.1 31.7568 336.113 31.6064 336.113ZM35.9355 336.113C35.3662 336.113 34.8685 335.995 34.4424 335.758C34.0163 335.522 33.6868 335.173 33.4541 334.711C33.2214 334.249 33.105 333.692 33.105 333.041C33.105 332.385 33.2214 331.828 33.4541 331.37C33.6868 330.908 34.0163 330.559 34.4424 330.323C34.8685 330.083 35.3662 329.963 35.9355 329.963C36.5049 329.963 37.0026 330.083 37.4287 330.323C37.8548 330.559 38.1842 330.908 38.417 331.37C38.6533 331.828 38.7715 332.385 38.7715 333.041C38.7715 333.692 38.6533 334.249 38.417 334.711C38.1842 335.173 37.8548 335.522 37.4287 335.758C37.0026 335.995 36.5049 336.113 35.9355 336.113ZM35.9355 335.087C37.0062 335.087 37.5415 334.405 37.5415 333.041C37.5415 331.669 37.0062 330.983 35.9355 330.983C35.4163 330.983 35.0189 331.152 34.7432 331.488C34.4674 331.821 34.3296 332.339 34.3296 333.041C34.3296 334.405 34.8649 335.087 35.9355 335.087ZM41.7363 336.113C41.1562 336.113 40.7015 335.959 40.3721 335.651C40.0426 335.339 39.8779 334.899 39.8779 334.33C39.8779 333.979 39.9513 333.683 40.0981 333.443C40.245 333.203 40.4741 333.008 40.7856 332.858C41.0972 332.704 41.5018 332.586 41.9995 332.503C42.3898 332.439 42.687 332.367 42.8911 332.289C43.0952 332.21 43.2331 332.122 43.3047 332.025C43.3763 331.925 43.4121 331.8 43.4121 331.649C43.4121 331.42 43.3315 331.245 43.1704 331.123C43.0129 331.001 42.755 330.94 42.397 330.94C41.7202 330.94 41.1455 331.222 40.6729 331.784H40.5654L40.0391 331.01C40.3148 330.684 40.6567 330.428 41.0649 330.242C41.4767 330.056 41.9333 329.963 42.4346 329.963C43.1758 329.963 43.7165 330.122 44.0566 330.441C44.4004 330.76 44.5723 331.207 44.5723 331.784V334.641C44.5723 334.938 44.6994 335.087 44.9536 335.087C45.0467 335.087 45.1362 335.071 45.2222 335.039L45.2974 335.06L45.3994 335.882C45.3278 335.932 45.2275 335.971 45.0986 336C44.9733 336.029 44.839 336.043 44.6958 336.043C44.3556 336.043 44.0942 335.973 43.9116 335.833C43.7326 335.694 43.609 335.481 43.541 335.194L43.4282 335.184C43.2707 335.495 43.0522 335.728 42.7729 335.882C42.4972 336.036 42.1517 336.113 41.7363 336.113ZM42.0693 335.205C42.3451 335.205 42.5868 335.142 42.7944 335.017C43.0021 334.888 43.1615 334.706 43.2725 334.469C43.3835 334.233 43.439 333.955 43.439 333.637V332.96L43.3369 332.938C43.2259 333.021 43.0863 333.091 42.918 333.148C42.7533 333.202 42.5169 333.254 42.209 333.304C41.7936 333.365 41.4982 333.474 41.3228 333.631C41.1509 333.785 41.0649 334.004 41.0649 334.287C41.0649 334.587 41.1527 334.817 41.3281 334.974C41.5036 335.128 41.7507 335.205 42.0693 335.205ZM48.5469 336.113C48.0742 336.113 47.6553 336 47.29 335.774C46.9284 335.545 46.6455 335.201 46.4414 334.743C46.2373 334.285 46.1353 333.717 46.1353 333.041C46.1353 332.364 46.2409 331.796 46.4521 331.338C46.667 330.876 46.9606 330.532 47.333 330.307C47.709 330.077 48.1423 329.963 48.6328 329.963C49.016 329.963 49.3543 330.033 49.6479 330.172C49.9416 330.308 50.1904 330.529 50.3945 330.833L50.5073 330.806V327.696H51.689V336H50.5073V335.184L50.3945 335.162C50.2119 335.449 49.9666 335.68 49.6587 335.855C49.3507 336.027 48.9801 336.113 48.5469 336.113ZM48.9229 335.087C49.4098 335.087 49.7965 334.919 50.083 334.582C50.3695 334.242 50.5127 333.728 50.5127 333.041C50.5127 332.346 50.3695 331.83 50.083 331.494C49.7965 331.153 49.4098 330.983 48.9229 330.983C47.8809 330.983 47.3599 331.669 47.3599 333.041C47.3599 334.405 47.8809 335.087 48.9229 335.087ZM55.3735 336.113C54.9868 336.113 54.6287 336.064 54.2993 335.968C53.9735 335.871 53.696 335.739 53.4668 335.57C53.2412 335.398 53.0765 335.205 52.9727 334.99L53.644 334.276H53.7568C54.1471 334.838 54.6878 335.119 55.3789 335.119C55.7406 335.119 56.0145 335.051 56.2007 334.915C56.3905 334.775 56.4854 334.582 56.4854 334.335C56.4854 334.142 56.4227 333.982 56.2974 333.857C56.1756 333.728 55.9805 333.631 55.7119 333.567L54.8203 333.347C54.2617 333.214 53.8517 333.007 53.5903 332.724C53.3325 332.437 53.2036 332.081 53.2036 331.655C53.2036 331.307 53.2913 331.007 53.4668 330.752C53.6458 330.498 53.8983 330.303 54.2241 330.167C54.55 330.031 54.9331 329.963 55.3735 329.963C55.9142 329.963 56.3493 330.04 56.6787 330.194C57.0117 330.344 57.2713 330.552 57.4575 330.817L56.813 331.488H56.7056C56.5301 331.284 56.3332 331.137 56.1147 331.048C55.8999 330.958 55.6528 330.914 55.3735 330.914C55.0262 330.914 54.7648 330.973 54.5894 331.091C54.4139 331.205 54.3262 331.374 54.3262 331.596C54.3262 331.793 54.3906 331.952 54.5195 332.074C54.6484 332.195 54.8722 332.294 55.1909 332.369L56.0503 332.568C56.6089 332.693 57.0135 332.897 57.2642 333.18C57.5184 333.463 57.6455 333.832 57.6455 334.287C57.6455 334.648 57.5578 334.967 57.3823 335.243C57.2069 335.515 56.9491 335.728 56.6089 335.882C56.2687 336.036 55.8569 336.113 55.3735 336.113Z" fill="#0E1318" fill-opacity="0.7"/>
<g filter="url(#filter5_dd_6839_95002)">
<path d="M20 364C20 359.582 23.5817 356 28 356H44C48.4183 356 52 359.582 52 364V380C52 384.418 48.4183 388 44 388H28C23.5817 388 20 384.418 20 380V364Z" fill="white"/>
<path fill-rule="evenodd" clip-rule="evenodd" d="M44.0705 363.455C42.846 362.231 40.8608 362.231 39.6364 363.455L34.2486 368.843C33.8204 369.271 33.5151 369.807 33.3646 370.393L32.5202 373.685C32.315 374.485 33.0417 375.212 33.8417 375.008L37.1198 374.171C37.7084 374.02 38.2456 373.714 38.6752 373.285L44.0705 367.889C45.2949 366.665 45.2949 364.68 44.0705 363.455ZM41.9533 367.885L43.0098 366.829C43.6484 366.19 43.6484 365.155 43.0098 364.516C42.3712 363.877 41.3357 363.877 40.697 364.516L39.6406 365.573L41.9533 367.885ZM40.7865 369.052L37.6145 372.224C37.3754 372.463 37.0763 372.634 36.7487 372.717L34.1466 373.382L34.8176 370.766C34.9013 370.44 35.0711 370.142 35.3093 369.904L38.4737 366.739L40.7865 369.052Z" fill="#0E1318" fill-opacity="0.7"/>
<path d="M29.1435 375.022C28.7895 375.022 28.5024 375.309 28.5024 375.663C28.5024 376.017 28.7895 376.304 29.1435 376.304H42.8951C44.0598 376.304 45.004 377.248 45.004 378.413C45.004 379.578 44.0598 380.522 42.8951 380.522H33.1938C32.7795 380.522 32.4438 380.186 32.4438 379.772C32.4438 379.358 32.7795 379.022 33.1938 379.022H42.8951C43.2314 379.022 43.504 378.749 43.504 378.413C43.504 378.077 43.2314 377.804 42.8951 377.804H29.1435C27.961 377.804 27.0024 376.846 27.0024 375.663C27.0024 374.481 27.961 373.522 29.1435 373.522H31.0063V375.022H29.1435Z" fill="#0E1318" fill-opacity="0.7"/>
</g>
<path d="M25.9614 396.147C27.2039 396.147 28.1618 396.475 28.835 397.13C29.5081 397.786 29.8447 398.767 29.8447 400.074C29.8447 401.377 29.5081 402.358 28.835 403.017C28.1618 403.672 27.2039 404 25.9614 404H23.2812V396.147H25.9614ZM25.8701 402.953C26.4681 402.953 26.9622 402.858 27.3525 402.668C27.7464 402.478 28.0436 402.172 28.2441 401.75C28.4482 401.323 28.5503 400.765 28.5503 400.074C28.5503 399.379 28.4482 398.82 28.2441 398.398C28.0436 397.975 27.7464 397.669 27.3525 397.479C26.9622 397.286 26.4681 397.189 25.8701 397.189H24.5166V402.953H25.8701ZM31.499 404V398.076H32.6377V398.978L32.7505 399.005C32.8937 398.665 33.0889 398.416 33.3359 398.258C33.583 398.101 33.882 398.022 34.2329 398.022C34.6089 398.022 34.8882 398.086 35.0708 398.215L34.8345 399.23L34.7217 399.252C34.6214 399.205 34.5194 399.171 34.4155 399.15C34.3117 399.125 34.1917 399.112 34.0557 399.112C33.6117 399.112 33.2715 399.273 33.0352 399.596C32.7988 399.918 32.6807 400.439 32.6807 401.159V404H31.499ZM37.4341 404.113C36.854 404.113 36.3993 403.959 36.0698 403.651C35.7404 403.339 35.5757 402.899 35.5757 402.33C35.5757 401.979 35.6491 401.683 35.7959 401.443C35.9427 401.203 36.1719 401.008 36.4834 400.858C36.7949 400.704 37.1995 400.586 37.6973 400.503C38.0876 400.439 38.3848 400.367 38.5889 400.289C38.793 400.21 38.9308 400.122 39.0024 400.025C39.0741 399.925 39.1099 399.8 39.1099 399.649C39.1099 399.42 39.0293 399.245 38.8682 399.123C38.7106 399.001 38.4528 398.94 38.0947 398.94C37.418 398.94 36.8433 399.222 36.3706 399.784H36.2632L35.7368 399.01C36.0125 398.684 36.3545 398.428 36.7627 398.242C37.1745 398.056 37.631 397.963 38.1323 397.963C38.8735 397.963 39.4142 398.122 39.7544 398.441C40.0981 398.76 40.27 399.207 40.27 399.784V402.641C40.27 402.938 40.3971 403.087 40.6514 403.087C40.7445 403.087 40.834 403.071 40.9199 403.039L40.9951 403.06L41.0972 403.882C41.0256 403.932 40.9253 403.971 40.7964 404C40.6711 404.029 40.5368 404.043 40.3936 404.043C40.0534 404.043 39.792 403.973 39.6094 403.833C39.4303 403.694 39.3068 403.481 39.2388 403.194L39.126 403.184C38.9684 403.495 38.75 403.728 38.4707 403.882C38.195 404.036 37.8494 404.113 37.4341 404.113ZM37.7671 403.205C38.0428 403.205 38.2845 403.142 38.4922 403.017C38.6999 402.888 38.8592 402.706 38.9702 402.469C39.0812 402.233 39.1367 401.955 39.1367 401.637V400.96L39.0347 400.938C38.9237 401.021 38.784 401.091 38.6157 401.148C38.451 401.202 38.2147 401.254 37.9067 401.304C37.4914 401.365 37.196 401.474 37.0205 401.631C36.8486 401.785 36.7627 402.004 36.7627 402.287C36.7627 402.587 36.8504 402.817 37.0259 402.974C37.2013 403.128 37.4484 403.205 37.7671 403.205ZM44.2285 404H42.8965L41.4678 398.076H42.5903L43.584 402.528H43.6968L44.9536 398.076H46.0547L47.3491 402.528H47.4619L48.4341 398.076H49.5244L48.1118 404H46.7744L45.5337 399.682H45.4209L44.2285 404Z" fill="#0E1318" fill-opacity="0.7"/>
<g filter="url(#filter6_dd_6839_95002)">
<path d="M20 432C20 427.582 23.5817 424 28 424H44C48.4183 424 52 427.582 52 432V448C52 452.418 48.4183 456 44 456H28C23.5817 456 20 452.418 20 448V432Z" fill="white"/>
<path fill-rule="evenodd" clip-rule="evenodd" d="M34.8446 430.942L31.0302 430.942C28.8238 430.942 27.034 432.729 27.0302 434.936L27.0132 444.936C27.0094 447.147 28.8014 448.942 31.0132 448.942L41.0064 448.942C43.2155 448.942 45.0064 447.152 45.0064 444.942V436.712C45.0064 435.055 43.6632 433.712 42.0064 433.712L38.3923 433.712C38.2029 433.712 38.0298 433.605 37.9451 433.435L37.5278 432.601C37.0197 431.584 35.9809 430.942 34.8446 430.942ZM31.0302 432.442L34.8446 432.442C35.4127 432.442 35.9321 432.763 36.1862 433.272L36.6034 434.106C36.9422 434.784 37.6347 435.212 38.3923 435.212L42.0064 435.212C42.8348 435.212 43.5064 435.883 43.5064 436.712V437.447H28.526L28.5302 434.938C28.5326 433.559 29.6512 432.442 31.0302 432.442ZM28.5234 438.947L28.5132 444.938C28.5108 446.32 29.6308 447.442 31.0132 447.442L41.0064 447.442C42.3871 447.442 43.5064 446.323 43.5064 444.942V438.947H28.5234Z" fill="#0E1318" fill-opacity="0.7"/>
</g>
<path d="M18.0659 464.147C18.6174 464.147 19.09 464.248 19.4839 464.448C19.8778 464.649 20.175 464.932 20.3755 465.297C20.5796 465.659 20.6816 466.085 20.6816 466.575C20.6816 467.062 20.5796 467.488 20.3755 467.854C20.175 468.215 19.8778 468.496 19.4839 468.697C19.09 468.897 18.6174 468.998 18.0659 468.998H16.3794V472H15.144V464.147H18.0659ZM17.9478 467.988C18.9253 467.988 19.4141 467.517 19.4141 466.575C19.4141 465.626 18.9253 465.152 17.9478 465.152H16.3794V467.988H17.9478ZM21.9976 472V466.076H23.1362V466.978L23.249 467.005C23.3923 466.665 23.5874 466.416 23.8345 466.258C24.0815 466.101 24.3805 466.022 24.7314 466.022C25.1074 466.022 25.3867 466.086 25.5693 466.215L25.333 467.23L25.2202 467.252C25.12 467.205 25.0179 467.171 24.9141 467.15C24.8102 467.125 24.6903 467.112 24.5542 467.112C24.1102 467.112 23.77 467.273 23.5337 467.596C23.2974 467.918 23.1792 468.439 23.1792 469.159V472H21.9976ZM28.9316 472.113C28.3623 472.113 27.8646 471.995 27.4385 471.758C27.0124 471.522 26.6829 471.173 26.4502 470.711C26.2174 470.249 26.1011 469.692 26.1011 469.041C26.1011 468.385 26.2174 467.828 26.4502 467.37C26.6829 466.908 27.0124 466.559 27.4385 466.323C27.8646 466.083 28.3623 465.963 28.9316 465.963C29.501 465.963 29.9987 466.083 30.4248 466.323C30.8509 466.559 31.1803 466.908 31.4131 467.37C31.6494 467.828 31.7676 468.385 31.7676 469.041C31.7676 469.692 31.6494 470.249 31.4131 470.711C31.1803 471.173 30.8509 471.522 30.4248 471.758C29.9987 471.995 29.501 472.113 28.9316 472.113ZM28.9316 471.087C30.0023 471.087 30.5376 470.405 30.5376 469.041C30.5376 467.669 30.0023 466.983 28.9316 466.983C28.4124 466.983 28.015 467.152 27.7393 467.488C27.4635 467.821 27.3257 468.339 27.3257 469.041C27.3257 470.405 27.861 471.087 28.9316 471.087ZM33.8892 465.146C33.6636 465.146 33.4792 465.077 33.3359 464.937C33.1927 464.797 33.1211 464.618 33.1211 464.4C33.1211 464.185 33.1927 464.008 33.3359 463.868C33.4792 463.729 33.6636 463.659 33.8892 463.659C34.1147 463.659 34.2992 463.729 34.4424 463.868C34.5892 464.008 34.6626 464.185 34.6626 464.4C34.6626 464.618 34.591 464.797 34.4478 464.937C34.3045 465.077 34.1183 465.146 33.8892 465.146ZM32.729 474.514C32.3351 474.514 32.0075 474.46 31.7461 474.353L31.9072 473.429L32.0093 473.396C32.1668 473.465 32.3423 473.499 32.5356 473.499C32.7863 473.499 32.9761 473.42 33.105 473.262C33.2339 473.105 33.2983 472.875 33.2983 472.575V466.076H34.48V472.537C34.48 473.178 34.3296 473.667 34.0288 474.003C33.728 474.344 33.2948 474.514 32.729 474.514ZM41.1777 469.304H37.2354C37.3034 470.493 37.8548 471.087 38.8896 471.087C39.2728 471.087 39.5807 471.019 39.8135 470.883C40.0498 470.743 40.236 470.528 40.3721 470.238H40.4849L41.2637 470.722C41.0811 471.144 40.7964 471.483 40.4097 471.737C40.0265 471.987 39.5199 472.113 38.8896 472.113C38.2988 472.113 37.7886 471.998 37.3589 471.769C36.9292 471.54 36.598 471.196 36.3652 470.738C36.1325 470.279 36.0161 469.714 36.0161 469.041C36.0161 468.367 36.1379 467.8 36.3813 467.338C36.6248 466.876 36.9578 466.532 37.3804 466.307C37.8029 466.077 38.2791 465.963 38.8091 465.963C39.6076 465.963 40.2235 466.181 40.6567 466.618C41.0936 467.055 41.3138 467.698 41.3174 468.546C41.3174 468.865 41.3084 469.096 41.2905 469.239L41.1777 469.304ZM40.1733 468.46C40.159 467.92 40.0355 467.526 39.8027 467.279C39.5736 467.032 39.2424 466.908 38.8091 466.908C38.3722 466.908 38.0213 467.032 37.7563 467.279C37.495 467.526 37.3302 467.92 37.2622 468.46H40.1733ZM45.2329 472.113C44.6851 472.113 44.1963 471.995 43.7666 471.758C43.3405 471.518 43.0057 471.167 42.7622 470.706C42.5187 470.244 42.397 469.689 42.397 469.041C42.397 468.392 42.5187 467.837 42.7622 467.375C43.0057 466.91 43.3405 466.559 43.7666 466.323C44.1927 466.083 44.6779 465.963 45.2222 465.963C45.8631 465.963 46.3734 466.081 46.7529 466.317C47.1325 466.554 47.4046 466.878 47.5693 467.29L46.7637 467.87H46.6509C46.5112 467.569 46.3286 467.347 46.103 467.204C45.881 467.057 45.5874 466.983 45.2222 466.983C44.728 466.983 44.3377 467.157 44.0513 467.504C43.7648 467.848 43.6216 468.36 43.6216 469.041C43.6216 469.714 43.7648 470.224 44.0513 470.571C44.3413 470.915 44.7352 471.087 45.2329 471.087C45.9705 471.087 46.4647 470.725 46.7153 470.002L46.8281 469.997L47.6445 470.458C47.4906 470.956 47.2131 471.357 46.812 471.662C46.411 471.962 45.8846 472.113 45.2329 472.113ZM51.9683 470.824L52.3013 471.688C52.1509 471.825 51.9575 471.928 51.7212 472C51.4849 472.075 51.2235 472.113 50.937 472.113C50.3426 472.113 49.8896 471.955 49.5781 471.64C49.2666 471.325 49.1108 470.854 49.1108 470.228V467.021H48.144V466.07H49.1108V464.867L50.2925 464.674V466.07H52.0864V467.021H50.2925V470.131C50.2925 470.46 50.3605 470.698 50.4966 470.845C50.6362 470.992 50.835 471.065 51.0928 471.065C51.3828 471.065 51.637 470.985 51.8555 470.824H51.9683ZM55.2231 472.113C54.8364 472.113 54.4784 472.064 54.1489 471.968C53.8231 471.871 53.5456 471.739 53.3164 471.57C53.0908 471.398 52.9261 471.205 52.8223 470.99L53.4937 470.276H53.6064C53.9967 470.838 54.5374 471.119 55.2285 471.119C55.5902 471.119 55.8641 471.051 56.0503 470.915C56.2401 470.775 56.335 470.582 56.335 470.335C56.335 470.142 56.2723 469.982 56.147 469.857C56.0252 469.728 55.8301 469.631 55.5615 469.567L54.6699 469.347C54.1113 469.214 53.7013 469.007 53.4399 468.724C53.1821 468.437 53.0532 468.081 53.0532 467.655C53.0532 467.307 53.141 467.007 53.3164 466.752C53.4954 466.498 53.7479 466.303 54.0737 466.167C54.3996 466.031 54.7827 465.963 55.2231 465.963C55.7638 465.963 56.1989 466.04 56.5283 466.194C56.8613 466.344 57.1209 466.552 57.3071 466.817L56.6626 467.488H56.5552C56.3797 467.284 56.1828 467.137 55.9644 467.048C55.7495 466.958 55.5024 466.914 55.2231 466.914C54.8758 466.914 54.6144 466.973 54.439 467.091C54.2635 467.205 54.1758 467.374 54.1758 467.596C54.1758 467.793 54.2402 467.952 54.3691 468.074C54.498 468.195 54.7218 468.294 55.0405 468.369L55.8999 468.568C56.4585 468.693 56.8631 468.897 57.1138 469.18C57.368 469.463 57.4951 469.832 57.4951 470.287C57.4951 470.648 57.4074 470.967 57.2319 471.243C57.0565 471.515 56.7987 471.728 56.4585 471.882C56.1183 472.036 55.7065 472.113 55.2231 472.113Z" fill="#0E1318" fill-opacity="0.7"/>
<g filter="url(#filter7_dd_6839_95002)">
<path d="M20 500C20 495.582 23.5817 492 28 492H44C48.4183 492 52 495.582 52 500V516C52 520.418 48.4183 524 44 524H28C23.5817 524 20 520.418 20 516V500Z" fill="white"/>
<path fill-rule="evenodd" clip-rule="evenodd" d="M29.5709 499.363C28.1545 499.363 27.0063 500.522 27.0063 501.951V504.775C27.0063 506.204 28.1545 507.363 29.5709 507.363H32.3686C33.7849 507.363 34.9331 506.204 34.9331 504.775V501.951C34.9331 500.522 33.7849 499.363 32.3686 499.363H29.5709ZM29.5709 500.863C28.9959 500.863 28.5063 501.337 28.5063 501.951V504.775C28.5063 505.389 28.9959 505.863 29.5709 505.863H32.3686C32.9435 505.863 33.4331 505.389 33.4331 504.775V501.951C33.4331 501.337 32.9435 500.863 32.3686 500.863H29.5709Z" fill="#0E1318" fill-opacity="0.7"/>
<path fill-rule="evenodd" clip-rule="evenodd" d="M39.5763 499.363C38.1599 499.363 37.0117 500.522 37.0117 501.951V504.775C37.0117 506.204 38.1599 507.363 39.5763 507.363H42.374C43.7903 507.363 44.9385 506.204 44.9385 504.775V501.951C44.9385 500.522 43.7903 499.363 42.374 499.363H39.5763ZM39.5763 500.863C39.0013 500.863 38.5117 501.337 38.5117 501.951V504.775C38.5117 505.389 39.0013 505.863 39.5763 505.863H42.374C42.9489 505.863 43.4385 505.389 43.4385 504.775V501.951C43.4385 501.337 42.9489 500.863 42.374 500.863H39.5763Z" fill="#0E1318" fill-opacity="0.7"/>
<path fill-rule="evenodd" clip-rule="evenodd" d="M29.5709 509.383C28.1545 509.383 27.0063 510.542 27.0063 511.971V514.795C27.0063 516.224 28.1545 517.383 29.5709 517.383H32.3686C33.7849 517.383 34.9331 516.224 34.9331 514.795V511.971C34.9331 510.542 33.7849 509.383 32.3686 509.383H29.5709ZM28.5063 511.971C28.5063 511.357 28.9959 510.883 29.5709 510.883H32.3686C32.9435 510.883 33.4331 511.357 33.4331 511.971V514.795C33.4331 515.409 32.9435 515.883 32.3686 515.883H29.5709C28.9959 515.883 28.5063 515.409 28.5063 514.795V511.971Z" fill="#0E1318" fill-opacity="0.7"/>
<path d="M40.9751 509.414C41.3893 509.414 41.7251 509.75 41.7251 510.164V512.633H44.1938C44.6081 512.633 44.9438 512.969 44.9438 513.383C44.9438 513.797 44.6081 514.133 44.1938 514.133H41.7251V516.602C41.7251 517.016 41.3893 517.352 40.9751 517.352C40.5609 517.352 40.2251 517.016 40.2251 516.602V514.133H37.7563C37.3421 514.133 37.0063 513.797 37.0063 513.383C37.0063 512.969 37.3421 512.633 37.7563 512.633H40.2251V510.164C40.2251 509.75 40.5609 509.414 40.9751 509.414Z" fill="#0E1318" fill-opacity="0.7"/>
</g>
<path d="M29.7158 540H28.4053L27.7446 538.018H24.5649L23.9097 540H22.626L25.3545 532.147H26.9873L29.7158 540ZM26.085 533.442L24.9141 536.976H27.3955L26.2192 533.442H26.085ZM30.876 542.401V534.076H32.0576V534.903L32.1704 534.924C32.3709 534.598 32.627 534.357 32.9385 534.199C33.25 534.042 33.6063 533.963 34.0073 533.963C34.4943 533.963 34.9186 534.076 35.2803 534.301C35.6419 534.527 35.923 534.871 36.1235 535.333C36.3241 535.791 36.4243 536.36 36.4243 537.041C36.4243 537.717 36.3169 538.285 36.1021 538.743C35.8908 539.201 35.5972 539.545 35.2212 539.774C34.8488 540 34.4173 540.113 33.9268 540.113C33.5436 540.113 33.207 540.047 32.917 539.914C32.627 539.782 32.3781 539.57 32.1704 539.28L32.0576 539.302V542.401H30.876ZM33.6206 539.087C34.1326 539.087 34.5229 538.924 34.7915 538.598C35.0636 538.269 35.1997 537.75 35.1997 537.041C35.1997 536.328 35.0636 535.807 34.7915 535.478C34.5229 535.148 34.1326 534.983 33.6206 534.983C33.1444 534.983 32.763 535.153 32.4766 535.494C32.1901 535.834 32.0469 536.349 32.0469 537.041C32.0469 537.728 32.1901 538.242 32.4766 538.582C32.763 538.919 33.1444 539.087 33.6206 539.087ZM37.9658 542.401V534.076H39.1475V534.903L39.2603 534.924C39.4608 534.598 39.7168 534.357 40.0283 534.199C40.3398 534.042 40.6961 533.963 41.0972 533.963C41.5841 533.963 42.0085 534.076 42.3701 534.301C42.7318 534.527 43.0129 534.871 43.2134 535.333C43.4139 535.791 43.5142 536.36 43.5142 537.041C43.5142 537.717 43.4067 538.285 43.1919 538.743C42.9806 539.201 42.687 539.545 42.311 539.774C41.9386 540 41.5072 540.113 41.0166 540.113C40.6335 540.113 40.2969 540.047 40.0068 539.914C39.7168 539.782 39.4679 539.57 39.2603 539.28L39.1475 539.302V542.401H37.9658ZM40.7104 539.087C41.2225 539.087 41.6128 538.924 41.8813 538.598C42.1535 538.269 42.2896 537.75 42.2896 537.041C42.2896 536.328 42.1535 535.807 41.8813 535.478C41.6128 535.148 41.2225 534.983 40.7104 534.983C40.2342 534.983 39.8529 535.153 39.5664 535.494C39.2799 535.834 39.1367 536.349 39.1367 537.041C39.1367 537.728 39.2799 538.242 39.5664 538.582C39.8529 538.919 40.2342 539.087 40.7104 539.087ZM46.8496 540.113C46.4629 540.113 46.1048 540.064 45.7754 539.968C45.4495 539.871 45.172 539.739 44.9429 539.57C44.7173 539.398 44.5526 539.205 44.4487 538.99L45.1201 538.276H45.2329C45.6232 538.838 46.1639 539.119 46.855 539.119C47.2166 539.119 47.4906 539.051 47.6768 538.915C47.8665 538.775 47.9614 538.582 47.9614 538.335C47.9614 538.142 47.8988 537.982 47.7734 537.857C47.6517 537.728 47.4565 537.631 47.188 537.567L46.2964 537.347C45.7378 537.214 45.3278 537.007 45.0664 536.724C44.8086 536.437 44.6797 536.081 44.6797 535.655C44.6797 535.307 44.7674 535.007 44.9429 534.752C45.1219 534.498 45.3743 534.303 45.7002 534.167C46.026 534.031 46.4092 533.963 46.8496 533.963C47.3903 533.963 47.8254 534.04 48.1548 534.194C48.4878 534.344 48.7474 534.552 48.9336 534.817L48.2891 535.488H48.1816C48.0062 535.284 47.8092 535.137 47.5908 535.048C47.376 534.958 47.1289 534.914 46.8496 534.914C46.5023 534.914 46.2409 534.973 46.0654 535.091C45.89 535.205 45.8022 535.374 45.8022 535.596C45.8022 535.793 45.8667 535.952 45.9956 536.074C46.1245 536.195 46.3483 536.294 46.667 536.369L47.5264 536.568C48.085 536.693 48.4896 536.897 48.7402 537.18C48.9945 537.463 49.1216 537.832 49.1216 538.287C49.1216 538.648 49.0339 538.967 48.8584 539.243C48.6829 539.515 48.4251 539.728 48.085 539.882C47.7448 540.036 47.333 540.113 46.8496 540.113Z" fill="#0E1318" fill-opacity="0.7"/>
</g>
</g>
<defs>
<filter id="filter0_dd_6839_95002" x="17" y="15" width="38" height="38" filterUnits="userSpaceOnUse" color-interpolation-filters="sRGB">
<feFlood flood-opacity="0" result="BackgroundImageFix"/>
<feColorMatrix in="SourceAlpha" type="matrix" values="0 0 0 0 0 0 0 0 0 0 0 0 0 0 0 0 0 0 127 0" result="hardAlpha"/>
<feMorphology radius="1" operator="erode" in="SourceAlpha" result="effect1_dropShadow_6839_95002"/>
<feOffset dy="2"/>
<feGaussianBlur stdDeviation="2"/>
<feColorMatrix type="matrix" values="0 0 0 0 0.25098 0 0 0 0 0.341176 0 0 0 0 0.427451 0 0 0 0.3 0"/>
<feBlend mode="normal" in2="BackgroundImageFix" result="effect1_dropShadow_6839_95002"/>
<feColorMatrix in="SourceAlpha" type="matrix" values="0 0 0 0 0 0 0 0 0 0 0 0 0 0 0 0 0 0 127 0" result="hardAlpha"/>
<feMorphology radius="1" operator="dilate" in="SourceAlpha" result="effect2_dropShadow_6839_95002"/>
<feOffset/>
<feColorMatrix type="matrix" values="0 0 0 0 0.25098 0 0 0 0 0.341176 0 0 0 0 0.427451 0 0 0 0.04 0"/>
<feBlend mode="normal" in2="effect1_dropShadow_6839_95002" result="effect2_dropShadow_6839_95002"/>
<feBlend mode="normal" in="SourceGraphic" in2="effect2_dropShadow_6839_95002" result="shape"/>
</filter>
<filter id="filter1_dd_6839_95002" x="17" y="83" width="38" height="38" filterUnits="userSpaceOnUse" color-interpolation-filters="sRGB">
<feFlood flood-opacity="0" result="BackgroundImageFix"/>
<feColorMatrix in="SourceAlpha" type="matrix" values="0 0 0 0 0 0 0 0 0 0 0 0 0 0 0 0 0 0 127 0" result="hardAlpha"/>
<feMorphology radius="1" operator="erode" in="SourceAlpha" result="effect1_dropShadow_6839_95002"/>
<feOffset dy="2"/>
<feGaussianBlur stdDeviation="2"/>
<feColorMatrix type="matrix" values="0 0 0 0 0.25098 0 0 0 0 0.341176 0 0 0 0 0.427451 0 0 0 0.3 0"/>
<feBlend mode="normal" in2="BackgroundImageFix" result="effect1_dropShadow_6839_95002"/>
<feColorMatrix in="SourceAlpha" type="matrix" values="0 0 0 0 0 0 0 0 0 0 0 0 0 0 0 0 0 0 127 0" result="hardAlpha"/>
<feMorphology radius="1" operator="dilate" in="SourceAlpha" result="effect2_dropShadow_6839_95002"/>
<feOffset/>
<feColorMatrix type="matrix" values="0 0 0 0 0.25098 0 0 0 0 0.341176 0 0 0 0 0.427451 0 0 0 0.04 0"/>
<feBlend mode="normal" in2="effect1_dropShadow_6839_95002" result="effect2_dropShadow_6839_95002"/>
<feBlend mode="normal" in="SourceGraphic" in2="effect2_dropShadow_6839_95002" result="shape"/>
</filter>
<filter id="filter2_dd_6839_95002" x="17" y="151" width="38" height="38" filterUnits="userSpaceOnUse" color-interpolation-filters="sRGB">
<feFlood flood-opacity="0" result="BackgroundImageFix"/>
<feColorMatrix in="SourceAlpha" type="matrix" values="0 0 0 0 0 0 0 0 0 0 0 0 0 0 0 0 0 0 127 0" result="hardAlpha"/>
<feMorphology radius="1" operator="erode" in="SourceAlpha" result="effect1_dropShadow_6839_95002"/>
<feOffset dy="2"/>
<feGaussianBlur stdDeviation="2"/>
<feColorMatrix type="matrix" values="0 0 0 0 0.25098 0 0 0 0 0.341176 0 0 0 0 0.427451 0 0 0 0.3 0"/>
<feBlend mode="normal" in2="BackgroundImageFix" result="effect1_dropShadow_6839_95002"/>
<feColorMatrix in="SourceAlpha" type="matrix" values="0 0 0 0 0 0 0 0 0 0 0 0 0 0 0 0 0 0 127 0" result="hardAlpha"/>
<feMorphology radius="1" operator="dilate" in="SourceAlpha" result="effect2_dropShadow_6839_95002"/>
<feOffset/>
<feColorMatrix type="matrix" values="0 0 0 0 0.25098 0 0 0 0 0.341176 0 0 0 0 0.427451 0 0 0 0.04 0"/>
<feBlend mode="normal" in2="effect1_dropShadow_6839_95002" result="effect2_dropShadow_6839_95002"/>
<feBlend mode="normal" in="SourceGraphic" in2="effect2_dropShadow_6839_95002" result="shape"/>
</filter>
<filter id="filter3_dd_6839_95002" x="17" y="219" width="38" height="38" filterUnits="userSpaceOnUse" color-interpolation-filters="sRGB">
<feFlood flood-opacity="0" result="BackgroundImageFix"/>
<feColorMatrix in="SourceAlpha" type="matrix" values="0 0 0 0 0 0 0 0 0 0 0 0 0 0 0 0 0 0 127 0" result="hardAlpha"/>
<feMorphology radius="1" operator="erode" in="SourceAlpha" result="effect1_dropShadow_6839_95002"/>
<feOffset dy="2"/>
<feGaussianBlur stdDeviation="2"/>
<feColorMatrix type="matrix" values="0 0 0 0 0.25098 0 0 0 0 0.341176 0 0 0 0 0.427451 0 0 0 0.3 0"/>
<feBlend mode="normal" in2="BackgroundImageFix" result="effect1_dropShadow_6839_95002"/>
<feColorMatrix in="SourceAlpha" type="matrix" values="0 0 0 0 0 0 0 0 0 0 0 0 0 0 0 0 0 0 127 0" result="hardAlpha"/>
<feMorphology radius="1" operator="dilate" in="SourceAlpha" result="effect2_dropShadow_6839_95002"/>
<feOffset/>
<feColorMatrix type="matrix" values="0 0 0 0 0.25098 0 0 0 0 0.341176 0 0 0 0 0.427451 0 0 0 0.04 0"/>
<feBlend mode="normal" in2="effect1_dropShadow_6839_95002" result="effect2_dropShadow_6839_95002"/>
<feBlend mode="normal" in="SourceGraphic" in2="effect2_dropShadow_6839_95002" result="shape"/>
</filter>
<filter id="filter4_dd_6839_95002" x="17" y="287" width="38" height="38" filterUnits="userSpaceOnUse" color-interpolation-filters="sRGB">
<feFlood flood-opacity="0" result="BackgroundImageFix"/>
<feColorMatrix in="SourceAlpha" type="matrix" values="0 0 0 0 0 0 0 0 0 0 0 0 0 0 0 0 0 0 127 0" result="hardAlpha"/>
<feMorphology radius="1" operator="erode" in="SourceAlpha" result="effect1_dropShadow_6839_95002"/>
<feOffset dy="2"/>
<feGaussianBlur stdDeviation="2"/>
<feColorMatrix type="matrix" values="0 0 0 0 0.25098 0 0 0 0 0.341176 0 0 0 0 0.427451 0 0 0 0.3 0"/>
<feBlend mode="normal" in2="BackgroundImageFix" result="effect1_dropShadow_6839_95002"/>
<feColorMatrix in="SourceAlpha" type="matrix" values="0 0 0 0 0 0 0 0 0 0 0 0 0 0 0 0 0 0 127 0" result="hardAlpha"/>
<feMorphology radius="1" operator="dilate" in="SourceAlpha" result="effect2_dropShadow_6839_95002"/>
<feOffset/>
<feColorMatrix type="matrix" values="0 0 0 0 0.25098 0 0 0 0 0.341176 0 0 0 0 0.427451 0 0 0 0.04 0"/>
<feBlend mode="normal" in2="effect1_dropShadow_6839_95002" result="effect2_dropShadow_6839_95002"/>
<feBlend mode="normal" in="SourceGraphic" in2="effect2_dropShadow_6839_95002" result="shape"/>
</filter>
<filter id="filter5_dd_6839_95002" x="17" y="355" width="38" height="38" filterUnits="userSpaceOnUse" color-interpolation-filters="sRGB">
<feFlood flood-opacity="0" result="BackgroundImageFix"/>
<feColorMatrix in="SourceAlpha" type="matrix" values="0 0 0 0 0 0 0 0 0 0 0 0 0 0 0 0 0 0 127 0" result="hardAlpha"/>
<feMorphology radius="1" operator="erode" in="SourceAlpha" result="effect1_dropShadow_6839_95002"/>
<feOffset dy="2"/>
<feGaussianBlur stdDeviation="2"/>
<feColorMatrix type="matrix" values="0 0 0 0 0.25098 0 0 0 0 0.341176 0 0 0 0 0.427451 0 0 0 0.3 0"/>
<feBlend mode="normal" in2="BackgroundImageFix" result="effect1_dropShadow_6839_95002"/>
<feColorMatrix in="SourceAlpha" type="matrix" values="0 0 0 0 0 0 0 0 0 0 0 0 0 0 0 0 0 0 127 0" result="hardAlpha"/>
<feMorphology radius="1" operator="dilate" in="SourceAlpha" result="effect2_dropShadow_6839_95002"/>
<feOffset/>
<feColorMatrix type="matrix" values="0 0 0 0 0.25098 0 0 0 0 0.341176 0 0 0 0 0.427451 0 0 0 0.04 0"/>
<feBlend mode="normal" in2="effect1_dropShadow_6839_95002" result="effect2_dropShadow_6839_95002"/>
<feBlend mode="normal" in="SourceGraphic" in2="effect2_dropShadow_6839_95002" result="shape"/>
</filter>
<filter id="filter6_dd_6839_95002" x="17" y="423" width="38" height="38" filterUnits="userSpaceOnUse" color-interpolation-filters="sRGB">
<feFlood flood-opacity="0" result="BackgroundImageFix"/>
<feColorMatrix in="SourceAlpha" type="matrix" values="0 0 0 0 0 0 0 0 0 0 0 0 0 0 0 0 0 0 127 0" result="hardAlpha"/>
<feMorphology radius="1" operator="erode" in="SourceAlpha" result="effect1_dropShadow_6839_95002"/>
<feOffset dy="2"/>
<feGaussianBlur stdDeviation="2"/>
<feColorMatrix type="matrix" values="0 0 0 0 0.25098 0 0 0 0 0.341176 0 0 0 0 0.427451 0 0 0 0.3 0"/>
<feBlend mode="normal" in2="BackgroundImageFix" result="effect1_dropShadow_6839_95002"/>
<feColorMatrix in="SourceAlpha" type="matrix" values="0 0 0 0 0 0 0 0 0 0 0 0 0 0 0 0 0 0 127 0" result="hardAlpha"/>
<feMorphology radius="1" operator="dilate" in="SourceAlpha" result="effect2_dropShadow_6839_95002"/>
<feOffset/>
<feColorMatrix type="matrix" values="0 0 0 0 0.25098 0 0 0 0 0.341176 0 0 0 0 0.427451 0 0 0 0.04 0"/>
<feBlend mode="normal" in2="effect1_dropShadow_6839_95002" result="effect2_dropShadow_6839_95002"/>
<feBlend mode="normal" in="SourceGraphic" in2="effect2_dropShadow_6839_95002" result="shape"/>
</filter>
<filter id="filter7_dd_6839_95002" x="17" y="491" width="38" height="38" filterUnits="userSpaceOnUse" color-interpolation-filters="sRGB">
<feFlood flood-opacity="0" result="BackgroundImageFix"/>
<feColorMatrix in="SourceAlpha" type="matrix" values="0 0 0 0 0 0 0 0 0 0 0 0 0 0 0 0 0 0 127 0" result="hardAlpha"/>
<feMorphology radius="1" operator="erode" in="SourceAlpha" result="effect1_dropShadow_6839_95002"/>
<feOffset dy="2"/>
<feGaussianBlur stdDeviation="2"/>
<feColorMatrix type="matrix" values="0 0 0 0 0.25098 0 0 0 0 0.341176 0 0 0 0 0.427451 0 0 0 0.3 0"/>
<feBlend mode="normal" in2="BackgroundImageFix" result="effect1_dropShadow_6839_95002"/>
<feColorMatrix in="SourceAlpha" type="matrix" values="0 0 0 0 0 0 0 0 0 0 0 0 0 0 0 0 0 0 127 0" result="hardAlpha"/>
<feMorphology radius="1" operator="dilate" in="SourceAlpha" result="effect2_dropShadow_6839_95002"/>
<feOffset/>
<feColorMatrix type="matrix" values="0 0 0 0 0.25098 0 0 0 0 0.341176 0 0 0 0 0.427451 0 0 0 0.04 0"/>
<feBlend mode="normal" in2="effect1_dropShadow_6839_95002" result="effect2_dropShadow_6839_95002"/>
<feBlend mode="normal" in="SourceGraphic" in2="effect2_dropShadow_6839_95002" result="shape"/>
</filter>
<clipPath id="clip0_6839_95002">
<rect width="72" height="560" fill="white"/>
</clipPath>
</defs>
</svg>
