<svg width="375" height="768" viewBox="0 0 375 768" fill="none" xmlns="http://www.w3.org/2000/svg">
<g clip-path="url(#clip0_6839_95748)">
<rect width="375" height="768" fill="#2B3B4A" fill-opacity="0.3"/>
<g filter="url(#filter0_dd_6839_95748)">
<g clip-path="url(#clip1_6839_95748)">
<path d="M0 56C0 49.3726 5.37258 44 12 44H363C369.627 44 375 49.3726 375 56V768H0V56Z" fill="white"/>
<rect width="375" height="16" transform="translate(0 44)" fill="white"/>
<g clip-path="url(#clip2_6839_95748)">
<mask id="mask0_6839_95748" style="mask-type:alpha" maskUnits="userSpaceOnUse" x="0" y="662" width="375" height="72">
<rect y="662" width="345" height="72" fill="#D9D9D9"/>
<rect x="345" y="662" width="30" height="72" fill="url(#paint0_linear_6839_95748)"/>
</mask>
<g mask="url(#mask0_6839_95748)">
<g filter="url(#filter1_dd_6839_95748)">
<path d="M20 680C20 675.582 23.5817 672 28 672H44C48.4183 672 52 675.582 52 680V696C52 700.418 48.4183 704 44 704H28C23.5817 704 20 700.418 20 696V680Z" fill="white"/>
<rect opacity="0.1" x="27" y="679" width="18" height="18" rx="4" fill="#4A2E7E"/>
</g>
<rect x="13.5" y="712" width="45" height="8" rx="4" fill="#394C60" fill-opacity="0.15"/>
<line y1="662.5" x2="375" y2="662.5" stroke="#394C60" stroke-opacity="0.15"/>
<g filter="url(#filter2_dd_6839_95748)">
<path d="M86 680C86 675.582 89.5817 672 94 672H110C114.418 672 118 675.582 118 680V696C118 700.418 114.418 704 110 704H94C89.5817 704 86 700.418 86 696V680Z" fill="white"/>
<rect opacity="0.1" x="93" y="679" width="18" height="18" rx="4" fill="#4A2E7E"/>
</g>
<rect x="79.5" y="712" width="45" height="8" rx="4" fill="#394C60" fill-opacity="0.15"/>
<g filter="url(#filter3_dd_6839_95748)">
<path d="M152 680C152 675.582 155.582 672 160 672H176C180.418 672 184 675.582 184 680V696C184 700.418 180.418 704 176 704H160C155.582 704 152 700.418 152 696V680Z" fill="white"/>
<rect opacity="0.1" x="159" y="679" width="18" height="18" rx="4" fill="#4A2E7E"/>
</g>
<rect x="145.5" y="712" width="45" height="8" rx="4" fill="#394C60" fill-opacity="0.15"/>
<g filter="url(#filter4_dd_6839_95748)">
<path d="M218 680C218 675.582 221.582 672 226 672H242C246.418 672 250 675.582 250 680V696C250 700.418 246.418 704 242 704H226C221.582 704 218 700.418 218 696V680Z" fill="white"/>
<rect opacity="0.1" x="225" y="679" width="18" height="18" rx="4" fill="#4A2E7E"/>
</g>
<rect x="211.5" y="712" width="45" height="8" rx="4" fill="#394C60" fill-opacity="0.15"/>
<g filter="url(#filter5_dd_6839_95748)">
<path d="M284 680C284 675.582 287.582 672 292 672H308C312.418 672 316 675.582 316 680V696C316 700.418 312.418 704 308 704H292C287.582 704 284 700.418 284 696V680Z" fill="white"/>
<rect opacity="0.1" x="291" y="679" width="18" height="18" rx="4" fill="#4A2E7E"/>
</g>
<rect x="277.5" y="712" width="45" height="8" rx="4" fill="#394C60" fill-opacity="0.15"/>
<g filter="url(#filter6_dd_6839_95748)">
<path d="M350 680C350 675.582 353.582 672 358 672H374C378.418 672 382 675.582 382 680V696C382 700.418 378.418 704 374 704H358C353.582 704 350 700.418 350 696V680Z" fill="white"/>
<rect opacity="0.1" x="357" y="679" width="18" height="18" rx="4" fill="#4A2E7E"/>
</g>
<rect x="343.5" y="712" width="45" height="8" rx="4" fill="#394C60" fill-opacity="0.15"/>
</g>
</g>
<rect x="120" y="755" width="135" height="5" rx="2.5" fill="black"/>
</g>
</g>
</g>
<defs>
<filter id="filter0_dd_6839_95748" x="-16" y="43" width="407" height="757" filterUnits="userSpaceOnUse" color-interpolation-filters="sRGB">
<feFlood flood-opacity="0" result="BackgroundImageFix"/>
<feColorMatrix in="SourceAlpha" type="matrix" values="0 0 0 0 0 0 0 0 0 0 0 0 0 0 0 0 0 0 127 0" result="hardAlpha"/>
<feMorphology radius="8" operator="erode" in="SourceAlpha" result="effect1_dropShadow_6839_95748"/>
<feOffset dy="16"/>
<feGaussianBlur stdDeviation="12"/>
<feColorMatrix type="matrix" values="0 0 0 0 0.0794444 0 0 0 0 0.108333 0 0 0 0 0.137222 0 0 0 0.14 0"/>
<feBlend mode="normal" in2="BackgroundImageFix" result="effect1_dropShadow_6839_95748"/>
<feColorMatrix in="SourceAlpha" type="matrix" values="0 0 0 0 0 0 0 0 0 0 0 0 0 0 0 0 0 0 127 0" result="hardAlpha"/>
<feMorphology radius="1" operator="dilate" in="SourceAlpha" result="effect2_dropShadow_6839_95748"/>
<feOffset/>
<feComposite in2="hardAlpha" operator="out"/>
<feColorMatrix type="matrix" values="0 0 0 0 0 0 0 0 0 0 0 0 0 0 0 0 0 0 0.05 0"/>
<feBlend mode="normal" in2="effect1_dropShadow_6839_95748" result="effect2_dropShadow_6839_95748"/>
<feBlend mode="normal" in="SourceGraphic" in2="effect2_dropShadow_6839_95748" result="shape"/>
</filter>
<filter id="filter1_dd_6839_95748" x="17" y="671" width="38" height="38" filterUnits="userSpaceOnUse" color-interpolation-filters="sRGB">
<feFlood flood-opacity="0" result="BackgroundImageFix"/>
<feColorMatrix in="SourceAlpha" type="matrix" values="0 0 0 0 0 0 0 0 0 0 0 0 0 0 0 0 0 0 127 0" result="hardAlpha"/>
<feMorphology radius="1" operator="erode" in="SourceAlpha" result="effect1_dropShadow_6839_95748"/>
<feOffset dy="2"/>
<feGaussianBlur stdDeviation="2"/>
<feColorMatrix type="matrix" values="0 0 0 0 0.25098 0 0 0 0 0.341176 0 0 0 0 0.427451 0 0 0 0.3 0"/>
<feBlend mode="normal" in2="BackgroundImageFix" result="effect1_dropShadow_6839_95748"/>
<feColorMatrix in="SourceAlpha" type="matrix" values="0 0 0 0 0 0 0 0 0 0 0 0 0 0 0 0 0 0 127 0" result="hardAlpha"/>
<feMorphology radius="1" operator="dilate" in="SourceAlpha" result="effect2_dropShadow_6839_95748"/>
<feOffset/>
<feColorMatrix type="matrix" values="0 0 0 0 0.25098 0 0 0 0 0.341176 0 0 0 0 0.427451 0 0 0 0.04 0"/>
<feBlend mode="normal" in2="effect1_dropShadow_6839_95748" result="effect2_dropShadow_6839_95748"/>
<feBlend mode="normal" in="SourceGraphic" in2="effect2_dropShadow_6839_95748" result="shape"/>
</filter>
<filter id="filter2_dd_6839_95748" x="83" y="671" width="38" height="38" filterUnits="userSpaceOnUse" color-interpolation-filters="sRGB">
<feFlood flood-opacity="0" result="BackgroundImageFix"/>
<feColorMatrix in="SourceAlpha" type="matrix" values="0 0 0 0 0 0 0 0 0 0 0 0 0 0 0 0 0 0 127 0" result="hardAlpha"/>
<feMorphology radius="1" operator="erode" in="SourceAlpha" result="effect1_dropShadow_6839_95748"/>
<feOffset dy="2"/>
<feGaussianBlur stdDeviation="2"/>
<feColorMatrix type="matrix" values="0 0 0 0 0.25098 0 0 0 0 0.341176 0 0 0 0 0.427451 0 0 0 0.3 0"/>
<feBlend mode="normal" in2="BackgroundImageFix" result="effect1_dropShadow_6839_95748"/>
<feColorMatrix in="SourceAlpha" type="matrix" values="0 0 0 0 0 0 0 0 0 0 0 0 0 0 0 0 0 0 127 0" result="hardAlpha"/>
<feMorphology radius="1" operator="dilate" in="SourceAlpha" result="effect2_dropShadow_6839_95748"/>
<feOffset/>
<feColorMatrix type="matrix" values="0 0 0 0 0.25098 0 0 0 0 0.341176 0 0 0 0 0.427451 0 0 0 0.04 0"/>
<feBlend mode="normal" in2="effect1_dropShadow_6839_95748" result="effect2_dropShadow_6839_95748"/>
<feBlend mode="normal" in="SourceGraphic" in2="effect2_dropShadow_6839_95748" result="shape"/>
</filter>
<filter id="filter3_dd_6839_95748" x="149" y="671" width="38" height="38" filterUnits="userSpaceOnUse" color-interpolation-filters="sRGB">
<feFlood flood-opacity="0" result="BackgroundImageFix"/>
<feColorMatrix in="SourceAlpha" type="matrix" values="0 0 0 0 0 0 0 0 0 0 0 0 0 0 0 0 0 0 127 0" result="hardAlpha"/>
<feMorphology radius="1" operator="erode" in="SourceAlpha" result="effect1_dropShadow_6839_95748"/>
<feOffset dy="2"/>
<feGaussianBlur stdDeviation="2"/>
<feColorMatrix type="matrix" values="0 0 0 0 0.25098 0 0 0 0 0.341176 0 0 0 0 0.427451 0 0 0 0.3 0"/>
<feBlend mode="normal" in2="BackgroundImageFix" result="effect1_dropShadow_6839_95748"/>
<feColorMatrix in="SourceAlpha" type="matrix" values="0 0 0 0 0 0 0 0 0 0 0 0 0 0 0 0 0 0 127 0" result="hardAlpha"/>
<feMorphology radius="1" operator="dilate" in="SourceAlpha" result="effect2_dropShadow_6839_95748"/>
<feOffset/>
<feColorMatrix type="matrix" values="0 0 0 0 0.25098 0 0 0 0 0.341176 0 0 0 0 0.427451 0 0 0 0.04 0"/>
<feBlend mode="normal" in2="effect1_dropShadow_6839_95748" result="effect2_dropShadow_6839_95748"/>
<feBlend mode="normal" in="SourceGraphic" in2="effect2_dropShadow_6839_95748" result="shape"/>
</filter>
<filter id="filter4_dd_6839_95748" x="215" y="671" width="38" height="38" filterUnits="userSpaceOnUse" color-interpolation-filters="sRGB">
<feFlood flood-opacity="0" result="BackgroundImageFix"/>
<feColorMatrix in="SourceAlpha" type="matrix" values="0 0 0 0 0 0 0 0 0 0 0 0 0 0 0 0 0 0 127 0" result="hardAlpha"/>
<feMorphology radius="1" operator="erode" in="SourceAlpha" result="effect1_dropShadow_6839_95748"/>
<feOffset dy="2"/>
<feGaussianBlur stdDeviation="2"/>
<feColorMatrix type="matrix" values="0 0 0 0 0.25098 0 0 0 0 0.341176 0 0 0 0 0.427451 0 0 0 0.3 0"/>
<feBlend mode="normal" in2="BackgroundImageFix" result="effect1_dropShadow_6839_95748"/>
<feColorMatrix in="SourceAlpha" type="matrix" values="0 0 0 0 0 0 0 0 0 0 0 0 0 0 0 0 0 0 127 0" result="hardAlpha"/>
<feMorphology radius="1" operator="dilate" in="SourceAlpha" result="effect2_dropShadow_6839_95748"/>
<feOffset/>
<feColorMatrix type="matrix" values="0 0 0 0 0.25098 0 0 0 0 0.341176 0 0 0 0 0.427451 0 0 0 0.04 0"/>
<feBlend mode="normal" in2="effect1_dropShadow_6839_95748" result="effect2_dropShadow_6839_95748"/>
<feBlend mode="normal" in="SourceGraphic" in2="effect2_dropShadow_6839_95748" result="shape"/>
</filter>
<filter id="filter5_dd_6839_95748" x="281" y="671" width="38" height="38" filterUnits="userSpaceOnUse" color-interpolation-filters="sRGB">
<feFlood flood-opacity="0" result="BackgroundImageFix"/>
<feColorMatrix in="SourceAlpha" type="matrix" values="0 0 0 0 0 0 0 0 0 0 0 0 0 0 0 0 0 0 127 0" result="hardAlpha"/>
<feMorphology radius="1" operator="erode" in="SourceAlpha" result="effect1_dropShadow_6839_95748"/>
<feOffset dy="2"/>
<feGaussianBlur stdDeviation="2"/>
<feColorMatrix type="matrix" values="0 0 0 0 0.25098 0 0 0 0 0.341176 0 0 0 0 0.427451 0 0 0 0.3 0"/>
<feBlend mode="normal" in2="BackgroundImageFix" result="effect1_dropShadow_6839_95748"/>
<feColorMatrix in="SourceAlpha" type="matrix" values="0 0 0 0 0 0 0 0 0 0 0 0 0 0 0 0 0 0 127 0" result="hardAlpha"/>
<feMorphology radius="1" operator="dilate" in="SourceAlpha" result="effect2_dropShadow_6839_95748"/>
<feOffset/>
<feColorMatrix type="matrix" values="0 0 0 0 0.25098 0 0 0 0 0.341176 0 0 0 0 0.427451 0 0 0 0.04 0"/>
<feBlend mode="normal" in2="effect1_dropShadow_6839_95748" result="effect2_dropShadow_6839_95748"/>
<feBlend mode="normal" in="SourceGraphic" in2="effect2_dropShadow_6839_95748" result="shape"/>
</filter>
<filter id="filter6_dd_6839_95748" x="347" y="671" width="38" height="38" filterUnits="userSpaceOnUse" color-interpolation-filters="sRGB">
<feFlood flood-opacity="0" result="BackgroundImageFix"/>
<feColorMatrix in="SourceAlpha" type="matrix" values="0 0 0 0 0 0 0 0 0 0 0 0 0 0 0 0 0 0 127 0" result="hardAlpha"/>
<feMorphology radius="1" operator="erode" in="SourceAlpha" result="effect1_dropShadow_6839_95748"/>
<feOffset dy="2"/>
<feGaussianBlur stdDeviation="2"/>
<feColorMatrix type="matrix" values="0 0 0 0 0.25098 0 0 0 0 0.341176 0 0 0 0 0.427451 0 0 0 0.3 0"/>
<feBlend mode="normal" in2="BackgroundImageFix" result="effect1_dropShadow_6839_95748"/>
<feColorMatrix in="SourceAlpha" type="matrix" values="0 0 0 0 0 0 0 0 0 0 0 0 0 0 0 0 0 0 127 0" result="hardAlpha"/>
<feMorphology radius="1" operator="dilate" in="SourceAlpha" result="effect2_dropShadow_6839_95748"/>
<feOffset/>
<feColorMatrix type="matrix" values="0 0 0 0 0.25098 0 0 0 0 0.341176 0 0 0 0 0.427451 0 0 0 0.04 0"/>
<feBlend mode="normal" in2="effect1_dropShadow_6839_95748" result="effect2_dropShadow_6839_95748"/>
<feBlend mode="normal" in="SourceGraphic" in2="effect2_dropShadow_6839_95748" result="shape"/>
</filter>
<linearGradient id="paint0_linear_6839_95748" x1="345" y1="698" x2="375" y2="698" gradientUnits="userSpaceOnUse">
<stop stop-color="#D9D9D9"/>
<stop offset="1" stop-color="#D9D9D9" stop-opacity="0"/>
</linearGradient>
<clipPath id="clip0_6839_95748">
<rect width="375" height="768" rx="16" fill="white"/>
</clipPath>
<clipPath id="clip1_6839_95748">
<path d="M0 56C0 49.3726 5.37258 44 12 44H363C369.627 44 375 49.3726 375 56V768H0V56Z" fill="white"/>
</clipPath>
<clipPath id="clip2_6839_95748">
<rect width="375" height="72" fill="white" transform="translate(0 662)"/>
</clipPath>
</defs>
</svg>
