<svg width="457" height="724" viewBox="0 0 457 724" fill="none" xmlns="http://www.w3.org/2000/svg">
<g clip-path="url(#clip0_6839_95493)">
<mask id="mask0_6839_95493" style="mask-type:alpha" maskUnits="userSpaceOnUse" x="0" y="2" width="72" height="722">
<rect x="4" y="2" width="64" height="682" fill="#D9D9D9"/>
<rect y="684" width="72" height="40" fill="url(#paint0_linear_6839_95493)"/>
</mask>
<g mask="url(#mask0_6839_95493)">
<g filter="url(#filter0_dd_6839_95493)">
<path d="M20 26C20 21.5817 23.5817 18 28 18H44C48.4183 18 52 21.5817 52 26V42C52 46.4183 48.4183 50 44 50H28C23.5817 50 20 46.4183 20 42V26Z" fill="white"/>
<path fill-rule="evenodd" clip-rule="evenodd" d="M27 33.325C27 29.7347 27 27.9395 27.9661 26.7141C28.1851 26.4362 28.4362 26.1851 28.7141 25.9661C29.9395 25 31.7347 25 35.325 25H36.675C40.2653 25 42.0605 25 43.2859 25.9661C43.5638 26.1851 43.8149 26.4362 44.0339 26.7141C45 27.9395 45 29.7347 45 33.325V34.675C45 38.2653 45 40.0605 44.0339 41.2859C43.8149 41.5638 43.5638 41.8149 43.2859 42.0339C42.0605 43 40.2653 43 36.675 43H35.325C31.7347 43 29.9395 43 28.7141 42.0339C28.4362 41.8149 28.1851 41.5638 27.9661 41.2859C27 40.0605 27 38.2653 27 34.675V33.325ZM35.325 26.5H36.675C36.9642 26.5 37.2389 26.5001 37.5 26.5006L37.5 41.4994C37.2389 41.4999 36.9642 41.5 36.675 41.5H35.325C33.4942 41.5 32.2492 41.4977 31.304 41.389C30.3901 41.284 29.9479 41.0965 29.6427 40.856C29.4575 40.7099 29.2901 40.5425 29.144 40.3573C28.9035 40.0521 28.716 39.6099 28.611 38.696C28.5023 37.7508 28.5 36.5058 28.5 34.675V33.325C28.5 31.4942 28.5023 30.2492 28.611 29.304C28.716 28.3901 28.9035 27.9479 29.144 27.6427C29.2901 27.4575 29.4575 27.2901 29.6427 27.144C29.9479 26.9035 30.3901 26.716 31.304 26.611C32.2492 26.5023 33.4942 26.5 35.325 26.5ZM39 41.4856C39.6661 41.4716 40.2192 41.4438 40.696 41.389C41.6099 41.284 42.0521 41.0965 42.3573 40.856C42.5425 40.7099 42.7099 40.5425 42.856 40.3573C43.0965 40.0521 43.284 39.6099 43.389 38.696C43.4977 37.7508 43.5 36.5058 43.5 34.675V33.325C43.5 33.2209 43.5 33.1187 43.5 33.0184H39L39 41.4856ZM43.4938 31.5184C43.4837 30.6137 43.4575 29.8994 43.389 29.304C43.284 28.3901 43.0965 27.9479 42.856 27.6427C42.7099 27.4575 42.5425 27.2901 42.3573 27.144C42.0521 26.9035 41.6099 26.716 40.696 26.611C40.2192 26.5562 39.6661 26.5284 39 26.5144V31.5184H43.4938Z" fill="#0E1318" fill-opacity="0.7"/>
</g>
<path d="M21.627 58.1475C22.8695 58.1475 23.8273 58.4751 24.5005 59.1304C25.1737 59.7856 25.5103 60.7668 25.5103 62.0737C25.5103 63.3771 25.1737 64.3582 24.5005 65.0171C23.8273 65.6724 22.8695 66 21.627 66H18.9468V58.1475H21.627ZM21.5356 64.9526C22.1336 64.9526 22.6278 64.8577 23.0181 64.668C23.4119 64.4782 23.7091 64.172 23.9097 63.7495C24.1138 63.3234 24.2158 62.7648 24.2158 62.0737C24.2158 61.3791 24.1138 60.8205 23.9097 60.3979C23.7091 59.9754 23.4119 59.6693 23.0181 59.4795C22.6278 59.2861 22.1336 59.1895 21.5356 59.1895H20.1821V64.9526H21.5356ZM31.9717 63.3037H28.0293C28.0973 64.4925 28.6488 65.0869 29.6836 65.0869C30.0667 65.0869 30.3747 65.0189 30.6074 64.8828C30.8438 64.7432 31.0299 64.5283 31.166 64.2383H31.2788L32.0576 64.7217C31.875 65.1442 31.5903 65.4826 31.2036 65.7368C30.8205 65.9875 30.3138 66.1128 29.6836 66.1128C29.0928 66.1128 28.5825 65.9982 28.1528 65.769C27.7231 65.5399 27.3919 65.1961 27.1592 64.7378C26.9264 64.2795 26.8101 63.7137 26.8101 63.0405C26.8101 62.3674 26.9318 61.7998 27.1753 61.3379C27.4188 60.876 27.7518 60.5322 28.1743 60.3066C28.5968 60.0775 29.0731 59.9629 29.603 59.9629C30.4015 59.9629 31.0174 60.1813 31.4507 60.6182C31.8875 61.055 32.1077 61.6978 32.1113 62.5464C32.1113 62.8651 32.1024 63.096 32.0845 63.2393L31.9717 63.3037ZM30.9673 62.4604C30.953 61.9198 30.8294 61.5259 30.5967 61.2788C30.3675 61.0317 30.0363 60.9082 29.603 60.9082C29.1662 60.9082 28.8153 61.0317 28.5503 61.2788C28.2889 61.5259 28.1242 61.9198 28.0562 62.4604H30.9673ZM35.3394 66.1128C34.9526 66.1128 34.5946 66.0645 34.2651 65.9678C33.9393 65.8711 33.6618 65.7386 33.4326 65.5703C33.207 65.3984 33.0423 65.2051 32.9385 64.9902L33.6099 64.2759H33.7227C34.113 64.8381 34.6536 65.1191 35.3447 65.1191C35.7064 65.1191 35.9803 65.0511 36.1665 64.915C36.3563 64.7754 36.4512 64.582 36.4512 64.335C36.4512 64.1416 36.3885 63.9823 36.2632 63.8569C36.1414 63.728 35.9463 63.6313 35.6777 63.5669L34.7861 63.3467C34.2275 63.2142 33.8175 63.0065 33.5562 62.7236C33.2983 62.4372 33.1694 62.0809 33.1694 61.6548C33.1694 61.3075 33.2572 61.0067 33.4326 60.7524C33.6117 60.4982 33.8641 60.3031 34.1899 60.167C34.5158 60.0309 34.8989 59.9629 35.3394 59.9629C35.88 59.9629 36.3151 60.0399 36.6445 60.1938C36.9775 60.3442 37.2371 60.5519 37.4233 60.8169L36.7788 61.4883H36.6714C36.4959 61.2842 36.299 61.1374 36.0806 61.0479C35.8657 60.9583 35.6187 60.9136 35.3394 60.9136C34.992 60.9136 34.7306 60.9727 34.5552 61.0908C34.3797 61.2054 34.292 61.3737 34.292 61.5957C34.292 61.7926 34.3564 61.952 34.4854 62.0737C34.6143 62.1955 34.8381 62.2939 35.1567 62.3691L36.0161 62.5679C36.5747 62.6932 36.9793 62.8973 37.23 63.1802C37.4842 63.4631 37.6113 63.8319 37.6113 64.2866C37.6113 64.6483 37.5236 64.967 37.3481 65.2427C37.1727 65.5148 36.9149 65.7279 36.5747 65.8818C36.2345 66.0358 35.8228 66.1128 35.3394 66.1128ZM39.6147 59.1465C39.3892 59.1465 39.2048 59.0767 39.0615 58.937C38.9183 58.7974 38.8467 58.6183 38.8467 58.3999C38.8467 58.1851 38.9183 58.0078 39.0615 57.8682C39.2048 57.7285 39.3892 57.6587 39.6147 57.6587C39.8403 57.6587 40.0247 57.7285 40.168 57.8682C40.3148 58.0078 40.3882 58.1851 40.3882 58.3999C40.3882 58.6183 40.3166 58.7974 40.1733 58.937C40.0301 59.0767 39.8439 59.1465 39.6147 59.1465ZM39.0239 66V60.0757H40.2056V66H39.0239ZM44.2124 68.5137C43.2563 68.5137 42.5545 68.3633 42.1069 68.0625C41.6593 67.7653 41.4355 67.3607 41.4355 66.8486C41.4355 66.5264 41.5358 66.265 41.7363 66.0645C41.9368 65.8639 42.2251 65.7261 42.6011 65.6509V65.5381C42.4113 65.4271 42.2716 65.3 42.1821 65.1567C42.0926 65.0099 42.0479 64.8398 42.0479 64.6465C42.0479 64.1846 42.3468 63.8766 42.9448 63.7227V63.6099C42.3003 63.2554 41.978 62.7021 41.978 61.9502C41.978 61.5599 42.0675 61.2144 42.2466 60.9136C42.4256 60.6128 42.6834 60.38 43.02 60.2153C43.3566 60.047 43.7559 59.9629 44.2178 59.9629C44.7119 59.9629 45.1165 60.0596 45.4316 60.2529C45.6393 59.9951 45.7593 59.6782 45.7915 59.3022L45.9043 59.2324L46.7959 59.4473C46.7637 59.7373 46.6777 59.9844 46.5381 60.1885C46.3984 60.389 46.1925 60.5591 45.9204 60.6987V60.8169C46.2749 61.1069 46.4521 61.5169 46.4521 62.0469C46.4521 62.4157 46.3608 62.7487 46.1782 63.0459C45.9992 63.3395 45.7396 63.5705 45.3994 63.7388C45.0628 63.9071 44.6689 63.9912 44.2178 63.9912C44.1784 63.9912 44.0942 63.9876 43.9653 63.9805C43.8221 63.9733 43.7201 63.9697 43.6592 63.9697C43.498 63.9697 43.3709 64.0127 43.2778 64.0986C43.1847 64.1846 43.1382 64.2938 43.1382 64.4263C43.1382 64.5802 43.1919 64.6966 43.2993 64.7754C43.4103 64.8542 43.584 64.8989 43.8203 64.9097L45.1846 64.958C46.4342 64.9974 47.0591 65.5345 47.0591 66.5693C47.0591 66.9382 46.9624 67.2676 46.769 67.5576C46.5757 67.8512 46.266 68.084 45.8398 68.2559C45.4173 68.4277 44.8748 68.5137 44.2124 68.5137ZM44.2178 63.0942C44.5687 63.0942 44.8408 62.9976 45.0342 62.8042C45.2311 62.6108 45.3296 62.3369 45.3296 61.9824C45.3296 61.6243 45.2329 61.3486 45.0396 61.1553C44.8462 60.9583 44.5723 60.8599 44.2178 60.8599C43.8597 60.8599 43.5858 60.9565 43.396 61.1499C43.2062 61.3433 43.1113 61.6208 43.1113 61.9824C43.1113 62.3369 43.2062 62.6108 43.396 62.8042C43.5858 62.9976 43.8597 63.0942 44.2178 63.0942ZM44.2124 67.6006C44.7889 67.6006 45.2078 67.5129 45.4692 67.3374C45.7342 67.1655 45.8667 66.9471 45.8667 66.6821C45.8667 66.4565 45.7987 66.2936 45.6626 66.1934C45.5301 66.0931 45.3045 66.0358 44.9858 66.0215L43.7397 65.957L43.541 65.9517C43.2223 65.9552 42.986 66.0215 42.832 66.1504C42.6781 66.2829 42.6011 66.4637 42.6011 66.6929C42.6011 66.9901 42.7354 67.2157 43.0039 67.3696C43.2725 67.5236 43.6753 67.6006 44.2124 67.6006ZM48.2192 66V60.0757H49.3472V60.9727L49.46 60.9995C49.6497 60.6593 49.895 60.4015 50.1958 60.2261C50.4966 60.0506 50.8636 59.9629 51.2969 59.9629C51.9951 59.9629 52.5036 60.1473 52.8223 60.5161C53.1445 60.8813 53.3057 61.431 53.3057 62.165V66H52.124V62.2671C52.124 61.8052 52.0327 61.474 51.8501 61.2734C51.6675 61.0729 51.3739 60.9727 50.9692 60.9727C50.4858 60.9727 50.1027 61.1302 49.8198 61.4453C49.5405 61.7604 49.4009 62.2599 49.4009 62.9438V66H48.2192Z" fill="#0E1318" fill-opacity="0.7"/>
<g filter="url(#filter1_dd_6839_95493)">
<path d="M20 94C20 89.5817 23.5817 86 28 86H44C48.4183 86 52 89.5817 52 94V110C52 114.418 48.4183 118 44 118H28C23.5817 118 20 114.418 20 110V94Z" fill="white"/>
<path fill-rule="evenodd" clip-rule="evenodd" d="M30.5492 101.242C30.7709 101.361 31.0152 101.42 31.2586 101.42C31.5027 101.42 31.7472 101.361 31.9694 101.241L31.9723 101.24L31.9759 101.238L31.9852 101.233L32.0118 101.218C32.0331 101.206 32.0613 101.19 32.0956 101.17C32.1642 101.13 32.2579 101.074 32.3706 101.002C32.5949 100.859 32.9002 100.651 33.2357 100.383C33.8737 99.8724 34.7137 99.0715 35.2616 98.0082C35.5304 97.5587 35.6847 97.0324 35.6847 96.4741C35.6847 94.8221 34.3455 93.483 32.6936 93.483C32.1732 93.483 31.6844 93.6157 31.2587 93.8489C30.833 93.6156 30.3441 93.4829 29.8237 93.4829C28.1718 93.4829 26.8325 94.822 26.8325 96.474C26.8325 96.9925 26.9657 97.4842 27.2007 97.9122C27.7418 99.0136 28.6033 99.841 29.2563 100.365C29.5982 100.64 29.9102 100.852 30.1396 100.998C30.2548 101.072 30.3507 101.129 30.4209 101.17C30.456 101.19 30.4848 101.207 30.5065 101.219L30.5337 101.234L30.5432 101.239L30.5469 101.241L30.5492 101.242ZM28.5307 97.2173C28.8815 97.9484 29.4478 98.5573 29.9736 99.011C30.3951 99.3746 30.7906 99.6384 31.0286 99.7855C31.1718 99.8739 31.2585 99.9205 31.2585 99.9205C31.2585 99.9205 31.3447 99.8742 31.4879 99.7855C31.7256 99.638 32.1213 99.3732 32.5421 99.0089C33.0521 98.5674 33.5999 97.9793 33.9517 97.2748C34.0992 97.0435 34.1847 96.7688 34.1847 96.4741C34.1847 95.6506 33.5171 94.983 32.6936 94.983C32.6036 94.983 32.5156 94.991 32.43 95.0062C31.8664 95.1067 31.4124 95.5239 31.2586 96.0672C31.1049 95.5239 30.6509 95.1067 30.0873 95.0061C30.0017 94.9909 29.9136 94.9829 29.8237 94.9829C29.0001 94.9829 28.3325 95.6505 28.3325 96.474C28.3325 96.7447 28.4046 96.9985 28.5307 97.2173Z" fill="#0E1318" fill-opacity="0.7"/>
<path fill-rule="evenodd" clip-rule="evenodd" d="M41.5363 94.0113C41.1407 93.33 40.1568 93.33 39.7611 94.0113L36.4542 99.7054C36.0568 100.39 36.5505 101.247 37.3419 101.247H43.9556C44.7469 101.247 45.2406 100.39 44.8432 99.7054L41.5363 94.0113ZM40.6487 95.4697L38.1645 99.7473H43.1329L40.6487 95.4697Z" fill="#0E1318" fill-opacity="0.7"/>
<path fill-rule="evenodd" clip-rule="evenodd" d="M44.8614 107.168C44.8614 109.495 42.9753 111.381 40.6487 111.381C38.3221 111.381 36.436 109.495 36.436 107.168C36.436 104.842 38.3221 102.956 40.6487 102.956C42.9753 102.956 44.8614 104.842 44.8614 107.168ZM43.3614 107.168C43.3614 108.666 42.1469 109.881 40.6487 109.881C39.1505 109.881 37.936 108.666 37.936 107.168C37.936 105.67 39.1505 104.456 40.6487 104.456C42.1469 104.456 43.3614 105.67 43.3614 107.168Z" fill="#0E1318" fill-opacity="0.7"/>
<path fill-rule="evenodd" clip-rule="evenodd" d="M27.4063 104.086C27.4063 103.661 27.7509 103.316 28.1761 103.316H34.3166C34.7418 103.316 35.0864 103.661 35.0864 104.086V110.38C35.0864 110.72 34.8107 110.996 34.4706 110.996H28.1761C27.7509 110.996 27.4063 110.651 27.4063 110.226V104.086ZM28.9063 109.496V104.816H33.5864V109.496H28.9063Z" fill="#0E1318" fill-opacity="0.7"/>
</g>
<path d="M13.4253 130.423V132.969H17.3032V134H12.1899V126.147H17.2173V127.179H13.4253V129.408H16.7554V130.423H13.4253ZM20.1875 134.113C19.7113 134.113 19.3424 133.982 19.0811 133.721C18.8197 133.456 18.689 133.058 18.689 132.528V125.696H19.8706V132.469C19.8706 132.688 19.9136 132.845 19.9995 132.942C20.0854 133.039 20.2161 133.087 20.3916 133.087C20.4919 133.087 20.5993 133.071 20.7139 133.039L20.7891 133.06L20.9072 133.973C20.832 134.02 20.73 134.054 20.6011 134.075C20.4757 134.1 20.3379 134.113 20.1875 134.113ZM26.8477 131.304H22.9053C22.9733 132.493 23.5247 133.087 24.5596 133.087C24.9427 133.087 25.2507 133.019 25.4834 132.883C25.7197 132.743 25.9059 132.528 26.042 132.238H26.1548L26.9336 132.722C26.751 133.144 26.4663 133.483 26.0796 133.737C25.6965 133.987 25.1898 134.113 24.5596 134.113C23.9688 134.113 23.4585 133.998 23.0288 133.769C22.5991 133.54 22.2679 133.196 22.0352 132.738C21.8024 132.279 21.686 131.714 21.686 131.041C21.686 130.367 21.8078 129.8 22.0513 129.338C22.2948 128.876 22.6278 128.532 23.0503 128.307C23.4728 128.077 23.9491 127.963 24.479 127.963C25.2775 127.963 25.8934 128.181 26.3267 128.618C26.7635 129.055 26.9837 129.698 26.9873 130.546C26.9873 130.865 26.9784 131.096 26.9604 131.239L26.8477 131.304ZM25.8433 130.46C25.8289 129.92 25.7054 129.526 25.4727 129.279C25.2435 129.032 24.9123 128.908 24.479 128.908C24.0422 128.908 23.6912 129.032 23.4263 129.279C23.1649 129.526 23.0002 129.92 22.9321 130.46H25.8433ZM28.4214 134V128.076H29.5493V128.908L29.6621 128.93C29.8626 128.604 30.099 128.362 30.3711 128.205C30.6432 128.043 30.978 127.963 31.3755 127.963C31.8302 127.963 32.1883 128.051 32.4497 128.226C32.7111 128.402 32.908 128.67 33.0405 129.032H33.1533C33.3467 128.674 33.5902 128.407 33.8838 128.231C34.1774 128.052 34.5409 127.963 34.9741 127.963C35.59 127.963 36.0483 128.133 36.3491 128.473C36.6499 128.81 36.8003 129.315 36.8003 129.988V134H35.6187V130.09C35.6187 129.703 35.5381 129.42 35.377 129.241C35.2194 129.062 34.9652 128.973 34.6143 128.973C34.1846 128.973 33.8408 129.123 33.583 129.424C33.3288 129.725 33.2017 130.215 33.2017 130.896V134H32.02V130.09C32.02 129.703 31.9395 129.42 31.7783 129.241C31.6208 129.062 31.3665 128.973 31.0156 128.973C30.5859 128.973 30.2422 129.119 29.9844 129.413C29.7301 129.707 29.603 130.181 29.603 130.836V134H28.4214ZM43.4014 131.304H39.459C39.527 132.493 40.0785 133.087 41.1133 133.087C41.4964 133.087 41.8044 133.019 42.0371 132.883C42.2734 132.743 42.4596 132.528 42.5957 132.238H42.7085L43.4873 132.722C43.3047 133.144 43.02 133.483 42.6333 133.737C42.2502 133.987 41.7435 134.113 41.1133 134.113C40.5225 134.113 40.0122 133.998 39.5825 133.769C39.1528 133.54 38.8216 133.196 38.5889 132.738C38.3561 132.279 38.2397 131.714 38.2397 131.041C38.2397 130.367 38.3615 129.8 38.605 129.338C38.8485 128.876 39.1815 128.532 39.604 128.307C40.0265 128.077 40.5028 127.963 41.0327 127.963C41.8312 127.963 42.4471 128.181 42.8804 128.618C43.3172 129.055 43.5374 129.698 43.541 130.546C43.541 130.865 43.5321 131.096 43.5142 131.239L43.4014 131.304ZM42.397 130.46C42.3826 129.92 42.2591 129.526 42.0264 129.279C41.7972 129.032 41.466 128.908 41.0327 128.908C40.5959 128.908 40.245 129.032 39.98 129.279C39.7186 129.526 39.5539 129.92 39.4858 130.46H42.397ZM44.9751 134V128.076H46.103V128.973L46.2158 129C46.4056 128.659 46.6509 128.402 46.9517 128.226C47.2524 128.051 47.6195 127.963 48.0527 127.963C48.751 127.963 49.2594 128.147 49.5781 128.516C49.9004 128.881 50.0615 129.431 50.0615 130.165V134H48.8799V130.267C48.8799 129.805 48.7886 129.474 48.606 129.273C48.4233 129.073 48.1297 128.973 47.7251 128.973C47.2417 128.973 46.8586 129.13 46.5757 129.445C46.2964 129.76 46.1567 130.26 46.1567 130.944V134H44.9751ZM54.9224 132.824L55.2554 133.688C55.105 133.825 54.9116 133.928 54.6753 134C54.439 134.075 54.1776 134.113 53.8911 134.113C53.2967 134.113 52.8438 133.955 52.5322 133.64C52.2207 133.325 52.0649 132.854 52.0649 132.228V129.021H51.0981V128.07H52.0649V126.867L53.2466 126.674V128.07H55.0405V129.021H53.2466V132.131C53.2466 132.46 53.3146 132.698 53.4507 132.845C53.5903 132.992 53.7891 133.065 54.0469 133.065C54.3369 133.065 54.5911 132.985 54.8096 132.824H54.9224ZM58.1772 134.113C57.7905 134.113 57.4325 134.064 57.103 133.968C56.7772 133.871 56.4997 133.739 56.2705 133.57C56.0449 133.398 55.8802 133.205 55.7764 132.99L56.4478 132.276H56.5605C56.9508 132.838 57.4915 133.119 58.1826 133.119C58.5443 133.119 58.8182 133.051 59.0044 132.915C59.1942 132.775 59.2891 132.582 59.2891 132.335C59.2891 132.142 59.2264 131.982 59.1011 131.857C58.9793 131.728 58.7842 131.631 58.5156 131.567L57.624 131.347C57.0654 131.214 56.6554 131.007 56.394 130.724C56.1362 130.437 56.0073 130.081 56.0073 129.655C56.0073 129.307 56.0951 129.007 56.2705 128.752C56.4495 128.498 56.702 128.303 57.0278 128.167C57.3537 128.031 57.7368 127.963 58.1772 127.963C58.7179 127.963 59.153 128.04 59.4824 128.194C59.8154 128.344 60.075 128.552 60.2612 128.817L59.6167 129.488H59.5093C59.3338 129.284 59.1369 129.137 58.9185 129.048C58.7036 128.958 58.4565 128.914 58.1772 128.914C57.8299 128.914 57.5685 128.973 57.3931 129.091C57.2176 129.205 57.1299 129.374 57.1299 129.596C57.1299 129.793 57.1943 129.952 57.3232 130.074C57.4521 130.195 57.6759 130.294 57.9946 130.369L58.854 130.568C59.4126 130.693 59.8172 130.897 60.0679 131.18C60.3221 131.463 60.4492 131.832 60.4492 132.287C60.4492 132.648 60.3615 132.967 60.186 133.243C60.0106 133.515 59.7528 133.728 59.4126 133.882C59.0724 134.036 58.6606 134.113 58.1772 134.113Z" fill="#0E1318" fill-opacity="0.7"/>
<g filter="url(#filter2_dd_6839_95493)">
<path d="M20 162C20 157.582 23.5817 154 28 154H44C48.4183 154 52 157.582 52 162V178C52 182.418 48.4183 186 44 186H28C23.5817 186 20 182.418 20 178V162Z" fill="white"/>
<path d="M28.2656 163.792C28.2656 162.964 28.9372 162.292 29.7656 162.292H42.2344C43.0628 162.292 43.7344 162.964 43.7344 163.792V165.642C43.7344 166.056 43.3986 166.392 42.9844 166.392C42.5702 166.392 42.2344 166.056 42.2344 165.642V164.292C42.2344 164.016 42.0105 163.792 41.7344 163.792L36.75 163.792V175.73C36.75 176.007 36.9739 176.23 37.25 176.23H39.1252C39.5394 176.23 39.8752 176.566 39.8752 176.98C39.8752 177.395 39.5394 177.73 39.1252 177.73H32.8748C32.4606 177.73 32.1248 177.395 32.1248 176.98C32.1248 176.566 32.4606 176.23 32.8748 176.23H34.75C35.0261 176.23 35.25 176.007 35.25 175.73V163.792L30.2656 163.792C29.9895 163.792 29.7656 164.016 29.7656 164.292V165.67C29.7656 166.084 29.4298 166.42 29.0156 166.42C28.6014 166.42 28.2656 166.084 28.2656 165.67V163.792Z" fill="#0E1318" fill-opacity="0.7"/>
</g>
<path d="M31.1284 194.147V195.189H28.7651V202H27.5298V195.189H25.1665V194.147H31.1284ZM36.3706 199.304H32.4282C32.4963 200.493 33.0477 201.087 34.0825 201.087C34.4657 201.087 34.7736 201.019 35.0063 200.883C35.2427 200.743 35.4289 200.528 35.5649 200.238H35.6777L36.4565 200.722C36.2739 201.144 35.9893 201.483 35.6025 201.737C35.2194 201.987 34.7127 202.113 34.0825 202.113C33.4917 202.113 32.9814 201.998 32.5518 201.769C32.1221 201.54 31.7909 201.196 31.5581 200.738C31.3254 200.279 31.209 199.714 31.209 199.041C31.209 198.367 31.3307 197.8 31.5742 197.338C31.8177 196.876 32.1507 196.532 32.5732 196.307C32.9958 196.077 33.472 195.963 34.002 195.963C34.8005 195.963 35.4163 196.181 35.8496 196.618C36.2865 197.055 36.5067 197.698 36.5103 198.546C36.5103 198.865 36.5013 199.096 36.4834 199.239L36.3706 199.304ZM35.3662 198.46C35.3519 197.92 35.2284 197.526 34.9956 197.279C34.7664 197.032 34.4352 196.908 34.002 196.908C33.5651 196.908 33.2142 197.032 32.9492 197.279C32.6878 197.526 32.5231 197.92 32.4551 198.46H35.3662ZM38.3579 202H37.0903L38.8521 198.928L37.1816 196.076H38.4707L39.6685 198.187H39.792L40.9951 196.076H42.2358L40.6138 198.928L42.3271 202H41.0435L39.7544 199.664H39.6309L38.3579 202ZM46.5703 200.824L46.9033 201.688C46.7529 201.825 46.5596 201.928 46.3232 202C46.0869 202.075 45.8255 202.113 45.5391 202.113C44.9447 202.113 44.4917 201.955 44.1802 201.64C43.8687 201.325 43.7129 200.854 43.7129 200.228V197.021H42.7461V196.07H43.7129V194.867L44.8945 194.674V196.07H46.6885V197.021H44.8945V200.131C44.8945 200.46 44.9626 200.698 45.0986 200.845C45.2383 200.992 45.437 201.065 45.6948 201.065C45.9849 201.065 46.2391 200.985 46.4575 200.824H46.5703Z" fill="#0E1318" fill-opacity="0.7"/>
<g filter="url(#filter3_dd_6839_95493)">
<path d="M20 230C20 225.582 23.5817 222 28 222H44C48.4183 222 52 225.582 52 230V246C52 250.418 48.4183 254 44 254H28C23.5817 254 20 250.418 20 246V230Z" fill="white"/>
<path d="M33.0959 231.927L34.6416 230.63C35.4507 229.951 36.5636 229.872 37.4394 230.346L37.5807 230.295C38.1496 230.088 38.7305 229.98 39.3042 229.964C37.8826 228.281 35.3664 228.064 33.6775 229.481L28.9747 233.427L33.0959 231.927Z" fill="#0E1318" fill-opacity="0.7"/>
<path fill-rule="evenodd" clip-rule="evenodd" d="M35.8354 241.455C35.8354 239.965 37.0431 238.757 38.5328 238.757C40.0225 238.757 41.2301 239.965 41.2301 241.455C41.2301 242.944 40.0225 244.152 38.5328 244.152C37.0431 244.152 35.8354 242.944 35.8354 241.455ZM38.5328 240.007C37.7334 240.007 37.0854 240.655 37.0854 241.455C37.0854 242.254 37.7334 242.902 38.5328 242.902C39.3321 242.902 39.9801 242.254 39.9801 241.455C39.9801 240.655 39.3321 240.007 38.5328 240.007Z" fill="#0E1318" fill-opacity="0.7"/>
<path d="M32.02 241.455C32.02 240.655 32.668 240.007 33.4674 240.007C33.7919 240.007 34.0899 240.114 34.331 240.293C34.6078 240.499 34.9993 240.442 35.2056 240.166C35.4119 239.889 35.3547 239.497 35.0779 239.291C34.6284 238.956 34.0702 238.757 33.4674 238.757C31.9777 238.757 30.77 239.965 30.77 241.455C30.77 242.944 31.9777 244.152 33.4674 244.152C34.0628 244.152 34.6148 243.958 35.0615 243.631C35.3398 243.427 35.3999 243.036 35.1958 242.757C34.9916 242.479 34.6005 242.419 34.3221 242.623C34.0827 242.799 33.788 242.902 33.4674 242.902C32.668 242.902 32.02 242.254 32.02 241.455Z" fill="#0E1318" fill-opacity="0.7"/>
<path fill-rule="evenodd" clip-rule="evenodd" d="M31 235.455C28.7909 235.455 27 237.245 27 239.455V243.455C27 245.664 28.7909 247.455 31 247.455H41C43.2091 247.455 45 245.664 45 243.455V239.455C45 237.245 43.2091 235.455 41 235.455H31ZM41 236.955H31C29.6193 236.955 28.5 238.074 28.5 239.455V243.455C28.5 244.835 29.6193 245.955 31 245.955H41C42.3807 245.955 43.5 244.835 43.5 243.455V239.455C43.5 238.074 42.3807 236.955 41 236.955Z" fill="#0E1318" fill-opacity="0.7"/>
<path d="M38.6073 233.114L36.2968 233.955H31.9111L38.0942 231.704C40.1702 230.949 42.4655 232.019 43.2211 234.095L43.3638 234.487C42.7822 234.21 42.1443 234.032 41.4718 233.975C40.8302 233.107 39.6725 232.726 38.6073 233.114Z" fill="#0E1318" fill-opacity="0.7"/>
</g>
<path d="M20.9609 270V262.147H24.1245C24.6079 262.147 25.0179 262.224 25.3545 262.378C25.6911 262.529 25.9435 262.745 26.1118 263.028C26.2837 263.311 26.3696 263.648 26.3696 264.038C26.3696 264.382 26.2801 264.69 26.1011 264.962C25.9256 265.23 25.6732 265.444 25.3438 265.601V265.714C25.8522 265.843 26.2407 266.077 26.5093 266.417C26.7814 266.758 26.9175 267.18 26.9175 267.685C26.9175 268.426 26.6973 268.997 26.2568 269.398C25.8164 269.799 25.1629 270 24.2964 270H20.9609ZM23.9419 265.359C24.3394 265.359 24.6419 265.263 24.8496 265.069C25.0609 264.872 25.1665 264.593 25.1665 264.231C25.1665 263.483 24.7583 263.109 23.9419 263.109H22.1963V265.359H23.9419ZM24.1836 269.001C25.1683 269.001 25.6606 268.555 25.6606 267.664C25.6606 266.768 25.1683 266.321 24.1836 266.321H22.1963V269.001H24.1836ZM28.4268 270V264.076H29.5654V264.978L29.6782 265.005C29.8215 264.665 30.0166 264.416 30.2637 264.258C30.5107 264.101 30.8097 264.022 31.1606 264.022C31.5366 264.022 31.8159 264.086 31.9985 264.215L31.7622 265.23L31.6494 265.252C31.5492 265.205 31.4471 265.171 31.3433 265.15C31.2394 265.125 31.1195 265.112 30.9834 265.112C30.5394 265.112 30.1992 265.273 29.9629 265.596C29.7266 265.918 29.6084 266.439 29.6084 267.159V270H28.4268ZM34.3618 270.113C33.7817 270.113 33.327 269.959 32.9976 269.651C32.6681 269.339 32.5034 268.899 32.5034 268.33C32.5034 267.979 32.5768 267.683 32.7236 267.443C32.8704 267.203 33.0996 267.008 33.4111 266.858C33.7227 266.704 34.1273 266.586 34.625 266.503C35.0153 266.439 35.3125 266.367 35.5166 266.289C35.7207 266.21 35.8586 266.122 35.9302 266.025C36.0018 265.925 36.0376 265.8 36.0376 265.649C36.0376 265.42 35.957 265.245 35.7959 265.123C35.6383 265.001 35.3805 264.94 35.0225 264.94C34.3457 264.94 33.771 265.222 33.2983 265.784H33.1909L32.6646 265.01C32.9403 264.684 33.2822 264.428 33.6904 264.242C34.1022 264.056 34.5588 263.963 35.0601 263.963C35.8013 263.963 36.342 264.122 36.6821 264.441C37.0259 264.76 37.1978 265.207 37.1978 265.784V268.641C37.1978 268.938 37.3249 269.087 37.5791 269.087C37.6722 269.087 37.7617 269.071 37.8477 269.039L37.9229 269.06L38.0249 269.882C37.9533 269.932 37.853 269.971 37.7241 270C37.5988 270.029 37.4645 270.043 37.3213 270.043C36.9811 270.043 36.7197 269.973 36.5371 269.833C36.3581 269.694 36.2345 269.481 36.1665 269.194L36.0537 269.184C35.8962 269.495 35.6777 269.728 35.3984 269.882C35.1227 270.036 34.7772 270.113 34.3618 270.113ZM34.6948 269.205C34.9705 269.205 35.2122 269.142 35.4199 269.017C35.6276 268.888 35.7869 268.706 35.8979 268.469C36.009 268.233 36.0645 267.955 36.0645 267.637V266.96L35.9624 266.938C35.8514 267.021 35.7118 267.091 35.5435 267.148C35.3787 267.202 35.1424 267.254 34.8345 267.304C34.4191 267.365 34.1237 267.474 33.9482 267.631C33.7764 267.785 33.6904 268.004 33.6904 268.287C33.6904 268.587 33.7782 268.817 33.9536 268.974C34.1291 269.128 34.3761 269.205 34.6948 269.205ZM39.1152 270V264.076H40.2432V264.973L40.356 265C40.5457 264.659 40.791 264.402 41.0918 264.226C41.3926 264.051 41.7596 263.963 42.1929 263.963C42.8911 263.963 43.3996 264.147 43.7183 264.516C44.0405 264.881 44.2017 265.431 44.2017 266.165V270H43.02V266.267C43.02 265.805 42.9287 265.474 42.7461 265.273C42.5635 265.073 42.2699 264.973 41.8652 264.973C41.3818 264.973 40.9987 265.13 40.7158 265.445C40.4365 265.76 40.2969 266.26 40.2969 266.944V270H39.1152ZM48.0581 270.113C47.5854 270.113 47.1665 270 46.8013 269.774C46.4396 269.545 46.1567 269.201 45.9526 268.743C45.7485 268.285 45.6465 267.717 45.6465 267.041C45.6465 266.364 45.7521 265.796 45.9634 265.338C46.1782 264.876 46.4718 264.532 46.8442 264.307C47.2202 264.077 47.6535 263.963 48.144 263.963C48.5272 263.963 48.8656 264.033 49.1592 264.172C49.4528 264.308 49.7017 264.529 49.9058 264.833L50.0186 264.806V261.696H51.2002V270H50.0186V269.184L49.9058 269.162C49.7231 269.449 49.4779 269.68 49.1699 269.855C48.862 270.027 48.4914 270.113 48.0581 270.113ZM48.4341 269.087C48.9211 269.087 49.3078 268.919 49.5942 268.582C49.8807 268.242 50.0239 267.728 50.0239 267.041C50.0239 266.346 49.8807 265.83 49.5942 265.494C49.3078 265.153 48.9211 264.983 48.4341 264.983C47.3921 264.983 46.8711 265.669 46.8711 267.041C46.8711 268.405 47.3921 269.087 48.4341 269.087Z" fill="#0E1318" fill-opacity="0.7"/>
<g filter="url(#filter4_dd_6839_95493)">
<path d="M20 298C20 293.582 23.5817 290 28 290H44C48.4183 290 52 293.582 52 298V314C52 318.418 48.4183 322 44 322H28C23.5817 322 20 318.418 20 314V298Z" fill="white"/>
<path d="M35.2407 296.984C32.5052 296.984 30.1995 299.06 29.9241 301.773C29.9165 301.847 29.8641 301.912 29.8015 301.935C27.623 302.744 26.0688 304.842 26.0688 307.305C26.0688 310.467 28.6327 313.031 31.7954 313.031C34.9581 313.031 37.522 310.467 37.522 307.305V306.818L39.3041 308.601C39.597 308.894 40.0719 308.894 40.3648 308.601C40.6577 308.308 40.6577 307.833 40.3648 307.54L37.3023 304.477C37.0094 304.185 36.5345 304.185 36.2416 304.477L33.1791 307.54C32.8862 307.833 32.8862 308.308 33.1791 308.601C33.472 308.894 33.9469 308.894 34.2398 308.601L36.022 306.818V307.305C36.022 309.639 34.1297 311.531 31.7954 311.531C29.4611 311.531 27.5688 309.639 27.5688 307.305C27.5688 305.489 28.7139 303.939 30.3238 303.341C30.9297 303.116 31.3519 302.56 31.4164 301.924C31.6136 299.982 33.2705 298.484 35.2407 298.484C37.1339 298.484 38.7094 299.857 39.0263 301.659C39.1606 302.422 39.8063 303.025 40.5893 303.09C42.7348 303.267 44.4438 305.104 44.4438 307.305C44.4438 309.639 42.5516 311.531 40.2173 311.531H38.3032C37.889 311.531 37.5532 311.867 37.5532 312.281C37.5532 312.695 37.889 313.031 38.3032 313.031H40.2173C43.38 313.031 45.9438 310.467 45.9438 307.305C45.9438 304.326 43.6386 301.836 40.7129 301.595C40.6196 301.587 40.5216 301.501 40.5036 301.399C40.063 298.894 37.8758 296.984 35.2407 296.984Z" fill="#0E1318" fill-opacity="0.7"/>
</g>
<path d="M17.9961 338.113C16.972 338.113 16.2057 337.862 15.6973 337.361C15.1888 336.86 14.9346 336.117 14.9346 335.132V330.147H16.1538V335.121C16.1538 335.751 16.306 336.224 16.6104 336.539C16.9147 336.854 17.3766 337.012 17.9961 337.012C19.2207 337.012 19.833 336.382 19.833 335.121V330.147H21.0522V335.132C21.0522 336.117 20.798 336.86 20.2896 337.361C19.7811 337.862 19.0166 338.113 17.9961 338.113ZM23.0503 340.401V332.076H24.2319V332.903L24.3447 332.924C24.5452 332.598 24.8013 332.357 25.1128 332.199C25.4243 332.042 25.7806 331.963 26.1816 331.963C26.6686 331.963 27.0929 332.076 27.4546 332.301C27.8162 332.527 28.0973 332.871 28.2979 333.333C28.4984 333.791 28.5986 334.36 28.5986 335.041C28.5986 335.717 28.4912 336.285 28.2764 336.743C28.0651 337.201 27.7715 337.545 27.3955 337.774C27.0231 338 26.5916 338.113 26.1011 338.113C25.7179 338.113 25.3813 338.047 25.0913 337.914C24.8013 337.782 24.5524 337.57 24.3447 337.28L24.2319 337.302V340.401H23.0503ZM25.7949 337.087C26.307 337.087 26.6973 336.924 26.9658 336.598C27.238 336.269 27.374 335.75 27.374 335.041C27.374 334.328 27.238 333.807 26.9658 333.478C26.6973 333.148 26.307 332.983 25.7949 332.983C25.3187 332.983 24.9373 333.153 24.6509 333.494C24.3644 333.834 24.2212 334.349 24.2212 335.041C24.2212 335.728 24.3644 336.242 24.6509 336.582C24.9373 336.919 25.3187 337.087 25.7949 337.087ZM31.6064 338.113C31.1302 338.113 30.7614 337.982 30.5 337.721C30.2386 337.456 30.1079 337.058 30.1079 336.528V329.696H31.2896V336.469C31.2896 336.688 31.3325 336.845 31.4185 336.942C31.5044 337.039 31.6351 337.087 31.8105 337.087C31.9108 337.087 32.0182 337.071 32.1328 337.039L32.208 337.06L32.3262 337.973C32.251 338.02 32.1489 338.054 32.02 338.075C31.8947 338.1 31.7568 338.113 31.6064 338.113ZM35.9355 338.113C35.3662 338.113 34.8685 337.995 34.4424 337.758C34.0163 337.522 33.6868 337.173 33.4541 336.711C33.2214 336.249 33.105 335.692 33.105 335.041C33.105 334.385 33.2214 333.828 33.4541 333.37C33.6868 332.908 34.0163 332.559 34.4424 332.323C34.8685 332.083 35.3662 331.963 35.9355 331.963C36.5049 331.963 37.0026 332.083 37.4287 332.323C37.8548 332.559 38.1842 332.908 38.417 333.37C38.6533 333.828 38.7715 334.385 38.7715 335.041C38.7715 335.692 38.6533 336.249 38.417 336.711C38.1842 337.173 37.8548 337.522 37.4287 337.758C37.0026 337.995 36.5049 338.113 35.9355 338.113ZM35.9355 337.087C37.0062 337.087 37.5415 336.405 37.5415 335.041C37.5415 333.669 37.0062 332.983 35.9355 332.983C35.4163 332.983 35.0189 333.152 34.7432 333.488C34.4674 333.821 34.3296 334.339 34.3296 335.041C34.3296 336.405 34.8649 337.087 35.9355 337.087ZM41.7363 338.113C41.1562 338.113 40.7015 337.959 40.3721 337.651C40.0426 337.339 39.8779 336.899 39.8779 336.33C39.8779 335.979 39.9513 335.683 40.0981 335.443C40.245 335.203 40.4741 335.008 40.7856 334.858C41.0972 334.704 41.5018 334.586 41.9995 334.503C42.3898 334.439 42.687 334.367 42.8911 334.289C43.0952 334.21 43.2331 334.122 43.3047 334.025C43.3763 333.925 43.4121 333.8 43.4121 333.649C43.4121 333.42 43.3315 333.245 43.1704 333.123C43.0129 333.001 42.755 332.94 42.397 332.94C41.7202 332.94 41.1455 333.222 40.6729 333.784H40.5654L40.0391 333.01C40.3148 332.684 40.6567 332.428 41.0649 332.242C41.4767 332.056 41.9333 331.963 42.4346 331.963C43.1758 331.963 43.7165 332.122 44.0566 332.441C44.4004 332.76 44.5723 333.207 44.5723 333.784V336.641C44.5723 336.938 44.6994 337.087 44.9536 337.087C45.0467 337.087 45.1362 337.071 45.2222 337.039L45.2974 337.06L45.3994 337.882C45.3278 337.932 45.2275 337.971 45.0986 338C44.9733 338.029 44.839 338.043 44.6958 338.043C44.3556 338.043 44.0942 337.973 43.9116 337.833C43.7326 337.694 43.609 337.481 43.541 337.194L43.4282 337.184C43.2707 337.495 43.0522 337.728 42.7729 337.882C42.4972 338.036 42.1517 338.113 41.7363 338.113ZM42.0693 337.205C42.3451 337.205 42.5868 337.142 42.7944 337.017C43.0021 336.888 43.1615 336.706 43.2725 336.469C43.3835 336.233 43.439 335.955 43.439 335.637V334.96L43.3369 334.938C43.2259 335.021 43.0863 335.091 42.918 335.148C42.7533 335.202 42.5169 335.254 42.209 335.304C41.7936 335.365 41.4982 335.474 41.3228 335.631C41.1509 335.785 41.0649 336.004 41.0649 336.287C41.0649 336.587 41.1527 336.817 41.3281 336.974C41.5036 337.128 41.7507 337.205 42.0693 337.205ZM48.5469 338.113C48.0742 338.113 47.6553 338 47.29 337.774C46.9284 337.545 46.6455 337.201 46.4414 336.743C46.2373 336.285 46.1353 335.717 46.1353 335.041C46.1353 334.364 46.2409 333.796 46.4521 333.338C46.667 332.876 46.9606 332.532 47.333 332.307C47.709 332.077 48.1423 331.963 48.6328 331.963C49.016 331.963 49.3543 332.033 49.6479 332.172C49.9416 332.308 50.1904 332.529 50.3945 332.833L50.5073 332.806V329.696H51.689V338H50.5073V337.184L50.3945 337.162C50.2119 337.449 49.9666 337.68 49.6587 337.855C49.3507 338.027 48.9801 338.113 48.5469 338.113ZM48.9229 337.087C49.4098 337.087 49.7965 336.919 50.083 336.582C50.3695 336.242 50.5127 335.728 50.5127 335.041C50.5127 334.346 50.3695 333.83 50.083 333.494C49.7965 333.153 49.4098 332.983 48.9229 332.983C47.8809 332.983 47.3599 333.669 47.3599 335.041C47.3599 336.405 47.8809 337.087 48.9229 337.087ZM55.3735 338.113C54.9868 338.113 54.6287 338.064 54.2993 337.968C53.9735 337.871 53.696 337.739 53.4668 337.57C53.2412 337.398 53.0765 337.205 52.9727 336.99L53.644 336.276H53.7568C54.1471 336.838 54.6878 337.119 55.3789 337.119C55.7406 337.119 56.0145 337.051 56.2007 336.915C56.3905 336.775 56.4854 336.582 56.4854 336.335C56.4854 336.142 56.4227 335.982 56.2974 335.857C56.1756 335.728 55.9805 335.631 55.7119 335.567L54.8203 335.347C54.2617 335.214 53.8517 335.007 53.5903 334.724C53.3325 334.437 53.2036 334.081 53.2036 333.655C53.2036 333.307 53.2913 333.007 53.4668 332.752C53.6458 332.498 53.8983 332.303 54.2241 332.167C54.55 332.031 54.9331 331.963 55.3735 331.963C55.9142 331.963 56.3493 332.04 56.6787 332.194C57.0117 332.344 57.2713 332.552 57.4575 332.817L56.813 333.488H56.7056C56.5301 333.284 56.3332 333.137 56.1147 333.048C55.8999 332.958 55.6528 332.914 55.3735 332.914C55.0262 332.914 54.7648 332.973 54.5894 333.091C54.4139 333.205 54.3262 333.374 54.3262 333.596C54.3262 333.793 54.3906 333.952 54.5195 334.074C54.6484 334.195 54.8722 334.294 55.1909 334.369L56.0503 334.568C56.6089 334.693 57.0135 334.897 57.2642 335.18C57.5184 335.463 57.6455 335.832 57.6455 336.287C57.6455 336.648 57.5578 336.967 57.3823 337.243C57.2069 337.515 56.9491 337.728 56.6089 337.882C56.2687 338.036 55.8569 338.113 55.3735 338.113Z" fill="#0E1318" fill-opacity="0.7"/>
<g filter="url(#filter5_dd_6839_95493)">
<path d="M20 366C20 361.582 23.5817 358 28 358H44C48.4183 358 52 361.582 52 366V382C52 386.418 48.4183 390 44 390H28C23.5817 390 20 386.418 20 382V366Z" fill="white"/>
<path fill-rule="evenodd" clip-rule="evenodd" d="M44.0705 365.455C42.846 364.231 40.8608 364.231 39.6364 365.455L34.2486 370.843C33.8204 371.271 33.5151 371.807 33.3646 372.393L32.5202 375.685C32.315 376.485 33.0417 377.212 33.8417 377.008L37.1198 376.171C37.7084 376.02 38.2456 375.714 38.6752 375.285L44.0705 369.889C45.2949 368.665 45.2949 366.68 44.0705 365.455ZM41.9533 369.885L43.0098 368.829C43.6484 368.19 43.6484 367.155 43.0098 366.516C42.3712 365.877 41.3357 365.877 40.697 366.516L39.6406 367.573L41.9533 369.885ZM40.7865 371.052L37.6145 374.224C37.3754 374.463 37.0763 374.634 36.7487 374.717L34.1466 375.382L34.8176 372.766C34.9013 372.44 35.0711 372.142 35.3093 371.904L38.4737 368.739L40.7865 371.052Z" fill="#0E1318" fill-opacity="0.7"/>
<path d="M29.1435 377.022C28.7895 377.022 28.5024 377.309 28.5024 377.663C28.5024 378.017 28.7895 378.304 29.1435 378.304H42.8951C44.0598 378.304 45.004 379.248 45.004 380.413C45.004 381.578 44.0598 382.522 42.8951 382.522H33.1938C32.7795 382.522 32.4438 382.186 32.4438 381.772C32.4438 381.358 32.7795 381.022 33.1938 381.022H42.8951C43.2314 381.022 43.504 380.749 43.504 380.413C43.504 380.077 43.2314 379.804 42.8951 379.804H29.1435C27.961 379.804 27.0024 378.846 27.0024 377.663C27.0024 376.481 27.961 375.522 29.1435 375.522H31.0063V377.022H29.1435Z" fill="#0E1318" fill-opacity="0.7"/>
</g>
<path d="M25.9614 398.147C27.2039 398.147 28.1618 398.475 28.835 399.13C29.5081 399.786 29.8447 400.767 29.8447 402.074C29.8447 403.377 29.5081 404.358 28.835 405.017C28.1618 405.672 27.2039 406 25.9614 406H23.2812V398.147H25.9614ZM25.8701 404.953C26.4681 404.953 26.9622 404.858 27.3525 404.668C27.7464 404.478 28.0436 404.172 28.2441 403.75C28.4482 403.323 28.5503 402.765 28.5503 402.074C28.5503 401.379 28.4482 400.82 28.2441 400.398C28.0436 399.975 27.7464 399.669 27.3525 399.479C26.9622 399.286 26.4681 399.189 25.8701 399.189H24.5166V404.953H25.8701ZM31.499 406V400.076H32.6377V400.978L32.7505 401.005C32.8937 400.665 33.0889 400.416 33.3359 400.258C33.583 400.101 33.882 400.022 34.2329 400.022C34.6089 400.022 34.8882 400.086 35.0708 400.215L34.8345 401.23L34.7217 401.252C34.6214 401.205 34.5194 401.171 34.4155 401.15C34.3117 401.125 34.1917 401.112 34.0557 401.112C33.6117 401.112 33.2715 401.273 33.0352 401.596C32.7988 401.918 32.6807 402.439 32.6807 403.159V406H31.499ZM37.4341 406.113C36.854 406.113 36.3993 405.959 36.0698 405.651C35.7404 405.339 35.5757 404.899 35.5757 404.33C35.5757 403.979 35.6491 403.683 35.7959 403.443C35.9427 403.203 36.1719 403.008 36.4834 402.858C36.7949 402.704 37.1995 402.586 37.6973 402.503C38.0876 402.439 38.3848 402.367 38.5889 402.289C38.793 402.21 38.9308 402.122 39.0024 402.025C39.0741 401.925 39.1099 401.8 39.1099 401.649C39.1099 401.42 39.0293 401.245 38.8682 401.123C38.7106 401.001 38.4528 400.94 38.0947 400.94C37.418 400.94 36.8433 401.222 36.3706 401.784H36.2632L35.7368 401.01C36.0125 400.684 36.3545 400.428 36.7627 400.242C37.1745 400.056 37.631 399.963 38.1323 399.963C38.8735 399.963 39.4142 400.122 39.7544 400.441C40.0981 400.76 40.27 401.207 40.27 401.784V404.641C40.27 404.938 40.3971 405.087 40.6514 405.087C40.7445 405.087 40.834 405.071 40.9199 405.039L40.9951 405.06L41.0972 405.882C41.0256 405.932 40.9253 405.971 40.7964 406C40.6711 406.029 40.5368 406.043 40.3936 406.043C40.0534 406.043 39.792 405.973 39.6094 405.833C39.4303 405.694 39.3068 405.481 39.2388 405.194L39.126 405.184C38.9684 405.495 38.75 405.728 38.4707 405.882C38.195 406.036 37.8494 406.113 37.4341 406.113ZM37.7671 405.205C38.0428 405.205 38.2845 405.142 38.4922 405.017C38.6999 404.888 38.8592 404.706 38.9702 404.469C39.0812 404.233 39.1367 403.955 39.1367 403.637V402.96L39.0347 402.938C38.9237 403.021 38.784 403.091 38.6157 403.148C38.451 403.202 38.2147 403.254 37.9067 403.304C37.4914 403.365 37.196 403.474 37.0205 403.631C36.8486 403.785 36.7627 404.004 36.7627 404.287C36.7627 404.587 36.8504 404.817 37.0259 404.974C37.2013 405.128 37.4484 405.205 37.7671 405.205ZM44.2285 406H42.8965L41.4678 400.076H42.5903L43.584 404.528H43.6968L44.9536 400.076H46.0547L47.3491 404.528H47.4619L48.4341 400.076H49.5244L48.1118 406H46.7744L45.5337 401.682H45.4209L44.2285 406Z" fill="#0E1318" fill-opacity="0.7"/>
<g filter="url(#filter6_dd_6839_95493)">
<path d="M20 434C20 429.582 23.5817 426 28 426H44C48.4183 426 52 429.582 52 434V450C52 454.418 48.4183 458 44 458H28C23.5817 458 20 454.418 20 450V434Z" fill="white"/>
<path fill-rule="evenodd" clip-rule="evenodd" d="M34.8446 432.942L31.0302 432.942C28.8238 432.942 27.034 434.729 27.0302 436.936L27.0132 446.936C27.0094 449.147 28.8014 450.942 31.0132 450.942L41.0064 450.942C43.2155 450.942 45.0064 449.152 45.0064 446.942V438.712C45.0064 437.055 43.6632 435.712 42.0064 435.712L38.3923 435.712C38.2029 435.712 38.0298 435.605 37.9451 435.435L37.5278 434.601C37.0197 433.584 35.9809 432.942 34.8446 432.942ZM31.0302 434.442L34.8446 434.442C35.4127 434.442 35.9321 434.763 36.1862 435.272L36.6034 436.106C36.9422 436.784 37.6347 437.212 38.3923 437.212L42.0064 437.212C42.8348 437.212 43.5064 437.883 43.5064 438.712V439.447H28.526L28.5302 436.938C28.5326 435.559 29.6512 434.442 31.0302 434.442ZM28.5234 440.947L28.5132 446.938C28.5108 448.32 29.6308 449.442 31.0132 449.442L41.0064 449.442C42.3871 449.442 43.5064 448.323 43.5064 446.942V440.947H28.5234Z" fill="#0E1318" fill-opacity="0.7"/>
</g>
<path d="M18.0659 466.147C18.6174 466.147 19.09 466.248 19.4839 466.448C19.8778 466.649 20.175 466.932 20.3755 467.297C20.5796 467.659 20.6816 468.085 20.6816 468.575C20.6816 469.062 20.5796 469.488 20.3755 469.854C20.175 470.215 19.8778 470.496 19.4839 470.697C19.09 470.897 18.6174 470.998 18.0659 470.998H16.3794V474H15.144V466.147H18.0659ZM17.9478 469.988C18.9253 469.988 19.4141 469.517 19.4141 468.575C19.4141 467.626 18.9253 467.152 17.9478 467.152H16.3794V469.988H17.9478ZM21.9976 474V468.076H23.1362V468.978L23.249 469.005C23.3923 468.665 23.5874 468.416 23.8345 468.258C24.0815 468.101 24.3805 468.022 24.7314 468.022C25.1074 468.022 25.3867 468.086 25.5693 468.215L25.333 469.23L25.2202 469.252C25.12 469.205 25.0179 469.171 24.9141 469.15C24.8102 469.125 24.6903 469.112 24.5542 469.112C24.1102 469.112 23.77 469.273 23.5337 469.596C23.2974 469.918 23.1792 470.439 23.1792 471.159V474H21.9976ZM28.9316 474.113C28.3623 474.113 27.8646 473.995 27.4385 473.758C27.0124 473.522 26.6829 473.173 26.4502 472.711C26.2174 472.249 26.1011 471.692 26.1011 471.041C26.1011 470.385 26.2174 469.828 26.4502 469.37C26.6829 468.908 27.0124 468.559 27.4385 468.323C27.8646 468.083 28.3623 467.963 28.9316 467.963C29.501 467.963 29.9987 468.083 30.4248 468.323C30.8509 468.559 31.1803 468.908 31.4131 469.37C31.6494 469.828 31.7676 470.385 31.7676 471.041C31.7676 471.692 31.6494 472.249 31.4131 472.711C31.1803 473.173 30.8509 473.522 30.4248 473.758C29.9987 473.995 29.501 474.113 28.9316 474.113ZM28.9316 473.087C30.0023 473.087 30.5376 472.405 30.5376 471.041C30.5376 469.669 30.0023 468.983 28.9316 468.983C28.4124 468.983 28.015 469.152 27.7393 469.488C27.4635 469.821 27.3257 470.339 27.3257 471.041C27.3257 472.405 27.861 473.087 28.9316 473.087ZM33.8892 467.146C33.6636 467.146 33.4792 467.077 33.3359 466.937C33.1927 466.797 33.1211 466.618 33.1211 466.4C33.1211 466.185 33.1927 466.008 33.3359 465.868C33.4792 465.729 33.6636 465.659 33.8892 465.659C34.1147 465.659 34.2992 465.729 34.4424 465.868C34.5892 466.008 34.6626 466.185 34.6626 466.4C34.6626 466.618 34.591 466.797 34.4478 466.937C34.3045 467.077 34.1183 467.146 33.8892 467.146ZM32.729 476.514C32.3351 476.514 32.0075 476.46 31.7461 476.353L31.9072 475.429L32.0093 475.396C32.1668 475.465 32.3423 475.499 32.5356 475.499C32.7863 475.499 32.9761 475.42 33.105 475.262C33.2339 475.105 33.2983 474.875 33.2983 474.575V468.076H34.48V474.537C34.48 475.178 34.3296 475.667 34.0288 476.003C33.728 476.344 33.2948 476.514 32.729 476.514ZM41.1777 471.304H37.2354C37.3034 472.493 37.8548 473.087 38.8896 473.087C39.2728 473.087 39.5807 473.019 39.8135 472.883C40.0498 472.743 40.236 472.528 40.3721 472.238H40.4849L41.2637 472.722C41.0811 473.144 40.7964 473.483 40.4097 473.737C40.0265 473.987 39.5199 474.113 38.8896 474.113C38.2988 474.113 37.7886 473.998 37.3589 473.769C36.9292 473.54 36.598 473.196 36.3652 472.738C36.1325 472.279 36.0161 471.714 36.0161 471.041C36.0161 470.367 36.1379 469.8 36.3813 469.338C36.6248 468.876 36.9578 468.532 37.3804 468.307C37.8029 468.077 38.2791 467.963 38.8091 467.963C39.6076 467.963 40.2235 468.181 40.6567 468.618C41.0936 469.055 41.3138 469.698 41.3174 470.546C41.3174 470.865 41.3084 471.096 41.2905 471.239L41.1777 471.304ZM40.1733 470.46C40.159 469.92 40.0355 469.526 39.8027 469.279C39.5736 469.032 39.2424 468.908 38.8091 468.908C38.3722 468.908 38.0213 469.032 37.7563 469.279C37.495 469.526 37.3302 469.92 37.2622 470.46H40.1733ZM45.2329 474.113C44.6851 474.113 44.1963 473.995 43.7666 473.758C43.3405 473.518 43.0057 473.167 42.7622 472.706C42.5187 472.244 42.397 471.689 42.397 471.041C42.397 470.392 42.5187 469.837 42.7622 469.375C43.0057 468.91 43.3405 468.559 43.7666 468.323C44.1927 468.083 44.6779 467.963 45.2222 467.963C45.8631 467.963 46.3734 468.081 46.7529 468.317C47.1325 468.554 47.4046 468.878 47.5693 469.29L46.7637 469.87H46.6509C46.5112 469.569 46.3286 469.347 46.103 469.204C45.881 469.057 45.5874 468.983 45.2222 468.983C44.728 468.983 44.3377 469.157 44.0513 469.504C43.7648 469.848 43.6216 470.36 43.6216 471.041C43.6216 471.714 43.7648 472.224 44.0513 472.571C44.3413 472.915 44.7352 473.087 45.2329 473.087C45.9705 473.087 46.4647 472.725 46.7153 472.002L46.8281 471.997L47.6445 472.458C47.4906 472.956 47.2131 473.357 46.812 473.662C46.411 473.962 45.8846 474.113 45.2329 474.113ZM51.9683 472.824L52.3013 473.688C52.1509 473.825 51.9575 473.928 51.7212 474C51.4849 474.075 51.2235 474.113 50.937 474.113C50.3426 474.113 49.8896 473.955 49.5781 473.64C49.2666 473.325 49.1108 472.854 49.1108 472.228V469.021H48.144V468.07H49.1108V466.867L50.2925 466.674V468.07H52.0864V469.021H50.2925V472.131C50.2925 472.46 50.3605 472.698 50.4966 472.845C50.6362 472.992 50.835 473.065 51.0928 473.065C51.3828 473.065 51.637 472.985 51.8555 472.824H51.9683ZM55.2231 474.113C54.8364 474.113 54.4784 474.064 54.1489 473.968C53.8231 473.871 53.5456 473.739 53.3164 473.57C53.0908 473.398 52.9261 473.205 52.8223 472.99L53.4937 472.276H53.6064C53.9967 472.838 54.5374 473.119 55.2285 473.119C55.5902 473.119 55.8641 473.051 56.0503 472.915C56.2401 472.775 56.335 472.582 56.335 472.335C56.335 472.142 56.2723 471.982 56.147 471.857C56.0252 471.728 55.8301 471.631 55.5615 471.567L54.6699 471.347C54.1113 471.214 53.7013 471.007 53.4399 470.724C53.1821 470.437 53.0532 470.081 53.0532 469.655C53.0532 469.307 53.141 469.007 53.3164 468.752C53.4954 468.498 53.7479 468.303 54.0737 468.167C54.3996 468.031 54.7827 467.963 55.2231 467.963C55.7638 467.963 56.1989 468.04 56.5283 468.194C56.8613 468.344 57.1209 468.552 57.3071 468.817L56.6626 469.488H56.5552C56.3797 469.284 56.1828 469.137 55.9644 469.048C55.7495 468.958 55.5024 468.914 55.2231 468.914C54.8758 468.914 54.6144 468.973 54.439 469.091C54.2635 469.205 54.1758 469.374 54.1758 469.596C54.1758 469.793 54.2402 469.952 54.3691 470.074C54.498 470.195 54.7218 470.294 55.0405 470.369L55.8999 470.568C56.4585 470.693 56.8631 470.897 57.1138 471.18C57.368 471.463 57.4951 471.832 57.4951 472.287C57.4951 472.648 57.4074 472.967 57.2319 473.243C57.0565 473.515 56.7987 473.728 56.4585 473.882C56.1183 474.036 55.7065 474.113 55.2231 474.113Z" fill="#0E1318" fill-opacity="0.7"/>
<g filter="url(#filter7_dd_6839_95493)">
<path d="M20 502C20 497.582 23.5817 494 28 494H44C48.4183 494 52 497.582 52 502V518C52 522.418 48.4183 526 44 526H28C23.5817 526 20 522.418 20 518V502Z" fill="white"/>
<path fill-rule="evenodd" clip-rule="evenodd" d="M29.5709 501.363C28.1545 501.363 27.0063 502.522 27.0063 503.951V506.775C27.0063 508.204 28.1545 509.363 29.5709 509.363H32.3686C33.7849 509.363 34.9331 508.204 34.9331 506.775V503.951C34.9331 502.522 33.7849 501.363 32.3686 501.363H29.5709ZM29.5709 502.863C28.9959 502.863 28.5063 503.337 28.5063 503.951V506.775C28.5063 507.389 28.9959 507.863 29.5709 507.863H32.3686C32.9435 507.863 33.4331 507.389 33.4331 506.775V503.951C33.4331 503.337 32.9435 502.863 32.3686 502.863H29.5709Z" fill="#0E1318" fill-opacity="0.7"/>
<path fill-rule="evenodd" clip-rule="evenodd" d="M39.5763 501.363C38.1599 501.363 37.0117 502.522 37.0117 503.951V506.775C37.0117 508.204 38.1599 509.363 39.5763 509.363H42.374C43.7903 509.363 44.9385 508.204 44.9385 506.775V503.951C44.9385 502.522 43.7903 501.363 42.374 501.363H39.5763ZM39.5763 502.863C39.0013 502.863 38.5117 503.337 38.5117 503.951V506.775C38.5117 507.389 39.0013 507.863 39.5763 507.863H42.374C42.9489 507.863 43.4385 507.389 43.4385 506.775V503.951C43.4385 503.337 42.9489 502.863 42.374 502.863H39.5763Z" fill="#0E1318" fill-opacity="0.7"/>
<path fill-rule="evenodd" clip-rule="evenodd" d="M29.5709 511.383C28.1545 511.383 27.0063 512.542 27.0063 513.971V516.795C27.0063 518.224 28.1545 519.383 29.5709 519.383H32.3686C33.7849 519.383 34.9331 518.224 34.9331 516.795V513.971C34.9331 512.542 33.7849 511.383 32.3686 511.383H29.5709ZM28.5063 513.971C28.5063 513.357 28.9959 512.883 29.5709 512.883H32.3686C32.9435 512.883 33.4331 513.357 33.4331 513.971V516.795C33.4331 517.409 32.9435 517.883 32.3686 517.883H29.5709C28.9959 517.883 28.5063 517.409 28.5063 516.795V513.971Z" fill="#0E1318" fill-opacity="0.7"/>
<path d="M40.9751 511.414C41.3893 511.414 41.7251 511.75 41.7251 512.164V514.633H44.1938C44.6081 514.633 44.9438 514.969 44.9438 515.383C44.9438 515.797 44.6081 516.133 44.1938 516.133H41.7251V518.602C41.7251 519.016 41.3893 519.352 40.9751 519.352C40.5609 519.352 40.2251 519.016 40.2251 518.602V516.133H37.7563C37.3421 516.133 37.0063 515.797 37.0063 515.383C37.0063 514.969 37.3421 514.633 37.7563 514.633H40.2251V512.164C40.2251 511.75 40.5609 511.414 40.9751 511.414Z" fill="#0E1318" fill-opacity="0.7"/>
</g>
<path d="M29.7158 542H28.4053L27.7446 540.018H24.5649L23.9097 542H22.626L25.3545 534.147H26.9873L29.7158 542ZM26.085 535.442L24.9141 538.976H27.3955L26.2192 535.442H26.085ZM30.876 544.401V536.076H32.0576V536.903L32.1704 536.924C32.3709 536.598 32.627 536.357 32.9385 536.199C33.25 536.042 33.6063 535.963 34.0073 535.963C34.4943 535.963 34.9186 536.076 35.2803 536.301C35.6419 536.527 35.923 536.871 36.1235 537.333C36.3241 537.791 36.4243 538.36 36.4243 539.041C36.4243 539.717 36.3169 540.285 36.1021 540.743C35.8908 541.201 35.5972 541.545 35.2212 541.774C34.8488 542 34.4173 542.113 33.9268 542.113C33.5436 542.113 33.207 542.047 32.917 541.914C32.627 541.782 32.3781 541.57 32.1704 541.28L32.0576 541.302V544.401H30.876ZM33.6206 541.087C34.1326 541.087 34.5229 540.924 34.7915 540.598C35.0636 540.269 35.1997 539.75 35.1997 539.041C35.1997 538.328 35.0636 537.807 34.7915 537.478C34.5229 537.148 34.1326 536.983 33.6206 536.983C33.1444 536.983 32.763 537.153 32.4766 537.494C32.1901 537.834 32.0469 538.349 32.0469 539.041C32.0469 539.728 32.1901 540.242 32.4766 540.582C32.763 540.919 33.1444 541.087 33.6206 541.087ZM37.9658 544.401V536.076H39.1475V536.903L39.2603 536.924C39.4608 536.598 39.7168 536.357 40.0283 536.199C40.3398 536.042 40.6961 535.963 41.0972 535.963C41.5841 535.963 42.0085 536.076 42.3701 536.301C42.7318 536.527 43.0129 536.871 43.2134 537.333C43.4139 537.791 43.5142 538.36 43.5142 539.041C43.5142 539.717 43.4067 540.285 43.1919 540.743C42.9806 541.201 42.687 541.545 42.311 541.774C41.9386 542 41.5072 542.113 41.0166 542.113C40.6335 542.113 40.2969 542.047 40.0068 541.914C39.7168 541.782 39.4679 541.57 39.2603 541.28L39.1475 541.302V544.401H37.9658ZM40.7104 541.087C41.2225 541.087 41.6128 540.924 41.8813 540.598C42.1535 540.269 42.2896 539.75 42.2896 539.041C42.2896 538.328 42.1535 537.807 41.8813 537.478C41.6128 537.148 41.2225 536.983 40.7104 536.983C40.2342 536.983 39.8529 537.153 39.5664 537.494C39.2799 537.834 39.1367 538.349 39.1367 539.041C39.1367 539.728 39.2799 540.242 39.5664 540.582C39.8529 540.919 40.2342 541.087 40.7104 541.087ZM46.8496 542.113C46.4629 542.113 46.1048 542.064 45.7754 541.968C45.4495 541.871 45.172 541.739 44.9429 541.57C44.7173 541.398 44.5526 541.205 44.4487 540.99L45.1201 540.276H45.2329C45.6232 540.838 46.1639 541.119 46.855 541.119C47.2166 541.119 47.4906 541.051 47.6768 540.915C47.8665 540.775 47.9614 540.582 47.9614 540.335C47.9614 540.142 47.8988 539.982 47.7734 539.857C47.6517 539.728 47.4565 539.631 47.188 539.567L46.2964 539.347C45.7378 539.214 45.3278 539.007 45.0664 538.724C44.8086 538.437 44.6797 538.081 44.6797 537.655C44.6797 537.307 44.7674 537.007 44.9429 536.752C45.1219 536.498 45.3743 536.303 45.7002 536.167C46.026 536.031 46.4092 535.963 46.8496 535.963C47.3903 535.963 47.8254 536.04 48.1548 536.194C48.4878 536.344 48.7474 536.552 48.9336 536.817L48.2891 537.488H48.1816C48.0062 537.284 47.8092 537.137 47.5908 537.048C47.376 536.958 47.1289 536.914 46.8496 536.914C46.5023 536.914 46.2409 536.973 46.0654 537.091C45.89 537.205 45.8022 537.374 45.8022 537.596C45.8022 537.793 45.8667 537.952 45.9956 538.074C46.1245 538.195 46.3483 538.294 46.667 538.369L47.5264 538.568C48.085 538.693 48.4896 538.897 48.7402 539.18C48.9945 539.463 49.1216 539.832 49.1216 540.287C49.1216 540.648 49.0339 540.967 48.8584 541.243C48.6829 541.515 48.4251 541.728 48.085 541.882C47.7448 542.036 47.333 542.113 46.8496 542.113Z" fill="#0E1318" fill-opacity="0.7"/>
</g>
</g>
<g filter="url(#filter8_dd_6839_95493)">
<g clip-path="url(#clip1_6839_95493)">
<path d="M80 22C80 15.3726 85.3726 10 92 10H429C435.627 10 441 15.3726 441 22V662C441 668.627 435.627 674 429 674H92C85.3726 674 80 668.627 80 662V22Z" fill="white"/>
</g>
</g>
<defs>
<filter id="filter0_dd_6839_95493" x="17" y="17" width="38" height="38" filterUnits="userSpaceOnUse" color-interpolation-filters="sRGB">
<feFlood flood-opacity="0" result="BackgroundImageFix"/>
<feColorMatrix in="SourceAlpha" type="matrix" values="0 0 0 0 0 0 0 0 0 0 0 0 0 0 0 0 0 0 127 0" result="hardAlpha"/>
<feMorphology radius="1" operator="erode" in="SourceAlpha" result="effect1_dropShadow_6839_95493"/>
<feOffset dy="2"/>
<feGaussianBlur stdDeviation="2"/>
<feColorMatrix type="matrix" values="0 0 0 0 0.25098 0 0 0 0 0.341176 0 0 0 0 0.427451 0 0 0 0.3 0"/>
<feBlend mode="normal" in2="BackgroundImageFix" result="effect1_dropShadow_6839_95493"/>
<feColorMatrix in="SourceAlpha" type="matrix" values="0 0 0 0 0 0 0 0 0 0 0 0 0 0 0 0 0 0 127 0" result="hardAlpha"/>
<feMorphology radius="1" operator="dilate" in="SourceAlpha" result="effect2_dropShadow_6839_95493"/>
<feOffset/>
<feColorMatrix type="matrix" values="0 0 0 0 0.25098 0 0 0 0 0.341176 0 0 0 0 0.427451 0 0 0 0.04 0"/>
<feBlend mode="normal" in2="effect1_dropShadow_6839_95493" result="effect2_dropShadow_6839_95493"/>
<feBlend mode="normal" in="SourceGraphic" in2="effect2_dropShadow_6839_95493" result="shape"/>
</filter>
<filter id="filter1_dd_6839_95493" x="17" y="85" width="38" height="38" filterUnits="userSpaceOnUse" color-interpolation-filters="sRGB">
<feFlood flood-opacity="0" result="BackgroundImageFix"/>
<feColorMatrix in="SourceAlpha" type="matrix" values="0 0 0 0 0 0 0 0 0 0 0 0 0 0 0 0 0 0 127 0" result="hardAlpha"/>
<feMorphology radius="1" operator="erode" in="SourceAlpha" result="effect1_dropShadow_6839_95493"/>
<feOffset dy="2"/>
<feGaussianBlur stdDeviation="2"/>
<feColorMatrix type="matrix" values="0 0 0 0 0.25098 0 0 0 0 0.341176 0 0 0 0 0.427451 0 0 0 0.3 0"/>
<feBlend mode="normal" in2="BackgroundImageFix" result="effect1_dropShadow_6839_95493"/>
<feColorMatrix in="SourceAlpha" type="matrix" values="0 0 0 0 0 0 0 0 0 0 0 0 0 0 0 0 0 0 127 0" result="hardAlpha"/>
<feMorphology radius="1" operator="dilate" in="SourceAlpha" result="effect2_dropShadow_6839_95493"/>
<feOffset/>
<feColorMatrix type="matrix" values="0 0 0 0 0.25098 0 0 0 0 0.341176 0 0 0 0 0.427451 0 0 0 0.04 0"/>
<feBlend mode="normal" in2="effect1_dropShadow_6839_95493" result="effect2_dropShadow_6839_95493"/>
<feBlend mode="normal" in="SourceGraphic" in2="effect2_dropShadow_6839_95493" result="shape"/>
</filter>
<filter id="filter2_dd_6839_95493" x="17" y="153" width="38" height="38" filterUnits="userSpaceOnUse" color-interpolation-filters="sRGB">
<feFlood flood-opacity="0" result="BackgroundImageFix"/>
<feColorMatrix in="SourceAlpha" type="matrix" values="0 0 0 0 0 0 0 0 0 0 0 0 0 0 0 0 0 0 127 0" result="hardAlpha"/>
<feMorphology radius="1" operator="erode" in="SourceAlpha" result="effect1_dropShadow_6839_95493"/>
<feOffset dy="2"/>
<feGaussianBlur stdDeviation="2"/>
<feColorMatrix type="matrix" values="0 0 0 0 0.25098 0 0 0 0 0.341176 0 0 0 0 0.427451 0 0 0 0.3 0"/>
<feBlend mode="normal" in2="BackgroundImageFix" result="effect1_dropShadow_6839_95493"/>
<feColorMatrix in="SourceAlpha" type="matrix" values="0 0 0 0 0 0 0 0 0 0 0 0 0 0 0 0 0 0 127 0" result="hardAlpha"/>
<feMorphology radius="1" operator="dilate" in="SourceAlpha" result="effect2_dropShadow_6839_95493"/>
<feOffset/>
<feColorMatrix type="matrix" values="0 0 0 0 0.25098 0 0 0 0 0.341176 0 0 0 0 0.427451 0 0 0 0.04 0"/>
<feBlend mode="normal" in2="effect1_dropShadow_6839_95493" result="effect2_dropShadow_6839_95493"/>
<feBlend mode="normal" in="SourceGraphic" in2="effect2_dropShadow_6839_95493" result="shape"/>
</filter>
<filter id="filter3_dd_6839_95493" x="17" y="221" width="38" height="38" filterUnits="userSpaceOnUse" color-interpolation-filters="sRGB">
<feFlood flood-opacity="0" result="BackgroundImageFix"/>
<feColorMatrix in="SourceAlpha" type="matrix" values="0 0 0 0 0 0 0 0 0 0 0 0 0 0 0 0 0 0 127 0" result="hardAlpha"/>
<feMorphology radius="1" operator="erode" in="SourceAlpha" result="effect1_dropShadow_6839_95493"/>
<feOffset dy="2"/>
<feGaussianBlur stdDeviation="2"/>
<feColorMatrix type="matrix" values="0 0 0 0 0.25098 0 0 0 0 0.341176 0 0 0 0 0.427451 0 0 0 0.3 0"/>
<feBlend mode="normal" in2="BackgroundImageFix" result="effect1_dropShadow_6839_95493"/>
<feColorMatrix in="SourceAlpha" type="matrix" values="0 0 0 0 0 0 0 0 0 0 0 0 0 0 0 0 0 0 127 0" result="hardAlpha"/>
<feMorphology radius="1" operator="dilate" in="SourceAlpha" result="effect2_dropShadow_6839_95493"/>
<feOffset/>
<feColorMatrix type="matrix" values="0 0 0 0 0.25098 0 0 0 0 0.341176 0 0 0 0 0.427451 0 0 0 0.04 0"/>
<feBlend mode="normal" in2="effect1_dropShadow_6839_95493" result="effect2_dropShadow_6839_95493"/>
<feBlend mode="normal" in="SourceGraphic" in2="effect2_dropShadow_6839_95493" result="shape"/>
</filter>
<filter id="filter4_dd_6839_95493" x="17" y="289" width="38" height="38" filterUnits="userSpaceOnUse" color-interpolation-filters="sRGB">
<feFlood flood-opacity="0" result="BackgroundImageFix"/>
<feColorMatrix in="SourceAlpha" type="matrix" values="0 0 0 0 0 0 0 0 0 0 0 0 0 0 0 0 0 0 127 0" result="hardAlpha"/>
<feMorphology radius="1" operator="erode" in="SourceAlpha" result="effect1_dropShadow_6839_95493"/>
<feOffset dy="2"/>
<feGaussianBlur stdDeviation="2"/>
<feColorMatrix type="matrix" values="0 0 0 0 0.25098 0 0 0 0 0.341176 0 0 0 0 0.427451 0 0 0 0.3 0"/>
<feBlend mode="normal" in2="BackgroundImageFix" result="effect1_dropShadow_6839_95493"/>
<feColorMatrix in="SourceAlpha" type="matrix" values="0 0 0 0 0 0 0 0 0 0 0 0 0 0 0 0 0 0 127 0" result="hardAlpha"/>
<feMorphology radius="1" operator="dilate" in="SourceAlpha" result="effect2_dropShadow_6839_95493"/>
<feOffset/>
<feColorMatrix type="matrix" values="0 0 0 0 0.25098 0 0 0 0 0.341176 0 0 0 0 0.427451 0 0 0 0.04 0"/>
<feBlend mode="normal" in2="effect1_dropShadow_6839_95493" result="effect2_dropShadow_6839_95493"/>
<feBlend mode="normal" in="SourceGraphic" in2="effect2_dropShadow_6839_95493" result="shape"/>
</filter>
<filter id="filter5_dd_6839_95493" x="17" y="357" width="38" height="38" filterUnits="userSpaceOnUse" color-interpolation-filters="sRGB">
<feFlood flood-opacity="0" result="BackgroundImageFix"/>
<feColorMatrix in="SourceAlpha" type="matrix" values="0 0 0 0 0 0 0 0 0 0 0 0 0 0 0 0 0 0 127 0" result="hardAlpha"/>
<feMorphology radius="1" operator="erode" in="SourceAlpha" result="effect1_dropShadow_6839_95493"/>
<feOffset dy="2"/>
<feGaussianBlur stdDeviation="2"/>
<feColorMatrix type="matrix" values="0 0 0 0 0.25098 0 0 0 0 0.341176 0 0 0 0 0.427451 0 0 0 0.3 0"/>
<feBlend mode="normal" in2="BackgroundImageFix" result="effect1_dropShadow_6839_95493"/>
<feColorMatrix in="SourceAlpha" type="matrix" values="0 0 0 0 0 0 0 0 0 0 0 0 0 0 0 0 0 0 127 0" result="hardAlpha"/>
<feMorphology radius="1" operator="dilate" in="SourceAlpha" result="effect2_dropShadow_6839_95493"/>
<feOffset/>
<feColorMatrix type="matrix" values="0 0 0 0 0.25098 0 0 0 0 0.341176 0 0 0 0 0.427451 0 0 0 0.04 0"/>
<feBlend mode="normal" in2="effect1_dropShadow_6839_95493" result="effect2_dropShadow_6839_95493"/>
<feBlend mode="normal" in="SourceGraphic" in2="effect2_dropShadow_6839_95493" result="shape"/>
</filter>
<filter id="filter6_dd_6839_95493" x="17" y="425" width="38" height="38" filterUnits="userSpaceOnUse" color-interpolation-filters="sRGB">
<feFlood flood-opacity="0" result="BackgroundImageFix"/>
<feColorMatrix in="SourceAlpha" type="matrix" values="0 0 0 0 0 0 0 0 0 0 0 0 0 0 0 0 0 0 127 0" result="hardAlpha"/>
<feMorphology radius="1" operator="erode" in="SourceAlpha" result="effect1_dropShadow_6839_95493"/>
<feOffset dy="2"/>
<feGaussianBlur stdDeviation="2"/>
<feColorMatrix type="matrix" values="0 0 0 0 0.25098 0 0 0 0 0.341176 0 0 0 0 0.427451 0 0 0 0.3 0"/>
<feBlend mode="normal" in2="BackgroundImageFix" result="effect1_dropShadow_6839_95493"/>
<feColorMatrix in="SourceAlpha" type="matrix" values="0 0 0 0 0 0 0 0 0 0 0 0 0 0 0 0 0 0 127 0" result="hardAlpha"/>
<feMorphology radius="1" operator="dilate" in="SourceAlpha" result="effect2_dropShadow_6839_95493"/>
<feOffset/>
<feColorMatrix type="matrix" values="0 0 0 0 0.25098 0 0 0 0 0.341176 0 0 0 0 0.427451 0 0 0 0.04 0"/>
<feBlend mode="normal" in2="effect1_dropShadow_6839_95493" result="effect2_dropShadow_6839_95493"/>
<feBlend mode="normal" in="SourceGraphic" in2="effect2_dropShadow_6839_95493" result="shape"/>
</filter>
<filter id="filter7_dd_6839_95493" x="17" y="493" width="38" height="38" filterUnits="userSpaceOnUse" color-interpolation-filters="sRGB">
<feFlood flood-opacity="0" result="BackgroundImageFix"/>
<feColorMatrix in="SourceAlpha" type="matrix" values="0 0 0 0 0 0 0 0 0 0 0 0 0 0 0 0 0 0 127 0" result="hardAlpha"/>
<feMorphology radius="1" operator="erode" in="SourceAlpha" result="effect1_dropShadow_6839_95493"/>
<feOffset dy="2"/>
<feGaussianBlur stdDeviation="2"/>
<feColorMatrix type="matrix" values="0 0 0 0 0.25098 0 0 0 0 0.341176 0 0 0 0 0.427451 0 0 0 0.3 0"/>
<feBlend mode="normal" in2="BackgroundImageFix" result="effect1_dropShadow_6839_95493"/>
<feColorMatrix in="SourceAlpha" type="matrix" values="0 0 0 0 0 0 0 0 0 0 0 0 0 0 0 0 0 0 127 0" result="hardAlpha"/>
<feMorphology radius="1" operator="dilate" in="SourceAlpha" result="effect2_dropShadow_6839_95493"/>
<feOffset/>
<feColorMatrix type="matrix" values="0 0 0 0 0.25098 0 0 0 0 0.341176 0 0 0 0 0.427451 0 0 0 0.04 0"/>
<feBlend mode="normal" in2="effect1_dropShadow_6839_95493" result="effect2_dropShadow_6839_95493"/>
<feBlend mode="normal" in="SourceGraphic" in2="effect2_dropShadow_6839_95493" result="shape"/>
</filter>
<filter id="filter8_dd_6839_95493" x="64" y="0" width="393" height="696" filterUnits="userSpaceOnUse" color-interpolation-filters="sRGB">
<feFlood flood-opacity="0" result="BackgroundImageFix"/>
<feColorMatrix in="SourceAlpha" type="matrix" values="0 0 0 0 0 0 0 0 0 0 0 0 0 0 0 0 0 0 127 0" result="hardAlpha"/>
<feMorphology radius="4" operator="erode" in="SourceAlpha" result="effect1_dropShadow_6839_95493"/>
<feOffset dy="6"/>
<feGaussianBlur stdDeviation="10"/>
<feColorMatrix type="matrix" values="0 0 0 0 0.25098 0 0 0 0 0.341176 0 0 0 0 0.427451 0 0 0 0.3 0"/>
<feBlend mode="normal" in2="BackgroundImageFix" result="effect1_dropShadow_6839_95493"/>
<feColorMatrix in="SourceAlpha" type="matrix" values="0 0 0 0 0 0 0 0 0 0 0 0 0 0 0 0 0 0 127 0" result="hardAlpha"/>
<feMorphology radius="1" operator="dilate" in="SourceAlpha" result="effect2_dropShadow_6839_95493"/>
<feOffset/>
<feColorMatrix type="matrix" values="0 0 0 0 0.25098 0 0 0 0 0.341176 0 0 0 0 0.427451 0 0 0 0.04 0"/>
<feBlend mode="normal" in2="effect1_dropShadow_6839_95493" result="effect2_dropShadow_6839_95493"/>
<feBlend mode="normal" in="SourceGraphic" in2="effect2_dropShadow_6839_95493" result="shape"/>
</filter>
<linearGradient id="paint0_linear_6839_95493" x1="36" y1="684" x2="36" y2="724" gradientUnits="userSpaceOnUse">
<stop stop-color="#D9D9D9"/>
<stop offset="1" stop-color="#D9D9D9" stop-opacity="0"/>
</linearGradient>
<clipPath id="clip0_6839_95493">
<rect width="72" height="722" fill="white" transform="translate(0 2)"/>
</clipPath>
<clipPath id="clip1_6839_95493">
<path d="M80 22C80 15.3726 85.3726 10 92 10H429C435.627 10 441 15.3726 441 22V662C441 668.627 435.627 674 429 674H92C85.3726 674 80 668.627 80 662V22Z" fill="white"/>
</clipPath>
</defs>
</svg>
