<svg width="458" height="626" viewBox="0 0 458 626" fill="none" xmlns="http://www.w3.org/2000/svg">
<g filter="url(#filter0_d_6839_96034)">
<rect x="21" y="11" width="416" height="584" rx="8" fill="white"/>
<rect x="22.5" y="12.5" width="413" height="581" rx="6.5" stroke="#394C60" stroke-opacity="0.15" stroke-width="3"/>
<rect x="37" y="35" width="103" height="12" rx="6" fill="#394C60" fill-opacity="0.15"/>
<rect x="37" y="79" width="64" height="8" rx="4" fill="#394C60" fill-opacity="0.15"/>
<rect x="37.5" y="95.5" width="383" height="39" rx="7.5" stroke="#394C60" stroke-opacity="0.15"/>
<rect x="37" y="143" width="24" height="24" rx="12" fill="#394C60" fill-opacity="0.15"/>
<rect x="65" y="143" width="24" height="24" rx="12" fill="#394C60" fill-opacity="0.15"/>
<rect x="93" y="143" width="24" height="24" rx="12" fill="#394C60" fill-opacity="0.15"/>
<rect x="37" y="207" width="64" height="8" rx="4" fill="#394C60" fill-opacity="0.15"/>
<rect x="37.5" y="223.5" width="383" height="39" rx="7.5" stroke="#394C60" stroke-opacity="0.15"/>
<rect x="37" y="271" width="384" height="40" rx="8" fill="#394C60" fill-opacity="0.15"/>
<circle cx="97" cy="375" r="24" fill="#394C60" fill-opacity="0.15"/>
<rect x="73" y="407" width="48" height="8" rx="4" fill="#394C60" fill-opacity="0.15"/>
<circle cx="185" cy="375" r="24" fill="#394C60" fill-opacity="0.15"/>
<rect x="161" y="407" width="48" height="8" rx="4" fill="#394C60" fill-opacity="0.15"/>
<circle cx="273" cy="375" r="24" fill="#394C60" fill-opacity="0.15"/>
<rect x="249" y="407" width="48" height="8" rx="4" fill="#394C60" fill-opacity="0.15"/>
<circle cx="361" cy="375" r="24" fill="#394C60" fill-opacity="0.15"/>
<rect x="337" y="407" width="48" height="8" rx="4" fill="#394C60" fill-opacity="0.15"/>
<rect x="41" y="452.5" width="142" height="11" rx="5.5" fill="#394C60" fill-opacity="0.15"/>
<rect x="41" y="486.5" width="178" height="11" rx="5.5" fill="#394C60" fill-opacity="0.15"/>
<rect x="41" y="520.5" width="178" height="11" rx="5.5" fill="#394C60" fill-opacity="0.15"/>
<rect x="41" y="554.5" width="146" height="11" rx="5.5" fill="#394C60" fill-opacity="0.15"/>
</g>
<defs>
<filter id="filter0_d_6839_96034" x="0.39394" y="0.69697" width="457.212" height="625.212" filterUnits="userSpaceOnUse" color-interpolation-filters="sRGB">
<feFlood flood-opacity="0" result="BackgroundImageFix"/>
<feColorMatrix in="SourceAlpha" type="matrix" values="0 0 0 0 0 0 0 0 0 0 0 0 0 0 0 0 0 0 127 0" result="hardAlpha"/>
<feOffset dy="10.303"/>
<feGaussianBlur stdDeviation="10.303"/>
<feColorMatrix type="matrix" values="0 0 0 0 0 0 0 0 0 0 0 0 0 0 0 0 0 0 0.07 0"/>
<feBlend mode="normal" in2="BackgroundImageFix" result="effect1_dropShadow_6839_96034"/>
<feBlend mode="normal" in="SourceGraphic" in2="effect1_dropShadow_6839_96034" result="shape"/>
</filter>
</defs>
</svg>
