<svg width="236" height="46" viewBox="0 0 236 46" fill="none" xmlns="http://www.w3.org/2000/svg">
<rect width="235.936" height="46" rx="11.871" fill="white"/>
<rect x="1.1129" y="1.1129" width="233.71" height="43.7742" rx="10.7581" stroke="#394C60" stroke-opacity="0.15" stroke-width="2.22581"/>
<rect x="14.0967" y="14.0969" width="17.8065" height="17.8065" rx="5.93548" fill="#394C60" fill-opacity="0.15"/>
<rect x="43.7744" y="14.0969" width="17.8065" height="17.8065" rx="5.93548" fill="#394C60" fill-opacity="0.15"/>
<rect x="73.4517" y="14.0969" width="17.8065" height="17.8065" rx="5.93548" fill="#394C60" fill-opacity="0.15"/>
<rect x="103.129" y="14.0969" width="17.8065" height="17.8065" rx="5.93548" fill="#394C60" fill-opacity="0.15"/>
<rect x="132.807" y="14.0969" width="17.8065" height="17.8065" rx="5.93548" fill="#394C60" fill-opacity="0.15"/>
<path d="M162.484 20.0322L162.484 25.9677" stroke="#394C60" stroke-opacity="0.15" stroke-width="1.48387" stroke-linecap="round"/>
<rect x="174.355" y="14.0969" width="17.8065" height="17.8065" rx="5.93548" fill="#394C60" fill-opacity="0.15"/>
<path fill-rule="evenodd" clip-rule="evenodd" d="M212.935 24.4841C213.755 24.4841 214.419 23.8197 214.419 23.0002C214.419 22.1807 213.755 21.5164 212.935 21.5164C212.116 21.5164 211.452 22.1807 211.452 23.0002C211.452 23.8197 212.116 24.4841 212.935 24.4841ZM207.742 24.4842C208.561 24.4842 209.226 23.8198 209.226 23.0003C209.226 22.1808 208.561 21.5164 207.742 21.5164C206.922 21.5164 206.258 22.1808 206.258 23.0003C206.258 23.8198 206.922 24.4842 207.742 24.4842ZM219.613 23.0002C219.613 23.8197 218.949 24.4841 218.129 24.4841C217.309 24.4841 216.645 23.8197 216.645 23.0002C216.645 22.1807 217.309 21.5164 218.129 21.5164C218.949 21.5164 219.613 22.1807 219.613 23.0002Z" fill="#191E26"/>
</svg>
