<svg width="328" height="148" viewBox="0 0 328 187" fill="none" xmlns="http://www.w3.org/2000/svg">
<g filter="url(#filter0_dd_6332_25170)">
<rect x="16" y="12.1879" width="361.409" height="295.151" rx="4.81879" fill="var(--ui-kit-color-surface)"/>
<rect width="322.859" height="172.272" rx="4.81879" transform="matrix(-1 0 0 1 358.134 31.463)" fill="currentColor"/>
<rect x="-0.602349" y="0.602349" width="321.654" height="171.067" rx="4.21644" transform="matrix(-1 0 0 1 356.93 31.463)" stroke="#40576D" stroke-opacity="0.07" stroke-width="1.2047"/>
<rect x="35.2751" y="31.463" width="322.859" height="172.272" rx="4.81879" fill="url(#paint0_linear_6332_25170)"/>
<rect x="35.2751" y="31.463" width="322.859" height="172.272" rx="4.81879" fill="url(#paint1_linear_6332_25170)"/>
<rect x="35.8775" y="32.0654" width="321.654" height="171.067" rx="4.21644" stroke="#394C60" stroke-opacity="0.15" stroke-width="1.2047"/>
<mask id="mask0_6332_25170" style="mask-type:alpha" maskUnits="userSpaceOnUse" x="83" y="25" width="30" height="30">
<path fill-rule="evenodd" clip-rule="evenodd" d="M83.4635 39.8957C83.4635 47.8797 89.9358 54.3521 97.9198 54.3521C105.904 54.3521 112.376 47.8797 112.376 39.8957C112.376 31.9117 105.904 25.4393 97.9198 25.4393C89.9358 25.4393 83.4635 31.9117 83.4635 39.8957ZM91.8964 39.8957C91.8964 43.2224 94.5932 45.9192 97.9198 45.9192C101.247 45.9192 103.943 43.2224 103.943 39.8957C103.943 36.569 101.247 33.8722 97.9198 33.8722C94.5932 33.8722 91.8964 36.569 91.8964 39.8957Z" fill="#D9D9D9"/>
</mask>
<g mask="url(#mask0_6332_25170)">
<g filter="url(#filter1_dd_6332_25170)">
<path fill-rule="evenodd" clip-rule="evenodd" d="M97.9189 48.3288C93.2616 48.3288 89.486 44.5533 89.486 39.8959C89.486 35.2385 93.2616 31.463 97.9189 31.463C102.576 31.463 106.352 35.2385 106.352 39.8959C106.352 44.5533 102.576 48.3288 97.9189 48.3288Z" fill="#808080"/>
<path d="M90.6907 39.8959C90.6907 43.8879 93.9269 47.1241 97.9189 47.1241C101.911 47.1241 105.147 43.8879 105.147 39.8959C105.147 35.9039 101.911 32.6677 97.9189 32.6677C93.9269 32.6677 90.6907 35.9039 90.6907 39.8959Z" stroke="white" stroke-width="2.4094"/>
</g>
</g>
</g>
<defs>
<filter id="filter0_dd_6332_25170" x="-3.27517" y="0.140886" width="399.96" height="333.701" filterUnits="userSpaceOnUse" color-interpolation-filters="sRGB">
<feFlood flood-opacity="0" result="BackgroundImageFix"/>
<feColorMatrix in="SourceAlpha" type="matrix" values="0 0 0 0 0 0 0 0 0 0 0 0 0 0 0 0 0 0 127 0" result="hardAlpha"/>
<feMorphology radius="4.81879" operator="erode" in="SourceAlpha" result="effect1_dropShadow_6332_25170"/>
<feOffset dy="7.22819"/>
<feGaussianBlur stdDeviation="12.047"/>
<feColorMatrix type="matrix" values="0 0 0 0 0.25098 0 0 0 0 0.341176 0 0 0 0 0.427451 0 0 0 0.2 0"/>
<feBlend mode="normal" in2="BackgroundImageFix" result="effect1_dropShadow_6332_25170"/>
<feColorMatrix in="SourceAlpha" type="matrix" values="0 0 0 0 0 0 0 0 0 0 0 0 0 0 0 0 0 0 127 0" result="hardAlpha"/>
<feMorphology radius="1.2047" operator="dilate" in="SourceAlpha" result="effect2_dropShadow_6332_25170"/>
<feOffset/>
<feColorMatrix type="matrix" values="0 0 0 0 0.25098 0 0 0 0 0.341176 0 0 0 0 0.427451 0 0 0 0.04 0"/>
<feBlend mode="normal" in2="effect1_dropShadow_6332_25170" result="effect2_dropShadow_6332_25170"/>
<feBlend mode="normal" in="SourceGraphic" in2="effect2_dropShadow_6332_25170" result="shape"/>
</filter>
<filter id="filter1_dd_6332_25170" x="83.4626" y="27.8489" width="28.9127" height="28.9127" filterUnits="userSpaceOnUse" color-interpolation-filters="sRGB">
<feFlood flood-opacity="0" result="BackgroundImageFix"/>
<feColorMatrix in="SourceAlpha" type="matrix" values="0 0 0 0 0 0 0 0 0 0 0 0 0 0 0 0 0 0 127 0" result="hardAlpha"/>
<feOffset/>
<feColorMatrix type="matrix" values="0 0 0 0 0 0 0 0 0 0 0 0 0 0 0 0 0 0 0.07 0"/>
<feBlend mode="normal" in2="BackgroundImageFix" result="effect1_dropShadow_6332_25170"/>
<feColorMatrix in="SourceAlpha" type="matrix" values="0 0 0 0 0 0 0 0 0 0 0 0 0 0 0 0 0 0 127 0" result="hardAlpha"/>
<feOffset dy="2.4094"/>
<feGaussianBlur stdDeviation="3.01174"/>
<feColorMatrix type="matrix" values="0 0 0 0 0 0 0 0 0 0 0 0 0 0 0 0 0 0 0.15 0"/>
<feBlend mode="normal" in2="effect1_dropShadow_6332_25170" result="effect2_dropShadow_6332_25170"/>
<feBlend mode="normal" in="SourceGraphic" in2="effect2_dropShadow_6332_25170" result="shape"/>
</filter>
<linearGradient id="paint0_linear_6332_25170" x1="358.134" y1="117.599" x2="35.2752" y2="117.599" gradientUnits="userSpaceOnUse">
<stop stop-color="white" stop-opacity="0"/>
<stop offset="1" stop-color="#FFFEFE"/>
</linearGradient>
<linearGradient id="paint1_linear_6332_25170" x1="196.705" y1="31.463" x2="196.705" y2="203.735" gradientUnits="userSpaceOnUse">
<stop stop-opacity="0"/>
<stop offset="1"/>
</linearGradient>
</defs>
</svg>
