<svg width="160" height="96" viewBox="0 0 160 96" fill="none" xmlns="http://www.w3.org/2000/svg">
<g filter="url(#filter0_dd_6320_11388)">
<rect x="16" y="10" width="300" height="245" rx="4" fill="var(--ui-kit-color-surface)"/>
<rect width="268" height="143" rx="4" transform="matrix(-1 0 0 1 300 26)" fill="currentColor"/>
<rect x="-0.5" y="0.5" width="267" height="142" rx="3.5" transform="matrix(-1 0 0 1 299 26)" stroke="#40576D" stroke-opacity="0.07"/>
<rect x="32" y="26" width="268" height="143" rx="4" fill="url(#paint0_linear_6320_11388)"/>
<rect x="32" y="26" width="268" height="143" rx="4" fill="url(#paint1_linear_6320_11388)"/>
<rect x="32.5" y="26.5" width="267" height="142" rx="3.5" stroke="white" stroke-opacity="0.15"/>
<mask id="mask0_6320_11388" style="mask-type:alpha" maskUnits="userSpaceOnUse" x="65" y="20" width="24" height="24">
<path fill-rule="evenodd" clip-rule="evenodd" d="M65 32C65 38.6274 70.3726 44 77 44C83.6274 44 89 38.6274 89 32C89 25.3726 83.6274 20 77 20C70.3726 20 65 25.3726 65 32ZM72 32C72 34.7614 74.2386 37 77 37C79.7614 37 82 34.7614 82 32C82 29.2386 79.7614 27 77 27C74.2386 27 72 29.2386 72 32Z" fill="#D9D9D9"/>
</mask>
<g mask="url(#mask0_6320_11388)">
<g filter="url(#filter1_dd_6320_11388)">
<path fill-rule="evenodd" clip-rule="evenodd" d="M77 39C73.134 39 70 35.866 70 32C70 28.134 73.134 25 77 25C80.866 25 84 28.134 84 32C84 35.866 80.866 39 77 39Z" fill="#808080"/>
<path d="M71 32C71 35.3137 73.6863 38 77 38C80.3137 38 83 35.3137 83 32C83 28.6863 80.3137 26 77 26C73.6863 26 71 28.6863 71 32Z" stroke="white" stroke-width="2"/>
</g>
</g>
</g>
<defs>
<filter id="filter0_dd_6320_11388" x="0" y="0" width="332" height="277" filterUnits="userSpaceOnUse" color-interpolation-filters="sRGB">
<feFlood flood-opacity="0" result="BackgroundImageFix"/>
<feColorMatrix in="SourceAlpha" type="matrix" values="0 0 0 0 0 0 0 0 0 0 0 0 0 0 0 0 0 0 127 0" result="hardAlpha"/>
<feMorphology radius="4" operator="erode" in="SourceAlpha" result="effect1_dropShadow_6320_11388"/>
<feOffset dy="6"/>
<feGaussianBlur stdDeviation="10"/>
<feColorMatrix type="matrix" values="0 0 0 0 0.25098 0 0 0 0 0.341176 0 0 0 0 0.427451 0 0 0 0.2 0"/>
<feBlend mode="normal" in2="BackgroundImageFix" result="effect1_dropShadow_6320_11388"/>
<feColorMatrix in="SourceAlpha" type="matrix" values="0 0 0 0 0 0 0 0 0 0 0 0 0 0 0 0 0 0 127 0" result="hardAlpha"/>
<feMorphology radius="1" operator="dilate" in="SourceAlpha" result="effect2_dropShadow_6320_11388"/>
<feOffset/>
<feColorMatrix type="matrix" values="0 0 0 0 0.25098 0 0 0 0 0.341176 0 0 0 0 0.427451 0 0 0 0.04 0"/>
<feBlend mode="normal" in2="effect1_dropShadow_6320_11388" result="effect2_dropShadow_6320_11388"/>
<feBlend mode="normal" in="SourceGraphic" in2="effect2_dropShadow_6320_11388" result="shape"/>
</filter>
<filter id="filter1_dd_6320_11388" x="65" y="22" width="24" height="24" filterUnits="userSpaceOnUse" color-interpolation-filters="sRGB">
<feFlood flood-opacity="0" result="BackgroundImageFix"/>
<feColorMatrix in="SourceAlpha" type="matrix" values="0 0 0 0 0 0 0 0 0 0 0 0 0 0 0 0 0 0 127 0" result="hardAlpha"/>
<feOffset/>
<feColorMatrix type="matrix" values="0 0 0 0 0 0 0 0 0 0 0 0 0 0 0 0 0 0 0.07 0"/>
<feBlend mode="normal" in2="BackgroundImageFix" result="effect1_dropShadow_6320_11388"/>
<feColorMatrix in="SourceAlpha" type="matrix" values="0 0 0 0 0 0 0 0 0 0 0 0 0 0 0 0 0 0 127 0" result="hardAlpha"/>
<feOffset dy="2"/>
<feGaussianBlur stdDeviation="2.5"/>
<feColorMatrix type="matrix" values="0 0 0 0 0 0 0 0 0 0 0 0 0 0 0 0 0 0 0.15 0"/>
<feBlend mode="normal" in2="effect1_dropShadow_6320_11388" result="effect2_dropShadow_6320_11388"/>
<feBlend mode="normal" in="SourceGraphic" in2="effect2_dropShadow_6320_11388" result="shape"/>
</filter>
<linearGradient id="paint0_linear_6320_11388" x1="300" y1="97.5" x2="32" y2="97.5" gradientUnits="userSpaceOnUse">
<stop stop-color="white" stop-opacity="0"/>
<stop offset="1" stop-color="#FFFEFE"/>
</linearGradient>
<linearGradient id="paint1_linear_6320_11388" x1="166" y1="26" x2="166" y2="169" gradientUnits="userSpaceOnUse">
<stop stop-opacity="0"/>
<stop offset="1"/>
</linearGradient>
</defs>
</svg>
