<svg width="328" height="148" viewBox="0 0 328 187" fill="none" xmlns="http://www.w3.org/2000/svg">
<g filter="url(#filter0_dd_6332_25170)">
<rect x="16" y="12.1879" width="361.409" height="295.151" rx="4.81879" fill="var(--ui-kit-color-surface)"/>
<rect width="322.859" height="172.272" rx="4.81879" transform="matrix(-1 0 0 1 358.134 31.463)" fill="currentColor"/>
<rect x="-0.602349" y="0.602349" width="321.654" height="171.067" rx="4.21644" transform="matrix(-1 0 0 1 356.93 31.463)" stroke="#40576D" stroke-opacity="0.07" stroke-width="1.2047"/>
<rect x="35.2751" y="31.463" width="322.859" height="172.272" rx="4.81879" fill="url(#paint0_linear_6332_25170)"/>
<rect x="35.2751" y="31.463" width="322.859" height="172.272" rx="4.81879" fill="url(#paint1_linear_6332_25170)"/>
<rect x="35.8775" y="32.0654" width="321.654" height="171.067" rx="4.21644" stroke="#394C60" stroke-opacity="0.15" stroke-width="1.2047"/>
<mask id="mask0_6299_48631" style="mask-type:alpha" maskUnits="userSpaceOnUse" x="83" y="25" width="30" height="30">
<path fill-rule="evenodd" clip-rule="evenodd" d="M83.4642 39.8958C83.4642 47.8799 89.9365 54.3522 97.9206 54.3522C105.905 54.3522 112.377 47.8799 112.377 39.8958C112.377 31.9118 105.905 25.4395 97.9206 25.4395C89.9365 25.4395 83.4642 31.9118 83.4642 39.8958ZM91.8971 39.8958C91.8971 43.2225 94.5939 45.9193 97.9206 45.9193C101.247 45.9193 103.944 43.2225 103.944 39.8958C103.944 36.5691 101.247 33.8723 97.9206 33.8723C94.5939 33.8723 91.8971 36.5691 91.8971 39.8958Z" fill="#D9D9D9"/>
</mask>
<g mask="url(#mask0_6332_25170)">
<g filter="url(#filter1_dd_6299_48631)">
<path fill-rule="evenodd" clip-rule="evenodd" d="M97.9187 48.3289C93.2613 48.3289 89.4858 44.5534 89.4858 39.896C89.4858 35.2387 93.2613 31.4631 97.9187 31.4631C102.576 31.4631 106.352 35.2387 106.352 39.896C106.352 44.5534 102.576 48.3289 97.9187 48.3289Z" fill="#80808"/>
<path d="M90.6905 39.896C90.6905 43.888 93.9267 47.1242 97.9187 47.1242C101.911 47.1242 105.147 43.888 105.147 39.896C105.147 35.904 101.911 32.6678 97.9187 32.6678C93.9267 32.6678 90.6905 35.904 90.6905 39.896Z" stroke="white" stroke-width="2.4094"/>
</g>
</g>
</g>
<defs>
<filter id="filter0_dd_6332_25170" x="-3.27517" y="0.140886" width="399.96" height="333.701" filterUnits="userSpaceOnUse" color-interpolation-filters="sRGB">
<feFlood flood-opacity="0" result="BackgroundImageFix"/>
<feColorMatrix in="SourceAlpha" type="matrix" values="0 0 0 0 0 0 0 0 0 0 0 0 0 0 0 0 0 0 127 0" result="hardAlpha"/>
<feMorphology radius="4.81879" operator="erode" in="SourceAlpha" result="effect1_dropShadow_6332_25170"/>
<feOffset dy="7.22819"/>
<feGaussianBlur stdDeviation="12.047"/>
<feColorMatrix type="matrix" values="0 0 0 0 0.25098 0 0 0 0 0.341176 0 0 0 0 0.427451 0 0 0 0.2 0"/>
<feBlend mode="normal" in2="BackgroundImageFix" result="effect1_dropShadow_6332_25170"/>
<feColorMatrix in="SourceAlpha" type="matrix" values="0 0 0 0 0 0 0 0 0 0 0 0 0 0 0 0 0 0 127 0" result="hardAlpha"/>
<feMorphology radius="1.2047" operator="dilate" in="SourceAlpha" result="effect2_dropShadow_6332_25170"/>
<feOffset/>
<feColorMatrix type="matrix" values="0 0 0 0 0.25098 0 0 0 0 0.341176 0 0 0 0 0.427451 0 0 0 0.04 0"/>
<feBlend mode="normal" in2="effect1_dropShadow_6332_25170" result="effect2_dropShadow_6332_25170"/>
<feBlend mode="normal" in="SourceGraphic" in2="effect2_dropShadow_6332_25170" result="shape"/>
</filter>
<filter id="filter1_dd_6332_25170" x="273.463" y="27.8489" width="28.9127" height="28.9127" filterUnits="userSpaceOnUse" color-interpolation-filters="sRGB">
<feFlood flood-opacity="0" result="BackgroundImageFix"/>
<feColorMatrix in="SourceAlpha" type="matrix" values="0 0 0 0 0 0 0 0 0 0 0 0 0 0 0 0 0 0 127 0" result="hardAlpha"/>
<feOffset/>
<feColorMatrix type="matrix" values="0 0 0 0 0 0 0 0 0 0 0 0 0 0 0 0 0 0 0.07 0"/>
<feBlend mode="normal" in2="BackgroundImageFix" result="effect1_dropShadow_6332_25170"/>
<feColorMatrix in="SourceAlpha" type="matrix" values="0 0 0 0 0 0 0 0 0 0 0 0 0 0 0 0 0 0 127 0" result="hardAlpha"/>
<feOffset dy="2.4094"/>
<feGaussianBlur stdDeviation="3.01174"/>
<feColorMatrix type="matrix" values="0 0 0 0 0 0 0 0 0 0 0 0 0 0 0 0 0 0 0.15 0"/>
<feBlend mode="normal" in2="effect1_dropShadow_6332_25170" result="effect2_dropShadow_6332_25170"/>
<feBlend mode="normal" in="SourceGraphic" in2="effect2_dropShadow_6332_25170" result="shape"/>
</filter>
<linearGradient id="paint0_linear_6332_25170" x1="358.134" y1="117.599" x2="35.2752" y2="117.599" gradientUnits="userSpaceOnUse">
<stop stop-color="currentColor" stop-opacity="0"/>
<stop offset="1" stop-color="#FFFEFE"/>
</linearGradient>
<linearGradient id="paint1_linear_6332_25170" x1="196.705" y1="31.463" x2="196.705" y2="203.735" gradientUnits="userSpaceOnUse">
<stop stop-opacity="0"/>
<stop offset="1"/>
</linearGradient>
</defs>
</svg>
