<svg width="328" height="148" viewBox="0 0 328 187" fill="none" xmlns="http://www.w3.org/2000/svg">
<g filter="url(#filter0_dd_6332_25170)">
<rect x="16" y="12.1879" width="361.409" height="295.151" rx="4.81879" fill="var(--ui-kit-color-surface)"/>
<rect width="322.859" height="172.272" rx="4.81879" transform="matrix(-1 0 0 1 358.134 31.463)" fill="currentColor"/>
<rect x="-0.602349" y="0.602349" width="321.654" height="171.067" rx="4.21644" transform="matrix(-1 0 0 1 356.93 31.463)" stroke="#40576D" stroke-opacity="0.07" stroke-width="1.2047"/>
<rect x="35.2751" y="31.463" width="322.859" height="172.272" rx="4.81879" fill="url(#paint0_linear_6332_25170)"/>
<rect x="35.2751" y="31.463" width="322.859" height="172.272" rx="4.81879" fill="url(#paint1_linear_6332_25170)"/>
<rect x="35.8775" y="32.0654" width="321.654" height="171.067" rx="4.21644" stroke="#394C60" stroke-opacity="0.15" stroke-width="1.2047"/>
<mask id="mask0_6332_25170" style="mask-type:alpha" maskUnits="userSpaceOnUse" x="273" y="25" width="30" height="30">
<path fill-rule="evenodd" clip-rule="evenodd" d="M273.463 39.8957C273.463 47.8797 279.936 54.3521 287.92 54.3521C295.904 54.3521 302.376 47.8797 302.376 39.8957C302.376 31.9117 295.904 25.4393 287.92 25.4393C279.936 25.4393 273.463 31.9117 273.463 39.8957ZM281.896 39.8957C281.896 43.2224 284.593 45.9192 287.92 45.9192C291.247 45.9192 293.943 43.2224 293.943 39.8957C293.943 36.569 291.247 33.8722 287.92 33.8722C284.593 33.8722 281.896 36.569 281.896 39.8957Z" fill="#D9D9D9"/>
</mask>
<g mask="url(#mask0_6332_25170)">
<g filter="url(#filter1_dd_6332_25170)">
<path fill-rule="evenodd" clip-rule="evenodd" d="M287.919 48.3288C283.262 48.3288 279.486 44.5533 279.486 39.8959C279.486 35.2385 283.262 31.463 287.919 31.463C292.576 31.463 296.352 35.2385 296.352 39.8959C296.352 44.5533 292.576 48.3288 287.919 48.3288Z" fill="#808080"/>
<path d="M280.691 39.8959C280.691 43.8879 283.927 47.1241 287.919 47.1241C291.911 47.1241 295.147 43.8879 295.147 39.8959C295.147 35.9039 291.911 32.6677 287.919 32.6677C283.927 32.6677 280.691 35.9039 280.691 39.8959Z" stroke="white" stroke-width="2.4094"/>
</g>
</g>
</g>
<defs>
<filter id="filter0_dd_6332_25170" x="-3.27517" y="0.140886" width="399.96" height="333.701" filterUnits="userSpaceOnUse" color-interpolation-filters="sRGB">
<feFlood flood-opacity="0" result="BackgroundImageFix"/>
<feColorMatrix in="SourceAlpha" type="matrix" values="0 0 0 0 0 0 0 0 0 0 0 0 0 0 0 0 0 0 127 0" result="hardAlpha"/>
<feMorphology radius="4.81879" operator="erode" in="SourceAlpha" result="effect1_dropShadow_6332_25170"/>
<feOffset dy="7.22819"/>
<feGaussianBlur stdDeviation="12.047"/>
<feColorMatrix type="matrix" values="0 0 0 0 0.25098 0 0 0 0 0.341176 0 0 0 0 0.427451 0 0 0 0.2 0"/>
<feBlend mode="normal" in2="BackgroundImageFix" result="effect1_dropShadow_6332_25170"/>
<feColorMatrix in="SourceAlpha" type="matrix" values="0 0 0 0 0 0 0 0 0 0 0 0 0 0 0 0 0 0 127 0" result="hardAlpha"/>
<feMorphology radius="1.2047" operator="dilate" in="SourceAlpha" result="effect2_dropShadow_6332_25170"/>
<feOffset/>
<feColorMatrix type="matrix" values="0 0 0 0 0.25098 0 0 0 0 0.341176 0 0 0 0 0.427451 0 0 0 0.04 0"/>
<feBlend mode="normal" in2="effect1_dropShadow_6332_25170" result="effect2_dropShadow_6332_25170"/>
<feBlend mode="normal" in="SourceGraphic" in2="effect2_dropShadow_6332_25170" result="shape"/>
</filter>
<filter id="filter1_dd_6332_25170" x="273.463" y="27.8489" width="28.9127" height="28.9127" filterUnits="userSpaceOnUse" color-interpolation-filters="sRGB">
<feFlood flood-opacity="0" result="BackgroundImageFix"/>
<feColorMatrix in="SourceAlpha" type="matrix" values="0 0 0 0 0 0 0 0 0 0 0 0 0 0 0 0 0 0 127 0" result="hardAlpha"/>
<feOffset/>
<feColorMatrix type="matrix" values="0 0 0 0 0 0 0 0 0 0 0 0 0 0 0 0 0 0 0.07 0"/>
<feBlend mode="normal" in2="BackgroundImageFix" result="effect1_dropShadow_6332_25170"/>
<feColorMatrix in="SourceAlpha" type="matrix" values="0 0 0 0 0 0 0 0 0 0 0 0 0 0 0 0 0 0 127 0" result="hardAlpha"/>
<feOffset dy="2.4094"/>
<feGaussianBlur stdDeviation="3.01174"/>
<feColorMatrix type="matrix" values="0 0 0 0 0 0 0 0 0 0 0 0 0 0 0 0 0 0 0.15 0"/>
<feBlend mode="normal" in2="effect1_dropShadow_6332_25170" result="effect2_dropShadow_6332_25170"/>
<feBlend mode="normal" in="SourceGraphic" in2="effect2_dropShadow_6332_25170" result="shape"/>
</filter>
<linearGradient id="paint0_linear_6332_25170" x1="358.134" y1="117.599" x2="35.2752" y2="117.599" gradientUnits="userSpaceOnUse">
<stop stop-color="currentColor" stop-opacity="0"/>
<stop offset="1" stop-color="#FFFEFE"/>
</linearGradient>
<linearGradient id="paint1_linear_6332_25170" x1="196.705" y1="31.463" x2="196.705" y2="203.735" gradientUnits="userSpaceOnUse">
<stop stop-opacity="0"/>
<stop offset="1"/>
</linearGradient>
</defs>
</svg>
