<svg width="32" height="32" viewBox="0 0 32 32" fill="none" xmlns="http://www.w3.org/2000/svg">
<path d="M0 4C0 1.79086 1.79086 0 4 0H28C30.2091 0 32 1.79086 32 4V28C32 30.2091 30.2091 32 28 32H4C1.79086 32 0 30.2091 0 28V4Z" fill="#11171D" fill-opacity="0.6"/>
<path fill-rule="evenodd" clip-rule="evenodd" d="M15.82 6.38197C15.8911 6.50801 15.9242 6.65193 15.9154 6.79636C15.9065 6.94079 15.856 7.07957 15.77 7.19597C14.8514 8.44024 14.4097 9.9728 14.5252 11.5151C14.6406 13.0574 15.3056 14.5072 16.3992 15.6008C17.4929 16.6944 18.9426 17.3594 20.4849 17.4749C22.0272 17.5903 23.5598 17.1486 24.804 16.23C24.9204 16.1438 25.0592 16.0932 25.2037 16.0843C25.3482 16.0753 25.4922 16.1083 25.6183 16.1793C25.7445 16.2504 25.8473 16.3564 25.9145 16.4847C25.9817 16.6129 26.0104 16.7578 25.997 16.902C25.822 18.7971 25.1109 20.6032 23.9468 22.1089C22.7828 23.6146 21.214 24.7577 19.424 25.4043C17.634 26.051 15.6969 26.1745 13.8393 25.7604C11.9817 25.3462 10.2805 24.4117 8.93463 23.066C7.5888 21.7203 6.65406 20.0191 6.23978 18.1615C5.8255 16.304 5.94882 14.3668 6.5953 12.5768C7.24179 10.7868 8.3847 9.21786 9.8903 8.05368C11.3959 6.8895 13.2019 6.17818 15.097 6.00297C15.2413 5.98957 15.3863 6.01823 15.5146 6.08549C15.6429 6.15275 15.749 6.25572 15.82 6.38197ZM13.7 7.78197C12.2706 8.18628 10.9717 8.95732 9.93219 10.0186C8.8927 11.0799 8.14877 12.3945 7.77419 13.832C7.39961 15.2696 7.40741 16.7801 7.7968 18.2137C8.1862 19.6473 8.94367 20.9541 9.99405 22.0046C11.0444 23.0551 12.3512 23.8127 13.7848 24.2022C15.2184 24.5918 16.7289 24.5997 18.1664 24.2253C19.604 23.8508 20.9187 23.107 21.9801 22.0676C23.0414 21.0282 23.8126 19.7294 24.217 18.3C22.7453 18.9586 21.1082 19.1547 19.5225 18.8623C17.9369 18.57 16.4773 17.8029 15.3372 16.6628C14.1971 15.5227 13.4301 14.0632 13.1377 12.4775C12.8454 10.8918 13.0415 9.25374 13.7 7.78197Z" fill="var(--ui-kit-color-contrast-fore)"/>
</svg>
