<svg width="32" height="32" viewBox="0 0 32 32" fill="none" xmlns="http://www.w3.org/2000/svg">
<path d="M0 4C0 1.79086 1.79086 0 4 0H28C30.2091 0 32 1.79086 32 4V28C32 30.2091 30.2091 32 28 32H4C1.79086 32 0 30.2091 0 28V4Z" fill="#11171D" fill-opacity="0.6"/>
<path fill-rule="evenodd" clip-rule="evenodd" d="M16.0064 13.0017C14.3492 13.0017 13.0057 14.3452 13.0057 16.0024C13.0057 17.6596 14.3492 19.0031 16.0064 19.0031C17.6636 19.0031 19.0071 17.6596 19.0071 16.0024C19.0071 14.3452 17.6636 13.0017 16.0064 13.0017ZM11.5057 16.0024C11.5057 13.5167 13.5208 11.5017 16.0064 11.5017C18.4921 11.5017 20.5071 13.5167 20.5071 16.0024C20.5071 18.488 18.4921 20.5031 16.0064 20.5031C13.5208 20.5031 11.5057 18.488 11.5057 16.0024Z" fill="var(--ui-kit-color-contrast-fore)"/>
<path fill-rule="evenodd" clip-rule="evenodd" d="M16.0062 6.02612C16.4204 6.02612 16.7562 6.36191 16.7562 6.77612V8.27639C16.7562 8.69061 16.4204 9.02639 16.0062 9.02639C15.592 9.02639 15.2562 8.69061 15.2562 8.27639V6.77612C15.2562 6.36191 15.592 6.02612 16.0062 6.02612Z" fill="var(--ui-kit-color-contrast-fore)"/>
<path fill-rule="evenodd" clip-rule="evenodd" d="M16.0062 22.9888C16.4204 22.9888 16.7562 23.3246 16.7562 23.7388V25.239C16.7562 25.6533 16.4204 25.989 16.0062 25.989C15.592 25.989 15.2562 25.6533 15.2562 25.239V23.7388C15.2562 23.3246 15.592 22.9888 16.0062 22.9888Z" fill="var(--ui-kit-color-contrast-fore)"/>
<path fill-rule="evenodd" clip-rule="evenodd" d="M8.85949 8.81973C9.16737 8.54264 9.64159 8.5676 9.91868 8.87548L11.2689 10.3757C11.546 10.6836 11.5211 11.1578 11.2132 11.4349C10.9053 11.712 10.4311 11.6871 10.154 11.3792L8.80374 9.87893C8.52665 9.57104 8.55161 9.09683 8.85949 8.81973Z" fill="var(--ui-kit-color-contrast-fore)"/>
<path fill-rule="evenodd" clip-rule="evenodd" d="M20.7369 20.6303C21.0448 20.3532 21.519 20.3781 21.7961 20.686L23.1464 22.1863C23.4235 22.4942 23.3985 22.9684 23.0906 23.2455C22.7827 23.5226 22.3085 23.4976 22.0314 23.1897L20.6812 21.6895C20.4041 21.3816 20.429 20.9074 20.7369 20.6303Z" fill="var(--ui-kit-color-contrast-fore)"/>
<path fill-rule="evenodd" clip-rule="evenodd" d="M6.01416 16.0032C6.01416 15.589 6.34995 15.2532 6.76416 15.2532H8.56507C8.97928 15.2532 9.31507 15.589 9.31507 16.0032C9.31507 16.4174 8.97928 16.7532 8.56507 16.7532H6.76416C6.34995 16.7532 6.01416 16.4174 6.01416 16.0032Z" fill="var(--ui-kit-color-contrast-fore)"/>
<path fill-rule="evenodd" clip-rule="evenodd" d="M22.6516 16.0032C22.6516 15.589 22.9874 15.2532 23.4016 15.2532H25.2025C25.6167 15.2532 25.9525 15.589 25.9525 16.0032C25.9525 16.4174 25.6167 16.7532 25.2025 16.7532H23.4016C22.9874 16.7532 22.6516 16.4174 22.6516 16.0032Z" fill="var(--ui-kit-color-contrast-fore)"/>
<path fill-rule="evenodd" clip-rule="evenodd" d="M11.2293 20.5658C11.5372 20.8429 11.5621 21.3171 11.285 21.625L9.9348 23.1253C9.6577 23.4332 9.18348 23.4581 8.8756 23.181C8.56772 22.9039 8.54276 22.4297 8.81986 22.1218L10.1701 20.6216C10.4472 20.3137 10.9214 20.2887 11.2293 20.5658Z" fill="var(--ui-kit-color-contrast-fore)"/>
<path fill-rule="evenodd" clip-rule="evenodd" d="M23.1353 8.81973C23.4432 9.09683 23.4681 9.57104 23.191 9.87893L21.8408 11.3792C21.5637 11.6871 21.0895 11.712 20.7816 11.4349C20.4737 11.1578 20.4488 10.6836 20.7259 10.3757L22.0761 8.87548C22.3532 8.5676 22.8274 8.54264 23.1353 8.81973Z" fill="var(--ui-kit-color-contrast-fore)"/>
</svg>
