<svg width="156" height="98" viewBox="0 0 156 98" fill="none" xmlns="http://www.w3.org/2000/svg">
<g filter="url(#filter0_dd_6317_11339)">
<rect x="12" y="10" width="288" height="211" rx="4" fill="var(--ui-kit-color-page)"/>
<g clip-path="url(#clip0_6317_11339)">
<rect width="288" height="39" transform="translate(12 18)" fill="var(--ui-kit-color-neutral-fore-low)" fill-opacity="0.07"/>
<path d="M29.5107 42.5V32.5059H33.2979C33.9131 32.5059 34.4349 32.6038 34.8633 32.7998C35.2917 32.9958 35.613 33.276 35.8271 33.6406C36.0459 34.0007 36.1553 34.4313 36.1553 34.9326C36.1553 35.3656 36.0368 35.7575 35.7998 36.1084C35.5674 36.4593 35.2324 36.7327 34.7949 36.9287V37.0723C35.4603 37.2363 35.9639 37.5348 36.3057 37.9678C36.652 38.4007 36.8252 38.9453 36.8252 39.6016C36.8252 40.5312 36.5518 41.2467 36.0049 41.748C35.4626 42.2493 34.6559 42.5 33.585 42.5H29.5107ZM33.2432 36.7031C33.7946 36.7031 34.223 36.5596 34.5283 36.2725C34.8337 35.9808 34.9863 35.582 34.9863 35.0762C34.9863 34.543 34.8382 34.1442 34.542 33.8799C34.2503 33.611 33.8174 33.4766 33.2432 33.4766H30.6865V36.7031H33.2432ZM33.4961 41.5293C34.918 41.5293 35.6289 40.8867 35.6289 39.6016C35.6289 38.3164 34.918 37.6738 33.4961 37.6738H30.6865V41.5293H33.4961ZM40.626 42.6436C40.0928 42.6436 39.6735 42.4932 39.3682 42.1924C39.0628 41.887 38.9102 41.4336 38.9102 40.832V31.9316H40.0244V40.7568C40.0244 41.0713 40.0837 41.2992 40.2021 41.4404C40.3252 41.5771 40.5143 41.6455 40.7695 41.6455C40.9245 41.6455 41.0817 41.6204 41.2412 41.5703L41.3369 41.5977L41.4668 42.4727C41.3848 42.5273 41.2663 42.5684 41.1113 42.5957C40.9609 42.6276 40.7992 42.6436 40.626 42.6436ZM45.4521 42.6436C44.5999 42.6436 43.9642 42.418 43.5449 41.9668C43.1302 41.5156 42.9229 40.8548 42.9229 39.9844V34.96H44.0371V39.957C44.0371 41.1009 44.5749 41.6729 45.6504 41.6729C46.334 41.6729 46.874 41.4495 47.2705 41.0029C47.667 40.5563 47.8652 39.8317 47.8652 38.8291V34.96H48.9795V42.5H47.9268V41.3174L47.7832 41.2832C47.5234 41.7435 47.2113 42.0853 46.8467 42.3086C46.4867 42.5319 46.0218 42.6436 45.4521 42.6436ZM57.4834 38.9863H52.3018C52.3337 39.9023 52.5524 40.5745 52.958 41.0029C53.3682 41.4313 53.9287 41.6455 54.6396 41.6455C55.1774 41.6455 55.6104 41.5498 55.9385 41.3584C56.2666 41.167 56.5241 40.8662 56.7109 40.4561H56.8545L57.5791 40.8867C57.3604 41.4336 57.0094 41.8643 56.5264 42.1787C56.0479 42.4886 55.4189 42.6436 54.6396 42.6436C53.9105 42.6436 53.2839 42.5 52.7598 42.2129C52.2357 41.9258 51.8324 41.4906 51.5498 40.9072C51.2673 40.3239 51.126 39.5993 51.126 38.7334C51.126 37.8766 51.2741 37.1543 51.5703 36.5664C51.8711 35.9785 52.279 35.541 52.7939 35.2539C53.3135 34.9622 53.9059 34.8164 54.5713 34.8164C55.5374 34.8164 56.2917 35.0898 56.834 35.6367C57.3763 36.179 57.6497 36.9857 57.6543 38.0566C57.6543 38.4759 57.6452 38.7585 57.627 38.9043L57.4834 38.9863ZM56.5537 38.0566C56.5355 37.2546 56.3577 36.6712 56.0205 36.3066C55.6833 35.9421 55.2002 35.7598 54.5713 35.7598C53.9105 35.7598 53.391 35.9443 53.0127 36.3135C52.639 36.6781 52.4111 37.2591 52.3291 38.0566H56.5537ZM63.3486 42.6436C62.7881 42.6436 62.3005 42.5365 61.8857 42.3223C61.4756 42.1035 61.1497 41.8164 60.9082 41.4609L60.7646 41.4883V42.5H59.6504V31.9316H60.7646V36.0879L60.9082 36.1152C61.4824 35.2493 62.3164 34.8164 63.4102 34.8164C64.0299 34.8164 64.5723 34.96 65.0371 35.2471C65.502 35.5342 65.862 35.9717 66.1172 36.5596C66.377 37.1429 66.5068 37.8675 66.5068 38.7334C66.5068 39.5902 66.3701 40.3125 66.0967 40.9004C65.8278 41.4837 65.4564 41.9212 64.9824 42.2129C64.5085 42.5 63.9639 42.6436 63.3486 42.6436ZM63.082 41.6455C64.5859 41.6455 65.3379 40.6748 65.3379 38.7334C65.3379 37.7262 65.1419 36.988 64.75 36.5186C64.3581 36.0492 63.8021 35.8145 63.082 35.8145C62.3757 35.8145 61.8128 36.056 61.3936 36.5391C60.9743 37.0176 60.7646 37.749 60.7646 38.7334C60.7646 39.7132 60.9743 40.4447 61.3936 40.9277C61.8128 41.4062 62.3757 41.6455 63.082 41.6455ZM74.5186 38.9863H69.3369C69.3688 39.9023 69.5876 40.5745 69.9932 41.0029C70.4033 41.4313 70.9639 41.6455 71.6748 41.6455C72.2126 41.6455 72.6455 41.5498 72.9736 41.3584C73.3018 41.167 73.5592 40.8662 73.7461 40.4561H73.8896L74.6143 40.8867C74.3955 41.4336 74.0446 41.8643 73.5615 42.1787C73.083 42.4886 72.4541 42.6436 71.6748 42.6436C70.9456 42.6436 70.319 42.5 69.7949 42.2129C69.2708 41.9258 68.8675 41.4906 68.585 40.9072C68.3024 40.3239 68.1611 39.5993 68.1611 38.7334C68.1611 37.8766 68.3092 37.1543 68.6055 36.5664C68.9062 35.9785 69.3141 35.541 69.8291 35.2539C70.3486 34.9622 70.9411 34.8164 71.6064 34.8164C72.5726 34.8164 73.3268 35.0898 73.8691 35.6367C74.4115 36.179 74.6849 36.9857 74.6895 38.0566C74.6895 38.4759 74.6803 38.7585 74.6621 38.9043L74.5186 38.9863ZM73.5889 38.0566C73.5706 37.2546 73.3929 36.6712 73.0557 36.3066C72.7184 35.9421 72.2354 35.7598 71.6064 35.7598C70.9456 35.7598 70.4261 35.9443 70.0479 36.3135C69.6742 36.6781 69.4463 37.2591 69.3643 38.0566H73.5889ZM76.6855 42.5V34.96H77.7451V36.1426L77.8887 36.1768C78.2396 35.32 78.9004 34.8916 79.8711 34.8916C80.3861 34.8916 80.7712 34.985 81.0264 35.1719L80.7393 36.1152L80.6025 36.1426C80.32 36.0013 80.0101 35.9307 79.6729 35.9307C79.0713 35.9307 78.6087 36.1562 78.2852 36.6074C77.9616 37.0586 77.7998 37.79 77.7998 38.8018V42.5H76.6855ZM82.5098 42.5V34.96H83.5693V36.1426L83.7129 36.1768C84.0638 35.32 84.7246 34.8916 85.6953 34.8916C86.2103 34.8916 86.5954 34.985 86.8506 35.1719L86.5635 36.1152L86.4268 36.1426C86.1442 36.0013 85.8343 35.9307 85.4971 35.9307C84.8955 35.9307 84.4329 36.1562 84.1094 36.6074C83.7858 37.0586 83.624 37.79 83.624 38.8018V42.5H82.5098ZM88.5322 45.6992C88.277 45.6992 88.0378 45.6764 87.8145 45.6309C87.5957 45.5898 87.4066 45.5306 87.2471 45.4531L87.4521 44.5713L87.5752 44.5303C87.6846 44.585 87.8213 44.6305 87.9854 44.667C88.1494 44.708 88.318 44.7285 88.4912 44.7285C88.7965 44.7285 89.0495 44.6875 89.25 44.6055C89.4505 44.5234 89.6214 44.3867 89.7627 44.1953C89.9085 44.0085 90.043 43.7487 90.166 43.416L90.4326 42.6777L87.4043 34.96H88.6074L90.9795 41.1123H91.1094L93.4062 34.96H94.5479L91.1777 43.6826C90.9863 44.1657 90.7721 44.5531 90.5352 44.8447C90.2982 45.141 90.0179 45.3574 89.6943 45.4941C89.3708 45.6309 88.9834 45.6992 88.5322 45.6992Z" fill="var(--ui-kit-color-typography-primary)" fill-opacity="0.9"/>
<path d="M36.9961 81.5H35.7383L34.8154 78.7588H30.5566L29.627 81.5H28.3965L31.8828 71.5059H33.5098L36.9961 81.5ZM32.6006 72.7158L30.8848 77.7744H34.4805L32.7715 72.7158H32.6006ZM38.7051 84.5557V73.96H39.8193V75.0879L39.9629 75.1152C40.5234 74.2493 41.346 73.8164 42.4307 73.8164C43.0596 73.8164 43.6087 73.96 44.0781 74.2471C44.5475 74.5342 44.9121 74.9717 45.1719 75.5596C45.4316 76.1429 45.5615 76.8675 45.5615 77.7334C45.5615 78.5947 45.4248 79.3171 45.1514 79.9004C44.8779 80.4837 44.4997 80.9212 44.0166 81.2129C43.5335 81.5 42.9775 81.6436 42.3486 81.6436C41.8382 81.6436 41.3848 81.5547 40.9883 81.377C40.5918 81.1992 40.25 80.9076 39.9629 80.502L39.8193 80.5293V84.5557H38.7051ZM42.1025 80.6455C43.6292 80.6455 44.3926 79.6748 44.3926 77.7334C44.3926 75.7874 43.6292 74.8145 42.1025 74.8145C41.6559 74.8145 41.2617 74.917 40.9199 75.1221C40.5781 75.3271 40.3092 75.6484 40.1133 76.0859C39.9173 76.5189 39.8193 77.068 39.8193 77.7334C39.8193 78.3942 39.9173 78.9434 40.1133 79.3809C40.3092 79.8138 40.5781 80.1328 40.9199 80.3379C41.2617 80.543 41.6559 80.6455 42.1025 80.6455ZM47.7012 84.5557V73.96H48.8154V75.0879L48.959 75.1152C49.5195 74.2493 50.3421 73.8164 51.4268 73.8164C52.0557 73.8164 52.6048 73.96 53.0742 74.2471C53.5436 74.5342 53.9082 74.9717 54.168 75.5596C54.4277 76.1429 54.5576 76.8675 54.5576 77.7334C54.5576 78.5947 54.4209 79.3171 54.1475 79.9004C53.874 80.4837 53.4958 80.9212 53.0127 81.2129C52.5296 81.5 51.9736 81.6436 51.3447 81.6436C50.8343 81.6436 50.3809 81.5547 49.9844 81.377C49.5879 81.1992 49.2461 80.9076 48.959 80.502L48.8154 80.5293V84.5557H47.7012ZM51.0986 80.6455C52.6253 80.6455 53.3887 79.6748 53.3887 77.7334C53.3887 75.7874 52.6253 74.8145 51.0986 74.8145C50.652 74.8145 50.2578 74.917 49.916 75.1221C49.5742 75.3271 49.3053 75.6484 49.1094 76.0859C48.9134 76.5189 48.8154 77.068 48.8154 77.7334C48.8154 78.3942 48.9134 78.9434 49.1094 79.3809C49.3053 79.8138 49.5742 80.1328 49.916 80.3379C50.2578 80.543 50.652 80.6455 51.0986 80.6455ZM58.3857 81.6436C57.8525 81.6436 57.4333 81.4932 57.1279 81.1924C56.8226 80.887 56.6699 80.4336 56.6699 79.832V70.9316H57.7842V79.7568C57.7842 80.0713 57.8434 80.2992 57.9619 80.4404C58.085 80.5771 58.2741 80.6455 58.5293 80.6455C58.6842 80.6455 58.8415 80.6204 59.001 80.5703L59.0967 80.5977L59.2266 81.4727C59.1445 81.5273 59.026 81.5684 58.8711 81.5957C58.7207 81.6276 58.5589 81.6436 58.3857 81.6436ZM66.6709 77.9863H61.4893C61.5212 78.9023 61.7399 79.5745 62.1455 80.0029C62.5557 80.4313 63.1162 80.6455 63.8271 80.6455C64.3649 80.6455 64.7979 80.5498 65.126 80.3584C65.4541 80.167 65.7116 79.8662 65.8984 79.4561H66.042L66.7666 79.8867C66.5479 80.4336 66.1969 80.8643 65.7139 81.1787C65.2354 81.4886 64.6064 81.6436 63.8271 81.6436C63.098 81.6436 62.4714 81.5 61.9473 81.2129C61.4232 80.9258 61.0199 80.4906 60.7373 79.9072C60.4548 79.3239 60.3135 78.5993 60.3135 77.7334C60.3135 76.8766 60.4616 76.1543 60.7578 75.5664C61.0586 74.9785 61.4665 74.541 61.9814 74.2539C62.501 73.9622 63.0934 73.8164 63.7588 73.8164C64.7249 73.8164 65.4792 74.0898 66.0215 74.6367C66.5638 75.179 66.8372 75.9857 66.8418 77.0566C66.8418 77.4759 66.8327 77.7585 66.8145 77.9043L66.6709 77.9863ZM65.7412 77.0566C65.723 76.2546 65.5452 75.6712 65.208 75.3066C64.8708 74.9421 64.3877 74.7598 63.7588 74.7598C63.098 74.7598 62.5785 74.9443 62.2002 75.3135C61.8265 75.6781 61.5986 76.2591 61.5166 77.0566H65.7412Z" fill="var(--ui-kit-color-typography-primary)" fill-opacity="0.9"/>
</g>
</g>
<defs>
<filter id="filter0_dd_6317_11339" x="0" y="0" width="312" height="235" filterUnits="userSpaceOnUse" color-interpolation-filters="sRGB">
<feFlood flood-opacity="0" result="BackgroundImageFix"/>
<feColorMatrix in="SourceAlpha" type="matrix" values="0 0 0 0 0 0 0 0 0 0 0 0 0 0 0 0 0 0 127 0" result="hardAlpha"/>
<feOffset dy="2"/>
<feGaussianBlur stdDeviation="6"/>
<feColorMatrix type="matrix" values="0 0 0 0 0.054902 0 0 0 0 0.0745098 0 0 0 0 0.0941176 0 0 0 0.2 0"/>
<feBlend mode="normal" in2="BackgroundImageFix" result="effect1_dropShadow_6317_11339"/>
<feColorMatrix in="SourceAlpha" type="matrix" values="0 0 0 0 0 0 0 0 0 0 0 0 0 0 0 0 0 0 127 0" result="hardAlpha"/>
<feMorphology radius="1" operator="dilate" in="SourceAlpha" result="effect2_dropShadow_6317_11339"/>
<feOffset/>
<feColorMatrix type="matrix" values="0 0 0 0 1 0 0 0 0 1 0 0 0 0 1 0 0 0 0.1 0"/>
<feBlend mode="normal" in2="effect1_dropShadow_6317_11339" result="effect2_dropShadow_6317_11339"/>
<feBlend mode="normal" in="SourceGraphic" in2="effect2_dropShadow_6317_11339" result="shape"/>
</filter>
<clipPath id="clip0_6317_11339">
<rect width="288" height="195" fill="white" transform="translate(12 18)"/>
</clipPath>
</defs>
</svg>
