<svg width="160" height="152" viewBox="0 0 160 152" fill="none" xmlns="http://www.w3.org/2000/svg">
<rect width="160" height="152" fill="#40576D" fill-opacity="0.07"/>
<path d="M21.127 27.0059C21.8288 27.0059 22.4303 27.1335 22.9316 27.3887C23.4329 27.6439 23.8112 28.0039 24.0664 28.4688C24.3262 28.929 24.4561 29.4714 24.4561 30.0957C24.4561 30.7155 24.3262 31.2578 24.0664 31.7227C23.8112 32.1829 23.4329 32.5407 22.9316 32.7959C22.4303 33.0511 21.8288 33.1787 21.127 33.1787H18.9805V37H17.4082V27.0059H21.127ZM20.9766 31.8936C22.2207 31.8936 22.8428 31.2943 22.8428 30.0957C22.8428 28.888 22.2207 28.2842 20.9766 28.2842H18.9805V31.8936H20.9766ZM27.792 37.1436C27.0537 37.1436 26.4749 36.9476 26.0557 36.5557C25.6364 36.1592 25.4268 35.5986 25.4268 34.874C25.4268 34.4274 25.5202 34.0514 25.707 33.7461C25.8939 33.4408 26.1855 33.1924 26.582 33.001C26.9785 32.805 27.4935 32.6546 28.127 32.5498C28.6237 32.4678 29.002 32.3766 29.2617 32.2764C29.5215 32.1761 29.6969 32.0645 29.7881 31.9414C29.8792 31.8138 29.9248 31.6543 29.9248 31.4629C29.9248 31.1712 29.8223 30.9479 29.6172 30.793C29.4167 30.638 29.0885 30.5605 28.6328 30.5605C27.7715 30.5605 27.04 30.9183 26.4385 31.6338H26.3018L25.6318 30.6494C25.9827 30.2347 26.418 29.9089 26.9375 29.6719C27.4616 29.4349 28.0426 29.3164 28.6807 29.3164C29.624 29.3164 30.3122 29.5192 30.7451 29.9248C31.1826 30.3304 31.4014 30.9001 31.4014 31.6338V35.2705C31.4014 35.6488 31.5632 35.8379 31.8867 35.8379C32.0052 35.8379 32.1191 35.8174 32.2285 35.7764L32.3242 35.8037L32.4541 36.8496C32.363 36.9134 32.2354 36.9635 32.0713 37C31.9118 37.0365 31.7409 37.0547 31.5586 37.0547C31.1257 37.0547 30.793 36.9658 30.5605 36.7881C30.3327 36.6104 30.1755 36.3392 30.0889 35.9746L29.9453 35.9609C29.7448 36.3574 29.4668 36.6536 29.1113 36.8496C28.7604 37.0456 28.3206 37.1436 27.792 37.1436ZM28.2158 35.9883C28.5667 35.9883 28.8743 35.9085 29.1387 35.749C29.403 35.585 29.6058 35.3525 29.7471 35.0518C29.8883 34.751 29.959 34.3978 29.959 33.9922V33.1309L29.8291 33.1035C29.6878 33.2083 29.5101 33.2972 29.2959 33.3701C29.0863 33.4385 28.7855 33.5046 28.3936 33.5684C27.8649 33.6458 27.4889 33.7848 27.2656 33.9854C27.0469 34.1813 26.9375 34.4593 26.9375 34.8193C26.9375 35.2021 27.0492 35.4938 27.2725 35.6943C27.4958 35.8903 27.8102 35.9883 28.2158 35.9883ZM36.5352 40.1992C35.3184 40.1992 34.4251 40.0078 33.8555 39.625C33.2858 39.2467 33.001 38.7318 33.001 38.0801C33.001 37.6699 33.1286 37.3372 33.3838 37.082C33.639 36.8268 34.0059 36.6514 34.4844 36.5557V36.4121C34.2428 36.2708 34.0651 36.109 33.9512 35.9268C33.8372 35.7399 33.7803 35.5234 33.7803 35.2773C33.7803 34.6895 34.1608 34.2975 34.9219 34.1016V33.958C34.1016 33.5068 33.6914 32.8027 33.6914 31.8457C33.6914 31.349 33.8053 30.9092 34.0332 30.5264C34.2611 30.1436 34.5892 29.8473 35.0176 29.6377C35.446 29.4235 35.9541 29.3164 36.542 29.3164C37.1709 29.3164 37.6859 29.4395 38.0869 29.6855C38.3512 29.3574 38.5039 28.9541 38.5449 28.4756L38.6885 28.3867L39.8232 28.6602C39.7822 29.0293 39.6729 29.3438 39.4951 29.6035C39.3174 29.8587 39.0553 30.0752 38.709 30.2529V30.4033C39.1602 30.7725 39.3857 31.2943 39.3857 31.9688C39.3857 32.4382 39.2695 32.862 39.0371 33.2402C38.8092 33.6139 38.4788 33.9079 38.0459 34.1221C37.6175 34.3363 37.1162 34.4434 36.542 34.4434C36.4919 34.4434 36.3848 34.4388 36.2207 34.4297C36.0384 34.4206 35.9085 34.416 35.8311 34.416C35.626 34.416 35.4642 34.4707 35.3457 34.5801C35.2272 34.6895 35.168 34.8285 35.168 34.9971C35.168 35.193 35.2363 35.3411 35.373 35.4414C35.5143 35.5417 35.7354 35.5986 36.0361 35.6123L37.7725 35.6738C39.363 35.724 40.1582 36.4076 40.1582 37.7246C40.1582 38.194 40.0352 38.6133 39.7891 38.9824C39.543 39.3561 39.1488 39.6523 38.6064 39.8711C38.0687 40.0898 37.3783 40.1992 36.5352 40.1992ZM36.542 33.3018C36.9886 33.3018 37.335 33.1787 37.5811 32.9326C37.8317 32.6865 37.957 32.3379 37.957 31.8867C37.957 31.431 37.834 31.0801 37.5879 30.834C37.3418 30.5833 36.9932 30.458 36.542 30.458C36.0863 30.458 35.7376 30.5811 35.4961 30.8271C35.2546 31.0732 35.1338 31.4264 35.1338 31.8867C35.1338 32.3379 35.2546 32.6865 35.4961 32.9326C35.7376 33.1787 36.0863 33.3018 36.542 33.3018ZM36.5352 39.0371C37.2689 39.0371 37.8021 38.9255 38.1348 38.7021C38.472 38.4834 38.6406 38.2054 38.6406 37.8682C38.6406 37.5811 38.554 37.3737 38.3809 37.2461C38.2122 37.1185 37.9251 37.0456 37.5195 37.0273L35.9336 36.9453L35.6807 36.9385C35.2751 36.943 34.9743 37.0273 34.7783 37.1914C34.5824 37.36 34.4844 37.5902 34.4844 37.8818C34.4844 38.2601 34.6553 38.5472 34.9971 38.7432C35.3389 38.9391 35.8516 39.0371 36.5352 39.0371ZM47.6299 33.5684H42.6123C42.6989 35.0814 43.4007 35.8379 44.7178 35.8379C45.2054 35.8379 45.5973 35.7513 45.8936 35.5781C46.1943 35.4004 46.4313 35.127 46.6045 34.7578H46.748L47.7393 35.373C47.5068 35.9108 47.1445 36.3415 46.6523 36.665C46.1647 36.984 45.5199 37.1436 44.7178 37.1436C43.9658 37.1436 43.3164 36.9977 42.7695 36.7061C42.2227 36.4144 41.8011 35.9769 41.5049 35.3936C41.2087 34.8102 41.0605 34.0902 41.0605 33.2334C41.0605 32.3766 41.2155 31.6543 41.5254 31.0664C41.8353 30.4785 42.2591 30.041 42.7969 29.7539C43.3346 29.4622 43.9408 29.3164 44.6152 29.3164C45.6315 29.3164 46.4154 29.5944 46.9668 30.1504C47.5228 30.7064 47.8031 31.5244 47.8076 32.6045C47.8076 33.0101 47.7962 33.304 47.7734 33.4863L47.6299 33.5684ZM46.3516 32.4951C46.3333 31.807 46.1761 31.3057 45.8799 30.9912C45.5882 30.6768 45.1667 30.5195 44.6152 30.5195C44.0592 30.5195 43.6126 30.6768 43.2754 30.9912C42.9427 31.3057 42.7331 31.807 42.6465 32.4951H46.3516ZM52.4287 37V35.6943H54.999V28.7627L54.8418 28.7217C54.4544 28.9131 54.0944 29.0612 53.7617 29.166C53.4336 29.2708 53.0303 29.3665 52.5518 29.4531V28.0654C53.6729 27.8285 54.6025 27.4753 55.3408 27.0059H56.5508V35.6943H58.8477V37H52.4287ZM67.3037 32.8096H63.2637V31.4766H67.3037V32.8096Z" fill="#0E1318"/>
<path d="M81.2969 37H79.6289L78.7881 34.4775H74.7412L73.9072 37H72.2734L75.7461 27.0059H77.8242L81.2969 37ZM76.6758 28.6533L75.1855 33.1514H78.3438L76.8467 28.6533H76.6758ZM85.3916 37.1436C84.79 37.1436 84.2568 37 83.792 36.7129C83.3317 36.4212 82.9717 35.9837 82.7119 35.4004C82.4521 34.8171 82.3223 34.0947 82.3223 33.2334C82.3223 32.3721 82.4567 31.6497 82.7256 31.0664C82.999 30.4785 83.3727 30.041 83.8467 29.7539C84.3252 29.4622 84.8766 29.3164 85.501 29.3164C85.9886 29.3164 86.4193 29.4053 86.793 29.583C87.1667 29.7562 87.4834 30.0365 87.7432 30.4238L87.8867 30.3896V26.4316H89.3906V37H87.8867V35.9609L87.7432 35.9336C87.5107 36.2982 87.1986 36.5921 86.8066 36.8154C86.4147 37.0342 85.943 37.1436 85.3916 37.1436ZM85.8701 35.8379C86.4899 35.8379 86.9821 35.6237 87.3467 35.1953C87.7113 34.7624 87.8936 34.1084 87.8936 33.2334C87.8936 32.3493 87.7113 31.693 87.3467 31.2646C86.9821 30.8317 86.4899 30.6152 85.8701 30.6152C84.5439 30.6152 83.8809 31.488 83.8809 33.2334C83.8809 34.9697 84.5439 35.8379 85.8701 35.8379ZM94.415 37.1436C93.8135 37.1436 93.2803 37 92.8154 36.7129C92.3551 36.4212 91.9951 35.9837 91.7354 35.4004C91.4756 34.8171 91.3457 34.0947 91.3457 33.2334C91.3457 32.3721 91.4801 31.6497 91.749 31.0664C92.0225 30.4785 92.3962 30.041 92.8701 29.7539C93.3486 29.4622 93.9001 29.3164 94.5244 29.3164C95.012 29.3164 95.4427 29.4053 95.8164 29.583C96.1901 29.7562 96.5068 30.0365 96.7666 30.4238L96.9102 30.3896V26.4316H98.4141V37H96.9102V35.9609L96.7666 35.9336C96.5342 36.2982 96.222 36.5921 95.8301 36.8154C95.4382 37.0342 94.9665 37.1436 94.415 37.1436ZM94.8936 35.8379C95.5133 35.8379 96.0055 35.6237 96.3701 35.1953C96.7347 34.7624 96.917 34.1084 96.917 33.2334C96.917 32.3493 96.7347 31.693 96.3701 31.2646C96.0055 30.8317 95.5133 30.6152 94.8936 30.6152C93.5674 30.6152 92.9043 31.488 92.9043 33.2334C92.9043 34.9697 93.5674 35.8379 94.8936 35.8379ZM104.197 40.0557V29.46H105.701V30.5127L105.845 30.54C106.1 30.1253 106.426 29.8177 106.822 29.6172C107.219 29.4167 107.672 29.3164 108.183 29.3164C108.802 29.3164 109.342 29.46 109.803 29.7471C110.263 30.0342 110.621 30.4717 110.876 31.0596C111.131 31.6429 111.259 32.3675 111.259 33.2334C111.259 34.0947 111.122 34.8171 110.849 35.4004C110.58 35.9837 110.206 36.4212 109.728 36.7129C109.254 37 108.704 37.1436 108.08 37.1436C107.592 37.1436 107.164 37.0592 106.795 36.8906C106.426 36.722 106.109 36.4531 105.845 36.084L105.701 36.1113V40.0557H104.197ZM107.69 35.8379C108.342 35.8379 108.839 35.6305 109.181 35.2158C109.527 34.7965 109.7 34.1357 109.7 33.2334C109.7 32.3265 109.527 31.6634 109.181 31.2441C108.839 30.8249 108.342 30.6152 107.69 30.6152C107.084 30.6152 106.599 30.8317 106.234 31.2646C105.87 31.6976 105.688 32.3538 105.688 33.2334C105.688 34.1084 105.87 34.7624 106.234 35.1953C106.599 35.6237 107.084 35.8379 107.69 35.8379ZM115.046 37.1436C114.308 37.1436 113.729 36.9476 113.31 36.5557C112.89 36.1592 112.681 35.5986 112.681 34.874C112.681 34.4274 112.774 34.0514 112.961 33.7461C113.148 33.4408 113.439 33.1924 113.836 33.001C114.232 32.805 114.747 32.6546 115.381 32.5498C115.878 32.4678 116.256 32.3766 116.516 32.2764C116.775 32.1761 116.951 32.0645 117.042 31.9414C117.133 31.8138 117.179 31.6543 117.179 31.4629C117.179 31.1712 117.076 30.9479 116.871 30.793C116.671 30.638 116.342 30.5605 115.887 30.5605C115.025 30.5605 114.294 30.9183 113.692 31.6338H113.556L112.886 30.6494C113.237 30.2347 113.672 29.9089 114.191 29.6719C114.715 29.4349 115.297 29.3164 115.935 29.3164C116.878 29.3164 117.566 29.5192 117.999 29.9248C118.437 30.3304 118.655 30.9001 118.655 31.6338V35.2705C118.655 35.6488 118.817 35.8379 119.141 35.8379C119.259 35.8379 119.373 35.8174 119.482 35.7764L119.578 35.8037L119.708 36.8496C119.617 36.9134 119.489 36.9635 119.325 37C119.166 37.0365 118.995 37.0547 118.812 37.0547C118.38 37.0547 118.047 36.9658 117.814 36.7881C117.587 36.6104 117.429 36.3392 117.343 35.9746L117.199 35.9609C116.999 36.3574 116.721 36.6536 116.365 36.8496C116.014 37.0456 115.575 37.1436 115.046 37.1436ZM115.47 35.9883C115.821 35.9883 116.128 35.9085 116.393 35.749C116.657 35.585 116.86 35.3525 117.001 35.0518C117.142 34.751 117.213 34.3978 117.213 33.9922V33.1309L117.083 33.1035C116.942 33.2083 116.764 33.2972 116.55 33.3701C116.34 33.4385 116.039 33.5046 115.647 33.5684C115.119 33.6458 114.743 33.7848 114.52 33.9854C114.301 34.1813 114.191 34.4593 114.191 34.8193C114.191 35.2021 114.303 35.4938 114.526 35.6943C114.75 35.8903 115.064 35.9883 115.47 35.9883ZM123.789 40.1992C122.572 40.1992 121.679 40.0078 121.109 39.625C120.54 39.2467 120.255 38.7318 120.255 38.0801C120.255 37.6699 120.382 37.3372 120.638 37.082C120.893 36.8268 121.26 36.6514 121.738 36.5557V36.4121C121.497 36.2708 121.319 36.109 121.205 35.9268C121.091 35.7399 121.034 35.5234 121.034 35.2773C121.034 34.6895 121.415 34.2975 122.176 34.1016V33.958C121.355 33.5068 120.945 32.8027 120.945 31.8457C120.945 31.349 121.059 30.9092 121.287 30.5264C121.515 30.1436 121.843 29.8473 122.271 29.6377C122.7 29.4235 123.208 29.3164 123.796 29.3164C124.425 29.3164 124.94 29.4395 125.341 29.6855C125.605 29.3574 125.758 28.9541 125.799 28.4756L125.942 28.3867L127.077 28.6602C127.036 29.0293 126.927 29.3438 126.749 29.6035C126.571 29.8587 126.309 30.0752 125.963 30.2529V30.4033C126.414 30.7725 126.64 31.2943 126.64 31.9688C126.64 32.4382 126.523 32.862 126.291 33.2402C126.063 33.6139 125.733 33.9079 125.3 34.1221C124.871 34.3363 124.37 34.4434 123.796 34.4434C123.746 34.4434 123.639 34.4388 123.475 34.4297C123.292 34.4206 123.162 34.416 123.085 34.416C122.88 34.416 122.718 34.4707 122.6 34.5801C122.481 34.6895 122.422 34.8285 122.422 34.9971C122.422 35.193 122.49 35.3411 122.627 35.4414C122.768 35.5417 122.989 35.5986 123.29 35.6123L125.026 35.6738C126.617 35.724 127.412 36.4076 127.412 37.7246C127.412 38.194 127.289 38.6133 127.043 38.9824C126.797 39.3561 126.403 39.6523 125.86 39.8711C125.323 40.0898 124.632 40.1992 123.789 40.1992ZM123.796 33.3018C124.243 33.3018 124.589 33.1787 124.835 32.9326C125.086 32.6865 125.211 32.3379 125.211 31.8867C125.211 31.431 125.088 31.0801 124.842 30.834C124.596 30.5833 124.247 30.458 123.796 30.458C123.34 30.458 122.992 30.5811 122.75 30.8271C122.508 31.0732 122.388 31.4264 122.388 31.8867C122.388 32.3379 122.508 32.6865 122.75 32.9326C122.992 33.1787 123.34 33.3018 123.796 33.3018ZM123.789 39.0371C124.523 39.0371 125.056 38.9255 125.389 38.7021C125.726 38.4834 125.895 38.2054 125.895 37.8682C125.895 37.5811 125.808 37.3737 125.635 37.2461C125.466 37.1185 125.179 37.0456 124.773 37.0273L123.188 36.9453L122.935 36.9385C122.529 36.943 122.228 37.0273 122.032 37.1914C121.836 37.36 121.738 37.5902 121.738 37.8818C121.738 38.2601 121.909 38.5472 122.251 38.7432C122.593 38.9391 123.105 39.0371 123.789 39.0371ZM134.884 33.5684H129.866C129.953 35.0814 130.655 35.8379 131.972 35.8379C132.459 35.8379 132.851 35.7513 133.147 35.5781C133.448 35.4004 133.685 35.127 133.858 34.7578H134.002L134.993 35.373C134.761 35.9108 134.398 36.3415 133.906 36.665C133.419 36.984 132.774 37.1436 131.972 37.1436C131.22 37.1436 130.57 36.9977 130.023 36.7061C129.477 36.4144 129.055 35.9769 128.759 35.3936C128.463 34.8102 128.314 34.0902 128.314 33.2334C128.314 32.3766 128.469 31.6543 128.779 31.0664C129.089 30.4785 129.513 30.041 130.051 29.7539C130.589 29.4622 131.195 29.3164 131.869 29.3164C132.885 29.3164 133.669 29.5944 134.221 30.1504C134.777 30.7064 135.057 31.5244 135.062 32.6045C135.062 33.0101 135.05 33.304 135.027 33.4863L134.884 33.5684ZM133.605 32.4951C133.587 31.807 133.43 31.3057 133.134 30.9912C132.842 30.6768 132.421 30.5195 131.869 30.5195C131.313 30.5195 130.867 30.6768 130.529 30.9912C130.197 31.3057 129.987 31.807 129.9 32.4951H133.605ZM144.215 35.5029L144.639 36.6035C144.447 36.7767 144.201 36.9089 143.9 37C143.6 37.0957 143.267 37.1436 142.902 37.1436C142.146 37.1436 141.569 36.943 141.173 36.542C140.776 36.141 140.578 35.5417 140.578 34.7441V30.6631H139.348V29.4531H140.578V27.9219L142.082 27.6758V29.4531H144.365V30.6631H142.082V34.6211C142.082 35.0404 142.169 35.3434 142.342 35.5303C142.52 35.7171 142.772 35.8105 143.101 35.8105C143.47 35.8105 143.793 35.708 144.071 35.5029H144.215ZM146.826 28.2773C146.539 28.2773 146.304 28.1885 146.122 28.0107C145.94 27.833 145.849 27.6051 145.849 27.3271C145.849 27.0537 145.94 26.8281 146.122 26.6504C146.304 26.4727 146.539 26.3838 146.826 26.3838C147.113 26.3838 147.348 26.4727 147.53 26.6504C147.717 26.8281 147.811 27.0537 147.811 27.3271C147.811 27.6051 147.719 27.833 147.537 28.0107C147.355 28.1885 147.118 28.2773 146.826 28.2773ZM146.074 37V29.46H147.578V37H146.074ZM153.936 35.5029L154.359 36.6035C154.168 36.7767 153.922 36.9089 153.621 37C153.32 37.0957 152.988 37.1436 152.623 37.1436C151.867 37.1436 151.29 36.943 150.894 36.542C150.497 36.141 150.299 35.5417 150.299 34.7441V30.6631H149.068V29.4531H150.299V27.9219L151.803 27.6758V29.4531H154.086V30.6631H151.803V34.6211C151.803 35.0404 151.889 35.3434 152.062 35.5303C152.24 35.7171 152.493 35.8105 152.821 35.8105C153.19 35.8105 153.514 35.708 153.792 35.5029H153.936ZM157.661 37.1436C157.055 37.1436 156.586 36.9772 156.253 36.6445C155.92 36.3073 155.754 35.8014 155.754 35.127V26.4316H157.258V35.0518C157.258 35.3298 157.312 35.5303 157.422 35.6533C157.531 35.7764 157.698 35.8379 157.921 35.8379C158.049 35.8379 158.185 35.8174 158.331 35.7764L158.427 35.8037L158.577 36.9658C158.481 37.0251 158.352 37.0684 158.188 37.0957C158.028 37.1276 157.853 37.1436 157.661 37.1436ZM166.138 33.5684H161.12C161.207 35.0814 161.909 35.8379 163.226 35.8379C163.713 35.8379 164.105 35.7513 164.401 35.5781C164.702 35.4004 164.939 35.127 165.112 34.7578H165.256L166.247 35.373C166.015 35.9108 165.652 36.3415 165.16 36.665C164.673 36.984 164.028 37.1436 163.226 37.1436C162.474 37.1436 161.824 36.9977 161.277 36.7061C160.73 36.4144 160.309 35.9769 160.013 35.3936C159.716 34.8102 159.568 34.0902 159.568 33.2334C159.568 32.3766 159.723 31.6543 160.033 31.0664C160.343 30.4785 160.767 30.041 161.305 29.7539C161.842 29.4622 162.449 29.3164 163.123 29.3164C164.139 29.3164 164.923 29.5944 165.475 30.1504C166.031 30.7064 166.311 31.5244 166.315 32.6045C166.315 33.0101 166.304 33.304 166.281 33.4863L166.138 33.5684ZM164.859 32.4951C164.841 31.807 164.684 31.3057 164.388 30.9912C164.096 30.6768 163.674 30.5195 163.123 30.5195C162.567 30.5195 162.12 30.6768 161.783 30.9912C161.451 31.3057 161.241 31.807 161.154 32.4951H164.859Z" fill="#11171D" fill-opacity="0.6"/>
<g clip-path="url(#clip0_6839_90195)" filter="url(#filter0_dd_6839_90195)">
<rect width="574" height="195" transform="translate(16 56)" fill="white"/>
<rect x="16" y="56" width="574" height="195" fill="white"/>
</g>
<defs>
<filter id="filter0_dd_6839_90195" x="0" y="46" width="606" height="227" filterUnits="userSpaceOnUse" color-interpolation-filters="sRGB">
<feFlood flood-opacity="0" result="BackgroundImageFix"/>
<feColorMatrix in="SourceAlpha" type="matrix" values="0 0 0 0 0 0 0 0 0 0 0 0 0 0 0 0 0 0 127 0" result="hardAlpha"/>
<feMorphology radius="4" operator="erode" in="SourceAlpha" result="effect1_dropShadow_6839_90195"/>
<feOffset dy="6"/>
<feGaussianBlur stdDeviation="10"/>
<feColorMatrix type="matrix" values="0 0 0 0 0.25098 0 0 0 0 0.341176 0 0 0 0 0.427451 0 0 0 0.3 0"/>
<feBlend mode="normal" in2="BackgroundImageFix" result="effect1_dropShadow_6839_90195"/>
<feColorMatrix in="SourceAlpha" type="matrix" values="0 0 0 0 0 0 0 0 0 0 0 0 0 0 0 0 0 0 127 0" result="hardAlpha"/>
<feMorphology radius="1" operator="dilate" in="SourceAlpha" result="effect2_dropShadow_6839_90195"/>
<feOffset/>
<feColorMatrix type="matrix" values="0 0 0 0 0.25098 0 0 0 0 0.341176 0 0 0 0 0.427451 0 0 0 0.04 0"/>
<feBlend mode="normal" in2="effect1_dropShadow_6839_90195" result="effect2_dropShadow_6839_90195"/>
<feBlend mode="normal" in="SourceGraphic" in2="effect2_dropShadow_6839_90195" result="shape"/>
</filter>
<clipPath id="clip0_6839_90195">
<rect width="574" height="195" fill="white" transform="translate(16 56)"/>
</clipPath>
</defs>
</svg>
