<svg width="328" height="152" viewBox="0 0 328 152" fill="none" xmlns="http://www.w3.org/2000/svg">
<rect width="328" height="152" fill="#40576D" fill-opacity="0.07"/>
<g filter="url(#filter0_dd_6839_89122)">
<g clip-path="url(#clip0_6839_89122)">
<rect x="16" y="16" width="776" height="441.968" rx="6.81698" fill="#F6F7F8"/>
<g clip-path="url(#clip1_6839_89122)">
<rect x="16" y="16" width="776" height="31.8126" fill="url(#paint0_linear_6839_89122)"/>
<g clip-path="url(#clip2_6839_89122)">
<path fill-rule="evenodd" clip-rule="evenodd" d="M27.362 28.3557C27.362 28.1204 27.5527 27.9297 27.7881 27.9297H36.0252C36.2606 27.9297 36.4513 28.1204 36.4513 28.3557C36.4513 28.5911 36.2606 28.7818 36.0252 28.7818H27.7881C27.5527 28.7818 27.362 28.5911 27.362 28.3557ZM27.3618 31.7643C27.3618 31.529 27.5526 31.3382 27.7879 31.3382H36.0251C36.2604 31.3382 36.4511 31.529 36.4511 31.7643C36.4511 31.9996 36.2604 32.1903 36.0251 32.1903H27.7879C27.5526 32.1903 27.3618 31.9996 27.3618 31.7643ZM27.7879 34.7467C27.5526 34.7467 27.3618 34.9375 27.3618 35.1728C27.3618 35.4081 27.5526 35.5988 27.7879 35.5988H36.0251C36.2604 35.5988 36.4511 35.4081 36.4511 35.1728C36.4511 34.9375 36.2604 34.7467 36.0251 34.7467H27.7879Z" fill="white"/>
<path d="M61.2762 28.7288V29.4744H58.7015V31.2568H61.0277V31.9986H58.7015V34.4062H57.8084V28.7288H61.2762ZM62.6703 29.4511C62.5072 29.4511 62.3739 29.4006 62.2704 29.2996C62.1668 29.1986 62.115 29.0692 62.115 28.9113C62.115 28.7559 62.1668 28.6278 62.2704 28.5268C62.3739 28.4259 62.5072 28.3754 62.6703 28.3754C62.8334 28.3754 62.9668 28.4259 63.0703 28.5268C63.1765 28.6278 63.2295 28.7559 63.2295 28.9113C63.2295 29.0692 63.1778 29.1986 63.0742 29.2996C62.9707 29.4006 62.836 29.4511 62.6703 29.4511ZM62.2432 34.4062V30.1229H63.0975V34.4062H62.2432ZM65.5246 34.4878C65.1803 34.4878 64.9136 34.3933 64.7246 34.2043C64.5357 34.0127 64.4412 33.7254 64.4412 33.3422V28.4026H65.2955V33.2995C65.2955 33.4574 65.3266 33.5713 65.3887 33.6412C65.4508 33.7111 65.5453 33.7461 65.6722 33.7461C65.7447 33.7461 65.8223 33.7344 65.9052 33.7111L65.9596 33.7267L66.045 34.3868C65.9906 34.4205 65.9168 34.4451 65.8236 34.4606C65.733 34.4787 65.6334 34.4878 65.5246 34.4878ZM70.34 32.4568H67.4896C67.5388 33.3163 67.9375 33.7461 68.6857 33.7461C68.9627 33.7461 69.1853 33.6969 69.3536 33.5985C69.5245 33.4975 69.6591 33.3422 69.7575 33.1325H69.839L70.4021 33.482C70.2701 33.7875 70.0643 34.0322 69.7847 34.216C69.5077 34.3972 69.1413 34.4878 68.6857 34.4878C68.2585 34.4878 67.8896 34.405 67.5789 34.2393C67.2683 34.0736 67.0288 33.825 66.8605 33.4937C66.6922 33.1623 66.6081 32.7532 66.6081 32.2665C66.6081 31.7798 66.6961 31.3695 66.8721 31.0355C67.0482 30.7015 67.289 30.453 67.5945 30.2899C67.8999 30.1242 68.2443 30.0413 68.6274 30.0413C69.2048 30.0413 69.6501 30.1993 69.9633 30.5151C70.2792 30.831 70.4384 31.2957 70.441 31.9092C70.441 32.1397 70.4345 32.3066 70.4216 32.4102L70.34 32.4568ZM69.6138 31.8471C69.6035 31.4562 69.5141 31.1714 69.3459 30.9928C69.1802 30.8141 68.9407 30.7248 68.6274 30.7248C68.3116 30.7248 68.0579 30.8141 67.8663 30.9928C67.6773 31.1714 67.5582 31.4562 67.509 31.8471H69.6138Z" fill="white"/>
<path fill-rule="evenodd" clip-rule="evenodd" d="M96.4656 29.8469C96.4656 30.057 96.3515 30.2405 96.1819 30.3388C96.4557 30.9884 96.741 31.3085 96.9925 31.3341C97.2486 31.3602 97.4852 31.2685 97.7158 31.0405C97.6442 30.9454 97.6018 30.8272 97.6018 30.699C97.6018 30.3853 97.8561 30.1309 98.1699 30.1309C98.4836 30.1309 98.7379 30.3853 98.7379 30.699C98.7379 30.9904 98.5186 31.2305 98.236 31.2633L97.8416 32.7092C97.7541 33.0302 97.4395 33.2554 97.0785 33.2554H95.9148H94.7511C94.3902 33.2554 94.0755 33.0302 93.988 32.7092L93.5945 31.2663C93.295 31.2503 93.0571 31.0024 93.0571 30.699C93.0571 30.3853 93.3115 30.1309 93.6252 30.1309C93.939 30.1309 94.1933 30.3853 94.1933 30.699C94.1933 30.8191 94.156 30.9305 94.0925 31.0222C94.3202 31.2647 94.5625 31.3621 94.8371 31.3341C95.0986 31.3075 95.3804 30.9934 95.6422 30.3545C95.4567 30.261 95.3295 30.0688 95.3295 29.8469C95.3295 29.5331 95.5838 29.2788 95.8975 29.2788C96.2113 29.2788 96.4656 29.5331 96.4656 29.8469ZM94.2643 33.8235H97.5336C97.7297 33.8235 97.8858 33.9824 97.8858 34.1785C97.8858 34.3746 97.7297 34.5336 97.5336 34.5336H94.2643C94.0682 34.5336 93.9093 34.3746 93.9093 34.1785C93.9093 33.9824 94.0682 33.8235 94.2643 33.8235Z" fill="white"/>
<path d="M108.479 34.4062V28.7288H110.65C111.036 28.7288 111.359 28.7909 111.621 28.9152C111.885 29.0394 112.081 29.2168 112.211 29.4472C112.34 29.675 112.405 29.9455 112.405 30.2588C112.405 30.6083 112.317 30.8957 112.141 31.1209C111.968 31.3436 111.701 31.5118 111.341 31.6258V31.7073C111.522 31.7824 111.669 31.8976 111.78 32.0529C111.894 32.2057 112 32.4348 112.098 32.7403L112.646 34.4062H111.726L111.469 33.6218C111.335 33.2076 111.232 32.8969 111.162 32.6898C111.1 32.5008 111.029 32.3532 110.949 32.2471C110.871 32.1409 110.77 32.0646 110.646 32.018C110.524 31.9714 110.368 31.9481 110.176 31.9481H109.372V34.4062H108.479ZM110.572 31.2219C111.196 31.2219 111.508 30.928 111.508 30.3404C111.508 29.7501 111.196 29.4549 110.572 29.4549H109.372V31.2219H110.572ZM117.011 32.4568H114.16C114.21 33.3163 114.608 33.7461 115.356 33.7461C115.633 33.7461 115.856 33.6969 116.024 33.5985C116.195 33.4975 116.33 33.3422 116.428 33.1325H116.51L117.073 33.482C116.941 33.7875 116.735 34.0322 116.455 34.216C116.178 34.3972 115.812 34.4878 115.356 34.4878C114.929 34.4878 114.56 34.405 114.25 34.2393C113.939 34.0736 113.7 33.825 113.531 33.4937C113.363 33.1623 113.279 32.7532 113.279 32.2665C113.279 31.7798 113.367 31.3695 113.543 31.0355C113.719 30.7015 113.96 30.453 114.265 30.2899C114.571 30.1242 114.915 30.0413 115.298 30.0413C115.876 30.0413 116.321 30.1993 116.634 30.5151C116.95 30.831 117.109 31.2957 117.112 31.9092C117.112 32.1397 117.105 32.3066 117.092 32.4102L117.011 32.4568ZM116.285 31.8471C116.274 31.4562 116.185 31.1714 116.017 30.9928C115.851 30.8141 115.611 30.7248 115.298 30.7248C114.982 30.7248 114.729 30.8141 114.537 30.9928C114.348 31.1714 114.229 31.4562 114.18 31.8471H116.285ZM119.446 34.4878C119.166 34.4878 118.907 34.4529 118.669 34.3829C118.433 34.313 118.233 34.2173 118.067 34.0956C117.904 33.9713 117.785 33.8315 117.71 33.6762L118.195 33.1597H118.277C118.559 33.5661 118.95 33.7694 119.45 33.7694C119.711 33.7694 119.909 33.7202 120.044 33.6218C120.181 33.5208 120.25 33.381 120.25 33.2024C120.25 33.0626 120.204 32.9474 120.114 32.8568C120.026 32.7636 119.884 32.6937 119.69 32.6471L119.046 32.4879C118.642 32.3921 118.345 32.2419 118.156 32.0374C117.97 31.8303 117.877 31.5727 117.877 31.2646C117.877 31.0135 117.94 30.796 118.067 30.6122C118.197 30.4284 118.379 30.2873 118.615 30.1889C118.85 30.0905 119.127 30.0413 119.446 30.0413C119.837 30.0413 120.151 30.097 120.389 30.2083C120.63 30.3171 120.818 30.4672 120.952 30.6588L120.486 31.1442H120.409C120.282 30.9966 120.139 30.8905 119.982 30.8258C119.826 30.7611 119.648 30.7287 119.446 30.7287C119.195 30.7287 119.006 30.7714 118.879 30.8568C118.752 30.9397 118.688 31.0614 118.688 31.2219C118.688 31.3643 118.735 31.4795 118.828 31.5675C118.921 31.6555 119.083 31.7267 119.314 31.7811L119.935 31.9248C120.339 32.0154 120.631 32.163 120.813 32.3675C120.996 32.572 121.088 32.8387 121.088 33.1675C121.088 33.4289 121.025 33.6593 120.898 33.8587C120.771 34.0555 120.585 34.2095 120.339 34.3208C120.093 34.4321 119.795 34.4878 119.446 34.4878ZM122.537 29.4511C122.374 29.4511 122.24 29.4006 122.137 29.2996C122.033 29.1986 121.982 29.0692 121.982 28.9113C121.982 28.7559 122.033 28.6278 122.137 28.5268C122.24 28.4259 122.374 28.3754 122.537 28.3754C122.7 28.3754 122.833 28.4259 122.937 28.5268C123.043 28.6278 123.096 28.7559 123.096 28.9113C123.096 29.0692 123.044 29.1986 122.941 29.2996C122.837 29.4006 122.703 29.4511 122.537 29.4511ZM122.11 34.4062V30.1229H122.964V34.4062H122.11ZM127.158 34.4062H123.908V33.6839L126.121 30.8879L126.098 30.8064H124.005V30.119H127.127V30.8374L124.913 33.6373L124.941 33.7189H127.158V34.4062ZM131.535 32.4568H128.684C128.733 33.3163 129.132 33.7461 129.88 33.7461C130.157 33.7461 130.38 33.6969 130.548 33.5985C130.719 33.4975 130.854 33.3422 130.952 33.1325H131.034L131.597 33.482C131.465 33.7875 131.259 34.0322 130.979 34.216C130.702 34.3972 130.336 34.4878 129.88 34.4878C129.453 34.4878 129.084 34.405 128.774 34.2393C128.463 34.0736 128.223 33.825 128.055 33.4937C127.887 33.1623 127.803 32.7532 127.803 32.2665C127.803 31.7798 127.891 31.3695 128.067 31.0355C128.243 30.7015 128.484 30.453 128.789 30.2899C129.095 30.1242 129.439 30.0413 129.822 30.0413C130.399 30.0413 130.845 30.1993 131.158 30.5151C131.474 30.831 131.633 31.2957 131.636 31.9092C131.636 32.1397 131.629 32.3066 131.616 32.4102L131.535 32.4568ZM130.808 31.8471C130.798 31.4562 130.709 31.1714 130.54 30.9928C130.375 30.8141 130.135 30.7248 129.822 30.7248C129.506 30.7248 129.252 30.8141 129.061 30.9928C128.872 31.1714 128.753 31.4562 128.704 31.8471H130.808ZM136.257 34.4878C135.856 34.4878 135.503 34.4179 135.201 34.2781C134.9 34.1357 134.668 33.9364 134.505 33.6801C134.342 33.4212 134.261 33.1196 134.261 32.7752C134.261 32.3895 134.358 32.0723 134.552 31.8238C134.746 31.5727 135.034 31.3695 135.414 31.2141L135.426 31.1326C135.242 30.9125 135.112 30.7119 135.037 30.5306C134.962 30.3494 134.925 30.1488 134.925 29.9287C134.925 29.6802 134.983 29.4601 135.1 29.2685C135.216 29.0744 135.386 28.9229 135.608 28.8142C135.831 28.7029 136.096 28.6472 136.404 28.6472C136.692 28.6472 136.94 28.6964 137.15 28.7948C137.362 28.8906 137.524 29.0278 137.635 29.2064C137.749 29.385 137.806 29.5935 137.806 29.8316C137.806 30.1682 137.704 30.4594 137.499 30.7054C137.298 30.9488 136.988 31.1481 136.571 31.3034L136.564 31.385L137.756 32.9578C137.903 32.6652 137.977 32.2445 137.977 31.6957L137.973 31.517H138.715C138.715 32.361 138.557 33.0302 138.241 33.5247C138.329 33.6127 138.403 33.6723 138.463 33.7034C138.525 33.7344 138.591 33.75 138.661 33.75C138.746 33.75 138.825 33.7383 138.897 33.715L138.956 33.7305L139.072 34.3519C139.026 34.3855 138.96 34.4114 138.874 34.4296C138.791 34.4477 138.702 34.4567 138.606 34.4567C138.42 34.4567 138.257 34.4231 138.117 34.3558C137.98 34.2859 137.852 34.1797 137.732 34.0373H137.651C137.33 34.3376 136.865 34.4878 136.257 34.4878ZM136.164 30.8568C136.454 30.7274 136.667 30.5889 136.804 30.4413C136.942 30.2938 137.01 30.1074 137.01 29.8821C137.01 29.7035 136.955 29.5624 136.843 29.4588C136.734 29.3553 136.586 29.3035 136.397 29.3035C136.205 29.3035 136.05 29.3605 135.931 29.4744C135.814 29.5857 135.756 29.7384 135.756 29.9326C135.756 30.0776 135.784 30.2148 135.841 30.3442C135.901 30.4711 136.008 30.642 136.164 30.8568ZM136.338 33.7422C136.672 33.7422 136.956 33.6632 137.189 33.5053L135.767 31.6801C135.568 31.7914 135.417 31.9287 135.313 32.0918C135.21 32.2549 135.158 32.4529 135.158 32.6859C135.158 32.906 135.206 33.095 135.301 33.2529C135.4 33.4108 135.537 33.5325 135.713 33.6179C135.892 33.7008 136.1 33.7422 136.338 33.7422ZM142.738 34.4062H141.915V28.7288H143.142L144.723 33.2179H144.804L146.377 28.7288H147.573V34.4062H146.722V30.2122L146.625 30.1967L145.13 34.4062H144.33L142.835 30.1967L142.738 30.2122V34.4062ZM150.097 34.4878C149.678 34.4878 149.349 34.3765 149.111 34.1538C148.873 33.9286 148.753 33.6102 148.753 33.1985C148.753 32.9448 148.807 32.7312 148.913 32.5578C149.019 32.3843 149.185 32.2432 149.41 32.1345C149.635 32.0232 149.928 31.9377 150.287 31.8782C150.57 31.8316 150.784 31.7798 150.932 31.7228C151.08 31.6659 151.179 31.6025 151.231 31.5326C151.283 31.4601 151.309 31.3695 151.309 31.2607C151.309 31.095 151.25 30.9682 151.134 30.8801C151.02 30.7921 150.834 30.7481 150.575 30.7481C150.085 30.7481 149.67 30.9513 149.328 31.3578H149.251L148.87 30.7986C149.069 30.563 149.317 30.3779 149.612 30.2433C149.909 30.1087 150.24 30.0413 150.602 30.0413C151.138 30.0413 151.529 30.1565 151.775 30.387C152.023 30.6174 152.148 30.941 152.148 31.3578V33.4238C152.148 33.6386 152.239 33.7461 152.423 33.7461C152.491 33.7461 152.555 33.7344 152.617 33.7111L152.672 33.7267L152.746 34.3208C152.694 34.3571 152.621 34.3855 152.528 34.4062C152.438 34.427 152.34 34.4373 152.237 34.4373C151.991 34.4373 151.802 34.3868 151.67 34.2859C151.54 34.1849 151.451 34.0309 151.402 33.8237L151.32 33.816C151.206 34.0412 151.049 34.2095 150.847 34.3208C150.647 34.4321 150.397 34.4878 150.097 34.4878ZM150.338 33.8315C150.537 33.8315 150.712 33.7862 150.862 33.6956C151.012 33.6024 151.128 33.4704 151.208 33.2995C151.288 33.1286 151.328 32.928 151.328 32.6976V32.2083L151.254 32.1927C151.174 32.2523 151.073 32.3028 150.951 32.3442C150.832 32.383 150.662 32.4206 150.439 32.4568C150.139 32.5008 149.925 32.5798 149.798 32.6937C149.674 32.805 149.612 32.9629 149.612 33.1675C149.612 33.3849 149.675 33.5506 149.802 33.6645C149.929 33.7758 150.107 33.8315 150.338 33.8315ZM155.064 36.2237C154.373 36.2237 153.865 36.1149 153.542 35.8975C153.218 35.6826 153.056 35.39 153.056 35.0198C153.056 34.7868 153.129 34.5978 153.274 34.4529C153.419 34.3079 153.627 34.2082 153.899 34.1538V34.0723C153.762 33.992 153.661 33.9001 153.596 33.7966C153.531 33.6904 153.499 33.5674 153.499 33.4276C153.499 33.0937 153.715 32.871 154.147 32.7597V32.6781C153.681 32.4218 153.448 32.0219 153.448 31.4782C153.448 31.196 153.513 30.9462 153.643 30.7287C153.772 30.5112 153.958 30.3429 154.202 30.2239C154.445 30.1022 154.734 30.0413 155.068 30.0413C155.425 30.0413 155.718 30.1112 155.945 30.251C156.096 30.0646 156.182 29.8355 156.206 29.5637L156.287 29.5132L156.932 29.6685C156.909 29.8782 156.846 30.0569 156.745 30.2044C156.644 30.3494 156.496 30.4724 156.299 30.5734V30.6588C156.555 30.8685 156.683 31.1649 156.683 31.5481C156.683 31.8147 156.617 32.0555 156.485 32.2704C156.356 32.4827 156.168 32.6497 155.922 32.7713C155.679 32.893 155.394 32.9539 155.068 32.9539C155.039 32.9539 154.979 32.9513 154.885 32.9461C154.782 32.9409 154.708 32.9383 154.664 32.9383C154.547 32.9383 154.456 32.9694 154.388 33.0315C154.321 33.0937 154.287 33.1726 154.287 33.2684C154.287 33.3797 154.326 33.4639 154.404 33.5208C154.484 33.5778 154.61 33.6102 154.78 33.6179L155.767 33.6529C156.67 33.6814 157.122 34.0697 157.122 34.8179C157.122 35.0845 157.052 35.3227 156.912 35.5324C156.773 35.7447 156.549 35.913 156.241 36.0373C155.935 36.1615 155.543 36.2237 155.064 36.2237ZM155.068 32.3053C155.322 32.3053 155.518 32.2354 155.658 32.0956C155.801 31.9558 155.872 31.7578 155.872 31.5015C155.872 31.2426 155.802 31.0432 155.662 30.9034C155.522 30.7611 155.324 30.6899 155.068 30.6899C154.809 30.6899 154.611 30.7598 154.474 30.8996C154.336 31.0394 154.268 31.24 154.268 31.5015C154.268 31.7578 154.336 31.9558 154.474 32.0956C154.611 32.2354 154.809 32.3053 155.068 32.3053ZM155.064 35.5635C155.481 35.5635 155.784 35.5001 155.973 35.3732C156.164 35.2489 156.26 35.091 156.26 34.8994C156.26 34.7363 156.211 34.6185 156.112 34.5461C156.017 34.4736 155.854 34.4321 155.623 34.4218L154.722 34.3752L154.579 34.3713C154.348 34.3739 154.177 34.4218 154.066 34.515C153.955 34.6108 153.899 34.7415 153.899 34.9072C153.899 35.1221 153.996 35.2852 154.19 35.3965C154.384 35.5078 154.676 35.5635 155.064 35.5635ZM158.388 29.4511C158.225 29.4511 158.092 29.4006 157.988 29.2996C157.885 29.1986 157.833 29.0692 157.833 28.9113C157.833 28.7559 157.885 28.6278 157.988 28.5268C158.092 28.4259 158.225 28.3754 158.388 28.3754C158.551 28.3754 158.685 28.4259 158.788 28.5268C158.894 28.6278 158.947 28.7559 158.947 28.9113C158.947 29.0692 158.896 29.1986 158.792 29.2996C158.688 29.4006 158.554 29.4511 158.388 29.4511ZM157.961 34.4062V30.1229H158.815V34.4062H157.961ZM161.976 34.4878C161.58 34.4878 161.227 34.4024 160.916 34.2315C160.608 34.058 160.366 33.8043 160.19 33.4704C160.014 33.1364 159.926 32.7351 159.926 32.2665C159.926 31.7979 160.014 31.3966 160.19 31.0627C160.366 30.7261 160.608 30.4724 160.916 30.3015C161.224 30.1281 161.575 30.0413 161.969 30.0413C162.432 30.0413 162.801 30.1268 163.075 30.2976C163.35 30.4685 163.547 30.7028 163.666 31.0005L163.083 31.4199H163.002C162.901 31.2025 162.769 31.042 162.605 30.9384C162.445 30.8323 162.233 30.7792 161.969 30.7792C161.611 30.7792 161.329 30.9047 161.122 31.1559C160.915 31.4044 160.811 31.7746 160.811 32.2665C160.811 32.7532 160.915 33.1221 161.122 33.3733C161.332 33.6218 161.617 33.7461 161.976 33.7461C162.51 33.7461 162.867 33.4846 163.048 32.9616L163.13 32.9578L163.72 33.2917C163.609 33.6516 163.408 33.9415 163.118 34.1616C162.828 34.3791 162.448 34.4878 161.976 34.4878ZM168.337 34.4878C167.962 34.4878 167.627 34.4399 167.332 34.3441C167.036 34.2457 166.79 34.1176 166.594 33.9597C166.397 33.8017 166.248 33.6283 166.147 33.4393L166.636 32.8413H166.734C166.907 33.1131 167.127 33.3241 167.394 33.4742C167.66 33.6244 167.975 33.6995 168.337 33.6995C168.7 33.6995 168.972 33.6231 169.153 33.4704C169.334 33.3176 169.425 33.1066 169.425 32.8374C169.425 32.6769 169.395 32.5422 169.335 32.4335C169.276 32.3222 169.177 32.2277 169.04 32.15C168.906 32.0698 168.722 32.0011 168.489 31.9442L167.794 31.7811C167.291 31.662 166.919 31.4704 166.675 31.2064C166.434 30.9397 166.314 30.5993 166.314 30.185C166.314 29.8821 166.39 29.6155 166.543 29.385C166.696 29.152 166.919 28.9708 167.211 28.8414C167.506 28.7119 167.857 28.6472 168.264 28.6472C168.696 28.6472 169.064 28.7055 169.366 28.822C169.669 28.9385 169.918 29.1171 170.112 29.3579L169.673 29.9598H169.576C169.413 29.776 169.224 29.6401 169.009 29.552C168.794 29.4614 168.546 29.4161 168.264 29.4161C167.911 29.4161 167.645 29.4821 167.464 29.6142C167.285 29.7436 167.196 29.9235 167.196 30.154C167.196 30.3714 167.26 30.5449 167.39 30.6743C167.519 30.8012 167.741 30.9009 168.054 30.9733L168.768 31.1326C169.32 31.2568 169.719 31.4562 169.964 31.7306C170.213 32.0024 170.337 32.3545 170.337 32.7869C170.337 33.1234 170.262 33.4199 170.112 33.6762C169.964 33.9325 169.741 34.1318 169.44 34.2742C169.142 34.4166 168.775 34.4878 168.337 34.4878ZM172.927 34.4062H171.964L170.931 30.1229H171.743L172.461 33.3422H172.543L173.452 30.1229H174.248L175.184 33.3422H175.265L175.968 30.1229H176.756L175.735 34.4062H174.768L173.871 31.284H173.79L172.927 34.4062ZM178.085 29.4511C177.921 29.4511 177.788 29.4006 177.685 29.2996C177.581 29.1986 177.529 29.0692 177.529 28.9113C177.529 28.7559 177.581 28.6278 177.685 28.5268C177.788 28.4259 177.921 28.3754 178.085 28.3754C178.248 28.3754 178.381 28.4259 178.485 28.5268C178.591 28.6278 178.644 28.7559 178.644 28.9113C178.644 29.0692 178.592 29.1986 178.488 29.2996C178.385 29.4006 178.25 29.4511 178.085 29.4511ZM177.657 34.4062V30.1229H178.512V34.4062H177.657ZM182.123 33.5558L182.364 34.181C182.255 34.2794 182.116 34.3545 181.945 34.4062C181.774 34.4606 181.585 34.4878 181.378 34.4878C180.948 34.4878 180.62 34.3739 180.395 34.1461C180.17 33.9182 180.057 33.5778 180.057 33.1247V30.8064H179.358V30.119H180.057V29.2491L180.912 29.1093V30.119H182.209V30.8064H180.912V33.0548C180.912 33.293 180.961 33.4652 181.059 33.5713C181.16 33.6775 181.304 33.7305 181.49 33.7305C181.7 33.7305 181.884 33.6723 182.042 33.5558H182.123ZM184.919 34.4878C184.523 34.4878 184.17 34.4024 183.859 34.2315C183.551 34.058 183.309 33.8043 183.133 33.4704C182.957 33.1364 182.869 32.7351 182.869 32.2665C182.869 31.7979 182.957 31.3966 183.133 31.0627C183.309 30.7261 183.551 30.4724 183.859 30.3015C184.167 30.1281 184.518 30.0413 184.912 30.0413C185.375 30.0413 185.744 30.1268 186.018 30.2976C186.293 30.4685 186.49 30.7028 186.609 31.0005L186.026 31.4199H185.945C185.844 31.2025 185.712 31.042 185.548 30.9384C185.388 30.8323 185.176 30.7792 184.912 30.7792C184.554 30.7792 184.272 30.9047 184.065 31.1559C183.858 31.4044 183.754 31.7746 183.754 32.2665C183.754 32.7532 183.858 33.1221 184.065 33.3733C184.275 33.6218 184.559 33.7461 184.919 33.7461C185.453 33.7461 185.81 33.4846 185.991 32.9616L186.073 32.9578L186.663 33.2917C186.552 33.6516 186.351 33.9415 186.061 34.1616C185.771 34.3791 185.391 34.4878 184.919 34.4878ZM187.544 34.4062V28.4026H188.399V30.7054L188.48 30.7209C188.781 30.2679 189.213 30.0413 189.777 30.0413C190.277 30.0413 190.642 30.176 190.873 30.4452C191.106 30.7145 191.222 31.1157 191.222 31.6491V34.4062H190.368V31.7228C190.368 31.3837 190.3 31.1403 190.166 30.9928C190.034 30.8452 189.823 30.7714 189.533 30.7714C189.188 30.7714 188.913 30.884 188.706 31.1093C188.501 31.3345 188.399 31.697 188.399 32.1966V34.4062H187.544Z" fill="white"/>
<path fill-rule="evenodd" clip-rule="evenodd" d="M222.379 27.1382C223.045 27.8037 223.045 28.8828 222.379 29.5484L216.576 35.3521C216.23 35.6979 215.814 35.9652 215.356 36.1359L213.083 36.9829C212.862 37.0651 212.617 36.9529 212.535 36.7324C212.499 36.6365 212.499 36.5309 212.535 36.4349L213.382 34.1619C213.552 33.7037 213.82 33.2877 214.165 32.942L219.969 27.1382C220.635 26.4726 221.714 26.4726 222.379 27.1382ZM215.058 35.3373C215.37 35.2212 215.655 35.0456 215.899 34.8206L214.697 33.6184C214.472 33.8623 214.296 34.1478 214.18 34.4593L213.904 35.2016L214.316 35.6139L215.058 35.3373ZM220.703 30.0194L216.503 34.2195L215.298 33.0144L219.498 28.8144L220.703 30.0194ZM221.306 29.4169L221.777 28.9457C222.11 28.6129 222.11 28.0734 221.777 27.7406C221.444 27.4078 220.904 27.4078 220.572 27.7406L220.1 28.2118L221.306 29.4169Z" fill="white"/>
<path d="M230.753 31.8199V33.6606H233.556V34.4062H229.859V28.7288H233.494V29.4744H230.753V31.086H233.16V31.8199H230.753ZM236.069 34.4878C235.727 34.4878 235.424 34.4062 235.16 34.2431C234.899 34.0775 234.694 33.8289 234.547 33.4975C234.399 33.1662 234.325 32.7558 234.325 32.2665C234.325 31.7772 234.402 31.3669 234.554 31.0355C234.71 30.7015 234.922 30.453 235.191 30.2899C235.463 30.1242 235.776 30.0413 236.131 30.0413C236.408 30.0413 236.653 30.0918 236.865 30.1928C237.077 30.2912 237.257 30.4504 237.405 30.6704L237.486 30.651V28.4026H238.341V34.4062H237.486V33.816L237.405 33.8004C237.273 34.0076 237.095 34.1745 236.873 34.3014C236.65 34.4257 236.382 34.4878 236.069 34.4878ZM236.341 33.7461C236.693 33.7461 236.972 33.6244 237.179 33.381C237.387 33.1351 237.49 32.7636 237.49 32.2665C237.49 31.7643 237.387 31.3915 237.179 31.1481C236.972 30.9022 236.693 30.7792 236.341 30.7792C235.587 30.7792 235.211 31.275 235.211 32.2665C235.211 33.2529 235.587 33.7461 236.341 33.7461ZM240.135 29.4511C239.972 29.4511 239.838 29.4006 239.735 29.2996C239.631 29.1986 239.579 29.0692 239.579 28.9113C239.579 28.7559 239.631 28.6278 239.735 28.5268C239.838 28.4259 239.972 28.3754 240.135 28.3754C240.298 28.3754 240.431 28.4259 240.535 28.5268C240.641 28.6278 240.694 28.7559 240.694 28.9113C240.694 29.0692 240.642 29.1986 240.539 29.2996C240.435 29.4006 240.3 29.4511 240.135 29.4511ZM239.708 34.4062V30.1229H240.562V34.4062H239.708ZM244.173 33.5558L244.414 34.181C244.305 34.2794 244.166 34.3545 243.995 34.4062C243.824 34.4606 243.635 34.4878 243.428 34.4878C242.998 34.4878 242.671 34.3739 242.445 34.1461C242.22 33.9182 242.107 33.5778 242.107 33.1247V30.8064H241.408V30.119H242.107V29.2491L242.962 29.1093V30.119H244.259V30.8064H242.962V33.0548C242.962 33.293 243.011 33.4652 243.109 33.5713C243.21 33.6775 243.354 33.7305 243.54 33.7305C243.75 33.7305 243.934 33.6723 244.092 33.5558H244.173ZM245.657 29.4511C245.494 29.4511 245.36 29.4006 245.257 29.2996C245.153 29.1986 245.102 29.0692 245.102 28.9113C245.102 28.7559 245.153 28.6278 245.257 28.5268C245.36 28.4259 245.494 28.3754 245.657 28.3754C245.82 28.3754 245.953 28.4259 246.057 28.5268C246.163 28.6278 246.216 28.7559 246.216 28.9113C246.216 29.0692 246.164 29.1986 246.061 29.2996C245.957 29.4006 245.823 29.4511 245.657 29.4511ZM245.23 34.4062V30.1229H246.084V34.4062H245.23ZM247.451 34.4062V30.1229H248.267V30.7714L248.348 30.7908C248.485 30.5449 248.663 30.3585 248.88 30.2316C249.098 30.1048 249.363 30.0413 249.676 30.0413C250.181 30.0413 250.549 30.1747 250.779 30.4413C251.012 30.7054 251.129 31.1028 251.129 31.6335V34.4062H250.274V31.7073C250.274 31.3733 250.208 31.1339 250.076 30.9889C249.944 30.8439 249.732 30.7714 249.439 30.7714C249.09 30.7714 248.813 30.8853 248.608 31.1131C248.406 31.341 248.305 31.7021 248.305 32.1966V34.4062H247.451ZM253.96 36.2237C253.268 36.2237 252.761 36.1149 252.437 35.8975C252.114 35.6826 251.952 35.39 251.952 35.0198C251.952 34.7868 252.024 34.5978 252.169 34.4529C252.314 34.3079 252.523 34.2082 252.795 34.1538V34.0723C252.657 33.992 252.556 33.9001 252.492 33.7966C252.427 33.6904 252.395 33.5674 252.395 33.4276C252.395 33.0937 252.611 32.871 253.043 32.7597V32.6781C252.577 32.4218 252.344 32.0219 252.344 31.4782C252.344 31.196 252.409 30.9462 252.538 30.7287C252.668 30.5112 252.854 30.3429 253.097 30.2239C253.341 30.1022 253.629 30.0413 253.963 30.0413C254.321 30.0413 254.613 30.1112 254.841 30.251C254.991 30.0646 255.078 29.8355 255.101 29.5637L255.183 29.5132L255.827 29.6685C255.804 29.8782 255.742 30.0569 255.641 30.2044C255.54 30.3494 255.391 30.4724 255.194 30.5734V30.6588C255.451 30.8685 255.579 31.1649 255.579 31.5481C255.579 31.8147 255.513 32.0555 255.381 32.2704C255.251 32.4827 255.064 32.6497 254.818 32.7713C254.574 32.893 254.29 32.9539 253.963 32.9539C253.935 32.9539 253.874 32.9513 253.781 32.9461C253.677 32.9409 253.604 32.9383 253.56 32.9383C253.443 32.9383 253.351 32.9694 253.284 33.0315C253.217 33.0937 253.183 33.1726 253.183 33.2684C253.183 33.3797 253.222 33.4639 253.299 33.5208C253.38 33.5778 253.505 33.6102 253.676 33.6179L254.662 33.6529C255.566 33.6814 256.018 34.0697 256.018 34.8179C256.018 35.0845 255.948 35.3227 255.808 35.5324C255.668 35.7447 255.444 35.913 255.136 36.0373C254.831 36.1615 254.438 36.2237 253.96 36.2237ZM253.963 32.3053C254.217 32.3053 254.414 32.2354 254.554 32.0956C254.696 31.9558 254.767 31.7578 254.767 31.5015C254.767 31.2426 254.697 31.0432 254.558 30.9034C254.418 30.7611 254.22 30.6899 253.963 30.6899C253.705 30.6899 253.506 30.7598 253.369 30.8996C253.232 31.0394 253.163 31.24 253.163 31.5015C253.163 31.7578 253.232 31.9558 253.369 32.0956C253.506 32.2354 253.705 32.3053 253.963 32.3053ZM253.96 35.5635C254.376 35.5635 254.679 35.5001 254.868 35.3732C255.06 35.2489 255.156 35.091 255.156 34.8994C255.156 34.7363 255.106 34.6185 255.008 34.5461C254.912 34.4736 254.749 34.4321 254.519 34.4218L253.618 34.3752L253.474 34.3713C253.244 34.3739 253.073 34.4218 252.962 34.515C252.85 34.6108 252.795 34.7415 252.795 34.9072C252.795 35.1221 252.892 35.2852 253.086 35.3965C253.28 35.5078 253.571 35.5635 253.96 35.5635Z" fill="white"/>
<path d="M270.468 30.3292L268.078 32.719C268.023 32.7745 267.933 32.7747 267.878 32.7194L265.491 30.3281C265.325 30.1623 265.056 30.1628 264.89 30.3292C264.723 30.4956 264.723 30.7649 264.889 30.9306L267.275 33.322C267.662 33.7087 268.29 33.7075 268.679 33.3193L271.068 30.9295C271.235 30.7631 271.235 30.4938 271.07 30.3281C270.904 30.1623 270.635 30.1628 270.468 30.3292Z" fill="white"/>
<rect x="283.884" y="25.0889" width="0.568082" height="13.634" fill="white" fill-opacity="0.15"/>
<path fill-rule="evenodd" clip-rule="evenodd" d="M296.991 30.0601L298.267 31.3363C298.434 31.5027 298.434 31.7724 298.267 31.9388C298.101 32.1052 297.831 32.1052 297.665 31.9388L296.056 30.3304C295.668 29.9421 295.668 29.3127 296.056 28.9245L297.636 27.3445C297.803 27.1781 298.072 27.1781 298.239 27.3445C298.405 27.5109 298.405 27.7807 298.239 27.9471L296.978 29.208H302.631C304.435 29.208 305.897 30.6705 305.897 32.4745C305.897 34.2785 304.435 35.741 302.631 35.741H300.359C300.123 35.741 299.932 35.5502 299.932 35.3149C299.932 35.0796 300.123 34.8888 300.359 34.8888H302.631C303.964 34.8888 305.045 33.8079 305.045 32.4745C305.045 31.1411 303.964 30.0601 302.631 30.0601H296.991Z" fill="white"/>
<path fill-rule="evenodd" clip-rule="evenodd" d="M331.939 30.0601L330.663 31.3363C330.496 31.5027 330.496 31.7724 330.663 31.9388C330.829 32.1052 331.099 32.1052 331.265 31.9388L332.874 30.3304C333.262 29.9421 333.262 29.3127 332.874 28.9245L331.294 27.3445C331.128 27.1781 330.858 27.1781 330.691 27.3445C330.525 27.5109 330.525 27.7807 330.691 27.9471L331.952 29.208H326.299C324.495 29.208 323.033 30.6705 323.033 32.4745C323.033 34.2785 324.495 35.741 326.299 35.741H328.572C328.807 35.741 328.998 35.5502 328.998 35.3149C328.998 35.0796 328.807 34.8888 328.572 34.8888H326.299C324.966 34.8888 323.885 33.8079 323.885 32.4745C323.885 31.1411 324.966 30.0601 326.299 30.0601H331.939Z" fill="white" fill-opacity="0.4"/>
</g>
</g>
<path d="M264.325 85.5369C264.723 85.5369 265.065 85.6094 265.35 85.7543C265.635 85.8993 265.85 86.1038 265.994 86.3679C266.142 86.6294 266.216 86.9375 266.216 87.2921C266.216 87.6442 266.142 87.9523 265.994 88.2164C265.85 88.4779 265.635 88.6811 265.35 88.8261C265.065 88.9711 264.723 89.0435 264.325 89.0435H263.105V91.2144H262.212V85.5369H264.325ZM264.239 88.3135C264.946 88.3135 265.299 87.973 265.299 87.2921C265.299 86.6061 264.946 86.2631 264.239 86.2631H263.105V88.3135H264.239ZM268.111 91.2959C267.692 91.2959 267.363 91.1846 267.125 90.9619C266.886 90.7367 266.767 90.4183 266.767 90.0066C266.767 89.7529 266.82 89.5393 266.926 89.3659C267.033 89.1924 267.198 89.0513 267.424 88.9426C267.649 88.8313 267.941 88.7458 268.301 88.6863C268.583 88.6397 268.798 88.5879 268.946 88.5309C269.093 88.474 269.193 88.4106 269.245 88.3407C269.297 88.2682 269.323 88.1776 269.323 88.0688C269.323 87.9031 269.264 87.7763 269.148 87.6883C269.034 87.6002 268.847 87.5562 268.589 87.5562C268.099 87.5562 267.684 87.7594 267.342 88.1659H267.264L266.884 87.6067C267.083 87.3711 267.33 87.186 267.626 87.0514C267.923 86.9168 268.253 86.8494 268.616 86.8494C269.152 86.8494 269.543 86.9647 269.789 87.1951C270.037 87.4255 270.161 87.7491 270.161 88.1659V90.2319C270.161 90.4467 270.253 90.5542 270.437 90.5542C270.504 90.5542 270.569 90.5425 270.631 90.5192L270.686 90.5348L270.759 91.1289C270.708 91.1652 270.635 91.1936 270.542 91.2144C270.451 91.2351 270.354 91.2454 270.251 91.2454C270.005 91.2454 269.816 91.1949 269.684 91.094C269.554 90.993 269.465 90.839 269.416 90.6318L269.334 90.6241C269.22 90.8493 269.062 91.0176 268.86 91.1289C268.661 91.2402 268.411 91.2959 268.111 91.2959ZM268.352 90.6396C268.551 90.6396 268.726 90.5943 268.876 90.5037C269.026 90.4105 269.141 90.2785 269.222 90.1076C269.302 89.9367 269.342 89.7361 269.342 89.5057V89.0164L269.268 89.0008C269.188 89.0604 269.087 89.1109 268.965 89.1523C268.846 89.1911 268.675 89.2287 268.453 89.2649C268.152 89.3089 267.939 89.3879 267.812 89.5018C267.688 89.6131 267.626 89.771 267.626 89.9756C267.626 90.193 267.689 90.3587 267.816 90.4726C267.943 90.584 268.121 90.6396 268.352 90.6396ZM273.078 93.0318C272.387 93.0318 271.879 92.923 271.555 92.7056C271.232 92.4907 271.07 92.1981 271.07 91.8279C271.07 91.5949 271.143 91.4059 271.288 91.261C271.433 91.116 271.641 91.0163 271.913 90.9619V90.8804C271.776 90.8001 271.675 90.7082 271.61 90.6047C271.545 90.4985 271.513 90.3755 271.513 90.2357C271.513 89.9018 271.729 89.6791 272.161 89.5678V89.4863C271.695 89.23 271.462 88.83 271.462 88.2863C271.462 88.0041 271.527 87.7543 271.656 87.5368C271.786 87.3193 271.972 87.1511 272.216 87.032C272.459 86.9103 272.748 86.8494 273.082 86.8494C273.439 86.8494 273.731 86.9193 273.959 87.0591C274.109 86.8727 274.196 86.6436 274.219 86.3718L274.301 86.3213L274.946 86.4766C274.922 86.6863 274.86 86.865 274.759 87.0125C274.658 87.1575 274.509 87.2805 274.313 87.3815V87.4669C274.569 87.6766 274.697 87.973 274.697 88.3562C274.697 88.6229 274.631 88.8636 274.499 89.0785C274.37 89.2908 274.182 89.4578 273.936 89.5795C273.693 89.7011 273.408 89.762 273.082 89.762C273.053 89.762 272.992 89.7594 272.899 89.7542C272.796 89.749 272.722 89.7464 272.678 89.7464C272.561 89.7464 272.469 89.7775 272.402 89.8396C272.335 89.9018 272.301 89.9807 272.301 90.0765C272.301 90.1879 272.34 90.272 272.418 90.3289C272.498 90.3859 272.623 90.4183 272.794 90.426L273.781 90.461C274.684 90.4895 275.136 90.8778 275.136 91.626C275.136 91.8927 275.066 92.1308 274.926 92.3405C274.786 92.5528 274.563 92.7211 274.254 92.8454C273.949 92.9696 273.557 93.0318 273.078 93.0318ZM273.082 89.1135C273.335 89.1135 273.532 89.0435 273.672 88.9037C273.814 88.7639 273.886 88.5659 273.886 88.3096C273.886 88.0507 273.816 87.8514 273.676 87.7116C273.536 87.5692 273.338 87.498 273.082 87.498C272.823 87.498 272.625 87.5679 272.487 87.7077C272.35 87.8475 272.282 88.0481 272.282 88.3096C272.282 88.5659 272.35 88.7639 272.487 88.9037C272.625 89.0435 272.823 89.1135 273.082 89.1135ZM273.078 92.3716C273.495 92.3716 273.797 92.3082 273.986 92.1813C274.178 92.057 274.274 91.8991 274.274 91.7075C274.274 91.5444 274.225 91.4266 274.126 91.3542C274.03 91.2817 273.867 91.2402 273.637 91.2299L272.736 91.1833L272.592 91.1794C272.362 91.182 272.191 91.2299 272.08 91.3231C271.968 91.4189 271.913 91.5496 271.913 91.7153C271.913 91.9302 272.01 92.0933 272.204 92.2046C272.398 92.3159 272.689 92.3716 273.078 92.3716ZM279.38 89.2649H276.53C276.579 90.1244 276.978 90.5542 277.726 90.5542C278.003 90.5542 278.226 90.505 278.394 90.4066C278.565 90.3056 278.7 90.1503 278.798 89.9406H278.88L279.443 90.2901C279.311 90.5956 279.105 90.8403 278.825 91.0241C278.548 91.2053 278.182 91.2959 277.726 91.2959C277.299 91.2959 276.93 91.2131 276.619 91.0474C276.309 90.8817 276.069 90.6331 275.901 90.3018C275.733 89.9704 275.649 89.5613 275.649 89.0746C275.649 88.5879 275.737 88.1776 275.913 87.8436C276.089 87.5096 276.329 87.2611 276.635 87.098C276.94 86.9323 277.285 86.8494 277.668 86.8494C278.245 86.8494 278.691 87.0074 279.004 87.3232C279.32 87.6391 279.479 88.1038 279.481 88.7173C279.481 88.9478 279.475 89.1147 279.462 89.2183L279.38 89.2649ZM278.654 88.6552C278.644 88.2643 278.555 87.9795 278.386 87.8009C278.221 87.6222 277.981 87.5329 277.668 87.5329C277.352 87.5329 277.098 87.6222 276.907 87.8009C276.718 87.9795 276.599 88.2643 276.549 88.6552H278.654ZM282.107 91.2144V90.4726H283.567V86.5349L283.477 86.5116C283.257 86.6203 283.053 86.7045 282.864 86.764C282.677 86.8236 282.448 86.8779 282.177 86.9271V86.1388C282.813 86.0042 283.342 85.8035 283.761 85.5369H284.448V90.4726H285.753V91.2144H282.107ZM290.557 88.8338H288.262V88.0766H290.557V88.8338Z" fill="#0E1318"/>
<path d="M298.966 91.2144H298.018L297.541 89.7814H295.242L294.768 91.2144H293.84L295.813 85.5369H296.993L298.966 91.2144ZM296.341 86.4728L295.494 89.028H297.288L296.438 86.4728H296.341ZM301.292 91.2959C300.95 91.2959 300.647 91.2144 300.383 91.0513C300.122 90.8856 299.917 90.637 299.77 90.3056C299.622 89.9743 299.548 89.5639 299.548 89.0746C299.548 88.5853 299.625 88.175 299.778 87.8436C299.933 87.5096 300.145 87.2611 300.414 87.098C300.686 86.9323 301 86.8494 301.354 86.8494C301.631 86.8494 301.876 86.8999 302.088 87.0009C302.3 87.0993 302.48 87.2585 302.628 87.4786L302.71 87.4591V85.2107H303.564V91.2144H302.71V90.6241L302.628 90.6085C302.496 90.8157 302.319 90.9826 302.096 91.1095C301.873 91.2338 301.605 91.2959 301.292 91.2959ZM301.564 90.5542C301.916 90.5542 302.196 90.4325 302.403 90.1891C302.61 89.9432 302.713 89.5717 302.713 89.0746C302.713 88.5724 302.61 88.1996 302.403 87.9562C302.196 87.7103 301.916 87.5873 301.564 87.5873C300.811 87.5873 300.434 88.0831 300.434 89.0746C300.434 90.061 300.811 90.5542 301.564 90.5542ZM306.418 91.2959C306.076 91.2959 305.774 91.2144 305.509 91.0513C305.248 90.8856 305.043 90.637 304.896 90.3056C304.748 89.9743 304.675 89.5639 304.675 89.0746C304.675 88.5853 304.751 88.175 304.904 87.8436C305.059 87.5096 305.271 87.2611 305.541 87.098C305.812 86.9323 306.126 86.8494 306.48 86.8494C306.757 86.8494 307.002 86.8999 307.214 87.0009C307.427 87.0993 307.606 87.2585 307.754 87.4786L307.836 87.4591V85.2107H308.69V91.2144H307.836V90.6241L307.754 90.6085C307.622 90.8157 307.445 90.9826 307.222 91.1095C306.999 91.2338 306.731 91.2959 306.418 91.2959ZM306.69 90.5542C307.042 90.5542 307.322 90.4325 307.529 90.1891C307.736 89.9432 307.839 89.5717 307.839 89.0746C307.839 88.5724 307.736 88.1996 307.529 87.9562C307.322 87.7103 307.042 87.5873 306.69 87.5873C305.937 87.5873 305.56 88.0831 305.56 89.0746C305.56 90.061 305.937 90.5542 306.69 90.5542ZM311.975 92.9502V86.931H312.83V87.529L312.911 87.5446C313.056 87.309 313.241 87.1342 313.466 87.0203C313.692 86.9064 313.949 86.8494 314.239 86.8494C314.591 86.8494 314.898 86.931 315.16 87.0941C315.421 87.2572 315.624 87.5057 315.769 87.8397C315.914 88.1711 315.987 88.5827 315.987 89.0746C315.987 89.5639 315.909 89.9743 315.754 90.3056C315.601 90.637 315.389 90.8856 315.117 91.0513C314.848 91.2144 314.536 91.2959 314.181 91.2959C313.904 91.2959 313.661 91.248 313.451 91.1522C313.241 91.0564 313.061 90.9037 312.911 90.694L312.83 90.7095V92.9502H311.975ZM313.96 90.5542C314.33 90.5542 314.612 90.4364 314.806 90.2008C315.003 89.9626 315.101 89.5872 315.101 89.0746C315.101 88.5594 315.003 88.1827 314.806 87.9446C314.612 87.7064 314.33 87.5873 313.96 87.5873C313.615 87.5873 313.34 87.7103 313.133 87.9562C312.925 88.2022 312.822 88.575 312.822 89.0746C312.822 89.5717 312.925 89.9432 313.133 90.1891C313.34 90.4325 313.615 90.5542 313.96 90.5542ZM318.138 91.2959C317.719 91.2959 317.39 91.1846 317.152 90.9619C316.914 90.7367 316.795 90.4183 316.795 90.0066C316.795 89.7529 316.848 89.5393 316.954 89.3659C317.06 89.1924 317.226 89.0513 317.451 88.9426C317.676 88.8313 317.969 88.7458 318.328 88.6863C318.611 88.6397 318.826 88.5879 318.973 88.5309C319.121 88.474 319.22 88.4106 319.272 88.3407C319.324 88.2682 319.35 88.1776 319.35 88.0688C319.35 87.9031 319.292 87.7763 319.175 87.6883C319.061 87.6002 318.875 87.5562 318.616 87.5562C318.127 87.5562 317.711 87.7594 317.369 88.1659H317.292L316.911 87.6067C317.11 87.3711 317.358 87.186 317.653 87.0514C317.95 86.9168 318.281 86.8494 318.643 86.8494C319.179 86.8494 319.57 86.9647 319.816 87.1951C320.064 87.4255 320.189 87.7491 320.189 88.1659V90.2319C320.189 90.4467 320.28 90.5542 320.464 90.5542C320.532 90.5542 320.596 90.5425 320.658 90.5192L320.713 90.5348L320.787 91.1289C320.735 91.1652 320.662 91.1936 320.569 91.2144C320.479 91.2351 320.381 91.2454 320.278 91.2454C320.032 91.2454 319.843 91.1949 319.711 91.094C319.581 90.993 319.492 90.839 319.443 90.6318L319.361 90.6241C319.248 90.8493 319.09 91.0176 318.888 91.1289C318.688 91.2402 318.438 91.2959 318.138 91.2959ZM318.379 90.6396C318.578 90.6396 318.753 90.5943 318.903 90.5037C319.053 90.4105 319.169 90.2785 319.249 90.1076C319.329 89.9367 319.369 89.7361 319.369 89.5057V89.0164L319.295 89.0008C319.215 89.0604 319.114 89.1109 318.993 89.1523C318.873 89.1911 318.703 89.2287 318.48 89.2649C318.18 89.3089 317.966 89.3879 317.839 89.5018C317.715 89.6131 317.653 89.771 317.653 89.9756C317.653 90.193 317.716 90.3587 317.843 90.4726C317.97 90.584 318.149 90.6396 318.379 90.6396ZM323.105 93.0318C322.414 93.0318 321.906 92.923 321.583 92.7056C321.259 92.4907 321.097 92.1981 321.097 91.8279C321.097 91.5949 321.17 91.4059 321.315 91.261C321.46 91.116 321.668 91.0163 321.94 90.9619V90.8804C321.803 90.8001 321.702 90.7082 321.637 90.6047C321.572 90.4985 321.54 90.3755 321.54 90.2357C321.54 89.9018 321.756 89.6791 322.189 89.5678V89.4863C321.723 89.23 321.49 88.83 321.49 88.2863C321.49 88.0041 321.554 87.7543 321.684 87.5368C321.813 87.3193 322 87.1511 322.243 87.032C322.486 86.9103 322.775 86.8494 323.109 86.8494C323.466 86.8494 323.759 86.9193 323.987 87.0591C324.137 86.8727 324.223 86.6436 324.247 86.3718L324.328 86.3213L324.973 86.4766C324.95 86.6863 324.887 86.865 324.787 87.0125C324.686 87.1575 324.537 87.2805 324.34 87.3815V87.4669C324.596 87.6766 324.724 87.973 324.724 88.3562C324.724 88.6229 324.658 88.8636 324.526 89.0785C324.397 89.2908 324.209 89.4578 323.963 89.5795C323.72 89.7011 323.435 89.762 323.109 89.762C323.08 89.762 323.02 89.7594 322.926 89.7542C322.823 89.749 322.749 89.7464 322.705 89.7464C322.589 89.7464 322.497 89.7775 322.429 89.8396C322.362 89.9018 322.328 89.9807 322.328 90.0765C322.328 90.1879 322.367 90.272 322.445 90.3289C322.525 90.3859 322.651 90.4183 322.822 90.426L323.808 90.461C324.711 90.4895 325.163 90.8778 325.163 91.626C325.163 91.8927 325.093 92.1308 324.953 92.3405C324.814 92.5528 324.59 92.7211 324.282 92.8454C323.976 92.9696 323.584 93.0318 323.105 93.0318ZM323.109 89.1135C323.363 89.1135 323.559 89.0435 323.699 88.9037C323.842 88.7639 323.913 88.5659 323.913 88.3096C323.913 88.0507 323.843 87.8514 323.703 87.7116C323.563 87.5692 323.365 87.498 323.109 87.498C322.85 87.498 322.652 87.5679 322.515 87.7077C322.378 87.8475 322.309 88.0481 322.309 88.3096C322.309 88.5659 322.378 88.7639 322.515 88.9037C322.652 89.0435 322.85 89.1135 323.109 89.1135ZM323.105 92.3716C323.522 92.3716 323.825 92.3082 324.014 92.1813C324.205 92.057 324.301 91.8991 324.301 91.7075C324.301 91.5444 324.252 91.4266 324.154 91.3542C324.058 91.2817 323.895 91.2402 323.664 91.2299L322.763 91.1833L322.62 91.1794C322.389 91.182 322.218 91.2299 322.107 91.3231C321.996 91.4189 321.94 91.5496 321.94 91.7153C321.94 91.9302 322.037 92.0933 322.231 92.2046C322.425 92.3159 322.717 92.3716 323.105 92.3716ZM329.408 89.2649H326.557C326.607 90.1244 327.005 90.5542 327.753 90.5542C328.03 90.5542 328.253 90.505 328.421 90.4066C328.592 90.3056 328.727 90.1503 328.825 89.9406H328.907L329.47 90.2901C329.338 90.5956 329.132 90.8403 328.852 91.0241C328.575 91.2053 328.209 91.2959 327.753 91.2959C327.326 91.2959 326.957 91.2131 326.647 91.0474C326.336 90.8817 326.096 90.6331 325.928 90.3018C325.76 89.9704 325.676 89.5613 325.676 89.0746C325.676 88.5879 325.764 88.1776 325.94 87.8436C326.116 87.5096 326.357 87.2611 326.662 87.098C326.968 86.9323 327.312 86.8494 327.695 86.8494C328.272 86.8494 328.718 87.0074 329.031 87.3232C329.347 87.6391 329.506 88.1038 329.509 88.7173C329.509 88.9478 329.502 89.1147 329.489 89.2183L329.408 89.2649ZM328.682 88.6552C328.671 88.2643 328.582 87.9795 328.414 87.8009C328.248 87.6222 328.008 87.5329 327.695 87.5329C327.379 87.5329 327.126 87.6222 326.934 87.8009C326.745 87.9795 326.626 88.2643 326.577 88.6552H328.682ZM334.709 90.3639L334.949 90.9891C334.841 91.0875 334.701 91.1626 334.53 91.2144C334.359 91.2687 334.17 91.2959 333.963 91.2959C333.533 91.2959 333.206 91.182 332.98 90.9542C332.755 90.7263 332.643 90.3859 332.643 89.9328V87.6145H331.944V86.9271H332.643V86.0572L333.497 85.9174V86.9271H334.794V87.6145H333.497V89.8629C333.497 90.1011 333.546 90.2733 333.644 90.3794C333.745 90.4856 333.889 90.5386 334.076 90.5386C334.285 90.5386 334.469 90.4804 334.627 90.3639H334.709ZM336.192 86.2592C336.029 86.2592 335.896 86.2087 335.792 86.1077C335.688 86.0068 335.637 85.8773 335.637 85.7194C335.637 85.564 335.688 85.4359 335.792 85.3349C335.896 85.234 336.029 85.1835 336.192 85.1835C336.355 85.1835 336.488 85.234 336.592 85.3349C336.698 85.4359 336.751 85.564 336.751 85.7194C336.751 85.8773 336.699 86.0068 336.596 86.1077C336.492 86.2087 336.358 86.2592 336.192 86.2592ZM335.765 91.2144V86.931H336.619V91.2144H335.765ZM340.231 90.3639L340.471 90.9891C340.363 91.0875 340.223 91.1626 340.052 91.2144C339.881 91.2687 339.692 91.2959 339.485 91.2959C339.055 91.2959 338.728 91.182 338.503 90.9542C338.277 90.7263 338.165 90.3859 338.165 89.9328V87.6145H337.466V86.9271H338.165V86.0572L339.019 85.9174V86.9271H340.316V87.6145H339.019V89.8629C339.019 90.1011 339.068 90.2733 339.167 90.3794C339.268 90.4856 339.411 90.5386 339.598 90.5386C339.807 90.5386 339.991 90.4804 340.149 90.3639H340.231ZM342.347 91.2959C342.003 91.2959 341.736 91.2014 341.547 91.0124C341.358 90.8208 341.264 90.5335 341.264 90.1503V85.2107H342.118V90.1076C342.118 90.2655 342.149 90.3794 342.211 90.4493C342.273 90.5192 342.368 90.5542 342.495 90.5542C342.567 90.5542 342.645 90.5425 342.728 90.5192L342.782 90.5348L342.867 91.1949C342.813 91.2286 342.739 91.2532 342.646 91.2687C342.556 91.2868 342.456 91.2959 342.347 91.2959ZM347.162 89.2649H344.312C344.361 90.1244 344.76 90.5542 345.508 90.5542C345.785 90.5542 346.008 90.505 346.176 90.4066C346.347 90.3056 346.482 90.1503 346.58 89.9406H346.662L347.225 90.2901C347.093 90.5956 346.887 90.8403 346.607 91.0241C346.33 91.2053 345.964 91.2959 345.508 91.2959C345.081 91.2959 344.712 91.2131 344.401 91.0474C344.091 90.8817 343.851 90.6331 343.683 90.3018C343.515 89.9704 343.431 89.5613 343.431 89.0746C343.431 88.5879 343.519 88.1776 343.695 87.8436C343.871 87.5096 344.111 87.2611 344.417 87.098C344.722 86.9323 345.067 86.8494 345.45 86.8494C346.027 86.8494 346.473 87.0074 346.786 87.3232C347.102 87.6391 347.261 88.1038 347.263 88.7173C347.263 88.9478 347.257 89.1147 347.244 89.2183L347.162 89.2649ZM346.436 88.6552C346.426 88.2643 346.337 87.9795 346.168 87.8009C346.003 87.6222 345.763 87.5329 345.45 87.5329C345.134 87.5329 344.88 87.6222 344.689 87.8009C344.5 87.9795 344.381 88.2643 344.332 88.6552H346.436Z" fill="#11171D" fill-opacity="0.6"/>
<g clip-path="url(#clip3_6839_89122)" filter="url(#filter1_dd_6839_89122)">
<rect width="326.079" height="273.816" transform="translate(261.412 102.348)" fill="white"/>
<rect x="261.412" y="102.348" width="326.079" height="273.816" fill="white"/>
</g>
<g clip-path="url(#clip4_6839_89122)">
<mask id="mask0_6839_89122" style="mask-type:alpha" maskUnits="userSpaceOnUse" x="16" y="47" width="41" height="371">
<rect x="18.2725" y="47.8125" width="36.3572" height="346.534" fill="#D9D9D9"/>
</mask>
<g mask="url(#mask0_6839_89122)">
<g filter="url(#filter2_dd_6839_89122)">
<path d="M27.3618 61.4465C27.3618 58.9366 29.3965 56.9019 31.9065 56.9019H40.9958C43.5057 56.9019 45.5404 58.9366 45.5404 61.4465V70.5358C45.5404 73.0458 43.5057 75.0805 40.9958 75.0805H31.9065C29.3965 75.0805 27.3618 73.0458 27.3618 70.5358V61.4465Z" fill="white"/>
<path fill-rule="evenodd" clip-rule="evenodd" d="M31.3384 65.6077C31.3384 63.5681 31.3384 62.5483 31.8872 61.8522C32.0116 61.6943 32.1543 61.5517 32.3121 61.4272C33.0083 60.8784 34.0281 60.8784 36.0677 60.8784H36.8346C38.8742 60.8784 39.894 60.8784 40.5901 61.4272C40.748 61.5517 40.8906 61.6943 41.015 61.8522C41.5639 62.5483 41.5639 63.5681 41.5639 65.6077V66.3746C41.5639 68.4142 41.5639 69.434 41.015 70.1302C40.8906 70.288 40.748 70.4306 40.5901 70.5551C39.894 71.1039 38.8742 71.1039 36.8346 71.1039H36.0677C34.0281 71.1039 33.0083 71.1039 32.3121 70.5551C32.1543 70.4306 32.0116 70.288 31.8872 70.1302C31.3384 69.434 31.3384 68.4142 31.3384 66.3746V65.6077ZM36.0677 61.7305H36.8346C36.9989 61.7305 37.1549 61.7306 37.3032 61.7309L37.3032 70.2514C37.1549 70.2517 36.9989 70.2518 36.8346 70.2518H36.0677C35.0276 70.2518 34.3204 70.2505 33.7834 70.1887C33.2642 70.1291 33.013 70.0226 32.8397 69.8859C32.7344 69.8029 32.6393 69.7079 32.5564 69.6026C32.4197 69.4292 32.3132 69.178 32.2535 68.6589C32.1918 68.1219 32.1905 67.4146 32.1905 66.3746V65.6077C32.1905 64.5677 32.1918 63.8604 32.2535 63.3234C32.3132 62.8043 32.4197 62.5531 32.5564 62.3797C32.6393 62.2745 32.7344 62.1794 32.8397 62.0964C33.013 61.9597 33.2642 61.8532 33.7834 61.7936C34.3204 61.7319 35.0276 61.7305 36.0677 61.7305ZM38.1554 70.2436C38.5338 70.2356 38.848 70.2199 39.1188 70.1887C39.638 70.1291 39.8892 70.0226 40.0626 69.8859C40.1678 69.8029 40.2629 69.7079 40.3459 69.6026C40.4825 69.4292 40.589 69.178 40.6487 68.6589C40.7104 68.1219 40.7117 67.4146 40.7117 66.3746V65.6077C40.7117 65.5486 40.7117 65.4905 40.7117 65.4335H38.1554L38.1554 70.2436ZM40.7082 64.5814C40.7025 64.0674 40.6876 63.6617 40.6487 63.3234C40.589 62.8043 40.4825 62.5531 40.3459 62.3797C40.2629 62.2745 40.1678 62.1794 40.0626 62.0964C39.8892 61.9597 39.638 61.8532 39.1188 61.7936C38.848 61.7624 38.5338 61.7467 38.1554 61.7387V64.5814H40.7082Z" fill="#0E1318" fill-opacity="0.7"/>
</g>
<path d="M28.2859 79.8921C28.9917 79.8921 29.5359 80.0783 29.9183 80.4505C30.3007 80.8228 30.4919 81.3801 30.4919 82.1226C30.4919 82.863 30.3007 83.4204 29.9183 83.7947C29.5359 84.1669 28.9917 84.353 28.2859 84.353H26.7633V79.8921H28.2859ZM28.234 83.758C28.5737 83.758 28.8544 83.7041 29.0761 83.5963C29.2999 83.4885 29.4687 83.3146 29.5827 83.0746C29.6986 82.8325 29.7566 82.5152 29.7566 82.1226C29.7566 81.728 29.6986 81.4106 29.5827 81.1706C29.4687 80.9306 29.2999 80.7567 29.0761 80.6488C28.8544 80.539 28.5737 80.4841 28.234 80.4841H27.4651V83.758H28.234ZM34.1625 82.8213H31.9229C31.9616 83.4967 32.2748 83.8343 32.8627 83.8343C33.0804 83.8343 33.2553 83.7957 33.3875 83.7184C33.5218 83.639 33.6276 83.517 33.7049 83.3522H33.7689L34.2114 83.6268C34.1076 83.8669 33.9459 84.0591 33.7262 84.2035C33.5086 84.3459 33.2207 84.4171 32.8627 84.4171C32.5271 84.4171 32.2372 84.352 31.9931 84.2218C31.749 84.0916 31.5609 83.8964 31.4286 83.636C31.2964 83.3756 31.2303 83.0542 31.2303 82.6718C31.2303 82.2894 31.2995 81.967 31.4378 81.7046C31.5761 81.4422 31.7653 81.2469 32.0053 81.1187C32.2454 80.9885 32.5159 80.9235 32.8169 80.9235C33.2706 80.9235 33.6204 81.0475 33.8666 81.2957C34.1147 81.5439 34.2398 81.909 34.2419 82.3911C34.2419 82.5721 34.2368 82.7033 34.2266 82.7847L34.1625 82.8213ZM33.592 82.3423C33.5838 82.0351 33.5136 81.8114 33.3814 81.671C33.2512 81.5306 33.0631 81.4605 32.8169 81.4605C32.5688 81.4605 32.3694 81.5306 32.2189 81.671C32.0704 81.8114 31.9768 82.0351 31.9382 82.3423H33.592ZM36.0757 84.4171C35.856 84.4171 35.6525 84.3896 35.4654 84.3347C35.2803 84.2798 35.1227 84.2045 34.9925 84.1089C34.8643 84.0113 34.7707 83.9014 34.7118 83.7794L35.0932 83.3736H35.1572C35.379 83.6929 35.6861 83.8526 36.0787 83.8526C36.2842 83.8526 36.4398 83.814 36.5455 83.7367C36.6533 83.6573 36.7073 83.5475 36.7073 83.4071C36.7073 83.2973 36.6717 83.2068 36.6005 83.1356C36.5313 83.0624 36.4204 83.0074 36.2679 82.9708L35.7614 82.8457C35.444 82.7705 35.2111 82.6525 35.0626 82.4918C34.9162 82.3291 34.843 82.1267 34.843 81.8846C34.843 81.6873 34.8928 81.5164 34.9925 81.372C35.0942 81.2276 35.2376 81.1167 35.4227 81.0394C35.6078 80.9621 35.8255 80.9235 36.0757 80.9235C36.3828 80.9235 36.63 80.9672 36.8171 81.0547C37.0063 81.1401 37.1537 81.2581 37.2595 81.4086L36.8934 81.79H36.8324C36.7327 81.6741 36.6208 81.5907 36.4967 81.5398C36.3747 81.4889 36.2343 81.4635 36.0757 81.4635C35.8783 81.4635 35.7298 81.4971 35.6302 81.5642C35.5305 81.6293 35.4807 81.7249 35.4807 81.851C35.4807 81.9629 35.5173 82.0534 35.5905 82.1226C35.6637 82.1917 35.7909 82.2477 35.9719 82.2904L36.4601 82.4033C36.7774 82.4745 37.0073 82.5904 37.1497 82.7511C37.2941 82.9118 37.3663 83.1214 37.3663 83.3797C37.3663 83.5851 37.3165 83.7662 37.2168 83.9228C37.1171 84.0774 36.9707 84.1984 36.7774 84.2859C36.5842 84.3734 36.3503 84.4171 36.0757 84.4171ZM38.5044 80.4597C38.3763 80.4597 38.2715 80.42 38.1901 80.3407C38.1088 80.2613 38.0681 80.1596 38.0681 80.0355C38.0681 79.9135 38.1088 79.8128 38.1901 79.7335C38.2715 79.6541 38.3763 79.6145 38.5044 79.6145C38.6326 79.6145 38.7373 79.6541 38.8187 79.7335C38.9021 79.8128 38.9438 79.9135 38.9438 80.0355C38.9438 80.1596 38.9031 80.2613 38.8218 80.3407C38.7404 80.42 38.6346 80.4597 38.5044 80.4597ZM38.1688 84.353V80.9875H38.8401V84.353H38.1688ZM41.1163 85.781C40.5732 85.781 40.1745 85.6956 39.9202 85.5247C39.6659 85.3559 39.5388 85.126 39.5388 84.8351C39.5388 84.652 39.5957 84.5036 39.7097 84.3896C39.8236 84.2757 39.9873 84.1974 40.2009 84.1547V84.0906C40.0931 84.0276 40.0138 83.9554 39.9629 83.874C39.9121 83.7906 39.8866 83.694 39.8866 83.5841C39.8866 83.3217 40.0565 83.1468 40.3962 83.0593V82.9952C40.03 82.7939 39.847 82.4796 39.847 82.0524C39.847 81.8307 39.8978 81.6344 39.9995 81.4635C40.1012 81.2927 40.2477 81.1604 40.4389 81.0669C40.6301 80.9713 40.8569 80.9235 41.1193 80.9235C41.4 80.9235 41.6299 80.9784 41.8089 81.0882C41.9269 80.9418 41.995 80.7617 42.0133 80.5482L42.0774 80.5085L42.5839 80.6305C42.5656 80.7953 42.5168 80.9357 42.4374 81.0516C42.3581 81.1655 42.2412 81.2621 42.0866 81.3415V81.4086C42.2879 81.5734 42.3886 81.8063 42.3886 82.1073C42.3886 82.3168 42.3368 82.506 42.233 82.6749C42.1313 82.8417 41.9838 82.9729 41.7906 83.0685C41.5994 83.1641 41.3756 83.2119 41.1193 83.2119C41.0969 83.2119 41.0491 83.2098 40.9759 83.2058C40.8945 83.2017 40.8366 83.1997 40.802 83.1997C40.7105 83.1997 40.6382 83.2241 40.5854 83.2729C40.5325 83.3217 40.506 83.3838 40.506 83.459C40.506 83.5465 40.5365 83.6126 40.5976 83.6573C40.6606 83.7021 40.7593 83.7275 40.8935 83.7336L41.6685 83.7611C42.3785 83.7835 42.7334 84.0886 42.7334 84.6765C42.7334 84.886 42.6785 85.0731 42.5686 85.2379C42.4588 85.4047 42.2829 85.5369 42.0408 85.6345C41.8008 85.7322 41.4926 85.781 41.1163 85.781ZM41.1193 82.7023C41.3187 82.7023 41.4733 82.6474 41.5831 82.5376C41.695 82.4277 41.7509 82.2721 41.7509 82.0707C41.7509 81.8673 41.696 81.7107 41.5862 81.6008C41.4763 81.4889 41.3207 81.433 41.1193 81.433C40.9159 81.433 40.7603 81.4879 40.6525 81.5978C40.5447 81.7076 40.4908 81.8653 40.4908 82.0707C40.4908 82.2721 40.5447 82.4277 40.6525 82.5376C40.7603 82.6474 40.9159 82.7023 41.1193 82.7023ZM41.1163 85.2623C41.4438 85.2623 41.6818 85.2125 41.8303 85.1128C41.9808 85.0151 42.056 84.8911 42.056 84.7405C42.056 84.6124 42.0174 84.5198 41.9401 84.4629C41.8648 84.4059 41.7367 84.3734 41.5556 84.3652L40.8478 84.3286L40.7349 84.3256C40.5538 84.3276 40.4196 84.3652 40.3321 84.4385C40.2446 84.5137 40.2009 84.6164 40.2009 84.7466C40.2009 84.9155 40.2772 85.0436 40.4297 85.1311C40.5823 85.2186 40.8111 85.2623 41.1163 85.2623ZM43.3925 84.353V80.9875H44.0332V81.4971L44.0973 81.5123C44.2051 81.3191 44.3445 81.1726 44.5153 81.073C44.6862 80.9733 44.8947 80.9235 45.1408 80.9235C45.5375 80.9235 45.8263 81.0282 46.0074 81.2377C46.1905 81.4452 46.282 81.7575 46.282 82.1745V84.353H45.6107V82.2324C45.6107 81.97 45.5588 81.7819 45.4551 81.668C45.3514 81.554 45.1846 81.4971 44.9547 81.4971C44.6801 81.4971 44.4624 81.5866 44.3017 81.7656C44.1431 81.9446 44.0637 82.2284 44.0637 82.6169V84.353H43.3925Z" fill="#0E1318" fill-opacity="0.7"/>
<g filter="url(#filter3_dd_6839_89122)">
<path d="M27.3618 100.987C27.3618 98.4766 29.3965 96.4419 31.9065 96.4419H40.9958C43.5057 96.4419 45.5404 98.4766 45.5404 100.987V110.076C45.5404 112.586 43.5057 114.621 40.9958 114.621H31.9065C29.3965 114.621 27.3618 112.586 27.3618 110.076V100.987Z" fill="white"/>
<path fill-rule="evenodd" clip-rule="evenodd" d="M33.3546 105.101C33.4805 105.168 33.6193 105.202 33.7575 105.202C33.8962 105.202 34.0351 105.168 34.1613 105.1L34.163 105.099L34.165 105.098L34.1703 105.095L34.1854 105.087C34.1975 105.08 34.2135 105.071 34.233 105.06C34.272 105.037 34.3252 105.005 34.3892 104.965C34.5167 104.883 34.6901 104.765 34.8807 104.613C35.2431 104.323 35.7203 103.868 36.0316 103.264C36.1843 103.008 36.2719 102.709 36.2719 102.392C36.2719 101.454 35.5111 100.693 34.5727 100.693C34.2771 100.693 33.9994 100.768 33.7576 100.901C33.5158 100.768 33.238 100.693 32.9424 100.693C32.004 100.693 31.2432 101.454 31.2432 102.392C31.2432 102.687 31.3188 102.966 31.4523 103.209C31.7597 103.835 32.2491 104.305 32.62 104.603C32.8143 104.758 32.9915 104.879 33.1219 104.962C33.1873 105.004 33.2418 105.037 33.2816 105.06C33.3016 105.071 33.318 105.081 33.3303 105.087L33.3457 105.096L33.3511 105.099L33.3532 105.1L33.3546 105.101ZM32.2079 102.814C32.4072 103.23 32.7288 103.576 33.0276 103.833C33.267 104.04 33.4917 104.19 33.6269 104.273C33.7082 104.323 33.7575 104.35 33.7575 104.35C33.7575 104.35 33.8065 104.324 33.8878 104.273C34.0229 104.189 34.2477 104.039 34.4867 103.832C34.7764 103.581 35.0876 103.247 35.2875 102.847C35.3713 102.716 35.4198 102.56 35.4198 102.392C35.4198 101.924 35.0406 101.545 34.5727 101.545C34.5216 101.545 34.4716 101.55 34.423 101.558C34.1028 101.615 33.8449 101.852 33.7576 102.161C33.6702 101.852 33.4123 101.615 33.0922 101.558C33.0435 101.55 32.9935 101.545 32.9424 101.545C32.4745 101.545 32.0953 101.924 32.0953 102.392C32.0953 102.546 32.1363 102.69 32.2079 102.814Z" fill="#0E1318" fill-opacity="0.7"/>
<path fill-rule="evenodd" clip-rule="evenodd" d="M39.5961 100.993C39.3714 100.606 38.8124 100.606 38.5877 100.993L36.7091 104.228C36.4833 104.616 36.7638 105.104 37.2133 105.104H40.9705C41.42 105.104 41.7005 104.616 41.4747 104.228L39.5961 100.993ZM39.0919 101.822L37.6807 104.252H40.5031L39.0919 101.822Z" fill="#0E1318" fill-opacity="0.7"/>
<path fill-rule="evenodd" clip-rule="evenodd" d="M41.485 108.467C41.485 109.789 40.4136 110.86 39.0919 110.86C37.7702 110.86 36.6987 109.789 36.6987 108.467C36.6987 107.146 37.7702 106.074 39.0919 106.074C40.4136 106.074 41.485 107.146 41.485 108.467ZM40.6329 108.467C40.6329 109.318 39.943 110.008 39.0919 110.008C38.2408 110.008 37.5509 109.318 37.5509 108.467C37.5509 107.616 38.2408 106.926 39.0919 106.926C39.943 106.926 40.6329 107.616 40.6329 108.467Z" fill="#0E1318" fill-opacity="0.7"/>
<path fill-rule="evenodd" clip-rule="evenodd" d="M31.5691 106.716C31.5691 106.475 31.7649 106.279 32.0064 106.279H35.4947C35.7363 106.279 35.9321 106.475 35.9321 106.716V110.292C35.9321 110.485 35.7754 110.642 35.5822 110.642H32.0064C31.7649 110.642 31.5691 110.446 31.5691 110.204V106.716ZM32.4212 109.79V107.131H35.0799V109.79H32.4212Z" fill="#0E1318" fill-opacity="0.7"/>
</g>
<path d="M23.6267 121.861V123.307H25.8296V123.893H22.9249V119.432H25.7808V120.018H23.6267V121.284H25.5184V121.861H23.6267ZM27.4682 123.957C27.1976 123.957 26.9881 123.883 26.8396 123.734C26.6911 123.584 26.6169 123.358 26.6169 123.057V119.176H27.2881V123.023C27.2881 123.148 27.3125 123.237 27.3614 123.292C27.4102 123.347 27.4844 123.374 27.5841 123.374C27.6411 123.374 27.7021 123.365 27.7672 123.347L27.8099 123.359L27.877 123.878C27.8343 123.904 27.7763 123.924 27.7031 123.936C27.6319 123.95 27.5536 123.957 27.4682 123.957ZM31.2517 122.361H29.0121C29.0507 123.037 29.364 123.374 29.9518 123.374C30.1695 123.374 30.3444 123.336 30.4767 123.258C30.6109 123.179 30.7167 123.057 30.794 122.892H30.8581L31.3005 123.167C31.1967 123.407 31.035 123.599 30.8153 123.744C30.5977 123.886 30.3099 123.957 29.9518 123.957C29.6162 123.957 29.3263 123.892 29.0823 123.762C28.8382 123.632 28.65 123.436 28.5178 123.176C28.3856 122.916 28.3194 122.594 28.3194 122.212C28.3194 121.829 28.3886 121.507 28.5269 121.245C28.6652 120.982 28.8544 120.787 29.0945 120.659C29.3345 120.529 29.605 120.463 29.9061 120.463C30.3597 120.463 30.7096 120.588 30.9557 120.836C31.2039 121.084 31.329 121.449 31.331 121.931C31.331 122.112 31.3259 122.243 31.3157 122.325L31.2517 122.361ZM30.6811 121.882C30.673 121.575 30.6028 121.351 30.4706 121.211C30.3404 121.071 30.1522 121.001 29.9061 121.001C29.6579 121.001 29.4586 121.071 29.308 121.211C29.1595 121.351 29.066 121.575 29.0273 121.882H30.6811ZM32.1457 123.893V120.528H32.7864V121.001L32.8505 121.013C32.9644 120.828 33.0987 120.69 33.2533 120.601C33.4079 120.509 33.5981 120.463 33.8238 120.463C34.0822 120.463 34.2856 120.513 34.4341 120.613C34.5826 120.713 34.6945 120.865 34.7697 121.071H34.8338C34.9436 120.867 35.082 120.716 35.2488 120.616C35.4156 120.514 35.622 120.463 35.8682 120.463C36.218 120.463 36.4784 120.56 36.6493 120.753C36.8201 120.945 36.9056 121.231 36.9056 121.614V123.893H36.2343V121.672C36.2343 121.452 36.1885 121.291 36.097 121.19C36.0075 121.088 35.8631 121.037 35.6637 121.037C35.4196 121.037 35.2244 121.123 35.0779 121.293C34.9335 121.464 34.8613 121.743 34.8613 122.129V123.893H34.19V121.672C34.19 121.452 34.1442 121.291 34.0527 121.19C33.9632 121.088 33.8188 121.037 33.6194 121.037C33.3753 121.037 33.18 121.121 33.0336 121.287C32.8892 121.454 32.8169 121.724 32.8169 122.096V123.893H32.1457ZM40.6555 122.361H38.4159C38.4546 123.037 38.7678 123.374 39.3557 123.374C39.5734 123.374 39.7483 123.336 39.8805 123.258C40.0148 123.179 40.1206 123.057 40.1979 122.892H40.2619L40.7044 123.167C40.6006 123.407 40.4389 123.599 40.2192 123.744C40.0016 123.886 39.7137 123.957 39.3557 123.957C39.0201 123.957 38.7302 123.892 38.4861 123.762C38.242 123.632 38.0539 123.436 37.9216 123.176C37.7894 122.916 37.7233 122.594 37.7233 122.212C37.7233 121.829 37.7925 121.507 37.9308 121.245C38.0691 120.982 38.2583 120.787 38.4983 120.659C38.7384 120.529 39.0089 120.463 39.3099 120.463C39.7636 120.463 40.1134 120.588 40.3596 120.836C40.6077 121.084 40.7328 121.449 40.7349 121.931C40.7349 122.112 40.7298 122.243 40.7196 122.325L40.6555 122.361ZM40.085 121.882C40.0768 121.575 40.0066 121.351 39.8744 121.211C39.7442 121.071 39.5561 121.001 39.3099 121.001C39.0618 121.001 38.8624 121.071 38.7119 121.211C38.5634 121.351 38.4698 121.575 38.4312 121.882H40.085ZM41.5495 123.893V120.528H42.1903V121.037L42.2544 121.052C42.3622 120.859 42.5015 120.713 42.6724 120.613C42.8433 120.513 43.0518 120.463 43.2979 120.463C43.6946 120.463 43.9834 120.568 44.1644 120.778C44.3475 120.985 44.439 121.297 44.439 121.714V123.893H43.7678V121.772C43.7678 121.51 43.7159 121.322 43.6122 121.208C43.5084 121.094 43.3416 121.037 43.1118 121.037C42.8372 121.037 42.6195 121.127 42.4588 121.306C42.3001 121.485 42.2208 121.768 42.2208 122.157V123.893H41.5495ZM47.2004 123.225L47.3896 123.716C47.3041 123.793 47.1943 123.852 47.06 123.893C46.9258 123.936 46.7773 123.957 46.6146 123.957C46.2769 123.957 46.0196 123.868 45.8426 123.689C45.6656 123.51 45.5772 123.242 45.5772 122.886V121.065H45.0279V120.525H45.5772V119.841L46.2484 119.731V120.525H47.2675V121.065H46.2484V122.831C46.2484 123.018 46.2871 123.154 46.3644 123.237C46.4437 123.32 46.5566 123.362 46.7031 123.362C46.8678 123.362 47.0122 123.316 47.1363 123.225H47.2004ZM49.0494 123.957C48.8298 123.957 48.6263 123.93 48.4392 123.875C48.2541 123.82 48.0964 123.745 47.9663 123.649C47.8381 123.551 47.7445 123.441 47.6855 123.319L48.067 122.914H48.131C48.3527 123.233 48.6599 123.393 49.0525 123.393C49.2579 123.393 49.4136 123.354 49.5193 123.277C49.6271 123.197 49.681 123.088 49.681 122.947C49.681 122.837 49.6454 122.747 49.5743 122.676C49.5051 122.602 49.3942 122.547 49.2417 122.511L48.7352 122.386C48.4178 122.31 48.1849 122.193 48.0364 122.032C47.89 121.869 47.8167 121.667 47.8167 121.425C47.8167 121.227 47.8666 121.056 47.9663 120.912C48.068 120.768 48.2114 120.657 48.3965 120.579C48.5816 120.502 48.7992 120.463 49.0494 120.463C49.3566 120.463 49.6037 120.507 49.7909 120.595C49.9801 120.68 50.1275 120.798 50.2333 120.949L49.8672 121.33H49.8061C49.7065 121.214 49.5946 121.131 49.4705 121.08C49.3485 121.029 49.2081 121.004 49.0494 121.004C48.8521 121.004 48.7036 121.037 48.604 121.104C48.5043 121.169 48.4545 121.265 48.4545 121.391C48.4545 121.503 48.4911 121.593 48.5643 121.663C48.6375 121.732 48.7647 121.788 48.9457 121.83L49.4339 121.943C49.7512 122.015 49.9811 122.13 50.1235 122.291C50.2679 122.452 50.3401 122.661 50.3401 122.92C50.3401 123.125 50.2903 123.306 50.1906 123.463C50.0909 123.617 49.9445 123.738 49.7512 123.826C49.558 123.913 49.3241 123.957 49.0494 123.957Z" fill="#0E1318" fill-opacity="0.7"/>
<g filter="url(#filter4_dd_6839_89122)">
<path d="M27.3618 140.527C27.3618 138.017 29.3965 135.982 31.9065 135.982H40.9958C43.5057 135.982 45.5404 138.017 45.5404 140.527V149.616C45.5404 152.126 43.5057 154.161 40.9958 154.161H31.9065C29.3965 154.161 27.3618 152.126 27.3618 149.616V140.527Z" fill="white"/>
<path d="M32.0571 141.545C32.0571 141.074 32.4386 140.693 32.9093 140.693H39.9925C40.4631 140.693 40.8446 141.074 40.8446 141.545V142.596C40.8446 142.831 40.6539 143.022 40.4186 143.022C40.1833 143.022 39.9925 142.831 39.9925 142.596V141.829C39.9925 141.672 39.8654 141.545 39.7085 141.545L36.8769 141.545V148.327C36.8769 148.484 37.0041 148.611 37.161 148.611H38.2263C38.4616 148.611 38.6523 148.802 38.6523 149.037C38.6523 149.272 38.4616 149.463 38.2263 149.463H34.6755C34.4402 149.463 34.2494 149.272 34.2494 149.037C34.2494 148.802 34.4402 148.611 34.6755 148.611H35.7408C35.8977 148.611 36.0248 148.484 36.0248 148.327V141.545L33.1933 141.545C33.0364 141.545 32.9093 141.672 32.9093 141.829V142.612C32.9093 142.847 32.7185 143.038 32.4832 143.038C32.2479 143.038 32.0571 142.847 32.0571 142.612V141.545Z" fill="#0E1318" fill-opacity="0.7"/>
</g>
</g>
</g>
<g filter="url(#filter5_dd_6839_89122)">
<g clip-path="url(#clip5_6839_89122)">
<path d="M61.4468 59.1739C61.4468 55.409 64.4988 52.3569 68.2638 52.3569H259.707C263.472 52.3569 266.524 55.409 266.524 59.1739V422.746C266.524 426.511 263.472 429.563 259.707 429.563H68.2638C64.4988 429.563 61.4468 426.511 61.4468 422.746V59.1739Z" fill="white"/>
</g>
</g>
</g>
</g>
<defs>
<filter id="filter0_dd_6839_89122" x="6.91069" y="10.3192" width="794.179" height="460.146" filterUnits="userSpaceOnUse" color-interpolation-filters="sRGB">
<feFlood flood-opacity="0" result="BackgroundImageFix"/>
<feColorMatrix in="SourceAlpha" type="matrix" values="0 0 0 0 0 0 0 0 0 0 0 0 0 0 0 0 0 0 127 0" result="hardAlpha"/>
<feMorphology radius="2.27233" operator="erode" in="SourceAlpha" result="effect1_dropShadow_6839_89122"/>
<feOffset dy="3.40849"/>
<feGaussianBlur stdDeviation="5.68082"/>
<feColorMatrix type="matrix" values="0 0 0 0 0.25098 0 0 0 0 0.341176 0 0 0 0 0.427451 0 0 0 0.3 0"/>
<feBlend mode="normal" in2="BackgroundImageFix" result="effect1_dropShadow_6839_89122"/>
<feColorMatrix in="SourceAlpha" type="matrix" values="0 0 0 0 0 0 0 0 0 0 0 0 0 0 0 0 0 0 127 0" result="hardAlpha"/>
<feMorphology radius="0.568082" operator="dilate" in="SourceAlpha" result="effect2_dropShadow_6839_89122"/>
<feOffset/>
<feColorMatrix type="matrix" values="0 0 0 0 0.25098 0 0 0 0 0.341176 0 0 0 0 0.427451 0 0 0 0.04 0"/>
<feBlend mode="normal" in2="effect1_dropShadow_6839_89122" result="effect2_dropShadow_6839_89122"/>
<feBlend mode="normal" in="SourceGraphic" in2="effect2_dropShadow_6839_89122" result="shape"/>
</filter>
<filter id="filter1_dd_6839_89122" x="252.323" y="96.6673" width="344.258" height="291.994" filterUnits="userSpaceOnUse" color-interpolation-filters="sRGB">
<feFlood flood-opacity="0" result="BackgroundImageFix"/>
<feColorMatrix in="SourceAlpha" type="matrix" values="0 0 0 0 0 0 0 0 0 0 0 0 0 0 0 0 0 0 127 0" result="hardAlpha"/>
<feMorphology radius="2.27233" operator="erode" in="SourceAlpha" result="effect1_dropShadow_6839_89122"/>
<feOffset dy="3.40849"/>
<feGaussianBlur stdDeviation="5.68082"/>
<feColorMatrix type="matrix" values="0 0 0 0 0.25098 0 0 0 0 0.341176 0 0 0 0 0.427451 0 0 0 0.3 0"/>
<feBlend mode="normal" in2="BackgroundImageFix" result="effect1_dropShadow_6839_89122"/>
<feColorMatrix in="SourceAlpha" type="matrix" values="0 0 0 0 0 0 0 0 0 0 0 0 0 0 0 0 0 0 127 0" result="hardAlpha"/>
<feMorphology radius="0.568082" operator="dilate" in="SourceAlpha" result="effect2_dropShadow_6839_89122"/>
<feOffset/>
<feColorMatrix type="matrix" values="0 0 0 0 0.25098 0 0 0 0 0.341176 0 0 0 0 0.427451 0 0 0 0.04 0"/>
<feBlend mode="normal" in2="effect1_dropShadow_6839_89122" result="effect2_dropShadow_6839_89122"/>
<feBlend mode="normal" in="SourceGraphic" in2="effect2_dropShadow_6839_89122" result="shape"/>
</filter>
<filter id="filter2_dd_6839_89122" x="24.3618" y="55.9019" width="24.1787" height="24.1787" filterUnits="userSpaceOnUse" color-interpolation-filters="sRGB">
<feFlood flood-opacity="0" result="BackgroundImageFix"/>
<feColorMatrix in="SourceAlpha" type="matrix" values="0 0 0 0 0 0 0 0 0 0 0 0 0 0 0 0 0 0 127 0" result="hardAlpha"/>
<feMorphology radius="1" operator="erode" in="SourceAlpha" result="effect1_dropShadow_6839_89122"/>
<feOffset dy="2"/>
<feGaussianBlur stdDeviation="2"/>
<feColorMatrix type="matrix" values="0 0 0 0 0.25098 0 0 0 0 0.341176 0 0 0 0 0.427451 0 0 0 0.3 0"/>
<feBlend mode="normal" in2="BackgroundImageFix" result="effect1_dropShadow_6839_89122"/>
<feColorMatrix in="SourceAlpha" type="matrix" values="0 0 0 0 0 0 0 0 0 0 0 0 0 0 0 0 0 0 127 0" result="hardAlpha"/>
<feMorphology radius="1" operator="dilate" in="SourceAlpha" result="effect2_dropShadow_6839_89122"/>
<feOffset/>
<feColorMatrix type="matrix" values="0 0 0 0 0.25098 0 0 0 0 0.341176 0 0 0 0 0.427451 0 0 0 0.04 0"/>
<feBlend mode="normal" in2="effect1_dropShadow_6839_89122" result="effect2_dropShadow_6839_89122"/>
<feBlend mode="normal" in="SourceGraphic" in2="effect2_dropShadow_6839_89122" result="shape"/>
</filter>
<filter id="filter3_dd_6839_89122" x="24.3618" y="95.4419" width="24.1787" height="24.1787" filterUnits="userSpaceOnUse" color-interpolation-filters="sRGB">
<feFlood flood-opacity="0" result="BackgroundImageFix"/>
<feColorMatrix in="SourceAlpha" type="matrix" values="0 0 0 0 0 0 0 0 0 0 0 0 0 0 0 0 0 0 127 0" result="hardAlpha"/>
<feMorphology radius="1" operator="erode" in="SourceAlpha" result="effect1_dropShadow_6839_89122"/>
<feOffset dy="2"/>
<feGaussianBlur stdDeviation="2"/>
<feColorMatrix type="matrix" values="0 0 0 0 0.25098 0 0 0 0 0.341176 0 0 0 0 0.427451 0 0 0 0.3 0"/>
<feBlend mode="normal" in2="BackgroundImageFix" result="effect1_dropShadow_6839_89122"/>
<feColorMatrix in="SourceAlpha" type="matrix" values="0 0 0 0 0 0 0 0 0 0 0 0 0 0 0 0 0 0 127 0" result="hardAlpha"/>
<feMorphology radius="1" operator="dilate" in="SourceAlpha" result="effect2_dropShadow_6839_89122"/>
<feOffset/>
<feColorMatrix type="matrix" values="0 0 0 0 0.25098 0 0 0 0 0.341176 0 0 0 0 0.427451 0 0 0 0.04 0"/>
<feBlend mode="normal" in2="effect1_dropShadow_6839_89122" result="effect2_dropShadow_6839_89122"/>
<feBlend mode="normal" in="SourceGraphic" in2="effect2_dropShadow_6839_89122" result="shape"/>
</filter>
<filter id="filter4_dd_6839_89122" x="24.3618" y="134.982" width="24.1787" height="24.1787" filterUnits="userSpaceOnUse" color-interpolation-filters="sRGB">
<feFlood flood-opacity="0" result="BackgroundImageFix"/>
<feColorMatrix in="SourceAlpha" type="matrix" values="0 0 0 0 0 0 0 0 0 0 0 0 0 0 0 0 0 0 127 0" result="hardAlpha"/>
<feMorphology radius="1" operator="erode" in="SourceAlpha" result="effect1_dropShadow_6839_89122"/>
<feOffset dy="2"/>
<feGaussianBlur stdDeviation="2"/>
<feColorMatrix type="matrix" values="0 0 0 0 0.25098 0 0 0 0 0.341176 0 0 0 0 0.427451 0 0 0 0.3 0"/>
<feBlend mode="normal" in2="BackgroundImageFix" result="effect1_dropShadow_6839_89122"/>
<feColorMatrix in="SourceAlpha" type="matrix" values="0 0 0 0 0 0 0 0 0 0 0 0 0 0 0 0 0 0 127 0" result="hardAlpha"/>
<feMorphology radius="1" operator="dilate" in="SourceAlpha" result="effect2_dropShadow_6839_89122"/>
<feOffset/>
<feColorMatrix type="matrix" values="0 0 0 0 0.25098 0 0 0 0 0.341176 0 0 0 0 0.427451 0 0 0 0.04 0"/>
<feBlend mode="normal" in2="effect1_dropShadow_6839_89122" result="effect2_dropShadow_6839_89122"/>
<feBlend mode="normal" in="SourceGraphic" in2="effect2_dropShadow_6839_89122" result="shape"/>
</filter>
<filter id="filter5_dd_6839_89122" x="52.3575" y="46.6761" width="223.256" height="395.385" filterUnits="userSpaceOnUse" color-interpolation-filters="sRGB">
<feFlood flood-opacity="0" result="BackgroundImageFix"/>
<feColorMatrix in="SourceAlpha" type="matrix" values="0 0 0 0 0 0 0 0 0 0 0 0 0 0 0 0 0 0 127 0" result="hardAlpha"/>
<feMorphology radius="2.27233" operator="erode" in="SourceAlpha" result="effect1_dropShadow_6839_89122"/>
<feOffset dy="3.40849"/>
<feGaussianBlur stdDeviation="5.68082"/>
<feColorMatrix type="matrix" values="0 0 0 0 0.25098 0 0 0 0 0.341176 0 0 0 0 0.427451 0 0 0 0.3 0"/>
<feBlend mode="normal" in2="BackgroundImageFix" result="effect1_dropShadow_6839_89122"/>
<feColorMatrix in="SourceAlpha" type="matrix" values="0 0 0 0 0 0 0 0 0 0 0 0 0 0 0 0 0 0 127 0" result="hardAlpha"/>
<feMorphology radius="0.568082" operator="dilate" in="SourceAlpha" result="effect2_dropShadow_6839_89122"/>
<feOffset/>
<feColorMatrix type="matrix" values="0 0 0 0 0.25098 0 0 0 0 0.341176 0 0 0 0 0.427451 0 0 0 0.04 0"/>
<feBlend mode="normal" in2="effect1_dropShadow_6839_89122" result="effect2_dropShadow_6839_89122"/>
<feBlend mode="normal" in="SourceGraphic" in2="effect2_dropShadow_6839_89122" result="shape"/>
</filter>
<linearGradient id="paint0_linear_6839_89122" x1="16" y1="47.8126" x2="792" y2="47.8126" gradientUnits="userSpaceOnUse">
<stop stop-color="#00C4CC"/>
<stop offset="1" stop-color="#7D2AE8"/>
</linearGradient>
<clipPath id="clip0_6839_89122">
<rect x="16" y="16" width="776" height="441.968" rx="6.81698" fill="white"/>
</clipPath>
<clipPath id="clip1_6839_89122">
<rect width="776" height="31.8126" fill="white" transform="translate(16 16)"/>
</clipPath>
<clipPath id="clip2_6839_89122">
<rect width="350.824" height="22.7233" fill="white" transform="translate(20.5444 20.5444)"/>
</clipPath>
<clipPath id="clip3_6839_89122">
<rect width="326.079" height="273.816" fill="white" transform="translate(261.412 102.348)"/>
</clipPath>
<clipPath id="clip4_6839_89122">
<rect width="40.9019" height="369.253" fill="white" transform="translate(16 47.8125)"/>
</clipPath>
<clipPath id="clip5_6839_89122">
<path d="M61.4468 59.1739C61.4468 55.409 64.4988 52.3569 68.2638 52.3569H259.707C263.472 52.3569 266.524 55.409 266.524 59.1739V422.746C266.524 426.511 263.472 429.563 259.707 429.563H68.2638C64.4988 429.563 61.4468 426.511 61.4468 422.746V59.1739Z" fill="white"/>
</clipPath>
</defs>
</svg>
