<svg width="328" height="152" viewBox="0 0 328 152" fill="none" xmlns="http://www.w3.org/2000/svg">
<rect width="328" height="152" fill="#40576D" fill-opacity="0.07"/>
<g filter="url(#filter0_dd_6839_89099)">
<g clip-path="url(#clip0_6839_89099)">
<rect x="16" y="16" width="495" height="449" rx="6.92428" fill="#F6F7F8"/>
<g clip-path="url(#clip1_6839_89099)">
<rect x="16" y="16" width="495.086" height="32.3133" fill="url(#paint0_linear_6839_89099)"/>
<g clip-path="url(#clip2_6839_89099)">
<path fill-rule="evenodd" clip-rule="evenodd" d="M27.5406 28.5504C27.5406 28.3114 27.7343 28.1177 27.9734 28.1177H36.3402C36.5792 28.1177 36.773 28.3114 36.773 28.5504C36.773 28.7895 36.5792 28.9832 36.3402 28.9832H27.9734C27.7343 28.9832 27.5406 28.7895 27.5406 28.5504ZM27.5405 32.0124C27.5405 31.7734 27.7343 31.5796 27.9733 31.5796H36.3401C36.5791 31.5796 36.7729 31.7734 36.7729 32.0124C36.7729 32.2514 36.5791 32.4452 36.3401 32.4452H27.9733C27.7343 32.4452 27.5405 32.2514 27.5405 32.0124ZM27.9733 35.0418C27.7343 35.0418 27.5405 35.2355 27.5405 35.4745C27.5405 35.7136 27.7343 35.9073 27.9733 35.9073H36.3401C36.5791 35.9073 36.7729 35.7136 36.7729 35.4745C36.7729 35.2355 36.5791 35.0418 36.3401 35.0418H27.9733Z" fill="white"/>
<path d="M62.3794 28.8899V29.6472H59.7642V31.4578H62.127V32.2112H59.7642V34.6567H58.857V28.8899H62.3794ZM63.7955 29.6236C63.6298 29.6236 63.4944 29.5723 63.3892 29.4697C63.284 29.3672 63.2314 29.2357 63.2314 29.0753C63.2314 28.9175 63.284 28.7873 63.3892 28.6848C63.4944 28.5822 63.6298 28.5309 63.7955 28.5309C63.9612 28.5309 64.0966 28.5822 64.2018 28.6848C64.3096 28.7873 64.3635 28.9175 64.3635 29.0753C64.3635 29.2357 64.3109 29.3672 64.2057 29.4697C64.1005 29.5723 63.9638 29.6236 63.7955 29.6236ZM63.3616 34.6567V30.306H64.2294V34.6567H63.3616ZM66.6947 34.7396C66.345 34.7396 66.0741 34.6436 65.8821 34.4516C65.6902 34.257 65.5942 33.9651 65.5942 33.5759V28.5585H66.462V33.5326C66.462 33.693 66.4935 33.8087 66.5566 33.8797C66.6198 33.9507 66.7157 33.9862 66.8446 33.9862C66.9182 33.9862 66.9971 33.9743 67.0813 33.9507L67.1365 33.9665L67.2233 34.637C67.168 34.6712 67.0931 34.6962 66.9984 34.712C66.9064 34.7304 66.8051 34.7396 66.6947 34.7396ZM71.5859 32.6766H68.6906C68.7406 33.5496 69.1455 33.9862 69.9055 33.9862C70.1869 33.9862 70.413 33.9362 70.584 33.8363C70.7575 33.7337 70.8943 33.5759 70.9942 33.3629H71.077L71.649 33.7179C71.5149 34.0282 71.3058 34.2768 71.0218 34.4635C70.7404 34.6475 70.3683 34.7396 69.9055 34.7396C69.4716 34.7396 69.0969 34.6554 68.7813 34.4871C68.4658 34.3188 68.2225 34.0664 68.0516 33.7298C67.8807 33.3932 67.7952 32.9777 67.7952 32.4833C67.7952 31.9889 67.8846 31.5721 68.0634 31.2329C68.2423 30.8937 68.4868 30.6412 68.7971 30.4756C69.1074 30.3073 69.4572 30.2231 69.8464 30.2231C70.4328 30.2231 70.8851 30.3835 71.2033 30.7044C71.5241 31.0252 71.6858 31.4972 71.6884 32.1204C71.6884 32.3545 71.6819 32.5241 71.6687 32.6293L71.5859 32.6766ZM70.8483 32.0573C70.8377 31.6602 70.747 31.371 70.5761 31.1895C70.4078 31.0081 70.1645 30.9174 69.8464 30.9174C69.5255 30.9174 69.2678 31.0081 69.0732 31.1895C68.8813 31.371 68.7603 31.6602 68.7103 32.0573H70.8483Z" fill="white"/>
<path fill-rule="evenodd" clip-rule="evenodd" d="M103.14 27.3134C103.816 27.9894 103.816 29.0855 103.14 29.7615L97.2445 35.6566C96.8933 36.0078 96.4707 36.2793 96.0053 36.4527L93.6965 37.3131C93.4726 37.3965 93.2234 37.2826 93.1399 37.0587C93.1036 36.9612 93.1036 36.8539 93.1399 36.7564L94.0003 34.4477C94.1737 33.9823 94.4452 33.5597 94.7964 33.2085L100.691 27.3134C101.368 26.6374 102.464 26.6374 103.14 27.3134ZM95.7031 35.6416C96.0195 35.5237 96.3095 35.3454 96.5572 35.1168L95.3361 33.8958C95.1076 34.1434 94.9292 34.4335 94.8113 34.7499L94.5303 35.5039L94.9491 35.9226L95.7031 35.6416ZM101.437 30.2401L97.1707 34.5063L95.9467 33.2822L100.213 29.0161L101.437 30.2401ZM102.049 29.6281L102.528 29.1495C102.866 28.8114 102.866 28.2634 102.528 27.9254C102.19 27.5874 101.642 27.5874 101.303 27.9254L100.825 28.404L102.049 29.6281Z" fill="white"/>
<path d="M111.425 32.0297V33.8994H114.273V34.6567H110.517V28.8899H114.209V29.6472H111.425V31.2842H113.87V32.0297H111.425ZM116.825 34.7396C116.478 34.7396 116.17 34.6567 115.902 34.4911C115.636 34.3228 115.428 34.0703 115.278 33.7337C115.129 33.3971 115.054 32.9803 115.054 32.4833C115.054 31.9863 115.131 31.5695 115.286 31.2329C115.444 30.8937 115.66 30.6412 115.933 30.4756C116.209 30.3073 116.528 30.2231 116.888 30.2231C117.169 30.2231 117.418 30.2744 117.633 30.377C117.849 30.4769 118.032 30.6386 118.182 30.8621L118.264 30.8424V28.5585H119.132V34.6567H118.264V34.0572L118.182 34.0414C118.047 34.2518 117.867 34.4214 117.641 34.5502C117.415 34.6765 117.143 34.7396 116.825 34.7396ZM117.101 33.9862C117.458 33.9862 117.742 33.8626 117.953 33.6154C118.163 33.3656 118.268 32.9882 118.268 32.4833C118.268 31.9732 118.163 31.5945 117.953 31.3473C117.742 31.0975 117.458 30.9726 117.101 30.9726C116.336 30.9726 115.953 31.4762 115.953 32.4833C115.953 33.4852 116.336 33.9862 117.101 33.9862ZM120.955 29.6236C120.789 29.6236 120.653 29.5723 120.548 29.4697C120.443 29.3672 120.391 29.2357 120.391 29.0753C120.391 28.9175 120.443 28.7873 120.548 28.6848C120.653 28.5822 120.789 28.5309 120.955 28.5309C121.12 28.5309 121.256 28.5822 121.361 28.6848C121.469 28.7873 121.523 28.9175 121.523 29.0753C121.523 29.2357 121.47 29.3672 121.365 29.4697C121.26 29.5723 121.123 29.6236 120.955 29.6236ZM120.521 34.6567V30.306H121.388V34.6567H120.521ZM125.057 33.7929L125.301 34.428C125.191 34.5279 125.049 34.6041 124.875 34.6567C124.702 34.712 124.51 34.7396 124.299 34.7396C123.863 34.7396 123.53 34.6239 123.302 34.3925C123.073 34.161 122.958 33.8152 122.958 33.3551V31.0002H122.248V30.302H122.958V29.4184L123.826 29.2764V30.302H125.144V31.0002H123.826V33.2841C123.826 33.526 123.876 33.7009 123.976 33.8087C124.079 33.9165 124.225 33.9704 124.414 33.9704C124.627 33.9704 124.814 33.9112 124.974 33.7929H125.057ZM126.564 29.6236C126.398 29.6236 126.263 29.5723 126.157 29.4697C126.052 29.3672 126 29.2357 126 29.0753C126 28.9175 126.052 28.7873 126.157 28.6848C126.263 28.5822 126.398 28.5309 126.564 28.5309C126.729 28.5309 126.865 28.5822 126.97 28.6848C127.078 28.7873 127.132 28.9175 127.132 29.0753C127.132 29.2357 127.079 29.3672 126.974 29.4697C126.869 29.5723 126.732 29.6236 126.564 29.6236ZM126.13 34.6567V30.306H126.998V34.6567H126.13ZM128.386 34.6567V30.306H129.214V30.9647L129.297 30.9844C129.437 30.7346 129.617 30.5453 129.838 30.4164C130.058 30.2876 130.328 30.2231 130.646 30.2231C131.159 30.2231 131.532 30.3586 131.766 30.6294C132.003 30.8976 132.121 31.3013 132.121 31.8404V34.6567H131.254V31.9153C131.254 31.5761 131.187 31.3328 131.052 31.1856C130.918 31.0383 130.703 30.9647 130.406 30.9647C130.051 30.9647 129.769 31.0804 129.561 31.3118C129.356 31.5432 129.254 31.9101 129.254 32.4123V34.6567H128.386ZM134.997 36.5028C134.295 36.5028 133.779 36.3923 133.451 36.1714C133.122 35.9532 132.958 35.656 132.958 35.28C132.958 35.0433 133.031 34.8513 133.179 34.7041C133.326 34.5568 133.538 34.4556 133.814 34.4003V34.3175C133.674 34.236 133.572 34.1426 133.506 34.0375C133.44 33.9296 133.407 33.8047 133.407 33.6627C133.407 33.3235 133.627 33.0973 134.066 32.9843V32.9014C133.593 32.6411 133.356 32.2348 133.356 31.6826C133.356 31.396 133.422 31.1422 133.553 30.9213C133.685 30.7004 133.874 30.5295 134.121 30.4085C134.368 30.2849 134.662 30.2231 135.001 30.2231C135.364 30.2231 135.661 30.2941 135.892 30.4361C136.045 30.2468 136.133 30.0141 136.157 29.738L136.239 29.6867L136.894 29.8445C136.871 30.0575 136.807 30.2389 136.705 30.3888C136.602 30.5361 136.451 30.661 136.251 30.7635V30.8503C136.512 31.0633 136.642 31.3644 136.642 31.7536C136.642 32.0244 136.575 32.269 136.441 32.4873C136.309 32.7029 136.119 32.8725 135.869 32.9961C135.622 33.1197 135.332 33.1815 135.001 33.1815C134.972 33.1815 134.91 33.1789 134.816 33.1736C134.71 33.1683 134.635 33.1657 134.591 33.1657C134.472 33.1657 134.379 33.1973 134.311 33.2604C134.242 33.3235 134.208 33.4037 134.208 33.501C134.208 33.6141 134.248 33.6995 134.326 33.7574C134.408 33.8152 134.535 33.8481 134.709 33.856L135.711 33.8915C136.629 33.9204 137.088 34.3149 137.088 35.0749C137.088 35.3457 137.017 35.5876 136.875 35.8006C136.733 36.0163 136.505 36.1872 136.192 36.3134C135.882 36.4397 135.483 36.5028 134.997 36.5028ZM135.001 32.5228C135.259 32.5228 135.458 32.4518 135.6 32.3098C135.745 32.1678 135.817 31.9666 135.817 31.7063C135.817 31.4433 135.746 31.2408 135.604 31.0988C135.462 30.9542 135.261 30.8819 135.001 30.8819C134.738 30.8819 134.537 30.9529 134.397 31.0949C134.258 31.2369 134.188 31.4407 134.188 31.7063C134.188 31.9666 134.258 32.1678 134.397 32.3098C134.537 32.4518 134.738 32.5228 135.001 32.5228ZM134.997 35.8322C135.42 35.8322 135.728 35.7678 135.92 35.6389C136.115 35.5127 136.212 35.3523 136.212 35.1577C136.212 34.992 136.162 34.8724 136.062 34.7987C135.965 34.7251 135.799 34.683 135.565 34.6725L134.65 34.6252L134.504 34.6212C134.27 34.6239 134.096 34.6725 133.983 34.7672C133.87 34.8645 133.814 34.9973 133.814 35.1656C133.814 35.3838 133.912 35.5495 134.109 35.6626C134.307 35.7757 134.603 35.8322 134.997 35.8322Z" fill="white"/>
<path d="M151.545 30.5553L149.118 32.9827C149.061 33.0391 148.97 33.0392 148.914 32.9831L146.49 30.5542C146.322 30.3858 146.048 30.3863 145.879 30.5553C145.71 30.7243 145.71 30.9978 145.878 31.1662L148.302 33.5952C148.695 33.988 149.333 33.9868 149.727 33.5924L152.155 31.165C152.324 30.996 152.324 30.7225 152.156 30.5542C151.988 30.3858 151.714 30.3863 151.545 30.5553Z" fill="white"/>
<rect x="165.172" y="25.2324" width="0.577024" height="13.8486" fill="white" fill-opacity="0.15"/>
<path fill-rule="evenodd" clip-rule="evenodd" d="M178.486 30.2811L179.782 31.5774C179.951 31.7464 179.951 32.0204 179.782 32.1894C179.613 32.3584 179.339 32.3584 179.17 32.1894L177.536 30.5556C177.142 30.1613 177.142 29.5219 177.536 29.1276L179.141 27.5228C179.31 27.3537 179.584 27.3537 179.753 27.5228C179.922 27.6918 179.922 27.9658 179.753 28.1348L178.472 29.4156H184.214C186.046 29.4156 187.532 30.901 187.532 32.7335C187.532 34.5659 186.046 36.0513 184.214 36.0513H181.906C181.667 36.0513 181.473 35.8576 181.473 35.6186C181.473 35.3796 181.667 35.1858 181.906 35.1858H184.214C185.568 35.1858 186.666 34.0879 186.666 32.7335C186.666 31.3791 185.568 30.2811 184.214 30.2811H178.486Z" fill="white"/>
<path fill-rule="evenodd" clip-rule="evenodd" d="M213.984 30.2811L212.687 31.5774C212.518 31.7464 212.518 32.0204 212.687 32.1894C212.856 32.3584 213.13 32.3584 213.299 32.1894L214.933 30.5556C215.328 30.1613 215.328 29.5219 214.933 29.1276L213.328 27.5228C213.159 27.3537 212.885 27.3537 212.716 27.5228C212.547 27.6918 212.547 27.9658 212.716 28.1348L213.997 29.4156H208.255C206.423 29.4156 204.937 30.901 204.937 32.7335C204.937 34.5659 206.423 36.0513 208.255 36.0513H210.563C210.802 36.0513 210.996 35.8576 210.996 35.6186C210.996 35.3796 210.802 35.1858 210.563 35.1858H208.255C206.901 35.1858 205.803 34.0879 205.803 32.7335C205.803 31.3791 206.901 30.2811 208.255 30.2811H213.984Z" fill="white" fill-opacity="0.4"/>
</g>
</g>
<path d="M121.626 86.5925C122.031 86.5925 122.378 86.6662 122.667 86.8134C122.956 86.9607 123.175 87.1684 123.322 87.4366C123.472 87.7022 123.547 88.0152 123.547 88.3754C123.547 88.7331 123.472 89.046 123.322 89.3142C123.175 89.5798 122.956 89.7862 122.667 89.9335C122.378 90.0808 122.031 90.1544 121.626 90.1544H120.387V92.3594H119.48V86.5925H121.626ZM121.539 89.4128C122.257 89.4128 122.616 89.067 122.616 88.3754C122.616 87.6786 122.257 87.3301 121.539 87.3301H120.387V89.4128H121.539ZM125.472 92.4422C125.046 92.4422 124.712 92.3291 124.47 92.103C124.228 91.8742 124.107 91.5508 124.107 91.1326C124.107 90.8749 124.161 90.658 124.269 90.4818C124.376 90.3056 124.545 90.1623 124.774 90.0518C125.002 89.9388 125.299 89.852 125.665 89.7915C125.952 89.7442 126.17 89.6916 126.32 89.6337C126.47 89.5759 126.571 89.5114 126.624 89.4404C126.676 89.3668 126.702 89.2748 126.702 89.1643C126.702 88.996 126.643 88.8672 126.525 88.7778C126.409 88.6884 126.22 88.6437 125.957 88.6437C125.46 88.6437 125.038 88.8501 124.691 89.2629H124.612L124.225 88.6949C124.428 88.4556 124.679 88.2676 124.979 88.1309C125.281 87.9941 125.616 87.9258 125.985 87.9258C126.529 87.9258 126.926 88.0428 127.176 88.2768C127.428 88.5109 127.554 88.8396 127.554 89.2629V91.3614C127.554 91.5797 127.648 91.6888 127.834 91.6888C127.903 91.6888 127.969 91.677 128.032 91.6533L128.087 91.6691L128.162 92.2726C128.109 92.3094 128.036 92.3383 127.941 92.3594C127.849 92.3804 127.75 92.3909 127.645 92.3909C127.395 92.3909 127.203 92.3397 127.069 92.2371C126.938 92.1345 126.847 91.9781 126.797 91.7677L126.714 91.7598C126.599 91.9886 126.438 92.1595 126.233 92.2726C126.031 92.3857 125.777 92.4422 125.472 92.4422ZM125.716 91.7756C125.919 91.7756 126.096 91.7296 126.249 91.6375C126.401 91.5429 126.518 91.4088 126.6 91.2352C126.681 91.0616 126.722 90.8578 126.722 90.6238V90.1268L126.647 90.111C126.566 90.1715 126.463 90.2228 126.34 90.2648C126.219 90.3043 126.045 90.3424 125.819 90.3792C125.514 90.4239 125.297 90.5041 125.168 90.6199C125.042 90.7329 124.979 90.8933 124.979 91.1011C124.979 91.322 125.043 91.4903 125.172 91.606C125.301 91.7191 125.482 91.7756 125.716 91.7756ZM130.517 94.2054C129.815 94.2054 129.299 94.095 128.971 93.8741C128.642 93.6558 128.477 93.3586 128.477 92.9826C128.477 92.7459 128.551 92.554 128.698 92.4067C128.846 92.2594 129.057 92.1582 129.333 92.103V92.0201C129.194 91.9386 129.091 91.8453 129.026 91.7401C128.96 91.6323 128.927 91.5074 128.927 91.3654C128.927 91.0261 129.147 90.8 129.586 90.6869V90.6041C129.113 90.3437 128.876 89.9375 128.876 89.3852C128.876 89.0986 128.942 88.8448 129.073 88.6239C129.205 88.403 129.394 88.2321 129.641 88.1112C129.888 87.9876 130.181 87.9258 130.521 87.9258C130.884 87.9258 131.181 87.9968 131.412 88.1388C131.565 87.9494 131.653 87.7167 131.676 87.4406L131.759 87.3893L132.414 87.5471C132.39 87.7601 132.327 87.9415 132.225 88.0914C132.122 88.2387 131.971 88.3636 131.771 88.4662V88.5529C132.031 88.7659 132.162 89.067 132.162 89.4562C132.162 89.7271 132.095 89.9716 131.96 90.1899C131.829 90.4055 131.638 90.5751 131.388 90.6987C131.141 90.8223 130.852 90.8841 130.521 90.8841C130.492 90.8841 130.43 90.8815 130.335 90.8762C130.23 90.871 130.155 90.8684 130.11 90.8684C129.992 90.8684 129.899 90.8999 129.83 90.963C129.762 91.0261 129.728 91.1063 129.728 91.2036C129.728 91.3167 129.767 91.4022 129.846 91.46C129.928 91.5179 130.055 91.5508 130.229 91.5586L131.231 91.5941C132.148 91.6231 132.607 92.0175 132.607 92.7775C132.607 93.0483 132.536 93.2903 132.394 93.5033C132.252 93.7189 132.025 93.8898 131.712 94.0161C131.402 94.1423 131.003 94.2054 130.517 94.2054ZM130.521 90.2254C130.778 90.2254 130.978 90.1544 131.12 90.0124C131.265 89.8704 131.337 89.6692 131.337 89.4089C131.337 89.1459 131.266 88.9434 131.124 88.8014C130.982 88.6568 130.781 88.5845 130.521 88.5845C130.258 88.5845 130.057 88.6555 129.917 88.7975C129.778 88.9395 129.708 89.1433 129.708 89.4089C129.708 89.6692 129.778 89.8704 129.917 90.0124C130.057 90.1544 130.258 90.2254 130.521 90.2254ZM130.517 93.5348C130.94 93.5348 131.248 93.4704 131.44 93.3416C131.634 93.2153 131.732 93.0549 131.732 92.8603C131.732 92.6947 131.682 92.575 131.582 92.5014C131.484 92.4277 131.319 92.3857 131.085 92.3752L130.17 92.3278L130.024 92.3239C129.79 92.3265 129.616 92.3752 129.503 92.4698C129.39 92.5671 129.333 92.6999 129.333 92.8682C129.333 93.0865 129.432 93.2521 129.629 93.3652C129.826 93.4783 130.122 93.5348 130.517 93.5348ZM136.919 90.3792H134.023C134.073 91.2523 134.478 91.6888 135.238 91.6888C135.52 91.6888 135.746 91.6388 135.917 91.5389C136.09 91.4364 136.227 91.2786 136.327 91.0656H136.41L136.982 91.4206C136.848 91.7309 136.639 91.9794 136.355 92.1661C136.073 92.3502 135.701 92.4422 135.238 92.4422C134.804 92.4422 134.43 92.3581 134.114 92.1898C133.799 92.0215 133.555 91.769 133.384 91.4324C133.213 91.0958 133.128 90.6803 133.128 90.186C133.128 89.6916 133.217 89.2748 133.396 88.9356C133.575 88.5963 133.82 88.3439 134.13 88.1782C134.44 88.0099 134.79 87.9258 135.179 87.9258C135.766 87.9258 136.218 88.0862 136.536 88.407C136.857 88.7278 137.019 89.1998 137.021 89.8231C137.021 90.0571 137.015 90.2267 137.002 90.3319L136.919 90.3792ZM136.181 89.76C136.171 89.3629 136.08 89.0736 135.909 88.8922C135.741 88.7107 135.497 88.62 135.179 88.62C134.858 88.62 134.601 88.7107 134.406 88.8922C134.214 89.0736 134.093 89.3629 134.043 89.76H136.181ZM139.688 92.3594V91.606H141.171V87.6063L141.08 87.5826C140.857 87.693 140.649 87.7785 140.457 87.839C140.268 87.8995 140.035 87.9547 139.759 88.0047V87.2039C140.406 87.0672 140.942 86.8634 141.368 86.5925H142.066V91.606H143.392V92.3594H139.688ZM148.271 89.9414H145.94V89.1722H148.271V89.9414Z" fill="#0E1318"/>
<path d="M156.34 92.3594H155.378L154.892 90.9039H152.557L152.076 92.3594H151.133L153.137 86.5925H154.336L156.34 92.3594ZM153.674 87.5431L152.814 90.1386H154.636L153.772 87.5431H153.674ZM158.703 92.4422C158.356 92.4422 158.048 92.3594 157.78 92.1937C157.514 92.0254 157.307 91.773 157.157 91.4364C157.007 91.0998 156.932 90.683 156.932 90.186C156.932 89.689 157.009 89.2721 157.165 88.9356C157.322 88.5963 157.538 88.3439 157.811 88.1782C158.088 88.0099 158.406 87.9258 158.766 87.9258C159.047 87.9258 159.296 87.977 159.511 88.0796C159.727 88.1795 159.91 88.3412 160.06 88.5648L160.143 88.545V86.2612H161.01V92.3594H160.143V91.7598L160.06 91.744C159.926 91.9544 159.746 92.124 159.519 92.2529C159.293 92.3791 159.021 92.4422 158.703 92.4422ZM158.979 91.6888C159.337 91.6888 159.621 91.5652 159.831 91.318C160.041 91.0682 160.147 90.6909 160.147 90.186C160.147 89.6758 160.041 89.2971 159.831 89.0499C159.621 88.8001 159.337 88.6752 158.979 88.6752C158.214 88.6752 157.831 89.1788 157.831 90.186C157.831 91.1879 158.214 91.6888 158.979 91.6888ZM163.91 92.4422C163.562 92.4422 163.255 92.3594 162.987 92.1937C162.721 92.0254 162.513 91.773 162.363 91.4364C162.213 91.0998 162.139 90.683 162.139 90.186C162.139 89.689 162.216 89.2721 162.371 88.9356C162.529 88.5963 162.745 88.3439 163.018 88.1782C163.294 88.0099 163.612 87.9258 163.973 87.9258C164.254 87.9258 164.503 87.977 164.718 88.0796C164.934 88.1795 165.117 88.3412 165.266 88.5648L165.349 88.545V86.2612H166.217V92.3594H165.349V91.7598L165.266 91.744C165.132 91.9544 164.952 92.124 164.726 92.2529C164.5 92.3791 164.228 92.4422 163.91 92.4422ZM164.186 91.6888C164.543 91.6888 164.827 91.5652 165.038 91.318C165.248 91.0682 165.353 90.6909 165.353 90.186C165.353 89.6758 165.248 89.2971 165.038 89.0499C164.827 88.8001 164.543 88.6752 164.186 88.6752C163.42 88.6752 163.038 89.1788 163.038 90.186C163.038 91.1879 163.42 91.6888 164.186 91.6888ZM169.554 94.1226V88.0086H170.422V88.616L170.505 88.6318C170.652 88.3925 170.84 88.215 171.069 88.0993C171.298 87.9836 171.559 87.9258 171.854 87.9258C172.211 87.9258 172.523 88.0086 172.789 88.1743C173.054 88.3399 173.261 88.5924 173.408 88.9316C173.555 89.2682 173.629 89.6863 173.629 90.186C173.629 90.683 173.55 91.0998 173.392 91.4364C173.237 91.773 173.021 92.0254 172.745 92.1937C172.472 92.3594 172.155 92.4422 171.795 92.4422C171.513 92.4422 171.266 92.3936 171.053 92.2963C170.84 92.199 170.657 92.0438 170.505 91.8308L170.422 91.8466V94.1226H169.554ZM171.57 91.6888C171.946 91.6888 172.232 91.5692 172.43 91.3299C172.63 91.0879 172.729 90.7066 172.729 90.186C172.729 89.6627 172.63 89.28 172.43 89.0381C172.232 88.7962 171.946 88.6752 171.57 88.6752C171.22 88.6752 170.94 88.8001 170.73 89.0499C170.519 89.2998 170.414 89.6784 170.414 90.186C170.414 90.6909 170.519 91.0682 170.73 91.318C170.94 91.5652 171.22 91.6888 171.57 91.6888ZM175.814 92.4422C175.388 92.4422 175.054 92.3291 174.812 92.103C174.57 91.8742 174.449 91.5508 174.449 91.1326C174.449 90.8749 174.503 90.658 174.611 90.4818C174.719 90.3056 174.887 90.1623 175.116 90.0518C175.345 89.9388 175.642 89.852 176.007 89.7915C176.294 89.7442 176.512 89.6916 176.662 89.6337C176.812 89.5759 176.913 89.5114 176.966 89.4404C177.018 89.3668 177.045 89.2748 177.045 89.1643C177.045 88.996 176.986 88.8672 176.867 88.7778C176.752 88.6884 176.562 88.6437 176.299 88.6437C175.802 88.6437 175.38 88.8501 175.033 89.2629H174.954L174.568 88.6949C174.77 88.4556 175.021 88.2676 175.321 88.1309C175.623 87.9941 175.959 87.9258 176.327 87.9258C176.871 87.9258 177.268 88.0428 177.518 88.2768C177.771 88.5109 177.897 88.8396 177.897 89.2629V91.3614C177.897 91.5797 177.99 91.6888 178.177 91.6888C178.245 91.6888 178.311 91.677 178.374 91.6533L178.429 91.6691L178.504 92.2726C178.452 92.3094 178.378 92.3383 178.283 92.3594C178.191 92.3804 178.093 92.3909 177.987 92.3909C177.738 92.3909 177.546 92.3397 177.412 92.2371C177.28 92.1345 177.189 91.9781 177.139 91.7677L177.057 91.7598C176.941 91.9886 176.78 92.1595 176.575 92.2726C176.373 92.3857 176.119 92.4422 175.814 92.4422ZM176.059 91.7756C176.261 91.7756 176.439 91.7296 176.591 91.6375C176.744 91.5429 176.861 91.4088 176.942 91.2352C177.024 91.0616 177.064 90.8578 177.064 90.6238V90.1268L176.99 90.111C176.908 90.1715 176.805 90.2228 176.682 90.2648C176.561 90.3043 176.387 90.3424 176.161 90.3792C175.856 90.4239 175.639 90.5041 175.51 90.6199C175.384 90.7329 175.321 90.8933 175.321 91.1011C175.321 91.322 175.385 91.4903 175.514 91.606C175.643 91.7191 175.825 91.7756 176.059 91.7756ZM180.859 94.2054C180.157 94.2054 179.642 94.095 179.313 93.8741C178.984 93.6558 178.82 93.3586 178.82 92.9826C178.82 92.7459 178.893 92.554 179.041 92.4067C179.188 92.2594 179.4 92.1582 179.676 92.103V92.0201C179.536 91.9386 179.434 91.8453 179.368 91.7401C179.302 91.6323 179.269 91.5074 179.269 91.3654C179.269 91.0261 179.489 90.8 179.928 90.6869V90.6041C179.455 90.3437 179.218 89.9375 179.218 89.3852C179.218 89.0986 179.284 88.8448 179.415 88.6239C179.547 88.403 179.736 88.2321 179.983 88.1112C180.231 87.9876 180.524 87.9258 180.863 87.9258C181.226 87.9258 181.523 87.9968 181.754 88.1388C181.907 87.9494 181.995 87.7167 182.019 87.4406L182.102 87.3893L182.756 87.5471C182.733 87.7601 182.67 87.9415 182.567 88.0914C182.465 88.2387 182.313 88.3636 182.113 88.4662V88.5529C182.374 88.7659 182.504 89.067 182.504 89.4562C182.504 89.7271 182.437 89.9716 182.303 90.1899C182.171 90.4055 181.981 90.5751 181.731 90.6987C181.484 90.8223 181.194 90.8841 180.863 90.8841C180.834 90.8841 180.772 90.8815 180.678 90.8762C180.572 90.871 180.498 90.8684 180.453 90.8684C180.334 90.8684 180.241 90.8999 180.173 90.963C180.104 91.0261 180.07 91.1063 180.07 91.2036C180.07 91.3167 180.11 91.4022 180.189 91.46C180.27 91.5179 180.398 91.5508 180.571 91.5586L181.573 91.5941C182.491 91.6231 182.95 92.0175 182.95 92.7775C182.95 93.0483 182.879 93.2903 182.737 93.5033C182.595 93.7189 182.367 93.8898 182.054 94.0161C181.744 94.1423 181.346 94.2054 180.859 94.2054ZM180.863 90.2254C181.121 90.2254 181.321 90.1544 181.463 90.0124C181.607 89.8704 181.68 89.6692 181.68 89.4089C181.68 89.1459 181.609 88.9434 181.467 88.8014C181.325 88.6568 181.123 88.5845 180.863 88.5845C180.6 88.5845 180.399 88.6555 180.26 88.7975C180.12 88.9395 180.05 89.1433 180.05 89.4089C180.05 89.6692 180.12 89.8704 180.26 90.0124C180.399 90.1544 180.6 90.2254 180.863 90.2254ZM180.859 93.5348C181.282 93.5348 181.59 93.4704 181.782 93.3416C181.977 93.2153 182.074 93.0549 182.074 92.8603C182.074 92.6947 182.024 92.575 181.924 92.5014C181.827 92.4277 181.661 92.3857 181.427 92.3752L180.512 92.3278L180.366 92.3239C180.132 92.3265 179.958 92.3752 179.845 92.4698C179.732 92.5671 179.676 92.6999 179.676 92.8682C179.676 93.0865 179.774 93.2521 179.972 93.3652C180.169 93.4783 180.465 93.5348 180.859 93.5348ZM187.261 90.3792H184.366C184.416 91.2523 184.821 91.6888 185.581 91.6888C185.862 91.6888 186.088 91.6388 186.259 91.5389C186.433 91.4364 186.569 91.2786 186.669 91.0656H186.752L187.324 91.4206C187.19 91.7309 186.981 91.9794 186.697 92.1661C186.416 92.3502 186.043 92.4422 185.581 92.4422C185.147 92.4422 184.772 92.3581 184.456 92.1898C184.141 92.0215 183.898 91.769 183.727 91.4324C183.556 91.0958 183.47 90.6803 183.47 90.186C183.47 89.6916 183.56 89.2748 183.739 88.9356C183.917 88.5963 184.162 88.3439 184.472 88.1782C184.783 88.0099 185.132 87.9258 185.521 87.9258C186.108 87.9258 186.56 88.0862 186.878 88.407C187.199 88.7278 187.361 89.1998 187.364 89.8231C187.364 90.0571 187.357 90.2267 187.344 90.3319L187.261 90.3792ZM186.523 89.76C186.513 89.3629 186.422 89.0736 186.251 88.8922C186.083 88.7107 185.84 88.62 185.521 88.62C185.201 88.62 184.943 88.7107 184.748 88.8922C184.556 89.0736 184.435 89.3629 184.385 89.76H186.523ZM192.645 91.4955L192.89 92.1306C192.779 92.2305 192.637 92.3068 192.464 92.3594C192.29 92.4146 192.098 92.4422 191.888 92.4422C191.451 92.4422 191.119 92.3265 190.89 92.0951C190.661 91.8637 190.547 91.5179 190.547 91.0577V88.7028H189.837V88.0047H190.547V87.1211L191.415 86.9791V88.0047H192.732V88.7028H191.415V90.9867C191.415 91.2286 191.465 91.4035 191.564 91.5113C191.667 91.6191 191.813 91.673 192.002 91.673C192.215 91.673 192.402 91.6139 192.562 91.4955H192.645ZM194.152 87.3262C193.986 87.3262 193.851 87.2749 193.746 87.1724C193.641 87.0698 193.588 86.9383 193.588 86.7779C193.588 86.6201 193.641 86.49 193.746 86.3874C193.851 86.2849 193.986 86.2336 194.152 86.2336C194.318 86.2336 194.453 86.2849 194.558 86.3874C194.666 86.49 194.72 86.6201 194.72 86.7779C194.72 86.9383 194.667 87.0698 194.562 87.1724C194.457 87.2749 194.32 87.3262 194.152 87.3262ZM193.718 92.3594V88.0086H194.586V92.3594H193.718ZM198.254 91.4955L198.499 92.1306C198.388 92.2305 198.246 92.3068 198.073 92.3594C197.899 92.4146 197.707 92.4422 197.497 92.4422C197.06 92.4422 196.728 92.3265 196.499 92.0951C196.27 91.8637 196.156 91.5179 196.156 91.0577V88.7028H195.446V88.0047H196.156V87.1211L197.024 86.9791V88.0047H198.341V88.7028H197.024V90.9867C197.024 91.2286 197.074 91.4035 197.174 91.5113C197.276 91.6191 197.422 91.673 197.611 91.673C197.824 91.673 198.011 91.6139 198.171 91.4955H198.254ZM200.404 92.4422C200.054 92.4422 199.783 92.3462 199.592 92.1543C199.4 91.9597 199.304 91.6678 199.304 91.2786V86.2612H200.171V91.2352C200.171 91.3956 200.203 91.5113 200.266 91.5823C200.329 91.6533 200.425 91.6888 200.554 91.6888C200.628 91.6888 200.706 91.677 200.791 91.6533L200.846 91.6691L200.933 92.3397C200.877 92.3738 200.802 92.3988 200.708 92.4146C200.616 92.433 200.515 92.4422 200.404 92.4422ZM205.295 90.3792H202.4C202.45 91.2523 202.855 91.6888 203.615 91.6888C203.896 91.6888 204.122 91.6388 204.293 91.5389C204.467 91.4364 204.604 91.2786 204.704 91.0656H204.786L205.358 91.4206C205.224 91.7309 205.015 91.9794 204.731 92.1661C204.45 92.3502 204.078 92.4422 203.615 92.4422C203.181 92.4422 202.806 92.3581 202.491 92.1898C202.175 92.0215 201.932 91.769 201.761 91.4324C201.59 91.0958 201.505 90.6803 201.505 90.186C201.505 89.6916 201.594 89.2748 201.773 88.9356C201.952 88.5963 202.196 88.3439 202.506 88.1782C202.817 88.0099 203.167 87.9258 203.556 87.9258C204.142 87.9258 204.594 88.0862 204.913 88.407C205.233 88.7278 205.395 89.1998 205.398 89.8231C205.398 90.0571 205.391 90.2267 205.378 90.3319L205.295 90.3792ZM204.558 89.76C204.547 89.3629 204.456 89.0736 204.285 88.8922C204.117 88.7107 203.874 88.62 203.556 88.62C203.235 88.62 202.977 88.7107 202.783 88.8922C202.591 89.0736 202.47 89.3629 202.42 89.76H204.558Z" fill="#11171D" fill-opacity="0.6"/>
<g clip-path="url(#clip3_6839_89099)" filter="url(#filter1_dd_6839_89099)">
<rect width="331.211" height="305.898" transform="translate(118.667 103.708)" fill="white"/>
<rect x="118.667" y="103.708" width="331.211" height="305.822" fill="white"/>
</g>
<mask id="mask0_6839_89099" style="mask-type:alpha" maskUnits="userSpaceOnUse" x="16" y="48" width="42" height="376">
<rect x="18.3081" y="48.3135" width="36.9295" height="351.984" fill="#D9D9D9"/>
</mask>
<g mask="url(#mask0_6839_89099)">
<g filter="url(#filter2_dd_6839_89099)">
<path d="M27.5405 62.1621C27.5405 59.6126 29.6073 57.5459 32.1567 57.5459H41.3891C43.9385 57.5459 46.0053 59.6126 46.0053 62.1621V71.3945C46.0053 73.9439 43.9385 76.0107 41.3891 76.0107H32.1567C29.6073 76.0107 27.5405 73.9439 27.5405 71.3945V62.1621Z" fill="white"/>
<path fill-rule="evenodd" clip-rule="evenodd" d="M31.5796 66.3887C31.5796 64.317 31.5796 63.2811 32.137 62.574C32.2634 62.4137 32.4083 62.2688 32.5687 62.1424C33.2758 61.585 34.3116 61.585 36.3833 61.585H37.1623C39.234 61.585 40.2698 61.585 40.977 62.1424C41.1373 62.2688 41.2822 62.4137 41.4086 62.574C41.966 63.2811 41.966 64.317 41.966 66.3887V67.1677C41.966 69.2394 41.966 70.2752 41.4086 70.9823C41.2822 71.1427 41.1373 71.2875 40.977 71.4139C40.2698 71.9714 39.234 71.9714 37.1623 71.9714H36.3833C34.3116 71.9714 33.2758 71.9714 32.5687 71.4139C32.4083 71.2875 32.2634 71.1427 32.137 70.9823C31.5796 70.2752 31.5796 69.2394 31.5796 67.1677V66.3887ZM36.3833 62.4505H37.1623C37.3292 62.4505 37.4877 62.4505 37.6383 62.4508L37.6383 71.1055C37.4877 71.1058 37.3292 71.1058 37.1623 71.1058H36.3833C35.3269 71.1058 34.6085 71.1045 34.0631 71.0418C33.5358 70.9812 33.2806 70.873 33.1045 70.7342C32.9976 70.6499 32.901 70.5534 32.8168 70.4465C32.6779 70.2704 32.5697 70.0152 32.5091 69.4879C32.4465 68.9425 32.4451 68.2241 32.4451 67.1677V66.3887C32.4451 65.3323 32.4465 64.6139 32.5091 64.0685C32.5697 63.5411 32.6779 63.286 32.8168 63.1099C32.901 63.003 32.9976 62.9064 33.1045 62.8221C33.2806 62.6833 33.5358 62.5751 34.0631 62.5145C34.6085 62.4518 35.3269 62.4505 36.3833 62.4505ZM38.5039 71.0976C38.8882 71.0895 39.2074 71.0734 39.4825 71.0418C40.0098 70.9812 40.265 70.873 40.4411 70.7342C40.548 70.6499 40.6446 70.5534 40.7288 70.4465C40.8677 70.2704 40.9759 70.0152 41.0365 69.4879C41.0991 68.9425 41.1005 68.2241 41.1005 67.1677V66.3887C41.1005 66.3286 41.1005 66.2697 41.1005 66.2118H38.5039L38.5039 71.0976ZM41.0969 65.3462C41.0911 64.8242 41.0759 64.412 41.0365 64.0685C40.9759 63.5411 40.8677 63.286 40.7288 63.1099C40.6446 63.003 40.548 62.9064 40.4411 62.8221C40.265 62.6833 40.0098 62.5751 39.4825 62.5145C39.2074 62.4829 38.8882 62.4669 38.5039 62.4588V65.3462H41.0969Z" fill="#0E1318" fill-opacity="0.7"/>
</g>
<path d="M28.4793 80.7877C29.1962 80.7877 29.7489 80.9768 30.1374 81.3549C30.5258 81.733 30.72 82.2991 30.72 83.0533C30.72 83.8054 30.5258 84.3715 30.1374 84.7517C29.7489 85.1298 29.1962 85.3188 28.4793 85.3188H26.9327V80.7877H28.4793ZM28.4266 84.7145C28.7716 84.7145 29.0568 84.6597 29.282 84.5502C29.5092 84.4407 29.6807 84.2641 29.7964 84.0203C29.9142 83.7744 29.9731 83.4521 29.9731 83.0533C29.9731 82.6525 29.9142 82.3301 29.7964 82.0863C29.6807 81.8425 29.5092 81.6659 29.282 81.5564C29.0568 81.4448 28.7716 81.389 28.4266 81.389H27.6456V84.7145H28.4266ZM34.4484 83.763H32.1736C32.2128 84.449 32.531 84.792 33.1281 84.792C33.3492 84.792 33.5269 84.7527 33.6612 84.6742C33.7976 84.5936 33.905 84.4697 33.9835 84.3023H34.0486L34.498 84.5812C34.3926 84.825 34.2284 85.0203 34.0052 85.167C33.7841 85.3116 33.4918 85.3839 33.1281 85.3839C32.7872 85.3839 32.4928 85.3178 32.2448 85.1856C31.9969 85.0533 31.8058 84.855 31.6715 84.5905C31.5372 84.3261 31.47 83.9996 31.47 83.6112C31.47 83.2227 31.5403 82.8952 31.6808 82.6287C31.8213 82.3622 32.0134 82.1638 32.2572 82.0336C32.501 81.9014 32.7758 81.8353 33.0816 81.8353C33.5424 81.8353 33.8978 81.9613 34.1478 82.2134C34.3999 82.4655 34.5269 82.8364 34.529 83.326C34.529 83.5099 34.5238 83.6432 34.5135 83.7258L34.4484 83.763ZM33.8689 83.2764C33.8606 82.9645 33.7893 82.7372 33.655 82.5946C33.5228 82.452 33.3316 82.3808 33.0816 82.3808C32.8296 82.3808 32.6271 82.452 32.4742 82.5946C32.3234 82.7372 32.2283 82.9645 32.1891 83.2764H33.8689ZM36.3916 85.3839C36.1685 85.3839 35.9619 85.356 35.7718 85.3003C35.5838 85.2445 35.4236 85.168 35.2914 85.0709C35.1612 84.9717 35.0662 84.8602 35.0063 84.7362L35.3937 84.324H35.4588C35.684 84.6484 35.996 84.8106 36.3947 84.8106C36.6034 84.8106 36.7615 84.7713 36.8689 84.6928C36.9784 84.6122 37.0332 84.5006 37.0332 84.3581C37.0332 84.2465 36.997 84.1546 36.9247 84.0822C36.8545 84.0079 36.7419 83.9521 36.5869 83.9149L36.0724 83.7878C35.7501 83.7114 35.5135 83.5915 35.3627 83.4283C35.2139 83.263 35.1395 83.0574 35.1395 82.8116C35.1395 82.6111 35.1902 82.4376 35.2914 82.2909C35.3947 82.1442 35.5404 82.0316 35.7284 81.9531C35.9164 81.8746 36.1375 81.8353 36.3916 81.8353C36.7036 81.8353 36.9547 81.8797 37.1448 81.9686C37.3369 82.0553 37.4867 82.1752 37.5941 82.3281L37.2222 82.7155H37.1603C37.059 82.5977 36.9454 82.513 36.8193 82.4613C36.6954 82.4097 36.5528 82.3839 36.3916 82.3839C36.1912 82.3839 36.0404 82.418 35.9391 82.4861C35.8379 82.5523 35.7873 82.6494 35.7873 82.7775C35.7873 82.8911 35.8245 82.983 35.8989 83.0533C35.9732 83.1235 36.1024 83.1804 36.2863 83.2238L36.7821 83.3384C37.1045 83.4107 37.3379 83.5285 37.4826 83.6917C37.6293 83.855 37.7026 84.0678 37.7026 84.3302C37.7026 84.5389 37.652 84.7228 37.5508 84.8819C37.4495 85.0389 37.3008 85.1618 37.1045 85.2507C36.9082 85.3395 36.6706 85.3839 36.3916 85.3839ZM38.8586 81.3642C38.7285 81.3642 38.6221 81.3239 38.5394 81.2433C38.4568 81.1628 38.4154 81.0594 38.4154 80.9334C38.4154 80.8094 38.4568 80.7072 38.5394 80.6266C38.6221 80.546 38.7285 80.5057 38.8586 80.5057C38.9888 80.5057 39.0952 80.546 39.1779 80.6266C39.2626 80.7072 39.3049 80.8094 39.3049 80.9334C39.3049 81.0594 39.2636 81.1628 39.181 81.2433C39.0983 81.3239 38.9909 81.3642 38.8586 81.3642ZM38.5177 85.3188V81.9004H39.1996V85.3188H38.5177ZM41.5116 86.7693C40.9599 86.7693 40.555 86.6825 40.2967 86.509C40.0384 86.3375 39.9093 86.104 39.9093 85.8085C39.9093 85.6226 39.9671 85.4717 40.0828 85.356C40.1985 85.2403 40.3649 85.1608 40.5818 85.1174V85.0523C40.4723 84.9883 40.3917 84.9149 40.3401 84.8323C40.2884 84.7476 40.2626 84.6494 40.2626 84.5378C40.2626 84.2713 40.4351 84.0936 40.7802 84.0048V83.9397C40.4083 83.7351 40.2223 83.4159 40.2223 82.982C40.2223 82.7568 40.274 82.5574 40.3773 82.3839C40.4806 82.2103 40.6293 82.076 40.8236 81.981C41.0178 81.8838 41.2482 81.8353 41.5147 81.8353C41.7998 81.8353 42.0333 81.8911 42.2151 82.0027C42.335 81.8539 42.4042 81.671 42.4228 81.4541L42.4879 81.4138L43.0023 81.5378C42.9837 81.7051 42.9341 81.8477 42.8536 81.9655C42.773 82.0812 42.6542 82.1793 42.4972 82.2599V82.3281C42.7017 82.4954 42.804 82.732 42.804 83.0378C42.804 83.2506 42.7513 83.4428 42.6459 83.6143C42.5426 83.7837 42.3928 83.917 42.1965 84.0141C42.0023 84.1112 41.775 84.1597 41.5147 84.1597C41.492 84.1597 41.4434 84.1577 41.369 84.1535C41.2864 84.1494 41.2275 84.1473 41.1924 84.1473C41.0994 84.1473 41.026 84.1721 40.9723 84.2217C40.9186 84.2713 40.8917 84.3343 40.8917 84.4108C40.8917 84.4996 40.9227 84.5668 40.9847 84.6122C41.0488 84.6577 41.149 84.6835 41.2853 84.6897L42.0726 84.7176C42.7937 84.7403 43.1542 85.0502 43.1542 85.6474C43.1542 85.8602 43.0984 86.0503 42.9868 86.2176C42.8753 86.3871 42.6965 86.5214 42.4507 86.6205C42.2069 86.7197 41.8938 86.7693 41.5116 86.7693ZM41.5147 83.6422C41.7172 83.6422 41.8742 83.5864 41.9858 83.4748C42.0994 83.3632 42.1562 83.2052 42.1562 83.0006C42.1562 82.794 42.1005 82.6349 41.9889 82.5233C41.8773 82.4097 41.7192 82.3529 41.5147 82.3529C41.3081 82.3529 41.15 82.4087 41.0405 82.5202C40.931 82.6318 40.8762 82.7919 40.8762 83.0006C40.8762 83.2052 40.931 83.3632 41.0405 83.4748C41.15 83.5864 41.3081 83.6422 41.5147 83.6422ZM41.5116 86.2424C41.8442 86.2424 42.086 86.1918 42.2368 86.0906C42.3897 85.9914 42.4662 85.8653 42.4662 85.7125C42.4662 85.5823 42.4269 85.4883 42.3484 85.4304C42.2719 85.3726 42.1418 85.3395 41.9579 85.3312L41.2389 85.2941L41.1242 85.291C40.9403 85.293 40.8039 85.3312 40.7151 85.4056C40.6262 85.4821 40.5818 85.5864 40.5818 85.7187C40.5818 85.8901 40.6593 86.0203 40.8143 86.1092C40.9692 86.198 41.2017 86.2424 41.5116 86.2424ZM43.8236 85.3188V81.9004H44.4745V82.418L44.5396 82.4334C44.6491 82.2372 44.7906 82.0884 44.9642 81.9872C45.1377 81.8859 45.3495 81.8353 45.5995 81.8353C46.0024 81.8353 46.2958 81.9417 46.4797 82.1545C46.6656 82.3653 46.7586 82.6824 46.7586 83.106V85.3188H46.0768V83.1649C46.0768 82.8983 46.0241 82.7072 45.9187 82.5915C45.8134 82.4758 45.6439 82.418 45.4104 82.418C45.1315 82.418 44.9104 82.5089 44.7472 82.6907C44.586 82.8725 44.5055 83.1607 44.5055 83.5554V85.3188H43.8236Z" fill="#0E1318" fill-opacity="0.7"/>
<g filter="url(#filter3_dd_6839_89099)">
<path d="M27.5405 102.167C27.5405 99.618 29.6073 97.5513 32.1567 97.5513H41.3891C43.9385 97.5513 46.0053 99.618 46.0053 102.167V111.4C46.0053 113.949 43.9385 116.016 41.3891 116.016H32.1567C29.6073 116.016 27.5405 113.949 27.5405 111.4V102.167Z" fill="white"/>
<path fill-rule="evenodd" clip-rule="evenodd" d="M33.6275 106.346C33.7555 106.415 33.8964 106.449 34.0369 106.449C34.1777 106.449 34.3188 106.415 34.447 106.346L34.4487 106.345L34.4508 106.344L34.4561 106.341L34.4715 106.333C34.4838 106.326 34.5 106.316 34.5198 106.305C34.5594 106.282 34.6135 106.249 34.6785 106.208C34.808 106.126 34.9841 106.005 35.1777 105.85C35.5458 105.556 36.0305 105.094 36.3467 104.48C36.5018 104.221 36.5908 103.917 36.5908 103.595C36.5908 102.642 35.8181 101.869 34.8649 101.869C34.5646 101.869 34.2826 101.946 34.0369 102.08C33.7913 101.946 33.5092 101.869 33.2089 101.869C32.2557 101.869 31.4829 102.642 31.4829 103.595C31.4829 103.894 31.5598 104.178 31.6954 104.425C32.0076 105.06 32.5047 105.538 32.8815 105.84C33.0788 105.999 33.2588 106.122 33.3912 106.206C33.4577 106.248 33.513 106.281 33.5535 106.305C33.5737 106.317 33.5904 106.326 33.6029 106.333L33.6186 106.342L33.624 106.345L33.6262 106.346L33.6275 106.346ZM32.4628 104.024C32.6652 104.446 32.992 104.797 33.2954 105.059C33.5386 105.269 33.7668 105.421 33.9042 105.506C33.9868 105.557 34.0368 105.584 34.0368 105.584C34.0368 105.584 34.0866 105.557 34.1692 105.506C34.3064 105.421 34.5347 105.268 34.7775 105.058C35.0717 104.803 35.3879 104.464 35.5909 104.057C35.676 103.924 35.7253 103.765 35.7253 103.595C35.7253 103.12 35.3401 102.735 34.8649 102.735C34.813 102.735 34.7622 102.739 34.7128 102.748C34.3876 102.806 34.1256 103.047 34.0369 103.36C33.9482 103.047 33.6862 102.806 33.361 102.748C33.3116 102.739 33.2608 102.735 33.2089 102.735C32.7337 102.735 32.3484 103.12 32.3484 103.595C32.3484 103.751 32.3901 103.898 32.4628 104.024Z" fill="#0E1318" fill-opacity="0.7"/>
<path fill-rule="evenodd" clip-rule="evenodd" d="M39.9674 102.174C39.7391 101.781 39.1713 101.781 38.943 102.174L37.0349 105.46C36.8056 105.855 37.0904 106.349 37.547 106.349H41.3633C41.8199 106.349 42.1048 105.855 41.8755 105.46L39.9674 102.174ZM39.4552 103.016L38.0217 105.484H40.8886L39.4552 103.016Z" fill="#0E1318" fill-opacity="0.7"/>
<path fill-rule="evenodd" clip-rule="evenodd" d="M41.886 109.766C41.886 111.108 40.7977 112.197 39.4552 112.197C38.1127 112.197 37.0244 111.108 37.0244 109.766C37.0244 108.423 38.1127 107.335 39.4552 107.335C40.7977 107.335 41.886 108.423 41.886 109.766ZM41.0205 109.766C41.0205 110.63 40.3197 111.331 39.4552 111.331C38.5907 111.331 37.8899 110.63 37.8899 109.766C37.8899 108.901 38.5907 108.201 39.4552 108.201C40.3197 108.201 41.0205 108.901 41.0205 109.766Z" fill="#0E1318" fill-opacity="0.7"/>
<path fill-rule="evenodd" clip-rule="evenodd" d="M31.814 107.987C31.814 107.742 32.0129 107.543 32.2582 107.543H35.8014C36.0467 107.543 36.2456 107.742 36.2456 107.987V111.619C36.2456 111.816 36.0865 111.975 35.8902 111.975H32.2582C32.0129 111.975 31.814 111.776 31.814 111.53V107.987ZM32.6795 111.109V108.409H35.3801V111.109H32.6795Z" fill="#0E1318" fill-opacity="0.7"/>
</g>
<path d="M23.7467 123.26V124.729H25.9844V125.324H23.0339V120.793H25.9348V121.388H23.7467V122.674H25.6682V123.26H23.7467ZM27.6487 125.389C27.3739 125.389 27.161 125.314 27.0102 125.163C26.8594 125.01 26.784 124.781 26.784 124.475V120.533H27.4658V124.441C27.4658 124.567 27.4906 124.658 27.5402 124.714C27.5898 124.769 27.6652 124.797 27.7664 124.797C27.8243 124.797 27.8863 124.788 27.9524 124.769L27.9958 124.782L28.064 125.309C28.0206 125.336 27.9617 125.355 27.8873 125.368C27.815 125.382 27.7354 125.389 27.6487 125.389ZM31.4917 123.768H29.2169C29.2561 124.454 29.5743 124.797 30.1715 124.797C30.3925 124.797 30.5702 124.758 30.7045 124.68C30.8409 124.599 30.9483 124.475 31.0268 124.308H31.0919L31.5413 124.587C31.4359 124.83 31.2717 125.026 31.0485 125.172C30.8275 125.317 30.5351 125.389 30.1715 125.389C29.8305 125.389 29.5361 125.323 29.2882 125.191C29.0402 125.059 28.8491 124.86 28.7148 124.596C28.5805 124.331 28.5134 124.005 28.5134 123.617C28.5134 123.228 28.5836 122.901 28.7241 122.634C28.8646 122.368 29.0568 122.169 29.3006 122.039C29.5444 121.907 29.8192 121.841 30.125 121.841C30.5857 121.841 30.9411 121.967 31.1911 122.219C31.4432 122.471 31.5702 122.842 31.5723 123.331C31.5723 123.515 31.5671 123.649 31.5568 123.731L31.4917 123.768ZM30.9122 123.282C30.9039 122.97 30.8326 122.743 30.6983 122.6C30.5661 122.457 30.375 122.386 30.125 122.386C29.8729 122.386 29.6704 122.457 29.5175 122.6C29.3667 122.743 29.2716 122.97 29.2324 123.282H30.9122ZM32.3998 125.324V121.906H33.0507V122.386L33.1157 122.399C33.2314 122.211 33.3678 122.071 33.5248 121.98C33.6819 121.887 33.875 121.841 34.1044 121.841C34.3668 121.841 34.5734 121.891 34.7242 121.993C34.8751 122.094 34.9887 122.249 35.0652 122.457H35.1302C35.2418 122.251 35.3823 122.097 35.5517 121.996C35.7212 121.892 35.9309 121.841 36.1809 121.841C36.5363 121.841 36.8007 121.939 36.9743 122.135C37.1479 122.329 37.2346 122.621 37.2346 123.009V125.324H36.5528V123.068C36.5528 122.845 36.5063 122.682 36.4133 122.578C36.3224 122.475 36.1757 122.423 35.9732 122.423C35.7253 122.423 35.5269 122.51 35.3782 122.684C35.2315 122.857 35.1581 123.14 35.1581 123.533V125.324H34.4763V123.068C34.4763 122.845 34.4298 122.682 34.3368 122.578C34.2459 122.475 34.0992 122.423 33.8967 122.423C33.6488 122.423 33.4505 122.508 33.3017 122.677C33.155 122.847 33.0816 123.121 33.0816 123.499V125.324H32.3998ZM41.0436 123.768H38.7688C38.808 124.454 39.1262 124.797 39.7233 124.797C39.9444 124.797 40.1221 124.758 40.2564 124.68C40.3928 124.599 40.5002 124.475 40.5787 124.308H40.6438L41.0932 124.587C40.9878 124.83 40.8236 125.026 40.6004 125.172C40.3793 125.317 40.087 125.389 39.7233 125.389C39.3824 125.389 39.088 125.323 38.84 125.191C38.5921 125.059 38.401 124.86 38.2667 124.596C38.1324 124.331 38.0652 124.005 38.0652 123.617C38.0652 123.228 38.1355 122.901 38.276 122.634C38.4165 122.368 38.6086 122.169 38.8524 122.039C39.0962 121.907 39.371 121.841 39.6768 121.841C40.1376 121.841 40.493 121.967 40.743 122.219C40.9951 122.471 41.1221 122.842 41.1242 123.331C41.1242 123.515 41.119 123.649 41.1087 123.731L41.0436 123.768ZM40.4641 123.282C40.4558 122.97 40.3845 122.743 40.2502 122.6C40.118 122.457 39.9268 122.386 39.6768 122.386C39.4248 122.386 39.2223 122.457 39.0694 122.6C38.9186 122.743 38.8235 122.97 38.7843 123.282H40.4641ZM41.9517 125.324V121.906H42.6025V122.423L42.6676 122.439C42.7771 122.243 42.9187 122.094 43.0922 121.993C43.2658 121.891 43.4775 121.841 43.7276 121.841C44.1305 121.841 44.4239 121.947 44.6077 122.16C44.7937 122.371 44.8867 122.688 44.8867 123.111V125.324H44.2048V123.17C44.2048 122.904 44.1522 122.713 44.0468 122.597C43.9414 122.481 43.772 122.423 43.5385 122.423C43.2596 122.423 43.0385 122.514 42.8753 122.696C42.7141 122.878 42.6335 123.166 42.6335 123.561V125.324H41.9517ZM47.6915 124.645L47.8836 125.144C47.7969 125.223 47.6853 125.283 47.5489 125.324C47.4126 125.368 47.2617 125.389 47.0964 125.389C46.7535 125.389 46.4921 125.298 46.3123 125.117C46.1326 124.935 46.0427 124.663 46.0427 124.301V122.451H45.4848V121.903H46.0427V121.208L46.7245 121.097V121.903H47.7597V122.451H46.7245V124.246C46.7245 124.436 46.7638 124.573 46.8423 124.658C46.9229 124.743 47.0376 124.785 47.1863 124.785C47.3537 124.785 47.5004 124.738 47.6264 124.645H47.6915ZM49.5696 125.389C49.3465 125.389 49.1399 125.361 48.9498 125.306C48.7618 125.25 48.6016 125.173 48.4694 125.076C48.3392 124.977 48.2442 124.866 48.1843 124.742L48.5717 124.329H48.6368C48.862 124.654 49.174 124.816 49.5727 124.816C49.7814 124.816 49.9395 124.777 50.0469 124.698C50.1564 124.618 50.2112 124.506 50.2112 124.363C50.2112 124.252 50.175 124.16 50.1027 124.088C50.0325 124.013 49.9199 123.957 49.7649 123.92L49.2504 123.793C48.9281 123.717 48.6915 123.597 48.5407 123.434C48.3919 123.268 48.3175 123.063 48.3175 122.817C48.3175 122.617 48.3682 122.443 48.4694 122.296C48.5727 122.15 48.7184 122.037 48.9064 121.958C49.0944 121.88 49.3155 121.841 49.5696 121.841C49.8816 121.841 50.1327 121.885 50.3228 121.974C50.5149 122.061 50.6647 122.181 50.7721 122.333L50.4002 122.721H50.3383C50.237 122.603 50.1234 122.518 49.9973 122.467C49.8734 122.415 49.7308 122.389 49.5696 122.389C49.3692 122.389 49.2184 122.423 49.1171 122.492C49.0159 122.558 48.9653 122.655 48.9653 122.783C48.9653 122.896 49.0025 122.988 49.0769 123.059C49.1512 123.129 49.2804 123.186 49.4643 123.229L49.9601 123.344C50.2825 123.416 50.5159 123.534 50.6606 123.697C50.8073 123.86 50.8806 124.073 50.8806 124.336C50.8806 124.544 50.83 124.728 50.7288 124.887C50.6275 125.044 50.4788 125.167 50.2825 125.256C50.0862 125.345 49.8486 125.389 49.5696 125.389Z" fill="#0E1318" fill-opacity="0.7"/>
<g filter="url(#filter4_dd_6839_89099)">
<path d="M27.5405 142.172C27.5405 139.623 29.6073 137.556 32.1567 137.556H41.3891C43.9385 137.556 46.0053 139.623 46.0053 142.172V151.405C46.0053 153.954 43.9385 156.021 41.3891 156.021H32.1567C29.6073 156.021 27.5405 153.954 27.5405 151.405V142.172Z" fill="white"/>
<path d="M32.3101 143.206C32.3101 142.728 32.6976 142.341 33.1756 142.341H40.3704C40.8484 142.341 41.2359 142.728 41.2359 143.206V144.274C41.2359 144.513 41.0421 144.707 40.8031 144.707C40.5641 144.707 40.3704 144.513 40.3704 144.274V143.495C40.3704 143.336 40.2412 143.206 40.0818 143.206L37.2057 143.206V150.095C37.2057 150.254 37.3349 150.384 37.4943 150.384H38.5763C38.8153 150.384 39.0091 150.577 39.0091 150.816C39.0091 151.055 38.8153 151.249 38.5763 151.249H34.9697C34.7306 151.249 34.5369 151.055 34.5369 150.816C34.5369 150.577 34.7306 150.384 34.9697 150.384H36.0517C36.211 150.384 36.3402 150.254 36.3402 150.095V143.206L33.4641 143.206C33.3048 143.206 33.1756 143.336 33.1756 143.495V144.29C33.1756 144.529 32.9818 144.722 32.7428 144.722C32.5038 144.722 32.3101 144.529 32.3101 144.29V143.206Z" fill="#0E1318" fill-opacity="0.7"/>
</g>
</g>
</g>
</g>
<defs>
<filter id="filter0_dd_6839_89099" x="0" y="6" width="527" height="481" filterUnits="userSpaceOnUse" color-interpolation-filters="sRGB">
<feFlood flood-opacity="0" result="BackgroundImageFix"/>
<feColorMatrix in="SourceAlpha" type="matrix" values="0 0 0 0 0 0 0 0 0 0 0 0 0 0 0 0 0 0 127 0" result="hardAlpha"/>
<feMorphology radius="4" operator="erode" in="SourceAlpha" result="effect1_dropShadow_6839_89099"/>
<feOffset dy="6"/>
<feGaussianBlur stdDeviation="10"/>
<feColorMatrix type="matrix" values="0 0 0 0 0.25098 0 0 0 0 0.341176 0 0 0 0 0.427451 0 0 0 0.3 0"/>
<feBlend mode="normal" in2="BackgroundImageFix" result="effect1_dropShadow_6839_89099"/>
<feColorMatrix in="SourceAlpha" type="matrix" values="0 0 0 0 0 0 0 0 0 0 0 0 0 0 0 0 0 0 127 0" result="hardAlpha"/>
<feMorphology radius="1" operator="dilate" in="SourceAlpha" result="effect2_dropShadow_6839_89099"/>
<feOffset/>
<feColorMatrix type="matrix" values="0 0 0 0 0.25098 0 0 0 0 0.341176 0 0 0 0 0.427451 0 0 0 0.04 0"/>
<feBlend mode="normal" in2="effect1_dropShadow_6839_89099" result="effect2_dropShadow_6839_89099"/>
<feBlend mode="normal" in="SourceGraphic" in2="effect2_dropShadow_6839_89099" result="shape"/>
</filter>
<filter id="filter1_dd_6839_89099" x="102.667" y="93.708" width="363.211" height="337.898" filterUnits="userSpaceOnUse" color-interpolation-filters="sRGB">
<feFlood flood-opacity="0" result="BackgroundImageFix"/>
<feColorMatrix in="SourceAlpha" type="matrix" values="0 0 0 0 0 0 0 0 0 0 0 0 0 0 0 0 0 0 127 0" result="hardAlpha"/>
<feMorphology radius="4" operator="erode" in="SourceAlpha" result="effect1_dropShadow_6839_89099"/>
<feOffset dy="6"/>
<feGaussianBlur stdDeviation="10"/>
<feColorMatrix type="matrix" values="0 0 0 0 0.25098 0 0 0 0 0.341176 0 0 0 0 0.427451 0 0 0 0.3 0"/>
<feBlend mode="normal" in2="BackgroundImageFix" result="effect1_dropShadow_6839_89099"/>
<feColorMatrix in="SourceAlpha" type="matrix" values="0 0 0 0 0 0 0 0 0 0 0 0 0 0 0 0 0 0 127 0" result="hardAlpha"/>
<feMorphology radius="1" operator="dilate" in="SourceAlpha" result="effect2_dropShadow_6839_89099"/>
<feOffset/>
<feColorMatrix type="matrix" values="0 0 0 0 0.25098 0 0 0 0 0.341176 0 0 0 0 0.427451 0 0 0 0.04 0"/>
<feBlend mode="normal" in2="effect1_dropShadow_6839_89099" result="effect2_dropShadow_6839_89099"/>
<feBlend mode="normal" in="SourceGraphic" in2="effect2_dropShadow_6839_89099" result="shape"/>
</filter>
<filter id="filter2_dd_6839_89099" x="24.5405" y="56.5459" width="24.4648" height="24.4648" filterUnits="userSpaceOnUse" color-interpolation-filters="sRGB">
<feFlood flood-opacity="0" result="BackgroundImageFix"/>
<feColorMatrix in="SourceAlpha" type="matrix" values="0 0 0 0 0 0 0 0 0 0 0 0 0 0 0 0 0 0 127 0" result="hardAlpha"/>
<feMorphology radius="1" operator="erode" in="SourceAlpha" result="effect1_dropShadow_6839_89099"/>
<feOffset dy="2"/>
<feGaussianBlur stdDeviation="2"/>
<feColorMatrix type="matrix" values="0 0 0 0 0.25098 0 0 0 0 0.341176 0 0 0 0 0.427451 0 0 0 0.3 0"/>
<feBlend mode="normal" in2="BackgroundImageFix" result="effect1_dropShadow_6839_89099"/>
<feColorMatrix in="SourceAlpha" type="matrix" values="0 0 0 0 0 0 0 0 0 0 0 0 0 0 0 0 0 0 127 0" result="hardAlpha"/>
<feMorphology radius="1" operator="dilate" in="SourceAlpha" result="effect2_dropShadow_6839_89099"/>
<feOffset/>
<feColorMatrix type="matrix" values="0 0 0 0 0.25098 0 0 0 0 0.341176 0 0 0 0 0.427451 0 0 0 0.04 0"/>
<feBlend mode="normal" in2="effect1_dropShadow_6839_89099" result="effect2_dropShadow_6839_89099"/>
<feBlend mode="normal" in="SourceGraphic" in2="effect2_dropShadow_6839_89099" result="shape"/>
</filter>
<filter id="filter3_dd_6839_89099" x="24.5405" y="96.5513" width="24.4648" height="24.4648" filterUnits="userSpaceOnUse" color-interpolation-filters="sRGB">
<feFlood flood-opacity="0" result="BackgroundImageFix"/>
<feColorMatrix in="SourceAlpha" type="matrix" values="0 0 0 0 0 0 0 0 0 0 0 0 0 0 0 0 0 0 127 0" result="hardAlpha"/>
<feMorphology radius="1" operator="erode" in="SourceAlpha" result="effect1_dropShadow_6839_89099"/>
<feOffset dy="2"/>
<feGaussianBlur stdDeviation="2"/>
<feColorMatrix type="matrix" values="0 0 0 0 0.25098 0 0 0 0 0.341176 0 0 0 0 0.427451 0 0 0 0.3 0"/>
<feBlend mode="normal" in2="BackgroundImageFix" result="effect1_dropShadow_6839_89099"/>
<feColorMatrix in="SourceAlpha" type="matrix" values="0 0 0 0 0 0 0 0 0 0 0 0 0 0 0 0 0 0 127 0" result="hardAlpha"/>
<feMorphology radius="1" operator="dilate" in="SourceAlpha" result="effect2_dropShadow_6839_89099"/>
<feOffset/>
<feColorMatrix type="matrix" values="0 0 0 0 0.25098 0 0 0 0 0.341176 0 0 0 0 0.427451 0 0 0 0.04 0"/>
<feBlend mode="normal" in2="effect1_dropShadow_6839_89099" result="effect2_dropShadow_6839_89099"/>
<feBlend mode="normal" in="SourceGraphic" in2="effect2_dropShadow_6839_89099" result="shape"/>
</filter>
<filter id="filter4_dd_6839_89099" x="24.5405" y="136.556" width="24.4648" height="24.4648" filterUnits="userSpaceOnUse" color-interpolation-filters="sRGB">
<feFlood flood-opacity="0" result="BackgroundImageFix"/>
<feColorMatrix in="SourceAlpha" type="matrix" values="0 0 0 0 0 0 0 0 0 0 0 0 0 0 0 0 0 0 127 0" result="hardAlpha"/>
<feMorphology radius="1" operator="erode" in="SourceAlpha" result="effect1_dropShadow_6839_89099"/>
<feOffset dy="2"/>
<feGaussianBlur stdDeviation="2"/>
<feColorMatrix type="matrix" values="0 0 0 0 0.25098 0 0 0 0 0.341176 0 0 0 0 0.427451 0 0 0 0.3 0"/>
<feBlend mode="normal" in2="BackgroundImageFix" result="effect1_dropShadow_6839_89099"/>
<feColorMatrix in="SourceAlpha" type="matrix" values="0 0 0 0 0 0 0 0 0 0 0 0 0 0 0 0 0 0 127 0" result="hardAlpha"/>
<feMorphology radius="1" operator="dilate" in="SourceAlpha" result="effect2_dropShadow_6839_89099"/>
<feOffset/>
<feColorMatrix type="matrix" values="0 0 0 0 0.25098 0 0 0 0 0.341176 0 0 0 0 0.427451 0 0 0 0.04 0"/>
<feBlend mode="normal" in2="effect1_dropShadow_6839_89099" result="effect2_dropShadow_6839_89099"/>
<feBlend mode="normal" in="SourceGraphic" in2="effect2_dropShadow_6839_89099" result="shape"/>
</filter>
<linearGradient id="paint0_linear_6839_89099" x1="16" y1="48.3133" x2="511.086" y2="48.3133" gradientUnits="userSpaceOnUse">
<stop stop-color="#00C4CC"/>
<stop offset="1" stop-color="#7D2AE8"/>
</linearGradient>
<clipPath id="clip0_6839_89099">
<rect x="16" y="16" width="495" height="449" rx="6.92428" fill="white"/>
</clipPath>
<clipPath id="clip1_6839_89099">
<rect width="495.086" height="32.3133" fill="white" transform="translate(16 16)"/>
</clipPath>
<clipPath id="clip2_6839_89099">
<rect width="200.527" height="23.0809" fill="white" transform="translate(20.6162 20.6162)"/>
</clipPath>
<clipPath id="clip3_6839_89099">
<rect width="331.211" height="305.898" fill="white" transform="translate(118.667 103.708)"/>
</clipPath>
</defs>
</svg>
