<svg width="160" height="152" viewBox="0 0 160 152" fill="none" xmlns="http://www.w3.org/2000/svg">
<rect width="160" height="152" fill="#40576D" fill-opacity="0.07"/>
<g clip-path="url(#clip0_6839_90063)">
<rect x="16" y="48" width="1366" height="56" fill="url(#paint0_linear_6839_90063)"/>
<g clip-path="url(#clip1_6839_90063)">
<path fill-rule="evenodd" clip-rule="evenodd" d="M36 69.75C36 69.3358 36.3358 69 36.75 69H51.25C51.6642 69 52 69.3358 52 69.75C52 70.1642 51.6642 70.5 51.25 70.5H36.75C36.3358 70.5 36 70.1642 36 69.75ZM36 75.75C36 75.3358 36.3358 75 36.75 75H51.25C51.6642 75 52 75.3358 52 75.75C52 76.1642 51.6642 76.5 51.25 76.5H36.75C36.3358 76.5 36 76.1642 36 75.75ZM36.75 81C36.3358 81 36 81.3358 36 81.75C36 82.1642 36.3358 82.5 36.75 82.5H51.25C51.6642 82.5 52 82.1642 52 81.75C52 81.3358 51.6642 81 51.25 81H36.75Z" fill="white"/>
<path d="M95.8789 71.0059V72.3184H91.3467V75.4561H95.4414V76.7617H91.3467V81H89.7744V71.0059H95.8789ZM98.333 72.2773C98.0459 72.2773 97.8112 72.1885 97.6289 72.0107C97.4466 71.833 97.3555 71.6051 97.3555 71.3271C97.3555 71.0537 97.4466 70.8281 97.6289 70.6504C97.8112 70.4727 98.0459 70.3838 98.333 70.3838C98.6201 70.3838 98.8548 70.4727 99.0371 70.6504C99.224 70.8281 99.3174 71.0537 99.3174 71.3271C99.3174 71.6051 99.2262 71.833 99.0439 72.0107C98.8617 72.1885 98.6247 72.2773 98.333 72.2773ZM97.5811 81V73.46H99.085V81H97.5811ZM103.357 81.1436C102.751 81.1436 102.282 80.9772 101.949 80.6445C101.617 80.3073 101.45 79.8014 101.45 79.127V70.4316H102.954V79.0518C102.954 79.3298 103.009 79.5303 103.118 79.6533C103.228 79.7764 103.394 79.8379 103.617 79.8379C103.745 79.8379 103.882 79.8174 104.027 79.7764L104.123 79.8037L104.273 80.9658C104.178 81.0251 104.048 81.0684 103.884 81.0957C103.724 81.1276 103.549 81.1436 103.357 81.1436ZM111.834 77.5684H106.816C106.903 79.0814 107.605 79.8379 108.922 79.8379C109.41 79.8379 109.801 79.7513 110.098 79.5781C110.398 79.4004 110.635 79.127 110.809 78.7578H110.952L111.943 79.373C111.711 79.9108 111.349 80.3415 110.856 80.665C110.369 80.984 109.724 81.1436 108.922 81.1436C108.17 81.1436 107.521 80.9977 106.974 80.7061C106.427 80.4144 106.005 79.9769 105.709 79.3936C105.413 78.8102 105.265 78.0902 105.265 77.2334C105.265 76.3766 105.42 75.6543 105.729 75.0664C106.039 74.4785 106.463 74.041 107.001 73.7539C107.539 73.4622 108.145 73.3164 108.819 73.3164C109.836 73.3164 110.619 73.5944 111.171 74.1504C111.727 74.7064 112.007 75.5244 112.012 76.6045C112.012 77.0101 112 77.304 111.978 77.4863L111.834 77.5684ZM110.556 76.4951C110.537 75.807 110.38 75.3057 110.084 74.9912C109.792 74.6768 109.371 74.5195 108.819 74.5195C108.263 74.5195 107.817 74.6768 107.479 74.9912C107.147 75.3057 106.937 75.807 106.851 76.4951H110.556Z" fill="white"/>
<path fill-rule="evenodd" clip-rule="evenodd" d="M158 72.375C158 72.7449 157.799 73.0679 157.501 73.2409C157.983 74.3844 158.485 74.9479 158.928 74.993C159.378 75.0389 159.795 74.8774 160.201 74.4761C160.075 74.3088 160 74.1006 160 73.875C160 73.3227 160.448 72.875 161 72.875C161.552 72.875 162 73.3227 162 73.875C162 74.3879 161.614 74.8106 161.116 74.8683L160.422 77.4136C160.268 77.9786 159.714 78.375 159.079 78.375H157.03H154.982C154.347 78.375 153.793 77.9786 153.639 77.4136L152.946 74.8736C152.419 74.8454 152 74.4091 152 73.875C152 73.3227 152.448 72.875 153 72.875C153.552 72.875 154 73.3227 154 73.875C154 74.0864 153.934 74.2824 153.822 74.4439C154.223 74.8708 154.65 75.0422 155.133 74.993C155.594 74.9461 156.09 74.3932 156.55 73.2685C156.224 73.1039 156 72.7656 156 72.375C156 71.8227 156.448 71.375 157 71.375C157.552 71.375 158 71.8227 158 72.375ZM154.125 79.375H159.88C160.225 79.375 160.5 79.6548 160.5 80C160.5 80.3452 160.225 80.625 159.88 80.625H154.125C153.78 80.625 153.5 80.3452 153.5 80C153.5 79.6548 153.78 79.375 154.125 79.375Z" fill="white"/>
</g>
</g>
<defs>
<linearGradient id="paint0_linear_6839_90063" x1="16" y1="104" x2="1382" y2="104" gradientUnits="userSpaceOnUse">
<stop stop-color="#00C4CC"/>
<stop offset="1" stop-color="#7D2AE8"/>
</linearGradient>
<clipPath id="clip0_6839_90063">
<rect width="1366" height="56" fill="white" transform="translate(16 48)"/>
</clipPath>
<clipPath id="clip1_6839_90063">
<rect width="616" height="40" fill="white" transform="translate(24 56)"/>
</clipPath>
</defs>
</svg>
