<svg width="328" height="152" viewBox="0 0 328 152" fill="none" xmlns="http://www.w3.org/2000/svg">
<rect width="328" height="152" fill="#40576D" fill-opacity="0.07"/>
<g clip-path="url(#clip0_6839_89482)">
<rect x="16" y="16" width="538" height="302.477" rx="1.5754" fill="url(#paint0_linear_6839_89482)"/>
<rect x="16" y="16" width="538" height="302.477" rx="1.5754" fill="white" fill-opacity="0.5"/>
<g clip-path="url(#clip1_6839_89482)">
<g clip-path="url(#clip2_6839_89482)">
<path d="M52.4151 67.9575C52.2106 67.9575 52.0279 67.9314 51.8672 67.8792C51.7064 67.8256 51.5724 67.7558 51.4652 67.6698C51.3581 67.5838 51.277 67.4893 51.222 67.3863L51.4885 67.0606H51.5414C51.6359 67.2087 51.7558 67.3236 51.901 67.4054C52.0463 67.4872 52.2176 67.5281 52.4151 67.5281C52.6125 67.5281 52.7606 67.4865 52.8593 67.4033C52.958 67.3201 53.0074 67.2051 53.0074 67.0585C53.0074 66.971 52.9912 66.8977 52.9587 66.8385C52.9263 66.7778 52.8727 66.7263 52.7979 66.684C52.7246 66.6403 52.6245 66.6029 52.4976 66.5719L52.1189 66.4831C51.8453 66.4182 51.6422 66.3138 51.5097 66.17C51.3785 66.0247 51.3129 65.8393 51.3129 65.6136C51.3129 65.4486 51.3545 65.3034 51.4377 65.1779C51.5209 65.0509 51.6422 64.9522 51.8016 64.8817C51.9624 64.8112 52.1535 64.7759 52.3749 64.7759C52.6104 64.7759 52.8106 64.8077 52.9756 64.8711C53.1406 64.9346 53.276 65.0319 53.3818 65.1631L53.1428 65.4909H53.0899C53.001 65.3908 52.8981 65.3168 52.781 65.2688C52.664 65.2195 52.5286 65.1948 52.3749 65.1948C52.1831 65.1948 52.0378 65.2307 51.9391 65.3027C51.8418 65.3732 51.7931 65.4712 51.7931 65.5967C51.7931 65.7152 51.8284 65.8097 51.8989 65.8802C51.9694 65.9493 52.09 66.0036 52.2606 66.0431L52.6499 66.1298C52.9503 66.1975 53.1674 66.3061 53.3014 66.4556C53.4368 66.6036 53.5045 66.7954 53.5045 67.031C53.5045 67.2143 53.4636 67.3758 53.3818 67.5154C53.3014 67.655 53.1794 67.7636 53.0158 67.8412C52.8537 67.9187 52.6534 67.9575 52.4151 67.9575ZM55.3047 67.4498L55.4359 67.7904C55.3766 67.844 55.3005 67.8849 55.2074 67.9131C55.1143 67.9427 55.0114 67.9575 54.8985 67.9575C54.6644 67.9575 54.486 67.8955 54.3633 67.7714C54.2407 67.6472 54.1793 67.4618 54.1793 67.215V65.9521H53.7985V65.5777H54.1793V65.1038L54.6447 65.0277V65.5777H55.3512V65.9521H54.6447V67.1769C54.6447 67.3067 54.6715 67.4005 54.7251 67.4583C54.7801 67.5161 54.8584 67.545 54.9599 67.545C55.0741 67.545 55.1743 67.5133 55.2603 67.4498H55.3047ZM56.4449 67.9575C56.2164 67.9575 56.0373 67.8969 55.9076 67.7756C55.7779 67.6529 55.713 67.4794 55.713 67.2552C55.713 67.117 55.7419 67.0006 55.7997 66.9062C55.8575 66.8117 55.9478 66.7348 56.0705 66.6756C56.1932 66.6149 56.3525 66.5684 56.5486 66.536C56.7023 66.5106 56.8193 66.4824 56.8997 66.4513C56.9801 66.4203 57.0344 66.3858 57.0626 66.3477C57.0908 66.3082 57.1049 66.2588 57.1049 66.1996C57.1049 66.1093 57.0732 66.0402 57.0097 65.9923C56.9477 65.9443 56.8461 65.9204 56.7051 65.9204C56.4386 65.9204 56.2122 66.0311 56.0261 66.2525H55.9838L55.7764 65.9479C55.885 65.8195 56.0197 65.7187 56.1805 65.6454C56.3427 65.572 56.5225 65.5354 56.7199 65.5354C57.0118 65.5354 57.2248 65.5981 57.3588 65.7236C57.4942 65.8492 57.5618 66.0254 57.5618 66.2525V67.3779C57.5618 67.4949 57.6119 67.5535 57.712 67.5535C57.7487 67.5535 57.784 67.5471 57.8178 67.5344L57.8474 67.5429L57.8876 67.8665C57.8594 67.8863 57.8199 67.9018 57.7692 67.9131C57.7198 67.9244 57.6669 67.93 57.6105 67.93C57.4765 67.93 57.3736 67.9025 57.3017 67.8475C57.2311 67.7925 57.1825 67.7086 57.1557 67.5958L57.1113 67.5915C57.0492 67.7142 56.9632 67.8059 56.8532 67.8665C56.7446 67.9272 56.6085 67.9575 56.4449 67.9575ZM56.5761 67.6C56.6847 67.6 56.7799 67.5753 56.8616 67.526C56.9434 67.4752 57.0062 67.4033 57.0499 67.3102C57.0936 67.2171 57.1155 67.1078 57.1155 66.9823V66.7158L57.0753 66.7073C57.0316 66.7397 56.9766 66.7672 56.9103 66.7898C56.8454 66.811 56.7524 66.8314 56.6311 66.8512C56.4675 66.8751 56.3511 66.9181 56.282 66.9802C56.2143 67.0408 56.1805 67.1269 56.1805 67.2383C56.1805 67.3567 56.215 67.447 56.2841 67.509C56.3532 67.5697 56.4506 67.6 56.5761 67.6ZM58.317 67.9131V65.5798H58.7655V65.9352L58.8099 65.9458C58.8663 65.8118 58.9432 65.7138 59.0405 65.6517C59.1378 65.5897 59.2556 65.5586 59.3938 65.5586C59.5419 65.5586 59.6519 65.584 59.7238 65.6348L59.6307 66.0346L59.5863 66.0431C59.5468 66.0247 59.5066 66.0113 59.4657 66.0029C59.4248 65.993 59.3776 65.9881 59.324 65.9881C59.1491 65.9881 59.0151 66.0515 58.9221 66.1785C58.829 66.3054 58.7824 66.5106 58.7824 66.794V67.9131H58.317ZM60.1363 67.9131V65.5798H60.5848V65.9352L60.6292 65.9458C60.6856 65.8118 60.7625 65.7138 60.8598 65.6517C60.9571 65.5897 61.0748 65.5586 61.213 65.5586C61.3611 65.5586 61.4711 65.584 61.543 65.6348L61.45 66.0346L61.4055 66.0431C61.3661 66.0247 61.3259 66.0113 61.285 66.0029C61.2441 65.993 61.1968 65.9881 61.1432 65.9881C60.9684 65.9881 60.8344 66.0515 60.7413 66.1785C60.6482 66.3054 60.6017 66.5106 60.6017 66.794V67.9131H60.1363ZM63.7854 66.8512H62.2327C62.2595 67.3194 62.4766 67.5535 62.8842 67.5535C63.0351 67.5535 63.1564 67.5267 63.2481 67.4731C63.3411 67.4181 63.4145 67.3335 63.4681 67.2192H63.5125L63.8192 67.4096C63.7473 67.576 63.6352 67.7093 63.4829 67.8094C63.332 67.9081 63.1324 67.9575 62.8842 67.9575C62.6515 67.9575 62.4506 67.9124 62.2813 67.8221C62.1121 67.7319 61.9816 67.5965 61.89 67.416C61.7983 67.2355 61.7525 67.0126 61.7525 66.7475C61.7525 66.4824 61.8004 66.2588 61.8963 66.0769C61.9922 65.895 62.1234 65.7596 62.2898 65.6708C62.4562 65.5805 62.6438 65.5354 62.8525 65.5354C63.167 65.5354 63.4095 65.6214 63.5802 65.7934C63.7522 65.9655 63.839 66.2186 63.8404 66.5529C63.8404 66.6784 63.8369 66.7694 63.8298 66.8258L63.7854 66.8512ZM63.3898 66.519C63.3842 66.3061 63.3355 66.151 63.2438 66.0536C63.1536 65.9563 63.0231 65.9077 62.8525 65.9077C62.6804 65.9077 62.5422 65.9563 62.4379 66.0536C62.3349 66.151 62.27 66.3061 62.2432 66.519H63.3898ZM65.2154 67.9575C65.0292 67.9575 64.8642 67.9131 64.7204 67.8242C64.578 67.734 64.4665 67.5986 64.3862 67.4181C64.3058 67.2376 64.2656 67.014 64.2656 66.7475C64.2656 66.481 64.3072 66.2574 64.3904 66.0769C64.475 65.895 64.5906 65.7596 64.7373 65.6708C64.8854 65.5805 65.056 65.5354 65.2492 65.5354C65.4001 65.5354 65.5334 65.5629 65.6491 65.6179C65.7647 65.6715 65.8627 65.7582 65.9431 65.8781L65.9875 65.8675V64.6427H66.4529V67.9131H65.9875V67.5915L65.9431 67.5831C65.8712 67.6959 65.7746 67.7869 65.6533 67.856C65.532 67.9237 65.386 67.9575 65.2154 67.9575ZM65.3635 67.5535C65.5553 67.5535 65.7076 67.4872 65.8204 67.3546C65.9332 67.2206 65.9896 67.0183 65.9896 66.7475C65.9896 66.4739 65.9332 66.2708 65.8204 66.1383C65.7076 66.0043 65.5553 65.9373 65.3635 65.9373C64.9531 65.9373 64.7479 66.2074 64.7479 66.7475C64.7479 67.2848 64.9531 67.5535 65.3635 67.5535Z" fill="#0D1216" fill-opacity="0.86"/>
<path d="M73.2411 65.8102L71.8486 67.2026C71.8101 67.2411 71.7478 67.2411 71.7093 67.2026L70.3169 65.8102C70.2015 65.6948 70.0145 65.6948 69.8991 65.8102C69.7838 65.9255 69.7838 66.1126 69.8991 66.2279L71.2916 67.6204C71.5608 67.8896 71.9972 67.8896 72.2663 67.6204L73.6588 66.2279C73.7742 66.1126 73.7742 65.9255 73.6588 65.8102C73.5434 65.6948 73.3564 65.6948 73.2411 65.8102Z" fill="#0E1318" fill-opacity="0.7"/>
<path fill-rule="evenodd" clip-rule="evenodd" d="M132.678 68.4806C132.678 68.6438 132.81 68.776 132.973 68.776C133.137 68.776 133.269 68.6438 133.269 68.4806V66.7083H135.041C135.204 66.7083 135.337 66.576 135.337 66.4129C135.337 66.2498 135.204 66.1175 135.041 66.1175H133.269V64.3452C133.269 64.1821 133.137 64.0498 132.973 64.0498C132.81 64.0498 132.678 64.1821 132.678 64.3452V66.1175H130.906C130.743 66.1175 130.61 66.2498 130.61 66.4129C130.61 66.576 130.743 66.7083 130.906 66.7083H132.678V68.4806Z" fill="#0E1318" fill-opacity="0.7"/>
<rect x="52.6279" y="79.0161" width="7.87701" height="7.87701" rx="1.5754" fill="#394C60" fill-opacity="0.15"/>
<rect x="67.5942" y="81.3794" width="39.3851" height="3.1508" rx="1.5754" fill="#394C60" fill-opacity="0.15"/>
<rect x="52.6279" y="96.3457" width="7.87701" height="7.87701" rx="1.5754" fill="#394C60" fill-opacity="0.15"/>
<rect x="67.5942" y="98.7085" width="61.8345" height="3.1508" rx="1.5754" fill="#394C60" fill-opacity="0.15"/>
<rect x="52.6279" y="113.675" width="7.87701" height="7.87701" rx="1.5754" fill="#394C60" fill-opacity="0.15"/>
<rect x="67.5942" y="116.038" width="63.0161" height="3.1508" rx="1.5754" fill="#394C60" fill-opacity="0.15"/>
<path d="M52.4151 140.426C52.2106 140.426 52.0279 140.4 51.8672 140.348C51.7064 140.294 51.5724 140.224 51.4652 140.138C51.3581 140.052 51.277 139.958 51.222 139.855L51.4885 139.529H51.5414C51.6359 139.677 51.7558 139.792 51.901 139.874C52.0463 139.955 52.2176 139.996 52.4151 139.996C52.6125 139.996 52.7606 139.955 52.8593 139.872C52.958 139.788 53.0074 139.673 53.0074 139.527C53.0074 139.439 52.9912 139.366 52.9587 139.307C52.9263 139.246 52.8727 139.195 52.7979 139.152C52.7246 139.109 52.6245 139.071 52.4976 139.04L52.1189 138.951C51.8453 138.886 51.6422 138.782 51.5097 138.638C51.3785 138.493 51.3129 138.308 51.3129 138.082C51.3129 137.917 51.3545 137.772 51.4377 137.646C51.5209 137.519 51.6422 137.42 51.8016 137.35C51.9624 137.279 52.1535 137.244 52.3749 137.244C52.6104 137.244 52.8106 137.276 52.9756 137.339C53.1406 137.403 53.276 137.5 53.3818 137.631L53.1428 137.959H53.0899C53.001 137.859 52.8981 137.785 52.781 137.737C52.664 137.688 52.5286 137.663 52.3749 137.663C52.1831 137.663 52.0378 137.699 51.9391 137.771C51.8418 137.841 51.7931 137.939 51.7931 138.065C51.7931 138.183 51.8284 138.278 51.8989 138.348C51.9694 138.418 52.09 138.472 52.2606 138.511L52.6499 138.598C52.9503 138.666 53.1674 138.774 53.3014 138.924C53.4368 139.072 53.5045 139.264 53.5045 139.499C53.5045 139.683 53.4636 139.844 53.3818 139.984C53.3014 140.123 53.1794 140.232 53.0158 140.309C52.8537 140.387 52.6534 140.426 52.4151 140.426ZM55.3047 139.918L55.4359 140.259C55.3766 140.312 55.3005 140.353 55.2074 140.381C55.1143 140.411 55.0114 140.426 54.8985 140.426C54.6644 140.426 54.486 140.364 54.3633 140.24C54.2407 140.116 54.1793 139.93 54.1793 139.683V138.42H53.7985V138.046H54.1793V137.572L54.6447 137.496V138.046H55.3512V138.42H54.6447V139.645C54.6447 139.775 54.6715 139.869 54.7251 139.927C54.7801 139.984 54.8584 140.013 54.9599 140.013C55.0741 140.013 55.1743 139.982 55.2603 139.918H55.3047ZM56.4449 140.426C56.2164 140.426 56.0373 140.365 55.9076 140.244C55.7779 140.121 55.713 139.948 55.713 139.723C55.713 139.585 55.7419 139.469 55.7997 139.374C55.8575 139.28 55.9478 139.203 56.0705 139.144C56.1932 139.083 56.3525 139.037 56.5486 139.004C56.7023 138.979 56.8193 138.951 56.8997 138.92C56.9801 138.889 57.0344 138.854 57.0626 138.816C57.0908 138.776 57.1049 138.727 57.1049 138.668C57.1049 138.578 57.0732 138.509 57.0097 138.461C56.9477 138.413 56.8461 138.389 56.7051 138.389C56.4386 138.389 56.2122 138.499 56.0261 138.721H55.9838L55.7764 138.416C55.885 138.288 56.0197 138.187 56.1805 138.114C56.3427 138.04 56.5225 138.004 56.7199 138.004C57.0118 138.004 57.2248 138.066 57.3588 138.192C57.4942 138.317 57.5618 138.494 57.5618 138.721V139.846C57.5618 139.963 57.6119 140.022 57.712 140.022C57.7487 140.022 57.784 140.015 57.8178 140.003L57.8474 140.011L57.8876 140.335C57.8594 140.355 57.8199 140.37 57.7692 140.381C57.7198 140.393 57.6669 140.398 57.6105 140.398C57.4765 140.398 57.3736 140.371 57.3017 140.316C57.2311 140.261 57.1825 140.177 57.1557 140.064L57.1113 140.06C57.0492 140.182 56.9632 140.274 56.8532 140.335C56.7446 140.395 56.6085 140.426 56.4449 140.426ZM56.5761 140.068C56.6847 140.068 56.7799 140.044 56.8616 139.994C56.9434 139.943 57.0062 139.872 57.0499 139.778C57.0936 139.685 57.1155 139.576 57.1155 139.451V139.184L57.0753 139.176C57.0316 139.208 56.9766 139.236 56.9103 139.258C56.8454 139.279 56.7524 139.3 56.6311 139.319C56.4675 139.343 56.3511 139.386 56.282 139.448C56.2143 139.509 56.1805 139.595 56.1805 139.707C56.1805 139.825 56.215 139.915 56.2841 139.977C56.3532 140.038 56.4506 140.068 56.5761 140.068ZM58.317 140.381V138.048H58.7655V138.403L58.8099 138.414C58.8663 138.28 58.9432 138.182 59.0405 138.12C59.1378 138.058 59.2556 138.027 59.3938 138.027C59.5419 138.027 59.6519 138.052 59.7238 138.103L59.6307 138.503L59.5863 138.511C59.5468 138.493 59.5066 138.48 59.4657 138.471C59.4248 138.461 59.3776 138.456 59.324 138.456C59.1491 138.456 59.0151 138.52 58.9221 138.647C58.829 138.774 58.7824 138.979 58.7824 139.262V140.381H58.317ZM60.1363 140.381V138.048H60.5848V138.403L60.6292 138.414C60.6856 138.28 60.7625 138.182 60.8598 138.12C60.9571 138.058 61.0748 138.027 61.213 138.027C61.3611 138.027 61.4711 138.052 61.543 138.103L61.45 138.503L61.4055 138.511C61.3661 138.493 61.3259 138.48 61.285 138.471C61.2441 138.461 61.1968 138.456 61.1432 138.456C60.9684 138.456 60.8344 138.52 60.7413 138.647C60.6482 138.774 60.6017 138.979 60.6017 139.262V140.381H60.1363ZM63.7854 139.319H62.2327C62.2595 139.788 62.4766 140.022 62.8842 140.022C63.0351 140.022 63.1564 139.995 63.2481 139.941C63.3411 139.886 63.4145 139.802 63.4681 139.687H63.5125L63.8192 139.878C63.7473 140.044 63.6352 140.178 63.4829 140.278C63.332 140.376 63.1324 140.426 62.8842 140.426C62.6515 140.426 62.4506 140.381 62.2813 140.29C62.1121 140.2 61.9816 140.065 61.89 139.884C61.7983 139.704 61.7525 139.481 61.7525 139.216C61.7525 138.951 61.8004 138.727 61.8963 138.545C61.9922 138.363 62.1234 138.228 62.2898 138.139C62.4562 138.049 62.6438 138.004 62.8525 138.004C63.167 138.004 63.4095 138.09 63.5802 138.262C63.7522 138.434 63.839 138.687 63.8404 139.021C63.8404 139.147 63.8369 139.238 63.8298 139.294L63.7854 139.319ZM63.3898 138.987C63.3842 138.774 63.3355 138.619 63.2438 138.522C63.1536 138.425 63.0231 138.376 62.8525 138.376C62.6804 138.376 62.5422 138.425 62.4379 138.522C62.3349 138.619 62.27 138.774 62.2432 138.987H63.3898ZM65.2154 140.426C65.0292 140.426 64.8642 140.381 64.7204 140.293C64.578 140.202 64.4665 140.067 64.3862 139.886C64.3058 139.706 64.2656 139.482 64.2656 139.216C64.2656 138.949 64.3072 138.726 64.3904 138.545C64.475 138.363 64.5906 138.228 64.7373 138.139C64.8854 138.049 65.056 138.004 65.2492 138.004C65.4001 138.004 65.5334 138.031 65.6491 138.086C65.7647 138.14 65.8627 138.226 65.9431 138.346L65.9875 138.336V137.111H66.4529V140.381H65.9875V140.06L65.9431 140.051C65.8712 140.164 65.7746 140.255 65.6533 140.324C65.532 140.392 65.386 140.426 65.2154 140.426ZM65.3635 140.022C65.5553 140.022 65.7076 139.955 65.8204 139.823C65.9332 139.689 65.9896 139.487 65.9896 139.216C65.9896 138.942 65.9332 138.739 65.8204 138.607C65.7076 138.473 65.5553 138.406 65.3635 138.406C64.9531 138.406 64.7479 138.676 64.7479 139.216C64.7479 139.753 64.9531 140.022 65.3635 140.022ZM68.3356 140.381V138.42H67.9675V138.046H68.3356C68.3102 137.942 68.2975 137.847 68.2975 137.762C68.2975 137.613 68.3307 137.486 68.397 137.382C68.4633 137.277 68.5563 137.199 68.6762 137.147C68.7975 137.093 68.9392 137.067 69.1014 137.067C69.3468 137.067 69.5322 137.114 69.6578 137.208L69.5224 137.545L69.4779 137.553C69.3877 137.485 69.272 137.452 69.131 137.452C69.0097 137.452 68.9181 137.483 68.856 137.545C68.7954 137.605 68.7651 137.69 68.7651 137.798C68.7651 137.879 68.777 137.961 68.801 138.046H69.5054V138.42H68.801V140.381H68.3356ZM70.8678 140.426C70.6435 140.426 70.4475 140.379 70.2797 140.286C70.1119 140.193 69.9821 140.056 69.8904 139.874C69.7988 139.692 69.7529 139.472 69.7529 139.216C69.7529 138.958 69.7988 138.738 69.8904 138.558C69.9821 138.376 70.1119 138.238 70.2797 138.145C70.4475 138.051 70.6435 138.004 70.8678 138.004C71.092 138.004 71.288 138.051 71.4559 138.145C71.6237 138.238 71.7534 138.376 71.8451 138.558C71.9382 138.738 71.9847 138.958 71.9847 139.216C71.9847 139.472 71.9382 139.692 71.8451 139.874C71.7534 140.056 71.6237 140.193 71.4559 140.286C71.288 140.379 71.092 140.426 70.8678 140.426ZM70.8678 140.022C71.2894 140.022 71.5003 139.753 71.5003 139.216C71.5003 138.676 71.2894 138.406 70.8678 138.406C70.6633 138.406 70.5067 138.472 70.3981 138.604C70.2896 138.736 70.2353 138.939 70.2353 139.216C70.2353 139.753 70.4461 140.022 70.8678 140.022ZM72.5876 140.381V138.048H73.0361V138.403L73.0805 138.414C73.1369 138.28 73.2138 138.182 73.3111 138.12C73.4084 138.058 73.5261 138.027 73.6643 138.027C73.8124 138.027 73.9224 138.052 73.9943 138.103L73.9013 138.503L73.8568 138.511C73.8174 138.493 73.7772 138.48 73.7363 138.471C73.6954 138.461 73.6481 138.456 73.5945 138.456C73.4197 138.456 73.2857 138.52 73.1926 138.647C73.0995 138.774 73.053 138.979 73.053 139.262V140.381H72.5876ZM76.6746 139.918L76.8057 140.259C76.7465 140.312 76.6703 140.353 76.5773 140.381C76.4842 140.411 76.3812 140.426 76.2684 140.426C76.0343 140.426 75.8559 140.364 75.7332 140.24C75.6105 140.116 75.5492 139.93 75.5492 139.683V138.42H75.1684V138.046H75.5492V137.572L76.0146 137.496V138.046H76.7211V138.42H76.0146V139.645C76.0146 139.775 76.0414 139.869 76.0949 139.927C76.1499 139.984 76.2282 140.013 76.3298 140.013C76.444 140.013 76.5441 139.982 76.6301 139.918H76.6746ZM79.1136 139.319H77.5609C77.5877 139.788 77.8049 140.022 78.2125 140.022C78.3634 140.022 78.4846 139.995 78.5763 139.941C78.6694 139.886 78.7427 139.802 78.7963 139.687H78.8407L79.1475 139.878C79.0756 140.044 78.9634 140.178 78.8111 140.278C78.6602 140.376 78.4607 140.426 78.2125 140.426C77.9798 140.426 77.7788 140.381 77.6096 140.29C77.4403 140.2 77.3099 140.065 77.2182 139.884C77.1266 139.704 77.0807 139.481 77.0807 139.216C77.0807 138.951 77.1287 138.727 77.2246 138.545C77.3205 138.363 77.4516 138.228 77.618 138.139C77.7844 138.049 77.972 138.004 78.1807 138.004C78.4952 138.004 78.7378 138.09 78.9084 138.262C79.0805 138.434 79.1672 138.687 79.1686 139.021C79.1686 139.147 79.1651 139.238 79.1581 139.294L79.1136 139.319ZM78.718 138.987C78.7124 138.774 78.6638 138.619 78.5721 138.522C78.4818 138.425 78.3514 138.376 78.1807 138.376C78.0087 138.376 77.8705 138.425 77.7661 138.522C77.6632 138.619 77.5983 138.774 77.5715 138.987H78.718ZM80.2983 140.426C80.0698 140.426 79.8907 140.365 79.7609 140.244C79.6312 140.121 79.5663 139.948 79.5663 139.723C79.5663 139.585 79.5952 139.469 79.6531 139.374C79.7109 139.28 79.8011 139.203 79.9238 139.144C80.0465 139.083 80.2059 139.037 80.4019 139.004C80.5556 138.979 80.6727 138.951 80.7531 138.92C80.8335 138.889 80.8878 138.854 80.916 138.816C80.9442 138.776 80.9583 138.727 80.9583 138.668C80.9583 138.578 80.9265 138.509 80.8631 138.461C80.801 138.413 80.6995 138.389 80.5585 138.389C80.2919 138.389 80.0656 138.499 79.8794 138.721H79.8371L79.6298 138.416C79.7384 138.288 79.8731 138.187 80.0338 138.114C80.196 138.04 80.3758 138.004 80.5733 138.004C80.8652 138.004 81.0781 138.066 81.2121 138.192C81.3475 138.317 81.4152 138.494 81.4152 138.721V139.846C81.4152 139.963 81.4653 140.022 81.5654 140.022C81.6021 140.022 81.6373 140.015 81.6712 140.003L81.7008 140.011L81.741 140.335C81.7128 140.355 81.6733 140.37 81.6225 140.381C81.5731 140.393 81.5203 140.398 81.4638 140.398C81.3299 140.398 81.2269 140.371 81.155 140.316C81.0845 140.261 81.0358 140.177 81.009 140.064L80.9646 140.06C80.9026 140.182 80.8165 140.274 80.7065 140.335C80.5979 140.395 80.4619 140.426 80.2983 140.426ZM80.4294 140.068C80.538 140.068 80.6332 140.044 80.715 139.994C80.7968 139.943 80.8595 139.872 80.9033 139.778C80.947 139.685 80.9688 139.576 80.9688 139.451V139.184L80.9287 139.176C80.8849 139.208 80.8299 139.236 80.7636 139.258C80.6988 139.279 80.6057 139.3 80.4844 139.319C80.3208 139.343 80.2045 139.386 80.1354 139.448C80.0677 139.509 80.0338 139.595 80.0338 139.707C80.0338 139.825 80.0684 139.915 80.1375 139.977C80.2066 140.038 80.3039 140.068 80.4294 140.068ZM82.1704 140.381V138.048H82.6146V138.376L82.6591 138.384C82.738 138.256 82.8311 138.161 82.9383 138.099C83.0455 138.035 83.1773 138.004 83.3339 138.004C83.513 138.004 83.654 138.038 83.757 138.107C83.8599 138.176 83.9375 138.282 83.9896 138.425H84.0341C84.1102 138.284 84.2061 138.179 84.3218 138.109C84.4374 138.039 84.5806 138.004 84.7512 138.004C84.9938 138.004 85.1743 138.071 85.2927 138.205C85.4112 138.337 85.4704 138.536 85.4704 138.801V140.381H85.005V138.841C85.005 138.689 84.9733 138.578 84.9099 138.507C84.8478 138.437 84.7477 138.401 84.6095 138.401C84.4402 138.401 84.3048 138.461 84.2033 138.579C84.1032 138.697 84.0531 138.891 84.0531 139.159V140.381H83.5877V138.841C83.5877 138.689 83.556 138.578 83.4925 138.507C83.4305 138.437 83.3303 138.401 83.1921 138.401C83.0229 138.401 82.8875 138.459 82.786 138.575C82.6859 138.69 82.6358 138.877 82.6358 139.135V140.381H82.1704Z" fill="#0E1318" fill-opacity="0.7"/>
<path d="M92.2411 138.278L90.8486 139.671C90.8101 139.709 90.7478 139.709 90.7093 139.671L89.3169 138.278C89.2015 138.163 89.0145 138.163 88.8991 138.278C88.7838 138.394 88.7838 138.581 88.8991 138.696L90.2916 140.089C90.5608 140.358 90.9972 140.358 91.2663 140.089L92.6588 138.696C92.7742 138.581 92.7742 138.394 92.6588 138.278C92.5434 138.163 92.3564 138.163 92.2411 138.278Z" fill="#0E1318" fill-opacity="0.7"/>
<path fill-rule="evenodd" clip-rule="evenodd" d="M132.678 140.949C132.678 141.112 132.81 141.244 132.973 141.244C133.137 141.244 133.269 141.112 133.269 140.949V139.177H135.041C135.204 139.177 135.337 139.044 135.337 138.881C135.337 138.718 135.204 138.586 135.041 138.586H133.269V136.813C133.269 136.65 133.137 136.518 132.973 136.518C132.81 136.518 132.678 136.65 132.678 136.813V138.586H130.906C130.743 138.586 130.61 138.718 130.61 138.881C130.61 139.044 130.743 139.177 130.906 139.177H132.678V140.949Z" fill="#0E1318" fill-opacity="0.7"/>
<rect x="52.6279" y="151.484" width="7.87701" height="7.87701" rx="1.5754" fill="#394C60" fill-opacity="0.15"/>
</g>
<path d="M47.9019 44.3573C47.9019 42.6172 49.3125 41.2065 51.0527 41.2065H136.124C137.865 41.2065 139.275 42.6172 139.275 44.3573V53.8098C139.275 55.5499 137.865 56.9606 136.124 56.9606H51.0527C49.3125 56.9606 47.9019 55.5499 47.9019 53.8098V44.3573Z" fill="#8B3DFF"/>
<path fill-rule="evenodd" clip-rule="evenodd" d="M69.1424 51.151C69.1424 51.3142 69.2747 51.4464 69.4378 51.4464C69.6009 51.4464 69.7332 51.3142 69.7332 51.151V49.3787H71.5055C71.6687 49.3787 71.8009 49.2465 71.8009 49.0833C71.8009 48.9202 71.6687 48.7879 71.5055 48.7879H69.7332V47.0156C69.7332 46.8525 69.6009 46.7202 69.4378 46.7202C69.2747 46.7202 69.1424 46.8525 69.1424 47.0156V48.7879H67.3701C67.207 48.7879 67.0747 48.9202 67.0747 49.0833C67.0747 49.2465 67.207 49.3787 67.3701 49.3787H69.1424V51.151Z" fill="white"/>
<path d="M78.3398 50.64C77.9862 50.64 77.673 50.5629 77.4002 50.4085C77.1274 50.2541 76.9138 50.0253 76.7594 49.7219C76.6051 49.4186 76.5279 49.0498 76.5279 48.6154C76.5279 48.181 76.6051 47.8122 76.7594 47.5088C76.9138 47.2055 77.1274 46.9767 77.4002 46.8223C77.673 46.6679 77.9862 46.5908 78.3398 46.5908C78.7132 46.5908 79.0264 46.6626 79.2794 46.8061C79.5343 46.9497 79.7174 47.1669 79.8287 47.4577L79.3952 47.7296H79.3279C79.2328 47.5142 79.1053 47.3608 78.9456 47.2692C78.7876 47.1777 78.5857 47.1319 78.3398 47.1319C77.9844 47.1319 77.7017 47.2513 77.4917 47.49C77.2817 47.7287 77.1767 48.1039 77.1767 48.6154C77.1767 49.1251 77.2817 49.4994 77.4917 49.7381C77.7017 49.975 77.9844 50.0935 78.3398 50.0935C78.6091 50.0935 78.828 50.0316 78.9967 49.9077C79.1673 49.7821 79.2884 49.5837 79.3602 49.3127H79.4275L79.8691 49.5389C79.7686 49.8996 79.59 50.1734 79.3333 50.36C79.0784 50.5467 78.7473 50.64 78.3398 50.64ZM80.5098 50.5835V47.6138H81.0806V48.0662L81.1372 48.0796C81.209 47.9091 81.3068 47.7844 81.4306 47.7054C81.5545 47.6264 81.7043 47.5869 81.8802 47.5869C82.0687 47.5869 82.2087 47.6192 82.3002 47.6838L82.1818 48.1927L82.1252 48.2035C82.075 48.1801 82.0238 48.1631 81.9718 48.1523C81.9197 48.1398 81.8596 48.1335 81.7914 48.1335C81.5688 48.1335 81.3983 48.2142 81.2799 48.3758C81.1614 48.5373 81.1022 48.7985 81.1022 49.1592V50.5835H80.5098ZM85.1541 49.2319H83.178C83.2121 49.8278 83.4885 50.1258 84.0072 50.1258C84.1992 50.1258 84.3536 50.0917 84.4703 50.0235C84.5887 49.9535 84.6821 49.8458 84.7503 49.7004H84.8068L85.1972 49.9427C85.1057 50.1545 84.963 50.3241 84.7691 50.4516C84.5771 50.5772 84.3231 50.64 84.0072 50.64C83.711 50.64 83.4553 50.5826 83.2399 50.4677C83.0245 50.3529 82.8585 50.1805 82.7418 49.9508C82.6251 49.7211 82.5668 49.4375 82.5668 49.1C82.5668 48.7626 82.6278 48.4781 82.7499 48.2465C82.8719 48.015 83.0388 47.8427 83.2506 47.7296C83.4624 47.6147 83.7012 47.5573 83.9668 47.5573C84.3671 47.5573 84.6758 47.6668 84.893 47.8858C85.1119 48.1047 85.2223 48.4269 85.2241 48.8523C85.2241 49.0121 85.2196 49.1278 85.2107 49.1996L85.1541 49.2319ZM84.6507 48.8092C84.6435 48.5382 84.5816 48.3408 84.4649 48.2169C84.35 48.0931 84.184 48.0312 83.9668 48.0312C83.7478 48.0312 83.5719 48.0931 83.4391 48.2169C83.3081 48.3408 83.2255 48.5382 83.1914 48.8092H84.6507ZM86.6618 50.64C86.3711 50.64 86.1431 50.5629 85.978 50.4085C85.8129 50.2523 85.7303 50.0316 85.7303 49.7462C85.7303 49.5703 85.7671 49.4222 85.8407 49.3019C85.9143 49.1817 86.0291 49.0839 86.1853 49.0085C86.3414 48.9313 86.5443 48.8721 86.7938 48.8308C86.9894 48.7985 87.1384 48.7626 87.2407 48.7231C87.343 48.6836 87.4121 48.6396 87.448 48.5912C87.4839 48.5409 87.5018 48.4781 87.5018 48.4027C87.5018 48.2878 87.4615 48.1999 87.3807 48.1389C87.3017 48.0778 87.1725 48.0473 86.993 48.0473C86.6538 48.0473 86.3657 48.1882 86.1288 48.47H86.0749L85.8111 48.0823C85.9493 47.919 86.1207 47.7906 86.3253 47.6973C86.5317 47.604 86.7606 47.5573 87.0118 47.5573C87.3834 47.5573 87.6544 47.6372 87.8249 47.7969C87.9972 47.9567 88.0834 48.181 88.0834 48.47V49.9023C88.0834 50.0513 88.1471 50.1258 88.2745 50.1258C88.3212 50.1258 88.3661 50.1177 88.4092 50.1016L88.4469 50.1123L88.498 50.5243C88.4621 50.5494 88.4119 50.5691 88.3472 50.5835C88.2844 50.5979 88.2171 50.605 88.1453 50.605C87.9748 50.605 87.8438 50.57 87.7522 50.5C87.6625 50.43 87.6006 50.3232 87.5665 50.1796L87.5099 50.1743C87.4309 50.3304 87.3215 50.4471 87.1815 50.5243C87.0433 50.6014 86.87 50.64 86.6618 50.64ZM86.8288 50.185C86.967 50.185 87.0881 50.1536 87.1922 50.0908C87.2963 50.0262 87.3762 49.9346 87.4318 49.8162C87.4875 49.6977 87.5153 49.5586 87.5153 49.3989V49.0596L87.4642 49.0489C87.4085 49.0901 87.3385 49.1251 87.2542 49.1539C87.1716 49.1808 87.0531 49.2068 86.8988 49.2319C86.6906 49.2625 86.5425 49.3172 86.4545 49.3962C86.3684 49.4734 86.3253 49.5828 86.3253 49.7246C86.3253 49.8754 86.3693 49.9903 86.4572 50.0693C86.5452 50.1464 86.669 50.185 86.8288 50.185ZM90.563 49.9939L90.73 50.4273C90.6546 50.4955 90.5576 50.5476 90.4392 50.5835C90.3207 50.6212 90.1897 50.64 90.0461 50.64C89.7482 50.64 89.5211 50.5611 89.3649 50.4031C89.2088 50.2452 89.1307 50.0091 89.1307 49.695V48.0877H88.6461V47.6112H89.1307V47.0081L89.723 46.9111V47.6112H90.6223V48.0877H89.723V49.6466C89.723 49.8117 89.7571 49.9311 89.8253 50.0046C89.8953 50.0782 89.995 50.115 90.1242 50.115C90.2696 50.115 90.397 50.0746 90.5065 49.9939H90.563ZM93.6673 49.2319H91.6911C91.7252 49.8278 92.0016 50.1258 92.5204 50.1258C92.7124 50.1258 92.8668 50.0917 92.9834 50.0235C93.1019 49.9535 93.1952 49.8458 93.2634 49.7004H93.32L93.7104 49.9427C93.6188 50.1545 93.4761 50.3241 93.2823 50.4516C93.0902 50.5772 92.8363 50.64 92.5204 50.64C92.2242 50.64 91.9684 50.5826 91.753 50.4677C91.5377 50.3529 91.3716 50.1805 91.255 49.9508C91.1383 49.7211 91.08 49.4375 91.08 49.1C91.08 48.7626 91.141 48.4781 91.263 48.2465C91.3851 48.015 91.552 47.8427 91.7638 47.7296C91.9756 47.6147 92.2143 47.5573 92.48 47.5573C92.8802 47.5573 93.189 47.6668 93.4061 47.8858C93.6251 48.1047 93.7355 48.4269 93.7373 48.8523C93.7373 49.0121 93.7328 49.1278 93.7238 49.1996L93.6673 49.2319ZM93.1638 48.8092C93.1567 48.5382 93.0947 48.3408 92.9781 48.2169C92.8632 48.0931 92.6972 48.0312 92.48 48.0312C92.261 48.0312 92.0851 48.0931 91.9523 48.2169C91.8213 48.3408 91.7387 48.5382 91.7046 48.8092H93.1638ZM96.505 50.64C96.2143 50.64 95.9863 50.5629 95.8212 50.4085C95.656 50.2523 95.5735 50.0316 95.5735 49.7462C95.5735 49.5703 95.6103 49.4222 95.6839 49.3019C95.7575 49.1817 95.8723 49.0839 96.0285 49.0085C96.1846 48.9313 96.3875 48.8721 96.6369 48.8308C96.8326 48.7985 96.9816 48.7626 97.0839 48.7231C97.1862 48.6836 97.2553 48.6396 97.2912 48.5912C97.3271 48.5409 97.345 48.4781 97.345 48.4027C97.345 48.2878 97.3046 48.1999 97.2239 48.1389C97.1449 48.0778 97.0157 48.0473 96.8362 48.0473C96.4969 48.0473 96.2089 48.1882 95.9719 48.47H95.9181L95.6542 48.0823C95.7925 47.919 95.9639 47.7906 96.1685 47.6973C96.3749 47.604 96.6037 47.5573 96.855 47.5573C97.2266 47.5573 97.4976 47.6372 97.6681 47.7969C97.8404 47.9567 97.9266 48.181 97.9266 48.47V49.9023C97.9266 50.0513 97.9903 50.1258 98.1177 50.1258C98.1644 50.1258 98.2093 50.1177 98.2524 50.1016L98.29 50.1123L98.3412 50.5243C98.3053 50.5494 98.255 50.5691 98.1904 50.5835C98.1276 50.5979 98.0603 50.605 97.9885 50.605C97.818 50.605 97.687 50.57 97.5954 50.5C97.5057 50.43 97.4438 50.3232 97.4097 50.1796L97.3531 50.1743C97.2741 50.3304 97.1646 50.4471 97.0246 50.5243C96.8864 50.6014 96.7132 50.64 96.505 50.64ZM96.6719 50.185C96.8102 50.185 96.9313 50.1536 97.0354 50.0908C97.1395 50.0262 97.2194 49.9346 97.275 49.8162C97.3307 49.6977 97.3585 49.5586 97.3585 49.3989V49.0596L97.3073 49.0489C97.2517 49.0901 97.1817 49.1251 97.0973 49.1539C97.0148 49.1808 96.8963 49.2068 96.742 49.2319C96.5337 49.2625 96.3857 49.3172 96.2977 49.3962C96.2116 49.4734 96.1685 49.5828 96.1685 49.7246C96.1685 49.8754 96.2125 49.9903 96.3004 50.0693C96.3884 50.1464 96.5122 50.185 96.6719 50.185ZM101.249 50.64C101.012 50.64 100.802 50.5835 100.619 50.4704C100.438 50.3555 100.296 50.1832 100.194 49.9535C100.091 49.7237 100.04 49.4393 100.04 49.1C100.04 48.7608 100.093 48.4763 100.199 48.2465C100.307 48.015 100.454 47.8427 100.64 47.7296C100.829 47.6147 101.046 47.5573 101.292 47.5573C101.484 47.5573 101.654 47.5923 101.801 47.6623C101.948 47.7305 102.073 47.8409 102.175 47.9935L102.232 47.98V46.4211H102.824V50.5835H102.232V50.1743L102.175 50.1635C102.084 50.3071 101.961 50.4229 101.806 50.5108C101.652 50.597 101.466 50.64 101.249 50.64ZM101.437 50.1258C101.681 50.1258 101.875 50.0414 102.019 49.8727C102.163 49.7022 102.234 49.4446 102.234 49.1C102.234 48.7518 102.163 48.4933 102.019 48.3246C101.875 48.1541 101.681 48.0689 101.437 48.0689C100.915 48.0689 100.654 48.4126 100.654 49.1C100.654 49.7839 100.915 50.1258 101.437 50.1258ZM106.181 49.2319H104.205C104.239 49.8278 104.516 50.1258 105.034 50.1258C105.226 50.1258 105.381 50.0917 105.497 50.0235C105.616 49.9535 105.709 49.8458 105.777 49.7004H105.834L106.224 49.9427C106.133 50.1545 105.99 50.3241 105.796 50.4516C105.604 50.5772 105.35 50.64 105.034 50.64C104.738 50.64 104.482 50.5826 104.267 50.4677C104.052 50.3529 103.886 50.1805 103.769 49.9508C103.652 49.7211 103.594 49.4375 103.594 49.1C103.594 48.7626 103.655 48.4781 103.777 48.2465C103.899 48.015 104.066 47.8427 104.278 47.7296C104.49 47.6147 104.728 47.5573 104.994 47.5573C105.394 47.5573 105.703 47.6668 105.92 47.8858C106.139 48.1047 106.249 48.4269 106.251 48.8523C106.251 49.0121 106.247 49.1278 106.238 49.1996L106.181 49.2319ZM105.678 48.8092C105.671 48.5382 105.609 48.3408 105.492 48.2169C105.377 48.0931 105.211 48.0312 104.994 48.0312C104.775 48.0312 104.599 48.0931 104.466 48.2169C104.335 48.3408 104.253 48.5382 104.219 48.8092H105.678ZM107.869 50.64C107.676 50.64 107.496 50.6158 107.331 50.5673C107.168 50.5189 107.028 50.4525 106.914 50.3681C106.801 50.282 106.718 50.185 106.666 50.0773L107.002 49.7193H107.059C107.255 50.0011 107.526 50.142 107.872 50.142C108.053 50.142 108.191 50.1078 108.284 50.0396C108.379 49.9696 108.427 49.8727 108.427 49.7489C108.427 49.6519 108.395 49.5721 108.332 49.5093C108.271 49.4446 108.174 49.3962 108.039 49.3639L107.592 49.2535C107.312 49.1871 107.107 49.083 106.976 48.9412C106.846 48.7976 106.782 48.619 106.782 48.4054C106.782 48.2313 106.826 48.0805 106.914 47.9531C107.003 47.8256 107.13 47.7278 107.293 47.6596C107.457 47.5914 107.649 47.5573 107.869 47.5573C108.14 47.5573 108.358 47.5959 108.524 47.6731C108.691 47.7485 108.821 47.8526 108.914 47.9854L108.591 48.3219H108.537C108.449 48.2196 108.35 48.146 108.241 48.1012C108.133 48.0563 108.009 48.0339 107.869 48.0339C107.695 48.0339 107.564 48.0635 107.476 48.1227C107.388 48.1801 107.344 48.2645 107.344 48.3758C107.344 48.4745 107.377 48.5544 107.441 48.6154C107.506 48.6764 107.618 48.7258 107.778 48.7635L108.209 48.8631C108.489 48.9259 108.691 49.0282 108.817 49.17C108.945 49.3118 109.008 49.4967 109.008 49.7246C109.008 49.9059 108.964 50.0657 108.876 50.2039C108.788 50.3403 108.659 50.4471 108.489 50.5243C108.318 50.6014 108.112 50.64 107.869 50.64ZM110.012 47.1481C109.899 47.1481 109.807 47.1131 109.735 47.0431C109.663 46.9731 109.627 46.8833 109.627 46.7738C109.627 46.6661 109.663 46.5773 109.735 46.5073C109.807 46.4373 109.899 46.4023 110.012 46.4023C110.126 46.4023 110.218 46.4373 110.29 46.5073C110.363 46.5773 110.4 46.6661 110.4 46.7738C110.4 46.8833 110.364 46.9731 110.292 47.0431C110.221 47.1131 110.127 47.1481 110.012 47.1481ZM109.716 50.5835V47.6138H110.309V50.5835H109.716ZM112.317 51.8435C111.838 51.8435 111.486 51.7681 111.262 51.6174C111.037 51.4684 110.925 51.2656 110.925 51.0089C110.925 50.8473 110.975 50.7163 111.076 50.6158C111.176 50.5153 111.321 50.4462 111.509 50.4085V50.352C111.414 50.2963 111.344 50.2326 111.299 50.1608C111.255 50.0872 111.232 50.002 111.232 49.905C111.232 49.6735 111.382 49.5191 111.682 49.4419V49.3854C111.359 49.2077 111.197 48.9304 111.197 48.5535C111.197 48.3578 111.242 48.1846 111.332 48.0339C111.421 47.8831 111.551 47.7664 111.719 47.6838C111.888 47.5995 112.088 47.5573 112.32 47.5573C112.568 47.5573 112.77 47.6058 112.928 47.7027C113.032 47.5735 113.093 47.4146 113.109 47.2262L113.165 47.1911L113.612 47.2988C113.596 47.4442 113.553 47.5681 113.483 47.6704C113.413 47.7709 113.31 47.8562 113.173 47.9262V47.9854C113.351 48.1308 113.44 48.3363 113.44 48.6019C113.44 48.7868 113.394 48.9537 113.303 49.1027C113.213 49.2499 113.083 49.3657 112.912 49.45C112.743 49.5344 112.546 49.5766 112.32 49.5766C112.3 49.5766 112.258 49.5748 112.193 49.5712C112.121 49.5676 112.07 49.5658 112.04 49.5658C111.959 49.5658 111.895 49.5873 111.849 49.6304C111.802 49.6735 111.779 49.7282 111.779 49.7946C111.779 49.8718 111.806 49.9302 111.859 49.9696C111.915 50.0091 112.002 50.0316 112.121 50.037L112.804 50.0612C113.431 50.0809 113.744 50.3502 113.744 50.8689C113.744 51.0538 113.696 51.2189 113.599 51.3643C113.502 51.5115 113.347 51.6281 113.133 51.7143C112.921 51.8004 112.649 51.8435 112.317 51.8435ZM112.32 49.1269C112.496 49.1269 112.632 49.0785 112.729 48.9816C112.828 48.8846 112.877 48.7473 112.877 48.5696C112.877 48.3901 112.829 48.2519 112.732 48.155C112.635 48.0563 112.498 48.0069 112.32 48.0069C112.14 48.0069 112.003 48.0554 111.908 48.1523C111.813 48.2492 111.765 48.3883 111.765 48.5696C111.765 48.7473 111.813 48.8846 111.908 48.9816C112.003 49.0785 112.14 49.1269 112.32 49.1269ZM112.317 51.3858C112.606 51.3858 112.816 51.3418 112.947 51.2539C113.08 51.1677 113.146 51.0582 113.146 50.9254C113.146 50.8123 113.112 50.7307 113.044 50.6804C112.978 50.6302 112.865 50.6014 112.705 50.5943L112.08 50.562L111.981 50.5593C111.821 50.5611 111.702 50.5943 111.625 50.6589C111.548 50.7253 111.509 50.8159 111.509 50.9308C111.509 51.0798 111.577 51.1929 111.711 51.27C111.846 51.3472 112.048 51.3858 112.317 51.3858ZM114.326 50.5835V47.6138H114.891V48.0635L114.948 48.0769C115.043 47.9064 115.166 47.7772 115.316 47.6892C115.467 47.6013 115.651 47.5573 115.868 47.5573C116.218 47.5573 116.473 47.6497 116.633 47.8346C116.794 48.0177 116.875 48.2932 116.875 48.6612V50.5835H116.283V48.7123C116.283 48.4808 116.237 48.3148 116.146 48.2142C116.054 48.1137 115.907 48.0635 115.704 48.0635C115.462 48.0635 115.27 48.1424 115.128 48.3004C114.988 48.4583 114.918 48.7087 114.918 49.0516V50.5835H114.326Z" fill="white"/>
<path d="M79.1909 30.39C79.1374 30.39 79.0885 30.4246 79.0633 30.4971C78.7404 31.4187 78.304 31.9669 77.9448 31.9669C77.7384 31.9669 77.6549 31.7369 77.6549 31.3762C77.6549 30.4735 78.1953 28.5593 78.4678 27.6866C78.4993 27.581 78.5198 27.4865 78.5198 27.4062C78.5198 27.1525 78.3812 27.0281 78.0377 27.0281C77.6675 27.0281 77.2689 27.173 76.8814 27.852C76.7475 27.2533 76.3426 26.9918 75.777 26.9918C75.1232 26.9918 74.4915 27.4125 73.9716 28.0946C73.4517 28.7768 72.8405 29.0005 72.3805 28.8902C72.7113 28.0804 72.8342 27.4755 72.8342 27.0265C72.8342 26.3223 72.486 25.8969 71.9236 25.8969C71.0682 25.8969 70.575 26.713 70.575 27.5716C70.575 28.2348 70.876 28.917 71.5376 29.2478C70.9831 30.5018 70.1733 31.6361 69.8661 31.6361C69.4691 31.6361 69.3525 29.6936 69.3746 28.3041C69.3888 27.507 69.4549 27.466 69.4549 27.225C69.4549 27.0863 69.3651 26.9918 69.0044 26.9918C68.1631 26.9918 67.9032 27.7039 67.8638 28.5215C67.8512 28.8319 67.8023 29.1407 67.7188 29.44C67.3675 30.694 66.6428 31.6456 66.1702 31.6456C65.9512 31.6456 65.8914 31.4266 65.8914 31.1399C65.8914 30.2371 66.3971 29.1092 66.3971 28.1466C66.3971 27.4392 66.0867 26.9918 65.5023 26.9918C64.8138 26.9918 63.9032 27.811 63.0415 29.3455C63.325 28.1702 63.4416 27.0328 62.6019 27.0328C62.4192 27.0359 62.2412 27.0816 62.0805 27.1683C61.9702 27.2203 61.9025 27.3337 61.9103 27.455C61.9907 28.7059 60.9021 31.9102 59.8702 31.9102C59.6827 31.9102 59.5913 31.707 59.5913 31.3793C59.5913 30.475 60.1301 28.5656 60.4011 27.6913C60.4358 27.5779 60.4547 27.4802 60.4547 27.3951C60.4547 27.1557 60.3066 27.0328 59.971 27.0328C59.6024 27.0328 59.2022 27.173 58.8162 27.852C58.6808 27.2533 58.2759 26.9918 57.7103 26.9918C56.7824 26.9918 55.7458 27.9733 55.2905 29.2525C54.6808 30.9603 53.452 32.6097 51.7978 32.6097C50.2965 32.6097 49.504 31.3604 49.504 29.3864C49.504 26.5365 51.5962 24.2081 53.1479 24.2081C53.89 24.2081 54.2444 24.6807 54.2444 25.4054C54.2444 26.2829 53.7545 26.6909 53.7545 27.0249C53.7545 27.1273 53.8395 27.2281 54.0081 27.2281C54.6824 27.2281 55.4764 26.4357 55.4764 25.355C55.4764 24.2743 54.5989 23.4834 53.0471 23.4834C50.4824 23.4834 47.9019 26.0639 47.9019 29.3707C47.9019 32.0016 49.2 33.588 51.4449 33.588C52.9762 33.588 54.3137 32.397 55.0353 31.0075C55.1172 32.1591 55.6402 32.7609 56.4374 32.7609C57.1463 32.7609 57.7198 32.3387 58.1577 31.5967C58.3263 32.3734 58.7737 32.7531 59.355 32.7531C60.0214 32.7531 60.5791 32.3309 61.11 31.5463C61.1022 32.1623 61.2424 32.742 61.7764 32.742C62.0285 32.742 62.3294 32.6837 62.383 32.4632C62.9454 30.1379 64.3349 28.2395 64.7602 28.2395C64.8863 28.2395 64.9209 28.3608 64.9209 28.5042C64.9209 29.1359 64.4751 30.4309 64.4751 31.258C64.4751 32.1513 64.8548 32.742 65.6393 32.742C66.5089 32.742 67.3927 31.6771 67.9819 30.1206C68.1663 31.5747 68.5648 32.7483 69.1887 32.7483C69.9543 32.7483 71.3139 31.1367 72.1378 29.4305C72.4608 29.4715 72.946 29.4605 73.4123 29.1312C73.2138 29.6338 73.0973 30.1836 73.0973 30.7334C73.0973 32.3167 73.8535 32.7609 74.5041 32.7609C75.2115 32.7609 75.7849 32.3387 76.2244 31.5967C76.3694 32.2663 76.7396 32.7515 77.4202 32.7515C78.4851 32.7515 79.4099 31.6629 79.4099 30.7696C79.4099 30.5333 79.3091 30.39 79.1909 30.39ZM57.0865 31.8834C56.6564 31.8834 56.4878 31.4502 56.4878 30.8043C56.4878 29.6826 57.255 27.8095 58.0664 27.8095C58.4208 27.8095 58.5547 28.2269 58.5547 28.7374C58.5547 29.8764 57.8253 31.8834 57.0865 31.8834ZM71.818 28.5357C71.5613 28.2301 71.4683 27.8142 71.4683 27.444C71.4683 26.9871 71.6353 26.6011 71.8354 26.6011C72.0354 26.6011 72.0969 26.798 72.0969 27.0722C72.0969 27.5306 71.933 28.2002 71.818 28.5357ZM75.1532 31.8834C74.7231 31.8834 74.5545 31.3856 74.5545 30.8043C74.5545 29.722 75.3217 27.8095 76.1394 27.8095C76.4938 27.8095 76.6199 28.2238 76.6199 28.7374C76.6199 29.8764 75.9031 31.8834 75.1532 31.8834Z" fill="#7D2AE7"/>
<path d="M79.1909 30.39C79.1374 30.39 79.0885 30.4246 79.0633 30.4971C78.7404 31.4187 78.304 31.9669 77.9448 31.9669C77.7384 31.9669 77.6549 31.7369 77.6549 31.3762C77.6549 30.4735 78.1953 28.5593 78.4678 27.6866C78.4993 27.581 78.5198 27.4865 78.5198 27.4062C78.5198 27.1525 78.3812 27.0281 78.0377 27.0281C77.6675 27.0281 77.2689 27.173 76.8814 27.852C76.7475 27.2533 76.3426 26.9918 75.777 26.9918C75.1232 26.9918 74.4915 27.4125 73.9716 28.0946C73.4517 28.7768 72.8405 29.0005 72.3805 28.8902C72.7113 28.0804 72.8342 27.4755 72.8342 27.0265C72.8342 26.3223 72.486 25.8969 71.9236 25.8969C71.0682 25.8969 70.575 26.713 70.575 27.5716C70.575 28.2348 70.876 28.917 71.5376 29.2478C70.9831 30.5018 70.1733 31.6361 69.8661 31.6361C69.4691 31.6361 69.3525 29.6936 69.3746 28.3041C69.3888 27.507 69.4549 27.466 69.4549 27.225C69.4549 27.0863 69.3651 26.9918 69.0044 26.9918C68.1631 26.9918 67.9032 27.7039 67.8638 28.5215C67.8512 28.8319 67.8023 29.1407 67.7188 29.44C67.3675 30.694 66.6428 31.6456 66.1702 31.6456C65.9512 31.6456 65.8914 31.4266 65.8914 31.1399C65.8914 30.2371 66.3971 29.1092 66.3971 28.1466C66.3971 27.4392 66.0867 26.9918 65.5023 26.9918C64.8138 26.9918 63.9032 27.811 63.0415 29.3455C63.325 28.1702 63.4416 27.0328 62.6019 27.0328C62.4192 27.0359 62.2412 27.0816 62.0805 27.1683C61.9702 27.2203 61.9025 27.3337 61.9103 27.455C61.9907 28.7059 60.9021 31.9102 59.8702 31.9102C59.6827 31.9102 59.5913 31.707 59.5913 31.3793C59.5913 30.475 60.1301 28.5656 60.4011 27.6913C60.4358 27.5779 60.4547 27.4802 60.4547 27.3951C60.4547 27.1557 60.3066 27.0328 59.971 27.0328C59.6024 27.0328 59.2022 27.173 58.8162 27.852C58.6808 27.2533 58.2759 26.9918 57.7103 26.9918C56.7824 26.9918 55.7458 27.9733 55.2905 29.2525C54.6808 30.9603 53.452 32.6097 51.7978 32.6097C50.2965 32.6097 49.504 31.3604 49.504 29.3864C49.504 26.5365 51.5962 24.2081 53.1479 24.2081C53.89 24.2081 54.2444 24.6807 54.2444 25.4054C54.2444 26.2829 53.7545 26.6909 53.7545 27.0249C53.7545 27.1273 53.8395 27.2281 54.0081 27.2281C54.6824 27.2281 55.4764 26.4357 55.4764 25.355C55.4764 24.2743 54.5989 23.4834 53.0471 23.4834C50.4824 23.4834 47.9019 26.0639 47.9019 29.3707C47.9019 32.0016 49.2 33.588 51.4449 33.588C52.9762 33.588 54.3137 32.397 55.0353 31.0075C55.1172 32.1591 55.6402 32.7609 56.4374 32.7609C57.1463 32.7609 57.7198 32.3387 58.1577 31.5967C58.3263 32.3734 58.7737 32.7531 59.355 32.7531C60.0214 32.7531 60.5791 32.3309 61.11 31.5463C61.1022 32.1623 61.2424 32.742 61.7764 32.742C62.0285 32.742 62.3294 32.6837 62.383 32.4632C62.9454 30.1379 64.3349 28.2395 64.7602 28.2395C64.8863 28.2395 64.9209 28.3608 64.9209 28.5042C64.9209 29.1359 64.4751 30.4309 64.4751 31.258C64.4751 32.1513 64.8548 32.742 65.6393 32.742C66.5089 32.742 67.3927 31.6771 67.9819 30.1206C68.1663 31.5747 68.5648 32.7483 69.1887 32.7483C69.9543 32.7483 71.3139 31.1367 72.1378 29.4305C72.4608 29.4715 72.946 29.4605 73.4123 29.1312C73.2138 29.6338 73.0973 30.1836 73.0973 30.7334C73.0973 32.3167 73.8535 32.7609 74.5041 32.7609C75.2115 32.7609 75.7849 32.3387 76.2244 31.5967C76.3694 32.2663 76.7396 32.7515 77.4202 32.7515C78.4851 32.7515 79.4099 31.6629 79.4099 30.7696C79.4099 30.5333 79.3091 30.39 79.1909 30.39ZM57.0865 31.8834C56.6564 31.8834 56.4878 31.4502 56.4878 30.8043C56.4878 29.6826 57.255 27.8095 58.0664 27.8095C58.4208 27.8095 58.5547 28.2269 58.5547 28.7374C58.5547 29.8764 57.8253 31.8834 57.0865 31.8834ZM71.818 28.5357C71.5613 28.2301 71.4683 27.8142 71.4683 27.444C71.4683 26.9871 71.6353 26.6011 71.8354 26.6011C72.0354 26.6011 72.0969 26.798 72.0969 27.0722C72.0969 27.5306 71.933 28.2002 71.818 28.5357ZM75.1532 31.8834C74.7231 31.8834 74.5545 31.3856 74.5545 30.8043C74.5545 29.722 75.3217 27.8095 76.1394 27.8095C76.4938 27.8095 76.6199 28.2238 76.6199 28.7374C76.6199 29.8764 75.9031 31.8834 75.1532 31.8834Z" fill="url(#paint1_radial_6839_89482)"/>
<path d="M79.1909 30.39C79.1374 30.39 79.0885 30.4246 79.0633 30.4971C78.7404 31.4187 78.304 31.9669 77.9448 31.9669C77.7384 31.9669 77.6549 31.7369 77.6549 31.3762C77.6549 30.4735 78.1953 28.5593 78.4678 27.6866C78.4993 27.581 78.5198 27.4865 78.5198 27.4062C78.5198 27.1525 78.3812 27.0281 78.0377 27.0281C77.6675 27.0281 77.2689 27.173 76.8814 27.852C76.7475 27.2533 76.3426 26.9918 75.777 26.9918C75.1232 26.9918 74.4915 27.4125 73.9716 28.0946C73.4517 28.7768 72.8405 29.0005 72.3805 28.8902C72.7113 28.0804 72.8342 27.4755 72.8342 27.0265C72.8342 26.3223 72.486 25.8969 71.9236 25.8969C71.0682 25.8969 70.575 26.713 70.575 27.5716C70.575 28.2348 70.876 28.917 71.5376 29.2478C70.9831 30.5018 70.1733 31.6361 69.8661 31.6361C69.4691 31.6361 69.3525 29.6936 69.3746 28.3041C69.3888 27.507 69.4549 27.466 69.4549 27.225C69.4549 27.0863 69.3651 26.9918 69.0044 26.9918C68.1631 26.9918 67.9032 27.7039 67.8638 28.5215C67.8512 28.8319 67.8023 29.1407 67.7188 29.44C67.3675 30.694 66.6428 31.6456 66.1702 31.6456C65.9512 31.6456 65.8914 31.4266 65.8914 31.1399C65.8914 30.2371 66.3971 29.1092 66.3971 28.1466C66.3971 27.4392 66.0867 26.9918 65.5023 26.9918C64.8138 26.9918 63.9032 27.811 63.0415 29.3455C63.325 28.1702 63.4416 27.0328 62.6019 27.0328C62.4192 27.0359 62.2412 27.0816 62.0805 27.1683C61.9702 27.2203 61.9025 27.3337 61.9103 27.455C61.9907 28.7059 60.9021 31.9102 59.8702 31.9102C59.6827 31.9102 59.5913 31.707 59.5913 31.3793C59.5913 30.475 60.1301 28.5656 60.4011 27.6913C60.4358 27.5779 60.4547 27.4802 60.4547 27.3951C60.4547 27.1557 60.3066 27.0328 59.971 27.0328C59.6024 27.0328 59.2022 27.173 58.8162 27.852C58.6808 27.2533 58.2759 26.9918 57.7103 26.9918C56.7824 26.9918 55.7458 27.9733 55.2905 29.2525C54.6808 30.9603 53.452 32.6097 51.7978 32.6097C50.2965 32.6097 49.504 31.3604 49.504 29.3864C49.504 26.5365 51.5962 24.2081 53.1479 24.2081C53.89 24.2081 54.2444 24.6807 54.2444 25.4054C54.2444 26.2829 53.7545 26.6909 53.7545 27.0249C53.7545 27.1273 53.8395 27.2281 54.0081 27.2281C54.6824 27.2281 55.4764 26.4357 55.4764 25.355C55.4764 24.2743 54.5989 23.4834 53.0471 23.4834C50.4824 23.4834 47.9019 26.0639 47.9019 29.3707C47.9019 32.0016 49.2 33.588 51.4449 33.588C52.9762 33.588 54.3137 32.397 55.0353 31.0075C55.1172 32.1591 55.6402 32.7609 56.4374 32.7609C57.1463 32.7609 57.7198 32.3387 58.1577 31.5967C58.3263 32.3734 58.7737 32.7531 59.355 32.7531C60.0214 32.7531 60.5791 32.3309 61.11 31.5463C61.1022 32.1623 61.2424 32.742 61.7764 32.742C62.0285 32.742 62.3294 32.6837 62.383 32.4632C62.9454 30.1379 64.3349 28.2395 64.7602 28.2395C64.8863 28.2395 64.9209 28.3608 64.9209 28.5042C64.9209 29.1359 64.4751 30.4309 64.4751 31.258C64.4751 32.1513 64.8548 32.742 65.6393 32.742C66.5089 32.742 67.3927 31.6771 67.9819 30.1206C68.1663 31.5747 68.5648 32.7483 69.1887 32.7483C69.9543 32.7483 71.3139 31.1367 72.1378 29.4305C72.4608 29.4715 72.946 29.4605 73.4123 29.1312C73.2138 29.6338 73.0973 30.1836 73.0973 30.7334C73.0973 32.3167 73.8535 32.7609 74.5041 32.7609C75.2115 32.7609 75.7849 32.3387 76.2244 31.5967C76.3694 32.2663 76.7396 32.7515 77.4202 32.7515C78.4851 32.7515 79.4099 31.6629 79.4099 30.7696C79.4099 30.5333 79.3091 30.39 79.1909 30.39ZM57.0865 31.8834C56.6564 31.8834 56.4878 31.4502 56.4878 30.8043C56.4878 29.6826 57.255 27.8095 58.0664 27.8095C58.4208 27.8095 58.5547 28.2269 58.5547 28.7374C58.5547 29.8764 57.8253 31.8834 57.0865 31.8834ZM71.818 28.5357C71.5613 28.2301 71.4683 27.8142 71.4683 27.444C71.4683 26.9871 71.6353 26.6011 71.8354 26.6011C72.0354 26.6011 72.0969 26.798 72.0969 27.0722C72.0969 27.5306 71.933 28.2002 71.818 28.5357ZM75.1532 31.8834C74.7231 31.8834 74.5545 31.3856 74.5545 30.8043C74.5545 29.722 75.3217 27.8095 76.1394 27.8095C76.4938 27.8095 76.6199 28.2238 76.6199 28.7374C76.6199 29.8764 75.9031 31.8834 75.1532 31.8834Z" fill="url(#paint2_radial_6839_89482)"/>
<path d="M79.1909 30.39C79.1374 30.39 79.0885 30.4246 79.0633 30.4971C78.7404 31.4187 78.304 31.9669 77.9448 31.9669C77.7384 31.9669 77.6549 31.7369 77.6549 31.3762C77.6549 30.4735 78.1953 28.5593 78.4678 27.6866C78.4993 27.581 78.5198 27.4865 78.5198 27.4062C78.5198 27.1525 78.3812 27.0281 78.0377 27.0281C77.6675 27.0281 77.2689 27.173 76.8814 27.852C76.7475 27.2533 76.3426 26.9918 75.777 26.9918C75.1232 26.9918 74.4915 27.4125 73.9716 28.0946C73.4517 28.7768 72.8405 29.0005 72.3805 28.8902C72.7113 28.0804 72.8342 27.4755 72.8342 27.0265C72.8342 26.3223 72.486 25.8969 71.9236 25.8969C71.0682 25.8969 70.575 26.713 70.575 27.5716C70.575 28.2348 70.876 28.917 71.5376 29.2478C70.9831 30.5018 70.1733 31.6361 69.8661 31.6361C69.4691 31.6361 69.3525 29.6936 69.3746 28.3041C69.3888 27.507 69.4549 27.466 69.4549 27.225C69.4549 27.0863 69.3651 26.9918 69.0044 26.9918C68.1631 26.9918 67.9032 27.7039 67.8638 28.5215C67.8512 28.8319 67.8023 29.1407 67.7188 29.44C67.3675 30.694 66.6428 31.6456 66.1702 31.6456C65.9512 31.6456 65.8914 31.4266 65.8914 31.1399C65.8914 30.2371 66.3971 29.1092 66.3971 28.1466C66.3971 27.4392 66.0867 26.9918 65.5023 26.9918C64.8138 26.9918 63.9032 27.811 63.0415 29.3455C63.325 28.1702 63.4416 27.0328 62.6019 27.0328C62.4192 27.0359 62.2412 27.0816 62.0805 27.1683C61.9702 27.2203 61.9025 27.3337 61.9103 27.455C61.9907 28.7059 60.9021 31.9102 59.8702 31.9102C59.6827 31.9102 59.5913 31.707 59.5913 31.3793C59.5913 30.475 60.1301 28.5656 60.4011 27.6913C60.4358 27.5779 60.4547 27.4802 60.4547 27.3951C60.4547 27.1557 60.3066 27.0328 59.971 27.0328C59.6024 27.0328 59.2022 27.173 58.8162 27.852C58.6808 27.2533 58.2759 26.9918 57.7103 26.9918C56.7824 26.9918 55.7458 27.9733 55.2905 29.2525C54.6808 30.9603 53.452 32.6097 51.7978 32.6097C50.2965 32.6097 49.504 31.3604 49.504 29.3864C49.504 26.5365 51.5962 24.2081 53.1479 24.2081C53.89 24.2081 54.2444 24.6807 54.2444 25.4054C54.2444 26.2829 53.7545 26.6909 53.7545 27.0249C53.7545 27.1273 53.8395 27.2281 54.0081 27.2281C54.6824 27.2281 55.4764 26.4357 55.4764 25.355C55.4764 24.2743 54.5989 23.4834 53.0471 23.4834C50.4824 23.4834 47.9019 26.0639 47.9019 29.3707C47.9019 32.0016 49.2 33.588 51.4449 33.588C52.9762 33.588 54.3137 32.397 55.0353 31.0075C55.1172 32.1591 55.6402 32.7609 56.4374 32.7609C57.1463 32.7609 57.7198 32.3387 58.1577 31.5967C58.3263 32.3734 58.7737 32.7531 59.355 32.7531C60.0214 32.7531 60.5791 32.3309 61.11 31.5463C61.1022 32.1623 61.2424 32.742 61.7764 32.742C62.0285 32.742 62.3294 32.6837 62.383 32.4632C62.9454 30.1379 64.3349 28.2395 64.7602 28.2395C64.8863 28.2395 64.9209 28.3608 64.9209 28.5042C64.9209 29.1359 64.4751 30.4309 64.4751 31.258C64.4751 32.1513 64.8548 32.742 65.6393 32.742C66.5089 32.742 67.3927 31.6771 67.9819 30.1206C68.1663 31.5747 68.5648 32.7483 69.1887 32.7483C69.9543 32.7483 71.3139 31.1367 72.1378 29.4305C72.4608 29.4715 72.946 29.4605 73.4123 29.1312C73.2138 29.6338 73.0973 30.1836 73.0973 30.7334C73.0973 32.3167 73.8535 32.7609 74.5041 32.7609C75.2115 32.7609 75.7849 32.3387 76.2244 31.5967C76.3694 32.2663 76.7396 32.7515 77.4202 32.7515C78.4851 32.7515 79.4099 31.6629 79.4099 30.7696C79.4099 30.5333 79.3091 30.39 79.1909 30.39ZM57.0865 31.8834C56.6564 31.8834 56.4878 31.4502 56.4878 30.8043C56.4878 29.6826 57.255 27.8095 58.0664 27.8095C58.4208 27.8095 58.5547 28.2269 58.5547 28.7374C58.5547 29.8764 57.8253 31.8834 57.0865 31.8834ZM71.818 28.5357C71.5613 28.2301 71.4683 27.8142 71.4683 27.444C71.4683 26.9871 71.6353 26.6011 71.8354 26.6011C72.0354 26.6011 72.0969 26.798 72.0969 27.0722C72.0969 27.5306 71.933 28.2002 71.818 28.5357ZM75.1532 31.8834C74.7231 31.8834 74.5545 31.3856 74.5545 30.8043C74.5545 29.722 75.3217 27.8095 76.1394 27.8095C76.4938 27.8095 76.6199 28.2238 76.6199 28.7374C76.6199 29.8764 75.9031 31.8834 75.1532 31.8834Z" fill="url(#paint3_radial_6839_89482)"/>
<path d="M79.1909 30.39C79.1374 30.39 79.0885 30.4246 79.0633 30.4971C78.7404 31.4187 78.304 31.9669 77.9448 31.9669C77.7384 31.9669 77.6549 31.7369 77.6549 31.3762C77.6549 30.4735 78.1953 28.5593 78.4678 27.6866C78.4993 27.581 78.5198 27.4865 78.5198 27.4062C78.5198 27.1525 78.3812 27.0281 78.0377 27.0281C77.6675 27.0281 77.2689 27.173 76.8814 27.852C76.7475 27.2533 76.3426 26.9918 75.777 26.9918C75.1232 26.9918 74.4915 27.4125 73.9716 28.0946C73.4517 28.7768 72.8405 29.0005 72.3805 28.8902C72.7113 28.0804 72.8342 27.4755 72.8342 27.0265C72.8342 26.3223 72.486 25.8969 71.9236 25.8969C71.0682 25.8969 70.575 26.713 70.575 27.5716C70.575 28.2348 70.876 28.917 71.5376 29.2478C70.9831 30.5018 70.1733 31.6361 69.8661 31.6361C69.4691 31.6361 69.3525 29.6936 69.3746 28.3041C69.3888 27.507 69.4549 27.466 69.4549 27.225C69.4549 27.0863 69.3651 26.9918 69.0044 26.9918C68.1631 26.9918 67.9032 27.7039 67.8638 28.5215C67.8512 28.8319 67.8023 29.1407 67.7188 29.44C67.3675 30.694 66.6428 31.6456 66.1702 31.6456C65.9512 31.6456 65.8914 31.4266 65.8914 31.1399C65.8914 30.2371 66.3971 29.1092 66.3971 28.1466C66.3971 27.4392 66.0867 26.9918 65.5023 26.9918C64.8138 26.9918 63.9032 27.811 63.0415 29.3455C63.325 28.1702 63.4416 27.0328 62.6019 27.0328C62.4192 27.0359 62.2412 27.0816 62.0805 27.1683C61.9702 27.2203 61.9025 27.3337 61.9103 27.455C61.9907 28.7059 60.9021 31.9102 59.8702 31.9102C59.6827 31.9102 59.5913 31.707 59.5913 31.3793C59.5913 30.475 60.1301 28.5656 60.4011 27.6913C60.4358 27.5779 60.4547 27.4802 60.4547 27.3951C60.4547 27.1557 60.3066 27.0328 59.971 27.0328C59.6024 27.0328 59.2022 27.173 58.8162 27.852C58.6808 27.2533 58.2759 26.9918 57.7103 26.9918C56.7824 26.9918 55.7458 27.9733 55.2905 29.2525C54.6808 30.9603 53.452 32.6097 51.7978 32.6097C50.2965 32.6097 49.504 31.3604 49.504 29.3864C49.504 26.5365 51.5962 24.2081 53.1479 24.2081C53.89 24.2081 54.2444 24.6807 54.2444 25.4054C54.2444 26.2829 53.7545 26.6909 53.7545 27.0249C53.7545 27.1273 53.8395 27.2281 54.0081 27.2281C54.6824 27.2281 55.4764 26.4357 55.4764 25.355C55.4764 24.2743 54.5989 23.4834 53.0471 23.4834C50.4824 23.4834 47.9019 26.0639 47.9019 29.3707C47.9019 32.0016 49.2 33.588 51.4449 33.588C52.9762 33.588 54.3137 32.397 55.0353 31.0075C55.1172 32.1591 55.6402 32.7609 56.4374 32.7609C57.1463 32.7609 57.7198 32.3387 58.1577 31.5967C58.3263 32.3734 58.7737 32.7531 59.355 32.7531C60.0214 32.7531 60.5791 32.3309 61.11 31.5463C61.1022 32.1623 61.2424 32.742 61.7764 32.742C62.0285 32.742 62.3294 32.6837 62.383 32.4632C62.9454 30.1379 64.3349 28.2395 64.7602 28.2395C64.8863 28.2395 64.9209 28.3608 64.9209 28.5042C64.9209 29.1359 64.4751 30.4309 64.4751 31.258C64.4751 32.1513 64.8548 32.742 65.6393 32.742C66.5089 32.742 67.3927 31.6771 67.9819 30.1206C68.1663 31.5747 68.5648 32.7483 69.1887 32.7483C69.9543 32.7483 71.3139 31.1367 72.1378 29.4305C72.4608 29.4715 72.946 29.4605 73.4123 29.1312C73.2138 29.6338 73.0973 30.1836 73.0973 30.7334C73.0973 32.3167 73.8535 32.7609 74.5041 32.7609C75.2115 32.7609 75.7849 32.3387 76.2244 31.5967C76.3694 32.2663 76.7396 32.7515 77.4202 32.7515C78.4851 32.7515 79.4099 31.6629 79.4099 30.7696C79.4099 30.5333 79.3091 30.39 79.1909 30.39ZM57.0865 31.8834C56.6564 31.8834 56.4878 31.4502 56.4878 30.8043C56.4878 29.6826 57.255 27.8095 58.0664 27.8095C58.4208 27.8095 58.5547 28.2269 58.5547 28.7374C58.5547 29.8764 57.8253 31.8834 57.0865 31.8834ZM71.818 28.5357C71.5613 28.2301 71.4683 27.8142 71.4683 27.444C71.4683 26.9871 71.6353 26.6011 71.8354 26.6011C72.0354 26.6011 72.0969 26.798 72.0969 27.0722C72.0969 27.5306 71.933 28.2002 71.818 28.5357ZM75.1532 31.8834C74.7231 31.8834 74.5545 31.3856 74.5545 30.8043C74.5545 29.722 75.3217 27.8095 76.1394 27.8095C76.4938 27.8095 76.6199 28.2238 76.6199 28.7374C76.6199 29.8764 75.9031 31.8834 75.1532 31.8834Z" fill="url(#paint4_radial_6839_89482)"/>
<path d="M79.1909 30.39C79.1374 30.39 79.0885 30.4246 79.0633 30.4971C78.7404 31.4187 78.304 31.9669 77.9448 31.9669C77.7384 31.9669 77.6549 31.7369 77.6549 31.3762C77.6549 30.4735 78.1953 28.5593 78.4678 27.6866C78.4993 27.581 78.5198 27.4865 78.5198 27.4062C78.5198 27.1525 78.3812 27.0281 78.0377 27.0281C77.6675 27.0281 77.2689 27.173 76.8814 27.852C76.7475 27.2533 76.3426 26.9918 75.777 26.9918C75.1232 26.9918 74.4915 27.4125 73.9716 28.0946C73.4517 28.7768 72.8405 29.0005 72.3805 28.8902C72.7113 28.0804 72.8342 27.4755 72.8342 27.0265C72.8342 26.3223 72.486 25.8969 71.9236 25.8969C71.0682 25.8969 70.575 26.713 70.575 27.5716C70.575 28.2348 70.876 28.917 71.5376 29.2478C70.9831 30.5018 70.1733 31.6361 69.8661 31.6361C69.4691 31.6361 69.3525 29.6936 69.3746 28.3041C69.3888 27.507 69.4549 27.466 69.4549 27.225C69.4549 27.0863 69.3651 26.9918 69.0044 26.9918C68.1631 26.9918 67.9032 27.7039 67.8638 28.5215C67.8512 28.8319 67.8023 29.1407 67.7188 29.44C67.3675 30.694 66.6428 31.6456 66.1702 31.6456C65.9512 31.6456 65.8914 31.4266 65.8914 31.1399C65.8914 30.2371 66.3971 29.1092 66.3971 28.1466C66.3971 27.4392 66.0867 26.9918 65.5023 26.9918C64.8138 26.9918 63.9032 27.811 63.0415 29.3455C63.325 28.1702 63.4416 27.0328 62.6019 27.0328C62.4192 27.0359 62.2412 27.0816 62.0805 27.1683C61.9702 27.2203 61.9025 27.3337 61.9103 27.455C61.9907 28.7059 60.9021 31.9102 59.8702 31.9102C59.6827 31.9102 59.5913 31.707 59.5913 31.3793C59.5913 30.475 60.1301 28.5656 60.4011 27.6913C60.4358 27.5779 60.4547 27.4802 60.4547 27.3951C60.4547 27.1557 60.3066 27.0328 59.971 27.0328C59.6024 27.0328 59.2022 27.173 58.8162 27.852C58.6808 27.2533 58.2759 26.9918 57.7103 26.9918C56.7824 26.9918 55.7458 27.9733 55.2905 29.2525C54.6808 30.9603 53.452 32.6097 51.7978 32.6097C50.2965 32.6097 49.504 31.3604 49.504 29.3864C49.504 26.5365 51.5962 24.2081 53.1479 24.2081C53.89 24.2081 54.2444 24.6807 54.2444 25.4054C54.2444 26.2829 53.7545 26.6909 53.7545 27.0249C53.7545 27.1273 53.8395 27.2281 54.0081 27.2281C54.6824 27.2281 55.4764 26.4357 55.4764 25.355C55.4764 24.2743 54.5989 23.4834 53.0471 23.4834C50.4824 23.4834 47.9019 26.0639 47.9019 29.3707C47.9019 32.0016 49.2 33.588 51.4449 33.588C52.9762 33.588 54.3137 32.397 55.0353 31.0075C55.1172 32.1591 55.6402 32.7609 56.4374 32.7609C57.1463 32.7609 57.7198 32.3387 58.1577 31.5967C58.3263 32.3734 58.7737 32.7531 59.355 32.7531C60.0214 32.7531 60.5791 32.3309 61.11 31.5463C61.1022 32.1623 61.2424 32.742 61.7764 32.742C62.0285 32.742 62.3294 32.6837 62.383 32.4632C62.9454 30.1379 64.3349 28.2395 64.7602 28.2395C64.8863 28.2395 64.9209 28.3608 64.9209 28.5042C64.9209 29.1359 64.4751 30.4309 64.4751 31.258C64.4751 32.1513 64.8548 32.742 65.6393 32.742C66.5089 32.742 67.3927 31.6771 67.9819 30.1206C68.1663 31.5747 68.5648 32.7483 69.1887 32.7483C69.9543 32.7483 71.3139 31.1367 72.1378 29.4305C72.4608 29.4715 72.946 29.4605 73.4123 29.1312C73.2138 29.6338 73.0973 30.1836 73.0973 30.7334C73.0973 32.3167 73.8535 32.7609 74.5041 32.7609C75.2115 32.7609 75.7849 32.3387 76.2244 31.5967C76.3694 32.2663 76.7396 32.7515 77.4202 32.7515C78.4851 32.7515 79.4099 31.6629 79.4099 30.7696C79.4099 30.5333 79.3091 30.39 79.1909 30.39ZM57.0865 31.8834C56.6564 31.8834 56.4878 31.4502 56.4878 30.8043C56.4878 29.6826 57.255 27.8095 58.0664 27.8095C58.4208 27.8095 58.5547 28.2269 58.5547 28.7374C58.5547 29.8764 57.8253 31.8834 57.0865 31.8834ZM71.818 28.5357C71.5613 28.2301 71.4683 27.8142 71.4683 27.444C71.4683 26.9871 71.6353 26.6011 71.8354 26.6011C72.0354 26.6011 72.0969 26.798 72.0969 27.0722C72.0969 27.5306 71.933 28.2002 71.818 28.5357ZM75.1532 31.8834C74.7231 31.8834 74.5545 31.3856 74.5545 30.8043C74.5545 29.722 75.3217 27.8095 76.1394 27.8095C76.4938 27.8095 76.6199 28.2238 76.6199 28.7374C76.6199 29.8764 75.9031 31.8834 75.1532 31.8834Z" fill="url(#paint5_radial_6839_89482)"/>
</g>
<mask id="path-34-outside-1_6839_89482" maskUnits="userSpaceOnUse" x="16" y="16" width="26" height="303" fill="black">
<rect fill="white" x="16" y="16" width="26" height="303"/>
<path d="M16 16H41.6003V318.477H16V16Z"/>
</mask>
<path d="M41.2064 16V318.477H41.9941V16H41.2064Z" fill="#4A2E7E" fill-opacity="0.15" mask="url(#path-34-outside-1_6839_89482)"/>
<rect opacity="0.1" x="23.877" y="23.877" width="9.45242" height="9.45242" rx="3.1508" fill="#4A2E7E"/>
<rect x="19.9385" y="36.4805" width="17.7233" height="3.1508" rx="1.5754" fill="#394C60" fill-opacity="0.15"/>
<rect opacity="0.1" x="23.877" y="52.2344" width="9.45242" height="9.45242" rx="3.1508" fill="#4A2E7E"/>
<rect x="19.9385" y="64.8374" width="17.7233" height="3.1508" rx="1.5754" fill="#394C60" fill-opacity="0.15"/>
<rect opacity="0.1" x="23.877" y="80.5913" width="9.45242" height="9.45242" rx="3.1508" fill="#4A2E7E"/>
<rect x="19.9385" y="93.1948" width="17.7233" height="3.1508" rx="1.5754" fill="#394C60" fill-opacity="0.15"/>
<rect opacity="0.1" x="23.877" y="108.949" width="9.45242" height="9.45242" rx="3.1508" fill="#4A2E7E"/>
<rect x="19.9385" y="121.552" width="17.7233" height="3.1508" rx="1.5754" fill="#394C60" fill-opacity="0.15"/>
<rect opacity="0.1" x="23.877" y="137.306" width="9.45242" height="9.45242" rx="3.1508" fill="#4A2E7E"/>
<rect x="19.9385" y="149.909" width="17.7233" height="3.1508" rx="1.5754" fill="#394C60" fill-opacity="0.15"/>
<g filter="url(#filter0_dd_6839_89482)">
<g clip-path="url(#clip3_6839_89482)">
<path d="M145.577 23.8771C145.577 21.2669 147.693 19.1509 150.303 19.1509H546.123C548.733 19.1509 550.849 21.2669 550.849 23.8771V310.6C550.849 313.211 548.733 315.327 546.123 315.327H150.303C147.693 315.327 145.577 313.211 145.577 310.6V23.8771Z" fill="white"/>
<rect width="393.457" height="22.4524" transform="translate(151.878 19.1509)" fill="white"/>
<rect x="151.878" y="26.2417" width="90.5856" height="8.27086" fill="white"/>
<path d="M257.233 25.6508C257.233 23.9107 258.644 22.5 260.384 22.5H436.829C438.569 22.5 439.98 23.9107 439.98 25.6508V35.1032C439.98 36.8434 438.569 38.254 436.829 38.254H260.384C258.644 38.254 257.233 36.8434 257.233 35.1032V25.6508Z" fill="white"/>
<path d="M257.43 25.6508C257.43 24.0194 258.753 22.6969 260.384 22.6969H436.829C438.461 22.6969 439.783 24.0194 439.783 25.6508V35.1032C439.783 36.7346 438.461 38.0571 436.829 38.0571H260.384C258.753 38.0571 257.43 36.7346 257.43 35.1032V25.6508Z" stroke="#35475A" stroke-opacity="0.2" stroke-width="0.393851"/>
<path fill-rule="evenodd" clip-rule="evenodd" d="M264.52 32.7403C262.888 32.7403 261.566 31.4178 261.566 29.7864C261.566 28.155 262.888 26.8325 264.52 26.8325C266.151 26.8325 267.474 28.155 267.474 29.7864C267.474 30.4325 267.266 31.0302 266.914 31.5165L268.566 33.1677C268.719 33.3215 268.719 33.5709 268.566 33.7247C268.412 33.8785 268.162 33.8785 268.009 33.7247L266.372 32.0878C265.865 32.496 265.221 32.7403 264.52 32.7403ZM266.883 29.7862C266.883 31.0913 265.825 32.1493 264.52 32.1493C263.215 32.1493 262.157 31.0913 262.157 29.7862C262.157 28.4811 263.215 27.4231 264.52 27.4231C265.825 27.4231 266.883 28.4811 266.883 29.7862Z" fill="#0E1318"/>
<path d="M274.708 32.1317C274.46 32.1317 274.237 32.0985 274.04 32.0321C273.844 31.9639 273.681 31.8751 273.55 31.7656C273.419 31.6561 273.321 31.5358 273.257 31.4048L273.51 31.0979H273.577C273.821 31.5089 274.198 31.7144 274.708 31.7144C275.004 31.7144 275.224 31.6525 275.367 31.5287C275.513 31.4048 275.585 31.2325 275.585 31.0117C275.585 30.8825 275.561 30.773 275.513 30.6833C275.466 30.5935 275.388 30.5172 275.278 30.4544C275.169 30.3898 275.02 30.3341 274.832 30.2875L274.371 30.1744C274.028 30.0918 273.775 29.9608 273.612 29.7813C273.45 29.6 273.37 29.3712 273.37 29.0948C273.37 28.8991 273.42 28.725 273.52 28.5725C273.621 28.4181 273.768 28.2978 273.962 28.2117C274.156 28.1255 274.387 28.0825 274.657 28.0825C274.953 28.0825 275.202 28.1246 275.405 28.209C275.61 28.2916 275.773 28.4163 275.895 28.5832L275.669 28.8875H275.602C275.488 28.7493 275.355 28.6478 275.2 28.5832C275.046 28.5186 274.865 28.4863 274.657 28.4863C274.384 28.4863 274.177 28.5393 274.037 28.6452C273.899 28.7511 273.83 28.8973 273.83 29.084C273.83 29.2617 273.881 29.4035 273.983 29.5094C274.086 29.6135 274.258 29.6943 274.5 29.7517L274.972 29.8648C275.354 29.9545 275.63 30.0927 275.801 30.2794C275.973 30.4643 276.059 30.7012 276.059 30.9902C276.059 31.2127 276.009 31.4102 275.908 31.5825C275.81 31.753 275.659 31.8876 275.456 31.9863C275.253 32.0833 275.004 32.1317 274.708 32.1317ZM279.193 30.6913H277.152C277.165 31.0521 277.251 31.3169 277.411 31.4856C277.572 31.6543 277.793 31.7387 278.073 31.7387C278.285 31.7387 278.455 31.701 278.585 31.6256C278.714 31.5502 278.815 31.4317 278.889 31.2702H278.945L279.231 31.4398C279.145 31.6552 279.006 31.8248 278.816 31.9487C278.628 32.0707 278.38 32.1317 278.073 32.1317C277.786 32.1317 277.539 32.0752 277.333 31.9621C277.126 31.849 276.967 31.6776 276.856 31.4479C276.745 31.2181 276.689 30.9327 276.689 30.5917C276.689 30.2543 276.748 29.9698 276.864 29.7382C276.983 29.5067 277.143 29.3344 277.346 29.2213C277.551 29.1064 277.784 29.049 278.046 29.049C278.427 29.049 278.724 29.1567 278.937 29.3721C279.151 29.5857 279.259 29.9034 279.26 30.3252C279.26 30.4903 279.257 30.6016 279.25 30.659L279.193 30.6913ZM278.827 30.3252C278.82 30.0093 278.75 29.7795 278.617 29.6359C278.484 29.4923 278.294 29.4205 278.046 29.4205C277.786 29.4205 277.581 29.4932 277.432 29.6386C277.285 29.7822 277.195 30.0111 277.163 30.3252H278.827ZM280.755 32.1317C280.462 32.1317 280.233 32.0555 280.068 31.9029C279.905 31.7503 279.823 31.5322 279.823 31.2486C279.823 31.0727 279.859 30.9247 279.931 30.8044C280.004 30.6824 280.118 30.5836 280.27 30.5083C280.423 30.4311 280.622 30.3718 280.868 30.3306C281.083 30.2947 281.247 30.2543 281.358 30.2094C281.471 30.1645 281.546 30.1143 281.584 30.0586C281.623 30.003 281.643 29.933 281.643 29.8486C281.643 29.714 281.597 29.6108 281.503 29.539C281.412 29.4672 281.264 29.4313 281.059 29.4313C280.867 29.4313 280.702 29.469 280.564 29.5444C280.427 29.618 280.301 29.7284 280.187 29.8756H280.133L279.917 29.5713C280.043 29.4116 280.203 29.285 280.397 29.1917C280.59 29.0966 280.811 29.049 281.059 29.049C281.409 29.049 281.667 29.1262 281.832 29.2805C281.999 29.4331 282.082 29.6449 282.082 29.9159V31.491C282.082 31.6561 282.152 31.7387 282.292 31.7387C282.339 31.7387 282.384 31.7306 282.427 31.7144L282.464 31.7252L282.515 32.0294C282.483 32.051 282.44 32.0671 282.386 32.0779C282.334 32.0905 282.28 32.0967 282.225 32.0967C282.061 32.0967 281.938 32.0608 281.853 31.989C281.771 31.9172 281.718 31.8113 281.694 31.6713L281.638 31.666C281.553 31.8221 281.439 31.9388 281.296 32.016C281.152 32.0931 280.972 32.1317 280.755 32.1317ZM280.852 31.7817C281.017 31.7817 281.159 31.744 281.28 31.6687C281.402 31.5915 281.495 31.4838 281.56 31.3456C281.624 31.2074 281.657 31.0476 281.657 30.8663V30.4894L281.605 30.4786C281.539 30.5253 281.458 30.5648 281.363 30.5971C281.268 30.6276 281.135 30.6554 280.965 30.6806C280.792 30.7039 280.655 30.7398 280.553 30.7883C280.452 30.8367 280.38 30.8986 280.337 30.974C280.294 31.0476 280.273 31.1392 280.273 31.2486C280.273 31.4228 280.324 31.5556 280.426 31.6471C280.529 31.7369 280.67 31.7817 280.852 31.7817ZM283.121 32.0752V29.1055H283.539V29.5713L283.595 29.5848C283.733 29.2473 283.994 29.0786 284.376 29.0786C284.579 29.0786 284.73 29.1154 284.831 29.189L284.718 29.5606L284.664 29.5713C284.553 29.5157 284.431 29.4879 284.298 29.4879C284.061 29.4879 283.879 29.5767 283.751 29.7544C283.624 29.9321 283.56 30.2202 283.56 30.6186V32.0752H283.121ZM286.522 32.1317C286.26 32.1317 286.025 32.0725 285.816 31.954C285.608 31.8338 285.444 31.6579 285.324 31.4263C285.203 31.193 285.143 30.9148 285.143 30.5917C285.143 30.2668 285.203 29.9886 285.324 29.7571C285.444 29.5238 285.608 29.3479 285.816 29.2294C286.025 29.1091 286.26 29.049 286.522 29.049C286.836 29.049 287.085 29.1082 287.27 29.2267C287.457 29.3452 287.591 29.5031 287.674 29.7006L287.375 29.9159H287.321C287.241 29.7526 287.136 29.6332 287.009 29.5579C286.883 29.4807 286.721 29.4421 286.522 29.4421C286.339 29.4421 286.178 29.4852 286.04 29.5713C285.902 29.6575 285.794 29.7867 285.717 29.959C285.641 30.1313 285.604 30.3422 285.604 30.5917C285.604 30.8394 285.642 31.0494 285.719 31.2217C285.797 31.3922 285.903 31.5215 286.04 31.6094C286.178 31.6956 286.339 31.7387 286.522 31.7387C286.728 31.7387 286.899 31.692 287.033 31.5987C287.17 31.5053 287.276 31.3581 287.354 31.1571H287.41L287.698 31.3267C287.621 31.5762 287.483 31.7728 287.284 31.9163C287.086 32.0599 286.832 32.1317 286.522 32.1317ZM288.398 32.0752V27.9128H288.837V29.5282L288.894 29.539C289.105 29.2123 289.411 29.049 289.812 29.049C290.169 29.049 290.427 29.1405 290.587 29.3236C290.749 29.5049 290.829 29.7849 290.829 30.1636V32.0752H290.391V30.1744C290.391 29.9949 290.367 29.8513 290.321 29.7436C290.276 29.6341 290.205 29.5552 290.108 29.5067C290.013 29.4564 289.887 29.4313 289.731 29.4313C289.462 29.4313 289.245 29.5184 289.082 29.6925C288.919 29.8666 288.837 30.1529 288.837 30.5513V32.0752H288.398ZM293.247 33.3352C293.147 33.3352 293.052 33.3262 292.964 33.3083C292.878 33.2921 292.804 33.2688 292.741 33.2383L292.822 32.891L292.87 32.8748C292.913 32.8964 292.967 32.9143 293.032 32.9287C293.096 32.9448 293.163 32.9529 293.231 32.9529C293.351 32.9529 293.451 32.9367 293.53 32.9044C293.609 32.8721 293.676 32.8183 293.732 32.7429C293.789 32.6693 293.842 32.567 293.891 32.436L293.996 32.1452L292.803 29.1055H293.277L294.211 31.5287H294.262L295.167 29.1055H295.616L294.289 32.541C294.214 32.7312 294.129 32.8838 294.036 32.9987C293.943 33.1153 293.832 33.2006 293.705 33.2544C293.577 33.3083 293.425 33.3352 293.247 33.3352ZM297.431 32.1317C297.151 32.1317 296.907 32.0725 296.699 31.954C296.492 31.8356 296.333 31.6615 296.219 31.4317C296.108 31.2002 296.053 30.9202 296.053 30.5917C296.053 30.2633 296.108 29.9832 296.219 29.7517C296.333 29.5202 296.492 29.3452 296.699 29.2267C296.907 29.1082 297.151 29.049 297.431 29.049C297.711 29.049 297.954 29.1082 298.161 29.2267C298.369 29.3452 298.529 29.5202 298.64 29.7517C298.753 29.9832 298.81 30.2633 298.81 30.5917C298.81 30.9202 298.753 31.2002 298.64 31.4317C298.529 31.6615 298.369 31.8356 298.161 31.954C297.954 32.0725 297.711 32.1317 297.431 32.1317ZM297.431 31.7387C297.727 31.7387 297.953 31.6453 298.11 31.4586C298.267 31.272 298.346 30.983 298.346 30.5917C298.346 30.1986 298.267 29.9088 298.11 29.7221C297.953 29.5354 297.727 29.4421 297.431 29.4421C297.135 29.4421 296.908 29.5363 296.75 29.7248C296.592 29.9115 296.513 30.2004 296.513 30.5917C296.513 30.983 296.592 31.272 296.75 31.4586C296.908 31.6453 297.135 31.7387 297.431 31.7387ZM300.603 32.1317C300.267 32.1317 300.017 32.0429 299.851 31.8652C299.688 31.6875 299.606 31.4272 299.606 31.0844V29.1055H300.045V31.0736C300.045 31.5242 300.257 31.7494 300.681 31.7494C300.95 31.7494 301.163 31.6615 301.319 31.4856C301.475 31.3097 301.553 31.0243 301.553 30.6294V29.1055H301.992V32.0752H301.577V31.6094L301.521 31.596C301.418 31.7772 301.295 31.9119 301.152 31.9998C301.01 32.0878 300.827 32.1317 300.603 32.1317ZM303.028 32.0752V29.1055H303.446V29.5713L303.502 29.5848C303.64 29.2473 303.901 29.0786 304.283 29.0786C304.486 29.0786 304.638 29.1154 304.738 29.189L304.625 29.5606L304.571 29.5713C304.46 29.5157 304.338 29.4879 304.205 29.4879C303.968 29.4879 303.786 29.5767 303.658 29.7544C303.531 29.9321 303.467 30.2202 303.467 30.6186V32.0752H303.028ZM307.861 32.1317C307.599 32.1317 307.364 32.0725 307.156 31.954C306.948 31.8338 306.783 31.6579 306.663 31.4263C306.543 31.193 306.483 30.9148 306.483 30.5917C306.483 30.2668 306.543 29.9886 306.663 29.7571C306.783 29.5238 306.948 29.3479 307.156 29.2294C307.364 29.1091 307.599 29.049 307.861 29.049C308.175 29.049 308.425 29.1082 308.61 29.2267C308.796 29.3452 308.931 29.5031 309.013 29.7006L308.715 29.9159H308.661C308.58 29.7526 308.476 29.6332 308.348 29.5579C308.223 29.4807 308.06 29.4421 307.861 29.4421C307.678 29.4421 307.517 29.4852 307.379 29.5713C307.241 29.6575 307.133 29.7867 307.056 29.959C306.981 30.1313 306.943 30.3422 306.943 30.5917C306.943 30.8394 306.982 31.0494 307.059 31.2217C307.136 31.3922 307.243 31.5215 307.379 31.6094C307.517 31.6956 307.678 31.7387 307.861 31.7387C308.068 31.7387 308.238 31.692 308.373 31.5987C308.509 31.5053 308.616 31.3581 308.693 31.1571H308.75L309.038 31.3267C308.961 31.5762 308.822 31.7728 308.623 31.9163C308.426 32.0599 308.172 32.1317 307.861 32.1317ZM310.925 32.1317C310.645 32.1317 310.401 32.0725 310.193 31.954C309.986 31.8356 309.827 31.6615 309.713 31.4317C309.602 31.2002 309.547 30.9202 309.547 30.5917C309.547 30.2633 309.602 29.9832 309.713 29.7517C309.827 29.5202 309.986 29.3452 310.193 29.2267C310.401 29.1082 310.645 29.049 310.925 29.049C311.205 29.049 311.448 29.1082 311.655 29.2267C311.863 29.3452 312.023 29.5202 312.134 29.7517C312.247 29.9832 312.304 30.2633 312.304 30.5917C312.304 30.9202 312.247 31.2002 312.134 31.4317C312.023 31.6615 311.863 31.8356 311.655 31.954C311.448 32.0725 311.205 32.1317 310.925 32.1317ZM310.925 31.7387C311.221 31.7387 311.447 31.6453 311.604 31.4586C311.761 31.272 311.84 30.983 311.84 30.5917C311.84 30.1986 311.761 29.9088 311.604 29.7221C311.447 29.5354 311.221 29.4421 310.925 29.4421C310.629 29.4421 310.402 29.5363 310.244 29.7248C310.086 29.9115 310.007 30.2004 310.007 30.5917C310.007 30.983 310.086 31.272 310.244 31.4586C310.402 31.6453 310.629 31.7387 310.925 31.7387ZM313.146 32.0752V29.1055H313.564V29.5713L313.62 29.5848C313.719 29.4107 313.844 29.2779 313.997 29.1863C314.151 29.0948 314.339 29.049 314.56 29.049C314.917 29.049 315.175 29.1405 315.335 29.3236C315.497 29.5049 315.577 29.7849 315.577 30.1636V32.0752H315.139V30.1744C315.139 29.9949 315.115 29.8513 315.069 29.7436C315.024 29.6341 314.953 29.5552 314.856 29.5067C314.761 29.4564 314.635 29.4313 314.479 29.4313C314.211 29.4313 313.995 29.5202 313.83 29.6979C313.667 29.8738 313.585 30.1583 313.585 30.5513V32.0752H313.146ZM318.036 31.604L318.176 31.919C318.106 31.989 318.013 32.042 317.898 32.0779C317.785 32.1138 317.662 32.1317 317.529 32.1317C316.962 32.1317 316.679 31.8446 316.679 31.2702V29.4636H316.162V29.1029H316.679V28.4755L317.117 28.4028V29.1029H318.073V29.4636H317.117V31.2271C317.117 31.5681 317.265 31.7387 317.562 31.7387C317.723 31.7387 317.862 31.6938 317.979 31.604H318.036ZM321.081 30.6913H319.04C319.052 31.0521 319.138 31.3169 319.298 31.4856C319.46 31.6543 319.681 31.7387 319.961 31.7387C320.172 31.7387 320.343 31.701 320.472 31.6256C320.601 31.5502 320.703 31.4317 320.776 31.2702H320.833L321.118 31.4398C321.032 31.6552 320.894 31.8248 320.704 31.9487C320.515 32.0707 320.267 32.1317 319.961 32.1317C319.673 32.1317 319.427 32.0752 319.22 31.9621C319.014 31.849 318.855 31.6776 318.744 31.4479C318.632 31.2181 318.577 30.9327 318.577 30.5917C318.577 30.2543 318.635 29.9698 318.752 29.7382C318.87 29.5067 319.031 29.3344 319.234 29.2213C319.438 29.1064 319.672 29.049 319.934 29.049C320.314 29.049 320.611 29.1567 320.825 29.3721C321.038 29.5857 321.146 29.9034 321.148 30.3252C321.148 30.4903 321.144 30.6016 321.137 30.659L321.081 30.6913ZM320.714 30.3252C320.707 30.0093 320.637 29.7795 320.504 29.6359C320.372 29.4923 320.181 29.4205 319.934 29.4205C319.673 29.4205 319.469 29.4932 319.32 29.6386C319.173 29.7822 319.083 30.0111 319.051 30.3252H320.714ZM321.934 32.0752V29.1055H322.351V29.5713L322.408 29.5848C322.507 29.4107 322.632 29.2779 322.785 29.1863C322.939 29.0948 323.127 29.049 323.347 29.049C323.705 29.049 323.963 29.1405 324.123 29.3236C324.284 29.5049 324.365 29.7849 324.365 30.1636V32.0752H323.926V30.1744C323.926 29.9949 323.903 29.8513 323.856 29.7436C323.811 29.6341 323.741 29.5552 323.644 29.5067C323.549 29.4564 323.423 29.4313 323.267 29.4313C322.999 29.4313 322.783 29.5202 322.618 29.6979C322.455 29.8738 322.373 30.1583 322.373 30.5513V32.0752H321.934ZM326.823 31.604L326.963 31.919C326.893 31.989 326.801 32.042 326.686 32.0779C326.573 32.1138 326.45 32.1317 326.317 32.1317C325.75 32.1317 325.466 31.8446 325.466 31.2702V29.4636H324.949V29.1029H325.466V28.4755L325.905 28.4028V29.1029H326.861V29.4636H325.905V31.2271C325.905 31.5681 326.053 31.7387 326.349 31.7387C326.511 31.7387 326.65 31.6938 326.767 31.604H326.823ZM330.132 32.1317C329.852 32.1317 329.608 32.0725 329.4 31.954C329.193 31.8356 329.034 31.6615 328.921 31.4317C328.809 31.2002 328.754 30.9202 328.754 30.5917C328.754 30.2633 328.809 29.9832 328.921 29.7517C329.034 29.5202 329.193 29.3452 329.4 29.2267C329.608 29.1082 329.852 29.049 330.132 29.049C330.412 29.049 330.655 29.1082 330.862 29.2267C331.07 29.3452 331.23 29.5202 331.341 29.7517C331.454 29.9832 331.511 30.2633 331.511 30.5917C331.511 30.9202 331.454 31.2002 331.341 31.4317C331.23 31.6615 331.07 31.8356 330.862 31.954C330.655 32.0725 330.412 32.1317 330.132 32.1317ZM330.132 31.7387C330.428 31.7387 330.655 31.6453 330.811 31.4586C330.969 31.272 331.048 30.983 331.048 30.5917C331.048 30.1986 330.969 29.9088 330.811 29.7221C330.655 29.5354 330.428 29.4421 330.132 29.4421C329.836 29.4421 329.609 29.5363 329.451 29.7248C329.293 29.9115 329.214 30.2004 329.214 30.5917C329.214 30.983 329.293 31.272 329.451 31.4586C329.609 31.6453 329.836 31.7387 330.132 31.7387ZM332.353 32.0752V29.1055H332.771V29.5713L332.827 29.5848C332.965 29.2473 333.226 29.0786 333.608 29.0786C333.811 29.0786 333.962 29.1154 334.063 29.189L333.95 29.5606L333.896 29.5713C333.785 29.5157 333.663 29.4879 333.53 29.4879C333.293 29.4879 333.111 29.5767 332.983 29.7544C332.856 29.9321 332.792 30.2202 332.792 30.6186V32.0752H332.353ZM337.657 32.1317C337.313 32.1317 337.006 32.0528 336.736 31.8948C336.467 31.7369 336.256 31.5062 336.104 31.2029C335.951 30.8977 335.875 30.5325 335.875 30.1071C335.875 29.6817 335.951 29.3173 336.104 29.014C336.256 28.7089 336.467 28.4773 336.736 28.3194C337.006 28.1614 337.313 28.0825 337.657 28.0825C338.025 28.0825 338.331 28.1525 338.575 28.2925C338.819 28.4307 338.995 28.6398 339.103 28.9198L338.807 29.1163H338.74C338.632 28.892 338.492 28.7331 338.32 28.6398C338.147 28.5446 337.927 28.4971 337.657 28.4971C337.41 28.4971 337.19 28.5527 336.998 28.664C336.806 28.7735 336.653 28.9485 336.54 29.189C336.427 29.4277 336.37 29.7338 336.37 30.1071C336.37 30.4804 336.427 30.7865 336.54 31.0252C336.653 31.2639 336.806 31.4389 336.998 31.5502C337.19 31.6597 337.41 31.7144 337.657 31.7144C337.943 31.7144 338.176 31.6507 338.357 31.5233C338.539 31.394 338.673 31.1858 338.761 30.8986H338.828L339.138 31.0521C339.045 31.4003 338.872 31.6678 338.618 31.8544C338.367 32.0393 338.047 32.1317 337.657 32.1317ZM340.568 32.1317C340.275 32.1317 340.046 32.0555 339.881 31.9029C339.718 31.7503 339.636 31.5322 339.636 31.2486C339.636 31.0727 339.672 30.9247 339.744 30.8044C339.817 30.6824 339.931 30.5836 340.083 30.5083C340.236 30.4311 340.435 30.3718 340.681 30.3306C340.896 30.2947 341.059 30.2543 341.171 30.2094C341.284 30.1645 341.359 30.1143 341.397 30.0586C341.436 30.003 341.456 29.933 341.456 29.8486C341.456 29.714 341.409 29.6108 341.316 29.539C341.225 29.4672 341.077 29.4313 340.872 29.4313C340.68 29.4313 340.515 29.469 340.377 29.5444C340.24 29.618 340.114 29.7284 340 29.8756H339.946L339.73 29.5713C339.856 29.4116 340.016 29.285 340.21 29.1917C340.403 29.0966 340.624 29.049 340.872 29.049C341.222 29.049 341.479 29.1262 341.645 29.2805C341.812 29.4331 341.895 29.6449 341.895 29.9159V31.491C341.895 31.6561 341.965 31.7387 342.105 31.7387C342.152 31.7387 342.197 31.7306 342.24 31.7144L342.277 31.7252L342.328 32.0294C342.296 32.051 342.253 32.0671 342.199 32.0779C342.147 32.0905 342.093 32.0967 342.038 32.0967C341.874 32.0967 341.751 32.0608 341.666 31.989C341.584 31.9172 341.531 31.8113 341.507 31.6713L341.451 31.666C341.366 31.8221 341.252 31.9388 341.109 32.016C340.965 32.0931 340.785 32.1317 340.568 32.1317ZM340.665 31.7817C340.83 31.7817 340.972 31.744 341.093 31.6687C341.215 31.5915 341.308 31.4838 341.373 31.3456C341.437 31.2074 341.47 31.0476 341.47 30.8663V30.4894L341.418 30.4786C341.352 30.5253 341.271 30.5648 341.176 30.5971C341.081 30.6276 340.948 30.6554 340.778 30.6806C340.605 30.7039 340.468 30.7398 340.366 30.7883C340.265 30.8367 340.193 30.8986 340.15 30.974C340.107 31.0476 340.086 31.1392 340.086 31.2486C340.086 31.4228 340.137 31.5556 340.239 31.6471C340.342 31.7369 340.483 31.7817 340.665 31.7817ZM342.934 32.0752V29.1055H343.352V29.5713L343.408 29.5848C343.507 29.4107 343.632 29.2779 343.785 29.1863C343.939 29.0948 344.127 29.049 344.348 29.049C344.705 29.049 344.963 29.1405 345.123 29.3236C345.285 29.5049 345.365 29.7849 345.365 30.1636V32.0752H344.927V30.1744C344.927 29.9949 344.903 29.8513 344.857 29.7436C344.812 29.6341 344.741 29.5552 344.644 29.5067C344.549 29.4564 344.423 29.4313 344.267 29.4313C344 29.4313 343.783 29.5202 343.618 29.6979C343.455 29.8738 343.373 30.1583 343.373 30.5513V32.0752H342.934ZM347.678 32.0752H347.075L345.944 29.1055H346.418L347.352 31.5744H347.414L348.34 29.1055H348.804L347.678 32.0752ZM350.115 32.1317C349.822 32.1317 349.593 32.0555 349.428 31.9029C349.265 31.7503 349.183 31.5322 349.183 31.2486C349.183 31.0727 349.219 30.9247 349.291 30.8044C349.364 30.6824 349.478 30.5836 349.63 30.5083C349.783 30.4311 349.982 30.3718 350.228 30.3306C350.443 30.2947 350.607 30.2543 350.718 30.2094C350.831 30.1645 350.906 30.1143 350.944 30.0586C350.983 30.003 351.003 29.933 351.003 29.8486C351.003 29.714 350.957 29.6108 350.863 29.539C350.772 29.4672 350.624 29.4313 350.419 29.4313C350.227 29.4313 350.062 29.469 349.924 29.5444C349.787 29.618 349.662 29.7284 349.547 29.8756H349.493L349.277 29.5713C349.403 29.4116 349.563 29.285 349.757 29.1917C349.95 29.0966 350.171 29.049 350.419 29.049C350.769 29.049 351.027 29.1262 351.192 29.2805C351.359 29.4331 351.442 29.6449 351.442 29.9159V31.491C351.442 31.6561 351.512 31.7387 351.652 31.7387C351.699 31.7387 351.744 31.7306 351.787 31.7144L351.824 31.7252L351.876 32.0294C351.843 32.051 351.8 32.0671 351.746 32.0779C351.694 32.0905 351.64 32.0967 351.585 32.0967C351.421 32.0967 351.298 32.0608 351.213 31.989C351.131 31.9172 351.078 31.8113 351.054 31.6713L350.998 31.666C350.913 31.8221 350.799 31.9388 350.656 32.016C350.512 32.0931 350.332 32.1317 350.115 32.1317ZM350.212 31.7817C350.377 31.7817 350.519 31.744 350.64 31.6687C350.762 31.5915 350.855 31.4838 350.92 31.3456C350.984 31.2074 351.017 31.0476 351.017 30.8663V30.4894L350.966 30.4786C350.899 30.5253 350.818 30.5648 350.723 30.5971C350.628 30.6276 350.495 30.6554 350.325 30.6806C350.152 30.7039 350.015 30.7398 349.913 30.7883C349.812 30.8367 349.74 30.8986 349.697 30.974C349.654 31.0476 349.633 31.1392 349.633 31.2486C349.633 31.4228 349.684 31.5556 349.786 31.6471C349.889 31.7369 350.03 31.7817 350.212 31.7817ZM352.064 29.3075C352.227 29.2123 352.359 29.1046 352.46 28.9844C352.56 28.8623 352.614 28.7358 352.621 28.6048C352.514 28.6048 352.429 28.5761 352.368 28.5186C352.307 28.4612 352.277 28.3849 352.277 28.2898C352.277 28.1964 352.305 28.1202 352.363 28.0609C352.422 27.9999 352.5 27.9694 352.597 27.9694C352.703 27.9694 352.788 28.0062 352.853 28.0798C352.919 28.1534 352.952 28.2682 352.952 28.4244C352.952 28.6703 352.891 28.8857 352.769 29.0705C352.649 29.2554 352.472 29.425 352.239 29.5794L352.064 29.3075ZM354.53 32.1317C354.343 32.1317 354.17 32.1075 354.011 32.059C353.853 32.0088 353.719 31.9406 353.609 31.8544C353.5 31.7683 353.423 31.6713 353.378 31.5637L353.636 31.2944H353.693C353.79 31.4416 353.906 31.5529 354.043 31.6283C354.179 31.7019 354.342 31.7387 354.53 31.7387C354.749 31.7387 354.915 31.6965 355.028 31.6121C355.143 31.526 355.201 31.4066 355.201 31.254C355.201 31.1374 355.166 31.0413 355.096 30.966C355.027 30.8888 354.916 30.8313 354.762 30.7936L354.261 30.6698C353.993 30.6052 353.798 30.5029 353.674 30.3629C353.552 30.2229 353.491 30.0497 353.491 29.8432C353.491 29.6817 353.532 29.5417 353.615 29.4232C353.697 29.303 353.816 29.2105 353.97 29.1459C354.126 29.0813 354.311 29.049 354.525 29.049C354.798 29.049 355.012 29.0876 355.168 29.1648C355.326 29.2402 355.449 29.3461 355.537 29.4825L355.289 29.7248H355.236C355.14 29.6153 355.036 29.5363 354.923 29.4879C354.812 29.4394 354.679 29.4152 354.525 29.4152C354.329 29.4152 354.179 29.4502 354.075 29.5202C353.971 29.5902 353.919 29.6916 353.919 29.8244C353.919 29.9447 353.956 30.0416 354.029 30.1152C354.103 30.1888 354.231 30.248 354.414 30.2929L354.907 30.4113C355.166 30.4724 355.352 30.5738 355.467 30.7156C355.582 30.8574 355.639 31.0351 355.639 31.2486C355.639 31.4228 355.598 31.5762 355.516 31.709C355.433 31.8419 355.308 31.946 355.141 32.0213C354.974 32.0949 354.771 32.1317 354.53 32.1317Z" fill="#11171D" fill-opacity="0.6"/>
<g clip-path="url(#clip4_6839_89482)">
<g clip-path="url(#clip5_6839_89482)">
<circle cx="172.761" cy="127.847" r="9.83596" fill="#F1F3F5"/>
<circle cx="206.759" cy="127.847" r="9.83596" fill="#F1F3F5"/>
<circle cx="239.288" cy="127.847" r="9.83596" fill="#F1F3F5"/>
<circle cx="271.306" cy="127.798" r="9.78689" fill="#40576D" fill-opacity="0.07"/>
<circle cx="303.324" cy="127.847" r="9.83596" fill="#F1F3F5"/>
<circle cx="335.853" cy="127.847" r="9.83588" fill="#F1F3F5"/>
</g>
<g clip-path="url(#clip6_6839_89482)">
<rect x="151.878" y="41.6035" width="392.669" height="70.1054" rx="4.72621" fill="#40576D" fill-opacity="0.07"/>
</g>
</g>
</g>
</g>
</g>
<rect x="16.1969" y="16.1969" width="537.606" height="302.083" rx="1.37848" stroke="#394C60" stroke-opacity="0.15" stroke-width="0.393851"/>
<defs>
<filter id="filter0_dd_6839_89482" x="139.275" y="15.2124" width="417.876" height="308.779" filterUnits="userSpaceOnUse" color-interpolation-filters="sRGB">
<feFlood flood-opacity="0" result="BackgroundImageFix"/>
<feColorMatrix in="SourceAlpha" type="matrix" values="0 0 0 0 0 0 0 0 0 0 0 0 0 0 0 0 0 0 127 0" result="hardAlpha"/>
<feMorphology radius="1.5754" operator="erode" in="SourceAlpha" result="effect1_dropShadow_6839_89482"/>
<feOffset dy="2.3631"/>
<feGaussianBlur stdDeviation="3.93851"/>
<feColorMatrix type="matrix" values="0 0 0 0 0.25098 0 0 0 0 0.341176 0 0 0 0 0.427451 0 0 0 0.3 0"/>
<feBlend mode="normal" in2="BackgroundImageFix" result="effect1_dropShadow_6839_89482"/>
<feColorMatrix in="SourceAlpha" type="matrix" values="0 0 0 0 0 0 0 0 0 0 0 0 0 0 0 0 0 0 127 0" result="hardAlpha"/>
<feMorphology radius="0.393851" operator="dilate" in="SourceAlpha" result="effect2_dropShadow_6839_89482"/>
<feOffset/>
<feColorMatrix type="matrix" values="0 0 0 0 0.25098 0 0 0 0 0.341176 0 0 0 0 0.427451 0 0 0 0.04 0"/>
<feBlend mode="normal" in2="effect1_dropShadow_6839_89482" result="effect2_dropShadow_6839_89482"/>
<feBlend mode="normal" in="SourceGraphic" in2="effect2_dropShadow_6839_89482" result="shape"/>
</filter>
<linearGradient id="paint0_linear_6839_89482" x1="16" y1="16" x2="17.4245" y2="320.983" gradientUnits="userSpaceOnUse">
<stop stop-color="#EBE0FC"/>
<stop offset="0.63" stop-color="#DDEAF9"/>
</linearGradient>
<radialGradient id="paint1_radial_6839_89482" cx="0" cy="0" r="1" gradientUnits="userSpaceOnUse" gradientTransform="translate(64.034 34.6845) rotate(-45.8069) scale(9.49204 6.30826)">
<stop stop-color="#6420FF"/>
<stop offset="1" stop-color="#6420FF" stop-opacity="0"/>
</radialGradient>
<radialGradient id="paint2_radial_6839_89482" cx="0" cy="0" r="1" gradientUnits="userSpaceOnUse" gradientTransform="translate(48.658 30.2104) rotate(5.08826) scale(18.4735 14.7238)">
<stop offset="0.25" stop-color="#00C4CC"/>
<stop offset="1" stop-color="#00C4CC" stop-opacity="0"/>
</radialGradient>
<radialGradient id="paint3_radial_6839_89482" cx="0" cy="0" r="1" gradientUnits="userSpaceOnUse" gradientTransform="translate(61.3479 33.5817) rotate(-38.8493) scale(11.9045 8.13996)">
<stop stop-color="#6420FF"/>
<stop offset="1" stop-color="#6420FF" stop-opacity="0"/>
</radialGradient>
<radialGradient id="paint4_radial_6839_89482" cx="0" cy="0" r="1" gradientUnits="userSpaceOnUse" gradientTransform="translate(48.7998 33.5817) rotate(-26.1243) scale(13.739 9.39428)">
<stop stop-color="#6420FF"/>
<stop offset="1" stop-color="#6420FF" stop-opacity="0"/>
</radialGradient>
<radialGradient id="paint5_radial_6839_89482" cx="0" cy="0" r="1" gradientUnits="userSpaceOnUse" gradientTransform="translate(50.9266 24.4129) rotate(12.4717) scale(27.429 33.6407)">
<stop stop-color="#00C4CC"/>
<stop offset="1" stop-color="#00C4CC" stop-opacity="0"/>
</radialGradient>
<clipPath id="clip0_6839_89482">
<rect x="16" y="16" width="538" height="302.477" rx="1.5754" fill="white"/>
</clipPath>
<clipPath id="clip1_6839_89482">
<rect width="103.977" height="302.477" fill="white" transform="translate(41.6001 16)"/>
</clipPath>
<clipPath id="clip2_6839_89482">
<rect width="103.977" height="258.366" fill="white" transform="translate(41.6001 60.1113)"/>
</clipPath>
<clipPath id="clip3_6839_89482">
<path d="M145.577 23.8771C145.577 21.2669 147.693 19.1509 150.303 19.1509H546.123C548.733 19.1509 550.849 21.2669 550.849 23.8771V310.6C550.849 313.211 548.733 315.327 546.123 315.327H150.303C147.693 315.327 145.577 313.211 145.577 310.6V23.8771Z" fill="white"/>
</clipPath>
<clipPath id="clip4_6839_89482">
<rect width="392.669" height="273.723" fill="white" transform="translate(151.878 41.6035)"/>
</clipPath>
<clipPath id="clip5_6839_89482">
<rect x="158.18" y="118.011" width="380.066" height="32.8705" rx="7.08139" fill="white"/>
</clipPath>
<clipPath id="clip6_6839_89482">
<rect x="151.878" y="41.6035" width="392.669" height="70.1054" rx="4.72621" fill="white"/>
</clipPath>
</defs>
</svg>
