<svg width="160" height="152" viewBox="0 0 160 152" fill="none" xmlns="http://www.w3.org/2000/svg">
<rect width="160" height="152" fill="#40576D" fill-opacity="0.07"/>
<g clip-path="url(#clip0_6839_90073)">
<mask id="mask0_6839_90073" style="mask-type:alpha" maskUnits="userSpaceOnUse" x="44" y="16" width="72" height="528">
<rect x="48" y="16" width="64" height="488" fill="#D9D9D9"/>
</mask>
<g mask="url(#mask0_6839_90073)">
<g filter="url(#filter0_dd_6839_90073)">
<path d="M64 40C64 35.5817 67.5817 32 72 32H88C92.4183 32 96 35.5817 96 40V56C96 60.4183 92.4183 64 88 64H72C67.5817 64 64 60.4183 64 56V40Z" fill="white"/>
<path fill-rule="evenodd" clip-rule="evenodd" d="M71 47.325C71 43.7347 71 41.9395 71.9661 40.7141C72.1851 40.4362 72.4362 40.1851 72.7141 39.9661C73.9395 39 75.7347 39 79.325 39H80.675C84.2653 39 86.0605 39 87.2859 39.9661C87.5638 40.1851 87.8149 40.4362 88.0339 40.7141C89 41.9395 89 43.7347 89 47.325V48.675C89 52.2653 89 54.0605 88.0339 55.2859C87.8149 55.5638 87.5638 55.8149 87.2859 56.0339C86.0605 57 84.2653 57 80.675 57H79.325C75.7347 57 73.9395 57 72.7141 56.0339C72.4362 55.8149 72.1851 55.5638 71.9661 55.2859C71 54.0605 71 52.2653 71 48.675V47.325ZM79.325 40.5H80.675C80.9642 40.5 81.2389 40.5001 81.5 40.5006L81.5 55.4994C81.2389 55.4999 80.9642 55.5 80.675 55.5H79.325C77.4942 55.5 76.2492 55.4977 75.304 55.389C74.3901 55.284 73.9479 55.0965 73.6427 54.856C73.4575 54.7099 73.2901 54.5425 73.144 54.3573C72.9035 54.0521 72.716 53.6099 72.611 52.696C72.5023 51.7508 72.5 50.5058 72.5 48.675V47.325C72.5 45.4942 72.5023 44.2492 72.611 43.304C72.716 42.3901 72.9035 41.9479 73.144 41.6427C73.2901 41.4575 73.4575 41.2901 73.6427 41.144C73.9479 40.9035 74.3901 40.716 75.304 40.611C76.2492 40.5023 77.4942 40.5 79.325 40.5ZM83 55.4856C83.6661 55.4716 84.2192 55.4438 84.696 55.389C85.6099 55.284 86.0521 55.0965 86.3573 54.856C86.5425 54.7099 86.7099 54.5425 86.856 54.3573C87.0965 54.0521 87.284 53.6099 87.389 52.696C87.4977 51.7508 87.5 50.5058 87.5 48.675V47.325C87.5 47.2209 87.5 47.1187 87.5 47.0184H83L83 55.4856ZM87.4938 45.5184C87.4837 44.6137 87.4575 43.8994 87.389 43.304C87.284 42.3901 87.0965 41.9479 86.856 41.6427C86.7099 41.4575 86.5425 41.2901 86.3573 41.144C86.0521 40.9035 85.6099 40.716 84.696 40.611C84.2192 40.5562 83.6661 40.5284 83 40.5144V45.5184H87.4938Z" fill="#0E1318" fill-opacity="0.7"/>
</g>
<path d="M65.627 72.1475C66.8695 72.1475 67.8273 72.4751 68.5005 73.1304C69.1737 73.7856 69.5103 74.7668 69.5103 76.0737C69.5103 77.3771 69.1737 78.3582 68.5005 79.0171C67.8273 79.6724 66.8695 80 65.627 80H62.9468V72.1475H65.627ZM65.5356 78.9526C66.1336 78.9526 66.6278 78.8577 67.0181 78.668C67.4119 78.4782 67.7091 78.172 67.9097 77.7495C68.1138 77.3234 68.2158 76.7648 68.2158 76.0737C68.2158 75.3791 68.1138 74.8205 67.9097 74.3979C67.7091 73.9754 67.4119 73.6693 67.0181 73.4795C66.6278 73.2861 66.1336 73.1895 65.5356 73.1895H64.1821V78.9526H65.5356ZM75.9717 77.3037H72.0293C72.0973 78.4925 72.6488 79.0869 73.6836 79.0869C74.0667 79.0869 74.3747 79.0189 74.6074 78.8828C74.8438 78.7432 75.0299 78.5283 75.166 78.2383H75.2788L76.0576 78.7217C75.875 79.1442 75.5903 79.4826 75.2036 79.7368C74.8205 79.9875 74.3138 80.1128 73.6836 80.1128C73.0928 80.1128 72.5825 79.9982 72.1528 79.769C71.7231 79.5399 71.3919 79.1961 71.1592 78.7378C70.9264 78.2795 70.8101 77.7137 70.8101 77.0405C70.8101 76.3674 70.9318 75.7998 71.1753 75.3379C71.4188 74.876 71.7518 74.5322 72.1743 74.3066C72.5968 74.0775 73.0731 73.9629 73.603 73.9629C74.4015 73.9629 75.0174 74.1813 75.4507 74.6182C75.8875 75.055 76.1077 75.6978 76.1113 76.5464C76.1113 76.8651 76.1024 77.096 76.0845 77.2393L75.9717 77.3037ZM74.9673 76.4604C74.953 75.9198 74.8294 75.5259 74.5967 75.2788C74.3675 75.0317 74.0363 74.9082 73.603 74.9082C73.1662 74.9082 72.8153 75.0317 72.5503 75.2788C72.2889 75.5259 72.1242 75.9198 72.0562 76.4604H74.9673ZM79.3394 80.1128C78.9526 80.1128 78.5946 80.0645 78.2651 79.9678C77.9393 79.8711 77.6618 79.7386 77.4326 79.5703C77.207 79.3984 77.0423 79.2051 76.9385 78.9902L77.6099 78.2759H77.7227C78.113 78.8381 78.6536 79.1191 79.3447 79.1191C79.7064 79.1191 79.9803 79.0511 80.1665 78.915C80.3563 78.7754 80.4512 78.582 80.4512 78.335C80.4512 78.1416 80.3885 77.9823 80.2632 77.8569C80.1414 77.728 79.9463 77.6313 79.6777 77.5669L78.7861 77.3467C78.2275 77.2142 77.8175 77.0065 77.5562 76.7236C77.2983 76.4372 77.1694 76.0809 77.1694 75.6548C77.1694 75.3075 77.2572 75.0067 77.4326 74.7524C77.6117 74.4982 77.8641 74.3031 78.1899 74.167C78.5158 74.0309 78.8989 73.9629 79.3394 73.9629C79.88 73.9629 80.3151 74.0399 80.6445 74.1938C80.9775 74.3442 81.2371 74.5519 81.4233 74.8169L80.7788 75.4883H80.6714C80.4959 75.2842 80.299 75.1374 80.0806 75.0479C79.8657 74.9583 79.6187 74.9136 79.3394 74.9136C78.992 74.9136 78.7306 74.9727 78.5552 75.0908C78.3797 75.2054 78.292 75.3737 78.292 75.5957C78.292 75.7926 78.3564 75.952 78.4854 76.0737C78.6143 76.1955 78.8381 76.2939 79.1567 76.3691L80.0161 76.5679C80.5747 76.6932 80.9793 76.8973 81.23 77.1802C81.4842 77.4631 81.6113 77.8319 81.6113 78.2866C81.6113 78.6483 81.5236 78.967 81.3481 79.2427C81.1727 79.5148 80.9149 79.7279 80.5747 79.8818C80.2345 80.0358 79.8228 80.1128 79.3394 80.1128ZM83.6147 73.1465C83.3892 73.1465 83.2048 73.0767 83.0615 72.937C82.9183 72.7974 82.8467 72.6183 82.8467 72.3999C82.8467 72.1851 82.9183 72.0078 83.0615 71.8682C83.2048 71.7285 83.3892 71.6587 83.6147 71.6587C83.8403 71.6587 84.0247 71.7285 84.168 71.8682C84.3148 72.0078 84.3882 72.1851 84.3882 72.3999C84.3882 72.6183 84.3166 72.7974 84.1733 72.937C84.0301 73.0767 83.8439 73.1465 83.6147 73.1465ZM83.0239 80V74.0757H84.2056V80H83.0239ZM88.2124 82.5137C87.2563 82.5137 86.5545 82.3633 86.1069 82.0625C85.6593 81.7653 85.4355 81.3607 85.4355 80.8486C85.4355 80.5264 85.5358 80.265 85.7363 80.0645C85.9368 79.8639 86.2251 79.7261 86.6011 79.6509V79.5381C86.4113 79.4271 86.2716 79.3 86.1821 79.1567C86.0926 79.0099 86.0479 78.8398 86.0479 78.6465C86.0479 78.1846 86.3468 77.8766 86.9448 77.7227V77.6099C86.3003 77.2554 85.978 76.7021 85.978 75.9502C85.978 75.5599 86.0675 75.2144 86.2466 74.9136C86.4256 74.6128 86.6834 74.38 87.02 74.2153C87.3566 74.047 87.7559 73.9629 88.2178 73.9629C88.7119 73.9629 89.1165 74.0596 89.4316 74.2529C89.6393 73.9951 89.7593 73.6782 89.7915 73.3022L89.9043 73.2324L90.7959 73.4473C90.7637 73.7373 90.6777 73.9844 90.5381 74.1885C90.3984 74.389 90.1925 74.5591 89.9204 74.6987V74.8169C90.2749 75.1069 90.4521 75.5169 90.4521 76.0469C90.4521 76.4157 90.3608 76.7487 90.1782 77.0459C89.9992 77.3395 89.7396 77.5705 89.3994 77.7388C89.0628 77.9071 88.6689 77.9912 88.2178 77.9912C88.1784 77.9912 88.0942 77.9876 87.9653 77.9805C87.8221 77.9733 87.7201 77.9697 87.6592 77.9697C87.498 77.9697 87.3709 78.0127 87.2778 78.0986C87.1847 78.1846 87.1382 78.2938 87.1382 78.4263C87.1382 78.5802 87.1919 78.6966 87.2993 78.7754C87.4103 78.8542 87.584 78.8989 87.8203 78.9097L89.1846 78.958C90.4342 78.9974 91.0591 79.5345 91.0591 80.5693C91.0591 80.9382 90.9624 81.2676 90.769 81.5576C90.5757 81.8512 90.266 82.084 89.8398 82.2559C89.4173 82.4277 88.8748 82.5137 88.2124 82.5137ZM88.2178 77.0942C88.5687 77.0942 88.8408 76.9976 89.0342 76.8042C89.2311 76.6108 89.3296 76.3369 89.3296 75.9824C89.3296 75.6243 89.2329 75.3486 89.0396 75.1553C88.8462 74.9583 88.5723 74.8599 88.2178 74.8599C87.8597 74.8599 87.5858 74.9565 87.396 75.1499C87.2062 75.3433 87.1113 75.6208 87.1113 75.9824C87.1113 76.3369 87.2062 76.6108 87.396 76.8042C87.5858 76.9976 87.8597 77.0942 88.2178 77.0942ZM88.2124 81.6006C88.7889 81.6006 89.2078 81.5129 89.4692 81.3374C89.7342 81.1655 89.8667 80.9471 89.8667 80.6821C89.8667 80.4565 89.7987 80.2936 89.6626 80.1934C89.5301 80.0931 89.3045 80.0358 88.9858 80.0215L87.7397 79.957L87.541 79.9517C87.2223 79.9552 86.986 80.0215 86.832 80.1504C86.6781 80.2829 86.6011 80.4637 86.6011 80.6929C86.6011 80.9901 86.7354 81.2157 87.0039 81.3696C87.2725 81.5236 87.6753 81.6006 88.2124 81.6006ZM92.2192 80V74.0757H93.3472V74.9727L93.46 74.9995C93.6497 74.6593 93.895 74.4015 94.1958 74.2261C94.4966 74.0506 94.8636 73.9629 95.2969 73.9629C95.9951 73.9629 96.5036 74.1473 96.8223 74.5161C97.1445 74.8813 97.3057 75.431 97.3057 76.165V80H96.124V76.2671C96.124 75.8052 96.0327 75.474 95.8501 75.2734C95.6675 75.0729 95.3739 74.9727 94.9692 74.9727C94.4858 74.9727 94.1027 75.1302 93.8198 75.4453C93.5405 75.7604 93.4009 76.2599 93.4009 76.9438V80H92.2192Z" fill="#0E1318" fill-opacity="0.7"/>
<g filter="url(#filter1_dd_6839_90073)">
<path d="M64 108C64 103.582 67.5817 100 72 100H88C92.4183 100 96 103.582 96 108V124C96 128.418 92.4183 132 88 132H72C67.5817 132 64 128.418 64 124V108Z" fill="white"/>
<path fill-rule="evenodd" clip-rule="evenodd" d="M74.5492 115.242C74.7709 115.361 75.0152 115.42 75.2586 115.42C75.5027 115.42 75.7472 115.361 75.9694 115.241L75.9723 115.24L75.9759 115.238L75.9852 115.233L76.0118 115.218C76.0331 115.206 76.0613 115.19 76.0956 115.17C76.1642 115.13 76.2579 115.074 76.3706 115.002C76.5949 114.859 76.9002 114.651 77.2357 114.383C77.8737 113.872 78.7137 113.071 79.2616 112.008C79.5304 111.559 79.6847 111.032 79.6847 110.474C79.6847 108.822 78.3455 107.483 76.6936 107.483C76.1732 107.483 75.6844 107.616 75.2587 107.849C74.833 107.616 74.3441 107.483 73.8237 107.483C72.1718 107.483 70.8325 108.822 70.8325 110.474C70.8325 110.993 70.9657 111.484 71.2007 111.912C71.7418 113.014 72.6033 113.841 73.2563 114.365C73.5982 114.64 73.9102 114.852 74.1396 114.998C74.2548 115.072 74.3507 115.129 74.4209 115.17C74.456 115.19 74.4848 115.207 74.5065 115.219L74.5337 115.234L74.5432 115.239L74.5469 115.241L74.5492 115.242ZM72.5307 111.217C72.8815 111.948 73.4478 112.557 73.9736 113.011C74.3951 113.375 74.7906 113.638 75.0286 113.785C75.1718 113.874 75.2585 113.92 75.2585 113.92C75.2585 113.92 75.3447 113.874 75.4879 113.785C75.7256 113.638 76.1213 113.373 76.5421 113.009C77.0521 112.567 77.5999 111.979 77.9517 111.275C78.0992 111.043 78.1847 110.769 78.1847 110.474C78.1847 109.651 77.5171 108.983 76.6936 108.983C76.6036 108.983 76.5156 108.991 76.43 109.006C75.8664 109.107 75.4124 109.524 75.2586 110.067C75.1049 109.524 74.6509 109.107 74.0873 109.006C74.0017 108.991 73.9136 108.983 73.8237 108.983C73.0001 108.983 72.3325 109.65 72.3325 110.474C72.3325 110.745 72.4046 110.998 72.5307 111.217Z" fill="#0E1318" fill-opacity="0.7"/>
<path fill-rule="evenodd" clip-rule="evenodd" d="M85.5363 108.011C85.1407 107.33 84.1568 107.33 83.7611 108.011L80.4542 113.705C80.0568 114.39 80.5505 115.247 81.3419 115.247H87.9556C88.7469 115.247 89.2406 114.39 88.8432 113.705L85.5363 108.011ZM84.6487 109.47L82.1645 113.747H87.1329L84.6487 109.47Z" fill="#0E1318" fill-opacity="0.7"/>
<path fill-rule="evenodd" clip-rule="evenodd" d="M88.8614 121.168C88.8614 123.495 86.9753 125.381 84.6487 125.381C82.3221 125.381 80.436 123.495 80.436 121.168C80.436 118.842 82.3221 116.956 84.6487 116.956C86.9753 116.956 88.8614 118.842 88.8614 121.168ZM87.3614 121.168C87.3614 122.666 86.1469 123.881 84.6487 123.881C83.1505 123.881 81.936 122.666 81.936 121.168C81.936 119.67 83.1505 118.456 84.6487 118.456C86.1469 118.456 87.3614 119.67 87.3614 121.168Z" fill="#0E1318" fill-opacity="0.7"/>
<path fill-rule="evenodd" clip-rule="evenodd" d="M71.4063 118.086C71.4063 117.661 71.7509 117.316 72.1761 117.316H78.3166C78.7418 117.316 79.0864 117.661 79.0864 118.086V124.38C79.0864 124.72 78.8107 124.996 78.4706 124.996H72.1761C71.7509 124.996 71.4063 124.651 71.4063 124.226V118.086ZM72.9063 123.496V118.816H77.5864V123.496H72.9063Z" fill="#0E1318" fill-opacity="0.7"/>
</g>
<path d="M57.4253 144.423V146.969H61.3032V148H56.1899V140.147H61.2173V141.179H57.4253V143.408H60.7554V144.423H57.4253ZM64.1875 148.113C63.7113 148.113 63.3424 147.982 63.0811 147.721C62.8197 147.456 62.689 147.058 62.689 146.528V139.696H63.8706V146.469C63.8706 146.688 63.9136 146.845 63.9995 146.942C64.0854 147.039 64.2161 147.087 64.3916 147.087C64.4919 147.087 64.5993 147.071 64.7139 147.039L64.7891 147.06L64.9072 147.973C64.832 148.02 64.73 148.054 64.6011 148.075C64.4757 148.1 64.3379 148.113 64.1875 148.113ZM70.8477 145.304H66.9053C66.9733 146.493 67.5247 147.087 68.5596 147.087C68.9427 147.087 69.2507 147.019 69.4834 146.883C69.7197 146.743 69.9059 146.528 70.042 146.238H70.1548L70.9336 146.722C70.751 147.144 70.4663 147.483 70.0796 147.737C69.6965 147.987 69.1898 148.113 68.5596 148.113C67.9688 148.113 67.4585 147.998 67.0288 147.769C66.5991 147.54 66.2679 147.196 66.0352 146.738C65.8024 146.279 65.686 145.714 65.686 145.041C65.686 144.367 65.8078 143.8 66.0513 143.338C66.2948 142.876 66.6278 142.532 67.0503 142.307C67.4728 142.077 67.9491 141.963 68.479 141.963C69.2775 141.963 69.8934 142.181 70.3267 142.618C70.7635 143.055 70.9837 143.698 70.9873 144.546C70.9873 144.865 70.9784 145.096 70.9604 145.239L70.8477 145.304ZM69.8433 144.46C69.8289 143.92 69.7054 143.526 69.4727 143.279C69.2435 143.032 68.9123 142.908 68.479 142.908C68.0422 142.908 67.6912 143.032 67.4263 143.279C67.1649 143.526 67.0002 143.92 66.9321 144.46H69.8433ZM72.4214 148V142.076H73.5493V142.908L73.6621 142.93C73.8626 142.604 74.099 142.362 74.3711 142.205C74.6432 142.043 74.978 141.963 75.3755 141.963C75.8302 141.963 76.1883 142.051 76.4497 142.226C76.7111 142.402 76.908 142.67 77.0405 143.032H77.1533C77.3467 142.674 77.5902 142.407 77.8838 142.231C78.1774 142.052 78.5409 141.963 78.9741 141.963C79.59 141.963 80.0483 142.133 80.3491 142.473C80.6499 142.81 80.8003 143.315 80.8003 143.988V148H79.6187V144.09C79.6187 143.703 79.5381 143.42 79.377 143.241C79.2194 143.062 78.9652 142.973 78.6143 142.973C78.1846 142.973 77.8408 143.123 77.583 143.424C77.3288 143.725 77.2017 144.215 77.2017 144.896V148H76.02V144.09C76.02 143.703 75.9395 143.42 75.7783 143.241C75.6208 143.062 75.3665 142.973 75.0156 142.973C74.5859 142.973 74.2422 143.119 73.9844 143.413C73.7301 143.707 73.603 144.181 73.603 144.836V148H72.4214ZM87.4014 145.304H83.459C83.527 146.493 84.0785 147.087 85.1133 147.087C85.4964 147.087 85.8044 147.019 86.0371 146.883C86.2734 146.743 86.4596 146.528 86.5957 146.238H86.7085L87.4873 146.722C87.3047 147.144 87.02 147.483 86.6333 147.737C86.2502 147.987 85.7435 148.113 85.1133 148.113C84.5225 148.113 84.0122 147.998 83.5825 147.769C83.1528 147.54 82.8216 147.196 82.5889 146.738C82.3561 146.279 82.2397 145.714 82.2397 145.041C82.2397 144.367 82.3615 143.8 82.605 143.338C82.8485 142.876 83.1815 142.532 83.604 142.307C84.0265 142.077 84.5028 141.963 85.0327 141.963C85.8312 141.963 86.4471 142.181 86.8804 142.618C87.3172 143.055 87.5374 143.698 87.541 144.546C87.541 144.865 87.5321 145.096 87.5142 145.239L87.4014 145.304ZM86.397 144.46C86.3826 143.92 86.2591 143.526 86.0264 143.279C85.7972 143.032 85.466 142.908 85.0327 142.908C84.5959 142.908 84.245 143.032 83.98 143.279C83.7186 143.526 83.5539 143.92 83.4858 144.46H86.397ZM88.9751 148V142.076H90.103V142.973L90.2158 143C90.4056 142.659 90.6509 142.402 90.9517 142.226C91.2524 142.051 91.6195 141.963 92.0527 141.963C92.751 141.963 93.2594 142.147 93.5781 142.516C93.9004 142.881 94.0615 143.431 94.0615 144.165V148H92.8799V144.267C92.8799 143.805 92.7886 143.474 92.606 143.273C92.4233 143.073 92.1297 142.973 91.7251 142.973C91.2417 142.973 90.8586 143.13 90.5757 143.445C90.2964 143.76 90.1567 144.26 90.1567 144.944V148H88.9751ZM98.9224 146.824L99.2554 147.688C99.105 147.825 98.9116 147.928 98.6753 148C98.439 148.075 98.1776 148.113 97.8911 148.113C97.2967 148.113 96.8438 147.955 96.5322 147.64C96.2207 147.325 96.0649 146.854 96.0649 146.228V143.021H95.0981V142.07H96.0649V140.867L97.2466 140.674V142.07H99.0405V143.021H97.2466V146.131C97.2466 146.46 97.3146 146.698 97.4507 146.845C97.5903 146.992 97.7891 147.065 98.0469 147.065C98.3369 147.065 98.5911 146.985 98.8096 146.824H98.9224ZM102.177 148.113C101.791 148.113 101.432 148.064 101.103 147.968C100.777 147.871 100.5 147.739 100.271 147.57C100.045 147.398 99.8802 147.205 99.7764 146.99L100.448 146.276H100.561C100.951 146.838 101.492 147.119 102.183 147.119C102.544 147.119 102.818 147.051 103.004 146.915C103.194 146.775 103.289 146.582 103.289 146.335C103.289 146.142 103.226 145.982 103.101 145.857C102.979 145.728 102.784 145.631 102.516 145.567L101.624 145.347C101.065 145.214 100.655 145.007 100.394 144.724C100.136 144.437 100.007 144.081 100.007 143.655C100.007 143.307 100.095 143.007 100.271 142.752C100.45 142.498 100.702 142.303 101.028 142.167C101.354 142.031 101.737 141.963 102.177 141.963C102.718 141.963 103.153 142.04 103.482 142.194C103.815 142.344 104.075 142.552 104.261 142.817L103.617 143.488H103.509C103.334 143.284 103.137 143.137 102.918 143.048C102.704 142.958 102.457 142.914 102.177 142.914C101.83 142.914 101.569 142.973 101.393 143.091C101.218 143.205 101.13 143.374 101.13 143.596C101.13 143.793 101.194 143.952 101.323 144.074C101.452 144.195 101.676 144.294 101.995 144.369L102.854 144.568C103.413 144.693 103.817 144.897 104.068 145.18C104.322 145.463 104.449 145.832 104.449 146.287C104.449 146.648 104.361 146.967 104.186 147.243C104.011 147.515 103.753 147.728 103.413 147.882C103.072 148.036 102.661 148.113 102.177 148.113Z" fill="#0E1318" fill-opacity="0.7"/>
</g>
</g>
<defs>
<filter id="filter0_dd_6839_90073" x="61" y="31" width="38" height="38" filterUnits="userSpaceOnUse" color-interpolation-filters="sRGB">
<feFlood flood-opacity="0" result="BackgroundImageFix"/>
<feColorMatrix in="SourceAlpha" type="matrix" values="0 0 0 0 0 0 0 0 0 0 0 0 0 0 0 0 0 0 127 0" result="hardAlpha"/>
<feMorphology radius="1" operator="erode" in="SourceAlpha" result="effect1_dropShadow_6839_90073"/>
<feOffset dy="2"/>
<feGaussianBlur stdDeviation="2"/>
<feColorMatrix type="matrix" values="0 0 0 0 0.25098 0 0 0 0 0.341176 0 0 0 0 0.427451 0 0 0 0.3 0"/>
<feBlend mode="normal" in2="BackgroundImageFix" result="effect1_dropShadow_6839_90073"/>
<feColorMatrix in="SourceAlpha" type="matrix" values="0 0 0 0 0 0 0 0 0 0 0 0 0 0 0 0 0 0 127 0" result="hardAlpha"/>
<feMorphology radius="1" operator="dilate" in="SourceAlpha" result="effect2_dropShadow_6839_90073"/>
<feOffset/>
<feColorMatrix type="matrix" values="0 0 0 0 0.25098 0 0 0 0 0.341176 0 0 0 0 0.427451 0 0 0 0.04 0"/>
<feBlend mode="normal" in2="effect1_dropShadow_6839_90073" result="effect2_dropShadow_6839_90073"/>
<feBlend mode="normal" in="SourceGraphic" in2="effect2_dropShadow_6839_90073" result="shape"/>
</filter>
<filter id="filter1_dd_6839_90073" x="61" y="99" width="38" height="38" filterUnits="userSpaceOnUse" color-interpolation-filters="sRGB">
<feFlood flood-opacity="0" result="BackgroundImageFix"/>
<feColorMatrix in="SourceAlpha" type="matrix" values="0 0 0 0 0 0 0 0 0 0 0 0 0 0 0 0 0 0 127 0" result="hardAlpha"/>
<feMorphology radius="1" operator="erode" in="SourceAlpha" result="effect1_dropShadow_6839_90073"/>
<feOffset dy="2"/>
<feGaussianBlur stdDeviation="2"/>
<feColorMatrix type="matrix" values="0 0 0 0 0.25098 0 0 0 0 0.341176 0 0 0 0 0.427451 0 0 0 0.3 0"/>
<feBlend mode="normal" in2="BackgroundImageFix" result="effect1_dropShadow_6839_90073"/>
<feColorMatrix in="SourceAlpha" type="matrix" values="0 0 0 0 0 0 0 0 0 0 0 0 0 0 0 0 0 0 127 0" result="hardAlpha"/>
<feMorphology radius="1" operator="dilate" in="SourceAlpha" result="effect2_dropShadow_6839_90073"/>
<feOffset/>
<feColorMatrix type="matrix" values="0 0 0 0 0.25098 0 0 0 0 0.341176 0 0 0 0 0.427451 0 0 0 0.04 0"/>
<feBlend mode="normal" in2="effect1_dropShadow_6839_90073" result="effect2_dropShadow_6839_90073"/>
<feBlend mode="normal" in="SourceGraphic" in2="effect2_dropShadow_6839_90073" result="shape"/>
</filter>
<clipPath id="clip0_6839_90073">
<rect width="72" height="528" fill="white" transform="translate(44 16)"/>
</clipPath>
</defs>
</svg>
