<svg width="160" height="152" viewBox="0 0 160 152" fill="none" xmlns="http://www.w3.org/2000/svg">
<rect width="160" height="152" fill="#40576D" fill-opacity="0.07"/>
<g clip-path="url(#clip0_7000_159855)">
<rect width="375" height="812" transform="translate(16 -676)" fill="#2B3B4A" fill-opacity="0.3"/>
<g filter="url(#filter0_dd_7000_159855)">
<g clip-path="url(#clip1_7000_159855)">
<path d="M16 -620C16 -626.627 21.3726 -632 28 -632H379C385.627 -632 391 -626.627 391 -620V136H16V-620Z" fill="white"/>
<g clip-path="url(#clip2_7000_159855)">
<mask id="mask0_7000_159855" style="mask-type:alpha" maskUnits="userSpaceOnUse" x="16" y="30" width="375" height="72">
<rect x="16" y="30" width="30" height="72" fill="url(#paint0_linear_7000_159855)"/>
<rect x="46" y="30" width="315" height="72" fill="#D9D9D9"/>
</mask>
<g mask="url(#mask0_7000_159855)">
<g filter="url(#filter1_dd_7000_159855)">
<path d="M36 48C36 43.5817 39.5817 40 44 40H60C64.4183 40 68 43.5817 68 48V64C68 68.4183 64.4183 72 60 72H44C39.5817 72 36 68.4183 36 64V48Z" fill="white"/>
<path fill-rule="evenodd" clip-rule="evenodd" d="M43 55.325C43 51.7347 43 49.9395 43.9661 48.7141C44.1851 48.4362 44.4362 48.1851 44.7141 47.9661C45.9395 47 47.7347 47 51.325 47H52.675C56.2653 47 58.0605 47 59.2859 47.9661C59.5638 48.1851 59.8149 48.4362 60.0339 48.7141C61 49.9395 61 51.7347 61 55.325V56.675C61 60.2653 61 62.0605 60.0339 63.2859C59.8149 63.5638 59.5638 63.8149 59.2859 64.0339C58.0605 65 56.2653 65 52.675 65H51.325C47.7347 65 45.9395 65 44.7141 64.0339C44.4362 63.8149 44.1851 63.5638 43.9661 63.2859C43 62.0605 43 60.2653 43 56.675V55.325ZM51.325 48.5H52.675C52.9642 48.5 53.2389 48.5001 53.5 48.5006L53.5 63.4994C53.2389 63.4999 52.9642 63.5 52.675 63.5H51.325C49.4942 63.5 48.2492 63.4977 47.304 63.389C46.3901 63.284 45.9479 63.0965 45.6427 62.856C45.4575 62.7099 45.2901 62.5425 45.144 62.3573C44.9035 62.0521 44.716 61.6099 44.611 60.696C44.5023 59.7508 44.5 58.5058 44.5 56.675V55.325C44.5 53.4942 44.5023 52.2492 44.611 51.304C44.716 50.3901 44.9035 49.9479 45.144 49.6427C45.2901 49.4575 45.4575 49.2901 45.6427 49.144C45.9479 48.9035 46.3901 48.716 47.304 48.611C48.2492 48.5023 49.4942 48.5 51.325 48.5ZM55 63.4856C55.6661 63.4716 56.2192 63.4438 56.696 63.389C57.6099 63.284 58.0521 63.0965 58.3573 62.856C58.5425 62.7099 58.7099 62.5425 58.856 62.3573C59.0965 62.0521 59.284 61.6099 59.389 60.696C59.4977 59.7508 59.5 58.5058 59.5 56.675V55.325C59.5 55.2209 59.5 55.1187 59.5 55.0184H55L55 63.4856ZM59.4938 53.5184C59.4837 52.6137 59.4575 51.8994 59.389 51.304C59.284 50.3901 59.0965 49.9479 58.856 49.6427C58.7099 49.4575 58.5425 49.2901 58.3573 49.144C58.0521 48.9035 57.6099 48.716 56.696 48.611C56.2192 48.5562 55.6661 48.5284 55 48.5144V53.5184H59.4938Z" fill="#0E1318" fill-opacity="0.7"/>
</g>
<path d="M37.627 80.1475C38.8695 80.1475 39.8273 80.4751 40.5005 81.1304C41.1737 81.7856 41.5103 82.7668 41.5103 84.0737C41.5103 85.3771 41.1737 86.3582 40.5005 87.0171C39.8273 87.6724 38.8695 88 37.627 88H34.9468V80.1475H37.627ZM37.5356 86.9526C38.1336 86.9526 38.6278 86.8577 39.0181 86.668C39.4119 86.4782 39.7091 86.172 39.9097 85.7495C40.1138 85.3234 40.2158 84.7648 40.2158 84.0737C40.2158 83.3791 40.1138 82.8205 39.9097 82.3979C39.7091 81.9754 39.4119 81.6693 39.0181 81.4795C38.6278 81.2861 38.1336 81.1895 37.5356 81.1895H36.1821V86.9526H37.5356ZM47.9717 85.3037H44.0293C44.0973 86.4925 44.6488 87.0869 45.6836 87.0869C46.0667 87.0869 46.3747 87.0189 46.6074 86.8828C46.8438 86.7432 47.0299 86.5283 47.166 86.2383H47.2788L48.0576 86.7217C47.875 87.1442 47.5903 87.4826 47.2036 87.7368C46.8205 87.9875 46.3138 88.1128 45.6836 88.1128C45.0928 88.1128 44.5825 87.9982 44.1528 87.769C43.7231 87.5399 43.3919 87.1961 43.1592 86.7378C42.9264 86.2795 42.8101 85.7137 42.8101 85.0405C42.8101 84.3674 42.9318 83.7998 43.1753 83.3379C43.4188 82.876 43.7518 82.5322 44.1743 82.3066C44.5968 82.0775 45.0731 81.9629 45.603 81.9629C46.4015 81.9629 47.0174 82.1813 47.4507 82.6182C47.8875 83.055 48.1077 83.6978 48.1113 84.5464C48.1113 84.8651 48.1024 85.096 48.0845 85.2393L47.9717 85.3037ZM46.9673 84.4604C46.953 83.9198 46.8294 83.5259 46.5967 83.2788C46.3675 83.0317 46.0363 82.9082 45.603 82.9082C45.1662 82.9082 44.8153 83.0317 44.5503 83.2788C44.2889 83.5259 44.1242 83.9198 44.0562 84.4604H46.9673ZM51.3394 88.1128C50.9526 88.1128 50.5946 88.0645 50.2651 87.9678C49.9393 87.8711 49.6618 87.7386 49.4326 87.5703C49.207 87.3984 49.0423 87.2051 48.9385 86.9902L49.6099 86.2759H49.7227C50.113 86.8381 50.6536 87.1191 51.3447 87.1191C51.7064 87.1191 51.9803 87.0511 52.1665 86.915C52.3563 86.7754 52.4512 86.582 52.4512 86.335C52.4512 86.1416 52.3885 85.9823 52.2632 85.8569C52.1414 85.728 51.9463 85.6313 51.6777 85.5669L50.7861 85.3467C50.2275 85.2142 49.8175 85.0065 49.5562 84.7236C49.2983 84.4372 49.1694 84.0809 49.1694 83.6548C49.1694 83.3075 49.2572 83.0067 49.4326 82.7524C49.6117 82.4982 49.8641 82.3031 50.1899 82.167C50.5158 82.0309 50.8989 81.9629 51.3394 81.9629C51.88 81.9629 52.3151 82.0399 52.6445 82.1938C52.9775 82.3442 53.2371 82.5519 53.4233 82.8169L52.7788 83.4883H52.6714C52.4959 83.2842 52.299 83.1374 52.0806 83.0479C51.8657 82.9583 51.6187 82.9136 51.3394 82.9136C50.992 82.9136 50.7306 82.9727 50.5552 83.0908C50.3797 83.2054 50.292 83.3737 50.292 83.5957C50.292 83.7926 50.3564 83.952 50.4854 84.0737C50.6143 84.1955 50.8381 84.2939 51.1567 84.3691L52.0161 84.5679C52.5747 84.6932 52.9793 84.8973 53.23 85.1802C53.4842 85.4631 53.6113 85.8319 53.6113 86.2866C53.6113 86.6483 53.5236 86.967 53.3481 87.2427C53.1727 87.5148 52.9149 87.7279 52.5747 87.8818C52.2345 88.0358 51.8228 88.1128 51.3394 88.1128ZM55.6147 81.1465C55.3892 81.1465 55.2048 81.0767 55.0615 80.937C54.9183 80.7974 54.8467 80.6183 54.8467 80.3999C54.8467 80.1851 54.9183 80.0078 55.0615 79.8682C55.2048 79.7285 55.3892 79.6587 55.6147 79.6587C55.8403 79.6587 56.0247 79.7285 56.168 79.8682C56.3148 80.0078 56.3882 80.1851 56.3882 80.3999C56.3882 80.6183 56.3166 80.7974 56.1733 80.937C56.0301 81.0767 55.8439 81.1465 55.6147 81.1465ZM55.0239 88V82.0757H56.2056V88H55.0239ZM60.2124 90.5137C59.2563 90.5137 58.5545 90.3633 58.1069 90.0625C57.6593 89.7653 57.4355 89.3607 57.4355 88.8486C57.4355 88.5264 57.5358 88.265 57.7363 88.0645C57.9368 87.8639 58.2251 87.7261 58.6011 87.6509V87.5381C58.4113 87.4271 58.2716 87.3 58.1821 87.1567C58.0926 87.0099 58.0479 86.8398 58.0479 86.6465C58.0479 86.1846 58.3468 85.8766 58.9448 85.7227V85.6099C58.3003 85.2554 57.978 84.7021 57.978 83.9502C57.978 83.5599 58.0675 83.2144 58.2466 82.9136C58.4256 82.6128 58.6834 82.38 59.02 82.2153C59.3566 82.047 59.7559 81.9629 60.2178 81.9629C60.7119 81.9629 61.1165 82.0596 61.4316 82.2529C61.6393 81.9951 61.7593 81.6782 61.7915 81.3022L61.9043 81.2324L62.7959 81.4473C62.7637 81.7373 62.6777 81.9844 62.5381 82.1885C62.3984 82.389 62.1925 82.5591 61.9204 82.6987V82.8169C62.2749 83.1069 62.4521 83.5169 62.4521 84.0469C62.4521 84.4157 62.3608 84.7487 62.1782 85.0459C61.9992 85.3395 61.7396 85.5705 61.3994 85.7388C61.0628 85.9071 60.6689 85.9912 60.2178 85.9912C60.1784 85.9912 60.0942 85.9876 59.9653 85.9805C59.8221 85.9733 59.7201 85.9697 59.6592 85.9697C59.498 85.9697 59.3709 86.0127 59.2778 86.0986C59.1847 86.1846 59.1382 86.2938 59.1382 86.4263C59.1382 86.5802 59.1919 86.6966 59.2993 86.7754C59.4103 86.8542 59.584 86.8989 59.8203 86.9097L61.1846 86.958C62.4342 86.9974 63.0591 87.5345 63.0591 88.5693C63.0591 88.9382 62.9624 89.2676 62.769 89.5576C62.5757 89.8512 62.266 90.084 61.8398 90.2559C61.4173 90.4277 60.8748 90.5137 60.2124 90.5137ZM60.2178 85.0942C60.5687 85.0942 60.8408 84.9976 61.0342 84.8042C61.2311 84.6108 61.3296 84.3369 61.3296 83.9824C61.3296 83.6243 61.2329 83.3486 61.0396 83.1553C60.8462 82.9583 60.5723 82.8599 60.2178 82.8599C59.8597 82.8599 59.5858 82.9565 59.396 83.1499C59.2062 83.3433 59.1113 83.6208 59.1113 83.9824C59.1113 84.3369 59.2062 84.6108 59.396 84.8042C59.5858 84.9976 59.8597 85.0942 60.2178 85.0942ZM60.2124 89.6006C60.7889 89.6006 61.2078 89.5129 61.4692 89.3374C61.7342 89.1655 61.8667 88.9471 61.8667 88.6821C61.8667 88.4565 61.7987 88.2936 61.6626 88.1934C61.5301 88.0931 61.3045 88.0358 60.9858 88.0215L59.7397 87.957L59.541 87.9517C59.2223 87.9552 58.986 88.0215 58.832 88.1504C58.6781 88.2829 58.6011 88.4637 58.6011 88.6929C58.6011 88.9901 58.7354 89.2157 59.0039 89.3696C59.2725 89.5236 59.6753 89.6006 60.2124 89.6006ZM64.2192 88V82.0757H65.3472V82.9727L65.46 82.9995C65.6497 82.6593 65.895 82.4015 66.1958 82.2261C66.4966 82.0506 66.8636 81.9629 67.2969 81.9629C67.9951 81.9629 68.5036 82.1473 68.8223 82.5161C69.1445 82.8813 69.3057 83.431 69.3057 84.165V88H68.124V84.2671C68.124 83.8052 68.0327 83.474 67.8501 83.2734C67.6675 83.0729 67.3739 82.9727 66.9692 82.9727C66.4858 82.9727 66.1027 83.1302 65.8198 83.4453C65.5405 83.7604 65.4009 84.2599 65.4009 84.9438V88H64.2192Z" fill="#0E1318" fill-opacity="0.7"/>
<line x1="16" y1="30.5" x2="391" y2="30.5" stroke="#394C60" stroke-opacity="0.15"/>
<g filter="url(#filter2_dd_7000_159855)">
<path d="M108 48C108 43.5817 111.582 40 116 40H132C136.418 40 140 43.5817 140 48V64C140 68.4183 136.418 72 132 72H116C111.582 72 108 68.4183 108 64V48Z" fill="white"/>
<path fill-rule="evenodd" clip-rule="evenodd" d="M118.549 55.242C118.771 55.3609 119.015 55.4205 119.259 55.4205C119.503 55.4205 119.747 55.361 119.969 55.2415L119.972 55.2399L119.976 55.2379L119.985 55.2329L120.012 55.2181C120.033 55.2062 120.061 55.1902 120.096 55.1702C120.164 55.1303 120.258 55.0741 120.371 55.0023C120.595 54.8594 120.9 54.6511 121.236 54.3827C121.874 53.8724 122.714 53.0715 123.262 52.0082C123.53 51.5587 123.685 51.0324 123.685 50.4741C123.685 48.8221 122.345 47.483 120.694 47.483C120.173 47.483 119.684 47.6157 119.259 47.8489C118.833 47.6156 118.344 47.4829 117.824 47.4829C116.172 47.4829 114.833 48.822 114.833 50.474C114.833 50.9925 114.966 51.4842 115.201 51.9122C115.742 53.0136 116.603 53.841 117.256 54.3651C117.598 54.6396 117.91 54.8524 118.14 54.9984C118.255 55.0718 118.351 55.1292 118.421 55.1699C118.456 55.1903 118.485 55.2066 118.507 55.2187L118.534 55.2338L118.543 55.2389L118.547 55.2409L118.549 55.242ZM116.531 51.2173C116.882 51.9484 117.448 52.5573 117.974 53.011C118.395 53.3746 118.791 53.6384 119.029 53.7855C119.172 53.8739 119.259 53.9205 119.259 53.9205C119.259 53.9205 119.345 53.8742 119.488 53.7855C119.726 53.638 120.121 53.3732 120.542 53.0089C121.052 52.5674 121.6 51.9793 121.952 51.2748C122.099 51.0435 122.185 50.7688 122.185 50.4741C122.185 49.6506 121.517 48.983 120.694 48.983C120.604 48.983 120.516 48.991 120.43 49.0062C119.866 49.1067 119.412 49.5239 119.259 50.0672C119.105 49.5239 118.651 49.1067 118.087 49.0061C118.002 48.9909 117.914 48.9829 117.824 48.9829C117 48.9829 116.333 49.6505 116.333 50.474C116.333 50.7447 116.405 50.9985 116.531 51.2173Z" fill="#0E1318" fill-opacity="0.7"/>
<path fill-rule="evenodd" clip-rule="evenodd" d="M129.536 48.0113C129.141 47.33 128.157 47.33 127.761 48.0113L124.454 53.7054C124.057 54.3897 124.551 55.2473 125.342 55.2473H131.956C132.747 55.2473 133.241 54.3897 132.843 53.7054L129.536 48.0113ZM128.649 49.4697L126.164 53.7473H131.133L128.649 49.4697Z" fill="#0E1318" fill-opacity="0.7"/>
<path fill-rule="evenodd" clip-rule="evenodd" d="M132.861 61.1681C132.861 63.4946 130.975 65.3806 128.649 65.3806C126.322 65.3806 124.436 63.4946 124.436 61.1681C124.436 58.8416 126.322 56.9556 128.649 56.9556C130.975 56.9556 132.861 58.8416 132.861 61.1681ZM131.361 61.1681C131.361 62.6661 130.147 63.8806 128.649 63.8806C127.15 63.8806 125.936 62.6661 125.936 61.1681C125.936 59.6701 127.15 58.4556 128.649 58.4556C130.147 58.4556 131.361 59.6701 131.361 61.1681Z" fill="#0E1318" fill-opacity="0.7"/>
<path fill-rule="evenodd" clip-rule="evenodd" d="M115.406 58.0862C115.406 57.661 115.751 57.3163 116.176 57.3163H122.317C122.742 57.3163 123.086 57.661 123.086 58.0862V64.3803C123.086 64.7204 122.811 64.9962 122.471 64.9962H116.176C115.751 64.9962 115.406 64.6515 115.406 64.2263V58.0862ZM116.906 63.4962V58.8163H121.586V63.4962H116.906Z" fill="#0E1318" fill-opacity="0.7"/>
</g>
<path d="M107.871 80.1475C109.113 80.1475 110.071 80.4751 110.744 81.1304C111.417 81.7856 111.754 82.7668 111.754 84.0737C111.754 85.3771 111.417 86.3582 110.744 87.0171C110.071 87.6724 109.113 88 107.871 88H105.19V80.1475H107.871ZM107.779 86.9526C108.377 86.9526 108.871 86.8577 109.262 86.668C109.656 86.4782 109.953 86.172 110.153 85.7495C110.357 85.3234 110.459 84.7648 110.459 84.0737C110.459 83.3791 110.357 82.8205 110.153 82.3979C109.953 81.9754 109.656 81.6693 109.262 81.4795C108.871 81.2861 108.377 81.1895 107.779 81.1895H106.426V86.9526H107.779ZM118.215 85.3037H114.273C114.341 86.4925 114.892 87.0869 115.927 87.0869C116.31 87.0869 116.618 87.0189 116.851 86.8828C117.087 86.7432 117.274 86.5283 117.41 86.2383H117.522L118.301 86.7217C118.119 87.1442 117.834 87.4826 117.447 87.7368C117.064 87.9875 116.557 88.1128 115.927 88.1128C115.336 88.1128 114.826 87.9982 114.396 87.769C113.967 87.5399 113.636 87.1961 113.403 86.7378C113.17 86.2795 113.054 85.7137 113.054 85.0405C113.054 84.3674 113.175 83.7998 113.419 83.3379C113.662 82.876 113.995 82.5322 114.418 82.3066C114.84 82.0775 115.317 81.9629 115.847 81.9629C116.645 81.9629 117.261 82.1813 117.694 82.6182C118.131 83.055 118.351 83.6978 118.355 84.5464C118.355 84.8651 118.346 85.096 118.328 85.2393L118.215 85.3037ZM117.211 84.4604C117.197 83.9198 117.073 83.5259 116.84 83.2788C116.611 83.0317 116.28 82.9082 115.847 82.9082C115.41 82.9082 115.059 83.0317 114.794 83.2788C114.533 83.5259 114.368 83.9198 114.3 84.4604H117.211ZM120.025 88V83.021H119.091V82.0703H120.025C119.961 81.8053 119.929 81.5654 119.929 81.3506C119.929 80.971 120.013 80.6488 120.181 80.3838C120.349 80.1188 120.586 79.9201 120.89 79.7876C121.198 79.6515 121.558 79.5835 121.97 79.5835C122.593 79.5835 123.064 79.7035 123.382 79.9434L123.039 80.7974L122.926 80.8188C122.697 80.647 122.403 80.561 122.045 80.561C121.737 80.561 121.504 80.6398 121.347 80.7974C121.193 80.9513 121.116 81.1662 121.116 81.4419C121.116 81.646 121.146 81.8555 121.207 82.0703H122.996V83.021H121.207V88H120.025ZM125.423 88.1128C124.843 88.1128 124.389 87.9588 124.059 87.6509C123.73 87.3394 123.565 86.8989 123.565 86.3296C123.565 85.9787 123.638 85.6833 123.785 85.4434C123.932 85.2035 124.161 85.0083 124.473 84.8579C124.784 84.7039 125.189 84.5858 125.687 84.5034C126.077 84.439 126.374 84.3674 126.578 84.2886C126.782 84.2098 126.92 84.1221 126.992 84.0254C127.063 83.9251 127.099 83.7998 127.099 83.6494C127.099 83.4202 127.019 83.2448 126.857 83.123C126.7 83.0013 126.442 82.9404 126.084 82.9404C125.407 82.9404 124.833 83.2215 124.36 83.7837H124.252L123.726 83.0103C124.002 82.6844 124.344 82.4284 124.752 82.2422C125.164 82.056 125.62 81.9629 126.122 81.9629C126.863 81.9629 127.403 82.1222 127.744 82.4409C128.087 82.7596 128.259 83.2072 128.259 83.7837V86.6411C128.259 86.9383 128.386 87.0869 128.641 87.0869C128.734 87.0869 128.823 87.0708 128.909 87.0386L128.984 87.0601L129.086 87.8818C129.015 87.932 128.915 87.9714 128.786 88C128.66 88.0286 128.526 88.043 128.383 88.043C128.043 88.043 127.781 87.9731 127.599 87.8335C127.42 87.6938 127.296 87.4808 127.228 87.1943L127.115 87.1836C126.958 87.4951 126.739 87.7279 126.46 87.8818C126.184 88.0358 125.839 88.1128 125.423 88.1128ZM125.756 87.2051C126.032 87.2051 126.274 87.1424 126.481 87.0171C126.689 86.8882 126.848 86.7056 126.959 86.4692C127.07 86.2329 127.126 85.9554 127.126 85.6367V84.96L127.024 84.9385C126.913 85.0208 126.773 85.0907 126.605 85.1479C126.44 85.2017 126.204 85.2536 125.896 85.3037C125.481 85.3646 125.185 85.4738 125.01 85.6313C124.838 85.7853 124.752 86.0037 124.752 86.2866C124.752 86.5874 124.84 86.8166 125.015 86.9741C125.191 87.1281 125.438 87.2051 125.756 87.2051ZM132.051 88.1128C131.385 88.1128 130.891 87.9338 130.569 87.5757C130.247 87.214 130.085 86.693 130.085 86.0127V82.0757H131.267V85.9053C131.267 86.3135 131.358 86.616 131.541 86.813C131.727 87.0063 132.007 87.103 132.379 87.103C132.852 87.103 133.222 86.9473 133.491 86.6357C133.763 86.3242 133.899 85.8265 133.899 85.1426V82.0757H135.081V88H133.953V87.0977L133.84 87.0708C133.643 87.4217 133.405 87.6831 133.125 87.855C132.846 88.0269 132.488 88.1128 132.051 88.1128ZM138.443 88.1128C137.967 88.1128 137.598 87.9821 137.336 87.7207C137.075 87.4557 136.944 87.0583 136.944 86.5283V79.6963H138.126V86.4692C138.126 86.6877 138.169 86.8452 138.255 86.9419C138.341 87.0386 138.472 87.0869 138.647 87.0869C138.747 87.0869 138.855 87.0708 138.969 87.0386L139.044 87.0601L139.163 87.9731C139.087 88.0197 138.985 88.0537 138.856 88.0752C138.731 88.1003 138.593 88.1128 138.443 88.1128ZM143.4 86.8237L143.733 87.6885C143.583 87.8245 143.39 87.9284 143.153 88C142.917 88.0752 142.656 88.1128 142.369 88.1128C141.775 88.1128 141.322 87.9552 141.01 87.6401C140.699 87.325 140.543 86.8542 140.543 86.2275V83.021H139.576V82.0703H140.543V80.8672L141.725 80.6738V82.0703H143.519V83.021H141.725V86.1309C141.725 86.4603 141.793 86.6984 141.929 86.8452C142.068 86.992 142.267 87.0654 142.525 87.0654C142.815 87.0654 143.069 86.9849 143.288 86.8237H143.4Z" fill="#0E1318" fill-opacity="0.7"/>
</g>
</g>
<rect x="136" y="123" width="135" height="5" rx="2.5" fill="black"/>
</g>
</g>
</g>
<defs>
<filter id="filter0_dd_7000_159855" x="0" y="-633" width="407" height="801" filterUnits="userSpaceOnUse" color-interpolation-filters="sRGB">
<feFlood flood-opacity="0" result="BackgroundImageFix"/>
<feColorMatrix in="SourceAlpha" type="matrix" values="0 0 0 0 0 0 0 0 0 0 0 0 0 0 0 0 0 0 127 0" result="hardAlpha"/>
<feMorphology radius="8" operator="erode" in="SourceAlpha" result="effect1_dropShadow_7000_159855"/>
<feOffset dy="16"/>
<feGaussianBlur stdDeviation="12"/>
<feColorMatrix type="matrix" values="0 0 0 0 0.0794444 0 0 0 0 0.108333 0 0 0 0 0.137222 0 0 0 0.14 0"/>
<feBlend mode="normal" in2="BackgroundImageFix" result="effect1_dropShadow_7000_159855"/>
<feColorMatrix in="SourceAlpha" type="matrix" values="0 0 0 0 0 0 0 0 0 0 0 0 0 0 0 0 0 0 127 0" result="hardAlpha"/>
<feMorphology radius="1" operator="dilate" in="SourceAlpha" result="effect2_dropShadow_7000_159855"/>
<feOffset/>
<feComposite in2="hardAlpha" operator="out"/>
<feColorMatrix type="matrix" values="0 0 0 0 0 0 0 0 0 0 0 0 0 0 0 0 0 0 0.05 0"/>
<feBlend mode="normal" in2="effect1_dropShadow_7000_159855" result="effect2_dropShadow_7000_159855"/>
<feBlend mode="normal" in="SourceGraphic" in2="effect2_dropShadow_7000_159855" result="shape"/>
</filter>
<filter id="filter1_dd_7000_159855" x="33" y="39" width="38" height="38" filterUnits="userSpaceOnUse" color-interpolation-filters="sRGB">
<feFlood flood-opacity="0" result="BackgroundImageFix"/>
<feColorMatrix in="SourceAlpha" type="matrix" values="0 0 0 0 0 0 0 0 0 0 0 0 0 0 0 0 0 0 127 0" result="hardAlpha"/>
<feMorphology radius="1" operator="erode" in="SourceAlpha" result="effect1_dropShadow_7000_159855"/>
<feOffset dy="2"/>
<feGaussianBlur stdDeviation="2"/>
<feColorMatrix type="matrix" values="0 0 0 0 0.25098 0 0 0 0 0.341176 0 0 0 0 0.427451 0 0 0 0.3 0"/>
<feBlend mode="normal" in2="BackgroundImageFix" result="effect1_dropShadow_7000_159855"/>
<feColorMatrix in="SourceAlpha" type="matrix" values="0 0 0 0 0 0 0 0 0 0 0 0 0 0 0 0 0 0 127 0" result="hardAlpha"/>
<feMorphology radius="1" operator="dilate" in="SourceAlpha" result="effect2_dropShadow_7000_159855"/>
<feOffset/>
<feColorMatrix type="matrix" values="0 0 0 0 0.25098 0 0 0 0 0.341176 0 0 0 0 0.427451 0 0 0 0.04 0"/>
<feBlend mode="normal" in2="effect1_dropShadow_7000_159855" result="effect2_dropShadow_7000_159855"/>
<feBlend mode="normal" in="SourceGraphic" in2="effect2_dropShadow_7000_159855" result="shape"/>
</filter>
<filter id="filter2_dd_7000_159855" x="105" y="39" width="38" height="38" filterUnits="userSpaceOnUse" color-interpolation-filters="sRGB">
<feFlood flood-opacity="0" result="BackgroundImageFix"/>
<feColorMatrix in="SourceAlpha" type="matrix" values="0 0 0 0 0 0 0 0 0 0 0 0 0 0 0 0 0 0 127 0" result="hardAlpha"/>
<feMorphology radius="1" operator="erode" in="SourceAlpha" result="effect1_dropShadow_7000_159855"/>
<feOffset dy="2"/>
<feGaussianBlur stdDeviation="2"/>
<feColorMatrix type="matrix" values="0 0 0 0 0.25098 0 0 0 0 0.341176 0 0 0 0 0.427451 0 0 0 0.3 0"/>
<feBlend mode="normal" in2="BackgroundImageFix" result="effect1_dropShadow_7000_159855"/>
<feColorMatrix in="SourceAlpha" type="matrix" values="0 0 0 0 0 0 0 0 0 0 0 0 0 0 0 0 0 0 127 0" result="hardAlpha"/>
<feMorphology radius="1" operator="dilate" in="SourceAlpha" result="effect2_dropShadow_7000_159855"/>
<feOffset/>
<feColorMatrix type="matrix" values="0 0 0 0 0.25098 0 0 0 0 0.341176 0 0 0 0 0.427451 0 0 0 0.04 0"/>
<feBlend mode="normal" in2="effect1_dropShadow_7000_159855" result="effect2_dropShadow_7000_159855"/>
<feBlend mode="normal" in="SourceGraphic" in2="effect2_dropShadow_7000_159855" result="shape"/>
</filter>
<linearGradient id="paint0_linear_7000_159855" x1="46" y1="66" x2="16" y2="66" gradientUnits="userSpaceOnUse">
<stop stop-color="#D9D9D9"/>
<stop offset="1" stop-color="#D9D9D9" stop-opacity="0"/>
</linearGradient>
<clipPath id="clip0_7000_159855">
<rect x="16" y="-676" width="375" height="812" rx="16" fill="white"/>
</clipPath>
<clipPath id="clip1_7000_159855">
<path d="M16 -620C16 -626.627 21.3726 -632 28 -632H379C385.627 -632 391 -626.627 391 -620V136H16V-620Z" fill="white"/>
</clipPath>
<clipPath id="clip2_7000_159855">
<rect width="375" height="72" fill="white" transform="translate(16 30)"/>
</clipPath>
</defs>
</svg>
