<svg width="160" height="152" viewBox="0 0 160 152" fill="none" xmlns="http://www.w3.org/2000/svg">
<rect width="160" height="152" fill="#40576D" fill-opacity="0.07"/>
<g clip-path="url(#clip0_6839_90078)">
<mask id="mask0_6839_90078" style="mask-type:luminance" maskUnits="userSpaceOnUse" x="52" y="16" width="56" height="595">
<path d="M97.0312 16H62.9688C57.3251 16 52.75 20.5751 52.75 26.2188V600.172C52.75 605.816 57.3251 610.391 62.9688 610.391H97.0312C102.675 610.391 107.25 605.816 107.25 600.172V26.2188C107.25 20.5751 102.675 16 97.0312 16Z" fill="white"/>
</mask>
<g mask="url(#mask0_6839_90078)">
<mask id="mask1_6839_90078" style="mask-type:luminance" maskUnits="userSpaceOnUse" x="52" y="16" width="56" height="541">
<path d="M107.25 16H52.75V556.742H107.25V16Z" fill="white"/>
</mask>
<g mask="url(#mask1_6839_90078)">
<mask id="mask2_6839_90078" style="mask-type:alpha" maskUnits="userSpaceOnUse" x="52" y="16" width="56" height="541">
<path d="M107.25 16H52.75V522.68H107.25V16Z" fill="#D9D9D9"/>
</mask>
<g mask="url(#mask2_6839_90078)">
<g filter="url(#filter0_d_6839_90078)">
<mask id="mask3_6839_90078" style="mask-type:luminance" maskUnits="userSpaceOnUse" x="62" y="26" width="36" height="35">
<path d="M86.8125 26.2188H73.1875C67.5438 26.2188 62.9688 30.7938 62.9688 36.4375V50.0625C62.9688 55.7062 67.5438 60.2812 73.1875 60.2812H86.8125C92.4562 60.2812 97.0312 55.7062 97.0312 50.0625V36.4375C97.0312 30.7938 92.4562 26.2188 86.8125 26.2188Z" fill="white"/>
</mask>
<g mask="url(#mask3_6839_90078)">
<path d="M86.8125 26.2188H73.1875C67.5438 26.2188 62.9688 30.7938 62.9688 36.4375V50.0625C62.9688 55.7062 67.5438 60.2812 73.1875 60.2812H86.8125C92.4562 60.2812 97.0312 55.7062 97.0312 50.0625V36.4375C97.0312 30.7938 92.4562 26.2188 86.8125 26.2188Z" fill="white"/>
<path d="M97.0312 26.2188H62.9688V60.2812H97.0312V26.2188Z" fill="white" fill-opacity="0.07"/>
<path opacity="0.1" d="M83.4062 33.0312H76.5938C72.8313 33.0312 69.7812 36.0813 69.7812 39.8438V46.6562C69.7812 50.4187 72.8313 53.4688 76.5938 53.4688H83.4062C87.1687 53.4688 90.2188 50.4187 90.2188 46.6562V39.8438C90.2188 36.0813 87.1687 33.0312 83.4062 33.0312Z" fill="#4A2E7E"/>
</g>
</g>
<path d="M95.7539 67.0938H64.2461C62.3649 67.0938 60.8398 68.6188 60.8398 70.5C60.8398 72.3812 62.3649 73.9062 64.2461 73.9062H95.7539C97.6351 73.9062 99.1602 72.3812 99.1602 70.5C99.1602 68.6188 97.6351 67.0938 95.7539 67.0938Z" fill="#394C60" fill-opacity="0.15"/>
<g filter="url(#filter1_d_6839_90078)">
<mask id="mask4_6839_90078" style="mask-type:luminance" maskUnits="userSpaceOnUse" x="62" y="94" width="36" height="35">
<path d="M86.8125 94.3438H73.1875C67.5438 94.3438 62.9688 98.9188 62.9688 104.562V118.188C62.9688 123.831 67.5438 128.406 73.1875 128.406H86.8125C92.4562 128.406 97.0312 123.831 97.0312 118.188V104.562C97.0312 98.9188 92.4562 94.3438 86.8125 94.3438Z" fill="white"/>
</mask>
<g mask="url(#mask4_6839_90078)">
<path d="M86.8125 94.3438H73.1875C67.5438 94.3438 62.9688 98.9188 62.9688 104.562V118.188C62.9688 123.831 67.5438 128.406 73.1875 128.406H86.8125C92.4562 128.406 97.0312 123.831 97.0312 118.188V104.562C97.0312 98.9188 92.4562 94.3438 86.8125 94.3438Z" fill="white"/>
<path d="M97.0312 94.3438H62.9688V128.406H97.0312V94.3438Z" fill="white" fill-opacity="0.07"/>
<path opacity="0.1" d="M83.4062 101.156H76.5938C72.8313 101.156 69.7812 104.206 69.7812 107.969V114.781C69.7812 118.544 72.8313 121.594 76.5938 121.594H83.4062C87.1687 121.594 90.2188 118.544 90.2188 114.781V107.969C90.2188 104.206 87.1687 101.156 83.4062 101.156Z" fill="#4A2E7E"/>
</g>
</g>
<path d="M95.7539 135.219H64.2461C62.3649 135.219 60.8398 136.744 60.8398 138.625C60.8398 140.506 62.3649 142.031 64.2461 142.031H95.7539C97.6351 142.031 99.1602 140.506 99.1602 138.625C99.1602 136.744 97.6351 135.219 95.7539 135.219Z" fill="#394C60" fill-opacity="0.15"/>
</g>
</g>
</g>
</g>
<defs>
<filter id="filter0_d_6839_90078" x="60.4141" y="25.3672" width="39.1719" height="39.1719" filterUnits="userSpaceOnUse" color-interpolation-filters="sRGB">
<feFlood flood-opacity="0" result="BackgroundImageFix"/>
<feColorMatrix in="SourceAlpha" type="matrix" values="0 0 0 0 0 0 0 0 0 0 0 0 0 0 0 0 0 0 127 0" result="hardAlpha"/>
<feOffset dy="1.70312"/>
<feGaussianBlur stdDeviation="1.27734"/>
<feComposite in2="hardAlpha" operator="out"/>
<feColorMatrix type="matrix" values="0 0 0 0 0 0 0 0 0 0 0 0 0 0 0 0 0 0 0.07 0"/>
<feBlend mode="normal" in2="BackgroundImageFix" result="effect1_dropShadow_6839_90078"/>
<feBlend mode="normal" in="SourceGraphic" in2="effect1_dropShadow_6839_90078" result="shape"/>
</filter>
<filter id="filter1_d_6839_90078" x="60.4141" y="93.4922" width="39.1719" height="39.1719" filterUnits="userSpaceOnUse" color-interpolation-filters="sRGB">
<feFlood flood-opacity="0" result="BackgroundImageFix"/>
<feColorMatrix in="SourceAlpha" type="matrix" values="0 0 0 0 0 0 0 0 0 0 0 0 0 0 0 0 0 0 127 0" result="hardAlpha"/>
<feOffset dy="1.70312"/>
<feGaussianBlur stdDeviation="1.27734"/>
<feComposite in2="hardAlpha" operator="out"/>
<feColorMatrix type="matrix" values="0 0 0 0 0 0 0 0 0 0 0 0 0 0 0 0 0 0 0.07 0"/>
<feBlend mode="normal" in2="BackgroundImageFix" result="effect1_dropShadow_6839_90078"/>
<feBlend mode="normal" in="SourceGraphic" in2="effect1_dropShadow_6839_90078" result="shape"/>
</filter>
<clipPath id="clip0_6839_90078">
<rect width="54.5" height="601.203" fill="white" transform="translate(52.75 16)"/>
</clipPath>
</defs>
</svg>
