<svg width="160" height="152" viewBox="0 0 160 152" fill="none" xmlns="http://www.w3.org/2000/svg">
<rect width="160" height="152" fill="#40576D" fill-opacity="0.07"/>
<g clip-path="url(#clip0_6839_89884)">
<g clip-path="url(#clip1_6839_89884)">
<mask id="mask0_6839_89884" style="mask-type:alpha" maskUnits="userSpaceOnUse" x="16" y="32" width="64" height="681">
<rect x="16" y="32" width="64" height="641" fill="#D9D9D9"/>
</mask>
<g mask="url(#mask0_6839_89884)">
<g filter="url(#filter0_d_6839_89884)">
<g clip-path="url(#clip2_6839_89884)">
<rect x="28" y="44" width="40" height="40" rx="12" fill="white"/>
<rect x="28" y="44" width="40" height="40" fill="white" fill-opacity="0.07"/>
<rect opacity="0.1" x="36" y="52" width="24" height="24" rx="8" fill="#4A2E7E"/>
</g>
</g>
<rect x="25.5" y="92" width="45" height="8" rx="4" fill="#394C60" fill-opacity="0.15"/>
<g filter="url(#filter1_d_6839_89884)">
<g clip-path="url(#clip3_6839_89884)">
<rect x="28" y="124" width="40" height="40" rx="12" fill="white"/>
<rect x="28" y="124" width="40" height="40" fill="white" fill-opacity="0.07"/>
<rect opacity="0.1" x="36" y="132" width="24" height="24" rx="8" fill="#4A2E7E"/>
</g>
</g>
</g>
</g>
</g>
<g filter="url(#filter2_dd_6839_89884)">
<g clip-path="url(#clip4_6839_89884)">
<path d="M96 36C96 29.3726 101.373 24 108 24H445C451.627 24 457 29.3726 457 36V678C457 684.627 451.627 690 445 690H108C101.373 690 96 684.627 96 678V36Z" fill="white"/>
</g>
</g>
<defs>
<filter id="filter0_d_6839_89884" x="25" y="43" width="46" height="46" filterUnits="userSpaceOnUse" color-interpolation-filters="sRGB">
<feFlood flood-opacity="0" result="BackgroundImageFix"/>
<feColorMatrix in="SourceAlpha" type="matrix" values="0 0 0 0 0 0 0 0 0 0 0 0 0 0 0 0 0 0 127 0" result="hardAlpha"/>
<feOffset dy="2"/>
<feGaussianBlur stdDeviation="1.5"/>
<feComposite in2="hardAlpha" operator="out"/>
<feColorMatrix type="matrix" values="0 0 0 0 0 0 0 0 0 0 0 0 0 0 0 0 0 0 0.07 0"/>
<feBlend mode="normal" in2="BackgroundImageFix" result="effect1_dropShadow_6839_89884"/>
<feBlend mode="normal" in="SourceGraphic" in2="effect1_dropShadow_6839_89884" result="shape"/>
</filter>
<filter id="filter1_d_6839_89884" x="25" y="123" width="46" height="46" filterUnits="userSpaceOnUse" color-interpolation-filters="sRGB">
<feFlood flood-opacity="0" result="BackgroundImageFix"/>
<feColorMatrix in="SourceAlpha" type="matrix" values="0 0 0 0 0 0 0 0 0 0 0 0 0 0 0 0 0 0 127 0" result="hardAlpha"/>
<feOffset dy="2"/>
<feGaussianBlur stdDeviation="1.5"/>
<feComposite in2="hardAlpha" operator="out"/>
<feColorMatrix type="matrix" values="0 0 0 0 0 0 0 0 0 0 0 0 0 0 0 0 0 0 0.07 0"/>
<feBlend mode="normal" in2="BackgroundImageFix" result="effect1_dropShadow_6839_89884"/>
<feBlend mode="normal" in="SourceGraphic" in2="effect1_dropShadow_6839_89884" result="shape"/>
</filter>
<filter id="filter2_dd_6839_89884" x="80" y="14" width="393" height="698" filterUnits="userSpaceOnUse" color-interpolation-filters="sRGB">
<feFlood flood-opacity="0" result="BackgroundImageFix"/>
<feColorMatrix in="SourceAlpha" type="matrix" values="0 0 0 0 0 0 0 0 0 0 0 0 0 0 0 0 0 0 127 0" result="hardAlpha"/>
<feMorphology radius="4" operator="erode" in="SourceAlpha" result="effect1_dropShadow_6839_89884"/>
<feOffset dy="6"/>
<feGaussianBlur stdDeviation="10"/>
<feColorMatrix type="matrix" values="0 0 0 0 0.25098 0 0 0 0 0.341176 0 0 0 0 0.427451 0 0 0 0.3 0"/>
<feBlend mode="normal" in2="BackgroundImageFix" result="effect1_dropShadow_6839_89884"/>
<feColorMatrix in="SourceAlpha" type="matrix" values="0 0 0 0 0 0 0 0 0 0 0 0 0 0 0 0 0 0 127 0" result="hardAlpha"/>
<feMorphology radius="1" operator="dilate" in="SourceAlpha" result="effect2_dropShadow_6839_89884"/>
<feOffset/>
<feColorMatrix type="matrix" values="0 0 0 0 0.25098 0 0 0 0 0.341176 0 0 0 0 0.427451 0 0 0 0.04 0"/>
<feBlend mode="normal" in2="effect1_dropShadow_6839_89884" result="effect2_dropShadow_6839_89884"/>
<feBlend mode="normal" in="SourceGraphic" in2="effect2_dropShadow_6839_89884" result="shape"/>
</filter>
<clipPath id="clip0_6839_89884">
<rect x="16" y="32" width="64" height="681" rx="12" fill="white"/>
</clipPath>
<clipPath id="clip1_6839_89884">
<rect width="64" height="681" fill="white" transform="translate(16 32)"/>
</clipPath>
<clipPath id="clip2_6839_89884">
<rect x="28" y="44" width="40" height="40" rx="12" fill="white"/>
</clipPath>
<clipPath id="clip3_6839_89884">
<rect x="28" y="124" width="40" height="40" rx="12" fill="white"/>
</clipPath>
<clipPath id="clip4_6839_89884">
<path d="M96 36C96 29.3726 101.373 24 108 24H445C451.627 24 457 29.3726 457 36V678C457 684.627 451.627 690 445 690H108C101.373 690 96 684.627 96 678V36Z" fill="white"/>
</clipPath>
</defs>
</svg>
