<svg width="160" height="152" viewBox="0 0 160 152" fill="none" xmlns="http://www.w3.org/2000/svg">
<rect width="160" height="152" fill="#40576D" fill-opacity="0.07"/>
<g clip-path="url(#clip0_6839_89875)">
<mask id="mask0_6839_89875" style="mask-type:alpha" maskUnits="userSpaceOnUse" x="16" y="16" width="72" height="722">
<rect x="20" y="16" width="64" height="682" fill="#D9D9D9"/>
</mask>
<g mask="url(#mask0_6839_89875)">
<g filter="url(#filter0_dd_6839_89875)">
<path d="M36 40C36 35.5817 39.5817 32 44 32H60C64.4183 32 68 35.5817 68 40V56C68 60.4183 64.4183 64 60 64H44C39.5817 64 36 60.4183 36 56V40Z" fill="white"/>
<path fill-rule="evenodd" clip-rule="evenodd" d="M43 47.325C43 43.7347 43 41.9395 43.9661 40.7141C44.1851 40.4362 44.4362 40.1851 44.7141 39.9661C45.9395 39 47.7347 39 51.325 39H52.675C56.2653 39 58.0605 39 59.2859 39.9661C59.5638 40.1851 59.8149 40.4362 60.0339 40.7141C61 41.9395 61 43.7347 61 47.325V48.675C61 52.2653 61 54.0605 60.0339 55.2859C59.8149 55.5638 59.5638 55.8149 59.2859 56.0339C58.0605 57 56.2653 57 52.675 57H51.325C47.7347 57 45.9395 57 44.7141 56.0339C44.4362 55.8149 44.1851 55.5638 43.9661 55.2859C43 54.0605 43 52.2653 43 48.675V47.325ZM51.325 40.5H52.675C52.9642 40.5 53.2389 40.5001 53.5 40.5006L53.5 55.4994C53.2389 55.4999 52.9642 55.5 52.675 55.5H51.325C49.4942 55.5 48.2492 55.4977 47.304 55.389C46.3901 55.284 45.9479 55.0965 45.6427 54.856C45.4575 54.7099 45.2901 54.5425 45.144 54.3573C44.9035 54.0521 44.716 53.6099 44.611 52.696C44.5023 51.7508 44.5 50.5058 44.5 48.675V47.325C44.5 45.4942 44.5023 44.2492 44.611 43.304C44.716 42.3901 44.9035 41.9479 45.144 41.6427C45.2901 41.4575 45.4575 41.2901 45.6427 41.144C45.9479 40.9035 46.3901 40.716 47.304 40.611C48.2492 40.5023 49.4942 40.5 51.325 40.5ZM55 55.4856C55.6661 55.4716 56.2192 55.4438 56.696 55.389C57.6099 55.284 58.0521 55.0965 58.3573 54.856C58.5425 54.7099 58.7099 54.5425 58.856 54.3573C59.0965 54.0521 59.284 53.6099 59.389 52.696C59.4977 51.7508 59.5 50.5058 59.5 48.675V47.325C59.5 47.2209 59.5 47.1187 59.5 47.0184H55L55 55.4856ZM59.4938 45.5184C59.4837 44.6137 59.4575 43.8994 59.389 43.304C59.284 42.3901 59.0965 41.9479 58.856 41.6427C58.7099 41.4575 58.5425 41.2901 58.3573 41.144C58.0521 40.9035 57.6099 40.716 56.696 40.611C56.2192 40.5562 55.6661 40.5284 55 40.5144V45.5184H59.4938Z" fill="#0E1318" fill-opacity="0.7"/>
</g>
<path d="M37.627 72.1475C38.8695 72.1475 39.8273 72.4751 40.5005 73.1304C41.1737 73.7856 41.5103 74.7668 41.5103 76.0737C41.5103 77.3771 41.1737 78.3582 40.5005 79.0171C39.8273 79.6724 38.8695 80 37.627 80H34.9468V72.1475H37.627ZM37.5356 78.9526C38.1336 78.9526 38.6278 78.8577 39.0181 78.668C39.4119 78.4782 39.7091 78.172 39.9097 77.7495C40.1138 77.3234 40.2158 76.7648 40.2158 76.0737C40.2158 75.3791 40.1138 74.8205 39.9097 74.3979C39.7091 73.9754 39.4119 73.6693 39.0181 73.4795C38.6278 73.2861 38.1336 73.1895 37.5356 73.1895H36.1821V78.9526H37.5356ZM47.9717 77.3037H44.0293C44.0973 78.4925 44.6488 79.0869 45.6836 79.0869C46.0667 79.0869 46.3747 79.0189 46.6074 78.8828C46.8438 78.7432 47.0299 78.5283 47.166 78.2383H47.2788L48.0576 78.7217C47.875 79.1442 47.5903 79.4826 47.2036 79.7368C46.8205 79.9875 46.3138 80.1128 45.6836 80.1128C45.0928 80.1128 44.5825 79.9982 44.1528 79.769C43.7231 79.5399 43.3919 79.1961 43.1592 78.7378C42.9264 78.2795 42.8101 77.7137 42.8101 77.0405C42.8101 76.3674 42.9318 75.7998 43.1753 75.3379C43.4188 74.876 43.7518 74.5322 44.1743 74.3066C44.5968 74.0775 45.0731 73.9629 45.603 73.9629C46.4015 73.9629 47.0174 74.1813 47.4507 74.6182C47.8875 75.055 48.1077 75.6978 48.1113 76.5464C48.1113 76.8651 48.1024 77.096 48.0845 77.2393L47.9717 77.3037ZM46.9673 76.4604C46.953 75.9198 46.8294 75.5259 46.5967 75.2788C46.3675 75.0317 46.0363 74.9082 45.603 74.9082C45.1662 74.9082 44.8153 75.0317 44.5503 75.2788C44.2889 75.5259 44.1242 75.9198 44.0562 76.4604H46.9673ZM51.3394 80.1128C50.9526 80.1128 50.5946 80.0645 50.2651 79.9678C49.9393 79.8711 49.6618 79.7386 49.4326 79.5703C49.207 79.3984 49.0423 79.2051 48.9385 78.9902L49.6099 78.2759H49.7227C50.113 78.8381 50.6536 79.1191 51.3447 79.1191C51.7064 79.1191 51.9803 79.0511 52.1665 78.915C52.3563 78.7754 52.4512 78.582 52.4512 78.335C52.4512 78.1416 52.3885 77.9823 52.2632 77.8569C52.1414 77.728 51.9463 77.6313 51.6777 77.5669L50.7861 77.3467C50.2275 77.2142 49.8175 77.0065 49.5562 76.7236C49.2983 76.4372 49.1694 76.0809 49.1694 75.6548C49.1694 75.3075 49.2572 75.0067 49.4326 74.7524C49.6117 74.4982 49.8641 74.3031 50.1899 74.167C50.5158 74.0309 50.8989 73.9629 51.3394 73.9629C51.88 73.9629 52.3151 74.0399 52.6445 74.1938C52.9775 74.3442 53.2371 74.5519 53.4233 74.8169L52.7788 75.4883H52.6714C52.4959 75.2842 52.299 75.1374 52.0806 75.0479C51.8657 74.9583 51.6187 74.9136 51.3394 74.9136C50.992 74.9136 50.7306 74.9727 50.5552 75.0908C50.3797 75.2054 50.292 75.3737 50.292 75.5957C50.292 75.7926 50.3564 75.952 50.4854 76.0737C50.6143 76.1955 50.8381 76.2939 51.1567 76.3691L52.0161 76.5679C52.5747 76.6932 52.9793 76.8973 53.23 77.1802C53.4842 77.4631 53.6113 77.8319 53.6113 78.2866C53.6113 78.6483 53.5236 78.967 53.3481 79.2427C53.1727 79.5148 52.9149 79.7279 52.5747 79.8818C52.2345 80.0358 51.8228 80.1128 51.3394 80.1128ZM55.6147 73.1465C55.3892 73.1465 55.2048 73.0767 55.0615 72.937C54.9183 72.7974 54.8467 72.6183 54.8467 72.3999C54.8467 72.1851 54.9183 72.0078 55.0615 71.8682C55.2048 71.7285 55.3892 71.6587 55.6147 71.6587C55.8403 71.6587 56.0247 71.7285 56.168 71.8682C56.3148 72.0078 56.3882 72.1851 56.3882 72.3999C56.3882 72.6183 56.3166 72.7974 56.1733 72.937C56.0301 73.0767 55.8439 73.1465 55.6147 73.1465ZM55.0239 80V74.0757H56.2056V80H55.0239ZM60.2124 82.5137C59.2563 82.5137 58.5545 82.3633 58.1069 82.0625C57.6593 81.7653 57.4355 81.3607 57.4355 80.8486C57.4355 80.5264 57.5358 80.265 57.7363 80.0645C57.9368 79.8639 58.2251 79.7261 58.6011 79.6509V79.5381C58.4113 79.4271 58.2716 79.3 58.1821 79.1567C58.0926 79.0099 58.0479 78.8398 58.0479 78.6465C58.0479 78.1846 58.3468 77.8766 58.9448 77.7227V77.6099C58.3003 77.2554 57.978 76.7021 57.978 75.9502C57.978 75.5599 58.0675 75.2144 58.2466 74.9136C58.4256 74.6128 58.6834 74.38 59.02 74.2153C59.3566 74.047 59.7559 73.9629 60.2178 73.9629C60.7119 73.9629 61.1165 74.0596 61.4316 74.2529C61.6393 73.9951 61.7593 73.6782 61.7915 73.3022L61.9043 73.2324L62.7959 73.4473C62.7637 73.7373 62.6777 73.9844 62.5381 74.1885C62.3984 74.389 62.1925 74.5591 61.9204 74.6987V74.8169C62.2749 75.1069 62.4521 75.5169 62.4521 76.0469C62.4521 76.4157 62.3608 76.7487 62.1782 77.0459C61.9992 77.3395 61.7396 77.5705 61.3994 77.7388C61.0628 77.9071 60.6689 77.9912 60.2178 77.9912C60.1784 77.9912 60.0942 77.9876 59.9653 77.9805C59.8221 77.9733 59.7201 77.9697 59.6592 77.9697C59.498 77.9697 59.3709 78.0127 59.2778 78.0986C59.1847 78.1846 59.1382 78.2938 59.1382 78.4263C59.1382 78.5802 59.1919 78.6966 59.2993 78.7754C59.4103 78.8542 59.584 78.8989 59.8203 78.9097L61.1846 78.958C62.4342 78.9974 63.0591 79.5345 63.0591 80.5693C63.0591 80.9382 62.9624 81.2676 62.769 81.5576C62.5757 81.8512 62.266 82.084 61.8398 82.2559C61.4173 82.4277 60.8748 82.5137 60.2124 82.5137ZM60.2178 77.0942C60.5687 77.0942 60.8408 76.9976 61.0342 76.8042C61.2311 76.6108 61.3296 76.3369 61.3296 75.9824C61.3296 75.6243 61.2329 75.3486 61.0396 75.1553C60.8462 74.9583 60.5723 74.8599 60.2178 74.8599C59.8597 74.8599 59.5858 74.9565 59.396 75.1499C59.2062 75.3433 59.1113 75.6208 59.1113 75.9824C59.1113 76.3369 59.2062 76.6108 59.396 76.8042C59.5858 76.9976 59.8597 77.0942 60.2178 77.0942ZM60.2124 81.6006C60.7889 81.6006 61.2078 81.5129 61.4692 81.3374C61.7342 81.1655 61.8667 80.9471 61.8667 80.6821C61.8667 80.4565 61.7987 80.2936 61.6626 80.1934C61.5301 80.0931 61.3045 80.0358 60.9858 80.0215L59.7397 79.957L59.541 79.9517C59.2223 79.9552 58.986 80.0215 58.832 80.1504C58.6781 80.2829 58.6011 80.4637 58.6011 80.6929C58.6011 80.9901 58.7354 81.2157 59.0039 81.3696C59.2725 81.5236 59.6753 81.6006 60.2124 81.6006ZM64.2192 80V74.0757H65.3472V74.9727L65.46 74.9995C65.6497 74.6593 65.895 74.4015 66.1958 74.2261C66.4966 74.0506 66.8636 73.9629 67.2969 73.9629C67.9951 73.9629 68.5036 74.1473 68.8223 74.5161C69.1445 74.8813 69.3057 75.431 69.3057 76.165V80H68.124V76.2671C68.124 75.8052 68.0327 75.474 67.8501 75.2734C67.6675 75.0729 67.3739 74.9727 66.9692 74.9727C66.4858 74.9727 66.1027 75.1302 65.8198 75.4453C65.5405 75.7604 65.4009 76.2599 65.4009 76.9438V80H64.2192Z" fill="#0E1318" fill-opacity="0.7"/>
<g filter="url(#filter1_dd_6839_89875)">
<path d="M36 108C36 103.582 39.5817 100 44 100H60C64.4183 100 68 103.582 68 108V124C68 128.418 64.4183 132 60 132H44C39.5817 132 36 128.418 36 124V108Z" fill="white"/>
<path fill-rule="evenodd" clip-rule="evenodd" d="M46.5492 115.242C46.7709 115.361 47.0152 115.42 47.2586 115.42C47.5027 115.42 47.7472 115.361 47.9694 115.241L47.9723 115.24L47.9759 115.238L47.9852 115.233L48.0118 115.218C48.0331 115.206 48.0613 115.19 48.0956 115.17C48.1642 115.13 48.2579 115.074 48.3706 115.002C48.5949 114.859 48.9002 114.651 49.2357 114.383C49.8737 113.872 50.7137 113.071 51.2616 112.008C51.5304 111.559 51.6847 111.032 51.6847 110.474C51.6847 108.822 50.3455 107.483 48.6936 107.483C48.1732 107.483 47.6844 107.616 47.2587 107.849C46.833 107.616 46.3441 107.483 45.8237 107.483C44.1718 107.483 42.8325 108.822 42.8325 110.474C42.8325 110.993 42.9657 111.484 43.2007 111.912C43.7418 113.014 44.6033 113.841 45.2563 114.365C45.5982 114.64 45.9102 114.852 46.1396 114.998C46.2548 115.072 46.3507 115.129 46.4209 115.17C46.456 115.19 46.4848 115.207 46.5065 115.219L46.5337 115.234L46.5432 115.239L46.5469 115.241L46.5492 115.242ZM44.5307 111.217C44.8815 111.948 45.4478 112.557 45.9736 113.011C46.3951 113.375 46.7906 113.638 47.0286 113.785C47.1718 113.874 47.2585 113.92 47.2585 113.92C47.2585 113.92 47.3447 113.874 47.4879 113.785C47.7256 113.638 48.1213 113.373 48.5421 113.009C49.0521 112.567 49.5999 111.979 49.9517 111.275C50.0992 111.043 50.1847 110.769 50.1847 110.474C50.1847 109.651 49.5171 108.983 48.6936 108.983C48.6036 108.983 48.5156 108.991 48.43 109.006C47.8664 109.107 47.4124 109.524 47.2586 110.067C47.1049 109.524 46.6509 109.107 46.0873 109.006C46.0017 108.991 45.9136 108.983 45.8237 108.983C45.0001 108.983 44.3325 109.65 44.3325 110.474C44.3325 110.745 44.4046 110.998 44.5307 111.217Z" fill="#0E1318" fill-opacity="0.7"/>
<path fill-rule="evenodd" clip-rule="evenodd" d="M57.5363 108.011C57.1407 107.33 56.1568 107.33 55.7611 108.011L52.4542 113.705C52.0568 114.39 52.5505 115.247 53.3419 115.247H59.9556C60.7469 115.247 61.2406 114.39 60.8432 113.705L57.5363 108.011ZM56.6487 109.47L54.1645 113.747H59.1329L56.6487 109.47Z" fill="#0E1318" fill-opacity="0.7"/>
<path fill-rule="evenodd" clip-rule="evenodd" d="M60.8614 121.168C60.8614 123.495 58.9753 125.381 56.6487 125.381C54.3221 125.381 52.436 123.495 52.436 121.168C52.436 118.842 54.3221 116.956 56.6487 116.956C58.9753 116.956 60.8614 118.842 60.8614 121.168ZM59.3614 121.168C59.3614 122.666 58.1469 123.881 56.6487 123.881C55.1505 123.881 53.936 122.666 53.936 121.168C53.936 119.67 55.1505 118.456 56.6487 118.456C58.1469 118.456 59.3614 119.67 59.3614 121.168Z" fill="#0E1318" fill-opacity="0.7"/>
<path fill-rule="evenodd" clip-rule="evenodd" d="M43.4063 118.086C43.4063 117.661 43.7509 117.316 44.1761 117.316H50.3166C50.7418 117.316 51.0864 117.661 51.0864 118.086V124.38C51.0864 124.72 50.8107 124.996 50.4706 124.996H44.1761C43.7509 124.996 43.4063 124.651 43.4063 124.226V118.086ZM44.9063 123.496V118.816H49.5864V123.496H44.9063Z" fill="#0E1318" fill-opacity="0.7"/>
</g>
<path d="M29.4253 144.423V146.969H33.3032V148H28.1899V140.147H33.2173V141.179H29.4253V143.408H32.7554V144.423H29.4253ZM36.1875 148.113C35.7113 148.113 35.3424 147.982 35.0811 147.721C34.8197 147.456 34.689 147.058 34.689 146.528V139.696H35.8706V146.469C35.8706 146.688 35.9136 146.845 35.9995 146.942C36.0854 147.039 36.2161 147.087 36.3916 147.087C36.4919 147.087 36.5993 147.071 36.7139 147.039L36.7891 147.06L36.9072 147.973C36.832 148.02 36.73 148.054 36.6011 148.075C36.4757 148.1 36.3379 148.113 36.1875 148.113ZM42.8477 145.304H38.9053C38.9733 146.493 39.5247 147.087 40.5596 147.087C40.9427 147.087 41.2507 147.019 41.4834 146.883C41.7197 146.743 41.9059 146.528 42.042 146.238H42.1548L42.9336 146.722C42.751 147.144 42.4663 147.483 42.0796 147.737C41.6965 147.987 41.1898 148.113 40.5596 148.113C39.9688 148.113 39.4585 147.998 39.0288 147.769C38.5991 147.54 38.2679 147.196 38.0352 146.738C37.8024 146.279 37.686 145.714 37.686 145.041C37.686 144.367 37.8078 143.8 38.0513 143.338C38.2948 142.876 38.6278 142.532 39.0503 142.307C39.4728 142.077 39.9491 141.963 40.479 141.963C41.2775 141.963 41.8934 142.181 42.3267 142.618C42.7635 143.055 42.9837 143.698 42.9873 144.546C42.9873 144.865 42.9784 145.096 42.9604 145.239L42.8477 145.304ZM41.8433 144.46C41.8289 143.92 41.7054 143.526 41.4727 143.279C41.2435 143.032 40.9123 142.908 40.479 142.908C40.0422 142.908 39.6912 143.032 39.4263 143.279C39.1649 143.526 39.0002 143.92 38.9321 144.46H41.8433ZM44.4214 148V142.076H45.5493V142.908L45.6621 142.93C45.8626 142.604 46.099 142.362 46.3711 142.205C46.6432 142.043 46.978 141.963 47.3755 141.963C47.8302 141.963 48.1883 142.051 48.4497 142.226C48.7111 142.402 48.908 142.67 49.0405 143.032H49.1533C49.3467 142.674 49.5902 142.407 49.8838 142.231C50.1774 142.052 50.5409 141.963 50.9741 141.963C51.59 141.963 52.0483 142.133 52.3491 142.473C52.6499 142.81 52.8003 143.315 52.8003 143.988V148H51.6187V144.09C51.6187 143.703 51.5381 143.42 51.377 143.241C51.2194 143.062 50.9652 142.973 50.6143 142.973C50.1846 142.973 49.8408 143.123 49.583 143.424C49.3288 143.725 49.2017 144.215 49.2017 144.896V148H48.02V144.09C48.02 143.703 47.9395 143.42 47.7783 143.241C47.6208 143.062 47.3665 142.973 47.0156 142.973C46.5859 142.973 46.2422 143.119 45.9844 143.413C45.7301 143.707 45.603 144.181 45.603 144.836V148H44.4214ZM59.4014 145.304H55.459C55.527 146.493 56.0785 147.087 57.1133 147.087C57.4964 147.087 57.8044 147.019 58.0371 146.883C58.2734 146.743 58.4596 146.528 58.5957 146.238H58.7085L59.4873 146.722C59.3047 147.144 59.02 147.483 58.6333 147.737C58.2502 147.987 57.7435 148.113 57.1133 148.113C56.5225 148.113 56.0122 147.998 55.5825 147.769C55.1528 147.54 54.8216 147.196 54.5889 146.738C54.3561 146.279 54.2397 145.714 54.2397 145.041C54.2397 144.367 54.3615 143.8 54.605 143.338C54.8485 142.876 55.1815 142.532 55.604 142.307C56.0265 142.077 56.5028 141.963 57.0327 141.963C57.8312 141.963 58.4471 142.181 58.8804 142.618C59.3172 143.055 59.5374 143.698 59.541 144.546C59.541 144.865 59.5321 145.096 59.5142 145.239L59.4014 145.304ZM58.397 144.46C58.3826 143.92 58.2591 143.526 58.0264 143.279C57.7972 143.032 57.466 142.908 57.0327 142.908C56.5959 142.908 56.245 143.032 55.98 143.279C55.7186 143.526 55.5539 143.92 55.4858 144.46H58.397ZM60.9751 148V142.076H62.103V142.973L62.2158 143C62.4056 142.659 62.6509 142.402 62.9517 142.226C63.2524 142.051 63.6195 141.963 64.0527 141.963C64.751 141.963 65.2594 142.147 65.5781 142.516C65.9004 142.881 66.0615 143.431 66.0615 144.165V148H64.8799V144.267C64.8799 143.805 64.7886 143.474 64.606 143.273C64.4233 143.073 64.1297 142.973 63.7251 142.973C63.2417 142.973 62.8586 143.13 62.5757 143.445C62.2964 143.76 62.1567 144.26 62.1567 144.944V148H60.9751ZM70.9224 146.824L71.2554 147.688C71.105 147.825 70.9116 147.928 70.6753 148C70.439 148.075 70.1776 148.113 69.8911 148.113C69.2967 148.113 68.8438 147.955 68.5322 147.64C68.2207 147.325 68.0649 146.854 68.0649 146.228V143.021H67.0981V142.07H68.0649V140.867L69.2466 140.674V142.07H71.0405V143.021H69.2466V146.131C69.2466 146.46 69.3146 146.698 69.4507 146.845C69.5903 146.992 69.7891 147.065 70.0469 147.065C70.3369 147.065 70.5911 146.985 70.8096 146.824H70.9224ZM74.1772 148.113C73.7905 148.113 73.4325 148.064 73.103 147.968C72.7772 147.871 72.4997 147.739 72.2705 147.57C72.0449 147.398 71.8802 147.205 71.7764 146.99L72.4478 146.276H72.5605C72.9508 146.838 73.4915 147.119 74.1826 147.119C74.5443 147.119 74.8182 147.051 75.0044 146.915C75.1942 146.775 75.2891 146.582 75.2891 146.335C75.2891 146.142 75.2264 145.982 75.1011 145.857C74.9793 145.728 74.7842 145.631 74.5156 145.567L73.624 145.347C73.0654 145.214 72.6554 145.007 72.394 144.724C72.1362 144.437 72.0073 144.081 72.0073 143.655C72.0073 143.307 72.0951 143.007 72.2705 142.752C72.4495 142.498 72.702 142.303 73.0278 142.167C73.3537 142.031 73.7368 141.963 74.1772 141.963C74.7179 141.963 75.153 142.04 75.4824 142.194C75.8154 142.344 76.075 142.552 76.2612 142.817L75.6167 143.488H75.5093C75.3338 143.284 75.1369 143.137 74.9185 143.048C74.7036 142.958 74.4565 142.914 74.1772 142.914C73.8299 142.914 73.5685 142.973 73.3931 143.091C73.2176 143.205 73.1299 143.374 73.1299 143.596C73.1299 143.793 73.1943 143.952 73.3232 144.074C73.4521 144.195 73.6759 144.294 73.9946 144.369L74.854 144.568C75.4126 144.693 75.8172 144.897 76.0679 145.18C76.3221 145.463 76.4492 145.832 76.4492 146.287C76.4492 146.648 76.3615 146.967 76.186 147.243C76.0106 147.515 75.7528 147.728 75.4126 147.882C75.0724 148.036 74.6606 148.113 74.1772 148.113Z" fill="#0E1318" fill-opacity="0.7"/>
</g>
</g>
<g filter="url(#filter2_dd_6839_89875)">
<g clip-path="url(#clip1_6839_89875)">
<path d="M96 36C96 29.3726 101.373 24 108 24H445C451.627 24 457 29.3726 457 36V676C457 682.627 451.627 688 445 688H108C101.373 688 96 682.627 96 676V36Z" fill="white"/>
</g>
</g>
<defs>
<filter id="filter0_dd_6839_89875" x="33" y="31" width="38" height="38" filterUnits="userSpaceOnUse" color-interpolation-filters="sRGB">
<feFlood flood-opacity="0" result="BackgroundImageFix"/>
<feColorMatrix in="SourceAlpha" type="matrix" values="0 0 0 0 0 0 0 0 0 0 0 0 0 0 0 0 0 0 127 0" result="hardAlpha"/>
<feMorphology radius="1" operator="erode" in="SourceAlpha" result="effect1_dropShadow_6839_89875"/>
<feOffset dy="2"/>
<feGaussianBlur stdDeviation="2"/>
<feColorMatrix type="matrix" values="0 0 0 0 0.25098 0 0 0 0 0.341176 0 0 0 0 0.427451 0 0 0 0.3 0"/>
<feBlend mode="normal" in2="BackgroundImageFix" result="effect1_dropShadow_6839_89875"/>
<feColorMatrix in="SourceAlpha" type="matrix" values="0 0 0 0 0 0 0 0 0 0 0 0 0 0 0 0 0 0 127 0" result="hardAlpha"/>
<feMorphology radius="1" operator="dilate" in="SourceAlpha" result="effect2_dropShadow_6839_89875"/>
<feOffset/>
<feColorMatrix type="matrix" values="0 0 0 0 0.25098 0 0 0 0 0.341176 0 0 0 0 0.427451 0 0 0 0.04 0"/>
<feBlend mode="normal" in2="effect1_dropShadow_6839_89875" result="effect2_dropShadow_6839_89875"/>
<feBlend mode="normal" in="SourceGraphic" in2="effect2_dropShadow_6839_89875" result="shape"/>
</filter>
<filter id="filter1_dd_6839_89875" x="33" y="99" width="38" height="38" filterUnits="userSpaceOnUse" color-interpolation-filters="sRGB">
<feFlood flood-opacity="0" result="BackgroundImageFix"/>
<feColorMatrix in="SourceAlpha" type="matrix" values="0 0 0 0 0 0 0 0 0 0 0 0 0 0 0 0 0 0 127 0" result="hardAlpha"/>
<feMorphology radius="1" operator="erode" in="SourceAlpha" result="effect1_dropShadow_6839_89875"/>
<feOffset dy="2"/>
<feGaussianBlur stdDeviation="2"/>
<feColorMatrix type="matrix" values="0 0 0 0 0.25098 0 0 0 0 0.341176 0 0 0 0 0.427451 0 0 0 0.3 0"/>
<feBlend mode="normal" in2="BackgroundImageFix" result="effect1_dropShadow_6839_89875"/>
<feColorMatrix in="SourceAlpha" type="matrix" values="0 0 0 0 0 0 0 0 0 0 0 0 0 0 0 0 0 0 127 0" result="hardAlpha"/>
<feMorphology radius="1" operator="dilate" in="SourceAlpha" result="effect2_dropShadow_6839_89875"/>
<feOffset/>
<feColorMatrix type="matrix" values="0 0 0 0 0.25098 0 0 0 0 0.341176 0 0 0 0 0.427451 0 0 0 0.04 0"/>
<feBlend mode="normal" in2="effect1_dropShadow_6839_89875" result="effect2_dropShadow_6839_89875"/>
<feBlend mode="normal" in="SourceGraphic" in2="effect2_dropShadow_6839_89875" result="shape"/>
</filter>
<filter id="filter2_dd_6839_89875" x="80" y="14" width="393" height="696" filterUnits="userSpaceOnUse" color-interpolation-filters="sRGB">
<feFlood flood-opacity="0" result="BackgroundImageFix"/>
<feColorMatrix in="SourceAlpha" type="matrix" values="0 0 0 0 0 0 0 0 0 0 0 0 0 0 0 0 0 0 127 0" result="hardAlpha"/>
<feMorphology radius="4" operator="erode" in="SourceAlpha" result="effect1_dropShadow_6839_89875"/>
<feOffset dy="6"/>
<feGaussianBlur stdDeviation="10"/>
<feColorMatrix type="matrix" values="0 0 0 0 0.25098 0 0 0 0 0.341176 0 0 0 0 0.427451 0 0 0 0.3 0"/>
<feBlend mode="normal" in2="BackgroundImageFix" result="effect1_dropShadow_6839_89875"/>
<feColorMatrix in="SourceAlpha" type="matrix" values="0 0 0 0 0 0 0 0 0 0 0 0 0 0 0 0 0 0 127 0" result="hardAlpha"/>
<feMorphology radius="1" operator="dilate" in="SourceAlpha" result="effect2_dropShadow_6839_89875"/>
<feOffset/>
<feColorMatrix type="matrix" values="0 0 0 0 0.25098 0 0 0 0 0.341176 0 0 0 0 0.427451 0 0 0 0.04 0"/>
<feBlend mode="normal" in2="effect1_dropShadow_6839_89875" result="effect2_dropShadow_6839_89875"/>
<feBlend mode="normal" in="SourceGraphic" in2="effect2_dropShadow_6839_89875" result="shape"/>
</filter>
<clipPath id="clip0_6839_89875">
<rect width="72" height="722" fill="white" transform="translate(16 16)"/>
</clipPath>
<clipPath id="clip1_6839_89875">
<path d="M96 36C96 29.3726 101.373 24 108 24H445C451.627 24 457 29.3726 457 36V676C457 682.627 451.627 688 445 688H108C101.373 688 96 682.627 96 676V36Z" fill="white"/>
</clipPath>
</defs>
</svg>
