<svg width="160" height="152" viewBox="0 0 160 152" fill="none" xmlns="http://www.w3.org/2000/svg">
<rect width="160" height="152" fill="#40576D" fill-opacity="0.07"/>
<g clip-path="url(#clip0_6839_89898)">
<rect x="16" y="-676" width="375" height="812" rx="4" fill="url(#paint0_linear_6839_89898)"/>
<rect x="16" y="-676" width="375" height="812" rx="4" fill="white" fill-opacity="0.5"/>
<rect width="375" height="812" transform="translate(16 -676)" fill="#2B3B4A" fill-opacity="0.3"/>
<g filter="url(#filter0_dd_6839_89898)">
<g clip-path="url(#clip1_6839_89898)">
<path d="M16 -620C16 -626.627 21.3726 -632 28 -632H379C385.627 -632 391 -626.627 391 -620V136H16V-620Z" fill="white"/>
<g clip-path="url(#clip2_6839_89898)">
<mask id="mask0_6839_89898" style="mask-type:alpha" maskUnits="userSpaceOnUse" x="16" y="30" width="375" height="72">
<rect x="16" y="30" width="345" height="72" fill="#D9D9D9"/>
</mask>
<g mask="url(#mask0_6839_89898)">
<g filter="url(#filter1_dd_6839_89898)">
<path d="M36 48C36 43.5817 39.5817 40 44 40H60C64.4183 40 68 43.5817 68 48V64C68 68.4183 64.4183 72 60 72H44C39.5817 72 36 68.4183 36 64V48Z" fill="white"/>
<rect opacity="0.1" x="43" y="47" width="18" height="18" rx="4" fill="#4A2E7E"/>
</g>
<rect x="29.5" y="80" width="45" height="8" rx="4" fill="#394C60" fill-opacity="0.15"/>
<line x1="16" y1="30.5" x2="391" y2="30.5" stroke="#394C60" stroke-opacity="0.15"/>
<g filter="url(#filter2_dd_6839_89898)">
<path d="M102 48C102 43.5817 105.582 40 110 40H126C130.418 40 134 43.5817 134 48V64C134 68.4183 130.418 72 126 72H110C105.582 72 102 68.4183 102 64V48Z" fill="white"/>
<rect opacity="0.1" x="109" y="47" width="18" height="18" rx="4" fill="#4A2E7E"/>
</g>
<rect x="95.5" y="80" width="45" height="8" rx="4" fill="#394C60" fill-opacity="0.15"/>
</g>
</g>
<rect x="136" y="123" width="135" height="5" rx="2.5" fill="black"/>
</g>
</g>
</g>
<rect x="16.5" y="-675.5" width="374" height="811" rx="3.5" stroke="#394C60" stroke-opacity="0.15"/>
<defs>
<filter id="filter0_dd_6839_89898" x="0" y="-633" width="407" height="801" filterUnits="userSpaceOnUse" color-interpolation-filters="sRGB">
<feFlood flood-opacity="0" result="BackgroundImageFix"/>
<feColorMatrix in="SourceAlpha" type="matrix" values="0 0 0 0 0 0 0 0 0 0 0 0 0 0 0 0 0 0 127 0" result="hardAlpha"/>
<feMorphology radius="8" operator="erode" in="SourceAlpha" result="effect1_dropShadow_6839_89898"/>
<feOffset dy="16"/>
<feGaussianBlur stdDeviation="12"/>
<feColorMatrix type="matrix" values="0 0 0 0 0.0794444 0 0 0 0 0.108333 0 0 0 0 0.137222 0 0 0 0.14 0"/>
<feBlend mode="normal" in2="BackgroundImageFix" result="effect1_dropShadow_6839_89898"/>
<feColorMatrix in="SourceAlpha" type="matrix" values="0 0 0 0 0 0 0 0 0 0 0 0 0 0 0 0 0 0 127 0" result="hardAlpha"/>
<feMorphology radius="1" operator="dilate" in="SourceAlpha" result="effect2_dropShadow_6839_89898"/>
<feOffset/>
<feComposite in2="hardAlpha" operator="out"/>
<feColorMatrix type="matrix" values="0 0 0 0 0 0 0 0 0 0 0 0 0 0 0 0 0 0 0.05 0"/>
<feBlend mode="normal" in2="effect1_dropShadow_6839_89898" result="effect2_dropShadow_6839_89898"/>
<feBlend mode="normal" in="SourceGraphic" in2="effect2_dropShadow_6839_89898" result="shape"/>
</filter>
<filter id="filter1_dd_6839_89898" x="33" y="39" width="38" height="38" filterUnits="userSpaceOnUse" color-interpolation-filters="sRGB">
<feFlood flood-opacity="0" result="BackgroundImageFix"/>
<feColorMatrix in="SourceAlpha" type="matrix" values="0 0 0 0 0 0 0 0 0 0 0 0 0 0 0 0 0 0 127 0" result="hardAlpha"/>
<feMorphology radius="1" operator="erode" in="SourceAlpha" result="effect1_dropShadow_6839_89898"/>
<feOffset dy="2"/>
<feGaussianBlur stdDeviation="2"/>
<feColorMatrix type="matrix" values="0 0 0 0 0.25098 0 0 0 0 0.341176 0 0 0 0 0.427451 0 0 0 0.3 0"/>
<feBlend mode="normal" in2="BackgroundImageFix" result="effect1_dropShadow_6839_89898"/>
<feColorMatrix in="SourceAlpha" type="matrix" values="0 0 0 0 0 0 0 0 0 0 0 0 0 0 0 0 0 0 127 0" result="hardAlpha"/>
<feMorphology radius="1" operator="dilate" in="SourceAlpha" result="effect2_dropShadow_6839_89898"/>
<feOffset/>
<feColorMatrix type="matrix" values="0 0 0 0 0.25098 0 0 0 0 0.341176 0 0 0 0 0.427451 0 0 0 0.04 0"/>
<feBlend mode="normal" in2="effect1_dropShadow_6839_89898" result="effect2_dropShadow_6839_89898"/>
<feBlend mode="normal" in="SourceGraphic" in2="effect2_dropShadow_6839_89898" result="shape"/>
</filter>
<filter id="filter2_dd_6839_89898" x="99" y="39" width="38" height="38" filterUnits="userSpaceOnUse" color-interpolation-filters="sRGB">
<feFlood flood-opacity="0" result="BackgroundImageFix"/>
<feColorMatrix in="SourceAlpha" type="matrix" values="0 0 0 0 0 0 0 0 0 0 0 0 0 0 0 0 0 0 127 0" result="hardAlpha"/>
<feMorphology radius="1" operator="erode" in="SourceAlpha" result="effect1_dropShadow_6839_89898"/>
<feOffset dy="2"/>
<feGaussianBlur stdDeviation="2"/>
<feColorMatrix type="matrix" values="0 0 0 0 0.25098 0 0 0 0 0.341176 0 0 0 0 0.427451 0 0 0 0.3 0"/>
<feBlend mode="normal" in2="BackgroundImageFix" result="effect1_dropShadow_6839_89898"/>
<feColorMatrix in="SourceAlpha" type="matrix" values="0 0 0 0 0 0 0 0 0 0 0 0 0 0 0 0 0 0 127 0" result="hardAlpha"/>
<feMorphology radius="1" operator="dilate" in="SourceAlpha" result="effect2_dropShadow_6839_89898"/>
<feOffset/>
<feColorMatrix type="matrix" values="0 0 0 0 0.25098 0 0 0 0 0.341176 0 0 0 0 0.427451 0 0 0 0.04 0"/>
<feBlend mode="normal" in2="effect1_dropShadow_6839_89898" result="effect2_dropShadow_6839_89898"/>
<feBlend mode="normal" in="SourceGraphic" in2="effect2_dropShadow_6839_89898" result="shape"/>
</filter>
<linearGradient id="paint0_linear_6839_89898" x1="16" y1="-676" x2="30.7234" y2="142.481" gradientUnits="userSpaceOnUse">
<stop stop-color="#EBE0FC"/>
<stop offset="0.63" stop-color="#DDEAF9"/>
</linearGradient>
<clipPath id="clip0_6839_89898">
<rect x="16" y="-676" width="375" height="812" rx="4" fill="white"/>
</clipPath>
<clipPath id="clip1_6839_89898">
<path d="M16 -620C16 -626.627 21.3726 -632 28 -632H379C385.627 -632 391 -626.627 391 -620V136H16V-620Z" fill="white"/>
</clipPath>
<clipPath id="clip2_6839_89898">
<rect width="375" height="72" fill="white" transform="translate(16 30)"/>
</clipPath>
</defs>
</svg>
