<svg width="328" height="152" viewBox="0 0 328 152" fill="none" xmlns="http://www.w3.org/2000/svg">
<rect width="328" height="152" fill="#40576D" fill-opacity="0.07"/>
<g clip-path="url(#clip0_6839_89836)">
<rect x="16" y="16" width="538" height="302.477" rx="1.5754" fill="url(#paint0_linear_6839_89836)"/>
<rect x="16" y="16" width="538" height="302.477" rx="1.5754" fill="white" fill-opacity="0.5"/>
<g clip-path="url(#clip1_6839_89836)">
<g clip-path="url(#clip2_6839_89836)">
<path d="M52.4151 67.9575C52.2106 67.9575 52.0279 67.9314 51.8672 67.8792C51.7064 67.8256 51.5724 67.7558 51.4652 67.6698C51.3581 67.5838 51.277 67.4893 51.222 67.3863L51.4885 67.0606H51.5414C51.6359 67.2087 51.7558 67.3236 51.901 67.4054C52.0463 67.4872 52.2176 67.5281 52.4151 67.5281C52.6125 67.5281 52.7606 67.4865 52.8593 67.4033C52.958 67.3201 53.0074 67.2051 53.0074 67.0585C53.0074 66.971 52.9912 66.8977 52.9587 66.8385C52.9263 66.7778 52.8727 66.7263 52.7979 66.684C52.7246 66.6403 52.6245 66.6029 52.4976 66.5719L52.1189 66.4831C51.8453 66.4182 51.6422 66.3138 51.5097 66.17C51.3785 66.0247 51.3129 65.8393 51.3129 65.6136C51.3129 65.4486 51.3545 65.3034 51.4377 65.1779C51.5209 65.0509 51.6422 64.9522 51.8016 64.8817C51.9624 64.8112 52.1535 64.7759 52.3749 64.7759C52.6104 64.7759 52.8106 64.8077 52.9756 64.8711C53.1406 64.9346 53.276 65.0319 53.3818 65.1631L53.1428 65.4909H53.0899C53.001 65.3908 52.8981 65.3168 52.781 65.2688C52.664 65.2195 52.5286 65.1948 52.3749 65.1948C52.1831 65.1948 52.0378 65.2307 51.9391 65.3027C51.8418 65.3732 51.7931 65.4712 51.7931 65.5967C51.7931 65.7152 51.8284 65.8097 51.8989 65.8802C51.9694 65.9493 52.09 66.0036 52.2606 66.0431L52.6499 66.1298C52.9503 66.1975 53.1674 66.3061 53.3014 66.4556C53.4368 66.6036 53.5045 66.7954 53.5045 67.031C53.5045 67.2143 53.4636 67.3758 53.3818 67.5154C53.3014 67.655 53.1794 67.7636 53.0158 67.8412C52.8537 67.9187 52.6534 67.9575 52.4151 67.9575ZM55.3047 67.4498L55.4359 67.7904C55.3766 67.844 55.3005 67.8849 55.2074 67.9131C55.1143 67.9427 55.0114 67.9575 54.8985 67.9575C54.6644 67.9575 54.486 67.8955 54.3633 67.7714C54.2407 67.6472 54.1793 67.4618 54.1793 67.215V65.9521H53.7985V65.5777H54.1793V65.1038L54.6447 65.0277V65.5777H55.3512V65.9521H54.6447V67.1769C54.6447 67.3067 54.6715 67.4005 54.7251 67.4583C54.7801 67.5161 54.8584 67.545 54.9599 67.545C55.0741 67.545 55.1743 67.5133 55.2603 67.4498H55.3047ZM56.4449 67.9575C56.2164 67.9575 56.0373 67.8969 55.9076 67.7756C55.7779 67.6529 55.713 67.4794 55.713 67.2552C55.713 67.117 55.7419 67.0006 55.7997 66.9062C55.8575 66.8117 55.9478 66.7348 56.0705 66.6756C56.1932 66.6149 56.3525 66.5684 56.5486 66.536C56.7023 66.5106 56.8193 66.4824 56.8997 66.4513C56.9801 66.4203 57.0344 66.3858 57.0626 66.3477C57.0908 66.3082 57.1049 66.2588 57.1049 66.1996C57.1049 66.1093 57.0732 66.0402 57.0097 65.9923C56.9477 65.9443 56.8461 65.9204 56.7051 65.9204C56.4386 65.9204 56.2122 66.0311 56.0261 66.2525H55.9838L55.7764 65.9479C55.885 65.8195 56.0197 65.7187 56.1805 65.6454C56.3427 65.572 56.5225 65.5354 56.7199 65.5354C57.0118 65.5354 57.2248 65.5981 57.3588 65.7236C57.4942 65.8492 57.5618 66.0254 57.5618 66.2525V67.3779C57.5618 67.4949 57.6119 67.5535 57.712 67.5535C57.7487 67.5535 57.784 67.5471 57.8178 67.5344L57.8474 67.5429L57.8876 67.8665C57.8594 67.8863 57.8199 67.9018 57.7692 67.9131C57.7198 67.9244 57.6669 67.93 57.6105 67.93C57.4765 67.93 57.3736 67.9025 57.3017 67.8475C57.2311 67.7925 57.1825 67.7086 57.1557 67.5958L57.1113 67.5915C57.0492 67.7142 56.9632 67.8059 56.8532 67.8665C56.7446 67.9272 56.6085 67.9575 56.4449 67.9575ZM56.5761 67.6C56.6847 67.6 56.7799 67.5753 56.8616 67.526C56.9434 67.4752 57.0062 67.4033 57.0499 67.3102C57.0936 67.2171 57.1155 67.1078 57.1155 66.9823V66.7158L57.0753 66.7073C57.0316 66.7397 56.9766 66.7672 56.9103 66.7898C56.8454 66.811 56.7524 66.8314 56.6311 66.8512C56.4675 66.8751 56.3511 66.9181 56.282 66.9802C56.2143 67.0408 56.1805 67.1269 56.1805 67.2383C56.1805 67.3567 56.215 67.447 56.2841 67.509C56.3532 67.5697 56.4506 67.6 56.5761 67.6ZM58.317 67.9131V65.5798H58.7655V65.9352L58.8099 65.9458C58.8663 65.8118 58.9432 65.7138 59.0405 65.6517C59.1378 65.5897 59.2556 65.5586 59.3938 65.5586C59.5419 65.5586 59.6519 65.584 59.7238 65.6348L59.6307 66.0346L59.5863 66.0431C59.5468 66.0247 59.5066 66.0113 59.4657 66.0029C59.4248 65.993 59.3776 65.9881 59.324 65.9881C59.1491 65.9881 59.0151 66.0515 58.9221 66.1785C58.829 66.3054 58.7824 66.5106 58.7824 66.794V67.9131H58.317ZM60.1363 67.9131V65.5798H60.5848V65.9352L60.6292 65.9458C60.6856 65.8118 60.7625 65.7138 60.8598 65.6517C60.9571 65.5897 61.0748 65.5586 61.213 65.5586C61.3611 65.5586 61.4711 65.584 61.543 65.6348L61.45 66.0346L61.4055 66.0431C61.3661 66.0247 61.3259 66.0113 61.285 66.0029C61.2441 65.993 61.1968 65.9881 61.1432 65.9881C60.9684 65.9881 60.8344 66.0515 60.7413 66.1785C60.6482 66.3054 60.6017 66.5106 60.6017 66.794V67.9131H60.1363ZM63.7854 66.8512H62.2327C62.2595 67.3194 62.4766 67.5535 62.8842 67.5535C63.0351 67.5535 63.1564 67.5267 63.2481 67.4731C63.3411 67.4181 63.4145 67.3335 63.4681 67.2192H63.5125L63.8192 67.4096C63.7473 67.576 63.6352 67.7093 63.4829 67.8094C63.332 67.9081 63.1324 67.9575 62.8842 67.9575C62.6515 67.9575 62.4506 67.9124 62.2813 67.8221C62.1121 67.7319 61.9816 67.5965 61.89 67.416C61.7983 67.2354 61.7525 67.0126 61.7525 66.7475C61.7525 66.4824 61.8004 66.2588 61.8963 66.0769C61.9922 65.895 62.1234 65.7596 62.2898 65.6708C62.4562 65.5805 62.6438 65.5354 62.8525 65.5354C63.167 65.5354 63.4095 65.6214 63.5802 65.7934C63.7522 65.9655 63.839 66.2186 63.8404 66.5529C63.8404 66.6784 63.8369 66.7694 63.8298 66.8258L63.7854 66.8512ZM63.3898 66.519C63.3842 66.3061 63.3355 66.151 63.2438 66.0536C63.1536 65.9563 63.0231 65.9077 62.8525 65.9077C62.6804 65.9077 62.5422 65.9563 62.4379 66.0536C62.3349 66.151 62.27 66.3061 62.2432 66.519H63.3898ZM65.2154 67.9575C65.0292 67.9575 64.8642 67.9131 64.7204 67.8242C64.578 67.734 64.4665 67.5986 64.3862 67.4181C64.3058 67.2376 64.2656 67.014 64.2656 66.7475C64.2656 66.481 64.3072 66.2574 64.3904 66.0769C64.475 65.895 64.5906 65.7596 64.7373 65.6708C64.8854 65.5805 65.056 65.5354 65.2492 65.5354C65.4001 65.5354 65.5334 65.5629 65.6491 65.6179C65.7647 65.6715 65.8627 65.7582 65.9431 65.8781L65.9875 65.8675V64.6427H66.4529V67.9131H65.9875V67.5915L65.9431 67.5831C65.8712 67.6959 65.7746 67.7869 65.6533 67.856C65.532 67.9237 65.386 67.9575 65.2154 67.9575ZM65.3635 67.5535C65.5553 67.5535 65.7076 67.4872 65.8204 67.3546C65.9332 67.2206 65.9896 67.0183 65.9896 66.7475C65.9896 66.4739 65.9332 66.2708 65.8204 66.1383C65.7076 66.0043 65.5553 65.9373 65.3635 65.9373C64.9531 65.9373 64.7479 66.2074 64.7479 66.7475C64.7479 67.2848 64.9531 67.5535 65.3635 67.5535Z" fill="#0D1216" fill-opacity="0.86"/>
<path d="M73.2411 65.8102L71.8486 67.2026C71.8101 67.2411 71.7478 67.2411 71.7093 67.2026L70.3169 65.8102C70.2015 65.6948 70.0145 65.6948 69.8991 65.8102C69.7838 65.9255 69.7838 66.1126 69.8991 66.2279L71.2916 67.6204C71.5608 67.8896 71.9972 67.8896 72.2663 67.6204L73.6588 66.2279C73.7742 66.1126 73.7742 65.9255 73.6588 65.8102C73.5434 65.6948 73.3564 65.6948 73.2411 65.8102Z" fill="#0E1318" fill-opacity="0.7"/>
<path fill-rule="evenodd" clip-rule="evenodd" d="M132.678 68.4806C132.678 68.6438 132.81 68.776 132.973 68.776C133.137 68.776 133.269 68.6438 133.269 68.4806V66.7083H135.041C135.204 66.7083 135.337 66.576 135.337 66.4129C135.337 66.2498 135.204 66.1175 135.041 66.1175H133.269V64.3452C133.269 64.1821 133.137 64.0498 132.973 64.0498C132.81 64.0498 132.678 64.1821 132.678 64.3452V66.1175H130.906C130.743 66.1175 130.61 66.2498 130.61 66.4129C130.61 66.576 130.743 66.7083 130.906 66.7083H132.678V68.4806Z" fill="#0E1318" fill-opacity="0.7"/>
<rect x="52.6279" y="79.0161" width="7.87701" height="7.87701" rx="1.5754" fill="#394C60" fill-opacity="0.15"/>
<rect x="67.5942" y="81.3794" width="39.3851" height="3.15081" rx="1.5754" fill="#394C60" fill-opacity="0.15"/>
<rect x="52.6279" y="96.3457" width="7.87701" height="7.87701" rx="1.5754" fill="#394C60" fill-opacity="0.15"/>
<rect x="67.5942" y="98.7085" width="61.8346" height="3.15081" rx="1.5754" fill="#394C60" fill-opacity="0.15"/>
<rect x="52.6279" y="113.675" width="7.87701" height="7.87701" rx="1.5754" fill="#394C60" fill-opacity="0.15"/>
<rect x="67.5942" y="116.038" width="63.0161" height="3.15081" rx="1.5754" fill="#394C60" fill-opacity="0.15"/>
<path d="M52.4151 140.426C52.2106 140.426 52.0279 140.4 51.8672 140.348C51.7064 140.294 51.5724 140.224 51.4652 140.138C51.3581 140.052 51.277 139.958 51.222 139.855L51.4885 139.529H51.5414C51.6359 139.677 51.7558 139.792 51.901 139.874C52.0463 139.955 52.2176 139.996 52.4151 139.996C52.6125 139.996 52.7606 139.955 52.8593 139.872C52.958 139.788 53.0074 139.673 53.0074 139.527C53.0074 139.439 52.9912 139.366 52.9587 139.307C52.9263 139.246 52.8727 139.195 52.7979 139.152C52.7246 139.109 52.6245 139.071 52.4976 139.04L52.1189 138.951C51.8453 138.886 51.6422 138.782 51.5097 138.638C51.3785 138.493 51.3129 138.308 51.3129 138.082C51.3129 137.917 51.3545 137.772 51.4377 137.646C51.5209 137.519 51.6422 137.42 51.8016 137.35C51.9624 137.279 52.1535 137.244 52.3749 137.244C52.6104 137.244 52.8106 137.276 52.9756 137.339C53.1406 137.403 53.276 137.5 53.3818 137.631L53.1428 137.959H53.0899C53.001 137.859 52.8981 137.785 52.781 137.737C52.664 137.688 52.5286 137.663 52.3749 137.663C52.1831 137.663 52.0378 137.699 51.9391 137.771C51.8418 137.841 51.7931 137.939 51.7931 138.065C51.7931 138.183 51.8284 138.278 51.8989 138.348C51.9694 138.418 52.09 138.472 52.2606 138.511L52.6499 138.598C52.9503 138.666 53.1674 138.774 53.3014 138.924C53.4368 139.072 53.5045 139.264 53.5045 139.499C53.5045 139.683 53.4636 139.844 53.3818 139.984C53.3014 140.123 53.1794 140.232 53.0158 140.309C52.8537 140.387 52.6534 140.426 52.4151 140.426ZM55.3047 139.918L55.4359 140.259C55.3766 140.312 55.3005 140.353 55.2074 140.381C55.1143 140.411 55.0114 140.426 54.8985 140.426C54.6644 140.426 54.486 140.364 54.3633 140.24C54.2407 140.116 54.1793 139.93 54.1793 139.683V138.42H53.7985V138.046H54.1793V137.572L54.6447 137.496V138.046H55.3512V138.42H54.6447V139.645C54.6447 139.775 54.6715 139.869 54.7251 139.927C54.7801 139.984 54.8584 140.013 54.9599 140.013C55.0741 140.013 55.1743 139.982 55.2603 139.918H55.3047ZM56.4449 140.426C56.2164 140.426 56.0373 140.365 55.9076 140.244C55.7779 140.121 55.713 139.948 55.713 139.723C55.713 139.585 55.7419 139.469 55.7997 139.374C55.8575 139.28 55.9478 139.203 56.0705 139.144C56.1932 139.083 56.3525 139.037 56.5486 139.004C56.7023 138.979 56.8193 138.951 56.8997 138.92C56.9801 138.889 57.0344 138.854 57.0626 138.816C57.0908 138.776 57.1049 138.727 57.1049 138.668C57.1049 138.578 57.0732 138.509 57.0097 138.461C56.9477 138.413 56.8461 138.389 56.7051 138.389C56.4386 138.389 56.2122 138.499 56.0261 138.721H55.9838L55.7764 138.416C55.885 138.288 56.0197 138.187 56.1805 138.114C56.3427 138.04 56.5225 138.004 56.7199 138.004C57.0118 138.004 57.2248 138.066 57.3588 138.192C57.4942 138.317 57.5618 138.494 57.5618 138.721V139.846C57.5618 139.963 57.6119 140.022 57.712 140.022C57.7487 140.022 57.784 140.015 57.8178 140.003L57.8474 140.011L57.8876 140.335C57.8594 140.355 57.8199 140.37 57.7692 140.381C57.7198 140.393 57.6669 140.398 57.6105 140.398C57.4765 140.398 57.3736 140.371 57.3017 140.316C57.2311 140.261 57.1825 140.177 57.1557 140.064L57.1113 140.06C57.0492 140.182 56.9632 140.274 56.8532 140.335C56.7446 140.395 56.6085 140.426 56.4449 140.426ZM56.5761 140.068C56.6847 140.068 56.7799 140.044 56.8616 139.994C56.9434 139.943 57.0062 139.872 57.0499 139.778C57.0936 139.685 57.1155 139.576 57.1155 139.451V139.184L57.0753 139.176C57.0316 139.208 56.9766 139.236 56.9103 139.258C56.8454 139.279 56.7524 139.3 56.6311 139.319C56.4675 139.343 56.3511 139.386 56.282 139.448C56.2143 139.509 56.1805 139.595 56.1805 139.707C56.1805 139.825 56.215 139.915 56.2841 139.977C56.3532 140.038 56.4506 140.068 56.5761 140.068ZM58.317 140.381V138.048H58.7655V138.403L58.8099 138.414C58.8663 138.28 58.9432 138.182 59.0405 138.12C59.1378 138.058 59.2556 138.027 59.3938 138.027C59.5419 138.027 59.6519 138.052 59.7238 138.103L59.6307 138.503L59.5863 138.511C59.5468 138.493 59.5066 138.48 59.4657 138.471C59.4248 138.461 59.3776 138.456 59.324 138.456C59.1491 138.456 59.0151 138.52 58.9221 138.647C58.829 138.774 58.7824 138.979 58.7824 139.262V140.381H58.317ZM60.1363 140.381V138.048H60.5848V138.403L60.6292 138.414C60.6856 138.28 60.7625 138.182 60.8598 138.12C60.9571 138.058 61.0748 138.027 61.213 138.027C61.3611 138.027 61.4711 138.052 61.543 138.103L61.45 138.503L61.4055 138.511C61.3661 138.493 61.3259 138.48 61.285 138.471C61.2441 138.461 61.1968 138.456 61.1432 138.456C60.9684 138.456 60.8344 138.52 60.7413 138.647C60.6482 138.774 60.6017 138.979 60.6017 139.262V140.381H60.1363ZM63.7854 139.319H62.2327C62.2595 139.788 62.4766 140.022 62.8842 140.022C63.0351 140.022 63.1564 139.995 63.2481 139.941C63.3411 139.886 63.4145 139.802 63.4681 139.687H63.5125L63.8192 139.878C63.7473 140.044 63.6352 140.178 63.4829 140.278C63.332 140.376 63.1324 140.426 62.8842 140.426C62.6515 140.426 62.4506 140.381 62.2813 140.29C62.1121 140.2 61.9816 140.065 61.89 139.884C61.7983 139.704 61.7525 139.481 61.7525 139.216C61.7525 138.951 61.8004 138.727 61.8963 138.545C61.9922 138.363 62.1234 138.228 62.2898 138.139C62.4562 138.049 62.6438 138.004 62.8525 138.004C63.167 138.004 63.4095 138.09 63.5802 138.262C63.7522 138.434 63.839 138.687 63.8404 139.021C63.8404 139.147 63.8369 139.238 63.8298 139.294L63.7854 139.319ZM63.3898 138.987C63.3842 138.774 63.3355 138.619 63.2438 138.522C63.1536 138.425 63.0231 138.376 62.8525 138.376C62.6804 138.376 62.5422 138.425 62.4379 138.522C62.3349 138.619 62.27 138.774 62.2432 138.987H63.3898ZM65.2154 140.426C65.0292 140.426 64.8642 140.381 64.7204 140.293C64.578 140.202 64.4665 140.067 64.3862 139.886C64.3058 139.706 64.2656 139.482 64.2656 139.216C64.2656 138.949 64.3072 138.726 64.3904 138.545C64.475 138.363 64.5906 138.228 64.7373 138.139C64.8854 138.049 65.056 138.004 65.2492 138.004C65.4001 138.004 65.5334 138.031 65.6491 138.086C65.7647 138.14 65.8627 138.226 65.9431 138.346L65.9875 138.336V137.111H66.4529V140.381H65.9875V140.06L65.9431 140.051C65.8712 140.164 65.7746 140.255 65.6533 140.324C65.532 140.392 65.386 140.426 65.2154 140.426ZM65.3635 140.022C65.5553 140.022 65.7076 139.955 65.8204 139.823C65.9332 139.689 65.9896 139.487 65.9896 139.216C65.9896 138.942 65.9332 138.739 65.8204 138.607C65.7076 138.473 65.5553 138.406 65.3635 138.406C64.9531 138.406 64.7479 138.676 64.7479 139.216C64.7479 139.753 64.9531 140.022 65.3635 140.022ZM68.3356 140.381V138.42H67.9675V138.046H68.3356C68.3102 137.942 68.2975 137.847 68.2975 137.762C68.2975 137.613 68.3307 137.486 68.397 137.382C68.4633 137.277 68.5563 137.199 68.6762 137.147C68.7975 137.093 68.9392 137.067 69.1014 137.067C69.3468 137.067 69.5322 137.114 69.6578 137.208L69.5224 137.545L69.4779 137.553C69.3877 137.485 69.272 137.452 69.131 137.452C69.0097 137.452 68.9181 137.483 68.856 137.545C68.7954 137.605 68.7651 137.69 68.7651 137.798C68.7651 137.879 68.777 137.961 68.801 138.046H69.5054V138.42H68.801V140.381H68.3356ZM70.8678 140.426C70.6435 140.426 70.4475 140.379 70.2797 140.286C70.1119 140.193 69.9821 140.056 69.8905 139.874C69.7988 139.692 69.7529 139.472 69.7529 139.216C69.7529 138.958 69.7988 138.738 69.8905 138.558C69.9821 138.376 70.1119 138.238 70.2797 138.145C70.4475 138.051 70.6435 138.004 70.8678 138.004C71.092 138.004 71.288 138.051 71.4559 138.145C71.6237 138.238 71.7534 138.376 71.8451 138.558C71.9382 138.738 71.9847 138.958 71.9847 139.216C71.9847 139.472 71.9382 139.692 71.8451 139.874C71.7534 140.056 71.6237 140.193 71.4559 140.286C71.288 140.379 71.092 140.426 70.8678 140.426ZM70.8678 140.022C71.2894 140.022 71.5003 139.753 71.5003 139.216C71.5003 138.676 71.2894 138.406 70.8678 138.406C70.6633 138.406 70.5067 138.472 70.3981 138.604C70.2896 138.736 70.2353 138.939 70.2353 139.216C70.2353 139.753 70.4461 140.022 70.8678 140.022ZM72.5876 140.381V138.048H73.0361V138.403L73.0805 138.414C73.1369 138.28 73.2138 138.182 73.3111 138.12C73.4084 138.058 73.5261 138.027 73.6643 138.027C73.8124 138.027 73.9224 138.052 73.9943 138.103L73.9013 138.503L73.8568 138.511C73.8174 138.493 73.7772 138.48 73.7363 138.471C73.6954 138.461 73.6481 138.456 73.5945 138.456C73.4197 138.456 73.2857 138.52 73.1926 138.647C73.0995 138.774 73.053 138.979 73.053 139.262V140.381H72.5876ZM76.6746 139.918L76.8057 140.259C76.7465 140.312 76.6703 140.353 76.5773 140.381C76.4842 140.411 76.3812 140.426 76.2684 140.426C76.0343 140.426 75.8559 140.364 75.7332 140.24C75.6105 140.116 75.5492 139.93 75.5492 139.683V138.42H75.1684V138.046H75.5492V137.572L76.0146 137.496V138.046H76.7211V138.42H76.0146V139.645C76.0146 139.775 76.0414 139.869 76.0949 139.927C76.1499 139.984 76.2282 140.013 76.3298 140.013C76.444 140.013 76.5441 139.982 76.6301 139.918H76.6746ZM79.1136 139.319H77.5609C77.5877 139.788 77.8049 140.022 78.2125 140.022C78.3634 140.022 78.4847 139.995 78.5763 139.941C78.6694 139.886 78.7427 139.802 78.7963 139.687H78.8407L79.1475 139.878C79.0756 140.044 78.9634 140.178 78.8111 140.278C78.6602 140.376 78.4607 140.426 78.2125 140.426C77.9798 140.426 77.7788 140.381 77.6096 140.29C77.4403 140.2 77.3099 140.065 77.2182 139.884C77.1266 139.704 77.0807 139.481 77.0807 139.216C77.0807 138.951 77.1287 138.727 77.2246 138.545C77.3205 138.363 77.4516 138.228 77.618 138.139C77.7845 138.049 77.972 138.004 78.1807 138.004C78.4952 138.004 78.7378 138.09 78.9084 138.262C79.0805 138.434 79.1672 138.687 79.1686 139.021C79.1686 139.147 79.1651 139.238 79.1581 139.294L79.1136 139.319ZM78.7181 138.987C78.7124 138.774 78.6638 138.619 78.5721 138.522C78.4818 138.425 78.3514 138.376 78.1807 138.376C78.0087 138.376 77.8705 138.425 77.7661 138.522C77.6632 138.619 77.5983 138.774 77.5715 138.987H78.7181ZM80.2983 140.426C80.0698 140.426 79.8907 140.365 79.7609 140.244C79.6312 140.121 79.5663 139.948 79.5663 139.723C79.5663 139.585 79.5952 139.469 79.6531 139.374C79.7109 139.28 79.8011 139.203 79.9238 139.144C80.0465 139.083 80.2059 139.037 80.4019 139.004C80.5556 138.979 80.6727 138.951 80.7531 138.92C80.8335 138.889 80.8878 138.854 80.916 138.816C80.9442 138.776 80.9583 138.727 80.9583 138.668C80.9583 138.578 80.9265 138.509 80.8631 138.461C80.801 138.413 80.6995 138.389 80.5585 138.389C80.2919 138.389 80.0656 138.499 79.8794 138.721H79.8371L79.6298 138.416C79.7384 138.288 79.8731 138.187 80.0338 138.114C80.196 138.04 80.3758 138.004 80.5733 138.004C80.8652 138.004 81.0781 138.066 81.2121 138.192C81.3475 138.317 81.4152 138.494 81.4152 138.721V139.846C81.4152 139.963 81.4653 140.022 81.5654 140.022C81.6021 140.022 81.6373 140.015 81.6712 140.003L81.7008 140.011L81.741 140.335C81.7128 140.355 81.6733 140.37 81.6225 140.381C81.5731 140.393 81.5203 140.398 81.4639 140.398C81.3299 140.398 81.2269 140.371 81.155 140.316C81.0845 140.261 81.0358 140.177 81.009 140.064L80.9646 140.06C80.9026 140.182 80.8165 140.274 80.7065 140.335C80.5979 140.395 80.4619 140.426 80.2983 140.426ZM80.4294 140.068C80.538 140.068 80.6332 140.044 80.715 139.994C80.7968 139.943 80.8596 139.872 80.9033 139.778C80.947 139.685 80.9688 139.576 80.9688 139.451V139.184L80.9287 139.176C80.8849 139.208 80.8299 139.236 80.7637 139.258C80.6988 139.279 80.6057 139.3 80.4844 139.319C80.3208 139.343 80.2045 139.386 80.1354 139.448C80.0677 139.509 80.0338 139.595 80.0338 139.707C80.0338 139.825 80.0684 139.915 80.1375 139.977C80.2066 140.038 80.3039 140.068 80.4294 140.068ZM82.1704 140.381V138.048H82.6146V138.376L82.6591 138.384C82.738 138.256 82.8311 138.161 82.9383 138.099C83.0455 138.035 83.1773 138.004 83.3339 138.004C83.513 138.004 83.654 138.038 83.757 138.107C83.8599 138.176 83.9375 138.282 83.9897 138.425H84.0341C84.1102 138.284 84.2061 138.179 84.3218 138.109C84.4374 138.039 84.5806 138.004 84.7512 138.004C84.9938 138.004 85.1743 138.071 85.2927 138.205C85.4112 138.337 85.4704 138.536 85.4704 138.801V140.381H85.005V138.841C85.005 138.689 84.9733 138.578 84.9099 138.507C84.8478 138.437 84.7477 138.401 84.6095 138.401C84.4402 138.401 84.3048 138.461 84.2033 138.579C84.1032 138.697 84.0531 138.891 84.0531 139.159V140.381H83.5877V138.841C83.5877 138.689 83.556 138.578 83.4925 138.507C83.4305 138.437 83.3303 138.401 83.1921 138.401C83.0229 138.401 82.8875 138.459 82.786 138.575C82.6859 138.69 82.6358 138.877 82.6358 139.135V140.381H82.1704Z" fill="#0E1318" fill-opacity="0.7"/>
<path d="M92.2411 138.279L90.8486 139.671C90.8101 139.71 90.7478 139.71 90.7093 139.671L89.3169 138.279C89.2015 138.164 89.0145 138.164 88.8991 138.279C88.7838 138.394 88.7838 138.581 88.8991 138.697L90.2916 140.089C90.5608 140.358 90.9972 140.358 91.2663 140.089L92.6588 138.697C92.7742 138.581 92.7742 138.394 92.6588 138.279C92.5434 138.164 92.3564 138.164 92.2411 138.279Z" fill="#0E1318" fill-opacity="0.7"/>
<path fill-rule="evenodd" clip-rule="evenodd" d="M132.678 140.949C132.678 141.112 132.81 141.244 132.973 141.244C133.137 141.244 133.269 141.112 133.269 140.949V139.177H135.041C135.204 139.177 135.337 139.044 135.337 138.881C135.337 138.718 135.204 138.586 135.041 138.586H133.269V136.813C133.269 136.65 133.137 136.518 132.973 136.518C132.81 136.518 132.678 136.65 132.678 136.813V138.586H130.906C130.743 138.586 130.61 138.718 130.61 138.881C130.61 139.044 130.743 139.177 130.906 139.177H132.678V140.949Z" fill="#0E1318" fill-opacity="0.7"/>
<rect x="52.6279" y="151.485" width="7.87701" height="7.87701" rx="1.5754" fill="#394C60" fill-opacity="0.15"/>
</g>
<path d="M47.9019 44.3573C47.9019 42.6172 49.3125 41.2065 51.0527 41.2065H136.124C137.865 41.2065 139.275 42.6172 139.275 44.3573V53.8098C139.275 55.5499 137.865 56.9606 136.124 56.9606H51.0527C49.3125 56.9606 47.9019 55.5499 47.9019 53.8098V44.3573Z" fill="#8B3DFF"/>
<path fill-rule="evenodd" clip-rule="evenodd" d="M69.1424 51.151C69.1424 51.3142 69.2747 51.4464 69.4378 51.4464C69.6009 51.4464 69.7332 51.3142 69.7332 51.151V49.3787H71.5055C71.6687 49.3787 71.8009 49.2465 71.8009 49.0833C71.8009 48.9202 71.6687 48.7879 71.5055 48.7879H69.7332V47.0156C69.7332 46.8525 69.6009 46.7202 69.4378 46.7202C69.2747 46.7202 69.1424 46.8525 69.1424 47.0156V48.7879H67.3701C67.207 48.7879 67.0747 48.9202 67.0747 49.0833C67.0747 49.2465 67.207 49.3787 67.3701 49.3787H69.1424V51.151Z" fill="white"/>
<path d="M78.3398 50.64C77.9862 50.64 77.673 50.5629 77.4002 50.4085C77.1274 50.2541 76.9138 50.0253 76.7594 49.7219C76.6051 49.4186 76.5279 49.0498 76.5279 48.6154C76.5279 48.181 76.6051 47.8122 76.7594 47.5088C76.9138 47.2055 77.1274 46.9767 77.4002 46.8223C77.673 46.6679 77.9862 46.5908 78.3398 46.5908C78.7132 46.5908 79.0264 46.6626 79.2794 46.8061C79.5343 46.9497 79.7174 47.1669 79.8287 47.4577L79.3952 47.7296H79.3279C79.2328 47.5142 79.1053 47.3608 78.9456 47.2692C78.7876 47.1777 78.5857 47.1319 78.3398 47.1319C77.9844 47.1319 77.7017 47.2513 77.4917 47.49C77.2817 47.7287 77.1767 48.1039 77.1767 48.6154C77.1767 49.1251 77.2817 49.4994 77.4917 49.7381C77.7017 49.975 77.9844 50.0935 78.3398 50.0935C78.6091 50.0935 78.828 50.0316 78.9967 49.9077C79.1673 49.7821 79.2884 49.5837 79.3602 49.3127H79.4275L79.8691 49.5389C79.7686 49.8996 79.59 50.1734 79.3333 50.36C79.0784 50.5467 78.7473 50.64 78.3398 50.64ZM80.5098 50.5835V47.6138H81.0806V48.0662L81.1372 48.0796C81.209 47.9091 81.3068 47.7844 81.4306 47.7054C81.5545 47.6264 81.7043 47.5869 81.8802 47.5869C82.0687 47.5869 82.2087 47.6192 82.3002 47.6838L82.1818 48.1927L82.1252 48.2035C82.075 48.1801 82.0238 48.1631 81.9718 48.1523C81.9197 48.1398 81.8596 48.1335 81.7914 48.1335C81.5688 48.1335 81.3983 48.2142 81.2799 48.3758C81.1614 48.5373 81.1022 48.7985 81.1022 49.1592V50.5835H80.5098ZM85.1541 49.2319H83.1779C83.2121 49.8278 83.4885 50.1258 84.0072 50.1258C84.1992 50.1258 84.3536 50.0917 84.4703 50.0235C84.5887 49.9535 84.6821 49.8458 84.7503 49.7004H84.8068L85.1972 49.9427C85.1057 50.1545 84.963 50.3241 84.7691 50.4516C84.5771 50.5772 84.3231 50.64 84.0072 50.64C83.711 50.64 83.4553 50.5826 83.2399 50.4677C83.0245 50.3529 82.8585 50.1805 82.7418 49.9508C82.6251 49.7211 82.5668 49.4375 82.5668 49.1C82.5668 48.7626 82.6278 48.4781 82.7499 48.2465C82.8719 48.015 83.0388 47.8427 83.2506 47.7296C83.4624 47.6147 83.7012 47.5573 83.9668 47.5573C84.3671 47.5573 84.6758 47.6668 84.893 47.8858C85.1119 48.1047 85.2223 48.4269 85.2241 48.8523C85.2241 49.0121 85.2196 49.1278 85.2107 49.1996L85.1541 49.2319ZM84.6507 48.8092C84.6435 48.5382 84.5816 48.3408 84.4649 48.2169C84.35 48.0931 84.184 48.0312 83.9668 48.0312C83.7478 48.0312 83.5719 48.0931 83.4391 48.2169C83.3081 48.3408 83.2255 48.5382 83.1914 48.8092H84.6507ZM86.6618 50.64C86.3711 50.64 86.1431 50.5629 85.978 50.4085C85.8129 50.2523 85.7303 50.0316 85.7303 49.7462C85.7303 49.5703 85.7671 49.4222 85.8407 49.3019C85.9143 49.1817 86.0291 49.0839 86.1853 49.0085C86.3414 48.9313 86.5443 48.8721 86.7938 48.8308C86.9894 48.7985 87.1384 48.7626 87.2407 48.7231C87.343 48.6836 87.4121 48.6396 87.448 48.5912C87.4839 48.5409 87.5018 48.4781 87.5018 48.4027C87.5018 48.2878 87.4615 48.1999 87.3807 48.1389C87.3017 48.0778 87.1725 48.0473 86.993 48.0473C86.6538 48.0473 86.3657 48.1882 86.1288 48.47H86.0749L85.8111 48.0823C85.9493 47.919 86.1207 47.7906 86.3253 47.6973C86.5317 47.604 86.7606 47.5573 87.0118 47.5573C87.3834 47.5573 87.6544 47.6372 87.8249 47.7969C87.9972 47.9567 88.0834 48.181 88.0834 48.47V49.9023C88.0834 50.0513 88.1471 50.1258 88.2745 50.1258C88.3212 50.1258 88.3661 50.1177 88.4092 50.1016L88.4469 50.1123L88.498 50.5243C88.4621 50.5494 88.4119 50.5691 88.3472 50.5835C88.2844 50.5979 88.2171 50.605 88.1453 50.605C87.9748 50.605 87.8438 50.57 87.7522 50.5C87.6625 50.43 87.6006 50.3232 87.5665 50.1796L87.5099 50.1743C87.4309 50.3304 87.3215 50.4471 87.1815 50.5243C87.0433 50.6014 86.87 50.64 86.6618 50.64ZM86.8288 50.185C86.967 50.185 87.0881 50.1536 87.1922 50.0908C87.2963 50.0262 87.3762 49.9346 87.4318 49.8162C87.4875 49.6977 87.5153 49.5586 87.5153 49.3989V49.0596L87.4642 49.0489C87.4085 49.0901 87.3385 49.1251 87.2542 49.1539C87.1716 49.1808 87.0531 49.2068 86.8988 49.2319C86.6906 49.2625 86.5425 49.3172 86.4545 49.3962C86.3684 49.4734 86.3253 49.5828 86.3253 49.7246C86.3253 49.8754 86.3693 49.9903 86.4572 50.0693C86.5452 50.1464 86.669 50.185 86.8288 50.185ZM90.563 49.9939L90.73 50.4273C90.6546 50.4955 90.5576 50.5476 90.4392 50.5835C90.3207 50.6212 90.1897 50.64 90.0461 50.64C89.7482 50.64 89.5211 50.5611 89.3649 50.4031C89.2088 50.2452 89.1307 50.0091 89.1307 49.695V48.0877H88.6461V47.6112H89.1307V47.0081L89.723 46.9111V47.6112H90.6223V48.0877H89.723V49.6466C89.723 49.8117 89.7571 49.9311 89.8253 50.0046C89.8953 50.0782 89.995 50.115 90.1242 50.115C90.2696 50.115 90.397 50.0746 90.5065 49.9939H90.563ZM93.6673 49.2319H91.6911C91.7252 49.8278 92.0016 50.1258 92.5204 50.1258C92.7124 50.1258 92.8668 50.0917 92.9834 50.0235C93.1019 49.9535 93.1952 49.8458 93.2634 49.7004H93.32L93.7104 49.9427C93.6188 50.1545 93.4761 50.3241 93.2823 50.4516C93.0902 50.5772 92.8363 50.64 92.5204 50.64C92.2242 50.64 91.9684 50.5826 91.753 50.4677C91.5377 50.3529 91.3716 50.1805 91.255 49.9508C91.1383 49.7211 91.08 49.4375 91.08 49.1C91.08 48.7626 91.141 48.4781 91.263 48.2465C91.3851 48.015 91.552 47.8427 91.7638 47.7296C91.9756 47.6147 92.2143 47.5573 92.48 47.5573C92.8802 47.5573 93.189 47.6668 93.4061 47.8858C93.6251 48.1047 93.7355 48.4269 93.7373 48.8523C93.7373 49.0121 93.7328 49.1278 93.7238 49.1996L93.6673 49.2319ZM93.1638 48.8092C93.1567 48.5382 93.0947 48.3408 92.9781 48.2169C92.8632 48.0931 92.6972 48.0312 92.48 48.0312C92.261 48.0312 92.0851 48.0931 91.9523 48.2169C91.8213 48.3408 91.7387 48.5382 91.7046 48.8092H93.1638ZM96.505 50.64C96.2143 50.64 95.9863 50.5629 95.8212 50.4085C95.656 50.2523 95.5735 50.0316 95.5735 49.7462C95.5735 49.5703 95.6103 49.4222 95.6839 49.3019C95.7575 49.1817 95.8723 49.0839 96.0285 49.0085C96.1846 48.9313 96.3875 48.8721 96.6369 48.8308C96.8326 48.7985 96.9816 48.7626 97.0839 48.7231C97.1862 48.6836 97.2553 48.6396 97.2912 48.5912C97.3271 48.5409 97.345 48.4781 97.345 48.4027C97.345 48.2878 97.3046 48.1999 97.2239 48.1389C97.1449 48.0778 97.0157 48.0473 96.8362 48.0473C96.4969 48.0473 96.2089 48.1882 95.9719 48.47H95.9181L95.6542 48.0823C95.7925 47.919 95.9639 47.7906 96.1685 47.6973C96.3749 47.604 96.6037 47.5573 96.855 47.5573C97.2266 47.5573 97.4976 47.6372 97.6681 47.7969C97.8404 47.9567 97.9266 48.181 97.9266 48.47V49.9023C97.9266 50.0513 97.9903 50.1258 98.1177 50.1258C98.1644 50.1258 98.2093 50.1177 98.2524 50.1016L98.29 50.1123L98.3412 50.5243C98.3053 50.5494 98.255 50.5691 98.1904 50.5835C98.1276 50.5979 98.0603 50.605 97.9885 50.605C97.818 50.605 97.687 50.57 97.5954 50.5C97.5057 50.43 97.4438 50.3232 97.4097 50.1796L97.3531 50.1743C97.2741 50.3304 97.1646 50.4471 97.0246 50.5243C96.8864 50.6014 96.7132 50.64 96.505 50.64ZM96.6719 50.185C96.8102 50.185 96.9313 50.1536 97.0354 50.0908C97.1395 50.0262 97.2194 49.9346 97.275 49.8162C97.3307 49.6977 97.3585 49.5586 97.3585 49.3989V49.0596L97.3073 49.0489C97.2517 49.0901 97.1817 49.1251 97.0973 49.1539C97.0148 49.1808 96.8963 49.2068 96.742 49.2319C96.5337 49.2625 96.3857 49.3172 96.2977 49.3962C96.2116 49.4734 96.1685 49.5828 96.1685 49.7246C96.1685 49.8754 96.2125 49.9903 96.3004 50.0693C96.3884 50.1464 96.5122 50.185 96.6719 50.185ZM101.249 50.64C101.012 50.64 100.802 50.5835 100.619 50.4704C100.438 50.3555 100.296 50.1832 100.194 49.9535C100.091 49.7237 100.04 49.4393 100.04 49.1C100.04 48.7608 100.093 48.4763 100.199 48.2465C100.307 48.015 100.454 47.8427 100.64 47.7296C100.829 47.6147 101.046 47.5573 101.292 47.5573C101.484 47.5573 101.654 47.5923 101.801 47.6623C101.948 47.7305 102.073 47.8409 102.175 47.9935L102.232 47.98V46.4211H102.824V50.5835H102.232V50.1743L102.175 50.1635C102.084 50.3071 101.961 50.4229 101.806 50.5108C101.652 50.597 101.466 50.64 101.249 50.64ZM101.437 50.1258C101.681 50.1258 101.875 50.0414 102.019 49.8727C102.163 49.7022 102.234 49.4446 102.234 49.1C102.234 48.7518 102.163 48.4933 102.019 48.3246C101.875 48.1541 101.681 48.0689 101.437 48.0689C100.915 48.0689 100.654 48.4126 100.654 49.1C100.654 49.7839 100.915 50.1258 101.437 50.1258ZM106.181 49.2319H104.205C104.239 49.8278 104.516 50.1258 105.034 50.1258C105.226 50.1258 105.381 50.0917 105.497 50.0235C105.616 49.9535 105.709 49.8458 105.777 49.7004H105.834L106.224 49.9427C106.133 50.1545 105.99 50.3241 105.796 50.4516C105.604 50.5772 105.35 50.64 105.034 50.64C104.738 50.64 104.482 50.5826 104.267 50.4677C104.052 50.3529 103.886 50.1805 103.769 49.9508C103.652 49.7211 103.594 49.4375 103.594 49.1C103.594 48.7626 103.655 48.4781 103.777 48.2465C103.899 48.015 104.066 47.8427 104.278 47.7296C104.49 47.6147 104.728 47.5573 104.994 47.5573C105.394 47.5573 105.703 47.6668 105.92 47.8858C106.139 48.1047 106.249 48.4269 106.251 48.8523C106.251 49.0121 106.247 49.1278 106.238 49.1996L106.181 49.2319ZM105.678 48.8092C105.671 48.5382 105.609 48.3408 105.492 48.2169C105.377 48.0931 105.211 48.0312 104.994 48.0312C104.775 48.0312 104.599 48.0931 104.466 48.2169C104.335 48.3408 104.253 48.5382 104.219 48.8092H105.678ZM107.869 50.64C107.676 50.64 107.496 50.6158 107.331 50.5673C107.168 50.5189 107.028 50.4525 106.914 50.3681C106.801 50.282 106.718 50.185 106.666 50.0773L107.002 49.7193H107.059C107.255 50.0011 107.526 50.142 107.872 50.142C108.053 50.142 108.191 50.1078 108.284 50.0396C108.379 49.9696 108.427 49.8727 108.427 49.7489C108.427 49.6519 108.395 49.5721 108.332 49.5093C108.271 49.4446 108.174 49.3962 108.039 49.3639L107.592 49.2535C107.312 49.1871 107.107 49.083 106.976 48.9412C106.846 48.7976 106.782 48.619 106.782 48.4054C106.782 48.2313 106.826 48.0805 106.914 47.9531C107.003 47.8256 107.13 47.7278 107.293 47.6596C107.457 47.5914 107.649 47.5573 107.869 47.5573C108.14 47.5573 108.358 47.5959 108.524 47.6731C108.691 47.7485 108.821 47.8526 108.914 47.9854L108.591 48.3219H108.537C108.449 48.2196 108.35 48.146 108.241 48.1012C108.133 48.0563 108.009 48.0339 107.869 48.0339C107.695 48.0339 107.564 48.0635 107.476 48.1227C107.388 48.1801 107.344 48.2645 107.344 48.3758C107.344 48.4745 107.377 48.5544 107.441 48.6154C107.506 48.6764 107.618 48.7258 107.778 48.7635L108.209 48.8631C108.489 48.9259 108.691 49.0282 108.817 49.17C108.945 49.3118 109.008 49.4967 109.008 49.7246C109.008 49.9059 108.964 50.0657 108.876 50.2039C108.788 50.3403 108.659 50.4471 108.489 50.5243C108.318 50.6014 108.112 50.64 107.869 50.64ZM110.012 47.1481C109.899 47.1481 109.807 47.1131 109.735 47.0431C109.663 46.9731 109.627 46.8833 109.627 46.7738C109.627 46.6661 109.663 46.5773 109.735 46.5073C109.807 46.4373 109.899 46.4023 110.012 46.4023C110.126 46.4023 110.218 46.4373 110.29 46.5073C110.363 46.5773 110.4 46.6661 110.4 46.7738C110.4 46.8833 110.364 46.9731 110.292 47.0431C110.221 47.1131 110.127 47.1481 110.012 47.1481ZM109.716 50.5835V47.6138H110.309V50.5835H109.716ZM112.317 51.8435C111.838 51.8435 111.486 51.7681 111.262 51.6174C111.037 51.4684 110.925 51.2656 110.925 51.0089C110.925 50.8473 110.975 50.7163 111.076 50.6158C111.176 50.5153 111.321 50.4462 111.509 50.4085V50.352C111.414 50.2963 111.344 50.2326 111.299 50.1608C111.255 50.0872 111.232 50.002 111.232 49.905C111.232 49.6735 111.382 49.5191 111.682 49.4419V49.3854C111.359 49.2077 111.197 48.9304 111.197 48.5535C111.197 48.3578 111.242 48.1846 111.332 48.0339C111.421 47.8831 111.551 47.7664 111.719 47.6838C111.888 47.5995 112.088 47.5573 112.32 47.5573C112.568 47.5573 112.77 47.6058 112.928 47.7027C113.032 47.5735 113.093 47.4146 113.109 47.2261L113.165 47.1911L113.612 47.2988C113.596 47.4442 113.553 47.5681 113.483 47.6704C113.413 47.7709 113.31 47.8562 113.173 47.9262V47.9854C113.351 48.1308 113.44 48.3363 113.44 48.6019C113.44 48.7868 113.394 48.9537 113.303 49.1027C113.213 49.2499 113.083 49.3657 112.912 49.45C112.743 49.5344 112.546 49.5766 112.32 49.5766C112.3 49.5766 112.258 49.5748 112.193 49.5712C112.121 49.5676 112.07 49.5658 112.04 49.5658C111.959 49.5658 111.895 49.5873 111.849 49.6304C111.802 49.6735 111.779 49.7282 111.779 49.7946C111.779 49.8718 111.806 49.9302 111.859 49.9696C111.915 50.0091 112.002 50.0316 112.121 50.037L112.804 50.0612C113.431 50.0809 113.744 50.3502 113.744 50.8689C113.744 51.0538 113.696 51.2189 113.599 51.3643C113.502 51.5115 113.346 51.6281 113.133 51.7143C112.921 51.8004 112.649 51.8435 112.317 51.8435ZM112.32 49.1269C112.496 49.1269 112.632 49.0785 112.729 48.9816C112.828 48.8846 112.877 48.7473 112.877 48.5696C112.877 48.3901 112.829 48.2519 112.732 48.155C112.635 48.0563 112.498 48.0069 112.32 48.0069C112.14 48.0069 112.003 48.0554 111.908 48.1523C111.813 48.2492 111.765 48.3883 111.765 48.5696C111.765 48.7473 111.813 48.8846 111.908 48.9816C112.003 49.0785 112.14 49.1269 112.32 49.1269ZM112.317 51.3858C112.606 51.3858 112.816 51.3418 112.947 51.2539C113.08 51.1677 113.146 51.0582 113.146 50.9254C113.146 50.8123 113.112 50.7307 113.044 50.6804C112.978 50.6302 112.865 50.6014 112.705 50.5943L112.08 50.562L111.981 50.5593C111.821 50.5611 111.702 50.5943 111.625 50.6589C111.548 50.7253 111.509 50.8159 111.509 50.9308C111.509 51.0798 111.577 51.1929 111.711 51.27C111.846 51.3472 112.048 51.3858 112.317 51.3858ZM114.326 50.5835V47.6138H114.891V48.0635L114.948 48.0769C115.043 47.9064 115.166 47.7772 115.316 47.6892C115.467 47.6013 115.651 47.5573 115.868 47.5573C116.218 47.5573 116.473 47.6497 116.633 47.8346C116.794 48.0177 116.875 48.2932 116.875 48.6612V50.5835H116.283V48.7123C116.283 48.4808 116.237 48.3148 116.146 48.2142C116.054 48.1137 115.907 48.0635 115.704 48.0635C115.462 48.0635 115.27 48.1424 115.128 48.3004C114.988 48.4583 114.918 48.7087 114.918 49.0516V50.5835H114.326Z" fill="white"/>
<path d="M79.1909 30.39C79.1374 30.39 79.0885 30.4246 79.0633 30.4971C78.7404 31.4187 78.304 31.9669 77.9448 31.9669C77.7384 31.9669 77.6549 31.7369 77.6549 31.3762C77.6549 30.4735 78.1953 28.5593 78.4678 27.6866C78.4993 27.581 78.5198 27.4865 78.5198 27.4062C78.5198 27.1525 78.3812 27.0281 78.0377 27.0281C77.6675 27.0281 77.2689 27.173 76.8814 27.852C76.7475 27.2533 76.3426 26.9918 75.777 26.9918C75.1232 26.9918 74.4915 27.4125 73.9716 28.0946C73.4517 28.7768 72.8405 29.0005 72.3805 28.8902C72.7113 28.0804 72.8342 27.4755 72.8342 27.0265C72.8342 26.3223 72.486 25.8969 71.9236 25.8969C71.0682 25.8969 70.5751 26.713 70.5751 27.5716C70.5751 28.2348 70.876 28.917 71.5376 29.2478C70.9831 30.5018 70.1733 31.6361 69.8661 31.6361C69.4691 31.6361 69.3525 29.6936 69.3746 28.3041C69.3888 27.507 69.4549 27.466 69.4549 27.225C69.4549 27.0863 69.3651 26.9918 69.0044 26.9918C68.1631 26.9918 67.9032 27.7039 67.8638 28.5215C67.8512 28.8319 67.8023 29.1407 67.7188 29.44C67.3675 30.694 66.6428 31.6456 66.1702 31.6456C65.9512 31.6456 65.8914 31.4266 65.8914 31.1399C65.8914 30.2371 66.3971 29.1092 66.3971 28.1466C66.3971 27.4392 66.0867 26.9918 65.5023 26.9918C64.8138 26.9918 63.9032 27.811 63.0415 29.3455C63.325 28.1702 63.4416 27.0328 62.6019 27.0328C62.4192 27.0359 62.2412 27.0816 62.0805 27.1683C61.9702 27.2203 61.9025 27.3337 61.9103 27.455C61.9907 28.7059 60.9021 31.9102 59.8702 31.9102C59.6827 31.9102 59.5913 31.707 59.5913 31.3793C59.5913 30.475 60.1301 28.5656 60.4011 27.6913C60.4358 27.5779 60.4547 27.4802 60.4547 27.3951C60.4547 27.1557 60.3066 27.0328 59.971 27.0328C59.6024 27.0328 59.2022 27.173 58.8162 27.852C58.6808 27.2533 58.2759 26.9918 57.7103 26.9918C56.7824 26.9918 55.7458 27.9733 55.2905 29.2525C54.6808 30.9603 53.452 32.6097 51.7978 32.6097C50.2965 32.6097 49.504 31.3604 49.504 29.3864C49.504 26.5365 51.5962 24.2081 53.1479 24.2081C53.89 24.2081 54.2444 24.6807 54.2444 25.4054C54.2444 26.2829 53.7545 26.6909 53.7545 27.0249C53.7545 27.1273 53.8395 27.2281 54.0081 27.2281C54.6824 27.2281 55.4764 26.4357 55.4764 25.355C55.4764 24.2743 54.5989 23.4834 53.0471 23.4834C50.4824 23.4834 47.9019 26.0639 47.9019 29.3707C47.9019 32.0016 49.2 33.588 51.4449 33.588C52.9762 33.588 54.3137 32.397 55.0353 31.0075C55.1172 32.1591 55.6402 32.7609 56.4374 32.7609C57.1463 32.7609 57.7198 32.3387 58.1577 31.5967C58.3263 32.3734 58.7737 32.7531 59.355 32.7531C60.0214 32.7531 60.5791 32.3309 61.11 31.5463C61.1022 32.1623 61.2424 32.742 61.7764 32.742C62.0285 32.742 62.3294 32.6837 62.383 32.4632C62.9454 30.1379 64.3349 28.2395 64.7602 28.2395C64.8863 28.2395 64.9209 28.3608 64.9209 28.5042C64.9209 29.1359 64.4751 30.4309 64.4751 31.258C64.4751 32.1513 64.8548 32.742 65.6393 32.742C66.5089 32.742 67.3927 31.6771 67.9819 30.1206C68.1663 31.5747 68.5648 32.7483 69.1887 32.7483C69.9543 32.7483 71.3139 31.1367 72.1379 29.4305C72.4608 29.4715 72.946 29.4605 73.4124 29.1312C73.2139 29.6338 73.0973 30.1836 73.0973 30.7334C73.0973 32.3167 73.8535 32.7609 74.5041 32.7609C75.2115 32.7609 75.7849 32.3387 76.2244 31.5967C76.3694 32.2663 76.7396 32.7515 77.4202 32.7515C78.4851 32.7515 79.4099 31.6629 79.4099 30.7696C79.4099 30.5333 79.3091 30.39 79.1909 30.39ZM57.0865 31.8834C56.6564 31.8834 56.4878 31.4502 56.4878 30.8043C56.4878 29.6826 57.255 27.8095 58.0664 27.8095C58.4208 27.8095 58.5547 28.2269 58.5547 28.7374C58.5547 29.8764 57.8253 31.8834 57.0865 31.8834ZM71.818 28.5357C71.5613 28.2301 71.4683 27.8142 71.4683 27.444C71.4683 26.9871 71.6353 26.6011 71.8354 26.6011C72.0354 26.6011 72.0969 26.798 72.0969 27.0722C72.0969 27.5306 71.933 28.2002 71.818 28.5357ZM75.1532 31.8834C74.7231 31.8834 74.5545 31.3856 74.5545 30.8043C74.5545 29.722 75.3217 27.8095 76.1394 27.8095C76.4938 27.8095 76.6199 28.2238 76.6199 28.7374C76.6199 29.8764 75.9031 31.8834 75.1532 31.8834Z" fill="#7D2AE7"/>
<path d="M79.1909 30.39C79.1374 30.39 79.0885 30.4246 79.0633 30.4971C78.7404 31.4187 78.304 31.9669 77.9448 31.9669C77.7384 31.9669 77.6549 31.7369 77.6549 31.3762C77.6549 30.4735 78.1953 28.5593 78.4678 27.6866C78.4993 27.581 78.5198 27.4865 78.5198 27.4062C78.5198 27.1525 78.3812 27.0281 78.0377 27.0281C77.6675 27.0281 77.2689 27.173 76.8814 27.852C76.7475 27.2533 76.3426 26.9918 75.777 26.9918C75.1232 26.9918 74.4915 27.4125 73.9716 28.0946C73.4517 28.7768 72.8405 29.0005 72.3805 28.8902C72.7113 28.0804 72.8342 27.4755 72.8342 27.0265C72.8342 26.3223 72.486 25.8969 71.9236 25.8969C71.0682 25.8969 70.5751 26.713 70.5751 27.5716C70.5751 28.2348 70.876 28.917 71.5376 29.2478C70.9831 30.5018 70.1733 31.6361 69.8661 31.6361C69.4691 31.6361 69.3525 29.6936 69.3746 28.3041C69.3888 27.507 69.4549 27.466 69.4549 27.225C69.4549 27.0863 69.3651 26.9918 69.0044 26.9918C68.1631 26.9918 67.9032 27.7039 67.8638 28.5215C67.8512 28.8319 67.8023 29.1407 67.7188 29.44C67.3675 30.694 66.6428 31.6456 66.1702 31.6456C65.9512 31.6456 65.8914 31.4266 65.8914 31.1399C65.8914 30.2371 66.3971 29.1092 66.3971 28.1466C66.3971 27.4392 66.0867 26.9918 65.5023 26.9918C64.8138 26.9918 63.9032 27.811 63.0415 29.3455C63.325 28.1702 63.4416 27.0328 62.6019 27.0328C62.4192 27.0359 62.2412 27.0816 62.0805 27.1683C61.9702 27.2203 61.9025 27.3337 61.9103 27.455C61.9907 28.7059 60.9021 31.9102 59.8702 31.9102C59.6827 31.9102 59.5913 31.707 59.5913 31.3793C59.5913 30.475 60.1301 28.5656 60.4011 27.6913C60.4358 27.5779 60.4547 27.4802 60.4547 27.3951C60.4547 27.1557 60.3066 27.0328 59.971 27.0328C59.6024 27.0328 59.2022 27.173 58.8162 27.852C58.6808 27.2533 58.2759 26.9918 57.7103 26.9918C56.7824 26.9918 55.7458 27.9733 55.2905 29.2525C54.6808 30.9603 53.452 32.6097 51.7978 32.6097C50.2965 32.6097 49.504 31.3604 49.504 29.3864C49.504 26.5365 51.5962 24.2081 53.1479 24.2081C53.89 24.2081 54.2444 24.6807 54.2444 25.4054C54.2444 26.2829 53.7545 26.6909 53.7545 27.0249C53.7545 27.1273 53.8395 27.2281 54.0081 27.2281C54.6824 27.2281 55.4764 26.4357 55.4764 25.355C55.4764 24.2743 54.5989 23.4834 53.0471 23.4834C50.4824 23.4834 47.9019 26.0639 47.9019 29.3707C47.9019 32.0016 49.2 33.588 51.4449 33.588C52.9762 33.588 54.3137 32.397 55.0353 31.0075C55.1172 32.1591 55.6402 32.7609 56.4374 32.7609C57.1463 32.7609 57.7198 32.3387 58.1577 31.5967C58.3263 32.3734 58.7737 32.7531 59.355 32.7531C60.0214 32.7531 60.5791 32.3309 61.11 31.5463C61.1022 32.1623 61.2424 32.742 61.7764 32.742C62.0285 32.742 62.3294 32.6837 62.383 32.4632C62.9454 30.1379 64.3349 28.2395 64.7602 28.2395C64.8863 28.2395 64.9209 28.3608 64.9209 28.5042C64.9209 29.1359 64.4751 30.4309 64.4751 31.258C64.4751 32.1513 64.8548 32.742 65.6393 32.742C66.5089 32.742 67.3927 31.6771 67.9819 30.1206C68.1663 31.5747 68.5648 32.7483 69.1887 32.7483C69.9543 32.7483 71.3139 31.1367 72.1379 29.4305C72.4608 29.4715 72.946 29.4605 73.4124 29.1312C73.2139 29.6338 73.0973 30.1836 73.0973 30.7334C73.0973 32.3167 73.8535 32.7609 74.5041 32.7609C75.2115 32.7609 75.7849 32.3387 76.2244 31.5967C76.3694 32.2663 76.7396 32.7515 77.4202 32.7515C78.4851 32.7515 79.4099 31.6629 79.4099 30.7696C79.4099 30.5333 79.3091 30.39 79.1909 30.39ZM57.0865 31.8834C56.6564 31.8834 56.4878 31.4502 56.4878 30.8043C56.4878 29.6826 57.255 27.8095 58.0664 27.8095C58.4208 27.8095 58.5547 28.2269 58.5547 28.7374C58.5547 29.8764 57.8253 31.8834 57.0865 31.8834ZM71.818 28.5357C71.5613 28.2301 71.4683 27.8142 71.4683 27.444C71.4683 26.9871 71.6353 26.6011 71.8354 26.6011C72.0354 26.6011 72.0969 26.798 72.0969 27.0722C72.0969 27.5306 71.933 28.2002 71.818 28.5357ZM75.1532 31.8834C74.7231 31.8834 74.5545 31.3856 74.5545 30.8043C74.5545 29.722 75.3217 27.8095 76.1394 27.8095C76.4938 27.8095 76.6199 28.2238 76.6199 28.7374C76.6199 29.8764 75.9031 31.8834 75.1532 31.8834Z" fill="url(#paint1_radial_6839_89836)"/>
<path d="M79.1909 30.39C79.1374 30.39 79.0885 30.4246 79.0633 30.4971C78.7404 31.4187 78.304 31.9669 77.9448 31.9669C77.7384 31.9669 77.6549 31.7369 77.6549 31.3762C77.6549 30.4735 78.1953 28.5593 78.4678 27.6866C78.4993 27.581 78.5198 27.4865 78.5198 27.4062C78.5198 27.1525 78.3812 27.0281 78.0377 27.0281C77.6675 27.0281 77.2689 27.173 76.8814 27.852C76.7475 27.2533 76.3426 26.9918 75.777 26.9918C75.1232 26.9918 74.4915 27.4125 73.9716 28.0946C73.4517 28.7768 72.8405 29.0005 72.3805 28.8902C72.7113 28.0804 72.8342 27.4755 72.8342 27.0265C72.8342 26.3223 72.486 25.8969 71.9236 25.8969C71.0682 25.8969 70.5751 26.713 70.5751 27.5716C70.5751 28.2348 70.876 28.917 71.5376 29.2478C70.9831 30.5018 70.1733 31.6361 69.8661 31.6361C69.4691 31.6361 69.3525 29.6936 69.3746 28.3041C69.3888 27.507 69.4549 27.466 69.4549 27.225C69.4549 27.0863 69.3651 26.9918 69.0044 26.9918C68.1631 26.9918 67.9032 27.7039 67.8638 28.5215C67.8512 28.8319 67.8023 29.1407 67.7188 29.44C67.3675 30.694 66.6428 31.6456 66.1702 31.6456C65.9512 31.6456 65.8914 31.4266 65.8914 31.1399C65.8914 30.2371 66.3971 29.1092 66.3971 28.1466C66.3971 27.4392 66.0867 26.9918 65.5023 26.9918C64.8138 26.9918 63.9032 27.811 63.0415 29.3455C63.325 28.1702 63.4416 27.0328 62.6019 27.0328C62.4192 27.0359 62.2412 27.0816 62.0805 27.1683C61.9702 27.2203 61.9025 27.3337 61.9103 27.455C61.9907 28.7059 60.9021 31.9102 59.8702 31.9102C59.6827 31.9102 59.5913 31.707 59.5913 31.3793C59.5913 30.475 60.1301 28.5656 60.4011 27.6913C60.4358 27.5779 60.4547 27.4802 60.4547 27.3951C60.4547 27.1557 60.3066 27.0328 59.971 27.0328C59.6024 27.0328 59.2022 27.173 58.8162 27.852C58.6808 27.2533 58.2759 26.9918 57.7103 26.9918C56.7824 26.9918 55.7458 27.9733 55.2905 29.2525C54.6808 30.9603 53.452 32.6097 51.7978 32.6097C50.2965 32.6097 49.504 31.3604 49.504 29.3864C49.504 26.5365 51.5962 24.2081 53.1479 24.2081C53.89 24.2081 54.2444 24.6807 54.2444 25.4054C54.2444 26.2829 53.7545 26.6909 53.7545 27.0249C53.7545 27.1273 53.8395 27.2281 54.0081 27.2281C54.6824 27.2281 55.4764 26.4357 55.4764 25.355C55.4764 24.2743 54.5989 23.4834 53.0471 23.4834C50.4824 23.4834 47.9019 26.0639 47.9019 29.3707C47.9019 32.0016 49.2 33.588 51.4449 33.588C52.9762 33.588 54.3137 32.397 55.0353 31.0075C55.1172 32.1591 55.6402 32.7609 56.4374 32.7609C57.1463 32.7609 57.7198 32.3387 58.1577 31.5967C58.3263 32.3734 58.7737 32.7531 59.355 32.7531C60.0214 32.7531 60.5791 32.3309 61.11 31.5463C61.1022 32.1623 61.2424 32.742 61.7764 32.742C62.0285 32.742 62.3294 32.6837 62.383 32.4632C62.9454 30.1379 64.3349 28.2395 64.7602 28.2395C64.8863 28.2395 64.9209 28.3608 64.9209 28.5042C64.9209 29.1359 64.4751 30.4309 64.4751 31.258C64.4751 32.1513 64.8548 32.742 65.6393 32.742C66.5089 32.742 67.3927 31.6771 67.9819 30.1206C68.1663 31.5747 68.5648 32.7483 69.1887 32.7483C69.9543 32.7483 71.3139 31.1367 72.1379 29.4305C72.4608 29.4715 72.946 29.4605 73.4124 29.1312C73.2139 29.6338 73.0973 30.1836 73.0973 30.7334C73.0973 32.3167 73.8535 32.7609 74.5041 32.7609C75.2115 32.7609 75.7849 32.3387 76.2244 31.5967C76.3694 32.2663 76.7396 32.7515 77.4202 32.7515C78.4851 32.7515 79.4099 31.6629 79.4099 30.7696C79.4099 30.5333 79.3091 30.39 79.1909 30.39ZM57.0865 31.8834C56.6564 31.8834 56.4878 31.4502 56.4878 30.8043C56.4878 29.6826 57.255 27.8095 58.0664 27.8095C58.4208 27.8095 58.5547 28.2269 58.5547 28.7374C58.5547 29.8764 57.8253 31.8834 57.0865 31.8834ZM71.818 28.5357C71.5613 28.2301 71.4683 27.8142 71.4683 27.444C71.4683 26.9871 71.6353 26.6011 71.8354 26.6011C72.0354 26.6011 72.0969 26.798 72.0969 27.0722C72.0969 27.5306 71.933 28.2002 71.818 28.5357ZM75.1532 31.8834C74.7231 31.8834 74.5545 31.3856 74.5545 30.8043C74.5545 29.722 75.3217 27.8095 76.1394 27.8095C76.4938 27.8095 76.6199 28.2238 76.6199 28.7374C76.6199 29.8764 75.9031 31.8834 75.1532 31.8834Z" fill="url(#paint2_radial_6839_89836)"/>
<path d="M79.1909 30.39C79.1374 30.39 79.0885 30.4246 79.0633 30.4971C78.7404 31.4187 78.304 31.9669 77.9448 31.9669C77.7384 31.9669 77.6549 31.7369 77.6549 31.3762C77.6549 30.4735 78.1953 28.5593 78.4678 27.6866C78.4993 27.581 78.5198 27.4865 78.5198 27.4062C78.5198 27.1525 78.3812 27.0281 78.0377 27.0281C77.6675 27.0281 77.2689 27.173 76.8814 27.852C76.7475 27.2533 76.3426 26.9918 75.777 26.9918C75.1232 26.9918 74.4915 27.4125 73.9716 28.0946C73.4517 28.7768 72.8405 29.0005 72.3805 28.8902C72.7113 28.0804 72.8342 27.4755 72.8342 27.0265C72.8342 26.3223 72.486 25.8969 71.9236 25.8969C71.0682 25.8969 70.5751 26.713 70.5751 27.5716C70.5751 28.2348 70.876 28.917 71.5376 29.2478C70.9831 30.5018 70.1733 31.6361 69.8661 31.6361C69.4691 31.6361 69.3525 29.6936 69.3746 28.3041C69.3888 27.507 69.4549 27.466 69.4549 27.225C69.4549 27.0863 69.3651 26.9918 69.0044 26.9918C68.1631 26.9918 67.9032 27.7039 67.8638 28.5215C67.8512 28.8319 67.8023 29.1407 67.7188 29.44C67.3675 30.694 66.6428 31.6456 66.1702 31.6456C65.9512 31.6456 65.8914 31.4266 65.8914 31.1399C65.8914 30.2371 66.3971 29.1092 66.3971 28.1466C66.3971 27.4392 66.0867 26.9918 65.5023 26.9918C64.8138 26.9918 63.9032 27.811 63.0415 29.3455C63.325 28.1702 63.4416 27.0328 62.6019 27.0328C62.4192 27.0359 62.2412 27.0816 62.0805 27.1683C61.9702 27.2203 61.9025 27.3337 61.9103 27.455C61.9907 28.7059 60.9021 31.9102 59.8702 31.9102C59.6827 31.9102 59.5913 31.707 59.5913 31.3793C59.5913 30.475 60.1301 28.5656 60.4011 27.6913C60.4358 27.5779 60.4547 27.4802 60.4547 27.3951C60.4547 27.1557 60.3066 27.0328 59.971 27.0328C59.6024 27.0328 59.2022 27.173 58.8162 27.852C58.6808 27.2533 58.2759 26.9918 57.7103 26.9918C56.7824 26.9918 55.7458 27.9733 55.2905 29.2525C54.6808 30.9603 53.452 32.6097 51.7978 32.6097C50.2965 32.6097 49.504 31.3604 49.504 29.3864C49.504 26.5365 51.5962 24.2081 53.1479 24.2081C53.89 24.2081 54.2444 24.6807 54.2444 25.4054C54.2444 26.2829 53.7545 26.6909 53.7545 27.0249C53.7545 27.1273 53.8395 27.2281 54.0081 27.2281C54.6824 27.2281 55.4764 26.4357 55.4764 25.355C55.4764 24.2743 54.5989 23.4834 53.0471 23.4834C50.4824 23.4834 47.9019 26.0639 47.9019 29.3707C47.9019 32.0016 49.2 33.588 51.4449 33.588C52.9762 33.588 54.3137 32.397 55.0353 31.0075C55.1172 32.1591 55.6402 32.7609 56.4374 32.7609C57.1463 32.7609 57.7198 32.3387 58.1577 31.5967C58.3263 32.3734 58.7737 32.7531 59.355 32.7531C60.0214 32.7531 60.5791 32.3309 61.11 31.5463C61.1022 32.1623 61.2424 32.742 61.7764 32.742C62.0285 32.742 62.3294 32.6837 62.383 32.4632C62.9454 30.1379 64.3349 28.2395 64.7602 28.2395C64.8863 28.2395 64.9209 28.3608 64.9209 28.5042C64.9209 29.1359 64.4751 30.4309 64.4751 31.258C64.4751 32.1513 64.8548 32.742 65.6393 32.742C66.5089 32.742 67.3927 31.6771 67.9819 30.1206C68.1663 31.5747 68.5648 32.7483 69.1887 32.7483C69.9543 32.7483 71.3139 31.1367 72.1379 29.4305C72.4608 29.4715 72.946 29.4605 73.4124 29.1312C73.2139 29.6338 73.0973 30.1836 73.0973 30.7334C73.0973 32.3167 73.8535 32.7609 74.5041 32.7609C75.2115 32.7609 75.7849 32.3387 76.2244 31.5967C76.3694 32.2663 76.7396 32.7515 77.4202 32.7515C78.4851 32.7515 79.4099 31.6629 79.4099 30.7696C79.4099 30.5333 79.3091 30.39 79.1909 30.39ZM57.0865 31.8834C56.6564 31.8834 56.4878 31.4502 56.4878 30.8043C56.4878 29.6826 57.255 27.8095 58.0664 27.8095C58.4208 27.8095 58.5547 28.2269 58.5547 28.7374C58.5547 29.8764 57.8253 31.8834 57.0865 31.8834ZM71.818 28.5357C71.5613 28.2301 71.4683 27.8142 71.4683 27.444C71.4683 26.9871 71.6353 26.6011 71.8354 26.6011C72.0354 26.6011 72.0969 26.798 72.0969 27.0722C72.0969 27.5306 71.933 28.2002 71.818 28.5357ZM75.1532 31.8834C74.7231 31.8834 74.5545 31.3856 74.5545 30.8043C74.5545 29.722 75.3217 27.8095 76.1394 27.8095C76.4938 27.8095 76.6199 28.2238 76.6199 28.7374C76.6199 29.8764 75.9031 31.8834 75.1532 31.8834Z" fill="url(#paint3_radial_6839_89836)"/>
<path d="M79.1909 30.39C79.1374 30.39 79.0885 30.4246 79.0633 30.4971C78.7404 31.4187 78.304 31.9669 77.9448 31.9669C77.7384 31.9669 77.6549 31.7369 77.6549 31.3762C77.6549 30.4735 78.1953 28.5593 78.4678 27.6866C78.4993 27.581 78.5198 27.4865 78.5198 27.4062C78.5198 27.1525 78.3812 27.0281 78.0377 27.0281C77.6675 27.0281 77.2689 27.173 76.8814 27.852C76.7475 27.2533 76.3426 26.9918 75.777 26.9918C75.1232 26.9918 74.4915 27.4125 73.9716 28.0946C73.4517 28.7768 72.8405 29.0005 72.3805 28.8902C72.7113 28.0804 72.8342 27.4755 72.8342 27.0265C72.8342 26.3223 72.486 25.8969 71.9236 25.8969C71.0682 25.8969 70.5751 26.713 70.5751 27.5716C70.5751 28.2348 70.876 28.917 71.5376 29.2478C70.9831 30.5018 70.1733 31.6361 69.8661 31.6361C69.4691 31.6361 69.3525 29.6936 69.3746 28.3041C69.3888 27.507 69.4549 27.466 69.4549 27.225C69.4549 27.0863 69.3651 26.9918 69.0044 26.9918C68.1631 26.9918 67.9032 27.7039 67.8638 28.5215C67.8512 28.8319 67.8023 29.1407 67.7188 29.44C67.3675 30.694 66.6428 31.6456 66.1702 31.6456C65.9512 31.6456 65.8914 31.4266 65.8914 31.1399C65.8914 30.2371 66.3971 29.1092 66.3971 28.1466C66.3971 27.4392 66.0867 26.9918 65.5023 26.9918C64.8138 26.9918 63.9032 27.811 63.0415 29.3455C63.325 28.1702 63.4416 27.0328 62.6019 27.0328C62.4192 27.0359 62.2412 27.0816 62.0805 27.1683C61.9702 27.2203 61.9025 27.3337 61.9103 27.455C61.9907 28.7059 60.9021 31.9102 59.8702 31.9102C59.6827 31.9102 59.5913 31.707 59.5913 31.3793C59.5913 30.475 60.1301 28.5656 60.4011 27.6913C60.4358 27.5779 60.4547 27.4802 60.4547 27.3951C60.4547 27.1557 60.3066 27.0328 59.971 27.0328C59.6024 27.0328 59.2022 27.173 58.8162 27.852C58.6808 27.2533 58.2759 26.9918 57.7103 26.9918C56.7824 26.9918 55.7458 27.9733 55.2905 29.2525C54.6808 30.9603 53.452 32.6097 51.7978 32.6097C50.2965 32.6097 49.504 31.3604 49.504 29.3864C49.504 26.5365 51.5962 24.2081 53.1479 24.2081C53.89 24.2081 54.2444 24.6807 54.2444 25.4054C54.2444 26.2829 53.7545 26.6909 53.7545 27.0249C53.7545 27.1273 53.8395 27.2281 54.0081 27.2281C54.6824 27.2281 55.4764 26.4357 55.4764 25.355C55.4764 24.2743 54.5989 23.4834 53.0471 23.4834C50.4824 23.4834 47.9019 26.0639 47.9019 29.3707C47.9019 32.0016 49.2 33.588 51.4449 33.588C52.9762 33.588 54.3137 32.397 55.0353 31.0075C55.1172 32.1591 55.6402 32.7609 56.4374 32.7609C57.1463 32.7609 57.7198 32.3387 58.1577 31.5967C58.3263 32.3734 58.7737 32.7531 59.355 32.7531C60.0214 32.7531 60.5791 32.3309 61.11 31.5463C61.1022 32.1623 61.2424 32.742 61.7764 32.742C62.0285 32.742 62.3294 32.6837 62.383 32.4632C62.9454 30.1379 64.3349 28.2395 64.7602 28.2395C64.8863 28.2395 64.9209 28.3608 64.9209 28.5042C64.9209 29.1359 64.4751 30.4309 64.4751 31.258C64.4751 32.1513 64.8548 32.742 65.6393 32.742C66.5089 32.742 67.3927 31.6771 67.9819 30.1206C68.1663 31.5747 68.5648 32.7483 69.1887 32.7483C69.9543 32.7483 71.3139 31.1367 72.1379 29.4305C72.4608 29.4715 72.946 29.4605 73.4124 29.1312C73.2139 29.6338 73.0973 30.1836 73.0973 30.7334C73.0973 32.3167 73.8535 32.7609 74.5041 32.7609C75.2115 32.7609 75.7849 32.3387 76.2244 31.5967C76.3694 32.2663 76.7396 32.7515 77.4202 32.7515C78.4851 32.7515 79.4099 31.6629 79.4099 30.7696C79.4099 30.5333 79.3091 30.39 79.1909 30.39ZM57.0865 31.8834C56.6564 31.8834 56.4878 31.4502 56.4878 30.8043C56.4878 29.6826 57.255 27.8095 58.0664 27.8095C58.4208 27.8095 58.5547 28.2269 58.5547 28.7374C58.5547 29.8764 57.8253 31.8834 57.0865 31.8834ZM71.818 28.5357C71.5613 28.2301 71.4683 27.8142 71.4683 27.444C71.4683 26.9871 71.6353 26.6011 71.8354 26.6011C72.0354 26.6011 72.0969 26.798 72.0969 27.0722C72.0969 27.5306 71.933 28.2002 71.818 28.5357ZM75.1532 31.8834C74.7231 31.8834 74.5545 31.3856 74.5545 30.8043C74.5545 29.722 75.3217 27.8095 76.1394 27.8095C76.4938 27.8095 76.6199 28.2238 76.6199 28.7374C76.6199 29.8764 75.9031 31.8834 75.1532 31.8834Z" fill="url(#paint4_radial_6839_89836)"/>
<path d="M79.1909 30.39C79.1374 30.39 79.0885 30.4246 79.0633 30.4971C78.7404 31.4187 78.304 31.9669 77.9448 31.9669C77.7384 31.9669 77.6549 31.7369 77.6549 31.3762C77.6549 30.4735 78.1953 28.5593 78.4678 27.6866C78.4993 27.581 78.5198 27.4865 78.5198 27.4062C78.5198 27.1525 78.3812 27.0281 78.0377 27.0281C77.6675 27.0281 77.2689 27.173 76.8814 27.852C76.7475 27.2533 76.3426 26.9918 75.777 26.9918C75.1232 26.9918 74.4915 27.4125 73.9716 28.0946C73.4517 28.7768 72.8405 29.0005 72.3805 28.8902C72.7113 28.0804 72.8342 27.4755 72.8342 27.0265C72.8342 26.3223 72.486 25.8969 71.9236 25.8969C71.0682 25.8969 70.5751 26.713 70.5751 27.5716C70.5751 28.2348 70.876 28.917 71.5376 29.2478C70.9831 30.5018 70.1733 31.6361 69.8661 31.6361C69.4691 31.6361 69.3525 29.6936 69.3746 28.3041C69.3888 27.507 69.4549 27.466 69.4549 27.225C69.4549 27.0863 69.3651 26.9918 69.0044 26.9918C68.1631 26.9918 67.9032 27.7039 67.8638 28.5215C67.8512 28.8319 67.8023 29.1407 67.7188 29.44C67.3675 30.694 66.6428 31.6456 66.1702 31.6456C65.9512 31.6456 65.8914 31.4266 65.8914 31.1399C65.8914 30.2371 66.3971 29.1092 66.3971 28.1466C66.3971 27.4392 66.0867 26.9918 65.5023 26.9918C64.8138 26.9918 63.9032 27.811 63.0415 29.3455C63.325 28.1702 63.4416 27.0328 62.6019 27.0328C62.4192 27.0359 62.2412 27.0816 62.0805 27.1683C61.9702 27.2203 61.9025 27.3337 61.9103 27.455C61.9907 28.7059 60.9021 31.9102 59.8702 31.9102C59.6827 31.9102 59.5913 31.707 59.5913 31.3793C59.5913 30.475 60.1301 28.5656 60.4011 27.6913C60.4358 27.5779 60.4547 27.4802 60.4547 27.3951C60.4547 27.1557 60.3066 27.0328 59.971 27.0328C59.6024 27.0328 59.2022 27.173 58.8162 27.852C58.6808 27.2533 58.2759 26.9918 57.7103 26.9918C56.7824 26.9918 55.7458 27.9733 55.2905 29.2525C54.6808 30.9603 53.452 32.6097 51.7978 32.6097C50.2965 32.6097 49.504 31.3604 49.504 29.3864C49.504 26.5365 51.5962 24.2081 53.1479 24.2081C53.89 24.2081 54.2444 24.6807 54.2444 25.4054C54.2444 26.2829 53.7545 26.6909 53.7545 27.0249C53.7545 27.1273 53.8395 27.2281 54.0081 27.2281C54.6824 27.2281 55.4764 26.4357 55.4764 25.355C55.4764 24.2743 54.5989 23.4834 53.0471 23.4834C50.4824 23.4834 47.9019 26.0639 47.9019 29.3707C47.9019 32.0016 49.2 33.588 51.4449 33.588C52.9762 33.588 54.3137 32.397 55.0353 31.0075C55.1172 32.1591 55.6402 32.7609 56.4374 32.7609C57.1463 32.7609 57.7198 32.3387 58.1577 31.5967C58.3263 32.3734 58.7737 32.7531 59.355 32.7531C60.0214 32.7531 60.5791 32.3309 61.11 31.5463C61.1022 32.1623 61.2424 32.742 61.7764 32.742C62.0285 32.742 62.3294 32.6837 62.383 32.4632C62.9454 30.1379 64.3349 28.2395 64.7602 28.2395C64.8863 28.2395 64.9209 28.3608 64.9209 28.5042C64.9209 29.1359 64.4751 30.4309 64.4751 31.258C64.4751 32.1513 64.8548 32.742 65.6393 32.742C66.5089 32.742 67.3927 31.6771 67.9819 30.1206C68.1663 31.5747 68.5648 32.7483 69.1887 32.7483C69.9543 32.7483 71.3139 31.1367 72.1379 29.4305C72.4608 29.4715 72.946 29.4605 73.4124 29.1312C73.2139 29.6338 73.0973 30.1836 73.0973 30.7334C73.0973 32.3167 73.8535 32.7609 74.5041 32.7609C75.2115 32.7609 75.7849 32.3387 76.2244 31.5967C76.3694 32.2663 76.7396 32.7515 77.4202 32.7515C78.4851 32.7515 79.4099 31.6629 79.4099 30.7696C79.4099 30.5333 79.3091 30.39 79.1909 30.39ZM57.0865 31.8834C56.6564 31.8834 56.4878 31.4502 56.4878 30.8043C56.4878 29.6826 57.255 27.8095 58.0664 27.8095C58.4208 27.8095 58.5547 28.2269 58.5547 28.7374C58.5547 29.8764 57.8253 31.8834 57.0865 31.8834ZM71.818 28.5357C71.5613 28.2301 71.4683 27.8142 71.4683 27.444C71.4683 26.9871 71.6353 26.6011 71.8354 26.6011C72.0354 26.6011 72.0969 26.798 72.0969 27.0722C72.0969 27.5306 71.933 28.2002 71.818 28.5357ZM75.1532 31.8834C74.7231 31.8834 74.5545 31.3856 74.5545 30.8043C74.5545 29.722 75.3217 27.8095 76.1394 27.8095C76.4938 27.8095 76.6199 28.2238 76.6199 28.7374C76.6199 29.8764 75.9031 31.8834 75.1532 31.8834Z" fill="url(#paint5_radial_6839_89836)"/>
</g>
<mask id="path-34-outside-1_6839_89836" maskUnits="userSpaceOnUse" x="16" y="16" width="26" height="303" fill="black">
<rect fill="white" x="16" y="16" width="26" height="303"/>
<path d="M16 16H41.6003V318.477H16V16Z"/>
</mask>
<path d="M41.2064 16V318.477H41.9941V16H41.2064Z" fill="#4A2E7E" fill-opacity="0.15" mask="url(#path-34-outside-1_6839_89836)"/>
<rect opacity="0.1" x="23.877" y="23.877" width="9.45242" height="9.45242" rx="3.15081" fill="#4A2E7E"/>
<rect x="19.9385" y="36.4805" width="17.7233" height="3.15081" rx="1.5754" fill="#394C60" fill-opacity="0.15"/>
<rect opacity="0.1" x="23.877" y="52.2344" width="9.45242" height="9.45242" rx="3.15081" fill="#4A2E7E"/>
<rect x="19.9385" y="64.8374" width="17.7233" height="3.15081" rx="1.5754" fill="#394C60" fill-opacity="0.15"/>
<rect opacity="0.1" x="23.877" y="80.5913" width="9.45242" height="9.45242" rx="3.15081" fill="#4A2E7E"/>
<rect x="19.9385" y="93.1948" width="17.7233" height="3.15081" rx="1.5754" fill="#394C60" fill-opacity="0.15"/>
<rect opacity="0.1" x="23.877" y="108.949" width="9.45242" height="9.45242" rx="3.15081" fill="#4A2E7E"/>
<rect x="19.9385" y="121.552" width="17.7233" height="3.15081" rx="1.5754" fill="#394C60" fill-opacity="0.15"/>
<rect opacity="0.1" x="23.877" y="137.306" width="9.45242" height="9.45242" rx="3.15081" fill="#4A2E7E"/>
<rect x="19.9385" y="149.909" width="17.7233" height="3.15081" rx="1.5754" fill="#394C60" fill-opacity="0.15"/>
<g filter="url(#filter0_dd_6839_89836)">
<g clip-path="url(#clip3_6839_89836)">
<path d="M145.577 25.4525C145.577 21.9722 148.398 19.1509 151.878 19.1509H544.547C548.028 19.1509 550.849 21.9722 550.849 25.4525V309.025C550.849 312.505 548.028 315.327 544.547 315.327H151.878C148.398 315.327 145.577 312.505 145.577 309.025V25.4525Z" fill="white"/>
<rect width="392.669" height="22.4524" transform="translate(151.878 19.1509)" fill="white"/>
<rect x="151.878" y="26.2417" width="90.5856" height="8.27086" fill="white"/>
<path d="M256.84 25.6508C256.84 23.9107 258.251 22.5 259.991 22.5H436.436C438.176 22.5 439.587 23.9107 439.587 25.6508V35.1032C439.587 36.8434 438.176 38.254 436.436 38.254H259.991C258.251 38.254 256.84 36.8434 256.84 35.1032V25.6508Z" fill="white"/>
<path d="M257.037 25.6508C257.037 24.0194 258.359 22.6969 259.991 22.6969H436.436C438.067 22.6969 439.39 24.0194 439.39 25.6508V35.1032C439.39 36.7346 438.067 38.0571 436.436 38.0571H259.991C258.359 38.0571 257.037 36.7346 257.037 35.1032V25.6508Z" stroke="#35475A" stroke-opacity="0.2" stroke-width="0.393851"/>
<path fill-rule="evenodd" clip-rule="evenodd" d="M264.126 32.7403C262.495 32.7403 261.172 31.4178 261.172 29.7864C261.172 28.155 262.495 26.8325 264.126 26.8325C265.758 26.8325 267.08 28.155 267.08 29.7864C267.08 30.4325 266.873 31.0302 266.521 31.5165L268.172 33.1677C268.326 33.3215 268.326 33.5709 268.172 33.7247C268.018 33.8785 267.769 33.8785 267.615 33.7247L265.978 32.0878C265.472 32.496 264.827 32.7403 264.126 32.7403ZM266.489 29.7862C266.489 31.0913 265.431 32.1493 264.126 32.1493C262.821 32.1493 261.763 31.0913 261.763 29.7862C261.763 28.4811 262.821 27.4231 264.126 27.4231C265.431 27.4231 266.489 28.4811 266.489 29.7862Z" fill="#0E1318"/>
<path d="M274.314 32.1317C274.066 32.1317 273.844 32.0985 273.646 32.0321C273.451 31.9639 273.287 31.8751 273.156 31.7656C273.025 31.6561 272.928 31.5358 272.863 31.4048L273.116 31.0979H273.183C273.427 31.5089 273.804 31.7144 274.314 31.7144C274.61 31.7144 274.83 31.6525 274.974 31.5287C275.119 31.4048 275.192 31.2325 275.192 31.0117C275.192 30.8825 275.168 30.773 275.119 30.6833C275.072 30.5935 274.994 30.5172 274.885 30.4544C274.775 30.3898 274.626 30.3341 274.438 30.2875L273.978 30.1744C273.635 30.0918 273.382 29.9608 273.218 29.7813C273.057 29.6 272.976 29.3712 272.976 29.0948C272.976 28.8991 273.026 28.725 273.127 28.5725C273.227 28.4181 273.375 28.2978 273.568 28.2117C273.762 28.1255 273.994 28.0825 274.263 28.0825C274.559 28.0825 274.809 28.1246 275.011 28.209C275.216 28.2916 275.379 28.4163 275.501 28.5832L275.275 28.8875H275.208C275.095 28.7493 274.961 28.6478 274.807 28.5832C274.652 28.5186 274.471 28.4863 274.263 28.4863C273.99 28.4863 273.784 28.5393 273.644 28.6452C273.506 28.7511 273.436 28.8973 273.436 29.084C273.436 29.2617 273.488 29.4035 273.59 29.5094C273.692 29.6135 273.865 29.6943 274.107 29.7517L274.578 29.8648C274.96 29.9545 275.237 30.0927 275.407 30.2794C275.58 30.4643 275.666 30.7012 275.666 30.9902C275.666 31.2127 275.615 31.4102 275.515 31.5825C275.416 31.753 275.265 31.8876 275.063 31.9863C274.86 32.0833 274.61 32.1317 274.314 32.1317ZM278.8 30.6913H276.759C276.771 31.0521 276.858 31.3169 277.017 31.4856C277.179 31.6543 277.4 31.7387 277.68 31.7387C277.891 31.7387 278.062 31.701 278.191 31.6256C278.32 31.5502 278.422 31.4317 278.495 31.2702H278.552L278.837 31.4398C278.751 31.6552 278.613 31.8248 278.423 31.9487C278.234 32.0707 277.987 32.1317 277.68 32.1317C277.392 32.1317 277.146 32.0752 276.939 31.9621C276.733 31.849 276.574 31.6776 276.463 31.4479C276.351 31.2181 276.296 30.9327 276.296 30.5917C276.296 30.2543 276.354 29.9698 276.471 29.7382C276.589 29.5067 276.75 29.3344 276.953 29.2213C277.157 29.1064 277.391 29.049 277.653 29.049C278.033 29.049 278.33 29.1567 278.544 29.3721C278.757 29.5857 278.865 29.9034 278.867 30.3252C278.867 30.4903 278.863 30.6016 278.856 30.659L278.8 30.6913ZM278.433 30.3252C278.426 30.0093 278.356 29.7795 278.223 29.6359C278.091 29.4923 277.9 29.4205 277.653 29.4205C277.392 29.4205 277.188 29.4932 277.039 29.6386C276.892 29.7822 276.802 30.0111 276.77 30.3252H278.433ZM280.361 32.1317C280.069 32.1317 279.84 32.0555 279.675 31.9029C279.511 31.7503 279.43 31.5322 279.43 31.2486C279.43 31.0727 279.465 30.9247 279.537 30.8044C279.611 30.6824 279.724 30.5836 279.877 30.5083C280.029 30.4311 280.228 30.3718 280.474 30.3306C280.69 30.2947 280.853 30.2543 280.964 30.2094C281.077 30.1645 281.153 30.1143 281.19 30.0586C281.23 30.003 281.25 29.933 281.25 29.8486C281.25 29.714 281.203 29.6108 281.11 29.539C281.018 29.4672 280.87 29.4313 280.665 29.4313C280.473 29.4313 280.308 29.469 280.17 29.5444C280.034 29.618 279.908 29.7284 279.793 29.8756H279.739L279.524 29.5713C279.649 29.4116 279.809 29.285 280.003 29.1917C280.197 29.0966 280.418 29.049 280.665 29.049C281.015 29.049 281.273 29.1262 281.438 29.2805C281.605 29.4331 281.688 29.6449 281.688 29.9159V31.491C281.688 31.6561 281.758 31.7387 281.898 31.7387C281.945 31.7387 281.99 31.7306 282.033 31.7144L282.071 31.7252L282.122 32.0294C282.09 32.051 282.047 32.0671 281.993 32.0779C281.941 32.0905 281.887 32.0967 281.831 32.0967C281.668 32.0967 281.544 32.0608 281.46 31.989C281.377 31.9172 281.324 31.8113 281.301 31.6713L281.244 31.666C281.16 31.8221 281.046 31.9388 280.902 32.016C280.759 32.0931 280.578 32.1317 280.361 32.1317ZM280.458 31.7817C280.623 31.7817 280.766 31.744 280.886 31.6687C281.008 31.5915 281.102 31.4838 281.166 31.3456C281.231 31.2074 281.263 31.0476 281.263 30.8663V30.4894L281.212 30.4786C281.146 30.5253 281.065 30.5648 280.97 30.5971C280.874 30.6276 280.742 30.6554 280.571 30.6806C280.399 30.7039 280.262 30.7398 280.159 30.7883C280.059 30.8367 279.987 30.8986 279.944 30.974C279.901 31.0476 279.879 31.1392 279.879 31.2486C279.879 31.4228 279.93 31.5556 280.033 31.6471C280.135 31.7369 280.277 31.7817 280.458 31.7817ZM282.728 32.0752V29.1055H283.145V29.5713L283.202 29.5848C283.34 29.2473 283.6 29.0786 283.982 29.0786C284.185 29.0786 284.337 29.1154 284.437 29.189L284.324 29.5606L284.27 29.5713C284.159 29.5157 284.037 29.4879 283.904 29.4879C283.667 29.4879 283.485 29.5767 283.358 29.7544C283.23 29.9321 283.167 30.2202 283.167 30.6186V32.0752H282.728ZM286.128 32.1317C285.866 32.1317 285.631 32.0725 285.423 31.954C285.215 31.8338 285.05 31.6579 284.93 31.4263C284.81 31.193 284.75 30.9148 284.75 30.5917C284.75 30.2668 284.81 29.9886 284.93 29.7571C285.05 29.5238 285.215 29.3479 285.423 29.2294C285.631 29.1091 285.866 29.049 286.128 29.049C286.442 29.049 286.692 29.1082 286.877 29.2267C287.063 29.3452 287.198 29.5031 287.28 29.7006L286.982 29.9159H286.928C286.847 29.7526 286.743 29.6332 286.615 29.5579C286.49 29.4807 286.327 29.4421 286.128 29.4421C285.945 29.4421 285.784 29.4852 285.646 29.5713C285.508 29.6575 285.4 29.7867 285.323 29.959C285.248 30.1313 285.21 30.3422 285.21 30.5917C285.21 30.8394 285.249 31.0494 285.326 31.2217C285.403 31.3922 285.51 31.5215 285.646 31.6094C285.784 31.6956 285.945 31.7387 286.128 31.7387C286.335 31.7387 286.505 31.692 286.64 31.5987C286.776 31.5053 286.883 31.3581 286.96 31.1571H287.017L287.305 31.3267C287.228 31.5762 287.089 31.7728 286.89 31.9163C286.693 32.0599 286.439 32.1317 286.128 32.1317ZM288.005 32.0752V27.9128H288.444V29.5282L288.5 29.539C288.712 29.2123 289.018 29.049 289.418 29.049C289.775 29.049 290.034 29.1405 290.194 29.3236C290.355 29.5049 290.436 29.7849 290.436 30.1636V32.0752H289.997V30.1744C289.997 29.9949 289.974 29.8513 289.927 29.7436C289.882 29.6341 289.811 29.5552 289.714 29.5067C289.619 29.4564 289.494 29.4313 289.337 29.4313C289.068 29.4313 288.852 29.5184 288.689 29.6925C288.525 29.8666 288.444 30.1529 288.444 30.5513V32.0752H288.005ZM292.854 33.3352C292.753 33.3352 292.659 33.3262 292.571 33.3083C292.485 33.2921 292.41 33.2688 292.347 33.2383L292.428 32.891L292.477 32.8748C292.52 32.8964 292.574 32.9143 292.638 32.9287C292.703 32.9448 292.769 32.9529 292.837 32.9529C292.958 32.9529 293.057 32.9367 293.136 32.9044C293.215 32.8721 293.283 32.8183 293.338 32.7429C293.396 32.6693 293.449 32.567 293.497 32.436L293.602 32.1452L292.409 29.1055H292.883L293.817 31.5287H293.869L294.773 29.1055H295.223L293.896 32.541C293.82 32.7312 293.736 32.8838 293.642 32.9987C293.549 33.1153 293.439 33.2006 293.311 33.2544C293.184 33.3083 293.031 33.3352 292.854 33.3352ZM297.037 32.1317C296.757 32.1317 296.513 32.0725 296.305 31.954C296.099 31.8356 295.939 31.6615 295.826 31.4317C295.715 31.2002 295.659 30.9202 295.659 30.5917C295.659 30.2633 295.715 29.9832 295.826 29.7517C295.939 29.5202 296.099 29.3452 296.305 29.2267C296.513 29.1082 296.757 29.049 297.037 29.049C297.317 29.049 297.561 29.1082 297.767 29.2267C297.975 29.3452 298.135 29.5202 298.246 29.7517C298.359 29.9832 298.416 30.2633 298.416 30.5917C298.416 30.9202 298.359 31.2002 298.246 31.4317C298.135 31.6615 297.975 31.8356 297.767 31.954C297.561 32.0725 297.317 32.1317 297.037 32.1317ZM297.037 31.7387C297.334 31.7387 297.56 31.6453 297.716 31.4586C297.874 31.272 297.953 30.983 297.953 30.5917C297.953 30.1986 297.874 29.9088 297.716 29.7221C297.56 29.5354 297.334 29.4421 297.037 29.4421C296.741 29.4421 296.514 29.5363 296.356 29.7248C296.198 29.9115 296.119 30.2004 296.119 30.5917C296.119 30.983 296.198 31.272 296.356 31.4586C296.514 31.6453 296.741 31.7387 297.037 31.7387ZM300.209 32.1317C299.873 32.1317 299.623 32.0429 299.458 31.8652C299.295 31.6875 299.213 31.4272 299.213 31.0844V29.1055H299.652V31.0736C299.652 31.5242 299.864 31.7494 300.287 31.7494C300.556 31.7494 300.769 31.6615 300.925 31.4856C301.081 31.3097 301.159 31.0243 301.159 30.6294V29.1055H301.598V32.0752H301.184V31.6094L301.127 31.596C301.025 31.7772 300.902 31.9119 300.758 31.9998C300.617 32.0878 300.433 32.1317 300.209 32.1317ZM302.635 32.0752V29.1055H303.052V29.5713L303.109 29.5848C303.247 29.2473 303.507 29.0786 303.889 29.0786C304.092 29.0786 304.244 29.1154 304.344 29.189L304.231 29.5606L304.178 29.5713C304.066 29.5157 303.944 29.4879 303.811 29.4879C303.574 29.4879 303.392 29.5767 303.265 29.7544C303.137 29.9321 303.074 30.2202 303.074 30.6186V32.0752H302.635ZM307.468 32.1317C307.206 32.1317 306.97 32.0725 306.762 31.954C306.554 31.8338 306.39 31.6579 306.27 31.4263C306.149 31.193 306.089 30.9148 306.089 30.5917C306.089 30.2668 306.149 29.9886 306.27 29.7571C306.39 29.5238 306.554 29.3479 306.762 29.2294C306.97 29.1091 307.206 29.049 307.468 29.049C307.782 29.049 308.031 29.1082 308.216 29.2267C308.403 29.3452 308.537 29.5031 308.62 29.7006L308.321 29.9159H308.267C308.186 29.7526 308.082 29.6332 307.955 29.5579C307.829 29.4807 307.667 29.4421 307.468 29.4421C307.285 29.4421 307.124 29.4852 306.986 29.5713C306.847 29.6575 306.74 29.7867 306.663 29.959C306.587 30.1313 306.55 30.3422 306.55 30.5917C306.55 30.8394 306.588 31.0494 306.665 31.2217C306.742 31.3922 306.849 31.5215 306.986 31.6094C307.124 31.6956 307.285 31.7387 307.468 31.7387C307.674 31.7387 307.845 31.692 307.979 31.5987C308.116 31.5053 308.222 31.3581 308.3 31.1571H308.356L308.644 31.3267C308.567 31.5762 308.429 31.7728 308.23 31.9163C308.032 32.0599 307.778 32.1317 307.468 32.1317ZM310.531 32.1317C310.251 32.1317 310.007 32.0725 309.799 31.954C309.593 31.8356 309.433 31.6615 309.32 31.4317C309.209 31.2002 309.153 30.9202 309.153 30.5917C309.153 30.2633 309.209 29.9832 309.32 29.7517C309.433 29.5202 309.593 29.3452 309.799 29.2267C310.007 29.1082 310.251 29.049 310.531 29.049C310.811 29.049 311.055 29.1082 311.261 29.2267C311.469 29.3452 311.629 29.5202 311.74 29.7517C311.853 29.9832 311.91 30.2633 311.91 30.5917C311.91 30.9202 311.853 31.2002 311.74 31.4317C311.629 31.6615 311.469 31.8356 311.261 31.954C311.055 32.0725 310.811 32.1317 310.531 32.1317ZM310.531 31.7387C310.828 31.7387 311.054 31.6453 311.21 31.4586C311.368 31.272 311.447 30.983 311.447 30.5917C311.447 30.1986 311.368 29.9088 311.21 29.7221C311.054 29.5354 310.828 29.4421 310.531 29.4421C310.235 29.4421 310.008 29.5363 309.85 29.7248C309.692 29.9115 309.613 30.2004 309.613 30.5917C309.613 30.983 309.692 31.272 309.85 31.4586C310.008 31.6453 310.235 31.7387 310.531 31.7387ZM312.753 32.0752V29.1055H313.17V29.5713L313.227 29.5848C313.325 29.4107 313.451 29.2779 313.603 29.1863C313.758 29.0948 313.945 29.049 314.166 29.049C314.523 29.049 314.782 29.1405 314.942 29.3236C315.103 29.5049 315.184 29.7849 315.184 30.1636V32.0752H314.745V30.1744C314.745 29.9949 314.722 29.8513 314.675 29.7436C314.63 29.6341 314.559 29.5552 314.462 29.5067C314.367 29.4564 314.242 29.4313 314.085 29.4313C313.818 29.4313 313.602 29.5202 313.437 29.6979C313.273 29.8738 313.192 30.1583 313.192 30.5513V32.0752H312.753ZM317.642 31.604L317.782 31.919C317.712 31.989 317.62 32.042 317.505 32.0779C317.392 32.1138 317.269 32.1317 317.136 32.1317C316.569 32.1317 316.285 31.8446 316.285 31.2702V29.4636H315.768V29.1029H316.285V28.4755L316.724 28.4028V29.1029H317.68V29.4636H316.724V31.2271C316.724 31.5681 316.872 31.7387 317.168 31.7387C317.33 31.7387 317.469 31.6938 317.585 31.604H317.642ZM320.687 30.6913H318.646C318.659 31.0521 318.745 31.3169 318.905 31.4856C319.066 31.6543 319.287 31.7387 319.567 31.7387C319.779 31.7387 319.949 31.701 320.079 31.6256C320.208 31.5502 320.309 31.4317 320.383 31.2702H320.439L320.725 31.4398C320.639 31.6552 320.5 31.8248 320.31 31.9487C320.122 32.0707 319.874 32.1317 319.567 32.1317C319.28 32.1317 319.033 32.0752 318.827 31.9621C318.62 31.849 318.461 31.6776 318.35 31.4479C318.239 31.2181 318.183 30.9327 318.183 30.5917C318.183 30.2543 318.241 29.9698 318.358 29.7382C318.477 29.5067 318.637 29.3344 318.84 29.2213C319.045 29.1064 319.278 29.049 319.54 29.049C319.921 29.049 320.218 29.1567 320.431 29.3721C320.645 29.5857 320.753 29.9034 320.754 30.3252C320.754 30.4903 320.751 30.6016 320.744 30.659L320.687 30.6913ZM320.321 30.3252C320.314 30.0093 320.244 29.7795 320.111 29.6359C319.978 29.4923 319.788 29.4205 319.54 29.4205C319.28 29.4205 319.075 29.4932 318.926 29.6386C318.779 29.7822 318.689 30.0111 318.657 30.3252H320.321ZM321.54 32.0752V29.1055H321.958V29.5713L322.014 29.5848C322.113 29.4107 322.239 29.2779 322.391 29.1863C322.546 29.0948 322.733 29.049 322.954 29.049C323.311 29.049 323.57 29.1405 323.729 29.3236C323.891 29.5049 323.972 29.7849 323.972 30.1636V32.0752H323.533V30.1744C323.533 29.9949 323.509 29.8513 323.463 29.7436C323.418 29.6341 323.347 29.5552 323.25 29.5067C323.155 29.4564 323.029 29.4313 322.873 29.4313C322.606 29.4313 322.389 29.5202 322.224 29.6979C322.061 29.8738 321.979 30.1583 321.979 30.5513V32.0752H321.54ZM326.43 31.604L326.57 31.919C326.5 31.989 326.407 32.042 326.292 32.0779C326.179 32.1138 326.056 32.1317 325.924 32.1317C325.356 32.1317 325.073 31.8446 325.073 31.2702V29.4636H324.556V29.1029H325.073V28.4755L325.512 28.4028V29.1029H326.467V29.4636H325.512V31.2271C325.512 31.5681 325.66 31.7387 325.956 31.7387C326.117 31.7387 326.257 31.6938 326.373 31.604H326.43ZM329.739 32.1317C329.459 32.1317 329.215 32.0725 329.006 31.954C328.8 31.8356 328.64 31.6615 328.527 31.4317C328.416 31.2002 328.36 30.9202 328.36 30.5917C328.36 30.2633 328.416 29.9832 328.527 29.7517C328.64 29.5202 328.8 29.3452 329.006 29.2267C329.215 29.1082 329.459 29.049 329.739 29.049C330.019 29.049 330.262 29.1082 330.468 29.2267C330.676 29.3452 330.836 29.5202 330.947 29.7517C331.061 29.9832 331.117 30.2633 331.117 30.5917C331.117 30.9202 331.061 31.2002 330.947 31.4317C330.836 31.6615 330.676 31.8356 330.468 31.954C330.262 32.0725 330.019 32.1317 329.739 32.1317ZM329.739 31.7387C330.035 31.7387 330.261 31.6453 330.417 31.4586C330.575 31.272 330.654 30.983 330.654 30.5917C330.654 30.1986 330.575 29.9088 330.417 29.7221C330.261 29.5354 330.035 29.4421 329.739 29.4421C329.442 29.4421 329.215 29.5363 329.057 29.7248C328.9 29.9115 328.821 30.2004 328.821 30.5917C328.821 30.983 328.9 31.272 329.057 31.4586C329.215 31.6453 329.442 31.7387 329.739 31.7387ZM331.96 32.0752V29.1055H332.377V29.5713L332.434 29.5848C332.572 29.2473 332.832 29.0786 333.214 29.0786C333.417 29.0786 333.569 29.1154 333.669 29.189L333.556 29.5606L333.503 29.5713C333.391 29.5157 333.269 29.4879 333.136 29.4879C332.899 29.4879 332.717 29.5767 332.59 29.7544C332.462 29.9321 332.399 30.2202 332.399 30.6186V32.0752H331.96ZM337.264 32.1317C336.919 32.1317 336.612 32.0528 336.343 31.8948C336.074 31.7369 335.863 31.5062 335.71 31.2029C335.558 30.8977 335.481 30.5325 335.481 30.1071C335.481 29.6817 335.558 29.3173 335.71 29.014C335.863 28.7089 336.074 28.4773 336.343 28.3194C336.612 28.1614 336.919 28.0825 337.264 28.0825C337.632 28.0825 337.938 28.1525 338.182 28.2925C338.426 28.4307 338.602 28.6398 338.71 28.9198L338.413 29.1163H338.346C338.238 28.892 338.098 28.7331 337.926 28.6398C337.754 28.5446 337.533 28.4971 337.264 28.4971C337.016 28.4971 336.796 28.5527 336.604 28.664C336.412 28.7735 336.259 28.9485 336.146 29.189C336.033 29.4277 335.977 29.7338 335.977 30.1071C335.977 30.4804 336.033 30.7865 336.146 31.0252C336.259 31.2639 336.412 31.4389 336.604 31.5502C336.796 31.6597 337.016 31.7144 337.264 31.7144C337.549 31.7144 337.782 31.6507 337.964 31.5233C338.145 31.394 338.28 31.1858 338.368 30.8986H338.435L338.745 31.0521C338.651 31.4003 338.478 31.6678 338.225 31.8544C337.974 32.0393 337.653 32.1317 337.264 32.1317ZM340.174 32.1317C339.882 32.1317 339.653 32.0555 339.488 31.9029C339.324 31.7503 339.243 31.5322 339.243 31.2486C339.243 31.0727 339.278 30.9247 339.35 30.8044C339.424 30.6824 339.537 30.5836 339.69 30.5083C339.842 30.4311 340.041 30.3718 340.287 30.3306C340.503 30.2947 340.666 30.2543 340.777 30.2094C340.89 30.1645 340.966 30.1143 341.003 30.0586C341.043 30.003 341.063 29.933 341.063 29.8486C341.063 29.714 341.016 29.6108 340.923 29.539C340.831 29.4672 340.683 29.4313 340.478 29.4313C340.286 29.4313 340.121 29.469 339.983 29.5444C339.847 29.618 339.721 29.7284 339.606 29.8756H339.552L339.337 29.5713C339.462 29.4116 339.622 29.285 339.816 29.1917C340.01 29.0966 340.231 29.049 340.478 29.049C340.828 29.049 341.086 29.1262 341.251 29.2805C341.418 29.4331 341.501 29.6449 341.501 29.9159V31.491C341.501 31.6561 341.571 31.7387 341.711 31.7387C341.758 31.7387 341.803 31.7306 341.846 31.7144L341.884 31.7252L341.935 32.0294C341.903 32.051 341.86 32.0671 341.806 32.0779C341.754 32.0905 341.7 32.0967 341.644 32.0967C341.481 32.0967 341.357 32.0608 341.273 31.989C341.19 31.9172 341.137 31.8113 341.114 31.6713L341.057 31.666C340.973 31.8221 340.859 31.9388 340.715 32.016C340.572 32.0931 340.391 32.1317 340.174 32.1317ZM340.271 31.7817C340.436 31.7817 340.579 31.744 340.699 31.6687C340.821 31.5915 340.915 31.4838 340.979 31.3456C341.044 31.2074 341.076 31.0476 341.076 30.8663V30.4894L341.025 30.4786C340.959 30.5253 340.878 30.5648 340.783 30.5971C340.687 30.6276 340.555 30.6554 340.384 30.6806C340.212 30.7039 340.075 30.7398 339.972 30.7883C339.872 30.8367 339.8 30.8986 339.757 30.974C339.714 31.0476 339.692 31.1392 339.692 31.2486C339.692 31.4228 339.743 31.5556 339.846 31.6471C339.948 31.7369 340.09 31.7817 340.271 31.7817ZM342.541 32.0752V29.1055H342.958V29.5713L343.015 29.5848C343.113 29.4107 343.239 29.2779 343.391 29.1863C343.546 29.0948 343.733 29.049 343.954 29.049C344.311 29.049 344.57 29.1405 344.73 29.3236C344.891 29.5049 344.972 29.7849 344.972 30.1636V32.0752H344.533V30.1744C344.533 29.9949 344.51 29.8513 344.463 29.7436C344.418 29.6341 344.347 29.5552 344.25 29.5067C344.155 29.4564 344.03 29.4313 343.873 29.4313C343.606 29.4313 343.39 29.5202 343.225 29.6979C343.061 29.8738 342.98 30.1583 342.98 30.5513V32.0752H342.541ZM347.285 32.0752H346.682L345.551 29.1055H346.025L346.959 31.5744H347.021L347.947 29.1055H348.41L347.285 32.0752ZM349.721 32.1317C349.429 32.1317 349.2 32.0555 349.035 31.9029C348.871 31.7503 348.79 31.5322 348.79 31.2486C348.79 31.0727 348.826 30.9247 348.897 30.8044C348.971 30.6824 349.084 30.5836 349.237 30.5083C349.389 30.4311 349.588 30.3718 349.834 30.3306C350.05 30.2947 350.213 30.2543 350.324 30.2094C350.437 30.1645 350.513 30.1143 350.55 30.0586C350.59 30.003 350.61 29.933 350.61 29.8486C350.61 29.714 350.563 29.6108 350.47 29.539C350.378 29.4672 350.23 29.4313 350.025 29.4313C349.833 29.4313 349.668 29.469 349.53 29.5444C349.394 29.618 349.268 29.7284 349.153 29.8756H349.099L348.884 29.5713C349.009 29.4116 349.169 29.285 349.363 29.1917C349.557 29.0966 349.778 29.049 350.025 29.049C350.375 29.049 350.633 29.1262 350.798 29.2805C350.965 29.4331 351.048 29.6449 351.048 29.9159V31.491C351.048 31.6561 351.118 31.7387 351.258 31.7387C351.305 31.7387 351.35 31.7306 351.393 31.7144L351.431 31.7252L351.482 32.0294C351.45 32.051 351.407 32.0671 351.353 32.0779C351.301 32.0905 351.247 32.0967 351.191 32.0967C351.028 32.0967 350.904 32.0608 350.82 31.989C350.737 31.9172 350.684 31.8113 350.661 31.6713L350.604 31.666C350.52 31.8221 350.406 31.9388 350.262 32.016C350.119 32.0931 349.938 32.1317 349.721 32.1317ZM349.818 31.7817C349.983 31.7817 350.126 31.744 350.246 31.6687C350.368 31.5915 350.462 31.4838 350.526 31.3456C350.591 31.2074 350.623 31.0476 350.623 30.8663V30.4894L350.572 30.4786C350.506 30.5253 350.425 30.5648 350.33 30.5971C350.235 30.6276 350.102 30.6554 349.931 30.6806C349.759 30.7039 349.622 30.7398 349.519 30.7883C349.419 30.8367 349.347 30.8986 349.304 30.974C349.261 31.0476 349.239 31.1392 349.239 31.2486C349.239 31.4228 349.29 31.5556 349.393 31.6471C349.495 31.7369 349.637 31.7817 349.818 31.7817ZM351.67 29.3075C351.834 29.2123 351.966 29.1046 352.066 28.9844C352.167 28.8623 352.221 28.7358 352.228 28.6048C352.12 28.6048 352.036 28.5761 351.975 28.5186C351.914 28.4612 351.883 28.3849 351.883 28.2898C351.883 28.1964 351.912 28.1201 351.969 28.0609C352.029 27.9999 352.107 27.9694 352.204 27.9694C352.309 27.9694 352.395 28.0062 352.459 28.0798C352.526 28.1534 352.559 28.2682 352.559 28.4244C352.559 28.6703 352.498 28.8857 352.376 29.0705C352.256 29.2554 352.079 29.425 351.845 29.5794L351.67 29.3075ZM354.137 32.1317C353.95 32.1317 353.777 32.1075 353.617 32.059C353.459 32.0088 353.325 31.9406 353.216 31.8544C353.106 31.7683 353.029 31.6713 352.984 31.5637L353.243 31.2944H353.299C353.396 31.4416 353.513 31.5529 353.649 31.6283C353.786 31.7019 353.948 31.7387 354.137 31.7387C354.356 31.7387 354.522 31.6965 354.635 31.6121C354.75 31.526 354.807 31.4066 354.807 31.254C354.807 31.1374 354.772 31.0413 354.702 30.966C354.634 30.8888 354.523 30.8313 354.368 30.7936L353.867 30.6698C353.6 30.6052 353.404 30.5029 353.28 30.3629C353.158 30.2229 353.097 30.0497 353.097 29.8432C353.097 29.6817 353.139 29.5417 353.221 29.4232C353.304 29.303 353.422 29.2105 353.577 29.1459C353.733 29.0813 353.918 29.049 354.131 29.049C354.404 29.049 354.619 29.0876 354.775 29.1648C354.933 29.2402 355.056 29.3461 355.144 29.4825L354.896 29.7248H354.842C354.747 29.6153 354.643 29.5363 354.53 29.4879C354.418 29.4394 354.286 29.4152 354.131 29.4152C353.936 29.4152 353.786 29.4502 353.682 29.5202C353.578 29.5902 353.525 29.6916 353.525 29.8244C353.525 29.9447 353.562 30.0416 353.636 30.1152C353.709 30.1888 353.838 30.248 354.021 30.2929L354.514 30.4113C354.772 30.4724 354.959 30.5738 355.074 30.7156C355.188 30.8574 355.246 31.0351 355.246 31.2486C355.246 31.4228 355.205 31.5762 355.122 31.709C355.039 31.8419 354.915 31.946 354.748 32.0213C354.581 32.0949 354.377 32.1317 354.137 32.1317Z" fill="#11171D" fill-opacity="0.6"/>
<g clip-path="url(#clip4_6839_89836)">
<rect x="151.878" y="41.6035" width="392.669" height="63.0161" rx="4.72621" fill="#40576D" fill-opacity="0.07"/>
<rect x="151.878" y="110.921" width="53.1698" height="15.754" rx="3.15081" fill="white"/>
<rect x="152.075" y="111.118" width="52.776" height="15.3602" rx="2.95388" stroke="#2B3B4A" stroke-opacity="0.3" stroke-width="0.393851"/>
<rect x="156.604" y="117.223" width="34.265" height="3.15081" rx="1.5754" fill="#394C60" fill-opacity="0.15"/>
<path d="M198.634 118.196L197.241 119.588C197.203 119.627 197.14 119.627 197.102 119.588L195.709 118.196C195.594 118.081 195.407 118.081 195.292 118.196C195.176 118.311 195.176 118.498 195.292 118.614L196.684 120.006C196.953 120.275 197.39 120.275 197.659 120.006L199.051 118.614C199.167 118.498 199.167 118.311 199.051 118.196C198.936 118.081 198.749 118.081 198.634 118.196Z" fill="#0E1318"/>
<rect x="208.199" y="110.921" width="53.1698" height="15.754" rx="3.15081" fill="white"/>
<rect x="208.396" y="111.118" width="52.776" height="15.3602" rx="2.95388" stroke="#2B3B4A" stroke-opacity="0.3" stroke-width="0.393851"/>
<rect x="212.925" y="117.223" width="34.265" height="3.15081" rx="1.5754" fill="#394C60" fill-opacity="0.15"/>
<path d="M254.954 118.196L253.562 119.588C253.524 119.627 253.461 119.627 253.423 119.588L252.03 118.196C251.915 118.081 251.728 118.081 251.613 118.196C251.497 118.311 251.497 118.498 251.613 118.614L253.005 120.006C253.274 120.275 253.711 120.275 253.98 120.006L255.372 118.614C255.488 118.498 255.488 118.311 255.372 118.196C255.257 118.081 255.07 118.081 254.954 118.196Z" fill="#0E1318"/>
<rect x="264.52" y="110.921" width="61.4407" height="15.754" rx="3.15081" fill="white"/>
<rect x="264.716" y="111.118" width="61.0468" height="15.3602" rx="2.95388" stroke="#2B3B4A" stroke-opacity="0.3" stroke-width="0.393851"/>
<rect x="269.246" y="117.223" width="42.5359" height="3.15081" rx="1.5754" fill="#394C60" fill-opacity="0.15"/>
<path d="M319.546 118.196L318.153 119.588C318.115 119.627 318.052 119.627 318.014 119.588L316.622 118.196C316.506 118.081 316.319 118.081 316.204 118.196C316.088 118.311 316.088 118.498 316.204 118.614L317.596 120.006C317.865 120.275 318.302 120.275 318.571 120.006L319.963 118.614C320.079 118.498 320.079 118.311 319.963 118.196C319.848 118.081 319.661 118.081 319.546 118.196Z" fill="#0E1318"/>
<mask id="path-70-inside-2_6839_89836" fill="white">
<path d="M151.878 132.977H180.236V148.731H151.878V132.977Z"/>
</mask>
<path d="M180.236 147.943H151.878V149.519H180.236V147.943Z" fill="#8B3DFF" mask="url(#path-70-inside-2_6839_89836)"/>
<rect x="158.18" y="139.279" width="15.754" height="3.15081" rx="1.5754" fill="#394C60" fill-opacity="0.15"/>
<rect x="189.688" y="139.279" width="15.754" height="3.15081" rx="1.5754" fill="#394C60" fill-opacity="0.15"/>
<rect x="221.196" y="139.279" width="15.754" height="3.15081" rx="1.5754" fill="#394C60" fill-opacity="0.15"/>
<rect x="252.704" y="139.279" width="15.754" height="3.15081" rx="1.5754" fill="#394C60" fill-opacity="0.15"/>
<rect x="284.212" y="139.279" width="15.754" height="3.15081" rx="1.5754" fill="#394C60" fill-opacity="0.15"/>
</g>
</g>
</g>
</g>
<rect x="16.1969" y="16.1969" width="537.606" height="302.083" rx="1.37848" stroke="#394C60" stroke-opacity="0.15" stroke-width="0.393851"/>
<defs>
<filter id="filter0_dd_6839_89836" x="139.275" y="15.2124" width="417.876" height="308.779" filterUnits="userSpaceOnUse" color-interpolation-filters="sRGB">
<feFlood flood-opacity="0" result="BackgroundImageFix"/>
<feColorMatrix in="SourceAlpha" type="matrix" values="0 0 0 0 0 0 0 0 0 0 0 0 0 0 0 0 0 0 127 0" result="hardAlpha"/>
<feMorphology radius="1.5754" operator="erode" in="SourceAlpha" result="effect1_dropShadow_6839_89836"/>
<feOffset dy="2.3631"/>
<feGaussianBlur stdDeviation="3.93851"/>
<feColorMatrix type="matrix" values="0 0 0 0 0.25098 0 0 0 0 0.341176 0 0 0 0 0.427451 0 0 0 0.3 0"/>
<feBlend mode="normal" in2="BackgroundImageFix" result="effect1_dropShadow_6839_89836"/>
<feColorMatrix in="SourceAlpha" type="matrix" values="0 0 0 0 0 0 0 0 0 0 0 0 0 0 0 0 0 0 127 0" result="hardAlpha"/>
<feMorphology radius="0.393851" operator="dilate" in="SourceAlpha" result="effect2_dropShadow_6839_89836"/>
<feOffset/>
<feColorMatrix type="matrix" values="0 0 0 0 0.25098 0 0 0 0 0.341176 0 0 0 0 0.427451 0 0 0 0.04 0"/>
<feBlend mode="normal" in2="effect1_dropShadow_6839_89836" result="effect2_dropShadow_6839_89836"/>
<feBlend mode="normal" in="SourceGraphic" in2="effect2_dropShadow_6839_89836" result="shape"/>
</filter>
<linearGradient id="paint0_linear_6839_89836" x1="16" y1="16" x2="17.4245" y2="320.983" gradientUnits="userSpaceOnUse">
<stop stop-color="#EBE0FC"/>
<stop offset="0.63" stop-color="#DDEAF9"/>
</linearGradient>
<radialGradient id="paint1_radial_6839_89836" cx="0" cy="0" r="1" gradientUnits="userSpaceOnUse" gradientTransform="translate(64.034 34.6845) rotate(-45.8069) scale(9.49204 6.30826)">
<stop stop-color="#6420FF"/>
<stop offset="1" stop-color="#6420FF" stop-opacity="0"/>
</radialGradient>
<radialGradient id="paint2_radial_6839_89836" cx="0" cy="0" r="1" gradientUnits="userSpaceOnUse" gradientTransform="translate(48.658 30.2104) rotate(5.08826) scale(18.4735 14.7238)">
<stop offset="0.25" stop-color="#00C4CC"/>
<stop offset="1" stop-color="#00C4CC" stop-opacity="0"/>
</radialGradient>
<radialGradient id="paint3_radial_6839_89836" cx="0" cy="0" r="1" gradientUnits="userSpaceOnUse" gradientTransform="translate(61.3479 33.5817) rotate(-38.8493) scale(11.9045 8.13996)">
<stop stop-color="#6420FF"/>
<stop offset="1" stop-color="#6420FF" stop-opacity="0"/>
</radialGradient>
<radialGradient id="paint4_radial_6839_89836" cx="0" cy="0" r="1" gradientUnits="userSpaceOnUse" gradientTransform="translate(48.7998 33.5817) rotate(-26.1243) scale(13.739 9.39428)">
<stop stop-color="#6420FF"/>
<stop offset="1" stop-color="#6420FF" stop-opacity="0"/>
</radialGradient>
<radialGradient id="paint5_radial_6839_89836" cx="0" cy="0" r="1" gradientUnits="userSpaceOnUse" gradientTransform="translate(50.9266 24.4129) rotate(12.4717) scale(27.429 33.6407)">
<stop stop-color="#00C4CC"/>
<stop offset="1" stop-color="#00C4CC" stop-opacity="0"/>
</radialGradient>
<clipPath id="clip0_6839_89836">
<rect x="16" y="16" width="538" height="302.477" rx="1.5754" fill="white"/>
</clipPath>
<clipPath id="clip1_6839_89836">
<rect width="103.977" height="302.477" fill="white" transform="translate(41.6001 16)"/>
</clipPath>
<clipPath id="clip2_6839_89836">
<rect width="103.977" height="258.366" fill="white" transform="translate(41.6001 60.1113)"/>
</clipPath>
<clipPath id="clip3_6839_89836">
<path d="M145.577 25.4525C145.577 21.9722 148.398 19.1509 151.878 19.1509H544.547C548.028 19.1509 550.849 21.9722 550.849 25.4525V309.025C550.849 312.505 548.028 315.327 544.547 315.327H151.878C148.398 315.327 145.577 312.505 145.577 309.025V25.4525Z" fill="white"/>
</clipPath>
<clipPath id="clip4_6839_89836">
<rect width="392.669" height="644.259" fill="white" transform="translate(151.878 41.6035)"/>
</clipPath>
</defs>
</svg>
